<svg xmlns="http://www.w3.org/2000/svg" width="2048" height="2048" viewBox="718 1420 2048 2048"><path d="M847.142 2286.769v705.438c0 123.063 3.774 223.838 126.839 223.838V2062.929c-123.064 0-126.839 100.775-126.839 223.84zM2509.018 2061.929v1154.116c123.063 0 128.84-100.774 128.84-223.838v-706.438c-.002-123.065-5.777-223.84-128.84-223.84zM2126.259 1788.09c0-61.533-50.379-111.92-111.921-111.92h-542.679c-61.54 0-113.252 50.388-113.252 111.92v273.839H1099.9v1154.116h1281.195V2061.929h-254.838l.002-273.839zm-127.921 271.839h-512.679V1805.09h512.679v254.839z"/></svg>