<svg xmlns="http://www.w3.org/2000/svg" width="2048" height="2048" viewBox="718 1420 2048 2048"><path d="M1870.332 1547.014l-767.5.667c-70.577 0-127.792 57.215-127.792 127.792v1533.091c0 70.577 57.215 127.792 127.792 127.792l1285.948.333c70.576 0 127.792-59.215 121.792-129.792V2188.293l-640.24-641.279zm386.643 1472.182c0 35.291-28.604 63.896-63.896 63.896h-899.545c-35.288 0-63.896-28.605-63.896-63.896V1866.509c0-35.289 28.608-63.896 63.896-63.896h449.273v450.272c0 35.287 28.607 63.896 63.896 63.896h450.271v702.415z"/></svg>