<svg xmlns="http://www.w3.org/2000/svg" width="2048" height="2048" viewBox="718 1420 2048 2048"><path d="M2601.421 2913.343c-53.759-81.741-234.48-132.585-413.404-205.241-178.816-72.644-221.324-97.849-221.324-97.849l-1.576-167.216s67.021-50.184 87.715-207.53c41.947 11.829 85.925-60.93 88.401-99.284 2.245-36.92-5.854-139.371-56.913-129.078 10.353-77.142 17.994-146.498 14.29-183.212-13.389-134.338-149.021-276.019-357.75-276.019s-344.572 141.681-357.845 276.019c-3.716 36.715 3.821 106.07 14.278 183.212-51.166-10.293-59.263 92.157-56.903 129.078 2.361 38.354 46.329 111.113 88.287 99.284 20.798 157.346 87.937 207.53 87.937 207.53l-1.799 167.216s-42.392 25.205-221.325 97.849c-178.817 72.656-359.645 123.5-413.404 205.241-48.246 73.192-33.746 425.157-33.746 425.157H2635.154s14.629-351.965-33.733-425.157z"/></svg>