<svg xmlns="http://www.w3.org/2000/svg" width="2048" height="2048" viewBox="718 1420 2048 2048"><path d="M2604.812 3126.171l.188-.191-473.516-473.516C2208.164 2539.742 2253 2403.611 2253 2257c0-.867-.031-1.729-.031-2.596.004-1.138.031-2.269.031-3.404 0-388.809-315.191-704-704-704s-704 315.191-704 704c0 1.004.031 2 .039 3-.008 1-.039 1.996-.039 3 0 388.808 315.191 704 704 704 149.703 0 288.465-46.766 402.555-126.43L2423.98 3307l.188-.188C2446.75 3326.828 2476.449 3339 2509 3339c70.691 0 128-57.309 128-128 0-32.551-12.176-62.243-32.188-84.829zM1549 2699c-247.424 0-448-200.578-448-448 0-247.424 200.576-448 448-448 247.422 0 448 200.576 448 448 0 247.421-200.578 448-448 448z"/></svg>