<?xml version="1.0" encoding="utf-8"?>
<!-- Generator: Adobe Illustrator 14.0.0, SVG Export Plug-In . SVG Version: 6.00 Build 43363)  -->
<!DOCTYPE svg PUBLIC "-//W3C//DTD SVG 1.1//EN" "http://www.w3.org/Graphics/SVG/1.1/DTD/svg11.dtd">
<svg version="1.1" id="Layer_1" xmlns="http://www.w3.org/2000/svg" xmlns:xlink="http://www.w3.org/1999/xlink" x="0px" y="0px"
	 width="2048px" height="2048px" viewBox="718 1420 2048 2048" enable-background="new 718 1420 2048 2048" xml:space="preserve">
<g id="_x33_2-move" display="none">
	<path display="inline" d="M1548,1868h-384c-35.346,0-64,28.654-64,64v1024c0,35.347,28.654,64,64,64h704c35.346,0,64-28.653,64-64
		v-192h-128v96c0,17.673-14.326,32-32,32h-512c-17.673,0-32-14.327-32-32v-832c0-17.673,14.327-32,32-32h224v288
		c0,17.673,14.327,32,32,32h288l0,0h128v-64L1548,1868z"/>
	<path display="inline" d="M2370.627,2518.019l-256.471-257.129c-0.039-0.026-0.079-0.054-0.119-0.082
		c-5.738-5.455-13.493-8.81-22.037-8.81c-16.477,0-30.038,12.454-31.801,28.46c-0.125,0.714-0.189,1.404-0.199,2.071v161.538h-288
		c-17.673,0-32,14.326-32,32V2604c0,17.673,14.327,32,32,32h288v161.797c0.021,0.302,0.059,0.606,0.128,0.916
		c1.407,16.374,15.134,29.229,31.872,29.229c7.941,0,15.201-2.898,20.794-7.688c1.104-0.554,2.096-1.241,2.94-2.087l254.893-254.892
		C2383.124,2550.777,2383.124,2530.515,2370.627,2518.019z"/>
</g>
<g id="_x31_6-assigned" display="none">
	<path display="inline" d="M1775.64,2808.702c-140.193-58.981-173.363-79.524-173.363-79.524l-1.363-135.812
		c0,0,52.506-40.813,68.964-168.567c32.683,9.565,67.248-49.396,69.099-80.638c1.753-29.854-4.604-113.145-44.65-104.82
		c8.104-62.743,13.962-118.936,11.219-148.922c-10.335-109.109-116.735-224.14-280.37-224.14
		c-163.382,0-269.889,115.028-280.371,224.139c-2.737,29.991,3.121,86.18,11.355,148.922c-40.157-8.323-46.519,74.967-44.648,104.82
		c1.871,31.241,36.292,90.203,69.216,80.638c16.213,127.754,68.845,168.567,68.845,168.567l-1.371,135.812
		c0,0-33.305,20.543-173.238,79.524c-140.434,59.071-281.98,100.392-324.017,166.677C718,3050.009,718,3404,718,3404h707.176
		h700.939c0,0-0.168-351.429-26.577-428.621C2076.396,2914.174,1939.716,2873.174,1775.64,2808.702z"/>
	<path display="inline" d="M2741.503,3022.944c-24.058-64.393-38.575-95.757-168.875-148.238
		c-130.297-52.499-161.26-70.698-161.26-70.698l-1.039-120.705c0,0,48.769-36.286,63.992-149.887
		c30.45,8.49,62.435-44.129,64.237-71.689c1.547-26.562-4.244-100.621-41.535-93.265c7.473-55.735,13.162-105.854,10.571-132.292
		c-9.661-97.135-108.633-199.378-260.594-199.378c-151.976,0-250.802,102.243-260.606,199.378
		c-2.578,26.438,2.829,76.562,10.574,132.292c-37.406-7.356-43.34,66.703-41.538,93.265c1.812,27.562,33.793,80.182,64.237,71.689
		c15.225,113.601,64.13,149.887,64.13,149.887l-1.384,118.928c145.591,94.434,159.511,176.052,159.511,176.052
		c11.674,106.987,13.088,257.039,13.088,425.72h511.109C2766.14,3404,2765.632,3081.507,2741.503,3022.944z"/>
</g>
<g id="_x31_6-check" display="none">
	<polygon display="inline" points="2511,1612 1486,2638 974.011,2123.991 718,2379.728 1485,3276 2766,1868 	"/>
</g>
<g id="_x31_6-attach" display="none">
	<path id="clip_2_" display="inline" fill="#333333" d="M2490.391,1699.339c-196.755-201.788-515.92-201.788-712.684,0
		l-817.072,827.444c-152.846,156.599-152.846,411.498,0,568.141c152.854,156.649,401.52,156.649,554.244,0l817.078-827.467
		c109.32-112.095,109.32-293.734,0-405.83c-109.367-112.012-286.663-112.012-395.931,0l-614.18,629.511
		c-21.878,22.467-21.878,58.685,0,81.163c21.862,22.458,57.313,22.458,79.185,0l614.229-629.521
		c65.522-67.09,172.053-67.09,237.562,0c65.521,67.145,65.521,176.378,0,243.521l-817.017,827.41
		c-109.372,112.095-286.556,112.095-395.934,0c-109.374-112.031-109.374-293.729,0-405.765l809.032-819.383
		c153.117-156.897,401.404-156.897,554.298,0c153.173,156.963,153.173,411.218,0.108,568.123l-606.244,621.379
		c-22.028,22.528-22.028,58.744,0,81.159c21.878,22.523,57.26,22.523,79.182,0l614.146-629.462
		C2687.258,2228.082,2687.258,1901,2490.391,1699.339z"/>
</g>
<g id="_x31_6-insert-link" display="none">
	<path display="inline" fill="#010101" d="M2124.956,1547.646h-64.015c-1.827,0-3.622,0.12-5.418,0.274h-697.537
		c-70.708,0-128.026,57.319-128.026,128.029v511.837h128.026v-447.826c0-35.354,28.665-64.012,64.015-64.012h574.931v447.823
		c0,35.351,28.657,64.015,64.012,64.015h448.101v960.21c0,35.354-28.66,64.01-64.016,64.01H1422
		c-35.35,0-64.015-28.656-64.015-64.01v-320.07h-128.026v384.08c0,70.707,57.319,128.028,128.026,128.028h1151.056
		c70.708,0,128.025-57.321,128.025-128.028V2123.771v-64.018L2124.956,1547.646z"/>
	<path display="inline" d="M1981.688,2474.386l-411.738-400.771c-0.056-0.044-0.122-0.082-0.173-0.126
		c-8.962-8.509-21.037-13.732-34.356-13.732c-25.683,0-46.825,19.413-49.566,44.36c-0.189,1.116-0.293,2.188-0.315,3.229v207.771
		H896.615c-27.537,0-49.874,22.333-49.874,49.879v283.413c0,27.554,22.337,49.874,49.874,49.874h588.922v212.189
		c0.034,0.455,0.099,0.939,0.2,1.423c2.2,25.522,23.597,45.552,49.683,45.552c12.376,0,23.688-4.522,32.412-11.986
		c1.722-0.848,3.265-1.925,4.579-3.255l409.276-397.281C2001.18,2525.443,2001.18,2493.863,1981.688,2474.386z"/>
</g>
<g id="_x31_6-restore" display="none">
	<path display="inline" d="M1870.554,1423.5c-445.959,0-828.581,337.809-896.554,764.632H718L1102,2828l384.015-639.868H1229
		c64.513-284.761,337.278-508.953,641.554-508.953c353.02,0,639.196,286.179,639.196,639.196s-286.179,639.196-639.196,639.196
		c-145.483,0-277.124-46.714-384.554-128.571l-127.773,223.105c145.14,101.529,321.761,161.145,512.327,161.145
		c494.227,0,894.875-400.648,894.875-894.875S2364.777,1423.5,1870.554,1423.5z"/>
</g>
<g id="_x31_6-preview" display="none">
	<g display="inline">
		<rect x="1104.932" y="2062.605" fill="#010101" width="383.289" height="127.763"/>
		<path fill="#010101" d="M2747.141,3320.986l-218.388-218.387c68.759-94.746,109.337-211.276,109.337-337.298
			c0-249.915-159.475-462.55-382.197-541.788v-224.334v-63.937l-511.459-511.453h-63.933c-1.824,0-3.618,0.121-5.412,0.276H849.507
			c-70.619,0-127.864,57.246-127.864,127.866v1150.503v127.257v256.333c0,70.612,57.245,127.862,127.864,127.862h854.069
			c98.47,79.032,223.491,126.35,359.579,126.35c126.021,0,242.551-40.577,337.3-109.337l218.384,218.388
			c24.95,24.95,65.396,24.95,90.345,0l37.957-37.956C2772.09,3386.38,2772.09,3345.937,2747.141,3320.986z M913.44,3086.024
			c-35.306,0-63.933-28.624-63.933-63.932v-192.401v-127.256V1615.858c0-35.31,28.627-63.928,63.933-63.928h703.133v447.249
			c0,35.308,28.619,63.934,63.928,63.934h447.524v130.921c-21.296-2.394-42.937-3.665-64.87-3.665
			c-136.898,0-262.601,47.878-361.336,127.763h-596.888v127.765h480.137c-26.385,39.416-48.008,82.274-64.084,127.763h-416.051
			v127.763h386.842c-2.32,20.979-3.554,42.286-3.554,63.882c0,118.761,36.017,229.104,97.709,320.724L913.44,3086.024
			L913.44,3086.024z M2062.87,3211.903c-246.808,0-446.886-200.078-446.886-446.888c0-246.809,200.078-446.886,446.886-446.886
			s446.888,200.078,446.888,446.886C2509.758,3011.825,2309.678,3211.903,2062.87,3211.903z"/>
	</g>
</g>
<g id="_x31_6-copylink" display="none">
	<path display="inline" fill="#010101" d="M2392.275,2373.284l-288.129,288.407c-159.028,159.34-417.029,159.34-576.062,0
		c-25.062-24.99-44.658-53.185-61.866-82.261l133.877-134.051c6.368-6.425,14.226-10.105,21.729-14.446
		c9.249,31.68,25.41,61.653,50.278,86.545c79.412,79.577,208.663,79.479,288.031,0l288.031-288.407
		c79.466-79.569,79.466-208.937,0-288.455c-79.368-79.522-208.563-79.522-288.031,0l-102.438,102.676
		c-83.104-32.417-172.662-41.131-259.84-28.333l218.265-218.547c159.132-159.294,417.024-159.294,576.164,0
		C2551.312,1955.708,2551.312,2213.996,2392.275,2373.284z M1630.578,2847.528l-102.493,102.673
		c-79.42,79.472-208.667,79.472-288.085,0c-79.416-79.572-79.416-208.938,0-288.501l288.085-288.416
		c79.468-79.575,208.614-79.575,288.028,0c24.822,24.851,40.979,54.823,50.33,86.443c7.562-4.39,15.32-7.965,21.69-14.341
		L2022,2311.394c-17.104-29.18-36.798-57.268-61.855-82.31c-159.041-159.291-417.032-159.291-576.114,0l-288.032,288.411
		c-159.084,159.339-159.084,417.574,0,576.918c159.082,159.232,417.03,159.232,576.113,0l218.312-218.605
		C1803.186,2888.657,1713.624,2879.894,1630.578,2847.528z"/>
</g>
<g id="_x31_6-download" display="none">
	<g display="inline">
		<polygon points="2253.936,2699.894 2253.936,2827.875 1230.089,2827.875 1230.089,2699.894 973.881,2699.894 974.128,3083.836 
			2509.896,3083.836 2509.896,2699.894 		"/>
		<polygon points="2253.936,2187.967 1997.971,2187.969 1997.971,1804.028 1486.051,1804.028 1486.053,2187.971 1230.089,2187.971 
			1742.012,2699.894 		"/>
	</g>
</g>
<g id="_x31_6-info" display="none">
	<path display="inline" d="M1743.75,1675.693c-423.909,0-767.556,343.648-767.556,767.556
		c0,423.909,343.647,767.557,767.556,767.557s767.557-343.646,767.557-767.557
		C2511.307,2019.341,2167.659,1675.693,1743.75,1675.693z M1847.407,2904.651c-71.044,70.965-138.285,110.338-201.735,118.093
		c-43.69,5.341-76.793-1.967-99.284-21.91c-22.503-19.943-35.462-43.973-38.896-72.056c-2.158-17.678-1.566-34.376,1.793-50.104
		c3.352-15.72,7.204-31.764,11.539-48.13l110.658-325.508c6.154-18.692,10.388-33.738,12.697-45.104
		c2.298-11.364,2.948-21.212,1.932-29.536c-1.017-8.31-3.309-14.104-6.873-17.369c-3.564-3.25-7.955-4.569-13.149-3.937
		c-13.527,1.651-37.273,25.414-71.267,71.269c-33.982,45.858-54.625,69.226-61.898,70.118c-8.328,1.014-17.35-3.683-27.062-14.11
		c-9.729-10.418-14.772-17.197-15.152-20.317c-1.271-10.399,6.535-28.521,23.447-54.339c16.896-25.821,38.842-53.57,65.834-83.273
		c24.117-27.222,53.889-53.564,89.322-79.018c35.419-25.438,67.691-39.949,96.823-43.511c46.812-5.72,83.541,3.252,110.19,26.917
		c26.646,23.664,42.265,54.218,46.837,91.67c1.911,15.604,2.387,32.443,1.424,50.502c-0.963,18.068-5.496,37.097-13.609,57.089
		l-86.733,275.076c-6.688,22.989-11.299,41.508-13.802,55.538c-2.513,14.035-3.441,23.655-2.807,28.848
		c0.763,6.238,2.798,9.949,6.108,11.13s6.526,1.576,9.646,1.194c22.885-2.796,47.664-22.451,74.352-58.971
		c26.68-36.521,44.182-55.288,52.51-56.307c7.276-0.89,15.745,3.618,25.409,13.522c9.646,9.909,14.736,16.941,15.243,21.102
		C1952.938,2789.875,1918.436,2833.687,1847.407,2904.651z M1943.491,2058.312c-24.143,31.454-55.975,49.6-95.489,54.431
		c-38.5,4.705-73.497-5.271-105.017-29.919c-31.519-24.655-49.63-56.219-54.337-94.716c-4.702-38.485,5.27-73.493,29.923-105.013
		c24.65-31.521,56.214-49.629,94.716-54.338c39.518-4.831,74.784,5.112,105.786,29.828c30.995,24.72,48.854,56.324,53.562,94.807
		C1977.34,1991.889,1967.618,2026.855,1943.491,2058.312z"/>
</g>
<g id="_x31_6-view" display="none">
	<path display="inline" d="M2509.896,2443.842c0-31.491-11.466-60.296-30.432-82.553h0.1
		c-773.48-935.816-1430.985-60.723-1473.69-1.728c-19.861,22.48-31.931,51.97-31.931,84.28c0,31.166,11.22,59.71,29.835,81.87h-0.13
		c0,0,675.942,960.296,1475.917,1.374h-0.697C2498.189,2504.738,2509.896,2475.664,2509.896,2443.842z M1741.918,2826.665
		c-212.069,0-383.988-171.394-383.988-382.822c0-211.426,171.92-382.821,383.988-382.821c212.073,0,383.99,171.396,383.99,382.821
		C2125.908,2655.271,1953.991,2826.665,1741.918,2826.665z"/>
	<ellipse display="inline" cx="1741.92" cy="2443.843" rx="127.997" ry="127.608"/>
</g>
<g id="_x31_6-workflow" display="none">
	<g display="inline">
		<polygon points="2318.096,1676.046 1614.083,1675.969 1230,2508 1614,2508 1358,3212 2318,2252 1870,2252 		"/>
	</g>
</g>
<g id="_x31_6-closed" display="none">
	<polygon display="inline" fill="none" points="1677.043,2955.886 1941.076,2631.756 1676.513,2955.312 	"/>
	<path display="inline" d="M2554.271,1886.276c34.272-58.812,21.288-135.342-33.515-179.305
		c-60.476-48.514-148.97-38.996-197.66,21.261L1488.699,2700l-322.673-297.878c-54.835-59.104-147.375-62.721-206.689-8.083
		c-59.317,54.637-62.95,146.84-8.113,205.943L1486,3212L2554.271,1886.276z"/>
</g>
<g>
	<path d="M1740.5,1546.5c-493.654,0-894.156,401.363-894.156,896.078s400.502,896.078,894.156,896.078
		s894.156-401.363,894.156-896.078S2234.154,1546.5,1740.5,1546.5z M1984.763,2909.284c0.056,0,0.121,0.114,0.178,0.114
		c5.358-0.7,6.517,0.125,10.649-6.768c0,10.851,2.328,21.127,6.754,31.041c-12.461-49.237,37.492-50.759,60.07-79.929
		c8.621-11.315,22.591-42.469,33.533-47.138c5.829,8.639,7.102,18.204,3.959,28.119c2.567-7.117,0.407-0.462-0.461,1.986
		c-0.236,9.915-1.924,19.368-6.292,28.232c-1.743-1.625-2.677-3.609-3.025-5.945c-39.587,32.205-39.114,123.562-92.907,146.314
		c-28.871,12.135-25.268-26.959-14.439-40.723c16.073-20.538-5.933-33.952,4.073-54.143c-0.641,0-1.272-0.924-1.914-1.049
		c-0.057,0.125-0.122,0.125-0.178,0.125C1984.763,2909.398,1984.763,2909.284,1984.763,2909.284
		c-9.781-2.333-19.214-26.72-19.214-40.607c11.524-2.097,17.469-9.092,18.402-4.895c2.903-3.621,16.298-27.309,16.41-30.92
		C2003.975,2853.393,1974.462,2893.187,1984.763,2909.284z M2386.896,2336.637c-14.837-28.708-28.051-62.074-38.879-79.108
		c-19.102-30.34-31.201-78.878-58.912-101.98c6.518,8.053,7.327,16.57,2.094,25.437c-14.441-4.311-26.193-12.6-34.69-25.437
		c-1.406-5.832,14.78,7.94,5.819-9.565c-22.939,3.034-39.361-20.653-58.103-33.839c-32.945-4.311-68.807,23.574-102.449,3.857
		c-7.802-4.669-15.253-31.855-27.478-16.108c-6.404,8.289-13.279,8.289-22.824,5.491c-37.606-11.437-53.905-43.754-87.896-44.69
		c0.349,14.472,24.559,35.814,36.086,42.469c15.14,8.752,25.73,46.789,27.598,12.837c21.657,12.484,6.281,40.246,37.02,29.981
		c23.403,9.103,17.111-28.469,22.006-39.671c7.339,4.434,11.415,22.639,17.348,28.471c12.222,11.437,29.692,7.002,40.98,18.791
		c14.318,14.934,22.479,36.4,18.978,54.37c-13.385-1.05-2.792,16.097-11.176,29.281c-9.084,13.774-8.263,16.798-13.97,31.733
		c-15.838,3.968-34.577,11.209-31.673,31.977c-11.055,13.299-109.787,84.939-122.823,65.334
		c-16.074-24.265-20.024-57.989-33.07-83.654c-19.326-6.418-59.609-55.655-67.521-74.671c5.932-33.492-82.315-99.297-96.644-99.761
		c10.481,45.504,49.604,69.541,67.648,104.656c15.25,30.105,43.312,100.809,66.712,110.497
		c39.002-3.733,62.986,67.207,83.832,81.904c27.128,18.906,82.776-42.47,106.525-36.4c2.68,32.205,2.095,41.883-7.688,77.471
		c-19.787,72.812-53.205,104.307-96.159,163.347c-24.806,33.952-40.868,57.876-59.497,95.212
		c-14.553,29.52,28.062,91.243,16.413,107.689c6.29,48.189-5.472,76.422-47.04,100.461c-30.378,17.73-56.582,34.538-46.328,67.903
		c10.355,33.368-31.09,38.623-35.984,57.405c-12.686,31.041-30.322,47.601-51.688,59.273c-14.26,0.938-28.466,2.102-42.963,2.102
		c-26.136,0-51.754-1.985-77.134-4.896c-33.645-42.244-68.626-87.049-104.724-129.279c-22.005-25.211-51.695-71.178-19.562-103.618
		c3.613-20.993-21.533-69.53-32.709-88.085c-18.753-31.393-105.252-99.296-71.486-135.697c4.65-24.037-16.422-47.951-16.422-66.856
		c-18.391-14.812-37.134,19.841-55.063-11.552c-19.099-33.602-53.79-24.386-82.549-3.733c-6.405,4.435-86.275,16.336-93.376,10.039
		c-60.771-54.37-80.098-139.667-59.025-212.817c8.611-30.342,9.657-84.249,33.767-104.543c7.912-31.506,44.236-62.547,63.562-88.446
		c10.251-13.885,27.014-15.17,39.001-29.395c18.053-21.24,26.777-46.439,50.065-65.23c23.522-18.669,73.938-50.524,31.087-57.281
		c16.996-24.973,44.124-52.272,54.141-82.265c14.722-11.777,42.198-6.88,58.675-15.048c14.206-29.168,20.025-28.232,14.667-46.901
		c2.916-11.901,40.633-21.003,48.67-24.037c14.845-5.833,28.172-19.605,41.678-29.633c56.292-15.871,115.441-24.974,176.738-24.974
		C2066.027,1785.453,2336.077,2024.644,2386.896,2336.637z"/>
	<path d="M1761.457,1898.862c-0.111,11.787,42.03,10.039,48.322,11.664c-11.3-2.797,3.838-2.326,0,0
		c38.302-23.8-78.824-46.552-80.221-47.365c3.143-1.4,5.237-3.621,5.935-6.769c-20.958,7.704-7.33-15.17-27.013,7.704
		c5.129,17.381-17.695,28.933-7.802,47.365C1721.062,1928.731,1741.434,1902.133,1761.457,1898.862z"/>
	<path d="M1606.961,1944.488c-20.721-11.787-5.819,4.66-18.401,18.669c-18.278,20.881-16.647,27.883-44.585,17.147
		c-1.17-23.217,52.508-2.573,27.938-45.042c-12.224-20.994-23.985-45.966-47.149-30.568c-21.893,14.472-61.355,22.874-78.354,54.379
		c-10.016,10.492-80.455,64.984-80.219,69.766c27.24,22.166,134.473-65.57,161.362-39.784
		c-1.744,18.196-22.701,31.968-23.164,50.288c8.038,3.382,10.008,11.2,19.327,12.598c35.512-7.703,25.967,16.807,52.159,23.226
		c43.772,10.851,10.366,2.674,37.955-24.735c9.082-8.754,57.392-7.819,59.61,7.342c-1.397-9.453,20.26-3.733,0,0
		c21.542-3.961,42.266,17.743,58.213,1.637c11.412-11.203,20.724-8.979,29.221-2.686c39.004,28.235,25.843-81.791,26.9-87.037
		c-13.507,8.754-91.631,16.92-91.046,8.754c1.395-9.577-10.018-10.275-14.442-22.402c15.252-18.204-13.271-9.103,1.981-28.942
		c-7.687-3.962-15.488-3.962-23.164,0c-3.264,13.071,6.394,8.402-10.83,4.782c-5.705,14.122,13.385,23.687,10.83,36.76
		c-2.331-1.871-5.01-2.921-7.802-2.809c-2.452,9.453-0.706,7.241-0.934,22.176c-26.552-4.905-12.109-25.087-34.812-54.142
		c20.608-16.449-42.729-48.766-33.767-59.04C1539.079,1886.848,1619.3,1933.75,1606.961,1944.488z M1524.763,1961.984
		c-4.425,1.871-8.962,2.798-13.621,2.798c3.604-11.315,20.023-51.686,30.041-53.32
		C1540.477,1926.046,1527.206,1946.936,1524.763,1961.984z"/>
	<path d="M1524.763,1961.984C1526.63,1950.669,1517.773,1960.699,1524.763,1961.984L1524.763,1961.984z"/>
	<path d="M1905.59,1912.511c-10.594,4.083,2.678,36.175,19.326,34.89c11.762,10.037,25.031,11.898,39.587,5.832
		c-3.841-27.186-71.713-80.505-93.841-92.17c3.265-3.035,4.547-12.722,11.762-11.674c-6.639-29.17-36.795-5.595-36.795,12.837
		C1856.929,1875.874,1902.684,1899.798,1905.59,1912.511z"/>
	<path d="M1924.916,1947.4C1912.116,1948.336,1932.952,1956.267,1924.916,1947.4L1924.916,1947.4z"/>
	<path d="M1958.683,1865.023c-10.827-2.448-22.354-26.601-33.767-30.097c-1.275,6.182-0.812,5.483-1.857,9.802
		c0.81-3.271,5.008,8.044,0,0C1927.244,1851.724,1946.109,1878.444,1958.683,1865.023z"/>
	<path d="M1468.527,1903.768c-2.216,3.734-6.054,5.359-9.781,7.23c-0.293,0.586-0.461,0.938-0.81,1.513
		C1461.54,1914.032,1465.499,1902.595,1468.527,1903.768z"/>
</g>
</svg>
