<svg xmlns="http://www.w3.org/2000/svg" width="2048" height="2048" viewBox="718 1420 2048 2048"><path d="M2318.001 2956c-83.596 0-154.7 53.432-181.061 128h-597.879c-14.991-42.406-44.45-77.975-82.455-100.768l95.694-221.961h893.54l192.066-829.367-1469.436-127.689-77.097-77.097c6.829-15.659 10.625-32.944 10.625-51.118 0-70.692-57.308-128-128-128s-128 57.308-128 128 57.308 128 128 128c18.174 0 35.459-3.796 51.118-10.625l78 78 254.013 889.896h66.156l-78.137 195.166c-100.043 6.611-179.15 89.844-179.15 191.562 0 106.039 85.962 192 192 192 83.595 0 154.7-53.43 181.061-128h597.881c26.358 74.57 97.464 128 181.06 128 106.038 0 192-85.961 192-192 .001-106.039-85.961-191.999-191.999-191.999z"/></svg>