<svg xmlns="http://www.w3.org/2000/svg" width="2048" height="2048" viewBox="718 1420 2048 2048"><path d="M1703.344 3082.833c-183.22 0-336.889-36.25-474.796-94.246l49.253-264.613c139.877 68.871 295.516 115.995 431.454 115.995 96.535 0 163.518-38.062 163.518-112.37 0-70.685-39.401-103.309-230.502-170.369-271.874-96.06-390.082-177.618-390.082-384.234 0-241.053 204.892-369.735 464.946-369.735 177.308 0 291.576 30.811 409.782 83.372l-51.222 260.988c-122.147-65.247-250.204-101.495-354.62-101.495-102.446 0-151.698 39.873-151.698 97.871 0 63.435 37.432 94.245 206.862 154.056 297.486 99.684 413.723 193.929 413.723 393.295-.001 271.864-216.714 391.485-486.618 391.485z"/><path d="M1550 1548h256v320h-256zM1550 2956h256v384h-256z"/></svg>