<svg xmlns="http://www.w3.org/2000/svg" width="2048" height="2048" viewBox="718 1420 2048 2048"><path d="M2188.5 1612.5s-316.457 165.859-615.1 61.773c-325.401-113.74-472.035-67.972-611.146 102.269-23.816-13.571-53.687-14.991-78.805.397-36.658 22.601-48.199 71.095-25.57 107.607l792.119 1290.26c14.708 24.077 40.222 37.194 66.302 37.194 13.86 0 28.004-3.919 40.846-11.584 36.602-22.601 48.029-70.981 25.4-107.607L1420.25 2508.75c138.94-169.557 295.485-205.302 620.604-91.846 298.699 104.367 597.398-38.897 597.398-38.897L2188.5 1612.5z"/></svg>