<svg xmlns="http://www.w3.org/2000/svg" width="2048" height="2048" viewBox="718 1420 2048 2048"><path d="M2535.688 2299.199h-192.894c-13.312-59.825-36.867-116.013-68.098-167.658l147.729-139.897c39.876-37.995 40.359-99.64.373-137.516l-72.675-68.593c-39.868-37.764-105.086-37.529-145.082 0l-144.962 137.408c-50.824-29.117-106.059-51.41-164.921-65.515v-213.275c0-53.453-45.877-97.124-102.333-97.124h-100.31c-56.454 0-102.331 43.681-102.331 97.124v213.271c-58.85 14.107-114.101 36.398-164.903 65.513l-144.97-137.41c-39.997-37.532-105.21-37.759-145.084 0l-72.666 68.593c-39.996 37.873-39.521 99.52.364 137.514l147.726 139.904c-31.233 51.633-54.769 107.823-68.105 167.658h-192.87c-56.807 0-102.688 43.339-102.688 97.143v92.154c0 53.813 45.873 97.144 102.688 97.144h192.887c13.333 59.819 36.873 116.02 68.108 167.654l-147.727 139.903c-39.883 37.993-40.359 99.654-.369 137.521l72.665 68.593c39.868 37.773 105.083 37.528 145.089 0l144.969-137.403c50.802 29.114 106.052 51.402 164.897 65.521v213.277c0 53.451 45.882 97.11 102.335 97.11h100.311c56.464 0 102.333-43.668 102.333-97.11v-213.277c58.854-14.118 114.096-36.408 164.921-65.521l144.967 137.403c39.981 37.528 105.206 37.773 145.077 0l72.674-68.593c39.982-37.876 39.502-99.528-.373-137.521l-147.722-139.899c31.219-51.637 54.774-107.817 68.094-167.656h192.902c56.808 0 102.685-43.334 102.685-97.144v-92.152c-.022-53.804-45.895-97.144-102.711-97.144zM1742 2700c-141.385 0-256-114.615-256-256s114.615-256 256-256 256 114.615 256 256-114.615 256-256 256z"/></svg>