<svg xmlns="http://www.w3.org/2000/svg" width="2048" height="2048" viewBox="718 1420 2048 2048"><path d="M1740.5 1546.5c-493.654 0-894.156 401.363-894.156 896.078s400.502 896.078 894.156 896.078 894.156-401.363 894.156-896.078S2234.154 1546.5 1740.5 1546.5zm244.263 1362.784c.056 0 .121.114.178.114 5.358-.7 6.517.125 10.649-6.768 0 10.851 2.328 21.127 6.754 31.041-12.461-49.237 37.492-50.759 60.07-79.929 8.621-11.315 22.591-42.469 33.533-47.138 5.829 8.639 7.102 18.204 3.959 28.119 2.567-7.117.407-.462-.461 1.986-.236 9.915-1.924 19.368-6.292 28.232-1.743-1.625-2.677-3.609-3.025-5.945-39.587 32.205-39.114 123.562-92.907 146.314-28.871 12.135-25.268-26.959-14.439-40.723 16.073-20.538-5.933-33.952 4.073-54.143-.641 0-1.272-.924-1.914-1.049-.057.125-.122.125-.178.125v-.236c-9.781-2.333-19.214-26.72-19.214-40.607 11.524-2.097 17.469-9.092 18.402-4.895 2.903-3.621 16.298-27.309 16.41-30.92 3.614 20.531-25.899 60.325-15.598 76.422zm402.133-572.647c-14.837-28.708-28.051-62.074-38.879-79.108-19.102-30.34-31.201-78.878-58.912-101.98 6.518 8.053 7.327 16.57 2.094 25.437-14.441-4.311-26.193-12.6-34.69-25.437-1.406-5.832 14.78 7.94 5.819-9.565-22.939 3.034-39.361-20.653-58.103-33.839-32.945-4.311-68.807 23.574-102.449 3.857-7.802-4.669-15.253-31.855-27.478-16.108-6.404 8.289-13.279 8.289-22.824 5.491-37.606-11.437-53.905-43.754-87.896-44.69.349 14.472 24.559 35.814 36.086 42.469 15.14 8.752 25.73 46.789 27.598 12.837 21.657 12.484 6.281 40.246 37.02 29.981 23.403 9.103 17.111-28.469 22.006-39.671 7.339 4.434 11.415 22.639 17.348 28.471 12.222 11.437 29.692 7.002 40.98 18.791 14.318 14.934 22.479 36.4 18.978 54.37-13.385-1.05-2.792 16.097-11.176 29.281-9.084 13.774-8.263 16.798-13.97 31.733-15.838 3.968-34.577 11.209-31.673 31.977-11.055 13.299-109.787 84.939-122.823 65.334-16.074-24.265-20.024-57.989-33.07-83.654-19.326-6.418-59.609-55.655-67.521-74.671 5.932-33.492-82.315-99.297-96.644-99.761 10.481 45.504 49.604 69.541 67.648 104.656 15.25 30.105 43.312 100.809 66.712 110.497 39.002-3.733 62.986 67.207 83.832 81.904 27.128 18.906 82.776-42.47 106.525-36.4 2.68 32.205 2.095 41.883-7.688 77.471-19.787 72.812-53.205 104.307-96.159 163.347-24.806 33.952-40.868 57.876-59.497 95.212-14.553 29.52 28.062 91.243 16.413 107.689 6.29 48.189-5.472 76.422-47.04 100.461-30.378 17.73-56.582 34.538-46.328 67.903 10.355 33.368-31.09 38.623-35.984 57.405-12.686 31.041-30.322 47.601-51.688 59.273-14.26.938-28.466 2.102-42.963 2.102-26.136 0-51.754-1.985-77.134-4.896-33.645-42.244-68.626-87.049-104.724-129.279-22.005-25.211-51.695-71.178-19.562-103.618 3.613-20.993-21.533-69.53-32.709-88.085-18.753-31.393-105.252-99.296-71.486-135.697 4.65-24.037-16.422-47.951-16.422-66.856-18.391-14.812-37.134 19.841-55.063-11.552-19.099-33.602-53.79-24.386-82.549-3.733-6.405 4.435-86.275 16.336-93.376 10.039-60.771-54.37-80.098-139.667-59.025-212.817 8.611-30.342 9.657-84.249 33.767-104.543 7.912-31.506 44.236-62.547 63.562-88.446 10.251-13.885 27.014-15.17 39.001-29.395 18.053-21.24 26.777-46.439 50.065-65.23 23.522-18.669 73.938-50.524 31.087-57.281 16.996-24.973 44.124-52.272 54.141-82.265 14.722-11.777 42.198-6.88 58.675-15.048 14.206-29.168 20.025-28.232 14.667-46.901 2.916-11.901 40.633-21.003 48.67-24.037 14.845-5.833 28.172-19.605 41.678-29.633 56.292-15.871 115.441-24.974 176.738-24.974 325.526-.002 595.576 239.189 646.395 551.182z"/><path d="M1761.457 1898.862c-.111 11.787 42.03 10.039 48.322 11.664-11.3-2.797 3.838-2.326 0 0 38.302-23.8-78.824-46.552-80.221-47.365 3.143-1.4 5.237-3.621 5.935-6.769-20.958 7.704-7.33-15.17-27.013 7.704 5.129 17.381-17.695 28.933-7.802 47.365 20.384 17.27 40.756-9.328 60.779-12.599zM1606.961 1944.488c-20.721-11.787-5.819 4.66-18.401 18.669-18.278 20.881-16.647 27.883-44.585 17.147-1.17-23.217 52.508-2.573 27.938-45.042-12.224-20.994-23.985-45.966-47.149-30.568-21.893 14.472-61.355 22.874-78.354 54.379-10.016 10.492-80.455 64.984-80.219 69.766 27.24 22.166 134.473-65.57 161.362-39.784-1.744 18.196-22.701 31.968-23.164 50.288 8.038 3.382 10.008 11.2 19.327 12.598 35.512-7.703 25.967 16.807 52.159 23.226 43.772 10.851 10.366 2.674 37.955-24.735 9.082-8.754 57.392-7.819 59.61 7.342-1.397-9.453 20.26-3.733 0 0 21.542-3.961 42.266 17.743 58.213 1.637 11.412-11.203 20.724-8.979 29.221-2.686 39.004 28.235 25.843-81.791 26.9-87.037-13.507 8.754-91.631 16.92-91.046 8.754 1.395-9.577-10.018-10.275-14.442-22.402 15.252-18.204-13.271-9.103 1.981-28.942-7.687-3.962-15.488-3.962-23.164 0-3.264 13.071 6.394 8.402-10.83 4.782-5.705 14.122 13.385 23.687 10.83 36.76-2.331-1.871-5.01-2.921-7.802-2.809-2.452 9.453-.706 7.241-.934 22.176-26.552-4.905-12.109-25.087-34.812-54.142 20.608-16.449-42.729-48.766-33.767-59.04-44.709 12.023 35.512 58.925 23.173 69.663zm-82.198 17.496c-4.425 1.871-8.962 2.798-13.621 2.798 3.604-11.315 20.023-51.686 30.041-53.32-.706 14.584-13.977 35.474-16.42 50.522z"/><path d="M1524.763 1961.984c1.867-11.315-6.99-1.285 0 0zM1905.59 1912.511c-10.594 4.083 2.678 36.175 19.326 34.89 11.762 10.037 25.031 11.898 39.587 5.832-3.841-27.186-71.713-80.505-93.841-92.17 3.265-3.035 4.547-12.722 11.762-11.674-6.639-29.17-36.795-5.595-36.795 12.837 11.3 13.648 57.055 37.572 59.961 50.285z"/><path d="M1924.916 1947.4c-12.8.936 8.036 8.867 0 0zM1958.683 1865.023c-10.827-2.448-22.354-26.601-33.767-30.097-1.275 6.182-.812 5.483-1.857 9.802.81-3.271 5.008 8.044 0 0 4.185 6.996 23.05 33.716 35.624 20.295zM1468.527 1903.768c-2.216 3.734-6.054 5.359-9.781 7.23-.293.586-.461.938-.81 1.513 3.604 1.521 7.563-9.916 10.591-8.743z"/></svg>