<?xml version="1.0" encoding="utf-8"?>
<!-- Generator: Adobe Illustrator 20.0.0, SVG Export Plug-In . SVG Version: 6.00 Build 0)  -->
<!DOCTYPE svg PUBLIC "-//W3C//DTD SVG 1.1//EN" "http://www.w3.org/Graphics/SVG/1.1/DTD/svg11.dtd">
<svg version="1.1" id="Layer_1" xmlns="http://www.w3.org/2000/svg" xmlns:xlink="http://www.w3.org/1999/xlink" x="0px" y="0px"
	 viewBox="0 0 24 24" style="enable-background:new 0 0 24 24;" xml:space="preserve">
<style type="text/css">
	.st0{fill:#A5B2BD;}
	.st1{fill:#3197D6;}
</style>
<g>
	<path d="M7.7,20.7l10.4-10.4c1.2-1.2,1.2-3.1,0-4.2L16,3.9C15.4,3.3,14.6,3,13.8,3c0,0,0,0,0,0c-0.8,0-1.6,0.3-2.1,0.9L1.3,14.4
		C1.1,14.6,1,14.9,1,15.1V20c0,0.6,0.4,1,1,1h5C7.3,21,7.5,20.9,7.7,20.7z M10.5,7.9l3.6,3.6l-5.6,5.6L5,13.6L10.5,7.9z M13.8,5
		C13.8,5,13.8,5,13.8,5c0.3,0,0.5,0.1,0.7,0.3l2.2,2.2c0.4,0.4,0.4,1,0,1.4l-1.2,1.2l-3.6-3.6l1.2-1.2C13.3,5.1,13.6,5,13.8,5z
		 M3,19v-3.4L3.6,15l3.5,3.5L6.6,19H3z"/>
	<path d="M22,16h-2v-2c0-0.6-0.4-1-1-1s-1,0.4-1,1v2h-2c-0.6,0-1,0.4-1,1s0.4,1,1,1h2v2c0,0.6,0.4,1,1,1s1-0.4,1-1v-2h2
		c0.6,0,1-0.4,1-1S22.6,16,22,16z"/>
</g>
</svg>
