<?xml version="1.0" encoding="utf-8"?>
<!-- Generator: Adobe Illustrator 20.0.0, SVG Export Plug-In . SVG Version: 6.00 Build 0)  -->
<!DOCTYPE svg PUBLIC "-//W3C//DTD SVG 1.1//EN" "http://www.w3.org/Graphics/SVG/1.1/DTD/svg11.dtd">
<svg version="1.1" id="Layer_1" xmlns="http://www.w3.org/2000/svg" xmlns:xlink="http://www.w3.org/1999/xlink" x="0px" y="0px"
	 viewBox="0 0 24 24" style="enable-background:new 0 0 24 24;" xml:space="preserve">
<style type="text/css">
	.st0{fill:#A5B2BD;}
	.st1{fill:#3197D6;}
	.st2{fill:#010101;}
</style>
<path d="M18,3H6C4.3,3,3,4.3,3,6v2c0,0.9,0.4,1.7,1,2.2V18c0,1.7,1.3,3,3,3h10c1.7,0,3-1.3,3-3v-7.8c0.6-0.5,1-1.3,1-2.2V6
	C21,4.3,19.7,3,18,3z M5,6c0-0.6,0.4-1,1-1h12c0.6,0,1,0.4,1,1v2c0,0.6-0.4,1-1,1H6C5.4,9,5,8.6,5,8V6z M18,18c0,0.6-0.4,1-1,1H7
	c-0.6,0-1-0.4-1-1v-7h12V18z"/>
<path d="M10,15h4c0.6,0,1-0.4,1-1s-0.4-1-1-1h-4c-0.6,0-1,0.4-1,1S9.4,15,10,15z"/>
</svg>
