<?xml version="1.0" encoding="utf-8"?>
<!-- Generator: Adobe Illustrator 20.0.0, SVG Export Plug-In . SVG Version: 6.00 Build 0)  -->
<!DOCTYPE svg PUBLIC "-//W3C//DTD SVG 1.1//EN" "http://www.w3.org/Graphics/SVG/1.1/DTD/svg11.dtd">
<svg version="1.1" id="Layer_1" xmlns="http://www.w3.org/2000/svg" xmlns:xlink="http://www.w3.org/1999/xlink" x="0px" y="0px"
	 viewBox="0 0 24 24" style="enable-background:new 0 0 24 24;" xml:space="preserve">
<style type="text/css">
	.st0{fill:#A5B2BD;}
	.st1{fill:#3197D6;}
	.st2{fill:none;stroke:#727F8E;stroke-width:2;stroke-linecap:round;stroke-linejoin:round;stroke-miterlimit:10;}
	.st3{fill:#000102;}
	.st4{fill:#727F8E;}
	.st5{fill:none;stroke:#727F8E;stroke-width:2;stroke-linejoin:round;stroke-miterlimit:10;}
</style>
<path d="M8.8,19C8.8,19,8.8,19,8.8,19c-1.6,0-2.9-0.6-4-1.7c-1-1.1-1.6-2.4-1.5-3.9c0-1.5,0.6-2.8,1.7-3.9L9.7,5
	c0.4-0.4,1-0.4,1.4,0c0.4,0.4,0.4,1,0,1.4L6.4,11c-0.7,0.7-1.1,1.5-1.1,2.5c0,0.9,0.3,1.8,1,2.5S7.8,17,8.8,17c0.9,0,1.8-0.3,2.5-1
	l6.1-5.9c0.8-0.8,0.8-2,0-2.8c-0.4-0.4-0.9-0.6-1.4-0.6c-0.5,0-1,0.2-1.4,0.6l-5.1,4.9c-0.2,0.2-0.2,0.5,0,0.7
	c0.2,0.2,0.5,0.2,0.7,0l3.6-3.5c0.4-0.4,1-0.4,1.4,0c0.4,0.4,0.4,1,0,1.4l-3.6,3.5c-1,1-2.6,0.9-3.5-0.1s-0.9-2.6,0.1-3.5l5.1-4.9
	C14,5,15,4.6,16.1,4.6c1.1,0,2.1,0.4,2.8,1.2C19.6,6.6,20,7.6,20,8.7c0,1.1-0.4,2.1-1.2,2.8l-6.1,5.9C11.6,18.5,10.3,19,8.8,19z"/>
</svg>
