<?xml version="1.0" encoding="utf-8"?>
<!-- Generator: Adobe Illustrator 20.0.0, SVG Export Plug-In . SVG Version: 6.00 Build 0)  -->
<!DOCTYPE svg PUBLIC "-//W3C//DTD SVG 1.1//EN" "http://www.w3.org/Graphics/SVG/1.1/DTD/svg11.dtd">
<svg version="1.1" id="Layer_1" xmlns="http://www.w3.org/2000/svg" xmlns:xlink="http://www.w3.org/1999/xlink" x="0px" y="0px"
	 viewBox="0 0 24 24" style="enable-background:new 0 0 24 24;" xml:space="preserve">
<style type="text/css">
	.st0{fill:#A5B2BD;}
	.st1{fill:#3197D6;}
	.st2{fill:none;stroke:#727F8E;stroke-width:2;stroke-linecap:round;stroke-linejoin:round;stroke-miterlimit:10;}
	.st3{fill:#000102;}
	.st4{fill:#727F8E;}
	.st5{fill:none;stroke:#727F8E;stroke-width:2;stroke-linejoin:round;stroke-miterlimit:10;}
</style>
<path d="M16.5,16h-8C6.6,16,5,14.4,5,12.5S6.6,9,8.5,9h7C15.8,9,16,9.2,16,9.5S15.8,10,15.5,10h-7C7.1,10,6,11.1,6,12.5
	S7.1,15,8.5,15h8c0.8,0,1.5-0.7,1.5-1.5S17.3,12,16.5,12h-7C9.2,12,9,12.2,9,12.5S9.2,13,9.5,13h6c0.3,0,0.5,0.2,0.5,0.5
	S15.8,14,15.5,14h-6C8.7,14,8,13.3,8,12.5S8.7,11,9.5,11h7c1.4,0,2.5,1.1,2.5,2.5S17.9,16,16.5,16z"/>
</svg>
