<?xml version="1.0" encoding="utf-8"?>
<!-- Generator: Adobe Illustrator 20.0.0, SVG Export Plug-In . SVG Version: 6.00 Build 0)  -->
<!DOCTYPE svg PUBLIC "-//W3C//DTD SVG 1.1//EN" "http://www.w3.org/Graphics/SVG/1.1/DTD/svg11.dtd">
<svg version="1.1" id="Layer_1" xmlns="http://www.w3.org/2000/svg" xmlns:xlink="http://www.w3.org/1999/xlink" x="0px" y="0px"
	 viewBox="0 0 24 24" style="enable-background:new 0 0 24 24;" xml:space="preserve">
<style type="text/css">
	.st0{fill:#A5B2BD;}
	.st1{fill:#3197D6;}
	.st2{fill:#010101;}
</style>
<path d="M16.5,11h-7C8.7,11,8,11.7,8,12.5S8.7,14,9.5,14h6c0.3,0,0.5-0.2,0.5-0.5S15.8,13,15.5,13h-6C9.2,13,9,12.8,9,12.5
	S9.2,12,9.5,12h7c0.8,0,1.5,0.7,1.5,1.5S17.3,15,16.5,15h-8C7.1,15,6,13.9,6,12.5S7.1,10,8.5,10h7c0.3,0,0.5-0.2,0.5-0.5
	S15.8,9,15.5,9h-7C6.6,9,5,10.6,5,12.5S6.6,16,8.5,16h8c1.4,0,2.5-1.1,2.5-2.5S17.9,11,16.5,11z"/>
</svg>
