<?xml version="1.0" encoding="utf-8"?>
<!-- Generator: Adobe Illustrator 20.0.0, SVG Export Plug-In . SVG Version: 6.00 Build 0)  -->
<!DOCTYPE svg PUBLIC "-//W3C//DTD SVG 1.1//EN" "http://www.w3.org/Graphics/SVG/1.1/DTD/svg11.dtd">
<svg version="1.1" id="Layer_1" xmlns="http://www.w3.org/2000/svg" xmlns:xlink="http://www.w3.org/1999/xlink" x="0px" y="0px"
	 viewBox="0 0 24 24" style="enable-background:new 0 0 24 24;" xml:space="preserve">
<style type="text/css">
	.st0{fill:#A5B2BD;}
	.st1{fill:#3197D6;}
</style>
<path d="M8.5,9h7C15.8,9,16,8.8,16,8.5S15.8,8,15.5,8h-7C6.6,8,5,9.6,5,11.5S6.6,15,8.5,15h8c1.4,0,2.5-1.1,2.5-2.5S17.9,10,16.5,10
	h-7C8.7,10,8,10.7,8,11.5S8.7,13,9.5,13h6c0.3,0,0.5-0.2,0.5-0.5S15.8,12,15.5,12h-6C9.2,12,9,11.8,9,11.5S9.2,11,9.5,11h7
	c0.8,0,1.5,0.7,1.5,1.5S17.3,14,16.5,14h-8C7.1,14,6,12.9,6,11.5S7.1,9,8.5,9z"/>
</svg>
