<?xml version="1.0" encoding="utf-8"?>
<!-- Generator: Adobe Illustrator 20.0.0, SVG Export Plug-In . SVG Version: 6.00 Build 0)  -->
<!DOCTYPE svg PUBLIC "-//W3C//DTD SVG 1.1//EN" "http://www.w3.org/Graphics/SVG/1.1/DTD/svg11.dtd">
<svg version="1.1" id="Layer_1" xmlns="http://www.w3.org/2000/svg" xmlns:xlink="http://www.w3.org/1999/xlink" x="0px" y="0px"
	 viewBox="0 0 24 24" style="enable-background:new 0 0 24 24;" xml:space="preserve">
<style type="text/css">
	.st0{fill:#A5B2BD;}
	.st1{fill:#3197D6;}
	.st2{fill:none;stroke:#727F8E;stroke-width:2;stroke-linecap:round;stroke-linejoin:round;stroke-miterlimit:10;}
	.st3{fill:#000102;}
	.st4{fill:#727F8E;}
	.st5{fill:none;stroke:#727F8E;stroke-width:2;stroke-linejoin:round;stroke-miterlimit:10;}
</style>
<g>
	<path class="st3" d="M15.9,14.5c0.1-0.5-0.2-1.1-0.7-1.2l0,0C16.3,12.2,17,10.7,17,9c0-3.3-2.7-6-6-6S5,5.7,5,9
		c0,1.7,0.7,3.2,1.8,4.3l0,0C4.6,13.8,3,15.8,3,18.1V20c0,0.6,0.4,1,1,1s1-0.4,1-1v-1.9c0-1.4,0.9-2.6,2.3-2.9L8.1,15h5.8l0.9,0.2
		C15.3,15.3,15.8,15,15.9,14.5z M11,5c2.2,0,4,1.8,4,4s-1.8,4-4,4s-4-1.8-4-4S8.8,5,11,5z"/>
	<path class="st3" d="M20,17h-1v-1c0-0.6-0.4-1-1-1s-1,0.4-1,1v1h-1c-0.6,0-1,0.4-1,1s0.4,1,1,1h1v1c0,0.6,0.4,1,1,1s1-0.4,1-1v-1h1
		c0.6,0,1-0.4,1-1S20.6,17,20,17z"/>
</g>
</svg>
