<?xml version="1.0" encoding="utf-8"?>
<!-- Generator: Adobe Illustrator 20.0.0, SVG Export Plug-In . SVG Version: 6.00 Build 0)  -->
<!DOCTYPE svg PUBLIC "-//W3C//DTD SVG 1.1//EN" "http://www.w3.org/Graphics/SVG/1.1/DTD/svg11.dtd">
<svg version="1.1" id="Layer_1" xmlns="http://www.w3.org/2000/svg" xmlns:xlink="http://www.w3.org/1999/xlink" x="0px" y="0px"
	 viewBox="0 0 24 24" style="enable-background:new 0 0 24 24;" xml:space="preserve">
<style type="text/css">
	.st0{fill:#A5B2BD;}
	.st1{fill:#3197D6;}
	.st2{fill:none;stroke:#727F8E;stroke-width:2;stroke-linecap:round;stroke-linejoin:round;stroke-miterlimit:10;}
	.st3{fill:#000102;}
	.st4{fill:#727F8E;}
	.st5{fill:none;stroke:#727F8E;stroke-width:2;stroke-linejoin:round;stroke-miterlimit:10;}
</style>
<path class="st3" d="M16.8,14.5l-0.7-0.1c1.2-1.1,1.9-2.6,1.9-4.4c0-3.3-2.7-6-6-6s-6,2.7-6,6c0,1.7,0.7,3.3,1.9,4.4l-0.7,0.1
	C4.8,14.9,3,17,3,19.4V20c0,0.6,0.4,1,1,1s1-0.4,1-1v-0.6c0-1.5,1.1-2.7,2.5-3l2.6-0.4h3.8l2.6,0.4c1.5,0.2,2.5,1.5,2.5,3V20
	c0,0.6,0.4,1,1,1s1-0.4,1-1v-0.6C21,17,19.2,14.9,16.8,14.5z M12,6c2.2,0,4,1.8,4,4s-1.8,4-4,4s-4-1.8-4-4S9.8,6,12,6z"/>
</svg>
