<?xml version="1.0" encoding="utf-8"?>
<!-- Generator: Adobe Illustrator 20.0.0, SVG Export Plug-In . SVG Version: 6.00 Build 0)  -->
<!DOCTYPE svg PUBLIC "-//W3C//DTD SVG 1.1//EN" "http://www.w3.org/Graphics/SVG/1.1/DTD/svg11.dtd">
<svg version="1.1" id="Layer_1" xmlns="http://www.w3.org/2000/svg" xmlns:xlink="http://www.w3.org/1999/xlink" x="0px" y="0px"
	 viewBox="0 0 24 24" style="enable-background:new 0 0 24 24;" xml:space="preserve">
<style type="text/css">
	.st0{fill:#A5B2BD;}
	.st1{fill:#3197D6;}
	.st2{fill:#010101;}
</style>
<g>
	<path d="M17,2H7C4.2,2,2,4.2,2,7v10c0,2.8,2.2,5,5,5h10c2.8,0,5-2.2,5-5V7C22,4.2,19.8,2,17,2z M20,17c0,1.7-1.3,3-3,3H7
		c-1.7,0-3-1.3-3-3V7c0-1.7,1.3-3,3-3h10c1.7,0,3,1.3,3,3V17z"/>
	<path d="M16.1,14.5l-0.4-0.1c0.8-0.9,1.3-2.1,1.3-3.4c0-2.8-2.2-5-5-5s-5,2.2-5,5c0,1.3,0.5,2.5,1.3,3.4l-0.4,0.1
		c-1.1,0.2-2.1,0.9-2.7,2c-0.3,0.5-0.2,1.1,0.3,1.4c0.5,0.3,1.1,0.2,1.4-0.3c0.4-0.6,0.9-1,1.5-1.1l0.6-0.1c2-0.4,4.2-0.4,6.2,0
		l0.6,0.1c0.6,0.1,1.1,0.5,1.5,1.1c0.2,0.3,0.5,0.5,0.8,0.5c0.2,0,0.4,0,0.5-0.2c0.5-0.3,0.6-0.9,0.3-1.4
		C18.2,15.4,17.2,14.7,16.1,14.5z M12,14c-1.7,0-3-1.3-3-3s1.3-3,3-3s3,1.3,3,3S13.7,14,12,14z"/>
</g>
</svg>
