<?xml version="1.0" encoding="utf-8"?>
<!-- Generator: Adobe Illustrator 20.0.0, SVG Export Plug-In . SVG Version: 6.00 Build 0)  -->
<!DOCTYPE svg PUBLIC "-//W3C//DTD SVG 1.1//EN" "http://www.w3.org/Graphics/SVG/1.1/DTD/svg11.dtd">
<svg version="1.1" id="Layer_1" xmlns="http://www.w3.org/2000/svg" xmlns:xlink="http://www.w3.org/1999/xlink" x="0px" y="0px"
	 viewBox="0 0 24 24" style="enable-background:new 0 0 24 24;" xml:space="preserve">
<style type="text/css">
	.st0{fill:#A5B2BD;}
	.st1{fill:#3197D6;}
</style>
<g>
	<path d="M5,17.1V19c0,0.6,0.4,1,1,1s1-0.4,1-1v-1.9c0-1.4,0.9-2.6,2.3-2.9l0.9-0.2H11c2.8,0,5-2.2,5-5s-2.2-5-5-5S6,6.2,6,9
		c0,1.5,0.7,2.8,1.7,3.7C6.1,13.6,5,15.2,5,17.1z M11,6c1.7,0,3,1.3,3,3s-1.3,3-3,3s-3-1.3-3-3S9.3,6,11,6z"/>
	<path d="M18.7,14.3c-0.4-0.4-1-0.4-1.4,0L16,15.6l-1.3-1.3c-0.4-0.4-1-0.4-1.4,0s-0.4,1,0,1.4l1.3,1.3l-1.3,1.3
		c-0.4,0.4-0.4,1,0,1.4c0.2,0.2,0.5,0.3,0.7,0.3s0.5-0.1,0.7-0.3l1.3-1.3l1.3,1.3c0.2,0.2,0.5,0.3,0.7,0.3s0.5-0.1,0.7-0.3
		c0.4-0.4,0.4-1,0-1.4L17.4,17l1.3-1.3C19.1,15.3,19.1,14.7,18.7,14.3z"/>
</g>
</svg>
