<?xml version="1.0" encoding="utf-8"?>
<!-- Generator: Adobe Illustrator 20.0.0, SVG Export Plug-In . SVG Version: 6.00 Build 0)  -->
<!DOCTYPE svg PUBLIC "-//W3C//DTD SVG 1.1//EN" "http://www.w3.org/Graphics/SVG/1.1/DTD/svg11.dtd">
<svg version="1.1" id="Layer_1" xmlns="http://www.w3.org/2000/svg" xmlns:xlink="http://www.w3.org/1999/xlink" x="0px" y="0px"
	 viewBox="0 0 24 24" style="enable-background:new 0 0 24 24;" xml:space="preserve">
<style type="text/css">
	.st0{fill:#A5B2BD;}
	.st1{fill:#3197D6;}
	.st2{fill:none;stroke:#727F8E;stroke-width:2;stroke-linecap:round;stroke-linejoin:round;stroke-miterlimit:10;}
	.st3{fill:#000102;}
	.st4{fill:#727F8E;}
	.st5{fill:none;stroke:#727F8E;stroke-width:2;stroke-linejoin:round;stroke-miterlimit:10;}
</style>
<g>
	<path class="st3" d="M19,0H5C2.2,0,0,2.2,0,5v14c0,2.8,2.2,5,5,5h14c2.8,0,5-2.2,5-5V5C24,2.2,21.8,0,19,0z M22,19c0,1.7-1.3,3-3,3
		H5c-1.7,0-3-1.3-3-3V5c0-1.7,1.3-3,3-3h14c1.7,0,3,1.3,3,3V19z"/>
	<path class="st3" d="M16.8,15.5l-0.7-0.1c1.2-1.1,1.9-2.6,1.9-4.4c0-3.3-2.7-6-6-6s-6,2.7-6,6c0,1.7,0.7,3.3,1.9,4.4l-0.7,0.1
		c-1.2,0.2-2.4,0.9-3.1,1.9c-0.3,0.4-0.3,1.1,0.2,1.4c0.4,0.3,1.1,0.3,1.4-0.2c0.5-0.6,1.1-1,1.9-1.1l2.6-0.4h3.8l2.6,0.4
		c0.7,0.1,1.4,0.5,1.9,1.1c0.2,0.3,0.5,0.4,0.8,0.4c0.2,0,0.4-0.1,0.6-0.2c0.4-0.3,0.5-1,0.2-1.4C19.2,16.4,18.1,15.7,16.8,15.5z
		 M12,7c2.2,0,4,1.8,4,4s-1.8,4-4,4s-4-1.8-4-4S9.8,7,12,7z"/>
</g>
</svg>
