<?xml version="1.0" encoding="utf-8"?>
<!-- Generator: Adobe Illustrator 20.0.0, SVG Export Plug-In . SVG Version: 6.00 Build 0)  -->
<!DOCTYPE svg PUBLIC "-//W3C//DTD SVG 1.1//EN" "http://www.w3.org/Graphics/SVG/1.1/DTD/svg11.dtd">
<svg version="1.1" id="Layer_1" xmlns="http://www.w3.org/2000/svg" xmlns:xlink="http://www.w3.org/1999/xlink" x="0px" y="0px"
	 viewBox="0 0 24 24" style="enable-background:new 0 0 24 24;" xml:space="preserve">
<style type="text/css">
	.st0{fill:#A5B2BD;}
	.st1{fill:#3197D6;}
	.st2{fill:#010101;}
</style>
<path d="M19,13.2V12c0-2.8-1.6-5.2-4-6.3V5c0-1.7-1.3-3-3-3S9,3.3,9,5v0.7C6.6,6.8,5,9.2,5,12v1.2c-1.2,0.4-2,1.5-2,2.8v1
	c0,1.1,0.9,2,2,2h3.1c0.4,1.7,2,3,3.9,3s3.4-1.3,3.9-3H19c1.1,0,2-0.9,2-2v-1C21,14.7,20.2,13.6,19,13.2z M11,5c0-0.6,0.4-1,1-1
	s1,0.4,1,1v0.1C12.7,5,12.3,5,12,5S11.3,5,11,5L11,5z M12,20c-0.7,0-1.4-0.4-1.7-1h3.4C13.4,19.6,12.7,20,12,20z M19,17H5v-1
	c0-0.6,0.4-1,1-1h2c0.6,0,1-0.4,1-1s-0.4-1-1-1H7v-1c0-2.8,2.2-5,5-5s5,2.2,5,5v1c-0.6,0-1,0.4-1,1s0.4,1,1,1h1c0.6,0,1,0.4,1,1V17z
	"/>
</svg>
