<?xml version="1.0" encoding="utf-8"?>
<!-- Generator: Adobe Illustrator 20.0.0, SVG Export Plug-In . SVG Version: 6.00 Build 0)  -->
<!DOCTYPE svg PUBLIC "-//W3C//DTD SVG 1.1//EN" "http://www.w3.org/Graphics/SVG/1.1/DTD/svg11.dtd">
<svg version="1.1" id="Layer_1" xmlns="http://www.w3.org/2000/svg" xmlns:xlink="http://www.w3.org/1999/xlink" x="0px" y="0px"
	 viewBox="0 0 24 24" style="enable-background:new 0 0 24 24;" xml:space="preserve">
<style type="text/css">
	.st0{fill:#A5B2BD;}
	.st1{fill:#3197D6;}
	.st2{fill:#010101;}
</style>
<path d="M13.4,11.6L13.4,11.6c1.2-0.3,2.1-1.2,2.1-2.6c0-2-1.5-3-4-3H7v12h4.5c2.6,0,4.5-1,4.5-3.5C16,13,14.9,11.9,13.4,11.6z
	 M8.8,7.6h2.5c1.2,0,2,0.5,2,1.7c0,1.3-0.9,1.7-2.1,1.7H8.8V7.6z M11.4,16.4H8.8v-3.9h2.5c1.5,0,2.5,0.5,2.5,1.9
	C13.8,15.9,12.8,16.4,11.4,16.4z"/>
</svg>
