<?xml version="1.0" encoding="utf-8"?>
<!-- Generator: Adobe Illustrator 20.0.0, SVG Export Plug-In . SVG Version: 6.00 Build 0)  -->
<!DOCTYPE svg PUBLIC "-//W3C//DTD SVG 1.1//EN" "http://www.w3.org/Graphics/SVG/1.1/DTD/svg11.dtd">
<svg version="1.1" id="Layer_1" xmlns="http://www.w3.org/2000/svg" xmlns:xlink="http://www.w3.org/1999/xlink" x="0px" y="0px"
	 viewBox="0 0 24 24" style="enable-background:new 0 0 24 24;" xml:space="preserve">
<style type="text/css">
	.st0{fill:#A5B2BD;}
	.st1{fill:#3197D6;}
	.st2{fill:none;stroke:#727F8E;stroke-width:2;stroke-linecap:round;stroke-linejoin:round;stroke-miterlimit:10;}
	.st3{fill:#000102;}
	.st4{fill:#727F8E;}
	.st5{fill:none;stroke:#727F8E;stroke-width:2;stroke-linejoin:round;stroke-miterlimit:10;}
</style>
<g>
	<path d="M7,19V5h5.8c2.9,0,4.6,1.2,4.6,3.5c0,1.7-1.1,2.7-2.5,3v0.1c1.8,0.3,3,1.6,3,3.4c0,2.9-2.2,4.1-5.3,4.1H7z M12.5,10.8
		c1.4,0,2.4-0.5,2.4-2c0-1.3-0.9-2-2.3-2H9.7v4H12.5z M12.6,17.1c1.7,0,2.8-0.6,2.8-2.4c0-1.5-1.1-2.2-2.9-2.2H9.7v4.5H12.6z"/>
</g>
</svg>
