<?xml version="1.0" encoding="utf-8"?>
<!-- Generator: Adobe Illustrator 20.0.0, SVG Export Plug-In . SVG Version: 6.00 Build 0)  -->
<!DOCTYPE svg PUBLIC "-//W3C//DTD SVG 1.1//EN" "http://www.w3.org/Graphics/SVG/1.1/DTD/svg11.dtd">
<svg version="1.1" id="Layer_1" xmlns="http://www.w3.org/2000/svg" xmlns:xlink="http://www.w3.org/1999/xlink" x="0px" y="0px"
	 viewBox="0 0 24 24" style="enable-background:new 0 0 24 24;" xml:space="preserve">
<style type="text/css">
	.st0{fill:#A5B2BD;}
	.st1{fill:#3197D6;}
	.st2{fill:none;stroke:#727F8E;stroke-width:2;stroke-linecap:round;stroke-linejoin:round;stroke-miterlimit:10;}
	.st3{fill:#000102;}
	.st4{fill:#727F8E;}
	.st5{fill:none;stroke:#727F8E;stroke-width:2;stroke-linejoin:round;stroke-miterlimit:10;}
</style>
<path class="st3" d="M20,15H9c-1.1,0-2-0.9-2-2h10.3c1.5,0,2.8-1.1,3-2.6L21,5.1c0-0.3,0-0.6-0.2-0.8C20.6,4.1,20.3,4,20,4H7V3
	c0-0.6-0.4-1-1-1H3C2.4,2,2,2.4,2,3s0.4,1,1,1h2v1v5v2v1c0,1.3,0.6,2.5,1.6,3.2C6.2,16.7,6,17.3,6,18c0,1.7,1.3,3,3,3s3-1.3,3-3
	c0-0.4-0.1-0.7-0.2-1h2.4c-0.1,0.3-0.2,0.6-0.2,1c0,1.7,1.3,3,3,3s3-1.3,3-3c0-0.4-0.1-0.7-0.2-1H20c0.6,0,1-0.4,1-1S20.6,15,20,15z
	 M18.3,10.1c-0.1,0.5-0.5,0.9-1,0.9H7v-1V6h11.8L18.3,10.1z M10,18c0,0.6-0.4,1-1,1s-1-0.4-1-1s0.4-1,1-1S10,17.4,10,18z M18,18
	c0,0.6-0.4,1-1,1s-1-0.4-1-1s0.4-1,1-1S18,17.4,18,18z"/>
</svg>
