<?xml version="1.0" encoding="utf-8"?>
<!-- Generator: Adobe Illustrator 20.0.0, SVG Export Plug-In . SVG Version: 6.00 Build 0)  -->
<!DOCTYPE svg PUBLIC "-//W3C//DTD SVG 1.1//EN" "http://www.w3.org/Graphics/SVG/1.1/DTD/svg11.dtd">
<svg version="1.1" id="Layer_1" xmlns="http://www.w3.org/2000/svg" xmlns:xlink="http://www.w3.org/1999/xlink" x="0px" y="0px"
	 viewBox="0 0 24 24" style="enable-background:new 0 0 24 24;" xml:space="preserve">
<style type="text/css">
	.st0{fill:#A5B2BD;}
	.st1{fill:#3197D6;}
	.st2{fill:#010101;}
</style>
<path d="M18,7h-2V5c0-1.1-0.9-2-2-2h-4C8.9,3,8,3.9,8,5v2H6c-1.7,0-3,1.3-3,3v8c0,1.7,1.3,3,3,3h12c1.7,0,3-1.3,3-3v-8
	C21,8.3,19.7,7,18,7z M7,19H6c-0.6,0-1-0.4-1-1v-8c0-0.6,0.4-1,1-1h1V19z M10,5h4v2h-4V5z M15,19H9V9h6V19z M19,18c0,0.6-0.4,1-1,1
	h-1V9h1c0.6,0,1,0.4,1,1V18z"/>
</svg>
