<?xml version="1.0" encoding="utf-8"?>
<!-- Generator: Adobe Illustrator 20.0.0, SVG Export Plug-In . SVG Version: 6.00 Build 0)  -->
<!DOCTYPE svg PUBLIC "-//W3C//DTD SVG 1.1//EN" "http://www.w3.org/Graphics/SVG/1.1/DTD/svg11.dtd">
<svg version="1.1" id="Layer_1" xmlns="http://www.w3.org/2000/svg" xmlns:xlink="http://www.w3.org/1999/xlink" x="0px" y="0px"
	 viewBox="0 0 24 24" style="enable-background:new 0 0 24 24;" xml:space="preserve">
<style type="text/css">
	.st0{fill:#A5B2BD;}
	.st1{fill:#3197D6;}
	.st2{fill:none;stroke:#727F8E;stroke-width:2;stroke-linecap:round;stroke-linejoin:round;stroke-miterlimit:10;}
	.st3{fill:#000102;}
	.st4{fill:#727F8E;}
	.st5{fill:none;stroke:#727F8E;stroke-width:2;stroke-linejoin:round;stroke-miterlimit:10;}
</style>
<path class="st3" d="M17,14.2c0-1.9-1-3.1-3.4-3.5L13,10.6V6.9c0.5,0.2,0.9,0.6,1.1,1c0.2,0.4,0.6,0.7,1.1,0.7h0
	c0.9,0,1.5-0.9,1-1.7c-0.5-1-1.6-1.7-3.2-1.9V4c0-0.6-0.4-1-1-1s-1,0.4-1,1v1.1C8.7,5.5,7.4,6.9,7.4,8.8c0,1.9,1.2,3.2,3.3,3.6
	l0.2,0v3.9c-0.7-0.2-1.2-0.7-1.4-1.3c-0.2-0.4-0.6-0.7-1.1-0.7h0c-0.9,0-1.4,0.9-1.1,1.7c0.6,1.2,1.8,2,3.6,2.2V19c0,0.6,0.4,1,1,1
	s1-0.4,1-1v-0.8C15.6,18,17,16.5,17,14.2z M9.9,8.5c0-0.7,0.4-1.3,1.1-1.6v3.2C10.2,9.8,9.9,9.3,9.9,8.5z M13,16.5v-3.6
	c1.1,0.3,1.6,0.8,1.6,1.7C14.6,15.5,14.1,16.2,13,16.5z"/>
</svg>
