<?xml version="1.0" encoding="utf-8"?>
<!-- Generator: Adobe Illustrator 20.0.0, SVG Export Plug-In . SVG Version: 6.00 Build 0)  -->
<!DOCTYPE svg PUBLIC "-//W3C//DTD SVG 1.1//EN" "http://www.w3.org/Graphics/SVG/1.1/DTD/svg11.dtd">
<svg version="1.1" id="Layer_1" xmlns="http://www.w3.org/2000/svg" xmlns:xlink="http://www.w3.org/1999/xlink" x="0px" y="0px"
	 viewBox="0 0 24 24" style="enable-background:new 0 0 24 24;" xml:space="preserve">
<style type="text/css">
	.st0{fill:#A5B2BD;}
	.st1{fill:#3197D6;}
	.st2{fill:#010101;}
</style>
<path d="M13.6,10.7L13,10.6V6.9c0.5,0.2,0.9,0.6,1.1,1c0.2,0.4,0.6,0.7,1.1,0.7h0c0.9,0,1.5-0.9,1-1.7c-0.5-1-1.6-1.7-3.2-1.9V4
	c0-0.6-0.4-1-1-1s-1,0.4-1,1v1.1C8.7,5.5,7.4,6.9,7.4,8.8c0,1.9,1.2,3.2,3.3,3.6l0.2,0v3.9c-0.7-0.2-1.2-0.7-1.4-1.3
	c-0.2-0.4-0.6-0.7-1.1-0.7h0c-0.9,0-1.4,0.9-1.1,1.7c0.6,1.2,1.8,2,3.6,2.2V19c0,0.6,0.4,1,1,1s1-0.4,1-1v-0.8c2.6-0.3,4-1.7,4-4.1
	C17,12.3,16,11.1,13.6,10.7z M11,10.1c-0.8-0.3-1.1-0.8-1.1-1.6c0-0.7,0.4-1.3,1.1-1.6V10.1z M13,16.5v-3.6c1.1,0.3,1.6,0.8,1.6,1.7
	C14.6,15.5,14.1,16.2,13,16.5z"/>
</svg>
