<?xml version="1.0" encoding="utf-8"?>
<!-- Generator: Adobe Illustrator 20.0.0, SVG Export Plug-In . SVG Version: 6.00 Build 0)  -->
<!DOCTYPE svg PUBLIC "-//W3C//DTD SVG 1.1//EN" "http://www.w3.org/Graphics/SVG/1.1/DTD/svg11.dtd">
<svg version="1.1" id="Layer_1" xmlns="http://www.w3.org/2000/svg" xmlns:xlink="http://www.w3.org/1999/xlink" x="0px" y="0px"
	 viewBox="0 0 24 24" style="enable-background:new 0 0 24 24;" xml:space="preserve">
<style type="text/css">
	.st0{fill:#A5B2BD;}
	.st1{fill:#3197D6;}
	.st2{fill:none;stroke:#727F8E;stroke-width:2;stroke-linecap:round;stroke-linejoin:round;stroke-miterlimit:10;}
	.st3{fill:#000102;}
	.st4{fill:#727F8E;}
	.st5{fill:none;stroke:#727F8E;stroke-width:2;stroke-linejoin:round;stroke-miterlimit:10;}
</style>
<path d="M20.5,15.4c0.3-0.8,0.5-1.6,0.5-2.4c0-3.3-2.7-6-6-6c-0.5,0-1,0.1-1.4,0.2C12.5,5.9,10.9,5,9,5c-3.3,0-6,2.7-6,6
	c0,0.8,0.2,1.6,0.5,2.4L3,15.8c-0.1,0.3,0,0.7,0.3,0.9C3.5,16.9,3.7,17,4,17c0.1,0,0.1,0,0.2,0l2.4-0.5C7.4,16.8,8.2,17,9,17
	c0.5,0,0.9-0.1,1.4-0.2c1.1,1.3,2.8,2.2,4.6,2.2c0.8,0,1.6-0.2,2.4-0.5l2.4,0.5c0.1,0,0.1,0,0.2,0c0.3,0,0.5-0.1,0.7-0.3
	c0.2-0.2,0.3-0.6,0.3-0.9L20.5,15.4z M9,15c-0.6,0-1.2-0.1-1.8-0.4c-0.1-0.1-0.3-0.1-0.5-0.1c-0.1,0-0.1,0-0.2,0l-1.3,0.3l0.3-1.3
	c0-0.2,0-0.4-0.1-0.6C5.1,12.2,5,11.6,5,11c0-2.2,1.8-4,4-4c1,0,2,0.4,2.7,1C10.1,9.1,9,10.9,9,13c0,0.7,0.1,1.3,0.3,2
	C9.2,15,9.1,15,9,15z M18.5,15.4l0.3,1.3l-1.3-0.3c-0.2,0-0.4,0-0.6,0.1C16.2,16.9,15.6,17,15,17c-2.2,0-4-1.8-4-4s1.8-4,4-4
	s4,1.8,4,4c0,0.6-0.1,1.2-0.4,1.8C18.5,15,18.4,15.2,18.5,15.4z"/>
</svg>
