<?xml version="1.0" encoding="utf-8"?>
<!-- Generator: Adobe Illustrator 20.0.0, SVG Export Plug-In . SVG Version: 6.00 Build 0)  -->
<!DOCTYPE svg PUBLIC "-//W3C//DTD SVG 1.1//EN" "http://www.w3.org/Graphics/SVG/1.1/DTD/svg11.dtd">
<svg version="1.1" id="Layer_1" xmlns="http://www.w3.org/2000/svg" xmlns:xlink="http://www.w3.org/1999/xlink" x="0px" y="0px"
	 viewBox="0 0 24 24" style="enable-background:new 0 0 24 24;" xml:space="preserve">
<style type="text/css">
	.st0{fill:#A5B2BD;}
	.st1{fill:#3197D6;}
</style>
<g>
	<path d="M12,21c5,0,9-4,9-9s-4-9-9-9s-9,4-9,9S7,21,12,21z M12,5c3.9,0,7,3.1,7,7s-3.1,7-7,7s-7-3.1-7-7S8.1,5,12,5z"/>
	<path d="M9,13h6c0.6,0,1-0.4,1-1s-0.4-1-1-1H9c-0.6,0-1,0.4-1,1S8.4,13,9,13z"/>
</g>
</svg>
