<?xml version="1.0" encoding="utf-8"?>
<!-- Generator: Adobe Illustrator 20.0.0, SVG Export Plug-In . SVG Version: 6.00 Build 0)  -->
<!DOCTYPE svg PUBLIC "-//W3C//DTD SVG 1.1//EN" "http://www.w3.org/Graphics/SVG/1.1/DTD/svg11.dtd">
<svg version="1.1" id="Layer_1" xmlns="http://www.w3.org/2000/svg" xmlns:xlink="http://www.w3.org/1999/xlink" x="0px" y="0px"
	 viewBox="0 0 24 24" style="enable-background:new 0 0 24 24;" xml:space="preserve">
<style type="text/css">
	.st0{fill:#A5B2BD;}
	.st1{fill:#3197D6;}
	.st2{fill:none;stroke:#727F8E;stroke-width:2;stroke-linecap:round;stroke-linejoin:round;stroke-miterlimit:10;}
	.st3{fill:#000102;}
	.st4{fill:#727F8E;}
	.st5{fill:none;stroke:#727F8E;stroke-width:2;stroke-linejoin:round;stroke-miterlimit:10;}
</style>
<path d="M15.9,9.1C15.5,6.8,13.4,5,11,5c-2.8,0-5,2.2-5,5c0,0.1,0,0.3,0,0.4c-0.2,0.1-0.5,0.2-0.7,0.4c-0.1,0.1-0.2,0.1-0.3,0.2
	c-0.2,0.1-0.3,0.2-0.4,0.4c-0.1,0-0.1,0.1-0.2,0.1c0,0,0,0,0,0.1C3.5,12.4,3,13.7,3,15c0,2.4,2,4,5,4h9c2.8,0,4-2,4-4
	C21,12,18.8,9.5,15.9,9.1z M17,17H8c-0.7,0-3-0.1-3-2c0-0.9,0.4-1.6,1-2.2c0.1-0.1,0.1-0.1,0.2-0.2c0.1-0.1,0.1-0.1,0.2-0.2
	c0.1-0.1,0.2-0.1,0.3-0.2c0.1,0,0.2-0.1,0.2-0.1c1.1-0.4,2.3-0.2,3.2,0.7c0.2,0.2,0.5,0.3,0.7,0.3s0.5-0.1,0.7-0.3
	c0.4-0.4,0.4-1,0-1.4c-1-1-2.3-1.5-3.5-1.5c0,0,0,0,0,0c0-1.7,1.3-3,3-3s3,1.3,3,3c0,0.6,0.4,1,1,1c2.2,0,4,1.8,4,4
	C19,15.7,18.7,17,17,17z"/>
</svg>
