<?xml version="1.0" encoding="utf-8"?>
<!-- Generator: Adobe Illustrator 20.0.0, SVG Export Plug-In . SVG Version: 6.00 Build 0)  -->
<!DOCTYPE svg PUBLIC "-//W3C//DTD SVG 1.1//EN" "http://www.w3.org/Graphics/SVG/1.1/DTD/svg11.dtd">
<svg version="1.1" id="Layer_1" xmlns="http://www.w3.org/2000/svg" xmlns:xlink="http://www.w3.org/1999/xlink" x="0px" y="0px"
	 viewBox="0 0 24 24" style="enable-background:new 0 0 24 24;" xml:space="preserve">
<style type="text/css">
	.st0{fill:#A5B2BD;}
	.st1{fill:#3197D6;}
</style>
<g>
	<path d="M19,4V2c0-0.6-0.4-1-1-1s-1,0.4-1,1v2h-2c-0.6,0-1,0.4-1,1s0.4,1,1,1h2v2c0,0.6,0.4,1,1,1s1-0.4,1-1V6h2c0.6,0,1-0.4,1-1
		s-0.4-1-1-1H19z"/>
	<path d="M5,18l1.6,0l2.4,2.4c0.4,0.4,1,0.6,1.6,0.6s1.1-0.2,1.6-0.6l2.4-2.4H16c1.7,0,3-1.3,3-3v-3c0-0.6-0.4-1-1-1s-1,0.4-1,1v3
		c0,0.6-0.4,1-1,1h-2c-0.3,0-0.5,0.1-0.7,0.3l-2.6,2.6c-0.1,0.1-0.2,0.1-0.3,0l-2.6-2.6C7.5,16.1,7.3,16,7,16l-2,0c-0.6,0-1-0.4-1-1
		l0-8c0-0.6,0.4-1,1-1h6c0.6,0,1-0.4,1-1s-0.4-1-1-1H5C3.3,4,2,5.3,2,7l0,8C2,16.7,3.3,18,5,18z"/>
</g>
</svg>
