<?xml version="1.0" encoding="utf-8"?>
<!-- Generator: Adobe Illustrator 20.0.0, SVG Export Plug-In . SVG Version: 6.00 Build 0)  -->
<!DOCTYPE svg PUBLIC "-//W3C//DTD SVG 1.1//EN" "http://www.w3.org/Graphics/SVG/1.1/DTD/svg11.dtd">
<svg version="1.1" id="Layer_1" xmlns="http://www.w3.org/2000/svg" xmlns:xlink="http://www.w3.org/1999/xlink" x="0px" y="0px"
	 viewBox="0 0 24 24" style="enable-background:new 0 0 24 24;" xml:space="preserve">
<style type="text/css">
	.st0{fill:#A5B2BD;}
	.st1{fill:#3197D6;}
</style>
<g>
	<path d="M10.3,13.7c0.2,0.2,0.5,0.3,0.7,0.3s0.5-0.1,0.7-0.3l4-4c0.4-0.4,0.4-1,0-1.4s-1-0.4-1.4,0L11,11.6l-1.3-1.3
		c-0.4-0.4-1-0.4-1.4,0s-0.4,1,0,1.4L10.3,13.7z"/>
	<path d="M4.5,16.5C5.4,17.5,6.7,18,8,18c0,0,0,0,0,0l0.6,0l2.7,2.7c0.2,0.2,0.5,0.3,0.7,0.3s0.5-0.1,0.7-0.3l2.7-2.7l0.6,0
		c0,0,0,0,0,0c1.3,0,2.6-0.5,3.5-1.5c0.9-0.9,1.5-2.2,1.5-3.5l0-5c0-2.8-2.2-5-5-5H8C5.2,3,3,5.2,3,8l0,5C3,14.3,3.5,15.6,4.5,16.5z
		 M8,5h8c1.7,0,3,1.3,3,3l0,5c0,0.8-0.3,1.6-0.9,2.1C17.6,15.7,16.8,16,16,16c0,0,0,0,0,0l-1,0c-0.3,0-0.5,0.1-0.7,0.3L12,18.6
		l-2.3-2.3C9.5,16.1,9.3,16,9,16l-1,0c0,0,0,0,0,0c-0.8,0-1.6-0.3-2.1-0.9C5.3,14.6,5,13.8,5,13l0-5C5,6.3,6.3,5,8,5z"/>
</g>
</svg>
