<?xml version="1.0" encoding="utf-8"?>
<!-- Generator: Adobe Illustrator 20.0.0, SVG Export Plug-In . SVG Version: 6.00 Build 0)  -->
<!DOCTYPE svg PUBLIC "-//W3C//DTD SVG 1.1//EN" "http://www.w3.org/Graphics/SVG/1.1/DTD/svg11.dtd">
<svg version="1.1" id="Layer_1" xmlns="http://www.w3.org/2000/svg" xmlns:xlink="http://www.w3.org/1999/xlink" x="0px" y="0px"
	 viewBox="0 0 24 24" style="enable-background:new 0 0 24 24;" xml:space="preserve">
<style type="text/css">
	.st0{fill:#A5B2BD;}
	.st1{fill:#3197D6;}
	.st2{fill:none;stroke:#727F8E;stroke-width:2;stroke-linecap:round;stroke-linejoin:round;stroke-miterlimit:10;}
	.st3{fill:#000102;}
	.st4{fill:#727F8E;}
	.st5{fill:none;stroke:#727F8E;stroke-width:2;stroke-linejoin:round;stroke-miterlimit:10;}
</style>
<g>
	<path d="M18,3h-8C8.3,3,7,4.3,7,6v1H6c-1.7,0-3,1.3-3,3v8c0,1.7,1.3,3,3,3h8c1.7,0,3-1.3,3-3v-1h1c1.7,0,3-1.3,3-3V6
		C21,4.3,19.7,3,18,3z M15,18c0,0.6-0.4,1-1,1H6c-0.6,0-1-0.4-1-1v-8c0-0.6,0.4-1,1-1h1v5c0,1.7,1.3,3,3,3h5V18z M19,14
		c0,0.6-0.4,1-1,1h-8c-0.6,0-1-0.4-1-1V6c0-0.6,0.4-1,1-1h8c0.6,0,1,0.4,1,1V14z"/>
	<path d="M17,9h-2V7c0-0.6-0.4-1-1-1s-1,0.4-1,1v2h-2c-0.6,0-1,0.4-1,1s0.4,1,1,1h2v2c0,0.6,0.4,1,1,1s1-0.4,1-1v-2h2
		c0.6,0,1-0.4,1-1S17.6,9,17,9z"/>
</g>
</svg>
