<?xml version="1.0" encoding="utf-8"?>
<!-- Generator: Adobe Illustrator 20.0.0, SVG Export Plug-In . SVG Version: 6.00 Build 0)  -->
<!DOCTYPE svg PUBLIC "-//W3C//DTD SVG 1.1//EN" "http://www.w3.org/Graphics/SVG/1.1/DTD/svg11.dtd">
<svg version="1.1" id="Layer_1" xmlns="http://www.w3.org/2000/svg" xmlns:xlink="http://www.w3.org/1999/xlink" x="0px" y="0px"
	 viewBox="0 0 24 24" style="enable-background:new 0 0 24 24;" xml:space="preserve">
<style type="text/css">
	.st0{fill:#A5B2BD;}
	.st1{fill:#3197D6;}
</style>
<g>
	<path d="M18,13H6c-1.7,0-3,1.3-3,3v2c0,1.7,1.3,3,3,3h12c1.7,0,3-1.3,3-3v-2C21,14.3,19.7,13,18,13z M19,18c0,0.6-0.4,1-1,1H6
		c-0.6,0-1-0.4-1-1v-2c0-0.6,0.4-1,1-1h12c0.6,0,1,0.4,1,1V18z"/>
	<path d="M21,6c0-1.7-1.3-3-3-3H6C4.3,3,3,4.3,3,6v2c0,1.7,1.3,3,3,3h12c1.7,0,3-1.3,3-3V6z M19,8c0,0.6-0.4,1-1,1H6
		C5.4,9,5,8.6,5,8V6c0-0.6,0.4-1,1-1h12c0.6,0,1,0.4,1,1V8z"/>
	<rect x="6" y="6" width="2" height="2"/>
	<rect x="6" y="16" width="2" height="2"/>
</g>
</svg>
