<?xml version="1.0" encoding="utf-8"?>
<!-- Generator: Adobe Illustrator 20.0.0, SVG Export Plug-In . SVG Version: 6.00 Build 0)  -->
<!DOCTYPE svg PUBLIC "-//W3C//DTD SVG 1.1//EN" "http://www.w3.org/Graphics/SVG/1.1/DTD/svg11.dtd">
<svg version="1.1" id="Layer_1" xmlns="http://www.w3.org/2000/svg" xmlns:xlink="http://www.w3.org/1999/xlink" x="0px" y="0px"
	 viewBox="0 0 24 24" style="enable-background:new 0 0 24 24;" xml:space="preserve">
<style type="text/css">
	.st0{fill:#A5B2BD;}
	.st1{fill:#3197D6;}
	.st2{fill:none;stroke:#727F8E;stroke-width:2;stroke-linecap:round;stroke-linejoin:round;stroke-miterlimit:10;}
	.st3{fill:#000102;}
	.st4{fill:#727F8E;}
	.st5{fill:none;stroke:#727F8E;stroke-width:2;stroke-linejoin:round;stroke-miterlimit:10;}
</style>
<g>
	<path d="M14,19H6c-0.6,0-1-0.4-1-1V6c0-0.6,0.4-1,1-1h3v4c0,0.6,0.4,1,1,1h5c0.6,0,1-0.4,1-1V8c0-0.3-0.1-0.5-0.3-0.7l-3.4-3.4
		C11.7,3.3,11,3,10.2,3H6C4.3,3,3,4.3,3,6v12c0,1.7,1.3,3,3,3h8c0.6,0,1-0.4,1-1S14.6,19,14,19z M11,5.4L13.6,8H11V5.4z"/>
	<path d="M20.7,14.3l-3-3c-0.4-0.4-1-0.4-1.4,0s-0.4,1,0,1.4l1.3,1.3H10c-0.6,0-1,0.4-1,1s0.4,1,1,1h7.6l-1.3,1.3
		c-0.4,0.4-0.4,1,0,1.4c0.2,0.2,0.5,0.3,0.7,0.3s0.5-0.1,0.7-0.3l3-3C21.1,15.3,21.1,14.7,20.7,14.3z"/>
</g>
</svg>
