<?xml version="1.0" encoding="utf-8"?>
<!-- Generator: Adobe Illustrator 20.0.0, SVG Export Plug-In . SVG Version: 6.00 Build 0)  -->
<!DOCTYPE svg PUBLIC "-//W3C//DTD SVG 1.1//EN" "http://www.w3.org/Graphics/SVG/1.1/DTD/svg11.dtd">
<svg version="1.1" id="Layer_1" xmlns="http://www.w3.org/2000/svg" xmlns:xlink="http://www.w3.org/1999/xlink" x="0px" y="0px"
	 viewBox="0 0 24 24" style="enable-background:new 0 0 24 24;" xml:space="preserve">
<style type="text/css">
	.st0{fill:#A5B2BD;}
	.st1{fill:#3197D6;}
	.st2{fill:none;stroke:#727F8E;stroke-width:2;stroke-linecap:round;stroke-linejoin:round;stroke-miterlimit:10;}
	.st3{fill:#000102;}
	.st4{fill:#727F8E;}
	.st5{fill:none;stroke:#727F8E;stroke-width:2;stroke-linejoin:round;stroke-miterlimit:10;}
</style>
<path class="st3" d="M18.4,8L14,3.6C13.6,3.2,13.1,3,12.6,3H8C6.3,3,5,4.3,5,6v12c0,1.7,1.3,3,3,3h8c1.7,0,3-1.3,3-3V9.4
	C19,8.9,18.8,8.4,18.4,8z M15.6,8H15c-0.6,0-1-0.4-1-1V6.4L15.6,8z M17,18c0,0.6-0.4,1-1,1H8c-0.6,0-1-0.4-1-1V6c0-0.6,0.4-1,1-1h4
	v2c0,1.7,1.3,3,3,3h2V18z"/>
</svg>
