<?xml version="1.0" encoding="utf-8"?>
<!-- Generator: Adobe Illustrator 20.0.0, SVG Export Plug-In . SVG Version: 6.00 Build 0)  -->
<!DOCTYPE svg PUBLIC "-//W3C//DTD SVG 1.1//EN" "http://www.w3.org/Graphics/SVG/1.1/DTD/svg11.dtd">
<svg version="1.1" id="Layer_1" xmlns="http://www.w3.org/2000/svg" xmlns:xlink="http://www.w3.org/1999/xlink" x="0px" y="0px"
	 viewBox="0 0 24 24" style="enable-background:new 0 0 24 24;" xml:space="preserve">
<style type="text/css">
	.st0{fill:#A5B2BD;}
	.st1{fill:#3197D6;}
	.st2{fill:#010101;}
</style>
<path d="M20.7,9.3l-6-6C14.5,3.1,14.3,3,14,3h-4C8.3,3,7,4.3,7,6v1H6c-1.7,0-3,1.3-3,3v8c0,1.7,1.3,3,3,3h8c1.7,0,3-1.3,3-3v-1h1
	c1.7,0,3-1.3,3-3v-4C21,9.7,20.9,9.5,20.7,9.3z M15,6.4L17.6,9H16c-0.6,0-1-0.4-1-1V6.4z M15,18c0,0.6-0.4,1-1,1H6c-0.6,0-1-0.4-1-1
	v-8c0-0.6,0.4-1,1-1h1v5c0,1.7,1.3,3,3,3h5V18z M19,14c0,0.6-0.4,1-1,1h-8c-0.6,0-1-0.4-1-1V6c0-0.6,0.4-1,1-1h3v3c0,1.7,1.3,3,3,3
	h3V14z"/>
</svg>
