<?xml version="1.0" encoding="utf-8"?>
<!-- Generator: Adobe Illustrator 20.0.0, SVG Export Plug-In . SVG Version: 6.00 Build 0)  -->
<!DOCTYPE svg PUBLIC "-//W3C//DTD SVG 1.1//EN" "http://www.w3.org/Graphics/SVG/1.1/DTD/svg11.dtd">
<svg version="1.1" id="Layer_1" xmlns="http://www.w3.org/2000/svg" xmlns:xlink="http://www.w3.org/1999/xlink" x="0px" y="0px"
	 viewBox="0 0 24 24" style="enable-background:new 0 0 24 24;" xml:space="preserve">
<style type="text/css">
	.st0{fill:#A5B2BD;}
	.st1{fill:#3197D6;}
</style>
<path d="M6,21h12c1.7,0,3-1.3,3-3v-6.9c0-0.9-0.4-1.7-1-2.2l-5.3-4.7c-1.5-1.3-3.8-1.3-5.3,0L5.1,7.9c0,0,0,0,0,0L4,8.9
	c-0.6,0.6-1,1.4-1,2.2V18C3,19.7,4.3,21,6,21z M6.4,19l3.2-3.2l0.6,0.4c0.5,0.4,1.2,0.6,1.8,0.6s1.3-0.2,1.8-0.6l0.6-0.4l3.2,3.2
	H6.4z M19,17.6l-3-3l3-2.3V17.6z M6.4,9.4l4.2-3.8c0.8-0.7,1.9-0.7,2.7,0l5.1,4.5l-5.8,4.5c-0.4,0.3-0.9,0.3-1.2,0l-5.8-4.5L6.4,9.4
	z M5,12.3l3,2.3l-3,3V12.3z"/>
</svg>
