<?xml version="1.0" encoding="utf-8"?>
<!-- Generator: Adobe Illustrator 20.0.0, SVG Export Plug-In . SVG Version: 6.00 Build 0)  -->
<!DOCTYPE svg PUBLIC "-//W3C//DTD SVG 1.1//EN" "http://www.w3.org/Graphics/SVG/1.1/DTD/svg11.dtd">
<svg version="1.1" id="Layer_1" xmlns="http://www.w3.org/2000/svg" xmlns:xlink="http://www.w3.org/1999/xlink" x="0px" y="0px"
	 viewBox="0 0 24 24" style="enable-background:new 0 0 24 24;" xml:space="preserve">
<style type="text/css">
	.st0{fill:#A5B2BD;}
	.st1{fill:#3197D6;}
	.st2{fill:#010101;}
</style>
<path d="M17.9,5.4c-0.7-0.6-1.6-0.8-2.5-0.6c-2.1,0.5-2.4,0.1-3-0.5C11.2,3.2,10,2.4,5.9,3.6C5.8,3.3,5.4,3,5,3C4.4,3,4,3.4,4,4v16
	c0,0.6,0.4,1,1,1s1-0.4,1-1v-3.9c3.7-1.2,4.3-0.5,4.9,0.1c0.7,0.7,1.4,1.3,2.9,1.3c0.8,0,1.8-0.2,3.1-0.6c1.3-0.4,2.1-1.5,2.1-2.9
	V7.7C19,6.8,18.6,5.9,17.9,5.4z M17,14c0,0.4-0.3,0.8-0.7,1c-2.9,0.9-3.3,0.4-3.9-0.2C11.2,13.6,10,12.9,6,14V5.7
	c3.7-1.2,4.3-0.5,4.9,0.1c0.9,1,2,1.7,4.9,1c0.4-0.1,0.7,0.1,0.8,0.2C16.9,7.1,17,7.4,17,7.7V14z"/>
</svg>
