<?xml version="1.0" encoding="utf-8"?>
<!-- Generator: Adobe Illustrator 20.0.0, SVG Export Plug-In . SVG Version: 6.00 Build 0)  -->
<!DOCTYPE svg PUBLIC "-//W3C//DTD SVG 1.1//EN" "http://www.w3.org/Graphics/SVG/1.1/DTD/svg11.dtd">
<svg version="1.1" id="Layer_1" xmlns="http://www.w3.org/2000/svg" xmlns:xlink="http://www.w3.org/1999/xlink" x="0px" y="0px"
	 viewBox="0 0 24 24" style="enable-background:new 0 0 24 24;" xml:space="preserve">
<style type="text/css">
	.st0{fill:#A5B2BD;}
	.st1{fill:#3197D6;}
	.st2{fill:none;stroke:#727F8E;stroke-width:2;stroke-linecap:round;stroke-linejoin:round;stroke-miterlimit:10;}
	.st3{fill:#000102;}
	.st4{fill:#727F8E;}
	.st5{fill:none;stroke:#727F8E;stroke-width:2;stroke-linejoin:round;stroke-miterlimit:10;}
</style>
<path d="M18,5h-6.6L9.7,3.3C9.5,3.1,9.3,3,9,3H6C4.3,3,3,4.3,3,6v4v8c0,1.7,1.3,3,3,3h12c1.7,0,3-1.3,3-3v-8V8C21,6.3,19.7,5,18,5z
	 M6,5h2.6l1.7,1.7C10.5,6.9,10.7,7,11,7h7c0.6,0,1,0.4,1,1v1H5V6C5,5.4,5.4,5,6,5z M18,19H6c-0.6,0-1-0.4-1-1v-7h14v7
	C19,18.6,18.6,19,18,19z"/>
</svg>
