<?xml version="1.0" encoding="utf-8"?>
<!-- Generator: Adobe Illustrator 20.0.0, SVG Export Plug-In . SVG Version: 6.00 Build 0)  -->
<!DOCTYPE svg PUBLIC "-//W3C//DTD SVG 1.1//EN" "http://www.w3.org/Graphics/SVG/1.1/DTD/svg11.dtd">
<svg version="1.1" id="Layer_1" xmlns="http://www.w3.org/2000/svg" xmlns:xlink="http://www.w3.org/1999/xlink" x="0px" y="0px"
	 viewBox="0 0 24 24" style="enable-background:new 0 0 24 24;" xml:space="preserve">
<style type="text/css">
	.st0{fill:#A5B2BD;}
	.st1{fill:#3197D6;}
	.st2{fill:none;stroke:#727F8E;stroke-width:2;stroke-linecap:round;stroke-linejoin:round;stroke-miterlimit:10;}
	.st3{fill:#000102;}
	.st4{fill:#727F8E;}
	.st5{fill:none;stroke:#727F8E;stroke-width:2;stroke-linejoin:round;stroke-miterlimit:10;}
</style>
<path d="M20.7,9.3C20.6,9.1,20.3,9,20,9V8c0-1.7-1.3-3-3-3h-4.6l-1.7-1.7C10.5,3.1,10.3,3,10,3H7C5.3,3,4,4.3,4,6v3
	C3.7,9,3.4,9.1,3.3,9.3S3,9.8,3,10.1l0.8,8.2C4,19.8,5.3,21,6.8,21h10.4c1.5,0,2.8-1.2,3-2.7l0.8-8.2C21,9.8,20.9,9.5,20.7,9.3z
	 M6,6c0-0.6,0.4-1,1-1h2.6l1.7,1.7C11.5,6.9,11.7,7,12,7h5c0.6,0,1,0.4,1,1v1H6V6z M18.2,18.1c-0.1,0.5-0.5,0.9-1,0.9H6.8
	c-0.5,0-0.9-0.4-1-0.9L5.1,11h13.8L18.2,18.1z"/>
</svg>
