<?xml version="1.0" encoding="utf-8"?>
<!-- Generator: Adobe Illustrator 20.0.0, SVG Export Plug-In . SVG Version: 6.00 Build 0)  -->
<!DOCTYPE svg PUBLIC "-//W3C//DTD SVG 1.1//EN" "http://www.w3.org/Graphics/SVG/1.1/DTD/svg11.dtd">
<svg version="1.1" id="Layer_1" xmlns="http://www.w3.org/2000/svg" xmlns:xlink="http://www.w3.org/1999/xlink" x="0px" y="0px"
	 viewBox="0 0 24 24" style="enable-background:new 0 0 24 24;" xml:space="preserve">
<style type="text/css">
	.st0{fill:#A5B2BD;}
	.st1{fill:#3197D6;}
	.st2{fill:#010101;}
</style>
<path d="M14.3,14.7c0.2,0.2,0.5,0.3,0.7,0.3s0.5-0.1,0.7-0.3l5-5c0.4-0.4,0.4-1,0-1.4l-5-5c-0.4-0.4-1-0.4-1.4,0s-0.4,1,0,1.4
	L17.6,8H9c-3.3,0-6,2.7-6,6v1c0,3.3,2.7,6,6,6h9c0.6,0,1-0.4,1-1s-0.4-1-1-1H9c-2.2,0-4-1.8-4-4v-1c0-2.2,1.8-4,4-4h8.6l-3.3,3.3
	C13.9,13.7,13.9,14.3,14.3,14.7z"/>
</svg>
