<?xml version="1.0" encoding="utf-8"?>
<!-- Generator: Adobe Illustrator 20.0.0, SVG Export Plug-In . SVG Version: 6.00 Build 0)  -->
<!DOCTYPE svg PUBLIC "-//W3C//DTD SVG 1.1//EN" "http://www.w3.org/Graphics/SVG/1.1/DTD/svg11.dtd">
<svg version="1.1" id="Layer_1" xmlns="http://www.w3.org/2000/svg" xmlns:xlink="http://www.w3.org/1999/xlink" x="0px" y="0px"
	 viewBox="0 0 24 24" style="enable-background:new 0 0 24 24;" xml:space="preserve">
<style type="text/css">
	.st0{fill:#A5B2BD;}
	.st1{fill:#3197D6;}
	.st2{fill:#010101;}
</style>
<g>
	<path d="M18.7,9.2c0.9-0.9,0.8-2.4-0.1-3.3l-0.5-0.5c-0.9-0.9-2.4-0.9-3.3-0.1C14.7,4,13.7,3,12.4,3h-0.7c-1.3,0-2.3,1-2.4,2.3
		C8.3,4.5,6.8,4.5,5.9,5.4L5.4,5.9C4.5,6.8,4.4,8.3,5.3,9.2C4,9.3,3,10.3,3,11.6v0.7c0,1.3,1,2.4,2.3,2.4c-0.9,0.9-0.8,2.4,0.1,3.3
		l0.5,0.5c0.9,0.9,2.4,0.9,3.3,0.1C9.3,20,10.3,21,11.6,21h0.7c1.3,0,2.3-1,2.4-2.3c0.9,0.8,2.4,0.8,3.3-0.1l0.5-0.5
		c0.9-0.9,0.9-2.4,0.1-3.3c1.3-0.1,2.3-1.1,2.3-2.4v-0.7C21,10.3,20,9.3,18.7,9.2z M19,12.4c0,0.2-0.2,0.4-0.4,0.4
		c-0.8,0-1.5,0.5-1.7,1.2l0,0.1c-0.3,0.7-0.1,1.5,0.4,2.1c0.2,0.2,0.2,0.4,0,0.6l-0.5,0.5c-0.2,0.2-0.4,0.2-0.6,0
		c-0.5-0.5-1.4-0.7-2.2-0.4c-0.7,0.3-1.2,1-1.2,1.7c0,0.2-0.2,0.4-0.4,0.4h-0.7c-0.2,0-0.4-0.2-0.4-0.4c0-0.8-0.5-1.5-1.3-1.8
		c-0.2-0.1-0.5-0.1-0.7-0.1c-0.5,0-1,0.2-1.3,0.6c-0.2,0.2-0.4,0.2-0.6,0l-0.5-0.5c-0.2-0.2-0.2-0.4,0-0.6c0.5-0.5,0.7-1.4,0.4-2.1
		l0-0.1c-0.3-0.7-1-1.2-1.7-1.2c-0.2,0-0.4-0.2-0.4-0.4v-0.7c0-0.2,0.2-0.4,0.4-0.4c0.8,0,1.5-0.5,1.7-1.2l0-0.1
		c0.3-0.7,0.1-1.5-0.4-2.1c-0.2-0.2-0.2-0.4,0-0.6l0.5-0.5c0.2-0.2,0.4-0.2,0.6,0C8.4,7.3,9.2,7.5,10,7.2c0.7-0.3,1.2-1,1.2-1.7
		c0-0.2,0.2-0.4,0.4-0.4h0.7c0.2,0,0.4,0.2,0.4,0.4c0,0.8,0.5,1.5,1.3,1.8c0.7,0.3,1.5,0.1,2.1-0.4c0.2-0.2,0.4-0.2,0.6,0l0.5,0.5
		c0.2,0.2,0.2,0.4,0,0.6c-0.5,0.5-0.7,1.4-0.4,2.1l0,0.1c0.3,0.7,1,1.2,1.7,1.2c0.2,0,0.4,0.2,0.4,0.4V12.4z"/>
	<path d="M12,8.5c-1.9,0-3.5,1.6-3.5,3.5s1.6,3.5,3.5,3.5s3.5-1.6,3.5-3.5S13.9,8.5,12,8.5z M12,13.5c-0.8,0-1.5-0.7-1.5-1.5
		s0.7-1.5,1.5-1.5s1.5,0.7,1.5,1.5S12.8,13.5,12,13.5z"/>
</g>
</svg>
