<?xml version="1.0" encoding="utf-8"?>
<!-- Generator: Adobe Illustrator 20.0.0, SVG Export Plug-In . SVG Version: 6.00 Build 0)  -->
<!DOCTYPE svg PUBLIC "-//W3C//DTD SVG 1.1//EN" "http://www.w3.org/Graphics/SVG/1.1/DTD/svg11.dtd">
<svg version="1.1" id="Layer_1" xmlns="http://www.w3.org/2000/svg" xmlns:xlink="http://www.w3.org/1999/xlink" x="0px" y="0px"
	 viewBox="0 0 24 24" style="enable-background:new 0 0 24 24;" xml:space="preserve">
<style type="text/css">
	.st0{fill:#A5B2BD;}
	.st1{fill:#3197D6;}
	.st2{fill:none;stroke:#727F8E;stroke-width:2;stroke-linecap:round;stroke-linejoin:round;stroke-miterlimit:10;}
	.st3{fill:#000102;}
	.st4{fill:#727F8E;}
	.st5{fill:none;stroke:#727F8E;stroke-width:2;stroke-linejoin:round;stroke-miterlimit:10;}
</style>
<path d="M18.5,5c-0.2,0-0.4,0-0.5,0.1C17.7,3.9,16.7,3,15.5,3c-0.6,0-1.1,0.2-1.5,0.5C13.6,3.2,13.1,3,12.5,3
	c-0.9,0-1.7,0.5-2.1,1.2C10.1,4.1,9.8,4,9.5,4C8.1,4,7,5.1,7,6.5v4.3c-0.8-0.4-1.8-0.4-2.6,0C3.6,11.3,3,12.2,3,13.3
	c0,0.7,0.3,1.4,0.8,2l1,1c0,0,0.1,0.1,0.1,0.1c0.5,0.3,1,0.9,1.1,1.1c0,0,0,0.1,0.1,0.1L7,18.8c0.9,1.4,2.5,2.2,4.2,2.2H14
	c3.9,0,7-3.1,7-7V7.5C21,6.1,19.9,5,18.5,5z M19,14c0,2.8-2.2,5-5,5h-2.9c-1,0-1.9-0.5-2.5-1.3l-0.8-1.2c-0.3-0.6-1.2-1.3-1.7-1.7
	l-1-1C5.1,13.7,5,13.5,5,13.3c0-0.4,0.3-0.6,0.4-0.7c0.1-0.1,0.4-0.2,0.8,0c0.9,0.9,2,1.5,3.1,1.9C9.7,14.6,10,15,10,15.4V16
	c0,0.6,0.4,1,1,1s1-0.4,1-1v-0.6c0-1.3-0.8-2.4-2.1-2.8c-0.3-0.1-0.7-0.3-1-0.4c0-0.1,0-0.1,0-0.2V6.5C9,6.2,9.2,6,9.5,6
	S10,6.2,10,6.5V9v2c0,0.6,0.4,1,1,1s1-0.4,1-1V9V6.5v-1C12,5.2,12.2,5,12.5,5S13,5.2,13,5.5V11c0,0.6,0.4,1,1,1s1-0.4,1-1V5.5
	C15,5.2,15.2,5,15.5,5S16,5.2,16,5.5v2V10v1c0,0.6,0.4,1,1,1s1-0.4,1-1v-1V7.5C18,7.2,18.2,7,18.5,7S19,7.2,19,7.5V14z"/>
</svg>
