<?xml version="1.0" encoding="UTF-8"?>
<svg width="20px" height="20px" viewBox="0 0 20 20" version="1.1" xmlns="http://www.w3.org/2000/svg" xmlns:xlink="http://www.w3.org/1999/xlink">
    <!-- Generator: Sketch 47.1 (45422) - http://www.bohemiancoding.com/sketch -->
    <title>Shape</title>
    <desc>Created with Sketch.</desc>
    <defs></defs>
    <g id="ideas" stroke="none" stroke-width="1" fill="none" fill-rule="evenodd">
        <g id="Artboard" fill="#000000">
            <g id="Clipboard">
                <path d="M6.019,2.001 C5.761,2.001 5.499,2.025 5.239,2.074 C3.699,2.366 2.438,3.584 2.103,5.105 C1.848,6.261 2.072,7.413 2.732,8.352 L10.009,17.992 L17.29,8.324 C17.929,7.413 18.153,6.261 17.898,5.105 C17.563,3.584 16.302,2.366 14.762,2.074 C13.245,1.789 11.724,2.353 10.788,3.547 C10.409,4.029 9.592,4.029 9.213,3.547 C8.438,2.558 7.261,2.001 6.019,2.001 L6.019,2.001 Z M10.027,18.016 L9.229,18.618 L10.028,18.016 L10.027,18.016 Z M10.001,20 C9.378,20 8.806,19.718 8.431,19.221 L1.116,9.529 C0.109,8.1 -0.227,6.385 0.15,4.675 C0.656,2.382 2.551,0.548 4.868,0.109 C6.732,-0.246 8.616,0.277 10,1.483 C11.385,0.277 13.267,-0.246 15.133,0.109 C17.45,0.548 19.345,2.382 19.851,4.674 C20.228,6.385 19.892,8.1 18.906,9.502 L11.571,19.221 C11.196,19.718 10.623,20 10.001,20 L10.001,20 Z" id="Shape"></path>
            </g>
        </g>
    </g>
</svg>