<?xml version="1.0" encoding="UTF-8"?>
<svg width="16px" height="17px" viewBox="0 0 16 17" version="1.1" xmlns="http://www.w3.org/2000/svg" xmlns:xlink="http://www.w3.org/1999/xlink">
    <!-- Generator: Sketch 47.1 (45422) - http://www.bohemiancoding.com/sketch -->
    <title>a</title>
    <desc>Created with Sketch.</desc>
    <defs></defs>
    <g id="ideas" stroke="none" stroke-width="1" fill="none" fill-rule="evenodd">
        <g id="a" fill="#000000">
            <g id="Clipboard" transform="translate(0.000000, 1.000000)">
                <path d="M4.81555103,1.60093 C4.60914592,1.60093 4.39954073,1.62013047 4.19153559,1.65933144 C2.95950511,1.89293722 1.95068015,2.86736133 1.68267352,4.08419143 C1.47866847,5.00901431 1.65787291,5.93063712 2.18588597,6.6818557 L8.00763,14.3940465 L13.8325741,6.65945515 C14.3437868,5.93063712 14.5229912,5.00901431 14.3189861,4.08419143 C14.0509795,2.86736133 13.0421546,1.89293722 11.8101241,1.65933144 C10.596494,1.4313258 9.37966394,1.88253697 8.63084542,2.8377606 C8.32763792,3.22337014 7.67402174,3.22337014 7.37081424,2.8377606 C6.7507989,2.04654102 5.80917561,1.60093 4.81555103,1.60093 L4.81555103,1.60093 Z M8.02203035,14.413247 L7.38361456,14.8948589 L8.02283037,14.413247 L8.02203035,14.413247 Z M8.00122984,16.0004862 C7.50281751,16.0004862 7.04520619,15.7748807 6.74519877,15.3772708 L0.893053983,7.623479 C0.0874340524,6.48025071 -0.181372598,5.10821677 0.120234864,3.74018292 C0.525044879,1.90573754 2.04108239,0.43850124 3.89472824,0.0872925509 C5.38596514,-0.196714475 6.89320243,0.221695876 8.00042982,1.18651975 C9.10845723,0.221695876 10.6140945,-0.196714475 12.1069314,0.0872925509 C13.9605773,0.43850124 15.4766148,1.90573754 15.8814248,3.7393829 C16.1830323,5.10821677 15.9142256,6.48025071 15.1254061,7.60187846 L9.25726091,15.3772708 C8.95725349,15.7748807 8.49884215,16.0004862 8.00122984,16.0004862 L8.00122984,16.0004862 Z" id="Shape"></path>
            </g>
        </g>
    </g>
</svg>