<?xml version="1.0" encoding="utf-8"?>
<!-- Generator: Adobe Illustrator 20.0.0, SVG Export Plug-In . SVG Version: 6.00 Build 0)  -->
<!DOCTYPE svg PUBLIC "-//W3C//DTD SVG 1.1//EN" "http://www.w3.org/Graphics/SVG/1.1/DTD/svg11.dtd">
<svg version="1.1" id="Layer_1" xmlns="http://www.w3.org/2000/svg" xmlns:xlink="http://www.w3.org/1999/xlink" x="0px" y="0px"
	 viewBox="0 0 24 24" style="enable-background:new 0 0 24 24;" xml:space="preserve">
<style type="text/css">
	.st0{fill:#A5B2BD;}
	.st1{fill:#3197D6;}
	.st2{fill:#010101;}
</style>
<path d="M12,2C6.5,2,2,6.5,2,12s4.5,10,10,10s10-4.5,10-10S17.5,2,12,2z M16.9,5.7l-2,2c0,0-0.1,0.1-0.1,0.2C14,7.3,13,7,12,7
	s-2,0.3-2.8,0.9c0-0.1-0.1-0.1-0.1-0.2l-2-2C8.5,4.6,10.2,4,12,4S15.5,4.6,16.9,5.7z M9,12c0-1.7,1.3-3,3-3s3,1.3,3,3s-1.3,3-3,3
	S9,13.7,9,12z M4,12c0-1.8,0.6-3.5,1.7-4.9l2,2c0,0,0.1,0.1,0.2,0.1C7.3,10,7,11,7,12s0.3,2,0.9,2.8c-0.1,0-0.1,0.1-0.2,0.1l-2,2
	C4.6,15.5,4,13.8,4,12z M7.1,18.3l2-2c0,0,0.1-0.1,0.1-0.2C10,16.7,11,17,12,17s2-0.3,2.8-0.9c0,0.1,0.1,0.1,0.1,0.2l2,2
	C15.5,19.4,13.8,20,12,20S8.5,19.4,7.1,18.3z M18.3,16.9l-2-2c0,0-0.1-0.1-0.2-0.1C16.7,14,17,13,17,12s-0.3-2-0.9-2.8
	c0.1,0,0.1-0.1,0.2-0.1l2-2C19.4,8.5,20,10.2,20,12S19.4,15.5,18.3,16.9z"/>
</svg>
