<?xml version="1.0" encoding="utf-8"?>
<!-- Generator: Adobe Illustrator 20.0.0, SVG Export Plug-In . SVG Version: 6.00 Build 0)  -->
<!DOCTYPE svg PUBLIC "-//W3C//DTD SVG 1.1//EN" "http://www.w3.org/Graphics/SVG/1.1/DTD/svg11.dtd">
<svg version="1.1" id="Layer_1" xmlns="http://www.w3.org/2000/svg" xmlns:xlink="http://www.w3.org/1999/xlink" x="0px" y="0px"
	 viewBox="0 0 24 24" style="enable-background:new 0 0 24 24;" xml:space="preserve">
<style type="text/css">
	.st0{fill:#A5B2BD;}
	.st1{fill:#3197D6;}
	.st2{fill:#010101;}
</style>
<g>
	<path d="M14.4,17.2L12,18.8l-2.4-1.6c-0.5-0.3-1.1-0.2-1.4,0.3c-0.3,0.5-0.2,1.1,0.3,1.4l3,2c0.2,0.1,0.4,0.2,0.6,0.2
		s0.4-0.1,0.6-0.2l3-2c0.5-0.3,0.6-0.9,0.3-1.4S14.9,16.9,14.4,17.2z"/>
	<path d="M18,5H6C4.3,5,3,6.3,3,8v5c0,1.7,1.3,3,3,3h12c1.7,0,3-1.3,3-3V8C21,6.3,19.7,5,18,5z M19,13c0,0.6-0.4,1-1,1H6
		c-0.6,0-1-0.4-1-1V8c0-0.6,0.4-1,1-1h12c0.6,0,1,0.4,1,1V13z"/>
	<path d="M14,11h-4c-0.6,0-1,0.4-1,1c0,0.6,0.4,1,1,1h4c0.6,0,1-0.4,1-1C15,11.4,14.6,11,14,11z"/>
	<circle cx="7" cy="12" r="1"/>
	<circle cx="17" cy="12" r="1"/>
	<circle cx="17" cy="9" r="1"/>
	<circle cx="14" cy="9" r="1"/>
	<circle cx="11" cy="9" r="1"/>
	<path d="M8,8H7C6.4,8,6,8.4,6,9c0,0.6,0.4,1,1,1h1c0.6,0,1-0.4,1-1C9,8.4,8.6,8,8,8z"/>
</g>
</svg>
