<?xml version="1.0" encoding="utf-8"?>
<!-- Generator: Adobe Illustrator 20.0.0, SVG Export Plug-In . SVG Version: 6.00 Build 0)  -->
<!DOCTYPE svg PUBLIC "-//W3C//DTD SVG 1.1//EN" "http://www.w3.org/Graphics/SVG/1.1/DTD/svg11.dtd">
<svg version="1.1" id="Layer_1" xmlns="http://www.w3.org/2000/svg" xmlns:xlink="http://www.w3.org/1999/xlink" x="0px" y="0px"
	 viewBox="0 0 24 24" style="enable-background:new 0 0 24 24;" xml:space="preserve">
<style type="text/css">
	.st0{fill:#A5B2BD;}
	.st1{fill:#3197D6;}
	.st2{fill:none;stroke:#727F8E;stroke-width:2;stroke-linecap:round;stroke-linejoin:round;stroke-miterlimit:10;}
	.st3{fill:#000102;}
	.st4{fill:#727F8E;}
	.st5{fill:none;stroke:#727F8E;stroke-width:2;stroke-linejoin:round;stroke-miterlimit:10;}
</style>
<g>
	<circle cx="18" cy="12" r="2"/>
	<circle cx="12" cy="12" r="2"/>
	<circle cx="6" cy="12" r="2"/>
	<path d="M21,6H3C1.3,6,0,7.3,0,9v6c0,1.7,1.3,3,3,3h18c1.7,0,3-1.3,3-3V9C24,7.3,22.7,6,21,6z M22,15c0,0.6-0.4,1-1,1H3
		c-0.6,0-1-0.4-1-1V9c0-0.6,0.4-1,1-1h18c0.6,0,1,0.4,1,1V15z"/>
</g>
</svg>
