<?xml version="1.0" encoding="utf-8"?>
<!-- Generator: Adobe Illustrator 20.0.0, SVG Export Plug-In . SVG Version: 6.00 Build 0)  -->
<!DOCTYPE svg PUBLIC "-//W3C//DTD SVG 1.1//EN" "http://www.w3.org/Graphics/SVG/1.1/DTD/svg11.dtd">
<svg version="1.1" id="Layer_1" xmlns="http://www.w3.org/2000/svg" xmlns:xlink="http://www.w3.org/1999/xlink" x="0px" y="0px"
	 viewBox="0 0 24 24" style="enable-background:new 0 0 24 24;" xml:space="preserve">
<style type="text/css">
	.st0{fill:#A5B2BD;}
	.st1{fill:#3197D6;}
</style>
<path d="M18,9h-8C9.4,9,9,8.6,9,8s0.4-1,1-1h8c0.6,0,1,0.4,1,1S18.6,9,18,9z"/>
<path d="M18,13h-8c-0.6,0-1-0.4-1-1s0.4-1,1-1h8c0.6,0,1,0.4,1,1S18.6,13,18,13z"/>
<path d="M18,17h-8c-0.6,0-1-0.4-1-1s0.4-1,1-1h8c0.6,0,1,0.4,1,1S18.6,17,18,17z"/>
<path d="M6,17c-0.3,0-0.5-0.1-0.7-0.3C5.1,16.5,5,16.3,5,16s0.1-0.5,0.3-0.7c0.4-0.4,1-0.4,1.4,0C6.9,15.5,7,15.7,7,16
	c0,0.3-0.1,0.5-0.3,0.7C6.5,16.9,6.3,17,6,17z"/>
<path d="M6,13c-0.3,0-0.5-0.1-0.7-0.3C5.1,12.5,5,12.3,5,12s0.1-0.5,0.3-0.7c0.4-0.4,1-0.4,1.4,0C6.9,11.5,7,11.7,7,12
	s-0.1,0.5-0.3,0.7C6.5,12.9,6.3,13,6,13z"/>
<path d="M6,9C5.7,9,5.5,8.9,5.3,8.7C5.1,8.5,5,8.3,5,8s0.1-0.5,0.3-0.7c0.4-0.4,1-0.4,1.4,0C6.9,7.5,7,7.7,7,8S6.9,8.5,6.7,8.7
	C6.5,8.9,6.3,9,6,9z"/>
</svg>
