<?xml version="1.0" encoding="utf-8"?>
<!-- Generator: Adobe Illustrator 20.0.0, SVG Export Plug-In . SVG Version: 6.00 Build 0)  -->
<!DOCTYPE svg PUBLIC "-//W3C//DTD SVG 1.1//EN" "http://www.w3.org/Graphics/SVG/1.1/DTD/svg11.dtd">
<svg version="1.1" id="Layer_1" xmlns="http://www.w3.org/2000/svg" xmlns:xlink="http://www.w3.org/1999/xlink" x="0px" y="0px"
	 viewBox="0 0 24 24" style="enable-background:new 0 0 24 24;" xml:space="preserve">
<style type="text/css">
	.st0{fill:#A5B2BD;}
	.st1{fill:#3197D6;}
</style>
<g>
	<path d="M7,18V6h4.5c2.5,0,4,1,4,3c0,1.4-0.9,2.3-2.1,2.6v0c1.5,0.3,2.6,1.3,2.6,2.9c0,2.5-1.9,3.5-4.5,3.5H7z M11.3,11
		c1.2,0,2.1-0.5,2.1-1.7c0-1.1-0.8-1.7-2-1.7H8.8V11H11.3z M11.4,16.4c1.5,0,2.4-0.5,2.4-2c0-1.3-0.9-1.9-2.5-1.9H8.8v3.9H11.4z"/>
</g>
</svg>
