<?xml version="1.0" encoding="utf-8"?>
<!-- Generator: Adobe Illustrator 20.0.0, SVG Export Plug-In . SVG Version: 6.00 Build 0)  -->
<!DOCTYPE svg PUBLIC "-//W3C//DTD SVG 1.1//EN" "http://www.w3.org/Graphics/SVG/1.1/DTD/svg11.dtd">
<svg version="1.1" id="Layer_1" xmlns="http://www.w3.org/2000/svg" xmlns:xlink="http://www.w3.org/1999/xlink" x="0px" y="0px"
	 viewBox="0 0 24 24" style="enable-background:new 0 0 24 24;" xml:space="preserve">
<style type="text/css">
	.st0{fill:#A5B2BD;}
	.st1{fill:#3197D6;}
	.st2{fill:#010101;}
</style>
<g>
	<g>
		<path d="M5.2,13.6l5.6-5.6c0,0,0,0,0,0C11.5,7.2,12,6.2,12,5.1C12,4,11.5,3,10.8,2.3L5.2,7.9c0,0,0,0,0,0C4.5,8.7,4,9.7,4,10.8
			C4,11.9,4.4,12.9,5.2,13.6z"/>
	</g>
	<g>
		<path d="M18.8,10.3l-5.6,5.6c0,0,0,0,0,0c-0.7,0.7-1.2,1.7-1.2,2.8c0,1.1,0.4,2.1,1.2,2.8l5.6-5.6c0,0,0,0,0,0
			c0.7-0.7,1.2-1.7,1.2-2.8C20,12,19.5,11,18.8,10.3z"/>
	</g>
	<g>
		<path d="M14.8,12l4-4c0,0,0,0,0,0C19.5,7.2,20,6.2,20,5.1C20,4,19.5,3,18.8,2.3l-4,4l-1.6,1.6l-2.3,2.3L9.2,12l-4,4c0,0,0,0,0,0
			C4.5,16.7,4,17.7,4,18.8c0,1.1,0.4,2.1,1.2,2.8l4-4l1.7-1.7l2.3-2.3L14.8,12z"/>
	</g>
</g>
</svg>
