<?xml version="1.0" encoding="utf-8"?>
<!-- Generator: Adobe Illustrator 20.0.0, SVG Export Plug-In . SVG Version: 6.00 Build 0)  -->
<!DOCTYPE svg PUBLIC "-//W3C//DTD SVG 1.1//EN" "http://www.w3.org/Graphics/SVG/1.1/DTD/svg11.dtd">
<svg version="1.1" id="Layer_1" xmlns="http://www.w3.org/2000/svg" xmlns:xlink="http://www.w3.org/1999/xlink" x="0px" y="0px"
	 viewBox="0 0 24 24" style="enable-background:new 0 0 24 24;" xml:space="preserve">
<style type="text/css">
	.st0{fill:#A5B2BD;}
	.st1{fill:#3197D6;}
	.st2{fill:#010101;}
</style>
<g>
	<path d="M8.7,7.3c-0.4-0.4-1-0.4-1.4,0l-4,4c-0.4,0.4-0.4,1,0,1.4l4,4C7.5,16.9,7.7,17,8,17s0.5-0.1,0.7-0.3c0.4-0.4,0.4-1,0-1.4
		L5.4,12l3.3-3.3C9.1,8.3,9.1,7.7,8.7,7.3z"/>
	<path d="M20.7,11.3l-4-4c-0.4-0.4-1-0.4-1.4,0s-0.4,1,0,1.4l3.3,3.3l-3.3,3.3c-0.4,0.4-0.4,1,0,1.4c0.2,0.2,0.5,0.3,0.7,0.3
		s0.5-0.1,0.7-0.3l4-4C21.1,12.3,21.1,11.7,20.7,11.3z"/>
	<path d="M13.1,4c-0.5-0.1-1.1,0.3-1.1,0.8l-2,14c-0.1,0.5,0.3,1.1,0.8,1.1c0,0,0.1,0,0.1,0c0.5,0,0.9-0.4,1-0.9l2-14
		C14.1,4.6,13.7,4.1,13.1,4z"/>
</g>
</svg>
