<?xml version="1.0" encoding="utf-8"?>
<!-- Generator: Adobe Illustrator 20.0.0, SVG Export Plug-In . SVG Version: 6.00 Build 0)  -->
<!DOCTYPE svg PUBLIC "-//W3C//DTD SVG 1.1//EN" "http://www.w3.org/Graphics/SVG/1.1/DTD/svg11.dtd">
<svg version="1.1" id="Layer_1" xmlns="http://www.w3.org/2000/svg" xmlns:xlink="http://www.w3.org/1999/xlink" x="0px" y="0px"
	 viewBox="0 0 24 24" style="enable-background:new 0 0 24 24;" xml:space="preserve">
<style type="text/css">
	.st0{fill:#A5B2BD;}
	.st1{fill:#3197D6;}
	.st2{fill:none;stroke:#727F8E;stroke-width:2;stroke-linecap:round;stroke-linejoin:round;stroke-miterlimit:10;}
	.st3{fill:#000102;}
	.st4{fill:#727F8E;}
	.st5{fill:none;stroke:#727F8E;stroke-width:2;stroke-linejoin:round;stroke-miterlimit:10;}
</style>
<g>
	<path d="M13.8,10.3c-0.5-0.2-1.1,0-1.3,0.5s0,1.1,0.5,1.3c0.2,0.1,0.4,0.2,0.6,0.4c0.4,0.4,0.6,0.9,0.6,1.4c0,0.5-0.2,1-0.6,1.4
		l-2.1,2.1c-0.8,0.8-2.1,0.8-2.8,0C8.2,17,8,16.5,8,16s0.2-1,0.6-1.4c0.4-0.4,0.4-1,0-1.4s-1-0.4-1.4,0C6.4,13.9,6,14.9,6,16
		s0.4,2.1,1.2,2.8C7.9,19.6,8.9,20,10,20s2.1-0.4,2.8-1.2l2.1-2.1c0.8-0.8,1.2-1.8,1.2-2.8c0-1.1-0.4-2.1-1.2-2.8
		C14.6,10.7,14.3,10.5,13.8,10.3z"/>
	<path d="M17.8,5.4c-1.6-1.6-4.1-1.6-5.7,0L10,7.5c-0.8,0.8-1.2,1.8-1.2,2.8s0.4,2.1,1.2,2.8c0.3,0.3,0.7,0.6,1.1,0.8
		c0.1,0.1,0.3,0.1,0.4,0.1c0.4,0,0.7-0.2,0.9-0.6c0.2-0.5,0-1.1-0.5-1.3c-0.2-0.1-0.4-0.2-0.6-0.4c-0.4-0.4-0.6-0.9-0.6-1.4
		s0.2-1,0.6-1.4l2.1-2.1c0.8-0.8,2-0.8,2.8,0c0.8,0.8,0.8,2,0,2.8c-0.4,0.4-0.4,1,0,1.4c0.4,0.4,1,0.4,1.4,0
		C19.3,9.5,19.3,7,17.8,5.4z"/>
</g>
</svg>
