<?xml version="1.0" encoding="utf-8"?>
<!-- Generator: Adobe Illustrator 20.0.0, SVG Export Plug-In . SVG Version: 6.00 Build 0)  -->
<!DOCTYPE svg PUBLIC "-//W3C//DTD SVG 1.1//EN" "http://www.w3.org/Graphics/SVG/1.1/DTD/svg11.dtd">
<svg version="1.1" id="Layer_1" xmlns="http://www.w3.org/2000/svg" xmlns:xlink="http://www.w3.org/1999/xlink" x="0px" y="0px"
	 viewBox="0 0 24 24" style="enable-background:new 0 0 24 24;" xml:space="preserve">
<style type="text/css">
	.st0{fill:#A5B2BD;}
	.st1{fill:#3197D6;}
</style>
<g>
	<path d="M8.1,12.3c0.5-0.3,0.6-0.9,0.4-1.4s-0.9-0.6-1.4-0.4c-1.9,1.1-2.5,3.6-1.4,5.5c0.7,1.3,2.1,2,3.5,2c0.7,0,1.4-0.2,2-0.6
		l2.6-1.5c1.9-1.1,2.5-3.6,1.4-5.5c-0.2-0.4-0.5-0.7-0.9-1c-0.4-0.4-1.1-0.3-1.4,0.1c-0.4,0.4-0.3,1.1,0.1,1.4
		c0.2,0.1,0.3,0.3,0.4,0.5c0.6,0.9,0.2,2.2-0.7,2.7l-2.6,1.5C9.2,16.3,7.9,16,7.4,15C6.8,14.1,7.1,12.8,8.1,12.3z"/>
	<path d="M16.9,9.4c-0.5,0.3-0.6,0.9-0.4,1.4c0.3,0.5,0.9,0.6,1.4,0.4c0.9-0.5,1.6-1.4,1.8-2.4c0.3-1,0.1-2.1-0.4-3
		c-1.1-1.9-3.6-2.5-5.5-1.4l-2.6,1.5c-0.9,0.5-1.6,1.4-1.8,2.4s-0.1,2.1,0.4,3c0.2,0.4,0.5,0.7,0.9,1c0.2,0.2,0.4,0.2,0.6,0.2
		c0.3,0,0.6-0.1,0.8-0.4c0.4-0.4,0.3-1.1-0.1-1.4c-0.2-0.1-0.3-0.3-0.4-0.5c-0.3-0.5-0.3-1-0.2-1.5c0.1-0.5,0.5-1,0.9-1.2L14.8,6
		c0.9-0.6,2.2-0.2,2.7,0.7c0.3,0.5,0.3,1,0.2,1.5C17.6,8.7,17.3,9.2,16.9,9.4z"/>
</g>
</svg>
