<?xml version="1.0" encoding="utf-8"?>
<!-- Generator: Adobe Illustrator 20.0.0, SVG Export Plug-In . SVG Version: 6.00 Build 0)  -->
<!DOCTYPE svg PUBLIC "-//W3C//DTD SVG 1.1//EN" "http://www.w3.org/Graphics/SVG/1.1/DTD/svg11.dtd">
<svg version="1.1" id="Layer_1" xmlns="http://www.w3.org/2000/svg" xmlns:xlink="http://www.w3.org/1999/xlink" x="0px" y="0px"
	 viewBox="0 0 24 24" style="enable-background:new 0 0 24 24;" xml:space="preserve">
<style type="text/css">
	.st0{fill:#A5B2BD;}
	.st1{fill:#3197D6;}
	.st2{fill:#010101;}
</style>
<path d="M17,6H7C5.3,6,4,7.3,4,9v8c0,1.7,1.3,3,3,3h10c1.7,0,3-1.3,3-3V9C20,7.3,18.7,6,17,6z M7,8h10c0.6,0,1,0.4,1,1v5.6l-2.3-2.3
	c-0.4-0.4-1-0.4-1.4,0L13,13.6l-3.3-3.3c-0.4-0.4-1-0.4-1.4,0L6,12.6V9C6,8.4,6.4,8,7,8z M17,18H7c-0.6,0-1-0.4-1-1v-1.6l3-3
	l3.3,3.3c0.4,0.4,1,0.4,1.4,0l1.3-1.3l2.9,2.9C17.8,17.7,17.4,18,17,18z"/>
</svg>
