<?xml version="1.0" encoding="utf-8"?>
<!-- Generator: Adobe Illustrator 20.0.0, SVG Export Plug-In . SVG Version: 6.00 Build 0)  -->
<!DOCTYPE svg PUBLIC "-//W3C//DTD SVG 1.1//EN" "http://www.w3.org/Graphics/SVG/1.1/DTD/svg11.dtd">
<svg version="1.1" id="Layer_1" xmlns="http://www.w3.org/2000/svg" xmlns:xlink="http://www.w3.org/1999/xlink" x="0px" y="0px"
	 viewBox="0 0 24 24" style="enable-background:new 0 0 24 24;" xml:space="preserve">
<style type="text/css">
	.st0{fill:#A5B2BD;}
	.st1{fill:#3197D6;}
	.st2{fill:none;stroke:#727F8E;stroke-width:2;stroke-linecap:round;stroke-linejoin:round;stroke-miterlimit:10;}
	.st3{fill:#000102;}
	.st4{fill:#727F8E;}
	.st5{fill:none;stroke:#727F8E;stroke-width:2;stroke-linejoin:round;stroke-miterlimit:10;}
</style>
<g>
	<path d="M21,6h-2V4c0-0.6-0.4-1-1-1s-1,0.4-1,1v2h-2c-0.6,0-1,0.4-1,1s0.4,1,1,1h2v2c0,0.6,0.4,1,1,1s1-0.4,1-1V8h2
		c0.6,0,1-0.4,1-1S21.6,6,21,6z"/>
	<path d="M18,12.9c-0.6,0-1,0.4-1,1v1.7l-2.3-2.3c-0.4-0.4-1-0.4-1.4,0L12,14.6l-4.3-4.3c-0.4-0.4-1-0.4-1.4,0L4,12.6V9
		c0-0.6,0.4-1,1-1h6c0.6,0,1-0.4,1-1s-0.4-1-1-1H5C3.3,6,2,7.3,2,9v9c0,1.7,1.3,3,3,3h11c1.7,0,3-1.3,3-3v-4.1
		C19,13.4,18.6,12.9,18,12.9z M16,19H5c-0.6,0-1-0.4-1-1v-2.6l3-3l4.3,4.3c0.4,0.4,1,0.4,1.4,0l1.3-1.3l2.9,2.9
		C16.8,18.7,16.4,19,16,19z"/>
</g>
</svg>
