<?xml version="1.0" encoding="utf-8"?>
<!-- Generator: Adobe Illustrator 20.0.0, SVG Export Plug-In . SVG Version: 6.00 Build 0)  -->
<!DOCTYPE svg PUBLIC "-//W3C//DTD SVG 1.1//EN" "http://www.w3.org/Graphics/SVG/1.1/DTD/svg11.dtd">
<svg version="1.1" id="Layer_1" xmlns="http://www.w3.org/2000/svg" xmlns:xlink="http://www.w3.org/1999/xlink" x="0px" y="0px"
	 viewBox="0 0 24 24" style="enable-background:new 0 0 24 24;" xml:space="preserve">
<style type="text/css">
	.st0{fill:#A5B2BD;}
	.st1{fill:#3197D6;}
	.st2{fill:#010101;}
</style>
<path d="M21,4h-2V2c0-0.6-0.4-1-1-1s-1,0.4-1,1v2h-2c-0.6,0-1,0.4-1,1s0.4,1,1,1h2v2c0,0.6,0.4,1,1,1s1-0.4,1-1V6h2c0.6,0,1-0.4,1-1
	S21.6,4,21,4z"/>
<path d="M18,10.9c-0.6,0-1,0.4-1,1v1.7l-3.3-3.3c-0.4-0.4-1-0.4-1.4,0L11,11.6L7.7,8.3c-0.4-0.4-1-0.4-1.4,0L4,10.6V7
	c0-0.6,0.4-1,1-1h6c0.6,0,1-0.4,1-1s-0.4-1-1-1H5C3.3,4,2,5.3,2,7v8c0,1.7,1.3,3,3,3h11c1.7,0,3-1.3,3-3v-3.1
	C19,11.4,18.6,10.9,18,10.9z M5,16c-0.6,0-1-0.4-1-1v-1.6l3-3l3.3,3.3c0.4,0.4,1,0.4,1.4,0l1.3-1.3l3.3,3.3c0.1,0.1,0.1,0.1,0.2,0.1
	C16.4,15.9,16.2,16,16,16H5z"/>
</svg>
