<?xml version="1.0" encoding="utf-8"?>
<!-- Generator: Adobe Illustrator 20.0.0, SVG Export Plug-In . SVG Version: 6.00 Build 0)  -->
<!DOCTYPE svg PUBLIC "-//W3C//DTD SVG 1.1//EN" "http://www.w3.org/Graphics/SVG/1.1/DTD/svg11.dtd">
<svg version="1.1" id="Layer_1" xmlns="http://www.w3.org/2000/svg" xmlns:xlink="http://www.w3.org/1999/xlink" x="0px" y="0px"
	 viewBox="0 0 24 24" style="enable-background:new 0 0 24 24;" xml:space="preserve">
<style type="text/css">
	.st0{fill:#A5B2BD;}
	.st1{fill:#3197D6;}
	.st2{fill:none;stroke:#727F8E;stroke-width:2;stroke-linecap:round;stroke-linejoin:round;stroke-miterlimit:10;}
	.st3{fill:#000102;}
	.st4{fill:#727F8E;}
	.st5{fill:none;stroke:#727F8E;stroke-width:2;stroke-linejoin:round;stroke-miterlimit:10;}
</style>
<g>
	<path d="M9,8h10c0.6,0,1-0.4,1-1s-0.4-1-1-1H9C8.4,6,8,6.4,8,7S8.4,8,9,8z"/>
	<path d="M19,11H9c-0.6,0-1,0.4-1,1s0.4,1,1,1h10c0.6,0,1-0.4,1-1S19.6,11,19,11z"/>
	<path d="M19,16H9c-0.6,0-1,0.4-1,1s0.4,1,1,1h10c0.6,0,1-0.4,1-1S19.6,16,19,16z"/>
	<path d="M4.3,16.3c-0.1,0.1-0.2,0.2-0.2,0.3C4,16.7,4,16.9,4,17c0,0.3,0.1,0.5,0.3,0.7C4.5,17.9,4.7,18,5,18s0.5-0.1,0.7-0.3
		C5.9,17.5,6,17.3,6,17c0-0.3-0.1-0.5-0.3-0.7C5.3,15.9,4.7,15.9,4.3,16.3z"/>
	<path d="M5.4,11.1C5,10.9,4.6,11,4.3,11.3c-0.1,0.1-0.2,0.2-0.2,0.3C4,11.7,4,11.9,4,12c0,0.3,0.1,0.5,0.3,0.7
		C4.5,12.9,4.7,13,5,13c0.1,0,0.3,0,0.4-0.1s0.2-0.1,0.3-0.2C5.9,12.5,6,12.3,6,12c0-0.3-0.1-0.5-0.3-0.7
		C5.6,11.2,5.5,11.1,5.4,11.1z"/>
	<path d="M4.3,6.3C4.1,6.5,4,6.7,4,7c0,0.3,0.1,0.5,0.3,0.7C4.5,7.9,4.7,8,5,8s0.5-0.1,0.7-0.3C5.9,7.5,6,7.3,6,7
		c0-0.3-0.1-0.5-0.3-0.7C5.3,5.9,4.7,5.9,4.3,6.3z"/>
</g>
</svg>
