<?xml version="1.0" encoding="utf-8"?>
<!-- Generator: Adobe Illustrator 20.0.0, SVG Export Plug-In . SVG Version: 6.00 Build 0)  -->
<!DOCTYPE svg PUBLIC "-//W3C//DTD SVG 1.1//EN" "http://www.w3.org/Graphics/SVG/1.1/DTD/svg11.dtd">
<svg version="1.1" id="Layer_1" xmlns="http://www.w3.org/2000/svg" xmlns:xlink="http://www.w3.org/1999/xlink" x="0px" y="0px"
	 viewBox="0 0 24 24" style="enable-background:new 0 0 24 24;" xml:space="preserve">
<style type="text/css">
	.st0{fill:#A5B2BD;}
	.st1{fill:#3197D6;}
	.st2{fill:#010101;}
</style>
<g>
	<path d="M10,8h8c0.6,0,1-0.4,1-1s-0.4-1-1-1h-8C9.4,6,9,6.4,9,7S9.4,8,10,8z"/>
	<path d="M18,11h-8c-0.6,0-1,0.4-1,1s0.4,1,1,1h8c0.6,0,1-0.4,1-1S18.6,11,18,11z"/>
	<path d="M18,16h-8c-0.6,0-1,0.4-1,1s0.4,1,1,1h8c0.6,0,1-0.4,1-1S18.6,16,18,16z"/>
	<path d="M5.3,16.3c-0.1,0.1-0.2,0.2-0.2,0.3C5,16.7,5,16.9,5,17c0,0.3,0.1,0.5,0.3,0.7C5.5,17.9,5.7,18,6,18s0.5-0.1,0.7-0.3
		C6.9,17.5,7,17.3,7,17c0-0.3-0.1-0.5-0.3-0.7C6.3,15.9,5.7,15.9,5.3,16.3z"/>
	<path d="M6.7,11.3C6.4,11,6,10.9,5.6,11.1c-0.1,0-0.2,0.1-0.3,0.2C5.1,11.5,5,11.7,5,12c0,0.3,0.1,0.5,0.3,0.7
		c0.1,0.1,0.2,0.2,0.3,0.2C5.7,13,5.9,13,6,13c0.3,0,0.5-0.1,0.7-0.3C6.9,12.5,7,12.3,7,12c0-0.1,0-0.3-0.1-0.4
		C6.9,11.5,6.8,11.4,6.7,11.3z"/>
	<path d="M6.6,6.2c-0.1,0-0.1-0.1-0.2-0.1C6.3,6,6.3,6,6.2,6C5.9,6,5.5,6.1,5.3,6.3C5.1,6.5,5,6.7,5,7c0,0.3,0.1,0.5,0.3,0.7
		c0.1,0.1,0.2,0.2,0.3,0.2C5.7,8,5.9,8,6,8c0.3,0,0.5-0.1,0.7-0.3c0.1-0.1,0.2-0.2,0.2-0.3C7,7.3,7,7.1,7,7c0-0.3-0.1-0.5-0.3-0.7
		C6.7,6.2,6.6,6.2,6.6,6.2z"/>
</g>
</svg>
