<?xml version="1.0" encoding="utf-8"?>
<!-- Generator: Adobe Illustrator 20.0.0, SVG Export Plug-In . SVG Version: 6.00 Build 0)  -->
<!DOCTYPE svg PUBLIC "-//W3C//DTD SVG 1.1//EN" "http://www.w3.org/Graphics/SVG/1.1/DTD/svg11.dtd">
<svg version="1.1" id="Layer_1" xmlns="http://www.w3.org/2000/svg" xmlns:xlink="http://www.w3.org/1999/xlink" x="0px" y="0px"
	 viewBox="0 0 24 24" style="enable-background:new 0 0 24 24;" xml:space="preserve">
<style type="text/css">
	.st0{fill:#A5B2BD;}
	.st1{fill:#3197D6;}
	.st2{fill:#010101;}
</style>
<path d="M17,10.2V8c0-2.8-2.2-5-5-5S7,5.2,7,8v2.2c-1.2,0.4-2,1.5-2,2.8v5c0,1.7,1.3,3,3,3h8c1.7,0,3-1.3,3-3v-5
	C19,11.7,18.2,10.6,17,10.2z M9,8c0-1.7,1.3-3,3-3s3,1.3,3,3v2H9V8z M17,18c0,0.6-0.4,1-1,1H8c-0.6,0-1-0.4-1-1v-5c0-0.6,0.4-1,1-1
	h8c0.6,0,1,0.4,1,1V18z"/>
</svg>
