<?xml version="1.0" encoding="utf-8"?>
<!-- Generator: Adobe Illustrator 20.0.0, SVG Export Plug-In . SVG Version: 6.00 Build 0)  -->
<!DOCTYPE svg PUBLIC "-//W3C//DTD SVG 1.1//EN" "http://www.w3.org/Graphics/SVG/1.1/DTD/svg11.dtd">
<svg version="1.1" id="Layer_1" xmlns="http://www.w3.org/2000/svg" xmlns:xlink="http://www.w3.org/1999/xlink" x="0px" y="0px"
	 viewBox="0 0 24 24" style="enable-background:new 0 0 24 24;" xml:space="preserve">
<style type="text/css">
	.st0{fill:#A5B2BD;}
	.st1{fill:#3197D6;}
	.st2{fill:#010101;}
</style>
<path class="st2" d="M21,13.9C21,13.9,21,13.8,21,13.9L19,3.8C18.9,3.3,18.5,3,18,3H6C5.5,3,5.1,3.3,5,3.8l-2,10c0,0,0,0.1,0,0.1
	c0,0,0,0.1,0,0.1v4c0,1.7,1.3,3,3,3h12c1.7,0,3-1.3,3-3L21,13.9C21,14,21,13.9,21,13.9z M6.8,5h10.4l1.6,8H16
	c-0.3,0-0.5,0.1-0.7,0.3L13.6,15h-3.2l-1.7-1.7C8.5,13.1,8.3,13,8,13H5.2L6.8,5z M19,18c0,0.6-0.4,1-1,1H6c-0.6,0-1-0.4-1-1v-3h2.6
	l1.7,1.7C9.5,16.9,9.7,17,10,17h4c0.3,0,0.5-0.1,0.7-0.3l1.7-1.7H19V18z"/>
</svg>
