<?xml version="1.0" encoding="utf-8"?>
<!-- Generator: Adobe Illustrator 20.0.0, SVG Export Plug-In . SVG Version: 6.00 Build 0)  -->
<!DOCTYPE svg PUBLIC "-//W3C//DTD SVG 1.1//EN" "http://www.w3.org/Graphics/SVG/1.1/DTD/svg11.dtd">
<svg version="1.1" id="Layer_1" xmlns="http://www.w3.org/2000/svg" xmlns:xlink="http://www.w3.org/1999/xlink" x="0px" y="0px"
	 viewBox="0 0 24 24" style="enable-background:new 0 0 24 24;" xml:space="preserve">
<style type="text/css">
	.st0{fill:#A5B2BD;}
	.st1{fill:#3197D6;}
	.st2{fill:none;stroke:#727F8E;stroke-width:2;stroke-linecap:round;stroke-linejoin:round;stroke-miterlimit:10;}
	.st3{fill:#000102;}
	.st4{fill:#727F8E;}
	.st5{fill:none;stroke:#727F8E;stroke-width:2;stroke-linejoin:round;stroke-miterlimit:10;}
</style>
<path d="M20,7.6l-1-0.9V6c0-1.7-1.3-3-3-3H8C6.3,3,5,4.4,5,6v0.8L4,7.6C3.4,8.2,3,9,3,9.9V18c0,1.7,1.3,3,3,3h12c1.7,0,3-1.3,3-3
	V9.9C21,9,20.6,8.2,20,7.6z M5,11.1l3.4,3L5,17.6V11.1z M9.9,15.5L9.9,15.5c0.7,0.6,1.4,0.8,2.1,0.8c0.7,0,1.4-0.3,2-0.8l0.1-0.1
	l3.5,3.5H6.4L9.9,15.5z M19,11.1v6.5l-3.4-3.4L19,11.1z M7,6c0-0.6,0.4-1,1-1h8c0.6,0,1,0.4,1,1v4c0,0.1,0,0.1,0,0.2l-4.4,3.9
	c-0.4,0.3-0.9,0.3-1.3,0L7,10.2c0-0.1,0-0.1,0-0.2V6z"/>
</svg>
