<?xml version="1.0" encoding="utf-8"?>
<!-- Generator: Adobe Illustrator 20.0.0, SVG Export Plug-In . SVG Version: 6.00 Build 0)  -->
<!DOCTYPE svg PUBLIC "-//W3C//DTD SVG 1.1//EN" "http://www.w3.org/Graphics/SVG/1.1/DTD/svg11.dtd">
<svg version="1.1" id="Layer_1" xmlns="http://www.w3.org/2000/svg" xmlns:xlink="http://www.w3.org/1999/xlink" x="0px" y="0px"
	 viewBox="0 0 24 24" style="enable-background:new 0 0 24 24;" xml:space="preserve">
<style type="text/css">
	.st0{fill:#A5B2BD;}
	.st1{fill:#3197D6;}
	.st2{fill:none;stroke:#727F8E;stroke-width:2;stroke-linecap:round;stroke-linejoin:round;stroke-miterlimit:10;}
	.st3{fill:#000102;}
	.st4{fill:#727F8E;}
	.st5{fill:none;stroke:#727F8E;stroke-width:2;stroke-linejoin:round;stroke-miterlimit:10;}
</style>
<g>
	<path d="M21,13.8c0-0.1,0-0.1,0-0.2l-1-3c-0.2-0.5-0.7-0.8-1.3-0.6c-0.5,0.2-0.8,0.7-0.6,1.3l0.6,1.7H16c-0.3,0-0.5,0.1-0.7,0.3
		L13.6,15h-3.2l-1.7-1.7C8.5,13.1,8.3,13,8,13H5.4l2.3-7.2C7.8,5.3,8.2,5,8.6,5h1.5c0.6,0,1-0.4,1-1s-0.4-1-1-1H8.6
		C7.2,3,6,3.9,5.7,5.2L3,13.7c0,0,0,0.1,0,0.1c0,0.1,0,0.1,0,0.2v4c0,1.7,1.3,3,3,3h12c1.7,0,3-1.3,3-3v-4C21,13.9,21,13.9,21,13.8z
		 M19,18c0,0.6-0.4,1-1,1H6c-0.6,0-1-0.4-1-1v-3h2.6l1.7,1.7C9.5,16.9,9.7,17,10,17h4c0.3,0,0.5-0.1,0.7-0.3l1.7-1.7H19V18z"/>
	<path d="M14.1,5h1.6l-5.2,5.2c-0.4,0.4-0.4,1,0,1.4c0.2,0.2,0.5,0.3,0.7,0.3s0.5-0.1,0.7-0.3l5.2-5.2V8c0,0.6,0.4,1,1,1s1-0.4,1-1
		V4c0-0.1,0-0.3-0.1-0.4c-0.1-0.2-0.3-0.4-0.5-0.5C18.3,3,18.2,3,18.1,3h-4c-0.6,0-1,0.4-1,1S13.5,5,14.1,5z"/>
</g>
</svg>
