<?xml version="1.0" encoding="utf-8"?>
<!-- Generator: Adobe Illustrator 20.0.0, SVG Export Plug-In . SVG Version: 6.00 Build 0)  -->
<!DOCTYPE svg PUBLIC "-//W3C//DTD SVG 1.1//EN" "http://www.w3.org/Graphics/SVG/1.1/DTD/svg11.dtd">
<svg version="1.1" id="Layer_1" xmlns="http://www.w3.org/2000/svg" xmlns:xlink="http://www.w3.org/1999/xlink" x="0px" y="0px"
	 viewBox="0 0 24 24" style="enable-background:new 0 0 24 24;" xml:space="preserve">
<style type="text/css">
	.st0{fill:#A5B2BD;}
	.st1{fill:#3197D6;}
	.st2{fill:none;stroke:#727F8E;stroke-width:2;stroke-linecap:round;stroke-linejoin:round;stroke-miterlimit:10;}
	.st3{fill:#000102;}
	.st4{fill:#727F8E;}
	.st5{fill:none;stroke:#727F8E;stroke-width:2;stroke-linejoin:round;stroke-miterlimit:10;}
</style>
<path d="M21,8.7l-1-0.9V7c0-1.1-0.9-2-2-2h-1.1l-2.2-2c-1.5-1.3-3.8-1.3-5.3,0L7.1,5H6C4.9,5,4,5.9,4,7v0.8L3,8.7
	C2.4,9.2,2,10,2,10.9V19c0,1.7,1.3,3,3,3h14c1.7,0,3-1.3,3-3v-8.1C22,10,21.6,9.2,21,8.7z M4,12l3.7,2.9L4,18.6V12z M9.3,16.1
	l2.1,1.6c0.2,0.1,0.4,0.2,0.6,0.2s0.4-0.1,0.6-0.2l2.1-1.6l3.9,3.9H5.4L9.3,16.1z M16.3,14.9L20,12v6.5L16.3,14.9z M10.7,4.5
	c0.8-0.7,1.9-0.7,2.7,0L13.9,5h-3.7L10.7,4.5z M6,7h12v4c0,0,0,0,0,0.1l-6,4.7l-6-4.7c0,0,0,0,0-0.1V7z"/>
</svg>
