<?xml version="1.0" encoding="utf-8"?>
<!-- Generator: Adobe Illustrator 20.0.0, SVG Export Plug-In . SVG Version: 6.00 Build 0)  -->
<!DOCTYPE svg PUBLIC "-//W3C//DTD SVG 1.1//EN" "http://www.w3.org/Graphics/SVG/1.1/DTD/svg11.dtd">
<svg version="1.1" id="Layer_1" xmlns="http://www.w3.org/2000/svg" xmlns:xlink="http://www.w3.org/1999/xlink" x="0px" y="0px"
	 viewBox="0 0 24 24" style="enable-background:new 0 0 24 24;" xml:space="preserve">
<style type="text/css">
	.st0{fill:#A5B2BD;}
	.st1{fill:#3197D6;}
	.st2{fill:none;stroke:#727F8E;stroke-width:2;stroke-linecap:round;stroke-linejoin:round;stroke-miterlimit:10;}
	.st3{fill:#000102;}
	.st4{fill:#727F8E;}
	.st5{fill:none;stroke:#727F8E;stroke-width:2;stroke-linejoin:round;stroke-miterlimit:10;}
</style>
<path d="M12.5,3c-5,0-9,4-9,9c0,5,4,9,9,9c1.3,0,2.5-0.3,3.6-0.8c0.5-0.2,0.7-0.8,0.5-1.3c-0.2-0.5-0.8-0.7-1.3-0.5
	c-0.9,0.4-1.8,0.6-2.8,0.6c-3.9,0-7-3.1-7-7c0-3.9,3.1-7,7-7c4.1,0,6.5,2.3,6.5,6.2c0,1.3-0.4,2.5-1,3.1c-0.2,0.2-0.5,0.4-0.8,0.3
	c-0.4,0-0.6-0.2-0.8-0.4c-0.6-0.8-0.5-2.7-0.3-3.9l0,0L16.5,9c0.1-0.3-0.2-0.6-0.5-0.6h-1c-0.3,0-0.5,0.2-0.5,0.4l-0.1,0.5h0
	c-0.2-0.7-0.9-1.2-2-1.2c-2.3,0-3.7,2.3-3.7,4.6c0,1.9,1.1,3.3,2.9,3.3c1.4,0,2.3-0.9,2.9-1.7c0.1,0.4,0.3,0.8,0.5,1.1
	c0.5,0.7,1.3,1.1,2.3,1.2c0.8,0,1.6-0.3,2.2-0.9c1-1,1.6-2.6,1.6-4.5C21,6.2,17.7,3,12.5,3z M13.8,11.5l-0.1,0.7
	c-0.2,1.2-1,1.9-1.8,1.9c-0.7,0-1.1-0.6-1.1-1.5c0-1.3,0.6-3.1,2-3.1C13.7,9.6,14,10.5,13.8,11.5z"/>
</svg>
