<?xml version="1.0" encoding="utf-8"?>
<!-- Generator: Adobe Illustrator 20.0.0, SVG Export Plug-In . SVG Version: 6.00 Build 0)  -->
<!DOCTYPE svg PUBLIC "-//W3C//DTD SVG 1.1//EN" "http://www.w3.org/Graphics/SVG/1.1/DTD/svg11.dtd">
<svg version="1.1" id="Layer_1" xmlns="http://www.w3.org/2000/svg" xmlns:xlink="http://www.w3.org/1999/xlink" x="0px" y="0px"
	 viewBox="0 0 24 24" style="enable-background:new 0 0 24 24;" xml:space="preserve">
<style type="text/css">
	.st0{fill:#A5B2BD;}
	.st1{fill:#3197D6;}
	.st2{fill:#010101;}
</style>
<path d="M18.5,18.1C16.3,16.8,15,14.5,15,12s1.3-4.8,3.5-6.1C18.8,5.8,19,5.4,19,5.1s-0.2-0.7-0.5-0.9C17.1,3.4,15.6,3,14,3
	c-5,0-9,4-9,9s4,9,9,9c1.6,0,3.1-0.4,4.5-1.2c0.3-0.2,0.5-0.5,0.5-0.9S18.8,18.2,18.5,18.1z M14,19c-3.9,0-7-3.1-7-7s3.1-7,7-7
	c0.7,0,1.4,0.1,2,0.3C14.1,7,13,9.4,13,12s1.1,5,3,6.7C15.4,18.9,14.7,19,14,19z"/>
</svg>
