<?xml version="1.0" encoding="utf-8"?>
<!-- Generator: Adobe Illustrator 20.0.0, SVG Export Plug-In . SVG Version: 6.00 Build 0)  -->
<!DOCTYPE svg PUBLIC "-//W3C//DTD SVG 1.1//EN" "http://www.w3.org/Graphics/SVG/1.1/DTD/svg11.dtd">
<svg version="1.1" id="Layer_1" xmlns="http://www.w3.org/2000/svg" xmlns:xlink="http://www.w3.org/1999/xlink" x="0px" y="0px"
	 viewBox="0 0 24 24" style="enable-background:new 0 0 24 24;" xml:space="preserve">
<style type="text/css">
	.st0{fill:#A5B2BD;}
	.st1{fill:#3197D6;}
	.st2{fill:none;stroke:#727F8E;stroke-width:2;stroke-linecap:round;stroke-linejoin:round;stroke-miterlimit:10;}
	.st3{fill:#000102;}
	.st4{fill:#727F8E;}
	.st5{fill:none;stroke:#727F8E;stroke-width:2;stroke-linejoin:round;stroke-miterlimit:10;}
</style>
<g>
	<path d="M9,9h6c0.3,0,0.5-0.2,0.5-0.5S15.3,8,15,8H9C8.7,8,8.5,8.2,8.5,8.5S8.7,9,9,9z"/>
	<path d="M15,11H9c-0.3,0-0.5,0.2-0.5,0.5S8.7,12,9,12h6c0.3,0,0.5-0.2,0.5-0.5S15.3,11,15,11z"/>
	<path d="M15,14H9c-0.3,0-0.5,0.2-0.5,0.5S8.7,15,9,15h6c0.3,0,0.5-0.2,0.5-0.5S15.3,14,15,14z"/>
</g>
</svg>
