<?xml version="1.0" encoding="utf-8"?>
<!-- Generator: Adobe Illustrator 20.0.0, SVG Export Plug-In . SVG Version: 6.00 Build 0)  -->
<!DOCTYPE svg PUBLIC "-//W3C//DTD SVG 1.1//EN" "http://www.w3.org/Graphics/SVG/1.1/DTD/svg11.dtd">
<svg version="1.1" id="Layer_1" xmlns="http://www.w3.org/2000/svg" xmlns:xlink="http://www.w3.org/1999/xlink" x="0px" y="0px"
	 viewBox="0 0 24 24" style="enable-background:new 0 0 24 24;" xml:space="preserve">
<style type="text/css">
	.st0{fill:#A5B2BD;}
	.st1{fill:#3197D6;}
	.st2{fill:none;stroke:#727F8E;stroke-width:2;stroke-linecap:round;stroke-linejoin:round;stroke-miterlimit:10;}
	.st3{fill:#000102;}
	.st4{fill:#727F8E;}
	.st5{fill:none;stroke:#727F8E;stroke-width:2;stroke-linejoin:round;stroke-miterlimit:10;}
</style>
<path d="M15,6H9c-2.8,0-5,2.2-5,5v1c0,1.1,0.9,2,2,2v1c0,1.7,1.3,3,3,3h6c1.7,0,3-1.3,3-3v-1c1.1,0,2-0.9,2-2v-1C20,8.2,17.8,6,15,6
	z M16,15c0,0.6-0.4,1-1,1H9c-0.6,0-1-0.4-1-1v-1c1.1,0,2-0.9,2-2h4c0,1.1,0.9,2,2,2V15z M18,12h-1h-1c0-1.1-0.9-2-2-2h-4
	c-1.1,0-2,0.9-2,2H7H6v-1c0-1.7,1.3-3,3-3h6c1.7,0,3,1.3,3,3V12z"/>
</svg>
