<?xml version="1.0" encoding="utf-8"?>
<!-- Generator: Adobe Illustrator 20.0.0, SVG Export Plug-In . SVG Version: 6.00 Build 0)  -->
<!DOCTYPE svg PUBLIC "-//W3C//DTD SVG 1.1//EN" "http://www.w3.org/Graphics/SVG/1.1/DTD/svg11.dtd">
<svg version="1.1" id="Layer_1" xmlns="http://www.w3.org/2000/svg" xmlns:xlink="http://www.w3.org/1999/xlink" x="0px" y="0px"
	 viewBox="0 0 24 24" style="enable-background:new 0 0 24 24;" xml:space="preserve">
<style type="text/css">
	.st0{fill:#A5B2BD;}
	.st1{fill:#3197D6;}
</style>
<g>
	<path d="M3,14c0,3.9,3.1,7,7,7s7-3.1,7-7.1c0-0.6-0.4-1-1-1h-4.9V8c0-0.5-0.4-1-1-1c0,0-0.1,0-0.1,0C6.1,7,3,10.1,3,14z M9.1,9.1
		v4.9c0,0.6,0.4,1,1,1h4.8C14.5,17.2,12.4,19,10,19c-2.8,0-5-2.2-5-5C5,11.6,6.8,9.5,9.1,9.1z"/>
	<path d="M14,3c-0.6,0-1,0.4-1,1v6c0,0.6,0.4,1,1,1h6c0.6,0,1-0.4,1-1C21,6.1,17.9,3,14,3z M15,9V5.1C17,5.5,18.5,7,18.9,9H15z"/>
</g>
</svg>
