<?xml version="1.0" encoding="utf-8"?>
<!-- Generator: Adobe Illustrator 20.0.0, SVG Export Plug-In . SVG Version: 6.00 Build 0)  -->
<!DOCTYPE svg PUBLIC "-//W3C//DTD SVG 1.1//EN" "http://www.w3.org/Graphics/SVG/1.1/DTD/svg11.dtd">
<svg version="1.1" id="Layer_1" xmlns="http://www.w3.org/2000/svg" xmlns:xlink="http://www.w3.org/1999/xlink" x="0px" y="0px"
	 viewBox="0 0 24 24" style="enable-background:new 0 0 24 24;" xml:space="preserve">
<style type="text/css">
	.st0{fill:#A5B2BD;}
	.st1{fill:#3197D6;}
	.st2{fill:#010101;}
</style>
<g>
	<path d="M16.5,4.2c-0.5-0.3-1.1-0.1-1.4,0.4C14.9,5,15,5.7,15.5,5.9C17.7,7.2,19,9.5,19,12c0,3.9-3.1,7-7,7s-7-3.1-7-7
		c0-2.5,1.3-4.8,3.5-6.1C9,5.7,9.1,5,8.9,4.6C8.6,4.1,8,3.9,7.5,4.2C4.7,5.8,3,8.8,3,12c0,5,4,9,9,9s9-4,9-9
		C21,8.8,19.3,5.8,16.5,4.2z"/>
	<path d="M12,11c0.6,0,1-0.4,1-1V4c0-0.6-0.4-1-1-1s-1,0.4-1,1v6C11,10.6,11.4,11,12,11z"/>
</g>
</svg>
