<?xml version="1.0" encoding="utf-8"?>
<!-- Generator: Adobe Illustrator 20.0.0, SVG Export Plug-In . SVG Version: 6.00 Build 0)  -->
<!DOCTYPE svg PUBLIC "-//W3C//DTD SVG 1.1//EN" "http://www.w3.org/Graphics/SVG/1.1/DTD/svg11.dtd">
<svg version="1.1" id="Layer_1" xmlns="http://www.w3.org/2000/svg" xmlns:xlink="http://www.w3.org/1999/xlink" x="0px" y="0px"
	 viewBox="0 0 24 24" style="enable-background:new 0 0 24 24;" xml:space="preserve">
<style type="text/css">
	.st0{fill:#A5B2BD;}
	.st1{fill:#3197D6;}
	.st2{fill:#010101;}
</style>
<path d="M18,7V5c0-1.1-0.9-2-2-2H8C6.9,3,6,3.9,6,5v2c-1.7,0-3,1.3-3,3v4c0,1.7,1.3,3,3,3h1v3c0,0.6,0.4,1,1,1h8c0.6,0,1-0.4,1-1v-3
	h1c1.7,0,3-1.3,3-3v-4C21,8.3,19.7,7,18,7z M8,5h8v2H8V5z M15,19H9v-6h6V19z M19,14c0,0.6-0.4,1-1,1h-1v-3c0-0.6-0.4-1-1-1H8
	c-0.6,0-1,0.4-1,1v3H6c-0.6,0-1-0.4-1-1v-4c0-0.6,0.4-1,1-1h1h10h1c0.6,0,1,0.4,1,1V14z"/>
</svg>
