<?xml version="1.0" encoding="utf-8"?>
<!-- Generator: Adobe Illustrator 20.0.0, SVG Export Plug-In . SVG Version: 6.00 Build 0)  -->
<!DOCTYPE svg PUBLIC "-//W3C//DTD SVG 1.1//EN" "http://www.w3.org/Graphics/SVG/1.1/DTD/svg11.dtd">
<svg version="1.1" id="Layer_1" xmlns="http://www.w3.org/2000/svg" xmlns:xlink="http://www.w3.org/1999/xlink" x="0px" y="0px"
	 viewBox="0 0 24 24" style="enable-background:new 0 0 24 24;" xml:space="preserve">
<style type="text/css">
	.st0{fill:#A5B2BD;}
	.st1{fill:#3197D6;}
	.st2{fill:#010101;}
</style>
<path d="M15,8H6.4l3.3-3.3c0.4-0.4,0.4-1,0-1.4s-1-0.4-1.4,0l-5,5c-0.4,0.4-0.4,1,0,1.4l5,5C8.5,14.9,8.7,15,9,15s0.5-0.1,0.7-0.3
	c0.4-0.4,0.4-1,0-1.4L6.4,10H15c2.2,0,4,1.8,4,4v1c0,2.2-1.8,4-4,4H6c-0.6,0-1,0.4-1,1s0.4,1,1,1h9c3.3,0,6-2.7,6-6v-1
	C21,10.7,18.3,8,15,8z"/>
</svg>
