<?xml version="1.0" encoding="utf-8"?>
<!-- Generator: Adobe Illustrator 20.0.0, SVG Export Plug-In . SVG Version: 6.00 Build 0)  -->
<!DOCTYPE svg PUBLIC "-//W3C//DTD SVG 1.1//EN" "http://www.w3.org/Graphics/SVG/1.1/DTD/svg11.dtd">
<svg version="1.1" id="Layer_1" xmlns="http://www.w3.org/2000/svg" xmlns:xlink="http://www.w3.org/1999/xlink" x="0px" y="0px"
	 viewBox="0 0 24 24" style="enable-background:new 0 0 24 24;" xml:space="preserve">
<style type="text/css">
	.st0{fill:#A5B2BD;}
	.st1{fill:#3197D6;}
	.st2{fill:#010101;}
</style>
<path d="M17,3H8C5.2,3,3,5.2,3,8v3c0,1.3,0.5,2.6,1.5,3.5C5.4,15.5,6.7,16,8,16c0,0,0,0,0,0c0.4,0,0.7,0.1,1,0.4l1.9,1.9
	c0.4,0.4,1,0.6,1.6,0.6s1.1-0.2,1.6-0.6l1.9-1.9c0.3-0.3,0.6-0.4,1-0.4c2.8,0,5-2.2,5-5V8C22,5.2,19.8,3,17,3z M20,11
	c0,1.7-1.3,3-3,3c-0.9,0-1.8,0.4-2.4,1l-1.9,1.9c-0.1,0.1-0.2,0.1-0.3,0L10.4,15c-0.6-0.6-1.5-1-2.4-1c0,0,0,0,0,0
	c-0.8,0-1.6-0.3-2.1-0.9C5.3,12.6,5,11.8,5,11V8c0-1.7,1.3-3,3-3h9c1.7,0,3,1.3,3,3V11z"/>
<circle cx="8.5" cy="10.5" r="1.5"/>
<circle cx="12.5" cy="10.5" r="1.5"/>
<circle cx="16.5" cy="10.5" r="1.5"/>
</svg>
