<?xml version="1.0" encoding="utf-8"?>
<!-- Generator: Adobe Illustrator 20.0.0, SVG Export Plug-In . SVG Version: 6.00 Build 0)  -->
<!DOCTYPE svg PUBLIC "-//W3C//DTD SVG 1.1//EN" "http://www.w3.org/Graphics/SVG/1.1/DTD/svg11.dtd">
<svg version="1.1" id="Layer_1" xmlns="http://www.w3.org/2000/svg" xmlns:xlink="http://www.w3.org/1999/xlink" x="0px" y="0px"
	 viewBox="0 0 24 24" style="enable-background:new 0 0 24 24;" xml:space="preserve">
<style type="text/css">
	.st0{fill:#A5B2BD;}
	.st1{fill:#3197D6;}
	.st2{fill:none;stroke:#727F8E;stroke-width:2;stroke-linecap:round;stroke-linejoin:round;stroke-miterlimit:10;}
	.st3{fill:#000102;}
	.st4{fill:#727F8E;}
	.st5{fill:none;stroke:#727F8E;stroke-width:2;stroke-linejoin:round;stroke-miterlimit:10;}
</style>
<path d="M20.7,19.3L16.5,15c1-1.3,1.5-2.8,1.5-4.5C18,6.4,14.6,3,10.5,3S3,6.4,3,10.5S6.4,18,10.5,18c1.7,0,3.3-0.6,4.5-1.5l4.3,4.3
	c0.2,0.2,0.5,0.3,0.7,0.3s0.5-0.1,0.7-0.3C21.1,20.3,21.1,19.7,20.7,19.3z M10.5,16c-3,0-5.5-2.5-5.5-5.5S7.5,5,10.5,5
	S16,7.5,16,10.5S13.5,16,10.5,16z"/>
</svg>
