<?xml version="1.0" encoding="utf-8"?>
<!-- Generator: Adobe Illustrator 20.0.0, SVG Export Plug-In . SVG Version: 6.00 Build 0)  -->
<!DOCTYPE svg PUBLIC "-//W3C//DTD SVG 1.1//EN" "http://www.w3.org/Graphics/SVG/1.1/DTD/svg11.dtd">
<svg version="1.1" id="Layer_1" xmlns="http://www.w3.org/2000/svg" xmlns:xlink="http://www.w3.org/1999/xlink" x="0px" y="0px"
	 viewBox="0 0 24 24" style="enable-background:new 0 0 24 24;" xml:space="preserve">
<style type="text/css">
	.st0{fill:#A5B2BD;}
	.st1{fill:#3197D6;}
	.st2{fill:#010101;}
</style>
<path d="M19.7,18.3l-4-4c0.8-1.1,1.3-2.4,1.3-3.8C17,6.9,14.1,4,10.5,4S4,6.9,4,10.5S6.9,17,10.5,17c1.4,0,2.8-0.5,3.8-1.3l4,4
	c0.2,0.2,0.5,0.3,0.7,0.3s0.5-0.1,0.7-0.3C20.1,19.3,20.1,18.7,19.7,18.3z M6,10.5C6,8,8,6,10.5,6S15,8,15,10.5S13,15,10.5,15
	S6,13,6,10.5z"/>
</svg>
