<?xml version="1.0" encoding="utf-8"?>
<!-- Generator: Adobe Illustrator 20.0.0, SVG Export Plug-In . SVG Version: 6.00 Build 0)  -->
<!DOCTYPE svg PUBLIC "-//W3C//DTD SVG 1.1//EN" "http://www.w3.org/Graphics/SVG/1.1/DTD/svg11.dtd">
<svg version="1.1" id="Layer_1" xmlns="http://www.w3.org/2000/svg" xmlns:xlink="http://www.w3.org/1999/xlink" x="0px" y="0px"
	 viewBox="0 0 24 24" style="enable-background:new 0 0 24 24;" xml:space="preserve">
<style type="text/css">
	.st0{fill:#A5B2BD;}
	.st1{fill:#3197D6;}
	.st2{fill:#010101;}
</style>
<path d="M18.7,17.3L15,13.6c0.6-0.9,1-2,1-3.1c0-3-2.5-5.5-5.5-5.5S5,7.5,5,10.5S7.5,16,10.5,16c1.2,0,2.2-0.4,3.1-1l3.7,3.7
	c0.2,0.2,0.5,0.3,0.7,0.3s0.5-0.1,0.7-0.3C19.1,18.3,19.1,17.7,18.7,17.3z M10.5,14C8.6,14,7,12.4,7,10.5S8.6,7,10.5,7
	S14,8.6,14,10.5S12.4,14,10.5,14z"/>
</svg>
