<?xml version="1.0" encoding="utf-8"?>
<!-- Generator: Adobe Illustrator 20.0.0, SVG Export Plug-In . SVG Version: 6.00 Build 0)  -->
<!DOCTYPE svg PUBLIC "-//W3C//DTD SVG 1.1//EN" "http://www.w3.org/Graphics/SVG/1.1/DTD/svg11.dtd">
<svg version="1.1" id="Layer_1" xmlns="http://www.w3.org/2000/svg" xmlns:xlink="http://www.w3.org/1999/xlink" x="0px" y="0px"
	 viewBox="0 0 24 24" style="enable-background:new 0 0 24 24;" xml:space="preserve">
<style type="text/css">
	.st0{fill:#A5B2BD;}
	.st1{fill:#3197D6;}
</style>
<path d="M3.7,12.9L8,14.4V20c0,0.4,0.2,0.8,0.6,0.9C8.7,21,8.9,21,9,21c0.3,0,0.5-0.1,0.7-0.3l3.7-3.7l4.3,2.2
	c0.1,0.1,0.3,0.1,0.4,0.1c0.2,0,0.3,0,0.5-0.1c0.3-0.2,0.5-0.4,0.5-0.8L21,4.1c0-0.4-0.1-0.7-0.4-0.9c-0.3-0.2-0.7-0.2-1-0.1l-16,8
	c-0.4,0.2-0.6,0.6-0.5,1C3,12.5,3.3,12.8,3.7,12.9z M10,17.6v-2.4l1.6,0.8L10,17.6z M17.4,16.7l-6.5-3.2l7.7-6.6L17.4,16.7z M14.2,8
	l-5.3,4.5l-2.3-0.8L14.2,8z"/>
</svg>
