<?xml version="1.0" encoding="utf-8"?>
<!-- Generator: Adobe Illustrator 20.0.0, SVG Export Plug-In . SVG Version: 6.00 Build 0)  -->
<!DOCTYPE svg PUBLIC "-//W3C//DTD SVG 1.1//EN" "http://www.w3.org/Graphics/SVG/1.1/DTD/svg11.dtd">
<svg version="1.1" id="Layer_1" xmlns="http://www.w3.org/2000/svg" xmlns:xlink="http://www.w3.org/1999/xlink" x="0px" y="0px"
	 viewBox="0 0 24 24" style="enable-background:new 0 0 24 24;" xml:space="preserve">
<style type="text/css">
	.st0{fill:#A5B2BD;}
	.st1{fill:#3197D6;}
	.st2{fill:none;stroke:#727F8E;stroke-width:2;stroke-linecap:round;stroke-linejoin:round;stroke-miterlimit:10;}
	.st3{fill:#000102;}
	.st4{fill:#727F8E;}
	.st5{fill:none;stroke:#727F8E;stroke-width:2;stroke-linejoin:round;stroke-miterlimit:10;}
</style>
<path d="M20.6,3.2c-0.3-0.2-0.7-0.2-1-0.1l-16,8c-0.4,0.2-0.6,0.6-0.5,1c0,0.4,0.3,0.8,0.7,0.9l4.6,1.5V20c0,0.4,0.3,0.8,0.7,0.9
	C9.1,21,9.2,21,9.3,21c0.3,0,0.6-0.1,0.8-0.4l3.1-3.8l4.6,2.3c0.1,0.1,0.3,0.1,0.4,0.1c0.2,0,0.3,0,0.5-0.1c0.3-0.2,0.5-0.4,0.5-0.8
	L21,4.1C21,3.8,20.9,3.4,20.6,3.2z M14.5,7.8l-5.4,4.8l-2.5-0.8L14.5,7.8z M10.3,17.1v-1.8l1,0.5L10.3,17.1z M17.4,16.7l-6.3-3.1
	l7.5-6.6L17.4,16.7z"/>
</svg>
