<?xml version="1.0" encoding="utf-8"?>
<!-- Generator: Adobe Illustrator 20.0.0, SVG Export Plug-In . SVG Version: 6.00 Build 0)  -->
<!DOCTYPE svg PUBLIC "-//W3C//DTD SVG 1.1//EN" "http://www.w3.org/Graphics/SVG/1.1/DTD/svg11.dtd">
<svg version="1.1" id="Layer_1" xmlns="http://www.w3.org/2000/svg" xmlns:xlink="http://www.w3.org/1999/xlink" x="0px" y="0px"
	 viewBox="0 0 24 24" style="enable-background:new 0 0 24 24;" xml:space="preserve">
<style type="text/css">
	.st0{fill:#A5B2BD;}
	.st1{fill:#3197D6;}
	.st2{fill:none;stroke:#727F8E;stroke-width:2;stroke-linecap:round;stroke-linejoin:round;stroke-miterlimit:10;}
	.st3{fill:#000102;}
	.st4{fill:#727F8E;}
	.st5{fill:none;stroke:#727F8E;stroke-width:2;stroke-linejoin:round;stroke-miterlimit:10;}
</style>
<g>
	<path d="M18,3H6C4.3,3,3,4.3,3,6v12c0,1.7,1.3,3,3,3h12c1.7,0,3-1.3,3-3V6C21,4.3,19.7,3,18,3z M19,18c0,0.6-0.4,1-1,1H6
		c-0.6,0-1-0.4-1-1V6c0-0.6,0.4-1,1-1h12c0.6,0,1,0.4,1,1V18z"/>
	<path d="M14.3,9.3L11,12.6l-1.3-1.3c-0.4-0.4-1-0.4-1.4,0s-0.4,1,0,1.4l2,2c0.2,0.2,0.5,0.3,0.7,0.3s0.5-0.1,0.7-0.3l4-4
		c0.4-0.4,0.4-1,0-1.4S14.7,8.9,14.3,9.3z"/>
</g>
</svg>
