<?xml version="1.0" encoding="utf-8"?>
<!-- Generator: Adobe Illustrator 20.0.0, SVG Export Plug-In . SVG Version: 6.00 Build 0)  -->
<!DOCTYPE svg PUBLIC "-//W3C//DTD SVG 1.1//EN" "http://www.w3.org/Graphics/SVG/1.1/DTD/svg11.dtd">
<svg version="1.1" id="Layer_1" xmlns="http://www.w3.org/2000/svg" xmlns:xlink="http://www.w3.org/1999/xlink" x="0px" y="0px"
	 viewBox="0 0 24 24" style="enable-background:new 0 0 24 24;" xml:space="preserve">
<style type="text/css">
	.st0{fill:#A5B2BD;}
	.st1{fill:#3197D6;}
	.st2{fill:#010101;}
</style>
<path d="M18,6H7C5.3,6,4,7.3,4,9v6c0,1.7,1.3,3,3,3h11c1.7,0,3-1.3,3-3V9C21,7.3,19.7,6,18,6z M9,16H7c-0.6,0-1-0.4-1-1v-2h3V16z
	 M9,11H6V9c0-0.6,0.4-1,1-1h2V11z M14,16h-3v-3h3V16z M14,11h-3V8h3V11z M19,15c0,0.6-0.4,1-1,1h-2v-3h3V15z M19,11h-3V8h2
	c0.6,0,1,0.4,1,1V11z"/>
</svg>
