<?xml version="1.0" encoding="utf-8"?>
<!-- Generator: Adobe Illustrator 20.0.0, SVG Export Plug-In . SVG Version: 6.00 Build 0)  -->
<!DOCTYPE svg PUBLIC "-//W3C//DTD SVG 1.1//EN" "http://www.w3.org/Graphics/SVG/1.1/DTD/svg11.dtd">
<svg version="1.1" id="Layer_1" xmlns="http://www.w3.org/2000/svg" xmlns:xlink="http://www.w3.org/1999/xlink" x="0px" y="0px"
	 viewBox="0 0 24 24" style="enable-background:new 0 0 24 24;" xml:space="preserve">
<style type="text/css">
	.st0{fill:#A5B2BD;}
	.st1{fill:#3197D6;}
	.st2{fill:none;stroke:#727F8E;stroke-width:2;stroke-linecap:round;stroke-linejoin:round;stroke-miterlimit:10;}
	.st3{fill:#000102;}
	.st4{fill:#727F8E;}
	.st5{fill:none;stroke:#727F8E;stroke-width:2;stroke-linejoin:round;stroke-miterlimit:10;}
</style>
<path d="M18,4H7C5.3,4,4,5.3,4,7v8c0,1.7,1.3,3,3,3h11c1.7,0,3-1.3,3-3V7C21,5.3,19.7,4,18,4z M19,7v3h-3V6h2C18.6,6,19,6.4,19,7z
	 M11,10V6h3v4H11z M14,12v4h-3v-4H14z M7,6h2v4H6V7C6,6.4,6.4,6,7,6z M6,15v-3h3v4H7C6.4,16,6,15.6,6,15z M18,16h-2v-4h3v3
	C19,15.6,18.6,16,18,16z"/>
</svg>
