<?xml version="1.0" encoding="utf-8"?>
<!-- Generator: Adobe Illustrator 20.0.0, SVG Export Plug-In . SVG Version: 6.00 Build 0)  -->
<!DOCTYPE svg PUBLIC "-//W3C//DTD SVG 1.1//EN" "http://www.w3.org/Graphics/SVG/1.1/DTD/svg11.dtd">
<svg version="1.1" id="Layer_1" xmlns="http://www.w3.org/2000/svg" xmlns:xlink="http://www.w3.org/1999/xlink" x="0px" y="0px"
	 viewBox="0 0 24 24" style="enable-background:new 0 0 24 24;" xml:space="preserve">
<style type="text/css">
	.st0{fill:#A5B2BD;}
	.st1{fill:#3197D6;}
	.st2{fill:none;stroke:#727F8E;stroke-width:2;stroke-linecap:round;stroke-linejoin:round;stroke-miterlimit:10;}
	.st3{fill:#000102;}
	.st4{fill:#727F8E;}
	.st5{fill:none;stroke:#727F8E;stroke-width:2;stroke-linejoin:round;stroke-miterlimit:10;}
</style>
<g>
	<path d="M20.1,5.4l-1.5-1.5C18,3.3,17.3,3,16.5,3h-3.7c-0.8,0-1.6,0.3-2.1,0.9L4,10.5c-1.4,1.4-1.4,3.5,0,4.9c0,0,0,0,0,0L8.6,20
		c0.7,0.7,1.5,1,2.5,1c0,0,0,0,0,0c0.9,0,1.8-0.4,2.5-1l6.6-6.7c0.6-0.6,0.9-1.3,0.9-2.1V7.5C21,6.7,20.7,6,20.1,5.4z M19,11.1
		c0,0.3-0.1,0.5-0.3,0.7l-6.6,6.7c-0.3,0.3-0.6,0.4-1,0.4c-0.4,0-0.8-0.2-1-0.4L5.5,14c-0.6-0.6-0.6-1.5,0-2.1l6.6-6.6
		C12.3,5.1,12.5,5,12.8,5h3.7c0.3,0,0.5,0.1,0.7,0.3l1.5,1.5C18.9,7,19,7.2,19,7.5V11.1z"/>
	<circle cx="15" cy="9" r="2"/>
	<path d="M9.7,11.3c-0.4-0.4-1-0.4-1.4,0s-0.4,1,0,1.4l3,3c0.2,0.2,0.5,0.3,0.7,0.3s0.5-0.1,0.7-0.3c0.4-0.4,0.4-1,0-1.4L9.7,11.3z"
		/>
</g>
</svg>
