<?xml version="1.0" encoding="utf-8"?>
<!-- Generator: Adobe Illustrator 20.0.0, SVG Export Plug-In . SVG Version: 6.00 Build 0)  -->
<!DOCTYPE svg PUBLIC "-//W3C//DTD SVG 1.1//EN" "http://www.w3.org/Graphics/SVG/1.1/DTD/svg11.dtd">
<svg version="1.1" id="Layer_1" xmlns="http://www.w3.org/2000/svg" xmlns:xlink="http://www.w3.org/1999/xlink" x="0px" y="0px"
	 viewBox="0 0 24 24" style="enable-background:new 0 0 24 24;" xml:space="preserve">
<style type="text/css">
	.st0{fill:#A5B2BD;}
	.st1{fill:#3197D6;}
	.st2{fill:#010101;}
</style>
<path d="M18.7,11.7l-1.1-0.3C18.5,10.5,19,9.3,19,8c0-2.8-2.2-5-5-5S9,5.2,9,8c0,0,0,0.1,0,0.1C6.7,8.6,5,10.6,5,13
	c0,1.3,0.5,2.5,1.3,3.4l-1.1,0.3C3.9,17,3,18.2,3,19.6V20c0,0.6,0.4,1,1,1s1-0.4,1-1v-0.4c0-0.5,0.3-0.9,0.8-1L8.1,18h3.8l2.4,0.6
	c0.4,0.1,0.8,0.5,0.8,1V20c0,0.6,0.4,1,1,1s1-0.4,1-1v-0.4c0-1.4-0.9-2.6-2.3-2.9l-1.1-0.3c0.8-0.9,1.3-2.1,1.3-3.4c0,0,0-0.1,0-0.1
	c0.1,0,0.3-0.1,0.4-0.1c0.1,0.1,0.2,0.2,0.4,0.2l2.5,0.6c0.4,0.1,0.8,0.5,0.8,1V15c0,0.6,0.4,1,1,1s1-0.4,1-1v-0.4
	C21,13.2,20.1,12,18.7,11.7z M10,16c-1.7,0-3-1.3-3-3s1.3-3,3-3s3,1.3,3,3S11.7,16,10,16z M14.5,10.9c-0.7-1.4-2-2.5-3.5-2.8
	c0,0,0-0.1,0-0.1c0-1.7,1.3-3,3-3s3,1.3,3,3C17,9.5,15.9,10.7,14.5,10.9z"/>
</svg>
