<?xml version="1.0" encoding="utf-8"?>
<!-- Generator: Adobe Illustrator 20.0.0, SVG Export Plug-In . SVG Version: 6.00 Build 0)  -->
<!DOCTYPE svg PUBLIC "-//W3C//DTD SVG 1.1//EN" "http://www.w3.org/Graphics/SVG/1.1/DTD/svg11.dtd">
<svg version="1.1" id="Layer_1" xmlns="http://www.w3.org/2000/svg" xmlns:xlink="http://www.w3.org/1999/xlink" x="0px" y="0px"
	 viewBox="0 0 24 24" style="enable-background:new 0 0 24 24;" xml:space="preserve">
<style type="text/css">
	.st0{fill:#A5B2BD;}
	.st1{fill:#3197D6;}
	.st2{fill:none;stroke:#727F8E;stroke-width:2;stroke-linecap:round;stroke-linejoin:round;stroke-miterlimit:10;}
	.st3{fill:#000102;}
	.st4{fill:#727F8E;}
	.st5{fill:none;stroke:#727F8E;stroke-width:2;stroke-linejoin:round;stroke-miterlimit:10;}
</style>
<g>
	<path d="M12,8c-1.1,0-2-0.9-2-2s0.9-2,2-2s2,0.9,2,2S13.1,8,12,8z M12,6L12,6L12,6z M12,6L12,6L12,6z M12,6L12,6L12,6z M12,6L12,6
		L12,6z M12,6L12,6L12,6z M12,6L12,6L12,6z M12,6L12,6L12,6z M12,6L12,6L12,6z"/>
	<path d="M12,14c-1.1,0-2-0.9-2-2s0.9-2,2-2s2,0.9,2,2S13.1,14,12,14z M12,12L12,12L12,12z M12,12L12,12L12,12z M12,12L12,12L12,12z
		 M12,12L12,12L12,12z M12,12L12,12L12,12z M12,12L12,12L12,12z M12,12L12,12L12,12z M12,12L12,12L12,12z"/>
	<path d="M12,20c-1.1,0-2-0.9-2-2s0.9-2,2-2s2,0.9,2,2S13.1,20,12,20z M12,18L12,18L12,18z M12,18L12,18L12,18z M12,18L12,18L12,18z
		 M12,18L12,18L12,18z M12,18L12,18L12,18z M12,18L12,18L12,18z M12,18L12,18L12,18z M12,18L12,18L12,18z"/>
</g>
</svg>
