<?xml version="1.0" encoding="utf-8"?>
<!-- Generator: Adobe Illustrator 20.0.0, SVG Export Plug-In . SVG Version: 6.00 Build 0)  -->
<!DOCTYPE svg PUBLIC "-//W3C//DTD SVG 1.1//EN" "http://www.w3.org/Graphics/SVG/1.1/DTD/svg11.dtd">
<svg version="1.1" id="Layer_1" xmlns="http://www.w3.org/2000/svg" xmlns:xlink="http://www.w3.org/1999/xlink" x="0px" y="0px"
	 viewBox="0 0 24 24" style="enable-background:new 0 0 24 24;" xml:space="preserve">
<style type="text/css">
	.st0{fill:#A5B2BD;}
	.st1{fill:#3197D6;}
</style>
<g>
	<path d="M9,21h7c1.7,0,3-1.3,3-3V9c0.6,0,1-0.4,1-1s-0.4-1-1-1h-3V6c0-1.7-1.3-3-3-3h-1c-1.7,0-3,1.3-3,3v1H6C5.4,7,5,7.4,5,8
		s0.4,1,1,1v9C6,19.7,7.3,21,9,21z M11,6c0-0.6,0.4-1,1-1h1c0.6,0,1,0.4,1,1v1h-3V6z M17,9v9c0,0.6-0.4,1-1,1H9c-0.6,0-1-0.4-1-1V9
		H17z"/>
	<path d="M11,17c0.6,0,1-0.4,1-1v-4c0-0.6-0.4-1-1-1s-1,0.4-1,1v4C10,16.6,10.4,17,11,17z"/>
	<path d="M14,17c0.6,0,1-0.4,1-1v-4c0-0.6-0.4-1-1-1s-1,0.4-1,1v4C13,16.6,13.4,17,14,17z"/>
</g>
</svg>
