<?xml version="1.0" encoding="utf-8"?>
<!-- Generator: Adobe Illustrator 20.1.0, SVG Export Plug-In . SVG Version: 6.00 Build 0)  -->
<!DOCTYPE svg PUBLIC "-//W3C//DTD SVG 1.1//EN" "http://www.w3.org/Graphics/SVG/1.1/DTD/svg11.dtd">
<svg version="1.1" id="Layer_1" xmlns="http://www.w3.org/2000/svg" xmlns:xlink="http://www.w3.org/1999/xlink" x="0px" y="0px"
	 viewBox="0 0 24 24" style="enable-background:new 0 0 24 24;" xml:space="preserve">
<g>
	<path d="M15.9,14.5c1.3-1.1,2.1-2.7,2.1-4.5c0-3.3-2.7-6-6-6s-6,2.7-6,6c0,1.8,0.8,3.4,2.1,4.5c-2.1,0.4-3.8,2.2-4,4.4
		c-0.1,0.5,0.3,1,0.9,1.1c0.5,0.1,1-0.3,1.1-0.9c0.1-1.3,1.2-2.4,2.5-2.6l2.6-0.4h1.8l2.6,0.4c1.3,0.2,2.3,1.3,2.5,2.6
		c0.1,0.5,0.5,0.9,1,0.9c0,0,0.1,0,0.1,0c0.5-0.1,0.9-0.6,0.9-1.1C19.7,16.7,18.1,14.9,15.9,14.5z M12,6c2.2,0,4,1.8,4,4s-1.8,4-4,4
		s-4-1.8-4-4S9.8,6,12,6z"/>
</g>
</svg>
