<?xml version="1.0" encoding="utf-8"?>
<!-- Generator: Adobe Illustrator 20.1.0, SVG Export Plug-In . SVG Version: 6.00 Build 0)  -->
<!DOCTYPE svg PUBLIC "-//W3C//DTD SVG 1.1//EN" "http://www.w3.org/Graphics/SVG/1.1/DTD/svg11.dtd">
<svg version="1.1" id="Layer_1" xmlns="http://www.w3.org/2000/svg" xmlns:xlink="http://www.w3.org/1999/xlink" x="0px" y="0px"
	 viewBox="0 0 24 24" style="enable-background:new 0 0 24 24;" xml:space="preserve">
<path d="M19.1,11.7l-0.8-0.8c-0.2-0.2-0.3-0.5-0.3-0.8V10c0-3-2.2-5.4-5-5.9V4c0-0.6-0.4-1-1-1s-1,0.4-1,1v0.1C8.2,4.6,6,7,6,10v0.1
	c0,0.3-0.1,0.6-0.3,0.8l-0.8,0.8C4.3,12.3,4,13.1,4,13.9C4,15.6,5.4,17,7.1,17h1c0.4,1.7,2,3,3.9,3s3.4-1.3,3.9-3h1
	c1.7,0,3.1-1.4,3.1-3.1C20,13.1,19.7,12.3,19.1,11.7z M12,18c-0.7,0-1.4-0.4-1.7-1h3.4C13.4,17.6,12.7,18,12,18z M16.9,15H7.1
	C6.5,15,6,14.5,6,13.9c0-0.3,0.1-0.6,0.3-0.8l0.8-0.8C7.7,11.7,8,10.9,8,10.1V10c0-2.2,1.8-4,4-4s4,1.8,4,4v0.1
	c0,0.8,0.3,1.6,0.9,2.2l0.8,0.8c0.2,0.2,0.3,0.5,0.3,0.8C18,14.5,17.5,15,16.9,15z"/>
</svg>
