<?xml version="1.0" encoding="utf-8"?>
<!-- Generator: Adobe Illustrator 20.1.0, SVG Export Plug-In . SVG Version: 6.00 Build 0)  -->
<!DOCTYPE svg PUBLIC "-//W3C//DTD SVG 1.1//EN" "http://www.w3.org/Graphics/SVG/1.1/DTD/svg11.dtd">
<svg version="1.1" id="Layer_1" xmlns="http://www.w3.org/2000/svg" xmlns:xlink="http://www.w3.org/1999/xlink" x="0px" y="0px"
	 viewBox="0 0 24 24" style="enable-background:new 0 0 24 24;" xml:space="preserve">
<path d="M17.9,11.1l-0.3-2.3c-0.3-2.4-2.2-4.3-4.6-4.7V4c0-0.6-0.4-1-1-1s-1,0.4-1,1v0.1C8.7,4.5,6.8,6.4,6.4,8.8l-0.3,2.3
	C4.9,11.5,4,12.7,4,14c0,1.7,1.3,3,3,3h1.1c0.4,1.7,2,3,3.9,3s3.4-1.3,3.9-3H17c1.7,0,3-1.3,3-3C20,12.7,19.1,11.5,17.9,11.1z
	 M12,18c-0.7,0-1.4-0.4-1.7-1h3.4C13.4,17.6,12.7,18,12,18z M17,15H7c-0.6,0-1-0.4-1-1s0.4-1,1-1h1c0.6,0,1-0.4,1-1
	c0-0.5-0.4-0.9-0.9-1l0.3-1.9C8.7,7.3,10.2,6,12,6s3.3,1.3,3.6,3.1l0.3,1.9c-0.5,0.1-0.9,0.5-0.9,1c0,0.6,0.4,1,1,1h1
	c0.6,0,1,0.4,1,1S17.6,15,17,15z"/>
</svg>
