<?xml version="1.0" encoding="utf-8"?>
<!-- Generator: Adobe Illustrator 20.0.0, SVG Export Plug-In . SVG Version: 6.00 Build 0)  -->
<!DOCTYPE svg PUBLIC "-//W3C//DTD SVG 1.1//EN" "http://www.w3.org/Graphics/SVG/1.1/DTD/svg11.dtd">
<svg version="1.1" id="Layer_1" xmlns="http://www.w3.org/2000/svg" xmlns:xlink="http://www.w3.org/1999/xlink" x="0px" y="0px"
	 viewBox="0 0 24 24" style="enable-background:new 0 0 24 24;" xml:space="preserve">
<style type="text/css">
	.st0{fill:#A5B2BD;}
	.st1{fill:#3197D6;}
</style>
<g>
	<path d="M15.8,5.3C15.1,3.9,13.6,3,12,3c-1.6,0-3.1,0.9-3.8,2.3l-4.8,9.5c-0.7,1.3-0.6,2.9,0.2,4.1s2.1,2,3.6,2h9.5
		c1.5,0,2.8-0.8,3.6-2c0.8-1.3,0.8-2.8,0.2-4.1L15.8,5.3z M18.7,17.9c-0.4,0.7-1.1,1.1-1.9,1.1H7.2c-0.8,0-1.5-0.4-1.9-1.1
		s-0.4-1.5-0.1-2.2L10,6.2C10.4,5.5,11.1,5,12,5c0.9,0,1.6,0.5,2,1.2l4.8,9.5C19.1,16.4,19.1,17.3,18.7,17.9z"/>
	<path d="M12,14c0.6,0,1-0.4,1-1V8c0-0.6-0.4-1-1-1s-1,0.4-1,1v5C11,13.5,11.4,14,12,14z"/>
	<path d="M12,15L12,15c-0.6,0-1,0.4-1,1s0.5,1,1,1s1-0.4,1-1S12.6,15,12,15z"/>
</g>
</svg>
