<?xml version="1.0" encoding="utf-8"?>
<!-- Generator: Adobe Illustrator 20.0.0, SVG Export Plug-In . SVG Version: 6.00 Build 0)  -->
<!DOCTYPE svg PUBLIC "-//W3C//DTD SVG 1.1//EN" "http://www.w3.org/Graphics/SVG/1.1/DTD/svg11.dtd">
<svg version="1.1" id="Layer_1" xmlns="http://www.w3.org/2000/svg" xmlns:xlink="http://www.w3.org/1999/xlink" x="0px" y="0px"
	 viewBox="0 0 24 24" style="enable-background:new 0 0 24 24;" xml:space="preserve">
<style type="text/css">
	.st0{fill:#A5B2BD;}
	.st1{fill:#3197D6;}
</style>
<path d="M11.3,7.3c0.4-0.4,0.4-1,0-1.4s-1-0.4-1.4,0L6.4,9.5c-1.9,1.9-1.9,5.1,0,7.1c1,1,2.3,1.5,3.5,1.5c1.3,0,2.6-0.5,3.5-1.5
	l5.7-5.7c0.6-0.6,0.9-1.3,0.9-2.1s-0.3-1.6-0.9-2.1c-1.2-1.2-3.1-1.2-4.2,0l-5,4.9c-0.4,0.4-0.4,1,0,1.4s1,0.4,1.4,0l5-4.9
	c0.4-0.4,1-0.4,1.4,0C17.9,8.2,18,8.5,18,8.8s-0.1,0.5-0.3,0.7l-5.7,5.7c-1.2,1.2-3.1,1.2-4.2,0c-1.2-1.2-1.2-3.1,0-4.2L11.3,7.3z"
	/>
</svg>
