<?xml version="1.0" encoding="utf-8"?>
<!-- Generator: Adobe Illustrator 20.1.0, SVG Export Plug-In . SVG Version: 6.00 Build 0)  -->
<!DOCTYPE svg PUBLIC "-//W3C//DTD SVG 1.1//EN" "http://www.w3.org/Graphics/SVG/1.1/DTD/svg11.dtd">
<svg version="1.1" id="Layer_1" xmlns="http://www.w3.org/2000/svg" xmlns:xlink="http://www.w3.org/1999/xlink" x="0px" y="0px"
	 viewBox="0 0 24 24" style="enable-background:new 0 0 24 24;" xml:space="preserve">
<g>
	<path d="M17,4H7C5.3,4,4,5.3,4,7v1.1c0,0.9,0.4,1.7,1,2.2V17c0,1.7,1.3,3,3,3h8c1.7,0,3-1.3,3-3v-6.7c0.6-0.5,1-1.3,1-2.2V7
		C20,5.3,18.7,4,17,4z M6,7c0-0.6,0.4-1,1-1h10c0.6,0,1,0.4,1,1v1.1c0,0.6-0.4,1-1,1H7c-0.6,0-1-0.4-1-1V7z M17,17c0,0.6-0.4,1-1,1
		H8c-0.6,0-1-0.4-1-1v-5.9h10V17z"/>
	<path d="M10,15.1h4c0.6,0,1-0.4,1-1s-0.4-1-1-1h-4c-0.6,0-1,0.4-1,1S9.4,15.1,10,15.1z"/>
</g>
</svg>
