<?xml version="1.0" encoding="utf-8"?>
<!-- Generator: Adobe Illustrator 20.0.0, SVG Export Plug-In . SVG Version: 6.00 Build 0)  -->
<!DOCTYPE svg PUBLIC "-//W3C//DTD SVG 1.1//EN" "http://www.w3.org/Graphics/SVG/1.1/DTD/svg11.dtd">
<svg version="1.1" id="Layer_1" xmlns="http://www.w3.org/2000/svg" xmlns:xlink="http://www.w3.org/1999/xlink" x="0px" y="0px"
	 viewBox="0 0 24 24" style="enable-background:new 0 0 24 24;" xml:space="preserve">
<style type="text/css">
	.st0{fill:#A5B2BD;}
	.st1{fill:#3197D6;}
</style>
<path d="M15,7c-0.5,0-0.9,0.1-1.4,0.2C12.5,5.8,10.8,5,9,5c-3.3,0-6,2.7-6,6c0,0.8,0.2,1.6,0.5,2.4L3,15.8c-0.1,0.3,0,0.7,0.3,0.9
	C3.5,16.9,3.7,17,4,17c0.1,0,0.1,0,0.2,0l2.4-0.5c1.2,0.5,2.5,0.6,3.7,0.3c1.1,1.3,2.8,2.2,4.6,2.2c0.8,0,1.6-0.2,2.4-0.5l2.4,0.5
	c0.1,0,0.1,0,0.2,0c0.3,0,0.5-0.1,0.7-0.3c0.2-0.2,0.3-0.6,0.3-0.9l-0.5-2.4c0.3-0.8,0.5-1.6,0.5-2.4C21,9.7,18.3,7,15,7z M7.2,14.6
	c-0.1-0.1-0.3-0.1-0.5-0.1c-0.1,0-0.1,0-0.2,0l-1.3,0.3l0.3-1.3c0-0.2,0-0.4-0.1-0.6C5.1,12.2,5,11.6,5,11c0-2.2,1.8-4,4-4
	c1,0,1.9,0.4,2.7,1c-0.2,0.1-0.4,0.3-0.6,0.4c0,0-0.1,0.1-0.1,0.1c-0.1,0.1-0.2,0.2-0.4,0.3C10.6,9,10.5,9,10.5,9.1
	c-0.1,0.1-0.1,0.2-0.2,0.3c-0.1,0.1-0.1,0.2-0.2,0.3C10,9.7,9.9,9.8,9.9,9.9c-0.1,0.2-0.2,0.4-0.3,0.6c0,0.1-0.1,0.2-0.1,0.3
	c0,0.1-0.1,0.2-0.1,0.3c0,0.1-0.1,0.2-0.1,0.3c0,0.1-0.1,0.2-0.1,0.3c0,0.1-0.1,0.3-0.1,0.4c0,0.1,0,0.2,0,0.2c0,0.2,0,0.5,0,0.7
	c0,0.3,0,0.6,0.1,0.9c0,0,0,0.1,0,0.1c0.1,0.3,0.1,0.6,0.2,0.9C8.6,15.1,7.9,14.9,7.2,14.6z M18.5,15.4l0.3,1.3l-1.3-0.3
	c-0.2,0-0.4,0-0.6,0.1C16.2,16.9,15.6,17,15,17c-1.4,0-2.7-0.7-3.4-1.9c0,0,0,0,0,0c-0.2-0.3-0.3-0.5-0.4-0.8c0-0.1-0.1-0.2-0.1-0.3
	c0-0.1,0-0.2-0.1-0.3c0-0.2-0.1-0.5-0.1-0.7c0-0.3,0-0.5,0.1-0.7c0-0.1,0-0.1,0-0.2c0-0.2,0.1-0.3,0.2-0.5c0-0.1,0-0.1,0.1-0.2
	c0.1-0.2,0.2-0.4,0.3-0.6c0,0,0,0,0-0.1c0.1-0.2,0.3-0.4,0.4-0.5c0.1-0.1,0.1-0.1,0.2-0.2c0.1-0.1,0.2-0.2,0.3-0.2
	c0.1-0.1,0.2-0.2,0.3-0.2c0.1,0,0.1-0.1,0.2-0.1c0.1-0.1,0.3-0.2,0.4-0.2c0,0,0,0,0,0C14,9.1,14.5,9,15,9c2.2,0,4,1.8,4,4
	c0,0.6-0.1,1.2-0.4,1.8C18.5,15,18.4,15.2,18.5,15.4z"/>
</svg>
