<?xml version="1.0" encoding="utf-8"?>
<!-- Generator: Adobe Illustrator 20.0.0, SVG Export Plug-In . SVG Version: 6.00 Build 0)  -->
<!DOCTYPE svg PUBLIC "-//W3C//DTD SVG 1.1//EN" "http://www.w3.org/Graphics/SVG/1.1/DTD/svg11.dtd">
<svg version="1.1" id="Layer_1" xmlns="http://www.w3.org/2000/svg" xmlns:xlink="http://www.w3.org/1999/xlink" x="0px" y="0px"
	 viewBox="0 0 24 24" style="enable-background:new 0 0 24 24;" xml:space="preserve">
<style type="text/css">
	.st0{fill:#A5B2BD;}
	.st1{fill:#3197D6;}
	.st2{fill:none;stroke:#72808E;stroke-width:2;stroke-linecap:round;stroke-linejoin:round;stroke-miterlimit:10;}
	.st3{fill:none;stroke:#A4B2BC;stroke-width:2;stroke-linecap:round;stroke-linejoin:round;stroke-miterlimit:10;}
</style>
<path d="M12,4c-4.4,0-8,3.6-8,8c0,1.1,0.2,2.2,0.7,3.2L4,18.8c-0.1,0.3,0,0.7,0.3,0.9C4.5,19.9,4.7,20,5,20c0.1,0,0.1,0,0.2,0
	l3.5-0.7c1,0.5,2.1,0.7,3.3,0.7c4.4,0,8-3.6,8-8S16.4,4,12,4z M12,18c-0.9,0-1.9-0.2-2.7-0.6c-0.1-0.1-0.3-0.1-0.5-0.1
	c-0.1,0-0.1,0-0.2,0l-2.4,0.5l0.5-2.5c0-0.2,0-0.4-0.1-0.6C6.2,13.8,6,12.9,6,12c0-3.3,2.7-6,6-6s6,2.7,6,6S15.3,18,12,18z"/>
</svg>
