<?xml version="1.0" encoding="utf-8"?>
<!-- Generator: Adobe Illustrator 20.0.0, SVG Export Plug-In . SVG Version: 6.00 Build 0)  -->
<!DOCTYPE svg PUBLIC "-//W3C//DTD SVG 1.1//EN" "http://www.w3.org/Graphics/SVG/1.1/DTD/svg11.dtd">
<svg version="1.1" id="Layer_1" xmlns="http://www.w3.org/2000/svg" xmlns:xlink="http://www.w3.org/1999/xlink" x="0px" y="0px"
	 viewBox="0 0 24 24" style="enable-background:new 0 0 24 24;" xml:space="preserve">
<style type="text/css">
	.st0{fill:#A5B2BD;}
	.st1{fill:#3197D6;}
</style>
<path d="M19,5h-2c-1.1,0-2,0.9-2,2v2c0,1.1,0.9,2,2,2v6c0,1.1-0.9,2-2,2s-2-0.9-2-2V7c0-2.2-1.8-4-4-4S5,4.8,5,7v6c-1.1,0-2,0.9-2,2
	v2c0,1.1,0.9,2,2,2h2c1.1,0,2-0.9,2-2v-2c0-1.1-0.9-2-2-2V7c0-1.1,0.9-2,2-2s2,0.9,2,2v10c0,2.2,1.8,4,4,4s4-1.8,4-4v-6
	c1.1,0,2-0.9,2-2V7C21,5.9,20.1,5,19,5z M7,17H5v-2h2L7,17z M17,9V7h2l0,2H17z"/>
</svg>
