<?xml version="1.0" encoding="utf-8"?>
<!-- Generator: Adobe Illustrator 20.1.0, SVG Export Plug-In . SVG Version: 6.00 Build 0)  -->
<!DOCTYPE svg PUBLIC "-//W3C//DTD SVG 1.1//EN" "http://www.w3.org/Graphics/SVG/1.1/DTD/svg11.dtd">
<svg version="1.1" id="Layer_1" xmlns="http://www.w3.org/2000/svg" xmlns:xlink="http://www.w3.org/1999/xlink" x="0px" y="0px"
	 viewBox="0 0 24 24" style="enable-background:new 0 0 24 24;" xml:space="preserve">
<g>
	<path d="M17,13H7c-1.7,0-3,1.3-3,3v1c0,1.7,1.3,3,3,3h10c1.7,0,3-1.3,3-3v-1C20,14.3,18.7,13,17,13z M18,17c0,0.6-0.4,1-1,1H7
		c-0.6,0-1-0.4-1-1v-1c0-0.6,0.4-1,1-1h10c0.6,0,1,0.4,1,1V17z"/>
	<path d="M17,4H7C5.3,4,4,5.3,4,7v1c0,1.7,1.3,3,3,3h10c1.7,0,3-1.3,3-3V7C20,5.3,18.7,4,17,4z M18,8c0,0.6-0.4,1-1,1H7
		C6.4,9,6,8.6,6,8V7c0-0.6,0.4-1,1-1h10c0.6,0,1,0.4,1,1V8z"/>
</g>
</svg>
