<?xml version="1.0" encoding="utf-8"?>
<!-- Generator: Adobe Illustrator 20.1.0, SVG Export Plug-In . SVG Version: 6.00 Build 0)  -->
<!DOCTYPE svg PUBLIC "-//W3C//DTD SVG 1.1//EN" "http://www.w3.org/Graphics/SVG/1.1/DTD/svg11.dtd">
<svg version="1.1" id="Layer_1" xmlns="http://www.w3.org/2000/svg" xmlns:xlink="http://www.w3.org/1999/xlink" x="0px" y="0px"
	 viewBox="0 0 24 24" style="enable-background:new 0 0 24 24;" xml:space="preserve">
<g>
	<path d="M14,7h2v2c0,0.6,0.4,1,1,1s1-0.4,1-1V7h2c0.6,0,1-0.4,1-1s-0.4-1-1-1h-2V3c0-0.6-0.4-1-1-1s-1,0.4-1,1v2h-2
		c-0.6,0-1,0.4-1,1S13.4,7,14,7z"/>
	<path d="M6,17l0.6,0l2.4,2.4c0.4,0.4,1,0.6,1.6,0.6s1.1-0.2,1.6-0.6l2.4-2.4H15c1.7,0,3-1.3,3-3l0-1c0-0.6-0.4-1-1-1
		c-0.6,0-1,0.4-1,1l0,1c0,0.6-0.4,1-1,1h-1c-0.3,0-0.5,0.1-0.7,0.3l-2.6,2.6c-0.1,0.1-0.2,0.1-0.3,0l-2.6-2.6C7.5,15.1,7.3,15,7,15
		l-1,0c-0.6,0-1-0.4-1-1l0-6c0-0.6,0.4-1,1-1h4c0.6,0,1-0.4,1-1s-0.4-1-1-1H6C4.3,5,3,6.3,3,8l0,6C3,15.7,4.3,17,6,17z"/>
</g>
</svg>
