<?xml version="1.0" encoding="utf-8"?>
<!-- Generator: Adobe Illustrator 20.0.0, SVG Export Plug-In . SVG Version: 6.00 Build 0)  -->
<!DOCTYPE svg PUBLIC "-//W3C//DTD SVG 1.1//EN" "http://www.w3.org/Graphics/SVG/1.1/DTD/svg11.dtd">
<svg version="1.1" id="Layer_1" xmlns="http://www.w3.org/2000/svg" xmlns:xlink="http://www.w3.org/1999/xlink" x="0px" y="0px"
	 viewBox="0 0 24 24" style="enable-background:new 0 0 24 24;" xml:space="preserve">
<style type="text/css">
	.st0{fill:#A5B2BD;}
	.st1{fill:#3197D6;}
</style>
<path d="M6,21h12c1.7,0,3-1.3,3-3v-7.1c0-0.9-0.4-1.7-1-2.2V8c0-1.1-0.9-2-2-2h-0.9l-2.5-2.1c-1.5-1.2-3.6-1.2-5.1,0L6.9,6H6
	C4.9,6,4,6.9,4,8v0.6C3.4,9.2,3,10,3,10.9V18C3,19.7,4.3,21,6,21z M10.7,5.5c0.7-0.6,1.8-0.6,2.6,0L14,6h-4L10.7,5.5z M6,8h12v2.2
	l-6,4.5l-6-4.5V8z M5,12l6.4,4.8c0.2,0.1,0.4,0.2,0.6,0.2s0.4-0.1,0.6-0.2L19,12v6c0,0.6-0.4,1-1,1H6c-0.6,0-1-0.4-1-1V12z"/>
</svg>
