<?xml version="1.0" encoding="utf-8"?>
<!-- Generator: Adobe Illustrator 20.1.0, SVG Export Plug-In . SVG Version: 6.00 Build 0)  -->
<!DOCTYPE svg PUBLIC "-//W3C//DTD SVG 1.1//EN" "http://www.w3.org/Graphics/SVG/1.1/DTD/svg11.dtd">
<svg version="1.1" id="Layer_1" xmlns="http://www.w3.org/2000/svg" xmlns:xlink="http://www.w3.org/1999/xlink" x="0px" y="0px"
	 viewBox="0 0 24 24" style="enable-background:new 0 0 24 24;" xml:space="preserve">
<g>
	<path d="M10.3,13.7c0.2,0.2,0.5,0.3,0.7,0.3s0.5-0.1,0.7-0.3l4-4c0.4-0.4,0.4-1,0-1.4s-1-0.4-1.4,0L11,11.6l-1.3-1.3
		c-0.4-0.4-1-0.4-1.4,0s-0.4,1,0,1.4L10.3,13.7z"/>
	<path d="M8.6,17l2.7,2.7c0.2,0.2,0.5,0.3,0.7,0.3s0.5-0.1,0.7-0.3l2.7-2.7c2.6-0.2,4.6-2.4,4.6-5V9c0-1.3-0.5-2.6-1.5-3.5
		C17.6,4.5,16.3,4,15,4c0,0,0,0,0,0L9,4C6.2,4,4,6.2,4,9v3c0,1.3,0.5,2.6,1.5,3.5C6.3,16.4,7.4,16.9,8.6,17z M6,9c0-1.7,1.3-3,3-3
		l6,0c0,0,0,0,0,0c0.8,0,1.6,0.3,2.1,0.9C17.7,7.4,18,8.2,18,9v3c0,1.7-1.3,3-3,3h0c-0.3,0-0.5,0.1-0.7,0.3L12,17.6l-2.3-2.3
		C9.5,15.1,9.3,15,9,15c0,0,0,0,0,0c-0.8,0-1.6-0.3-2.1-0.9C6.3,13.6,6,12.8,6,12V9z"/>
</g>
</svg>
