<?xml version="1.0" encoding="utf-8"?>
<!-- Generator: Adobe Illustrator 20.0.0, SVG Export Plug-In . SVG Version: 6.00 Build 0)  -->
<!DOCTYPE svg PUBLIC "-//W3C//DTD SVG 1.1//EN" "http://www.w3.org/Graphics/SVG/1.1/DTD/svg11.dtd">
<svg version="1.1" id="Layer_1" xmlns="http://www.w3.org/2000/svg" xmlns:xlink="http://www.w3.org/1999/xlink" x="0px" y="0px"
	 viewBox="0 0 24 24" style="enable-background:new 0 0 24 24;" xml:space="preserve">
<style type="text/css">
	.st0{fill:#A5B2BD;}
	.st1{fill:#3197D6;}
</style>
<path d="M7.1,15.5l-2.8,2.8c-0.4,0.4-0.4,1,0,1.4C4.5,19.9,4.7,20,5,20s0.5-0.1,0.7-0.3l2.8-2.8C8.9,17,9.3,17,9.8,17
	c2.3,0,4.8-0.9,6.9-2.7c0.2-0.2,0.4-0.5,0.4-0.8V11h1.9c0.4,0,0.7-0.2,0.9-0.5c1.1-2.2,1.5-4.5,1-6.5c-0.1-0.4-0.4-0.7-0.7-0.7
	c-3.2-0.7-6.8,0.5-9.6,3.3C7.9,9.1,6.7,12.5,7.1,15.5z M11.9,7.9c2-2,4.8-3.1,7.1-2.9c0.1,1.2-0.1,2.6-0.7,4H16c-0.6,0-1,0.4-1,1
	v3.1c-1.9,1.4-4.1,2.1-6,1.9C8.8,12.6,9.9,9.9,11.9,7.9z"/>
<path d="M21,14c0-0.6-0.4-1-1-1s-1,0.4-1,1v4c0,0.6-0.4,1-1,1h-8c-0.6,0-1,0.4-1,1s0.4,1,1,1h8c1.7,0,3-1.3,3-3V14z"/>
<path d="M4,15c0.6,0,1-0.4,1-1V6c0-0.6,0.4-1,1-1h2c0.6,0,1-0.4,1-1S8.6,3,8,3H6C4.3,3,3,4.3,3,6v8C3,14.6,3.4,15,4,15z"/>
</svg>
