<?xml version="1.0" encoding="utf-8"?>
<!-- Generator: Adobe Illustrator 20.0.0, SVG Export Plug-In . SVG Version: 6.00 Build 0)  -->
<!DOCTYPE svg PUBLIC "-//W3C//DTD SVG 1.1//EN" "http://www.w3.org/Graphics/SVG/1.1/DTD/svg11.dtd">
<svg version="1.1" id="Layer_1" xmlns="http://www.w3.org/2000/svg" xmlns:xlink="http://www.w3.org/1999/xlink" x="0px" y="0px"
	 viewBox="0 0 24 24" style="enable-background:new 0 0 24 24;" xml:space="preserve">
<style type="text/css">
	.st0{fill:#A5B2BD;}
	.st1{fill:#3197D6;}
</style>
<path d="M17,6H7C5.3,6,4,7.3,4,9v6c0,1.7,1.3,3,3,3h10c1.7,0,3-1.3,3-3V9C20,7.3,18.7,6,17,6z M16.4,8L12,11.7L7.6,8H16.4z M17,16H7
	c-0.6,0-1-0.4-1-1V9.3l5.4,4.5c0.2,0.2,0.4,0.2,0.6,0.2s0.5-0.1,0.6-0.2L18,9.3V15C18,15.6,17.6,16,17,16z"/>
</svg>
