<?xml version="1.0" encoding="utf-8"?>
<!-- Generator: Adobe Illustrator 20.1.0, SVG Export Plug-In . SVG Version: 6.00 Build 0)  -->
<!DOCTYPE svg PUBLIC "-//W3C//DTD SVG 1.1//EN" "http://www.w3.org/Graphics/SVG/1.1/DTD/svg11.dtd">
<svg version="1.1" id="Layer_1" xmlns="http://www.w3.org/2000/svg" xmlns:xlink="http://www.w3.org/1999/xlink" x="0px" y="0px"
	 viewBox="0 0 24 24" style="enable-background:new 0 0 24 24;" xml:space="preserve">
<path d="M19.4,7.9L16,4.6C15.6,4.2,15.1,4,14.6,4H11C9.3,4,8,5.3,8,7v1H7c-1.7,0-3,1.3-3,3v6c0,1.7,1.3,3,3,3h6.1c1.7,0,3-1.3,3-3
	v-1H17c1.7,0,3-1.3,3-3V9.4C20,8.8,19.8,8.3,19.4,7.9z M18,9h-3V6.4L18,9z M14,17c0,0.6-0.4,1-1,1H7c-0.6,0-1-0.4-1-1v-6
	c0-0.6,0.4-1,1-1h1v3c0,1.7,1.3,3,3,3h3V17z M17,14h-6c-0.6,0-1-0.4-1-1V7c0-0.6,0.4-1,1-1h2v4c0,0.6,0.4,1,1,1h4v2
	C18,13.6,17.6,14,17,14z"/>
</svg>
