<?xml version="1.0" encoding="utf-8"?>
<!-- Generator: Adobe Illustrator 20.1.0, SVG Export Plug-In . SVG Version: 6.00 Build 0)  -->
<!DOCTYPE svg PUBLIC "-//W3C//DTD SVG 1.1//EN" "http://www.w3.org/Graphics/SVG/1.1/DTD/svg11.dtd">
<svg version="1.1" id="Layer_1" xmlns="http://www.w3.org/2000/svg" xmlns:xlink="http://www.w3.org/1999/xlink" x="0px" y="0px"
	 viewBox="0 0 24 24" style="enable-background:new 0 0 24 24;" xml:space="preserve">
<path d="M21,10c0-3.3-2.7-6-6-6c-2.2,0-4.2,1.2-5.2,3.1C9.5,7,9.3,7,9,7C7.6,7,6.4,7.7,5.7,8.7c0,0,0,0-0.1,0.1
	c0,0.1-0.1,0.1-0.1,0.2c0,0.1-0.1,0.1-0.1,0.2C5.4,9.3,5.3,9.5,5.3,9.6c0,0.1,0,0.1-0.1,0.2C5.1,10,5.1,10.2,5,10.4c0,0,0,0,0,0
	C3.2,11.2,2,13,2,15c0,2.8,2.2,5,5,5h10c2.8,0,5-2.2,5-5c0-1.2-0.4-2.4-1.3-3.3C20.9,11.2,21,10.6,21,10z M17,18H7c-1.7,0-3-1.3-3-3
	c0-1,0.5-1.9,1.3-2.5c0.1,0.3,0.2,0.5,0.4,0.8c0.2,0.3,0.5,0.4,0.8,0.4c0.2,0,0.4-0.1,0.6-0.2c0.5-0.3,0.6-0.9,0.2-1.4
	c-0.2-0.3-0.3-0.7-0.4-1c0,0,0,0,0,0C7,11,7,11,7,11c0-0.2,0-0.3,0.1-0.5c0-0.1,0.1-0.2,0.1-0.2c0-0.1,0.1-0.2,0.1-0.2
	c0.5-0.8,1.6-1.3,2.6-0.8c0.3,0.1,0.6,0.1,0.8,0c0.3-0.1,0.5-0.3,0.6-0.6C11.8,7.1,13.3,6,15,6c2.2,0,4,1.8,4,4
	c0,0.5-0.1,1.1-0.3,1.6c-0.2,0.4-0.1,0.9,0.3,1.2c0.7,0.6,1.1,1.4,1.1,2.3C20,16.7,18.7,18,17,18z"/>
</svg>
