<?xml version="1.0" encoding="utf-8"?>
<!-- Generator: Adobe Illustrator 20.0.0, SVG Export Plug-In . SVG Version: 6.00 Build 0)  -->
<!DOCTYPE svg PUBLIC "-//W3C//DTD SVG 1.1//EN" "http://www.w3.org/Graphics/SVG/1.1/DTD/svg11.dtd">
<svg version="1.1" id="Layer_1" xmlns="http://www.w3.org/2000/svg" xmlns:xlink="http://www.w3.org/1999/xlink" x="0px" y="0px"
	 viewBox="0 0 24 24" style="enable-background:new 0 0 24 24;" xml:space="preserve">
<style type="text/css">
	.st0{fill:#A5B2BD;}
	.st1{fill:#3197D6;}
</style>
<path d="M6,21h8c1.7,0,3-1.3,3-3v-1h1c1.7,0,3-1.3,3-3v-4c0-0.3-0.1-0.5-0.3-0.7l-6-6C14.5,3.1,14.3,3,14,3h-4C8.3,3,7,4.3,7,6v1H6
	c-1.7,0-3,1.3-3,3v8C3,19.7,4.3,21,6,21z M15,6.4L17.6,9H15V6.4z M9,6c0-0.6,0.4-1,1-1h3v4c0,1.1,0.9,2,2,2h4v3c0,0.6-0.4,1-1,1h-8
	c-0.6,0-1-0.4-1-1V6z M5,10c0-0.6,0.4-1,1-1h1v5c0,1.7,1.3,3,3,3h5v1c0,0.6-0.4,1-1,1H6c-0.6,0-1-0.4-1-1V10z"/>
</svg>
