<?xml version="1.0" encoding="utf-8"?>
<!-- Generator: Adobe Illustrator 20.1.0, SVG Export Plug-In . SVG Version: 6.00 Build 0)  -->
<!DOCTYPE svg PUBLIC "-//W3C//DTD SVG 1.1//EN" "http://www.w3.org/Graphics/SVG/1.1/DTD/svg11.dtd">
<svg version="1.1" id="Layer_1" xmlns="http://www.w3.org/2000/svg" xmlns:xlink="http://www.w3.org/1999/xlink" x="0px" y="0px"
	 viewBox="0 0 24 24" style="enable-background:new 0 0 24 24;" xml:space="preserve">
<path d="M7,18c1.7,0,3-1.3,3-3c0-1.3-0.8-2.4-2-2.8V7.5C8,6.7,8.7,6,9.5,6S11,6.7,11,7.5v9c0,1.9,1.6,3.5,3.5,3.5s3.5-1.6,3.5-3.5
	v-4.7c1.2-0.4,2-1.5,2-2.8c0-1.7-1.3-3-3-3s-3,1.3-3,3c0,1.3,0.8,2.4,2,2.8v4.7c0,0.8-0.7,1.5-1.5,1.5S13,17.3,13,16.5v-9
	C13,5.6,11.4,4,9.5,4S6,5.6,6,7.5v4.7c-1.2,0.4-2,1.5-2,2.8C4,16.7,5.3,18,7,18z M17,8c0.6,0,1,0.4,1,1s-0.4,1-1,1s-1-0.4-1-1
	S16.4,8,17,8z M7,14c0.6,0,1,0.4,1,1s-0.4,1-1,1s-1-0.4-1-1S6.4,14,7,14z"/>
</svg>
