<?xml version="1.0" encoding="utf-8"?>
<!-- Generator: Adobe Illustrator 20.1.0, SVG Export Plug-In . SVG Version: 6.00 Build 0)  -->
<!DOCTYPE svg PUBLIC "-//W3C//DTD SVG 1.1//EN" "http://www.w3.org/Graphics/SVG/1.1/DTD/svg11.dtd">
<svg version="1.1" id="Layer_1" xmlns="http://www.w3.org/2000/svg" xmlns:xlink="http://www.w3.org/1999/xlink" x="0px" y="0px"
	 viewBox="0 0 24 24" style="enable-background:new 0 0 24 24;" xml:space="preserve">
<path d="M12,4c-4.4,0-8,3.6-8,8s3.6,8,8,8s8-3.6,8-8S16.4,4,12,4z M6,12c0-3.3,2.7-6,6-6c1.3,0,2.5,0.4,3.5,1.1l-8.4,8.4
	C6.4,14.5,6,13.3,6,12z M12,18c-1.3,0-2.5-0.4-3.5-1.1l8.4-8.4c0.7,1,1.1,2.2,1.1,3.5C18,15.3,15.3,18,12,18z"/>
</svg>
