<?xml version="1.0" encoding="utf-8"?>
<!-- Generator: Adobe Illustrator 20.1.0, SVG Export Plug-In . SVG Version: 6.00 Build 0)  -->
<!DOCTYPE svg PUBLIC "-//W3C//DTD SVG 1.1//EN" "http://www.w3.org/Graphics/SVG/1.1/DTD/svg11.dtd">
<svg version="1.1" id="Layer_1" xmlns="http://www.w3.org/2000/svg" xmlns:xlink="http://www.w3.org/1999/xlink" x="0px" y="0px"
	 viewBox="0 0 24 24" style="enable-background:new 0 0 24 24;" xml:space="preserve">
<path d="M19.7,9.5l-5-4.5c-1.5-1.4-3.8-1.4-5.3,0l-5,4.5C4.1,9.7,4,10,4,10.3V16c0,2.2,1.8,4,4,4h8c2.2,0,4-1.8,4-4v-5.7
	C20,10,19.9,9.7,19.7,9.5z M10.7,6.5c0.8-0.7,1.9-0.7,2.7,0l4.1,3.7l-4.2,3.4c-0.7,0.6-1.8,0.6-2.5,0l-4.2-3.4L10.7,6.5z M16,18H8
	c-1.1,0-2-0.9-2-2v-3.6l3.5,2.8c0.7,0.6,1.6,0.9,2.5,0.9c0.9,0,1.8-0.3,2.5-0.9l3.5-2.8V16C18,17.1,17.1,18,16,18z"/>
</svg>
