<?xml version="1.0" encoding="utf-8"?>
<!-- Generator: Adobe Illustrator 20.1.0, SVG Export Plug-In . SVG Version: 6.00 Build 0)  -->
<!DOCTYPE svg PUBLIC "-//W3C//DTD SVG 1.1//EN" "http://www.w3.org/Graphics/SVG/1.1/DTD/svg11.dtd">
<svg version="1.1" id="Layer_1" xmlns="http://www.w3.org/2000/svg" xmlns:xlink="http://www.w3.org/1999/xlink" x="0px" y="0px"
	 viewBox="0 0 24 24" style="enable-background:new 0 0 24 24;" xml:space="preserve">
<path d="M17,10h-0.5l-3.7-5.6c-0.4-0.6-1.3-0.6-1.7,0L7.5,10H7c-1.7,0-3,1.3-3,3v4c0,1.7,1.3,3,3,3h10c1.7,0,3-1.3,3-3v-4
	C20,11.3,18.7,10,17,10z M12,6.8l2.1,3.2H9.9L12,6.8z M18,17c0,0.6-0.4,1-1,1H7c-0.6,0-1-0.4-1-1v-4c0-0.6,0.4-1,1-1h10
	c0.6,0,1,0.4,1,1V17z"/>
</svg>
