<?xml version="1.0" encoding="utf-8"?>
<!-- Generator: Adobe Illustrator 20.0.0, SVG Export Plug-In . SVG Version: 6.00 Build 0)  -->
<!DOCTYPE svg PUBLIC "-//W3C//DTD SVG 1.1//EN" "http://www.w3.org/Graphics/SVG/1.1/DTD/svg11.dtd">
<svg version="1.1" id="Layer_1" xmlns="http://www.w3.org/2000/svg" xmlns:xlink="http://www.w3.org/1999/xlink" x="0px" y="0px"
	 viewBox="0 0 24 24" style="enable-background:new 0 0 24 24;" xml:space="preserve">
<style type="text/css">
	.st0{fill:#A5B2BD;}
	.st1{fill:#3197D6;}
</style>
<path d="M6,21h12c1.7,0,3-1.3,3-3v-6c0-1.5-1.1-2.7-2.5-3l-5.8-5.8c-0.4-0.4-1-0.4-1.4,0L5.5,9C4.1,9.3,3,10.5,3,12v6
	C3,19.7,4.3,21,6,21z M12,5.4L15.6,9H8.4L12,5.4z M5,12c0-0.6,0.4-1,1-1h12c0.6,0,1,0.4,1,1v6c0,0.6-0.4,1-1,1H6c-0.6,0-1-0.4-1-1
	V12z"/>
</svg>
