<?xml version="1.0" encoding="utf-8"?>
<!-- Generator: Adobe Illustrator 20.1.0, SVG Export Plug-In . SVG Version: 6.00 Build 0)  -->
<!DOCTYPE svg PUBLIC "-//W3C//DTD SVG 1.1//EN" "http://www.w3.org/Graphics/SVG/1.1/DTD/svg11.dtd">
<svg version="1.1" id="Layer_1" xmlns="http://www.w3.org/2000/svg" xmlns:xlink="http://www.w3.org/1999/xlink" x="0px" y="0px"
	 viewBox="0 0 24 24" style="enable-background:new 0 0 24 24;" xml:space="preserve">
<path d="M17.5,6c-0.2,0-0.4,0-0.5,0.1C16.7,4.9,15.7,4,14.5,4c-0.6,0-1.1,0.2-1.5,0.5C12.6,4.2,12.1,4,11.5,4
	c-0.9,0-1.7,0.5-2.1,1.2C9.1,5.1,8.8,5,8.5,5C7.1,5,6,6.1,6,7.5v2.6c-0.2,0.1-0.4,0.1-0.6,0.2C4.6,10.8,4,11.8,4,12.8
	c0,1.6,0.7,2.9,1,3.5l0.1,0.1c0,0,0,0.1,0.1,0.1L6,17.8c1,1.5,3.6,2.2,5,2.2h2c3.9,0,7-3.1,7-7V8.5C20,7.1,18.9,6,17.5,6z M18,13
	c0,2.8-2.2,5-5,5h-2c-1.1,0-2.9-0.6-3.4-1.3l-0.8-1.2l-0.1-0.1C6.6,14.9,6,13.9,6,12.8c0-0.4,0.3-0.6,0.4-0.7c0.1-0.1,0.4-0.2,0.8,0
	c0.4,0.4,0.7,0.7,0.9,1c0.2,0.3,0.4,0.4,0.5,0.5C8.8,13.8,9,14.1,9,14.4V15c0,0.6,0.4,1,1,1s1-0.4,1-1v-0.6c0-0.9-0.5-1.8-1.2-2.4
	c-0.1-0.1-0.1-0.2-0.3-0.3c-0.2-0.3-0.6-0.7-1.1-1.2c-0.1-0.1-0.1-0.1-0.2-0.2c-0.1-0.1-0.2-0.1-0.3-0.1V7.5C8,7.2,8.2,7,8.5,7
	S9,7.2,9,7.5V10c0,0.6,0.4,1,1,1s1-0.4,1-1V7.5v-1C11,6.2,11.2,6,11.5,6S12,6.2,12,6.5V11c0,0.6,0.4,1,1,1s1-0.4,1-1V6.5
	C14,6.2,14.2,6,14.5,6S15,6.2,15,6.5v2V9v2c0,0.6,0.4,1,1,1s1-0.4,1-1V9V8.5C17,8.2,17.2,8,17.5,8S18,8.2,18,8.5V13z"/>
</svg>
