<?xml version="1.0" encoding="utf-8"?>
<!-- Generator: Adobe Illustrator 20.0.0, SVG Export Plug-In . SVG Version: 6.00 Build 0)  -->
<!DOCTYPE svg PUBLIC "-//W3C//DTD SVG 1.1//EN" "http://www.w3.org/Graphics/SVG/1.1/DTD/svg11.dtd">
<svg version="1.1" id="Layer_1" xmlns="http://www.w3.org/2000/svg" xmlns:xlink="http://www.w3.org/1999/xlink" x="0px" y="0px"
	 viewBox="0 0 24 24" style="enable-background:new 0 0 24 24;" xml:space="preserve">
<style type="text/css">
	.st0{fill:#A5B2BD;}
	.st1{fill:#3197D6;}
</style>
<g>
	<path d="M12.9,13.5c2.5,0,4.5-2,4.5-4.5s-2-4.5-4.5-4.5S8.4,6.5,8.4,9S10.4,13.5,12.9,13.5z M12.9,6.5c1.4,0,2.5,1.1,2.5,2.5
		s-1.1,2.5-2.5,2.5s-2.5-1.1-2.5-2.5S11.5,6.5,12.9,6.5z"/>
	<path d="M18,19h-4v-2.1c1.7-0.2,3.3-1,4.6-2.3c0.4-0.4,0.4-1,0-1.4s-1-0.4-1.4,0c-2.4,2.4-6.2,2.3-8.5,0c-2.4-2.4-2.4-6.2,0-8.5
		c0.4-0.4,0.4-1,0-1.4s-1-0.4-1.4,0c-3.1,3.1-3.1,8.2,0,11.4c1.3,1.3,3,2.1,4.8,2.3V19H8c-0.6,0-1,0.4-1,1s0.4,1,1,1h10
		c0.6,0,1-0.4,1-1S18.6,19,18,19z"/>
</g>
</svg>
