<?xml version="1.0" encoding="utf-8"?>
<!-- Generator: Adobe Illustrator 20.0.0, SVG Export Plug-In . SVG Version: 6.00 Build 0)  -->
<!DOCTYPE svg PUBLIC "-//W3C//DTD SVG 1.1//EN" "http://www.w3.org/Graphics/SVG/1.1/DTD/svg11.dtd">
<svg version="1.1" id="Layer_1" xmlns="http://www.w3.org/2000/svg" xmlns:xlink="http://www.w3.org/1999/xlink" x="0px" y="0px"
	 viewBox="0 0 24 24" style="enable-background:new 0 0 24 24;" xml:space="preserve">
<style type="text/css">
	.st0{fill:#A5B2BD;}
	.st1{fill:#3197D6;}
</style>
<path d="M17,5h-4.6l-1.7-1.7C10.5,3.1,10.3,3,10,3H7C5.3,3,4,4.3,4,6v3C3.7,9,3.4,9.1,3.3,9.3S3,9.8,3,10.1l0.8,8.2
	C4,19.8,5.3,21,6.8,21h10.4c1.5,0,2.8-1.2,3-2.7l0.8-8.2c0-0.3-0.1-0.6-0.3-0.8S20.3,9,20,9V8C20,6.3,18.7,5,17,5z M18.2,18.1
	c-0.1,0.5-0.5,0.9-1,0.9H6.8c-0.5,0-0.9-0.4-1-0.9L5.1,11h13.8L18.2,18.1z M6,9V6c0-0.6,0.4-1,1-1h2.6l1.7,1.7C11.5,6.9,11.7,7,12,7
	h5c0.6,0,1,0.4,1,1v1H6z"/>
</svg>
