<?xml version="1.0" encoding="utf-8"?>
<!-- Generator: Adobe Illustrator 20.0.0, SVG Export Plug-In . SVG Version: 6.00 Build 0)  -->
<!DOCTYPE svg PUBLIC "-//W3C//DTD SVG 1.1//EN" "http://www.w3.org/Graphics/SVG/1.1/DTD/svg11.dtd">
<svg version="1.1" id="Layer_1" xmlns="http://www.w3.org/2000/svg" xmlns:xlink="http://www.w3.org/1999/xlink" x="0px" y="0px"
	 viewBox="0 0 24 24" style="enable-background:new 0 0 24 24;" xml:space="preserve">
<style type="text/css">
	.st0{fill:#A5B2BD;}
	.st1{fill:#3197D6;}
</style>
<g>
	<path d="M4.2,13.8l6.4-6.4l0,0c0.8-0.8,1.4-2,1.4-3.2c0-1.2-0.5-2.4-1.3-3.2L4.2,7.4l0,0c-0.8,0.8-1.4,2-1.4,3.2
		C2.9,11.9,3.4,13,4.2,13.8z"/>
	<path d="M19.8,10l-6.4,6.4l0,0c-0.8,0.8-1.4,2-1.4,3.2c0,1.2,0.5,2.4,1.3,3.2l6.4-6.4l0,0c0.8-0.8,1.4-2,1.4-3.2
		C21.1,12,20.6,10.9,19.8,10z"/>
	<path d="M15.2,5.5l-1.9,1.9l-2.7,2.7L8.8,12l-4.5,4.5c0,0,0,0,0,0c-0.8,0.8-1.4,2-1.4,3.2c0,1.2,0.5,2.4,1.3,3.2l4.5-4.5l1.9-1.9
		l2.7-2.7l1.9-1.9l4.6-4.6c0,0,0,0,0,0c0.8-0.8,1.4-2,1.4-3.2c0-1.2-0.5-2.4-1.3-3.2L15.2,5.5z"/>
</g>
</svg>
