<?xml version="1.0" encoding="utf-8"?>
<!-- Generator: Adobe Illustrator 20.0.0, SVG Export Plug-In . SVG Version: 6.00 Build 0)  -->
<!DOCTYPE svg PUBLIC "-//W3C//DTD SVG 1.1//EN" "http://www.w3.org/Graphics/SVG/1.1/DTD/svg11.dtd">
<svg version="1.1" id="Layer_1" xmlns="http://www.w3.org/2000/svg" xmlns:xlink="http://www.w3.org/1999/xlink" x="0px" y="0px"
	 viewBox="0 0 24 24" style="enable-background:new 0 0 24 24;" xml:space="preserve">
<style type="text/css">
	.st0{fill:#A5B2BD;}
	.st1{fill:#3197D6;}
</style>
<path d="M18,18H7c-1.7,0-3-1.3-3-3V9c0-1.7,1.3-3,3-3h11c1.7,0,3,1.3,3,3v6C21,16.7,19.7,18,18,18z M7,8C6.4,8,6,8.4,6,9v6
	c0,0.6,0.4,1,1,1h11c0.6,0,1-0.4,1-1V9c0-0.6-0.4-1-1-1H7z"/>
<path d="M20,13H5c-0.6,0-1-0.4-1-1s0.4-1,1-1h15c0.6,0,1,0.4,1,1S20.6,13,20,13z"/>
<path d="M15,18c-0.6,0-1-0.4-1-1V7c0-0.6,0.4-1,1-1s1,0.4,1,1v10C16,17.6,15.6,18,15,18z"/>
<path d="M10,18c-0.6,0-1-0.4-1-1V7c0-0.6,0.4-1,1-1s1,0.4,1,1v10C11,17.6,10.6,18,10,18z"/>
</svg>
