<?xml version="1.0" encoding="utf-8"?>
<!-- Generator: Adobe Illustrator 20.0.0, SVG Export Plug-In . SVG Version: 6.00 Build 0)  -->
<!DOCTYPE svg PUBLIC "-//W3C//DTD SVG 1.1//EN" "http://www.w3.org/Graphics/SVG/1.1/DTD/svg11.dtd">
<svg version="1.1" id="Layer_1" xmlns="http://www.w3.org/2000/svg" xmlns:xlink="http://www.w3.org/1999/xlink" x="0px" y="0px"
	 viewBox="0 0 24 24" style="enable-background:new 0 0 24 24;" xml:space="preserve">
<style type="text/css">
	.st0{fill:#A5B2BD;}
	.st1{fill:#3197D6;}
</style>
<g>
	<path d="M10.3,12.4c0.2,0.2,0.5,0.3,0.7,0.3s0.5-0.1,0.7-0.3l4-4c0.4-0.4,0.4-1,0-1.4s-1-0.4-1.4,0L11,10.2L9.7,8.9
		c-0.4-0.4-1-0.4-1.4,0s-0.4,1,0,1.4L10.3,12.4z"/>
	<path d="M6,21h12c1.7,0,3-1.3,3-3v-4c0,0,0-0.1,0-0.1c0,0,0-0.1,0-0.1l-2-10C18.9,3.3,18.5,3,18,3H6C5.5,3,5.1,3.3,5,3.8l-2,10
		c0,0,0,0.1,0,0.1c0,0,0,0.1,0,0.1v4C3,19.7,4.3,21,6,21z M19,18c0,0.6-0.4,1-1,1H6c-0.6,0-1-0.4-1-1v-3h2.6l1.7,1.7
		C9.5,16.9,9.7,17,10,17h4c0.3,0,0.5-0.1,0.7-0.3l1.7-1.7H19V18z M6.8,5h10.4l1.6,8H16c-0.3,0-0.5,0.1-0.7,0.3L13.6,15h-3.2
		l-1.7-1.7C8.5,13.1,8.3,13,8,13H5.2L6.8,5z"/>
</g>
</svg>
