<?xml version="1.0" encoding="utf-8"?>
<!-- Generator: Adobe Illustrator 20.1.0, SVG Export Plug-In . SVG Version: 6.00 Build 0)  -->
<!DOCTYPE svg PUBLIC "-//W3C//DTD SVG 1.1//EN" "http://www.w3.org/Graphics/SVG/1.1/DTD/svg11.dtd">
<svg version="1.1" id="Layer_1" xmlns="http://www.w3.org/2000/svg" xmlns:xlink="http://www.w3.org/1999/xlink" x="0px" y="0px"
	 viewBox="0 0 24 24" style="enable-background:new 0 0 24 24;" xml:space="preserve">
<g>
	<path d="M9,14L9,14c-0.6,0-1,0.4-1,1s0.5,1,1,1c0.6,0,1-0.4,1-1S9.6,14,9,14z"/>
	<path d="M19,4h-3c-0.3,0-0.5,0.1-0.7,0.3l-1,1C14.1,5.5,14,5.7,14,6v1h-1c-0.3,0-0.5,0.1-0.7,0.3l-0.9,0.9C10.9,8.1,10.5,8,10,8
		c-3.3,0-6,2.7-6,6s2.7,6,6,6s6-2.7,6-6c0-0.5-0.1-0.9-0.2-1.4l3.9-3.9C19.9,8.5,20,8.3,20,8V5C20,4.4,19.6,4,19,4z M18,7.6l-4,4
		c-0.3,0.3-0.4,0.7-0.2,1c0.2,0.5,0.3,0.9,0.3,1.3c0,2.2-1.8,4-4,4s-4-1.8-4-4s1.8-4,4-4c0.4,0,0.9,0.1,1.3,0.3c0.4,0.1,0.8,0,1-0.2
		l1-1H15c0.6,0,1-0.4,1-1V6.4L16.4,6H18V7.6z"/>
</g>
</svg>
