<?xml version="1.0" encoding="utf-8"?>
<!-- Generator: Adobe Illustrator 20.0.0, SVG Export Plug-In . SVG Version: 6.00 Build 0)  -->
<!DOCTYPE svg PUBLIC "-//W3C//DTD SVG 1.1//EN" "http://www.w3.org/Graphics/SVG/1.1/DTD/svg11.dtd">
<svg version="1.1" id="Layer_1" xmlns="http://www.w3.org/2000/svg" xmlns:xlink="http://www.w3.org/1999/xlink" x="0px" y="0px"
	 viewBox="0 0 24 24" style="enable-background:new 0 0 24 24;" xml:space="preserve">
<style type="text/css">
	.st0{fill:#A5B2BD;}
	.st1{fill:#3197D6;}
</style>
<g>
	<path d="M20,3h-3c-0.3,0-0.5,0.1-0.7,0.3l-1,1C15.1,4.5,15,4.7,15,5v1h-1c-0.3,0-0.5,0.1-0.7,0.3l-1.6,1.6c-0.2,0.2-0.6,0.3-1,0.3
		C9.8,7.9,8.8,8,7.9,8.2c-2.4,0.6-4.2,2.5-4.7,4.9c-0.5,2.2,0.2,4.5,1.8,6C6.1,20.3,7.8,21,9.5,21c0.5,0,0.9,0,1.4-0.2
		c2.4-0.5,4.3-2.4,4.9-4.7c0.2-1,0.3-1.9,0.1-2.9c-0.1-0.4,0-0.7,0.3-1l4.6-4.6C20.9,7.5,21,7.3,21,7V4C21,3.4,20.6,3,20,3z M19,6.6
		l-4.3,4.3c-0.7,0.7-1,1.7-0.8,2.8c0.1,0.7,0.1,1.3-0.1,2c-0.4,1.6-1.7,2.9-3.4,3.3c-1.6,0.3-3.1-0.1-4.2-1.2s-1.5-2.6-1.2-4.2
		c0.3-1.6,1.7-3,3.3-3.4C8.7,10,9.1,10,9.5,10c0.3,0,0.6,0,0.9,0.1c1,0.2,2.1-0.1,2.8-0.8L14.4,8H16c0.6,0,1-0.4,1-1V5.4L17.4,5H19
		V6.6z"/>
	<path d="M9,14L9,14c-0.6,0-1,0.4-1,1s0.5,1,1,1c0.6,0,1-0.4,1-1S9.6,14,9,14z"/>
</g>
</svg>
