<?xml version="1.0" encoding="utf-8"?>
<!-- Generator: Adobe Illustrator 20.0.0, SVG Export Plug-In . SVG Version: 6.00 Build 0)  -->
<!DOCTYPE svg PUBLIC "-//W3C//DTD SVG 1.1//EN" "http://www.w3.org/Graphics/SVG/1.1/DTD/svg11.dtd">
<svg version="1.1" id="Layer_1" xmlns="http://www.w3.org/2000/svg" xmlns:xlink="http://www.w3.org/1999/xlink" x="0px" y="0px"
	 viewBox="0 0 24 24" style="enable-background:new 0 0 24 24;" xml:space="preserve">
<style type="text/css">
	.st0{fill:#A5B2BD;}
	.st1{fill:#3197D6;}
</style>
<path d="M20,16V8c0-1.7-1.3-3-3-3H7C5.3,5,4,6.3,4,8v8c0,1.7,1.3,3,3,3h10C18.7,19,20,17.7,20,16z M7,7h10c0.6,0,1,0.4,1,1v5.6
	l-2.3-2.3c-0.4-0.4-1-0.4-1.4,0L13,12.6L9.7,9.3c-0.4-0.4-1-0.4-1.4,0L6,11.6V8C6,7.4,6.4,7,7,7z M17,17H7c-0.6,0-1-0.4-1-1v-1.6
	l3-3l3.3,3.3c0.4,0.4,1,0.4,1.4,0l1.3-1.3l2.9,2.9C17.8,16.7,17.4,17,17,17z"/>
</svg>
