<?xml version="1.0" encoding="utf-8"?>
<!-- Generator: Adobe Illustrator 20.0.0, SVG Export Plug-In . SVG Version: 6.00 Build 0)  -->
<!DOCTYPE svg PUBLIC "-//W3C//DTD SVG 1.1//EN" "http://www.w3.org/Graphics/SVG/1.1/DTD/svg11.dtd">
<svg version="1.1" id="Layer_1" xmlns="http://www.w3.org/2000/svg" xmlns:xlink="http://www.w3.org/1999/xlink" x="0px" y="0px"
	 viewBox="0 0 24 24" style="enable-background:new 0 0 24 24;" xml:space="preserve">
<style type="text/css">
	.st0{fill:#A5B2BD;}
	.st1{fill:#3197D6;}
</style>
<path d="M19.4,14.4l-2.1-2.1c-0.8-0.8-2-0.8-2.8,0l-0.9,0.9c-1.2-0.6-2.2-1.6-2.8-2.8l0.9-0.9c0.8-0.8,0.8-2,0-2.8L9.6,4.6
	c-0.8-0.8-2.1-0.8-2.8,0L5.7,5.6c-0.8,0.8-1.4,1.9-1.6,3c-0.3,1.6,0,3.2,1,4.6c1.6,2.2,3.5,4.1,5.7,5.7c1,0.7,2.2,1.1,3.4,1.1
	c0.4,0,0.8,0,1.1-0.1c1.1-0.2,2.2-0.8,3-1.6l1.1-1.1c0.4-0.4,0.6-0.9,0.6-1.4S19.8,14.8,19.4,14.4z M16.9,16.9
	c-0.5,0.5-1.2,0.9-2,1.1h0c-1,0.2-2.1,0-3-0.6c-2-1.5-3.8-3.2-5.2-5.2c-0.6-0.9-0.9-2-0.6-3c0.1-0.7,0.5-1.4,1.1-2L8.2,6l2.1,2.1
	L8.9,9.5c-0.3,0.3-0.4,0.7-0.2,1.1c0.9,2.2,2.6,3.9,4.8,4.8c0.4,0.1,0.8,0.1,1.1-0.2l1.4-1.4l2.1,2.1L16.9,16.9z"/>
</svg>
