<?xml version="1.0" encoding="utf-8"?>
<!-- Generator: Adobe Illustrator 20.0.0, SVG Export Plug-In . SVG Version: 6.00 Build 0)  -->
<!DOCTYPE svg PUBLIC "-//W3C//DTD SVG 1.1//EN" "http://www.w3.org/Graphics/SVG/1.1/DTD/svg11.dtd">
<svg version="1.1" id="Layer_1" xmlns="http://www.w3.org/2000/svg" xmlns:xlink="http://www.w3.org/1999/xlink" x="0px" y="0px"
	 viewBox="0 0 24 24" style="enable-background:new 0 0 24 24;" xml:space="preserve">
<style type="text/css">
	.st0{fill:#A5B2BD;}
	.st1{fill:#3197D6;}
</style>
<path d="M15.5,4.5C14.6,3.5,13.3,3,12,3C9.2,3,7,5.2,7,8v2.2c-1.2,0.4-2,1.5-2,2.8v5c0,1.7,1.3,3,3,3h8c1.7,0,3-1.3,3-3v-5
	c0-1.3-0.8-2.4-2-2.8V8C17,6.7,16.5,5.4,15.5,4.5z M9,8c0-1.7,1.3-3,3-3c0.8,0,1.6,0.3,2.1,0.9C14.7,6.4,15,7.2,15,8v2H9V8z M17,18
	c0,0.6-0.4,1-1,1H8c-0.6,0-1-0.4-1-1v-5c0-0.6,0.4-1,1-1h8c0.6,0,1,0.4,1,1V18z"/>
</svg>
