<?xml version="1.0" encoding="utf-8"?>
<!-- Generator: Adobe Illustrator 20.0.0, SVG Export Plug-In . SVG Version: 6.00 Build 0)  -->
<!DOCTYPE svg PUBLIC "-//W3C//DTD SVG 1.1//EN" "http://www.w3.org/Graphics/SVG/1.1/DTD/svg11.dtd">
<svg version="1.1" id="Layer_1" xmlns="http://www.w3.org/2000/svg" xmlns:xlink="http://www.w3.org/1999/xlink" x="0px" y="0px"
	 viewBox="0 0 24 24" style="enable-background:new 0 0 24 24;" xml:space="preserve">
<style type="text/css">
	.st0{fill:#A5B2BD;}
	.st1{fill:#3197D6;}
</style>
<path d="M18,3.9C17.4,3.3,16.6,3,15.8,3c0,0,0,0,0,0c-0.8,0-1.6,0.3-2.1,0.9L3.3,14.4C3.1,14.6,3,14.9,3,15.1V20c0,0.6,0.4,1,1,1h5
	c0.3,0,0.5-0.1,0.7-0.3l10.4-10.4C20.7,9.7,21,9,21,8.2c0-0.8-0.3-1.6-0.9-2.1L18,3.9z M10.5,17.1L7,13.6l5.6-5.6l3.6,3.6L10.5,17.1
	z M8.6,19H5v-3.4L5.6,15l3.5,3.5L8.6,19z M18.7,8.9l-1.2,1.2l-3.6-3.6l1.2-1.2C15.3,5.1,15.6,5,15.8,5c0,0,0,0,0,0
	c0.3,0,0.5,0.1,0.7,0.3l2.2,2.2C18.9,7.6,19,7.9,19,8.2C19,8.4,18.9,8.7,18.7,8.9z"/>
</svg>
