<?xml version="1.0" encoding="utf-8"?>
<!-- Generator: Adobe Illustrator 20.0.0, SVG Export Plug-In . SVG Version: 6.00 Build 0)  -->
<!DOCTYPE svg PUBLIC "-//W3C//DTD SVG 1.1//EN" "http://www.w3.org/Graphics/SVG/1.1/DTD/svg11.dtd">
<svg version="1.1" id="Layer_1" xmlns="http://www.w3.org/2000/svg" xmlns:xlink="http://www.w3.org/1999/xlink" x="0px" y="0px"
	 viewBox="0 0 24 24" style="enable-background:new 0 0 24 24;" xml:space="preserve">
<style type="text/css">
	.st0{fill:#A5B2BD;}
	.st1{fill:#3197D6;}
</style>
<g>
	<path d="M6,21h12c1.7,0,3-1.3,3-3v-4c0,0,0-0.1,0-0.1c0,0,0-0.1,0-0.1l-0.4-1.9c-0.1-0.5-0.6-0.9-1.2-0.8c-0.5,0.1-0.9,0.6-0.8,1.2
		l0.1,0.8H16c-0.3,0-0.5,0.1-0.7,0.3L13.6,15h-3.2l-1.7-1.7C8.5,13.1,8.3,13,8,13H5.2l1.6-8H11c0.6,0,1-0.4,1-1s-0.4-1-1-1H6
		C5.5,3,5.1,3.3,5,3.8l-2,10c0,0,0,0.1,0,0.1c0,0,0,0.1,0,0.1v4C3,19.7,4.3,21,6,21z M9.3,16.7C9.5,16.9,9.7,17,10,17h4
		c0.3,0,0.5-0.1,0.7-0.3l1.7-1.7H19v3c0,0.6-0.4,1-1,1H6c-0.6,0-1-0.4-1-1v-3h2.6L9.3,16.7z"/>
	<path d="M17,11c0.6,0,1-0.4,1-1V8h2c0.6,0,1-0.4,1-1s-0.4-1-1-1h-2V4c0-0.6-0.4-1-1-1s-1,0.4-1,1v2h-2c-0.6,0-1,0.4-1,1s0.4,1,1,1
		h2v2C16,10.6,16.4,11,17,11z"/>
</g>
</svg>
