<?xml version="1.0" encoding="utf-8"?>
<!-- Generator: Adobe Illustrator 20.0.0, SVG Export Plug-In . SVG Version: 6.00 Build 0)  -->
<!DOCTYPE svg PUBLIC "-//W3C//DTD SVG 1.1//EN" "http://www.w3.org/Graphics/SVG/1.1/DTD/svg11.dtd">
<svg version="1.1" id="Layer_1" xmlns="http://www.w3.org/2000/svg" xmlns:xlink="http://www.w3.org/1999/xlink" x="0px" y="0px"
	 viewBox="0 0 24 24" style="enable-background:new 0 0 24 24;" xml:space="preserve">
<style type="text/css">
	.st0{fill:#A5B2BD;}
	.st1{fill:#3197D6;}
</style>
<path d="M17.6,7.1C17.8,6.9,18,6.6,18,6.3c0-0.3-0.2-0.6-0.4-0.8C16.2,4.5,14.6,4,13,4c-4.4,0-8,3.6-8,8s3.6,8,8,8
	c1.6,0,3.2-0.5,4.6-1.4c0.3-0.2,0.4-0.5,0.4-0.8c0-0.3-0.2-0.6-0.4-0.8C16,15.8,15,14,15,12S16,8.2,17.6,7.1z M13,12
	c0,2.1,0.8,4.1,2.3,5.6C14.5,17.8,13.8,18,13,18c-3.3,0-6-2.7-6-6s2.7-6,6-6c0.8,0,1.5,0.2,2.3,0.4C13.8,7.9,13,9.9,13,12z"/>
</svg>
