<?xml version="1.0" encoding="utf-8"?>
<!-- Generator: Adobe Illustrator 20.1.0, SVG Export Plug-In . SVG Version: 6.00 Build 0)  -->
<!DOCTYPE svg PUBLIC "-//W3C//DTD SVG 1.1//EN" "http://www.w3.org/Graphics/SVG/1.1/DTD/svg11.dtd">
<svg version="1.1" id="Layer_1" xmlns="http://www.w3.org/2000/svg" xmlns:xlink="http://www.w3.org/1999/xlink" x="0px" y="0px"
	 viewBox="0 0 24 24" style="enable-background:new 0 0 24 24;" xml:space="preserve">
<path d="M6,20h4c0.3,0,0.5-0.1,0.7-0.3l8.4-8.4C19.7,10.7,20,10,20,9.2S19.7,7.6,19.1,7L17,4.9C16.4,4.3,15.6,4,14.8,4
	c-0.8,0-1.6,0.3-2.1,0.9l-8.4,8.5C4.1,13.6,4,13.9,4,14.1V18C4,19.1,4.9,20,6,20z M11.5,8.9l3.6,3.6l-3.6,3.6L8,12.6L11.5,8.9z
	 M14.8,6C14.8,6,14.8,6,14.8,6c0.3,0,0.5,0.1,0.7,0.3l2.2,2.2c0,0,0,0,0,0C17.9,8.6,18,8.9,18,9.2s-0.1,0.5-0.3,0.7l-1.2,1.2
	l-3.6-3.6l1.2-1.2C14.3,6.1,14.6,6,14.8,6z M6,14.6L6.6,14l3.5,3.5L9.6,18H6V14.6z"/>
</svg>
