<?xml version="1.0" encoding="utf-8"?>
<!-- Generator: Adobe Illustrator 20.0.0, SVG Export Plug-In . SVG Version: 6.00 Build 0)  -->
<!DOCTYPE svg PUBLIC "-//W3C//DTD SVG 1.1//EN" "http://www.w3.org/Graphics/SVG/1.1/DTD/svg11.dtd">
<svg version="1.1" id="Layer_1" xmlns="http://www.w3.org/2000/svg" xmlns:xlink="http://www.w3.org/1999/xlink" x="0px" y="0px"
	 viewBox="0 0 24 24" style="enable-background:new 0 0 24 24;" xml:space="preserve">
<style type="text/css">
	.st0{fill:#A5B2BD;}
	.st1{fill:#3197D6;}
</style>
<path d="M20.2,7.4l-4-3.6c-1.2-1.1-3.1-1.1-4.3,0l-4,3.6C7.4,7.8,7.1,8.4,7,9H6c-1.7,0-3,1.3-3,3v6c0,1.7,1.3,3,3,3h8
	c1.7,0,3-1.3,3-3v-1h1.5c1.4,0,2.5-1.1,2.5-2.5V9.3C21,8.6,20.7,7.9,20.2,7.4z M13.2,5.4C13.4,5.2,13.7,5,14,5s0.6,0.1,0.8,0.3
	l3.6,3.2l-4.1,3.2c-0.2,0.1-0.4,0.1-0.6,0L9.6,8.6L10,8.2L13.2,5.4z M15,18c0,0.6-0.4,1-1,1H6c-0.6,0-1-0.4-1-1v-6c0-0.6,0.4-1,1-1
	h1v3.5C7,15.8,8.1,17,9.5,17H15V18z M18.5,15h-9C9.2,15,9,14.7,9,14.5v-3.8l3.5,2.7c0.5,0.4,1,0.5,1.5,0.5s1.1-0.2,1.5-0.5l3.5-2.7
	v3.8C19,14.7,18.8,15,18.5,15z"/>
</svg>
