<?xml version="1.0" encoding="utf-8"?>
<!-- Generator: Adobe Illustrator 20.0.0, SVG Export Plug-In . SVG Version: 6.00 Build 0)  -->
<!DOCTYPE svg PUBLIC "-//W3C//DTD SVG 1.1//EN" "http://www.w3.org/Graphics/SVG/1.1/DTD/svg11.dtd">
<svg version="1.1" id="Layer_1" xmlns="http://www.w3.org/2000/svg" xmlns:xlink="http://www.w3.org/1999/xlink" x="0px" y="0px"
	 viewBox="0 0 24 24" style="enable-background:new 0 0 24 24;" xml:space="preserve">
<style type="text/css">
	.st0{fill:#A5B2BD;}
	.st1{fill:#3197D6;}
	.st2{fill:none;stroke:#72808E;stroke-width:2;stroke-linecap:round;stroke-linejoin:round;stroke-miterlimit:10;}
	.st3{fill:none;stroke:#A4B2BC;stroke-width:2;stroke-linecap:round;stroke-linejoin:round;stroke-miterlimit:10;}
</style>
<path d="M14.7,8.3c-0.4-0.4-1-0.4-1.4,0l-1.8,1.8L9.7,8.3c-0.4-0.4-1-0.4-1.4,0s-0.4,1,0,1.4l1.8,1.8l-1.8,1.8c-0.4,0.4-0.4,1,0,1.4
	C8.5,14.9,8.7,15,9,15s0.5-0.1,0.7-0.3l1.8-1.8l1.8,1.8c0.2,0.2,0.5,0.3,0.7,0.3s0.5-0.1,0.7-0.3c0.4-0.4,0.4-1,0-1.4l-1.8-1.8
	l1.8-1.8C15.1,9.3,15.1,8.7,14.7,8.3z"/>
</svg>
