<?xml version="1.0" encoding="utf-8"?>
<!-- Generator: Adobe Illustrator 20.0.0, SVG Export Plug-In . SVG Version: 6.00 Build 0)  -->
<!DOCTYPE svg PUBLIC "-//W3C//DTD SVG 1.1//EN" "http://www.w3.org/Graphics/SVG/1.1/DTD/svg11.dtd">
<svg version="1.1" id="Layer_1" xmlns="http://www.w3.org/2000/svg" xmlns:xlink="http://www.w3.org/1999/xlink" x="0px" y="0px"
	 viewBox="0 0 24 24" style="enable-background:new 0 0 24 24;" xml:space="preserve">
<style type="text/css">
	.st0{fill:#A5B2BD;}
	.st1{fill:#3197D6;}
	.st2{fill:none;stroke:#72808E;stroke-width:2;stroke-linecap:round;stroke-linejoin:round;stroke-miterlimit:10;}
	.st3{fill:none;stroke:#A4B2BC;stroke-width:2;stroke-linecap:round;stroke-linejoin:round;stroke-miterlimit:10;}
</style>
<path d="M12,5c-3.9,0-7,3.1-7,7c0,1,0.2,1.9,0.6,2.8l-0.6,3c-0.1,0.3,0,0.7,0.3,0.9C5.5,18.9,5.7,19,6,19c0.1,0,0.1,0,0.2,0l3-0.6
	C10.1,18.8,11,19,12,19c3.9,0,7-3.1,7-7S15.9,5,12,5z M12,17c-0.8,0-1.5-0.2-2.3-0.5c-0.1-0.1-0.3-0.1-0.5-0.1c-0.1,0-0.1,0-0.2,0
	l-1.9,0.4l0.4-1.9c0-0.2,0-0.4-0.1-0.6C7.2,13.5,7,12.8,7,12c0-2.8,2.2-5,5-5s5,2.2,5,5S14.8,17,12,17z"/>
</svg>
