<?xml version="1.0" encoding="utf-8"?>
<!-- Generator: Adobe Illustrator 20.1.0, SVG Export Plug-In . SVG Version: 6.00 Build 0)  -->
<!DOCTYPE svg PUBLIC "-//W3C//DTD SVG 1.1//EN" "http://www.w3.org/Graphics/SVG/1.1/DTD/svg11.dtd">
<svg version="1.1" id="Layer_1" xmlns="http://www.w3.org/2000/svg" xmlns:xlink="http://www.w3.org/1999/xlink" x="0px" y="0px"
	 viewBox="0 0 24 24" style="enable-background:new 0 0 24 24;" xml:space="preserve">
<g>
	<path d="M19.3,6.3C19,4.9,17.8,4,16.4,4H7.6C6.2,4,5,4.9,4.7,6.3L4,8.8C4,8.8,4,8.9,4,9v1c0,1.3,0.8,2.4,2,2.8V19c0,0.6,0.4,1,1,1
		h10c0.6,0,1-0.4,1-1v-6.2c1.2-0.4,2-1.5,2-2.8V9c0-0.1,0-0.2,0-0.2L19.3,6.3z M16,18h-5v-4H9v4H8v-5h8V18z M18,10c0,0.6-0.4,1-1,1
		v-1c0-0.6-0.4-1-1-1s-1,0.4-1,1v1h-2v-1c0-0.6-0.4-1-1-1s-1,0.4-1,1v1H9v-1c0-0.6-0.4-1-1-1s-1,0.4-1,1v1c-0.6,0-1-0.4-1-1V9.1
		l0.6-2.4C6.7,6.3,7.1,6,7.6,6h8.9c0.5,0,0.9,0.3,1,0.8L18,9.1V10z"/>
	<path d="M13,16h1c0.6,0,1-0.4,1-1s-0.4-1-1-1h-1c-0.6,0-1,0.4-1,1S12.4,16,13,16z"/>
</g>
</svg>
