<?xml version="1.0" encoding="utf-8"?>
<!-- Generator: Adobe Illustrator 20.0.0, SVG Export Plug-In . SVG Version: 6.00 Build 0)  -->
<!DOCTYPE svg PUBLIC "-//W3C//DTD SVG 1.1//EN" "http://www.w3.org/Graphics/SVG/1.1/DTD/svg11.dtd">
<svg version="1.1" id="Layer_1" xmlns="http://www.w3.org/2000/svg" xmlns:xlink="http://www.w3.org/1999/xlink" x="0px" y="0px"
	 viewBox="0 0 24 24" style="enable-background:new 0 0 24 24;" xml:space="preserve">
<style type="text/css">
	.st0{fill:#A5B2BD;}
	.st1{fill:#3197D6;}
</style>
<path d="M9,21c-0.1,0-0.3,0-0.4-0.1c-0.4-0.2-0.6-0.6-0.6-1L8.9,13H7c-0.3,0-0.6-0.1-0.8-0.4S6,12.1,6,11.8l2-8C8.1,3.3,8.5,3,9,3h7
	c0.3,0,0.6,0.1,0.8,0.4S17,4,17,4.3L15.3,10H18c0.4,0,0.8,0.2,0.9,0.6c0.2,0.4,0.1,0.8-0.2,1.1l-9,9C9.5,20.9,9.3,21,9,21z M8.3,11
	H10c0.3,0,0.6,0.1,0.7,0.3c0.2,0.2,0.3,0.5,0.2,0.8l-0.6,5.1l5.2-5.2H14c-0.3,0-0.6-0.1-0.8-0.4S13,11,13,10.7L14.7,5H9.8L8.3,11z"
	/>
</svg>
