<?xml version="1.0" encoding="utf-8"?>
<!-- Generator: Adobe Illustrator 20.0.0, SVG Export Plug-In . SVG Version: 6.00 Build 0)  -->
<!DOCTYPE svg PUBLIC "-//W3C//DTD SVG 1.1//EN" "http://www.w3.org/Graphics/SVG/1.1/DTD/svg11.dtd">
<svg version="1.1" id="Layer_1" xmlns="http://www.w3.org/2000/svg" xmlns:xlink="http://www.w3.org/1999/xlink" x="0px" y="0px"
	 viewBox="0 0 24 24" style="enable-background:new 0 0 24 24;" xml:space="preserve">
<style type="text/css">
	.st0{fill:#A5B2BD;}
	.st1{fill:#3197D6;}
</style>
<g>
	<path d="M20.9,8.6L20.9,8.6L20.9,8.6l-1.7-4.4c-0.3-0.8-1-1.3-1.9-1.3H6.7C5.9,3,5.1,3.5,4.8,4.3L3.1,8.6c0,0,0,0,0,0l0,0
		C3,8.7,3,8.8,3,9c0,0,0,0,0,0v2c0,1.1,0.9,2,2,2v6c0,1.1,0.9,2,2,2h10c1.1,0,2-0.9,2-2v-6c1.1,0,2-0.9,2-2V9c0,0,0,0,0,0
		C21,8.8,21,8.7,20.9,8.6z M18.5,8h-2.7l-0.6-3h2.1L18.5,8z M13.8,8h-3.6l0.6-3h2.4L13.8,8z M6.7,5h2.1L8.2,8H5.5L6.7,5z M11,19h-1
		v-3h1V19z M17,19h-4v-4c0-0.6-0.4-1-1-1H9c-0.6,0-1,0.4-1,1v4H7v-6h10L17,19z M18,11H6H5v-1h14v1H18z"/>
	<path d="M15,18c0.6,0,1-0.4,1-1v-2c0-0.6-0.4-1-1-1s-1,0.4-1,1v2C14,17.6,14.4,18,15,18z"/>
</g>
</svg>
