<?xml version="1.0" encoding="utf-8"?>
<!-- Generator: Adobe Illustrator 20.1.0, SVG Export Plug-In . SVG Version: 6.00 Build 0)  -->
<!DOCTYPE svg PUBLIC "-//W3C//DTD SVG 1.1//EN" "http://www.w3.org/Graphics/SVG/1.1/DTD/svg11.dtd">
<svg version="1.1" id="Layer_1" xmlns="http://www.w3.org/2000/svg" xmlns:xlink="http://www.w3.org/1999/xlink" x="0px" y="0px"
	 viewBox="0 0 24 24" style="enable-background:new 0 0 24 24;" xml:space="preserve">
<path d="M18.9,7.2l-3-2.5c-1.1-0.9-2.7-0.9-3.8,0l-3,2.5C8.6,7.7,8.2,8.3,8.1,9H7c-1.7,0-3,1.3-3,3v5c0,1.7,1.3,3,3,3h6
	c1.7,0,3-1.3,3-3v-1h1c1.7,0,3-1.3,3-3V9.6C20,8.7,19.6,7.8,18.9,7.2z M13.4,6.3c0.2-0.1,0.4-0.2,0.6-0.2s0.5,0.1,0.6,0.2l2.8,2.3
	l-2.8,2.1c-0.4,0.3-0.9,0.3-1.2,0l-2.8-2.1L13.4,6.3z M14,17c0,0.6-0.4,1-1,1H7c-0.6,0-1-0.4-1-1v-5c0-0.6,0.4-1,1-1h1v2
	c0,1.7,1.3,3,3,3h3V17z M17,14h-6c-0.6,0-1-0.4-1-1v-2.3l2.2,1.7c0.5,0.4,1.2,0.6,1.8,0.6c0.6,0,1.3-0.2,1.8-0.6l2.2-1.7V13
	C18,13.6,17.6,14,17,14z"/>
</svg>
