<?xml version="1.0" encoding="utf-8"?>
<!-- Generator: Adobe Illustrator 20.0.0, SVG Export Plug-In . SVG Version: 6.00 Build 0)  -->
<!DOCTYPE svg PUBLIC "-//W3C//DTD SVG 1.1//EN" "http://www.w3.org/Graphics/SVG/1.1/DTD/svg11.dtd">
<svg version="1.1" id="Layer_1" xmlns="http://www.w3.org/2000/svg" xmlns:xlink="http://www.w3.org/1999/xlink" x="0px" y="0px"
	 viewBox="0 0 24 24" style="enable-background:new 0 0 24 24;" xml:space="preserve">
<style type="text/css">
	.st0{fill:#A5B2BD;}
	.st1{fill:#3197D6;}
</style>
<g>
	<path d="M17,5H7C5.3,5,4,6.3,4,8v5c0,1.7,1.3,3,3,3h10c1.7,0,3-1.3,3-3V8C20,6.3,18.7,5,17,5z M18,13c0,0.6-0.4,1-1,1H7
		c-0.6,0-1-0.4-1-1V8c0-0.6,0.4-1,1-1h10c0.6,0,1,0.4,1,1V13z"/>
	<path d="M14,17h-4c-0.6,0-1,0.4-1,1s0.4,1,1,1h4c0.6,0,1-0.4,1-1S14.6,17,14,17z"/>
</g>
</svg>
