<?xml version="1.0" encoding="utf-8"?>
<!-- Generator: Adobe Illustrator 20.1.0, SVG Export Plug-In . SVG Version: 6.00 Build 0)  -->
<!DOCTYPE svg PUBLIC "-//W3C//DTD SVG 1.1//EN" "http://www.w3.org/Graphics/SVG/1.1/DTD/svg11.dtd">
<svg version="1.1" id="Layer_1" xmlns="http://www.w3.org/2000/svg" xmlns:xlink="http://www.w3.org/1999/xlink" x="0px" y="0px"
	 viewBox="0 0 24 24" style="enable-background:new 0 0 24 24;" xml:space="preserve">
<path d="M5.6,17.9c-0.1,0.7,0.2,1.4,0.7,1.8c0.6,0.4,1.3,0.5,2,0.2l3.3-1.7l3.3,1.7c0.3,0.1,0.6,0.2,0.9,0.2c0.4,0,0.8-0.1,1.1-0.4
	c0.6-0.4,0.8-1.1,0.7-1.8l-0.6-3.5l2.6-2.5c0.5-0.5,0.7-1.2,0.5-1.9c-0.2-0.7-0.8-1.2-1.5-1.3l-3.6-0.5L13.2,5c-0.3-0.6-0.9-1-1.7-1
	s-1.3,0.4-1.7,1L8.2,8.2L4.6,8.7C3.9,8.8,3.3,9.3,3.1,10c-0.2,0.7,0,1.4,0.5,1.9l2.6,2.5L5.6,17.9z M5.2,10.7l3.4-0.5
	c0.6-0.1,1.1-0.5,1.4-1l1.5-3l1.5,3c0.3,0.5,0.8,0.9,1.4,1l3.4,0.5L15.4,13c-0.4,0.4-0.6,1-0.5,1.6l0.6,3.3l-3.1-1.6
	c-0.5-0.3-1.2-0.3-1.7,0l-3.1,1.6l0.6-3.3C8.3,14,8.1,13.4,7.6,13L5.2,10.7z"/>
</svg>
