<?xml version="1.0" encoding="utf-8"?>
<!-- Generator: Adobe Illustrator 20.1.0, SVG Export Plug-In . SVG Version: 6.00 Build 0)  -->
<!DOCTYPE svg PUBLIC "-//W3C//DTD SVG 1.1//EN" "http://www.w3.org/Graphics/SVG/1.1/DTD/svg11.dtd">
<svg version="1.1" id="Layer_1" xmlns="http://www.w3.org/2000/svg" xmlns:xlink="http://www.w3.org/1999/xlink" x="0px" y="0px"
	 viewBox="0 0 24 24" style="enable-background:new 0 0 24 24;" xml:space="preserve">
<path d="M17.7,12.7l-0.3-0.1C18.4,11.7,19,10.4,19,9c0-2.8-2.2-5-5-5c-2,0-3.8,1.2-4.6,3.1C6.9,7.4,5,9.4,5,12
	c0,1.4,0.6,2.7,1.5,3.6l-0.3,0.1C4.9,16,4,17.2,4,18.6V19c0,0.6,0.4,1,1,1s1-0.4,1-1v-0.4c0-0.5,0.3-0.9,0.8-1L9.1,17h1.8l2.4,0.6
	c0.4,0.1,0.8,0.5,0.8,1V19c0,0.6,0.4,1,1,1s1-0.4,1-1v-0.4c0-1.4-0.9-2.6-2.3-2.9l-0.3-0.1c0.5-0.5,0.9-1,1.1-1.6c0,0,0,0,0.1,0
	c0,0,0.1,0,0.1,0l2.5,0.6c0.4,0.1,0.8,0.5,0.8,1V16c0,0.6,0.4,1,1,1s1-0.4,1-1v-0.4C20,14.2,19.1,13,17.7,12.7z M14,6
	c1.7,0,3,1.3,3,3c0,1.3-0.8,2.4-2,2.8c-0.1-2.1-1.5-3.9-3.4-4.5C12.1,6.5,13,6,14,6z M10,9c1.7,0,3,1.3,3,3s-1.3,3-3,3s-3-1.3-3-3
	S8.3,9,10,9z"/>
</svg>
