<?xml version="1.0" encoding="utf-8"?>
<!-- Generator: Adobe Illustrator 20.0.0, SVG Export Plug-In . SVG Version: 6.00 Build 0)  -->
<!DOCTYPE svg PUBLIC "-//W3C//DTD SVG 1.1//EN" "http://www.w3.org/Graphics/SVG/1.1/DTD/svg11.dtd">
<svg version="1.1" id="Layer_1" xmlns="http://www.w3.org/2000/svg" xmlns:xlink="http://www.w3.org/1999/xlink" x="0px" y="0px"
	 viewBox="0 0 24 24" style="enable-background:new 0 0 24 24;" xml:space="preserve">
<style type="text/css">
	.st0{fill:#A5B2BD;}
	.st1{fill:#3197D6;}
	.st2{fill:none;stroke:#72808E;stroke-width:2;stroke-linecap:round;stroke-linejoin:round;stroke-miterlimit:10;}
	.st3{fill:none;stroke:#A4B2BC;stroke-width:2;stroke-linecap:round;stroke-linejoin:round;stroke-miterlimit:10;}
</style>
<path d="M16,6H8C6.3,6,5,7.3,5,9v6c0,1.7,1.3,3,3,3h8c1.7,0,3-1.3,3-3V9C19,7.3,17.7,6,16,6z M16,8c0.2,0,0.4,0.1,0.5,0.2
	c0,0-0.1,0-0.1,0.1L12,11.7L7.6,8.2c0,0-0.1,0-0.1-0.1C7.6,8.1,7.8,8,8,8H16z M16,16H8c-0.6,0-1-0.4-1-1v-4.7l4.4,3.5
	c0.2,0.1,0.4,0.2,0.6,0.2s0.4-0.1,0.6-0.2l4.4-3.5V15C17,15.6,16.6,16,16,16z"/>
</svg>
