<?xml version="1.0" encoding="utf-8"?>
<!-- Generator: Adobe Illustrator 20.0.0, SVG Export Plug-In . SVG Version: 6.00 Build 0)  -->
<!DOCTYPE svg PUBLIC "-//W3C//DTD SVG 1.1//EN" "http://www.w3.org/Graphics/SVG/1.1/DTD/svg11.dtd">
<svg version="1.1" id="Layer_1" xmlns="http://www.w3.org/2000/svg" xmlns:xlink="http://www.w3.org/1999/xlink" x="0px" y="0px"
	 viewBox="0 0 24 24" style="enable-background:new 0 0 24 24;" xml:space="preserve">
<style type="text/css">
	.st0{fill:#A5B2BD;}
	.st1{fill:#3197D6;}
</style>
<g>
	<path d="M17.3,3.9C16.7,3.3,16,3,15.2,3H11C9.9,3,8.9,3.6,8.3,4.6C8.1,5,8,5.5,8,6c0,0.6,0.4,1,1,1s1-0.4,1-1c0-0.2,0-0.3,0.1-0.5
		C10.3,5.2,10.6,5,11,5h3v2c0,1.7,1.3,3,3,3h2v8c0,0.6-0.4,1-1,1h-7c-0.4,0-0.7-0.2-0.9-0.5C10,18.4,10,18.2,10,18c0-0.6-0.4-1-1-1
		s-1,0.4-1,1c0,0.5,0.2,1.1,0.4,1.6C9,20.5,9.9,21,11,21h7c1.7,0,3-1.3,3-3V9V8.8c0-0.8-0.3-1.6-0.9-2.1L17.3,3.9z M17,8
		c-0.6,0-1-0.4-1-1V5.4L18.6,8H17z"/>
	<path d="M8.3,14.3c-0.4,0.4-0.4,1,0,1.4C8.5,15.9,8.7,16,9,16s0.5-0.1,0.7-0.3l3-3c0.4-0.4,0.4-1,0-1.4l-3-3c-0.4-0.4-1-0.4-1.4,0
		s-0.4,1,0,1.4L9.6,11H4c-0.6,0-1,0.4-1,1s0.4,1,1,1h5.6L8.3,14.3z"/>
</g>
</svg>
