<?xml version="1.0" encoding="utf-8"?>
<!-- Generator: Adobe Illustrator 20.0.0, SVG Export Plug-In . SVG Version: 6.00 Build 0)  -->
<!DOCTYPE svg PUBLIC "-//W3C//DTD SVG 1.1//EN" "http://www.w3.org/Graphics/SVG/1.1/DTD/svg11.dtd">
<svg version="1.1" id="Layer_1" xmlns="http://www.w3.org/2000/svg" xmlns:xlink="http://www.w3.org/1999/xlink" x="0px" y="0px"
	 viewBox="0 0 24 24" style="enable-background:new 0 0 24 24;" xml:space="preserve">
<style type="text/css">
	.st0{fill:#A5B2BD;}
	.st1{fill:#3197D6;}
</style>
<g>
	<path d="M11.3,14.7c0.1,0.1,0.2,0.2,0.3,0.2C11.7,15,11.9,15,12,15s0.3,0,0.4-0.1c0.1-0.1,0.2-0.1,0.3-0.2l4-4c0.4-0.4,0.4-1,0-1.4
		s-1-0.4-1.4,0L13,11.6V4c0-0.6-0.4-1-1-1s-1,0.4-1,1v7.6L8.7,9.3c-0.4-0.4-1-0.4-1.4,0s-0.4,1,0,1.4L11.3,14.7z"/>
	<path d="M20,15c-0.6,0-1,0.4-1,1v2c0,0.6-0.4,1-1,1H6c-0.6,0-1-0.4-1-1v-2c0-0.6-0.4-1-1-1s-1,0.4-1,1v2c0,1.7,1.3,3,3,3h12
		c1.7,0,3-1.3,3-3v-2C21,15.4,20.6,15,20,15z"/>
</g>
</svg>
