<?xml version="1.0" encoding="utf-8"?>
<!-- Generator: Adobe Illustrator 20.1.0, SVG Export Plug-In . SVG Version: 6.00 Build 0)  -->
<!DOCTYPE svg PUBLIC "-//W3C//DTD SVG 1.1//EN" "http://www.w3.org/Graphics/SVG/1.1/DTD/svg11.dtd">
<svg version="1.1" id="Layer_1" xmlns="http://www.w3.org/2000/svg" xmlns:xlink="http://www.w3.org/1999/xlink" x="0px" y="0px"
	 viewBox="0 0 24 24" style="enable-background:new 0 0 24 24;" xml:space="preserve">
<g>
	<path d="M19,14c-0.6,0-1,0.4-1,1v2c0,0.6-0.4,1-1,1H7c-0.6,0-1-0.4-1-1v-2c0-0.6-0.4-1-1-1s-1,0.4-1,1v2c0,1.7,1.3,3,3,3h10
		c1.7,0,3-1.3,3-3v-2C20,14.4,19.6,14,19,14z"/>
	<path d="M12,4c-0.6,0-1,0.4-1,1v7.6l-2.3-2.3c-0.4-0.4-1-0.4-1.4,0s-0.4,1,0,1.4l4,4c0.2,0.2,0.5,0.3,0.7,0.3s0.5-0.1,0.7-0.3l4-4
		c0.4-0.4,0.4-1,0-1.4s-1-0.4-1.4,0L13,12.6V5C13,4.4,12.6,4,12,4z"/>
</g>
</svg>
