<?xml version="1.0" encoding="utf-8"?>
<!-- Generator: Adobe Illustrator 20.0.0, SVG Export Plug-In . SVG Version: 6.00 Build 0)  -->
<!DOCTYPE svg PUBLIC "-//W3C//DTD SVG 1.1//EN" "http://www.w3.org/Graphics/SVG/1.1/DTD/svg11.dtd">
<svg version="1.1" id="Layer_1" xmlns="http://www.w3.org/2000/svg" xmlns:xlink="http://www.w3.org/1999/xlink" x="0px" y="0px"
	 viewBox="0 0 24 24" style="enable-background:new 0 0 24 24;" xml:space="preserve">
<style type="text/css">
	.st0{fill:#A5B2BD;}
	.st1{fill:#3197D6;}
	.st2{fill:none;stroke:#72808E;stroke-width:2;stroke-linecap:round;stroke-linejoin:round;stroke-miterlimit:10;}
	.st3{fill:none;stroke:#A4B2BC;stroke-width:2;stroke-linecap:round;stroke-linejoin:round;stroke-miterlimit:10;}
</style>
<path d="M19,3h-0.5c-1.7,0-3.4,0.2-5.1,0.6L12,4l-1.4-0.3C9,3.2,7.3,3,5.5,3H5C3.9,3,3,3.9,3,5v13c0,1.1,0.9,2,2,2h0.5
	c1.6,0,3.1,0.2,4.6,0.6l1.6,0.4c0.1,0,0.2,0,0.2,0c0,0,0,0,0,0c0,0,0,0,0,0l0,0c0,0,0,0,0,0c0.1,0,0.2,0,0.2,0l1.6-0.4
	c1.5-0.4,3.1-0.6,4.6-0.6H19c1.1,0,2-0.9,2-2V5C21,3.9,20.1,3,19,3z M11,18.7l-0.4-0.1C9,18.2,7.3,18,5.5,18H5V5h0.5
	c1.6,0,3.1,0.2,4.6,0.6L11,5.8V18.7z M19,18h-0.5c-1.7,0-3.4,0.2-5.1,0.6L13,18.7V5.8l0.9-0.2C15.4,5.2,16.9,5,18.5,5H19V18z"/>
</svg>
