<?xml version="1.0" encoding="utf-8"?>
<!-- Generator: Adobe Illustrator 20.0.0, SVG Export Plug-In . SVG Version: 6.00 Build 0)  -->
<!DOCTYPE svg PUBLIC "-//W3C//DTD SVG 1.1//EN" "http://www.w3.org/Graphics/SVG/1.1/DTD/svg11.dtd">
<svg version="1.1" id="Layer_1" xmlns="http://www.w3.org/2000/svg" xmlns:xlink="http://www.w3.org/1999/xlink" x="0px" y="0px"
	 viewBox="0 0 24 24" style="enable-background:new 0 0 24 24;" xml:space="preserve">
<style type="text/css">
	.st0{fill:#A5B2BD;}
	.st1{fill:#3197D6;}
	.st2{fill:none;stroke:#72808E;stroke-width:2;stroke-linecap:round;stroke-linejoin:round;stroke-miterlimit:10;}
	.st3{fill:none;stroke:#A4B2BC;stroke-width:2;stroke-linecap:round;stroke-linejoin:round;stroke-miterlimit:10;}
</style>
<path d="M14,6h-4c-2.8,0-5,2.2-5,5v1c0,0.7,0.4,1.4,1,1.7V15c0,1.7,1.3,3,3,3h6c1.7,0,3-1.3,3-3v-1.3c0.6-0.3,1-1,1-1.7v-1
	C19,8.2,16.8,6,14,6z M7,11c0-1.7,1.3-3,3-3h4c1.7,0,3,1.3,3,3v1h-2c0-1.1-0.9-2-2-2h-2c-1.1,0-2,0.9-2,2H7V11z M16,15
	c0,0.6-0.4,1-1,1H9c-0.6,0-1-0.4-1-1v-1h1c1.1,0,2-0.9,2-2h2c0,1.1,0.9,2,2,2h1V15z"/>
</svg>
