<?xml version="1.0" encoding="utf-8"?>
<!-- Generator: Adobe Illustrator 20.0.0, SVG Export Plug-In . SVG Version: 6.00 Build 0)  -->
<!DOCTYPE svg PUBLIC "-//W3C//DTD SVG 1.1//EN" "http://www.w3.org/Graphics/SVG/1.1/DTD/svg11.dtd">
<svg version="1.1" id="Layer_1" xmlns="http://www.w3.org/2000/svg" xmlns:xlink="http://www.w3.org/1999/xlink" x="0px" y="0px"
	 viewBox="0 0 24 24" style="enable-background:new 0 0 24 24;" xml:space="preserve">
<style type="text/css">
	.st0{fill:#A5B2BD;}
	.st1{fill:#3197D6;}
	.st2{fill:none;stroke:#72808E;stroke-width:2;stroke-linecap:round;stroke-linejoin:round;stroke-miterlimit:10;}
	.st3{fill:none;stroke:#A4B2BC;stroke-width:2;stroke-linecap:round;stroke-linejoin:round;stroke-miterlimit:10;}
</style>
<g>
	<path d="M16.7,3.3c-0.4-0.4-1-0.4-1.4,0s-0.4,1,0,1.4L17.6,7H4C3.4,7,3,7.4,3,8s0.4,1,1,1h13.6l-2.3,2.3c-0.4,0.4-0.4,1,0,1.4
		c0.2,0.2,0.5,0.3,0.7,0.3s0.5-0.1,0.7-0.3l4-4c0.4-0.4,0.4-1,0-1.4L16.7,3.3z"/>
	<path d="M20,15H6.4l2.3-2.3c0.4-0.4,0.4-1,0-1.4s-1-0.4-1.4,0l-4,4c-0.4,0.4-0.4,1,0,1.4l4,4C7.5,20.9,7.7,21,8,21s0.5-0.1,0.7-0.3
		c0.4-0.4,0.4-1,0-1.4L6.4,17H20c0.6,0,1-0.4,1-1S20.6,15,20,15z"/>
</g>
</svg>
