<?xml version="1.0" encoding="utf-8"?>
<!-- Generator: Adobe Illustrator 20.0.0, SVG Export Plug-In . SVG Version: 6.00 Build 0)  -->
<!DOCTYPE svg PUBLIC "-//W3C//DTD SVG 1.1//EN" "http://www.w3.org/Graphics/SVG/1.1/DTD/svg11.dtd">
<svg version="1.1" id="Layer_1" xmlns="http://www.w3.org/2000/svg" xmlns:xlink="http://www.w3.org/1999/xlink" x="0px" y="0px"
	 viewBox="0 0 24 24" style="enable-background:new 0 0 24 24;" xml:space="preserve">
<style type="text/css">
	.st0{fill:#A5B2BD;}
	.st1{fill:#3197D6;}
</style>
<g>
	<path d="M11.3,12.7l5,5c0.4,0.4,1,0.4,1.4,0s0.4-1,0-1.4L13.4,12l4.3-4.3c0.4-0.4,0.4-1,0-1.4C17.5,6.1,17.3,6,17,6
		s-0.5,0.1-0.7,0.3l-5,5C10.9,11.7,10.9,12.3,11.3,12.7z"/>
	<path d="M6.3,12.7l5,5c0.4,0.4,1,0.4,1.4,0s0.4-1,0-1.4L8.4,12l4.3-4.3c0.4-0.4,0.4-1,0-1.4C12.5,6.1,12.3,6,12,6s-0.5,0.1-0.7,0.3
		l-5,5C5.9,11.7,5.9,12.3,6.3,12.7z"/>
</g>
</svg>
