<?xml version="1.0" encoding="utf-8"?>
<!-- Generator: Adobe Illustrator 20.0.0, SVG Export Plug-In . SVG Version: 6.00 Build 0)  -->
<!DOCTYPE svg PUBLIC "-//W3C//DTD SVG 1.1//EN" "http://www.w3.org/Graphics/SVG/1.1/DTD/svg11.dtd">
<svg version="1.1" id="Layer_1" xmlns="http://www.w3.org/2000/svg" xmlns:xlink="http://www.w3.org/1999/xlink" x="0px" y="0px"
	 viewBox="0 0 24 24" style="enable-background:new 0 0 24 24;" xml:space="preserve">
<style type="text/css">
	.st0{fill:#A5B2BD;}
	.st1{fill:#3197D6;}
</style>
<path d="M19.7,11.3l-4-4c-0.4-0.4-1-0.4-1.4,0c-0.4,0.4-0.4,1,0,1.4l2.3,2.3H13c-2.8,0-5-2.2-5-5c0-0.6-0.4-1-1-1S6,5.4,6,6
	c0,2.5,1.4,4.8,3.4,6c-2,1.2-3.4,3.5-3.4,6c0,0.6,0.4,1,1,1s1-0.4,1-1c0-2.8,2.2-5,5-5h3.6l-2.3,2.3c-0.4,0.4-0.4,1,0,1.4
	c0.2,0.2,0.5,0.3,0.7,0.3s0.5-0.1,0.7-0.3l4-4c0.2-0.2,0.3-0.4,0.3-0.7S19.9,11.5,19.7,11.3z"/>
</svg>
