<?xml version="1.0" encoding="utf-8"?>
<!-- Generator: Adobe Illustrator 20.0.0, SVG Export Plug-In . SVG Version: 6.00 Build 0)  -->
<!DOCTYPE svg PUBLIC "-//W3C//DTD SVG 1.1//EN" "http://www.w3.org/Graphics/SVG/1.1/DTD/svg11.dtd">
<svg version="1.1" id="Layer_1" xmlns="http://www.w3.org/2000/svg" xmlns:xlink="http://www.w3.org/1999/xlink" x="0px" y="0px"
	 viewBox="0 0 24 24" style="enable-background:new 0 0 24 24;" xml:space="preserve">
<style type="text/css">
	.st0{fill:#A5B2BD;}
	.st1{fill:#3197D6;}
	.st2{fill:none;stroke:#727F8E;stroke-width:2;stroke-linecap:round;stroke-linejoin:round;stroke-miterlimit:10;}
	.st3{fill:none;stroke:#86919D;stroke-width:2;stroke-linecap:round;stroke-linejoin:round;stroke-miterlimit:10;}
	.st4{fill:#92A0AE;}
	.st5{fill:none;stroke:#92A0AE;stroke-width:2;stroke-linecap:round;stroke-linejoin:round;stroke-miterlimit:10;}
	.st6{fill:#727F8E;}
	.st7{fill:none;stroke:#727F8E;stroke-width:2;stroke-linejoin:round;stroke-miterlimit:10;}
</style>
<g>
	<path d="M10.3,15.2H6L5,18H3L7,6.5h2.4L13.5,18h-2.2L10.3,15.2z M7.7,10l-1.2,3.6h3.3L8.6,10C8.3,9.1,8.2,8.4,8.2,8.4h0
		C8.1,8.4,8,9.1,7.7,10z"/>
	<path d="M14.4,12.3c0.1-1.5,1.3-2.5,3.3-2.5c2.4,0,3.3,1,3.3,3.1v2.9c0,0.5,0.1,0.7,0.7,0.7V18H21c-1.2,0-1.7-0.3-1.9-1.2h0
		c-0.5,0.8-1.3,1.3-2.5,1.3c-1.6,0-2.6-0.9-2.6-2.3c0-0.9,0.4-1.6,1.2-2c0.8-0.4,2.1-0.5,3.8-0.6v-0.4c0-1.1-0.4-1.6-1.3-1.6
		c-0.9,0-1.3,0.5-1.4,1.2H14.4z M19,14.5v-0.2c-1.4,0.1-2.2,0.2-2.6,0.5C16.1,15,16,15.3,16,15.7c0,0.7,0.4,1.1,1.2,1.1
		C18.1,16.8,19,16.1,19,14.5z"/>
</g>
</svg>
