<?xml version="1.0" encoding="utf-8"?>
<!-- Generator: Adobe Illustrator 20.0.0, SVG Export Plug-In . SVG Version: 6.00 Build 0)  -->
<!DOCTYPE svg PUBLIC "-//W3C//DTD SVG 1.1//EN" "http://www.w3.org/Graphics/SVG/1.1/DTD/svg11.dtd">
<svg version="1.1" id="Layer_1" xmlns="http://www.w3.org/2000/svg" xmlns:xlink="http://www.w3.org/1999/xlink" x="0px" y="0px"
	 viewBox="0 0 24 24" style="enable-background:new 0 0 24 24;" xml:space="preserve">
<style type="text/css">
	.st0{fill:#A5B2BD;}
	.st1{fill:#3197D6;}
</style>
<path d="M10.9,18c0.9,0.6,1.9,1,3,1c0.3,0,0.7,0,1-0.1c1-0.2,1.9-0.7,2.6-1.4l0.9-0.9c0.3-0.3,0.5-0.8,0.5-1.3c0-0.5-0.2-1-0.5-1.3
	l-1.8-1.8c-0.7-0.7-1.9-0.7-2.6,0l-0.7,0.7c-0.9-0.5-1.7-1.3-2.2-2.2l0.7-0.7c0.7-0.7,0.7-1.9,0-2.6L10,5.5c-0.7-0.7-1.9-0.7-2.6,0
	L6.5,6.5C5.8,7.2,5.3,8.1,5.1,9.1c-0.3,1.4,0,2.9,0.9,4C7.3,15,9,16.7,10.9,18z M7.1,9.5c0.1-0.6,0.4-1.2,0.9-1.6l0.8-0.8l1.6,1.6
	L9.2,9.8C8.9,10,8.9,10.5,9,10.8c0.8,1.9,2.3,3.4,4.2,4.2c0.4,0.1,0.8,0.1,1.1-0.2l1.1-1.1l1.6,1.6l-0.8,0.8c-0.4,0.4-1,0.7-1.6,0.9
	c-0.9,0.2-1.8,0-2.5-0.5c-1.7-1.2-3.2-2.7-4.5-4.5C7.1,11.2,6.9,10.3,7.1,9.5z"/>
</svg>
