<?xml version="1.0" encoding="utf-8"?>
<!-- Generator: Adobe Illustrator 20.1.0, SVG Export Plug-In . SVG Version: 6.00 Build 0)  -->
<!DOCTYPE svg PUBLIC "-//W3C//DTD SVG 1.1//EN" "http://www.w3.org/Graphics/SVG/1.1/DTD/svg11.dtd">
<svg version="1.1" id="Layer_1" xmlns="http://www.w3.org/2000/svg" xmlns:xlink="http://www.w3.org/1999/xlink" x="0px" y="0px"
	 viewBox="0 0 24 24" style="enable-background:new 0 0 24 24;" xml:space="preserve">
<path d="M19,3H5C3.9,3,3,3.9,3,5v14c0,1.1,0.9,2,2,2h14c1.1,0,2-0.9,2-2V5C21,3.9,20.1,3,19,3z M16.4,9.7c-0.3,0.1-3.7,2.7-3.9,3.4
	c0,0.2,0,2.2,0.1,2.6l2.2,0l0,0.7c-0.3,0-2.2,0-3.3,0c-0.6,0-2.2,0-2.8,0l0-0.7c0.3,0,2,0.1,2.2-0.1c0.1-0.2,0.1-2.2,0-2.5
	c-0.1-0.4-3.3-4.2-4-4.8H4.9V7.4h6v0.1l0,0l0,0.2v0.5H9.4c0.9,1.3,2.1,3.1,2.6,3.8l2.5-2.4H13l-0.2-0.8h5.5l0,0.1l0,0l-0.4,0.4l0,0
	l-0.2,0.2h-1L16.4,9.7z M17.9,16.4l-0.5,0l-0.5,0l0-1l0.6,0.1l0.6,0L17.9,16.4z M18,14.7l-1-0.1l0-4.2c0.2,0,1.9,0.2,2.1,0.2
	L18,14.7z"/>
</svg>
