<?xml version="1.0" encoding="utf-8"?>
<!-- Generator: Adobe Illustrator 20.1.0, SVG Export Plug-In . SVG Version: 6.00 Build 0)  -->
<!DOCTYPE svg PUBLIC "-//W3C//DTD SVG 1.1//EN" "http://www.w3.org/Graphics/SVG/1.1/DTD/svg11.dtd">
<svg version="1.1" id="Layer_1" xmlns="http://www.w3.org/2000/svg" xmlns:xlink="http://www.w3.org/1999/xlink" x="0px" y="0px"
	 viewBox="0 0 24 24" style="enable-background:new 0 0 24 24;" xml:space="preserve">
<g>
	<path d="M9.6,8.7l1.7,1.8l0.3-0.1l-0.4-2.2c0-0.2-0.1-0.4-0.2-0.6c-0.2-0.5-0.5-0.7-0.8-0.8c-0.1-0.1-0.3-0.1-0.4,0
		C9.4,7,9.3,7.2,9.3,7.6c0,0.3,0.1,0.7,0.2,1L9.6,8.7z"/>
	<path d="M12.6,10.5c0.2,0.1,0.4,0.2,0.5,0.3l1.7-2.1c0.1-0.2,0.2-0.4,0.3-0.6l0.1-0.4c0-0.2-0.1-0.5-0.1-0.7
		c-0.2-0.3-0.4-0.5-0.8-0.6c-0.4-0.1-0.7-0.1-1.1,0.1c-0.3,0.2-0.6,0.5-0.7,0.8l0,0.2l0,0.7L12.6,10.5z"/>
	<path d="M13.7,11.5L13.7,11.5l0.1,0.2l2.3-0.3c0.2,0,0.4-0.1,0.6-0.2c0.5-0.2,0.7-0.5,0.9-0.8l0-0.2L17.5,10
		c-0.1-0.2-0.3-0.4-0.7-0.4c-0.3,0-0.7,0-1,0.1l-0.2,0.1L13.7,11.5L13.7,11.5z"/>
	<path d="M10.4,11.1L8.8,9.9L8.3,9.7c-0.4-0.1-0.7,0-1,0.1c-0.4,0.1-0.6,0.4-0.7,0.8c-0.1,0.3-0.1,0.6,0,0.8
		c0.1,0.3,0.4,0.4,0.7,0.5l0.2,0l2.7-0.3C10.2,11.5,10.3,11.3,10.4,11.1z"/>
	<path d="M19,3H5C3.9,3,3,3.9,3,5v14c0,1.1,0.9,2,2,2h14c1.1,0,2-0.9,2-2V5C21,3.9,20.1,3,19,3z M18.5,14.6c-0.2,0.6-0.5,1-1,1.3
		c-0.5,0.3-1,0.3-1.6,0.1c-0.2-0.1-0.4-0.1-0.6-0.3c0.1,0.5,0.1,0.9,0,1.3c-0.1,0.4-0.3,0.7-0.7,0.9c-0.3,0.2-0.7,0.2-1.1,0.1
		c-0.4-0.1-0.7-0.4-1.1-0.7l0,0.1c-0.2,0.6-0.5,1-1,1.3c-0.5,0.3-1.1,0.3-1.7,0.1c-0.3-0.1-0.6-0.2-0.8-0.4
		c-0.1-0.2-0.3-0.4-0.4-0.6c-0.3-0.5-0.3-1.1-0.1-1.7l0.1-0.2l0.3-0.6c-0.5,0.1-0.9,0.1-1.3,0.1c-0.2,0-0.4-0.1-0.6-0.2
		c-0.1-0.1-0.2-0.2-0.3-0.4c-0.2-0.3-0.2-0.7-0.1-1c0.1-0.3,0.2-0.6,0.5-0.8l0.3-0.2l-0.1,0c-0.3-0.1-0.6-0.2-0.8-0.4
		c-0.1-0.1-0.3-0.3-0.4-0.5c-0.3-0.5-0.3-1-0.1-1.5C6,9.9,6.3,9.5,6.8,9.2c0.5-0.3,1-0.4,1.6-0.2l0.4,0.1L8.8,8.9
		c-0.3-0.5-0.4-1-0.3-1.6c0.1-0.5,0.3-0.9,0.7-1.1C9.5,6,9.9,6,10.3,6.1c0.5,0.1,0.8,0.4,1.1,0.9l0.2,0.3l0.1,0.1l0-0.1v0
		c0.2-0.6,0.5-1,1.1-1.3c0.5-0.3,1.1-0.3,1.6-0.2c0.6,0.1,1,0.4,1.2,0.9l0.1,0.1c0.3,0.5,0.4,1.1,0.2,1.7L15.7,9l0.6-0.1
		c0.3,0,0.6,0,0.9,0c0.5,0.1,0.8,0.4,1,0.7v0c0.2,0.3,0.2,0.7,0.1,1.1c-0.2,0.5-0.6,0.9-1.2,1.2c0.2,0.1,0.4,0.2,0.6,0.3
		c0.2,0.1,0.4,0.4,0.5,0.6l0.1,0.1C18.6,13.5,18.6,14,18.5,14.6z"/>
	<path d="M11.7,16.3c-0.1-0.7-0.1-1.4-0.2-2c-0.2,0-0.4-0.1-0.6-0.2l-1.6,1.9c-0.1,0.1-0.2,0.3-0.3,0.5L9,16.8
		c0,0.2,0.1,0.4,0.2,0.6c0.1,0.3,0.4,0.5,0.8,0.6c0.3,0.1,0.7,0.1,1-0.1c0.3-0.1,0.6-0.4,0.7-0.8l0-0.2h0V16.3z"/>
	<path d="M16.8,12.6l-0.2,0l-0.7,0l-2.1,0.2l-0.1,0.2l-0.1,0.3l2,1.6c0.1,0.1,0.3,0.2,0.5,0.3c0.4,0.1,0.7,0.1,1-0.1
		c0.3-0.1,0.5-0.4,0.6-0.8l0.1-0.4c0-0.3-0.1-0.6-0.3-0.8C17.4,12.9,17.1,12.7,16.8,12.6z"/>
	<path d="M13.2,12.4c0-0.3-0.1-0.6-0.4-0.9c-0.2-0.2-0.5-0.3-0.9-0.3c-0.4,0-0.7,0.1-0.9,0.3c-0.2,0.3-0.4,0.5-0.4,0.9
		c0,0.3,0.1,0.7,0.4,0.9c0.2,0.2,0.5,0.4,0.9,0.4c0.3,0,0.6-0.1,0.9-0.4C13.1,13.1,13.2,12.7,13.2,12.4z"/>
	<path d="M14.2,15.4l-0.5-0.6L13,14l-0.2,0.1l-0.3,0.1l0.3,1.6l0.2,0.6c0.2,0.4,0.5,0.7,0.8,0.8c0.1,0,0.3,0,0.4-0.1
		c0.2-0.1,0.3-0.3,0.4-0.7c0-0.4-0.1-0.7-0.2-1L14.2,15.4z"/>
</g>
</svg>
