<?xml version="1.0" encoding="utf-8"?>
<!-- Generator: Adobe Illustrator 21.1.0, SVG Export Plug-In . SVG Version: 6.00 Build 0)  -->
<!DOCTYPE svg PUBLIC "-//W3C//DTD SVG 1.1//EN" "http://www.w3.org/Graphics/SVG/1.1/DTD/svg11.dtd">
<svg version="1.1" id="Layer_1" xmlns="http://www.w3.org/2000/svg" xmlns:xlink="http://www.w3.org/1999/xlink" x="0px" y="0px"
	 viewBox="0 0 24 24" style="enable-background:new 0 0 24 24;" xml:space="preserve">
<path d="M19,3H5C3.9,3,3,3.9,3,5v14c0,1.1,0.9,2,2,2h14c1.1,0,2-0.9,2-2V5C21,3.9,20.1,3,19,3z M12.9,16.2c0.8,0.7,2.1,1,3.1,1.3V18
	c-2,0-3.1-0.4-4-0.9c-0.8,0.5-1.9,0.9-4,0.9v-0.5c0.9-0.3,2.4-0.6,3.1-1.3C7.8,14,5.1,9.9,5,6l4.4,1.8c0,0.1,1,5.5,2.6,7.5
	c1.7-2,2.7-7.4,2.7-7.6L19,6C18.9,9.9,16.2,14,12.9,16.2z"/>
</svg>
