<?xml version="1.0" encoding="utf-8"?>
<!-- Generator: Adobe Illustrator 20.1.0, SVG Export Plug-In . SVG Version: 6.00 Build 0)  -->
<!DOCTYPE svg PUBLIC "-//W3C//DTD SVG 1.1//EN" "http://www.w3.org/Graphics/SVG/1.1/DTD/svg11.dtd">
<svg version="1.1" id="Layer_1" xmlns="http://www.w3.org/2000/svg" xmlns:xlink="http://www.w3.org/1999/xlink" x="0px" y="0px"
	 viewBox="0 0 24 24" style="enable-background:new 0 0 24 24;" xml:space="preserve">
<g id="twitter-alt">
	<path d="M22.2,5.9c-0.7,0.3-1.5,0.5-2.4,0.6c0.8-0.5,1.5-1.3,1.8-2.3c-0.8,0.5-1.7,0.8-2.6,1c-0.7-0.8-1.8-1.3-3-1.3
		C13.8,4,12,5.8,12,8.1c0,0.3,0,0.6,0.1,0.9C8.7,8.9,5.6,7.2,3.6,4.8C3.3,5.4,3.1,6.1,3.1,6.8c0,1.4,0.7,2.7,1.8,3.4
		C4.2,10.2,3.6,10,3,9.7c0,0,0,0,0,0.1c0,2,1.4,3.6,3.3,4c-0.3,0.1-0.7,0.1-1.1,0.1c-0.3,0-0.5,0-0.8-0.1c0.5,1.6,2,2.8,3.8,2.8
		c-1.4,1.1-3.2,1.8-5.1,1.8c-0.3,0-0.7,0-1-0.1c1.8,1.2,4,1.8,6.3,1.8c7.5,0,11.7-6.3,11.7-11.7c0-0.2,0-0.4,0-0.5
		C21,7.5,21.7,6.7,22.2,5.9z"/>
</g>
<g id="Layer_1_1_">
</g>
</svg>
