<?xml version="1.0" encoding="utf-8"?>
<!-- Generator: Adobe Illustrator 20.1.0, SVG Export Plug-In . SVG Version: 6.00 Build 0)  -->
<!DOCTYPE svg PUBLIC "-//W3C//DTD SVG 1.1//EN" "http://www.w3.org/Graphics/SVG/1.1/DTD/svg11.dtd">
<svg version="1.1" id="Layer_1" xmlns="http://www.w3.org/2000/svg" xmlns:xlink="http://www.w3.org/1999/xlink" x="0px" y="0px"
	 viewBox="0 0 24 24" style="enable-background:new 0 0 24 24;" xml:space="preserve">
<g id="youtube">
	<path d="M21.8,8c0,0-0.2-1.4-0.8-2c-0.8-0.8-1.6-0.8-2-0.8C16.2,5,12,5,12,5h0c0,0-4.2,0-7,0.2C4.6,5.2,3.8,5.2,3,6
		C2.4,6.6,2.2,8,2.2,8S2,9.6,2,11.2v1.5C2,14.4,2.2,16,2.2,16s0.2,1.4,0.8,2c0.8,0.8,1.8,0.8,2.2,0.9C6.8,19,12,19,12,19
		s4.2,0,7-0.2c0.4,0,1.2-0.1,2-0.8c0.6-0.6,0.8-2,0.8-2s0.2-1.6,0.2-3.2v-1.5C22,9.6,21.8,8,21.8,8z M9.9,14.6l0-5.6l5.4,2.8
		L9.9,14.6z"/>
</g>
<g id="Layer_1_1_">
</g>
</svg>
