<?xml version="1.0" encoding="utf-8"?>
<!-- Generator: Adobe Illustrator 20.1.0, SVG Export Plug-In . SVG Version: 6.00 Build 0)  -->
<!DOCTYPE svg PUBLIC "-//W3C//DTD SVG 1.1//EN" "http://www.w3.org/Graphics/SVG/1.1/DTD/svg11.dtd">
<svg version="1.1" id="Layer_1" xmlns="http://www.w3.org/2000/svg" xmlns:xlink="http://www.w3.org/1999/xlink" x="0px" y="0px"
	 viewBox="0 0 24 24" style="enable-background:new 0 0 24 24;" xml:space="preserve">
<g id="Layer_1_1_">
</g>
<g>
	<path d="M19,3H5C3.9,3,3,3.9,3,5v14c0,1.1,0.9,2,2,2h14c1.1,0,2-0.9,2-2V5C21,3.9,20.1,3,19,3z M12.3,13.7h-1.1v-2.6
		c0-0.4-0.2-0.7-0.6-0.7c-0.4,0-0.6,0.3-0.8,0.4v2.8H8.8v-2.6c0-0.4-0.2-0.7-0.6-0.7c-0.4,0-0.6,0.3-0.8,0.4v2.8H6.4V9.6h1.1v0.5
		c0.2-0.2,0.6-0.6,1.2-0.6c0.6,0,0.9,0.2,1.1,0.7c0.2-0.3,0.7-0.7,1.3-0.7c0.8,0,1.2,0.5,1.2,1.3V13.7z M17.2,11.9h-3
		c0.1,0.5,0.5,0.9,1.1,0.9c0.3,0,0.8-0.1,1.1-0.4l0.5,0.6c-0.5,0.5-1.2,0.6-1.7,0.6c-1.2,0-2.1-0.9-2.1-2.1c0-1.1,0.9-2.1,2.1-2.1
		c1.2,0,2,0.9,2,2.1V11.9z"/>
	<path d="M15.2,10.3c-0.6,0-1,0.5-1,0.9h2.1C16.2,10.8,15.8,10.3,15.2,10.3z"/>
</g>
</svg>
