<?xml version="1.0" encoding="utf-8"?>
<!-- Generator: Adobe Illustrator 20.1.0, SVG Export Plug-In . SVG Version: 6.00 Build 0)  -->
<!DOCTYPE svg PUBLIC "-//W3C//DTD SVG 1.1//EN" "http://www.w3.org/Graphics/SVG/1.1/DTD/svg11.dtd">
<svg version="1.1" id="Layer_1" xmlns="http://www.w3.org/2000/svg" xmlns:xlink="http://www.w3.org/1999/xlink" x="0px" y="0px"
	 viewBox="0 0 24 24" style="enable-background:new 0 0 24 24;" xml:space="preserve">
<g id="Layer_1_1_">
</g>
<path d="M19.7,3H4.3C3.6,3,3,3.6,3,4.3v15.4C3,20.4,3.6,21,4.3,21h15.4c0.7,0,1.3-0.6,1.3-1.3V4.3C21,3.6,20.4,3,19.7,3z M8.6,15.2
	c-1.8,0-3.1-1.4-3.1-3.1s1.4-3.1,3.1-3.1c1.7,0,3.1,1.4,3.1,3.1S10.4,15.2,8.6,15.2z M15.5,15.2c-1.8,0-3.1-1.4-3.1-3.1
	s1.4-3.1,3.1-3.1c1.7,0,3.1,1.4,3.1,3.1S17.3,15.2,15.5,15.2z"/>
<g id="Layer_1_2_">
</g>
</svg>
