<?xml version="1.0" encoding="utf-8"?>
<!-- Generator: Adobe Illustrator 20.1.0, SVG Export Plug-In . SVG Version: 6.00 Build 0)  -->
<!DOCTYPE svg PUBLIC "-//W3C//DTD SVG 1.1//EN" "http://www.w3.org/Graphics/SVG/1.1/DTD/svg11.dtd">
<svg version="1.1" id="Layer_1" xmlns="http://www.w3.org/2000/svg" xmlns:xlink="http://www.w3.org/1999/xlink" x="0px" y="0px"
	 viewBox="0 0 24 24" style="enable-background:new 0 0 24 24;" xml:space="preserve">
<g id="skype">
	<path d="M10.1,2.7c0,0,0.1,0,0.1,0c0,0,0.1,0,0.1,0.1L10.1,2.7z M2.7,10.2c0,0,0,0.1,0,0.1c0,0,0,0.1,0.1,0.1L2.7,10.2z M21.3,13.8
		c0,0,0-0.1,0-0.1c0,0,0-0.1-0.1-0.1L21.3,13.8z M13.6,21.2C13.6,21.2,13.6,21.2,13.6,21.2c0.1,0,0.2,0,0.2,0L13.6,21.2z M22,16.4
		c0,1.5-0.6,2.9-1.6,4c-1.1,1.1-2.5,1.6-4,1.6c-1,0-1.9-0.3-2.8-0.7c0,0,0.1,0,0.1,0l-0.2,0c0,0,0.1,0,0.1,0.1
		c-0.5,0.1-1.1,0.1-1.7,0.1c-1.3,0-2.5-0.2-3.7-0.7c-1.1-0.5-2.1-1.2-3-2s-1.5-1.9-2-3c-0.5-1.2-0.7-2.4-0.7-3.7
		c0-0.5,0-1.1,0.1-1.6c0,0,0,0.1,0.1,0.1l0-0.2c0,0,0,0.1,0,0.1C2.2,9.5,2,8.6,2,7.6c0-1.5,0.6-2.9,1.6-4C4.7,2.6,6.1,2,7.6,2
		c0.9,0,1.8,0.2,2.6,0.7c0,0-0.1,0-0.1,0l0.2,0c0,0-0.1,0-0.1-0.1c0,0,0,0,0,0c0.6-0.1,1.2-0.2,1.8-0.2c1.3,0,2.5,0.2,3.7,0.7
		c1.1,0.5,2.1,1.2,3,2c0.9,0.9,1.5,1.9,2,3c0.5,1.2,0.7,2.4,0.7,3.7c0,0.6-0.1,1.1-0.2,1.7c0,0,0-0.1-0.1-0.1l0,0.2c0,0,0-0.1,0-0.1
		C21.8,14.5,22,15.4,22,16.4z M16.8,14.1c0-1.3-0.6-2.7-3-3.3l-2.2-0.5c-0.8-0.2-1.8-0.4-1.8-1.2c0-0.8,0.7-1.3,1.9-1.3
		c2.5,0,2.2,1.7,3.5,1.7c0.6,0,1.2-0.4,1.2-1c0-1.5-2.4-2.7-4.5-2.7c-2.2,0-4.6,1-4.6,3.5c0,1.2,0.4,2.5,2.8,3.1l3,0.7
		c0.9,0.2,1.1,0.7,1.1,1.2c0,0.8-0.8,1.5-2.1,1.5c-2.7,0-2.3-2.1-3.7-2.1c-0.6,0-1.1,0.4-1.1,1.1c0,1.2,1.5,2.9,4.9,2.9
		C15.2,17.7,16.8,16.2,16.8,14.1z"/>
</g>
<g id="Layer_1_1_">
</g>
</svg>
