<?xml version="1.0" encoding="utf-8"?>
<!-- Generator: Adobe Illustrator 20.1.0, SVG Export Plug-In . SVG Version: 6.00 Build 0)  -->
<!DOCTYPE svg PUBLIC "-//W3C//DTD SVG 1.1//EN" "http://www.w3.org/Graphics/SVG/1.1/DTD/svg11.dtd">
<svg version="1.1" id="Layer_1" xmlns="http://www.w3.org/2000/svg" xmlns:xlink="http://www.w3.org/1999/xlink" x="0px" y="0px"
	 viewBox="0 0 24 24" style="enable-background:new 0 0 24 24;" xml:space="preserve">
<path d="M19,3H5C3.9,3,3,3.9,3,5v14c0,1.1,0.9,2,2,2h14c1.1,0,2-0.9,2-2V5C21,3.9,20.1,3,19,3z M8.7,15.5H8.3c-1,0-1.8-0.3-2.4-0.7
	c0-0.1,0-0.2,0-0.3c-0.1,0-0.2,0.1-0.3,0c-0.2-0.1-0.3-0.2-0.3-0.4c-0.1-0.3,0-0.7,0.1-1.1c0.2-0.5,0.6-1,1.1-1.5
	c0.3-0.2,0.7-0.5,1.1-0.7c-0.6-0.3-1-1-1-1.6c0-1,0.8-1.7,2-1.7c1.1,0,2,0.7,2,1.8c0,0.7-0.3,1.2-0.9,1.6c0.5,0.2,0.8,0.5,1.1,0.7
	c0.1,0.1,0.2,0.2,0.2,0.2c-0.2,0.2-0.5,0.3-0.7,0.5c-0.7,0.6-1.2,1.3-1.5,2C8.7,14.7,8.7,15.1,8.7,15.5z M18.7,15.9
	c-0.1,0.2-0.2,0.4-0.5,0.5c-0.2,0.1-0.4,0.1-0.5-0.1c0,0.1,0,0.3,0,0.4c-0.8,0.6-1.9,1-3.4,1h-0.7c-1.4,0-2.5-0.3-3.3-0.9
	c0-0.1,0-0.2,0-0.3c-0.1,0.1-0.2,0.1-0.5-0.1c-0.3-0.1-0.4-0.3-0.5-0.5c-0.1-0.1-0.1-0.3-0.1-0.5c0-0.3,0.1-0.7,0.2-1.1
	c0.3-0.7,0.8-1.4,1.5-2c0.1-0.1,0.2-0.2,0.3-0.2c0.3-0.3,0.8-0.5,1.2-0.7c-0.8-0.5-1.4-1.3-1.4-2.3c0-1.5,1.2-2.7,2.8-2.7
	s2.8,1.2,2.8,2.7c0,1-0.5,1.8-1.3,2.3c0.6,0.3,1.2,0.6,1.6,1c0.7,0.6,1.2,1.3,1.5,2C18.7,14.9,18.8,15.4,18.7,15.9z"/>
</svg>
