<?xml version="1.0" encoding="utf-8"?>
<!-- Generator: Adobe Illustrator 20.1.0, SVG Export Plug-In . SVG Version: 6.00 Build 0)  -->
<!DOCTYPE svg PUBLIC "-//W3C//DTD SVG 1.1//EN" "http://www.w3.org/Graphics/SVG/1.1/DTD/svg11.dtd">
<svg version="1.1" xmlns="http://www.w3.org/2000/svg" xmlns:xlink="http://www.w3.org/1999/xlink" x="0px" y="0px"
	 viewBox="0 0 24 24" style="enable-background:new 0 0 24 24;" xml:space="preserve">
<g id="Layer_1">
	<g id="Layer_1_1_">
	</g>
</g>
<g id="Layer_2">
	<g>
		<path d="M12.1,10.7c-0.1,0-0.2,0-0.3,0c-0.1,0-0.3,0.1-0.3,0.1c-0.3,0.1-0.5,0.3-0.8,0.5c-0.1,0.2-0.3,0.3-0.4,0.4
			c0-0.3-0.1-0.6-0.3-0.9c-0.4-0.5-1.1-0.6-1.7-0.3c-0.3,0.1-0.4,0.4-0.5,0.7c-0.2,0.6-0.1,1.2,0,1.8C8,13.2,8,13.4,8,13.6
			c0,0.1,0,0.1,0.1,0.2c0.1,0.1,0.3,0.1,0.4,0.1c0.4-0.1,0.3-0.6,0.3-0.8c0-0.5-0.2-1.1-0.1-1.6c0.1-0.3,0.2-0.5,0.4-0.6
			c0.3-0.1,0.4,0,0.5,0.2c0.1,0.3,0.1,0.7,0.2,1c0,0.1,0.1,0.3,0.1,0.3l0.1,0.1c0.1,0,0.3-0.2,0.4-0.3c0.3-0.2,0.6-0.4,0.9-0.6
			c0.1-0.1,0.4-0.2,0.6-0.1c0.1,0.1,0.1,0.1,0.1,0.1c0.2,0.3,0,0.4-0.1,0.7c-0.1,0.3-0.3,0.6-0.5,0.9c-0.2,0.3-0.4,0.4-0.6,0.8
			c-0.1,0.2-0.1,0.4-0.1,0.6c0.1,0.1,0.2,0.3,0.3,0.2c0.1,0,0.2-0.1,0.3-0.3c0.1-0.2,0.3-0.3,0.4-0.5c0.3-0.3,0.6-0.6,0.8-1
			c0.3-0.4,0.4-0.9,0.4-1.4C12.7,11.4,12.6,10.8,12.1,10.7z"/>
		<path d="M18.9,9.7c-0.1-0.7-0.4-1.4-0.6-2.1c-0.8-2-2.1-3.9-4.2-4.9c-0.8-0.4-1.7-0.6-2.6-0.6c-0.4-0.1-0.8-0.1-1.3-0.1
			c-0.2,0-0.4,0-0.7,0C9.2,2.1,8.9,2.1,8.5,2.2C7.8,2.2,7.1,2.5,6.4,2.7C6.2,2.9,5.9,2.9,5.7,3C5.6,3.1,5.5,3.1,5.4,3.2
			C5.4,3.2,5.4,3.3,5.4,3.4c0,0.1,0,0.3-0.1,0.4c0,0.5-0.1,1,0,1.6c0.1,0.1,0.1,0.4,0.3,0.4c0.3,0.1,0.6-0.3,0.7-0.5
			C6.7,4.7,7,4.3,7.7,4c0.7-0.3,1.5-0.3,2.3-0.4c2.1-0.1,4.4,0.3,5.9,1.7C16,5.5,16.3,5.8,16.4,6c0.7,0.9,1.1,2.1,1.3,3.2
			c0.1,0.6,0.1,1.1,0,1.6c-0.3,0.9-0.8,1.8-1.4,2.4c-0.4,0.5-0.9,0.9-1.5,1.3c-0.3,0.2-0.6,0.4-0.9,0.6s-0.6,0.6-0.8,1
			c-0.6,1-0.7,2.2-0.6,3.3c0.1,0.3,0.1,0.4,0.1,0.7c0,0.1,0,0.2,0.1,0.3c0.1,0.1,0.3,0.2,0.4,0.2c0.1,0,0.3-0.1,0.3-0.2
			c0.1-0.2,0-0.4,0-0.6c-0.1-0.4-0.1-0.8-0.1-1.3c0.1-0.8,0.3-1.4,0.9-2c0.6-0.6,1.3-0.9,1.9-1.4c1.3-0.9,2.4-2.3,2.8-3.8
			C18.9,10.9,19,10.3,18.9,9.7z"/>
		<path d="M7.3,17c0.8,0.7,1.8,1.1,2.8,1c0.4,0,0.8-0.1,1.2-0.3c0.2-0.1,0.4-0.4,0.1-0.6c-0.1,0-0.1-0.1-0.1-0.1
			c-0.1,0-0.3,0.1-0.4,0.1c-0.2,0.1-0.4,0.1-0.6,0.2c-0.6,0.1-1.3-0.1-1.7-0.4c-0.4-0.3-0.7-0.8-1-1.2c-0.2-0.2-0.4-0.5-0.7-0.4
			c-0.4,0.1-0.4,0.4-0.4,0.8C6.7,16.4,7,16.8,7.3,17z"/>
		<path d="M6,17.4c-0.1-0.1-0.3,0-0.3,0c-0.1,0-0.2,0-0.3,0.1c-0.2,0.1,0,0.4,0.1,0.5c0.3,0.4,0.6,0.6,1,0.9c1,0.7,2.2,1.1,3.4,1.2
			c0.4,0,0.7,0,1.1-0.1c0.1,0,0.3,0,0.4-0.1c0.3-0.1,0.3-0.8-0.1-0.9c-0.1-0.1-0.3,0-0.5,0.1c-0.3,0.1-0.6,0.1-1,0.1
			c-0.9,0-1.8-0.3-2.5-0.7c-0.3-0.2-0.6-0.4-0.8-0.6C6.4,17.8,6.2,17.5,6,17.4z"/>
		<path d="M12,20.9c-0.1-0.1-0.3,0.1-0.5,0.1c-0.3,0.1-0.7,0.3-1,0.3c-0.4,0.1-0.9-0.1-1.3-0.1C8.8,21.1,8.4,21,8,20.9
			c-0.3-0.1-0.6-0.3-0.9-0.4c-0.1-0.1-0.2-0.1-0.3-0.2c-0.3-0.3-0.4-0.5-0.6-0.8c-0.1-0.1-0.3-0.3-0.4-0.2c-0.1,0-0.3,0.1-0.4,0.2
			c-0.1,0.1-0.1,0.1-0.2,0.3c-0.2,0.5,0.4,1,0.8,1.3c0.4,0.3,0.9,0.4,1.4,0.6c1.1,0.4,2.4,0.6,3.6,0.3c0.4-0.1,0.7-0.3,0.9-0.5
			C12.1,21.3,12.2,21,12,20.9z"/>
	</g>
</g>
</svg>
