<?xml version="1.0" encoding="utf-8"?>
<!-- Generator: Adobe Illustrator 20.1.0, SVG Export Plug-In . SVG Version: 6.00 Build 0)  -->
<!DOCTYPE svg PUBLIC "-//W3C//DTD SVG 1.1//EN" "http://www.w3.org/Graphics/SVG/1.1/DTD/svg11.dtd">
<svg version="1.1" xmlns="http://www.w3.org/2000/svg" xmlns:xlink="http://www.w3.org/1999/xlink" x="0px" y="0px"
	 viewBox="0 0 24 24" style="enable-background:new 0 0 24 24;" xml:space="preserve">
<g id="Layer_1">
	<g id="facebook">
		<path d="M20,3H4C3.4,3,3,3.4,3,4v16c0,0.5,0.4,1,1,1h8.6v-7h-2.3v-2.7h2.3v-2c0-2.3,1.4-3.6,3.5-3.6c1,0,1.8,0.1,2.1,0.1v2.4
			l-1.4,0c-1.1,0-1.3,0.5-1.3,1.3v1.7h2.7L17.8,14h-2.3v7H20c0.5,0,1-0.4,1-1V4C21,3.4,20.6,3,20,3z"/>
	</g>
	<g id="Layer_1_1_">
	</g>
</g>
<g id="Layer_2">
</g>
</svg>
