<?xml version="1.0" encoding="utf-8"?>
<!-- Generator: Adobe Illustrator 20.1.0, SVG Export Plug-In . SVG Version: 6.00 Build 0)  -->
<!DOCTYPE svg PUBLIC "-//W3C//DTD SVG 1.1//EN" "http://www.w3.org/Graphics/SVG/1.1/DTD/svg11.dtd">
<svg version="1.1" id="Layer_1" xmlns="http://www.w3.org/2000/svg" xmlns:xlink="http://www.w3.org/1999/xlink" x="0px" y="0px"
	 viewBox="0 0 24 24" style="enable-background:new 0 0 24 24;" xml:space="preserve">
<style type="text/css">
	.st0{fill:#A5B2BD;}
	.st1{fill:#3197D6;}
</style>
<g>
	<path d="M18.4,5.6c-3.5-3.5-9.2-3.5-12.7,0c-3.5,3.5-3.5,9.2,0,12.7C7.4,20.1,9.7,21,12,21s4.6-0.9,6.4-2.6
		C21.9,14.9,21.9,9.1,18.4,5.6z M17,17c-2.7,2.7-7.2,2.7-9.9,0C4.3,14.2,4.3,9.8,7,7c1.4-1.4,3.2-2,5-2s3.6,0.7,5,2
		C19.7,9.8,19.7,14.2,17,17z"/>
	<path d="M15.5,11H13V8.5c0-0.6-0.4-1-1-1s-1,0.4-1,1V11H8.5c-0.6,0-1,0.4-1,1s0.4,1,1,1H11v2.5c0,0.6,0.4,1,1,1s1-0.4,1-1V13h2.5
		c0.6,0,1-0.4,1-1S16.1,11,15.5,11z"/>
</g>
</svg>
