<?xml version="1.0" encoding="utf-8"?>
<!-- Generator: Adobe Illustrator 20.1.0, SVG Export Plug-In . SVG Version: 6.00 Build 0)  -->
<!DOCTYPE svg PUBLIC "-//W3C//DTD SVG 1.1//EN" "http://www.w3.org/Graphics/SVG/1.1/DTD/svg11.dtd">
<svg version="1.1" id="Layer_1" xmlns="http://www.w3.org/2000/svg" xmlns:xlink="http://www.w3.org/1999/xlink" x="0px" y="0px"
	 viewBox="0 0 24 24" style="enable-background:new 0 0 24 24;" xml:space="preserve">
<g>
	<path d="M12.9,8.5c-0.5-0.2-1.2-0.4-1.7-0.1c-3.2,1.4-1.9,8.3,1.4,7.2c0,0-0.1-0.1-0.1-0.1c-0.1-0.6-0.9-1-0.9-1v-1
		c0,0,1.7,0,2.3,1.1c0,0,0.1,0,0.1-0.1C15.1,12.5,15.1,9.8,12.9,8.5z"/>
	<path d="M19,3H5C3.9,3,3,3.9,3,5v14c0,1.1,0.9,2,2,2h14c1.1,0,2-0.9,2-2V5C21,3.9,20.1,3,19,3z M16.5,13.8c-0.4,1.1-1.2,1.6-2,2.4
		c0.2,0.7,1.2,1,1.2,1l0,0.7c0,0-1.9,0-2.6-1.2c-3.7,0.7-6.8-2.9-5.7-6.3C7.8,9.2,8.9,8,10.1,7.5c0.5-0.3,1.1-0.3,1.7-0.4
		C15,7.3,18,10.2,16.5,13.8z"/>
</g>
</svg>
