<?xml version="1.0" encoding="utf-8"?>
<!-- Generator: Adobe Illustrator 20.1.0, SVG Export Plug-In . SVG Version: 6.00 Build 0)  -->
<!DOCTYPE svg PUBLIC "-//W3C//DTD SVG 1.1//EN" "http://www.w3.org/Graphics/SVG/1.1/DTD/svg11.dtd">
<svg version="1.1" id="Layer_1" xmlns="http://www.w3.org/2000/svg" xmlns:xlink="http://www.w3.org/1999/xlink" x="0px" y="0px"
	 viewBox="0 0 24 24" style="enable-background:new 0 0 24 24;" xml:space="preserve">
<path d="M17.2,13.3l-0.8-0.2C17.4,12,18,10.6,18,9c0-3.3-2.7-6-6-6S6,5.7,6,9c0,1.6,0.6,3,1.6,4.1l-0.8,0.2C4.6,13.8,3,15.8,3,18.1
	V20c0,0.6,0.4,1,1,1s1-0.4,1-1v-1.9c0-1.4,0.9-2.6,2.3-2.9L8.1,15H12h3.9l0.9,0.2c1.3,0.3,2.3,1.5,2.3,2.9V20c0,0.6,0.4,1,1,1
	s1-0.4,1-1v-1.9C21,15.8,19.4,13.8,17.2,13.3z M12,5c2.2,0,4,1.8,4,4s-1.8,4-4,4s-4-1.8-4-4S9.8,5,12,5z"/>
</svg>
