<?xml version="1.0" encoding="utf-8"?>
<!-- Generator: Adobe Illustrator 20.1.0, SVG Export Plug-In . SVG Version: 6.00 Build 0)  -->
<!DOCTYPE svg PUBLIC "-//W3C//DTD SVG 1.1//EN" "http://www.w3.org/Graphics/SVG/1.1/DTD/svg11.dtd">
<svg version="1.1" id="Layer_1" xmlns="http://www.w3.org/2000/svg" xmlns:xlink="http://www.w3.org/1999/xlink" x="0px" y="0px"
	 viewBox="0 0 24 24" style="enable-background:new 0 0 24 24;" xml:space="preserve">
<path d="M18,10h-2.4l2.3-4.6c0.2-0.3,0.1-0.7,0-1S17.3,4,17,4H9C8.5,4,8.1,4.3,8,4.8l-2,8c-0.1,0.3,0,0.6,0.2,0.9
	C6.4,13.9,6.7,14,7,14h1.8L8,18.8c-0.1,0.4,0.1,0.8,0.5,1C8.7,20,8.8,20,9,20c0.2,0,0.5-0.1,0.7-0.3l9-8c0.3-0.3,0.4-0.7,0.3-1.1
	S18.4,10,18,10z M13.1,11.5c0.2,0.3,0.5,0.5,0.9,0.5h1.4l-4.9,4.4l0.5-3.2c0-0.3,0-0.6-0.2-0.8C10.6,12.1,10.3,12,10,12H8.3l1.5-6
	h5.6l-2.3,4.6C13,10.9,13,11.2,13.1,11.5z"/>
</svg>
