<?xml version="1.0" encoding="utf-8"?>
<!-- Generator: Adobe Illustrator 20.1.0, SVG Export Plug-In . SVG Version: 6.00 Build 0)  -->
<!DOCTYPE svg PUBLIC "-//W3C//DTD SVG 1.1//EN" "http://www.w3.org/Graphics/SVG/1.1/DTD/svg11.dtd">
<svg version="1.1" id="Layer_1" xmlns="http://www.w3.org/2000/svg" xmlns:xlink="http://www.w3.org/1999/xlink" x="0px" y="0px"
	 viewBox="0 0 24 24" style="enable-background:new 0 0 24 24;" xml:space="preserve">
<path d="M20.1,13.7l-0.8-0.8c-0.2-0.2-0.3-0.5-0.3-0.8V10c0-3.5-2.6-6.4-6-6.9V2c0-0.6-0.4-1-1-1s-1,0.4-1,1v1.1C7.6,3.6,5,6.5,5,10
	v2.1c0,0.3-0.1,0.6-0.3,0.8l-0.8,0.8C3.3,14.3,3,15,3,15.9C3,17.6,4.4,19,6.1,19h2c0.4,1.7,2,3,3.9,3s3.4-1.3,3.9-3h2
	c1.7,0,3.1-1.4,3.1-3.1C21,15.1,20.7,14.3,20.1,13.7z M12,20c-0.7,0-1.4-0.4-1.7-1h3.4C13.4,19.6,12.7,20,12,20z M17.9,17H6.1
	C5.5,17,5,16.5,5,15.9c0-0.3,0.1-0.6,0.3-0.8l0.8-0.8C6.7,13.7,7,13,7,12.1V10c0-2.8,2.2-5,5-5s5,2.2,5,5v2.1c0,0.8,0.3,1.6,0.9,2.2
	l0.8,0.8c0.2,0.2,0.3,0.5,0.3,0.8C19,16.5,18.5,17,17.9,17z"/>
</svg>
