<?xml version="1.0" encoding="utf-8"?>
<!-- Generator: Adobe Illustrator 20.1.0, SVG Export Plug-In . SVG Version: 6.00 Build 0)  -->
<!DOCTYPE svg PUBLIC "-//W3C//DTD SVG 1.1//EN" "http://www.w3.org/Graphics/SVG/1.1/DTD/svg11.dtd">
<svg version="1.1" id="Layer_1" xmlns="http://www.w3.org/2000/svg" xmlns:xlink="http://www.w3.org/1999/xlink" x="0px" y="0px"
	 viewBox="0 0 24 24" style="enable-background:new 0 0 24 24;" xml:space="preserve">
<g id="Layer_1_1_">
</g>
<g id="Layer_1_2_">
</g>
<g id="foursquare">
	<path d="M17.4,2.1c0,0-9,0-10.5,0S5,3.2,5,3.9s0,16.9,0,16.9c0,0.8,0.4,1.1,0.6,1.2c0.2,0.1,0.9,0.2,1.3-0.3c0,0,4.9-5.8,5-5.9
		c0.1-0.1,0.1-0.1,0.3-0.1h3.2c1.3,0,1.6-1,1.7-1.6c0.1-0.3,0.7-3.4,1.2-6.1L19,4.6C19.3,3,18.9,2.1,17.4,2.1z M16.3,7.3
		c-0.1,0.3-0.4,0.5-0.7,0.5c-0.3,0-4.1,0-4.1,0c-0.5,0-0.8,0.3-0.8,0.8v0.5c0,0.5,0.3,0.8,0.8,0.8c0,0,3.1,0,3.5,0
		c0.3,0,0.6,0.4,0.6,0.7c-0.1,0.4-0.4,2.1-0.4,2.3c0,0.2-0.3,0.5-0.6,0.5c-0.3,0-2.8,0-2.8,0c-0.5,0-0.7,0.1-1,0.5
		c-0.3,0.4-3.4,4.2-3.4,4.2c0,0-0.1,0-0.1,0V4.9c0-0.3,0.3-0.6,0.6-0.6c0,0,8.1,0,8.4,0c0.3,0,0.6,0.3,0.5,0.7L16.3,7.3z"/>
</g>
<g id="Layer_1_3_">
</g>
</svg>
