<?xml version="1.0" encoding="utf-8"?>
<!-- Generator: Adobe Illustrator 21.1.0, SVG Export Plug-In . SVG Version: 6.00 Build 0)  -->
<svg version="1.1" id="Layer_1" xmlns="http://www.w3.org/2000/svg" xmlns:xlink="http://www.w3.org/1999/xlink" x="0px" y="0px"
	 viewBox="0 0 24 24" style="enable-background:new 0 0 24 24;" xml:space="preserve">
<path d="M12,6h-0.6l1.3-1.3c0.4-0.4,0.4-1,0-1.4s-1-0.4-1.4,0l-3,3c-0.4,0.4-0.4,1,0,1.4l3,3c0.2,0.2,0.5,0.3,0.7,0.3
	s0.5-0.1,0.7-0.3c0.4-0.4,0.4-1,0-1.4L11.4,8H12c2.8,0,5,2.2,5,5s-2.2,5-5,5s-5-2.2-5-5c0-0.6-0.4-1-1-1s-1,0.4-1,1c0,3.9,3.1,7,7,7
	c3.9,0,7-3.1,7-7C19,9.1,15.9,6,12,6z"/>
</svg>
