<?xml version="1.0" encoding="utf-8"?>
<!-- Generator: Adobe Illustrator 21.1.0, SVG Export Plug-In . SVG Version: 6.00 Build 0)  -->
<svg version="1.1" id="Layer_1" xmlns="http://www.w3.org/2000/svg" xmlns:xlink="http://www.w3.org/1999/xlink" x="0px" y="0px"
	 viewBox="0 0 24 24" style="enable-background:new 0 0 24 24;" xml:space="preserve">
<path d="M12,22c-0.9,0-1.8-0.4-2.4-1.2l-7-9c-0.8-1.2-1.2-2.7-1.1-4.1c0.3-3,2.8-5.4,5.8-5.6C9,2,10.7,2.5,12,3.6
	c1.3-1.1,3-1.7,4.7-1.5c3,0.2,5.5,2.7,5.8,5.6c0.1,1.5-0.3,2.9-1.1,4.1l-7,9.1C13.8,21.6,12.9,22,12,22z M11.2,19.6
	c0.2,0.2,0.5,0.4,0.8,0.4s0.6-0.1,0.8-0.4l7-9c0.6-0.8,0.8-1.7,0.7-2.8c-0.2-2-1.9-3.7-4-3.8c-1.5-0.1-2.9,0.5-3.8,1.6l-0.8,1
	l-0.8-1C10.3,4.5,8.9,3.9,7.5,4c-2.1,0.2-3.8,1.8-4,3.8c-0.1,1,0.2,2,0.8,2.8L11.2,19.6z"/>
</svg>
