<?xml version="1.0" encoding="utf-8"?>
<!-- Generator: Adobe Illustrator 21.1.0, SVG Export Plug-In . SVG Version: 6.00 Build 0)  -->
<svg version="1.1" id="Layer_1" xmlns="http://www.w3.org/2000/svg" xmlns:xlink="http://www.w3.org/1999/xlink" x="0px" y="0px"
	 viewBox="0 0 24 24" style="enable-background:new 0 0 24 24;" xml:space="preserve">
<path id="Shape" d="M8.8,5.6c-0.2,0-0.4,0-0.6,0.1C7,5.9,5.9,6.9,5.7,8.1c-0.2,0.9,0,1.8,0.5,2.6l5.8,7.7l5.8-7.7
	c0.5-0.7,0.7-1.7,0.5-2.6C18,6.9,17,5.9,15.8,5.7c-1.2-0.2-2.4,0.2-3.2,1.2c-0.3,0.4-1,0.4-1.3,0C10.7,6,9.8,5.6,8.8,5.6L8.8,5.6z
	 M12,18.4l-0.6,0.5L12,18.4L12,18.4z M12,20c-0.5,0-1-0.2-1.3-0.6l-5.9-7.8c-0.8-1.1-1.1-2.5-0.8-3.9C4.5,5.9,6,4.4,7.9,4.1
	c1.5-0.3,3,0.1,4.1,1.1c1.1-1,2.6-1.4,4.1-1.1c1.9,0.4,3.4,1.8,3.8,3.7c0.3,1.4,0,2.7-0.8,3.9l-5.9,7.8C13,19.8,12.5,20,12,20L12,20
	z"/>
</svg>
