<?xml version="1.0" encoding="utf-8"?>
<!-- Generator: Adobe Illustrator 20.1.0, SVG Export Plug-In . SVG Version: 6.00 Build 0)  -->
<!DOCTYPE svg PUBLIC "-//W3C//DTD SVG 1.1//EN" "http://www.w3.org/Graphics/SVG/1.1/DTD/svg11.dtd">
<svg version="1.1" id="Layer_1" xmlns="http://www.w3.org/2000/svg" xmlns:xlink="http://www.w3.org/1999/xlink" x="0px" y="0px"
	 viewBox="0 0 24 24" style="enable-background:new 0 0 24 24;" xml:space="preserve">
<style type="text/css">
	.st0{fill:none;stroke:#000000;stroke-width:2;stroke-linecap:round;stroke-linejoin:round;stroke-miterlimit:10;}
</style>
<g>
	<path d="M18,13c-0.6,0-1,0.4-1,1v4c0,0.6-0.4,1-1,1H6c-0.6,0-1-0.4-1-1V8c0-0.6,0.4-1,1-1h4c0.6,0,1-0.4,1-1s-0.4-1-1-1H6
		C4.3,5,3,6.3,3,8v10c0,1.7,1.3,3,3,3h10c1.7,0,3-1.3,3-3v-4C19,13.4,18.6,13,18,13z"/>
	<path d="M20,3h-6c-0.6,0-1,0.4-1,1s0.4,1,1,1h3.6l-6.3,6.3c-0.4,0.4-0.4,1,0,1.4c0.2,0.2,0.5,0.3,0.7,0.3s0.5-0.1,0.7-0.3L19,6.4
		V10c0,0.6,0.4,1,1,1s1-0.4,1-1V4C21,3.4,20.6,3,20,3z"/>
</g>
</svg>
