<?xml version="1.0" encoding="utf-8"?>
<!-- Generator: Adobe Illustrator 20.1.0, SVG Export Plug-In . SVG Version: 6.00 Build 0)  -->
<!DOCTYPE svg PUBLIC "-//W3C//DTD SVG 1.1//EN" "http://www.w3.org/Graphics/SVG/1.1/DTD/svg11.dtd">
<svg version="1.1" id="Layer_1" xmlns="http://www.w3.org/2000/svg" xmlns:xlink="http://www.w3.org/1999/xlink" x="0px" y="0px"
	 viewBox="0 0 24 24" style="enable-background:new 0 0 24 24;" xml:space="preserve">
<style type="text/css">
	.st0{fill:#A5B2BD;}
	.st1{fill:#3197D6;}
</style>
<g>
	<path d="M12,9c-2.2,0-4,1.8-4,4s1.8,4,4,4s4-1.8,4-4S14.2,9,12,9z M12,15c-1.1,0-2-0.9-2-2s0.9-2,2-2s2,0.9,2,2S13.1,15,12,15z"/>
	<path d="M18,6h-1.5l-1.7-2.6C14.6,3.2,14.3,3,14,3h-4C9.7,3,9.4,3.2,9.2,3.4L7.5,6H6C4.3,6,3,7.3,3,9v9c0,1.7,1.3,3,3,3h12
		c1.7,0,3-1.3,3-3V9C21,7.3,19.7,6,18,6z M19,18c0,0.6-0.4,1-1,1H6c-0.6,0-1-0.4-1-1V9c0-0.6,0.4-1,1-1h2c0.3,0,0.6-0.2,0.8-0.4
		L10.5,5h2.9l1.7,2.6C15.4,7.8,15.7,8,16,8h2c0.6,0,1,0.4,1,1V18z"/>
</g>
</svg>
