<?xml version="1.0" encoding="utf-8"?>
<!-- Generator: Adobe Illustrator 21.1.0, SVG Export Plug-In . SVG Version: 6.00 Build 0)  -->
<!DOCTYPE svg PUBLIC "-//W3C//DTD SVG 1.1//EN" "http://www.w3.org/Graphics/SVG/1.1/DTD/svg11.dtd">
<svg version="1.1" id="Layer_1" xmlns="http://www.w3.org/2000/svg" xmlns:xlink="http://www.w3.org/1999/xlink" x="0px" y="0px"
	 viewBox="0 0 24 24" style="enable-background:new 0 0 24 24;" xml:space="preserve">
<g>
	<path d="M19,3H5C3.9,3,3,3.9,3,5v14c0,1.1,0.9,2,2,2h14c1.1,0,2-0.9,2-2V5C21,3.9,20.1,3,19,3z M17.9,11.9
		c-0.1,0.6-0.2,1.2-0.4,1.7c0,0,0,0,0,0c-0.1,0.2-0.2,0.4-0.3,0.6c-0.2,0.4-0.4,0.8-0.6,1.1c-0.1,0.2-0.2,0.3-0.3,0.5
		c-0.1,0.1-0.2,0.3-0.3,0.4c-0.1,0.1-0.1,0.2-0.2,0.2c-0.2,0.2-0.4,0.4-0.5,0.5c-0.9,0.9-2,1.5-3.1,2.1c0,0,0,0,0,0c0,0,0-0.1,0-0.1
		c0-0.6,0-1.2,0-1.8c0-0.1,0-0.1-0.1-0.1c-1.1,0-2.2-0.3-3.2-0.9c-0.3-0.2-0.6-0.4-0.9-0.7c-0.5-0.5-0.9-1-1.2-1.7
		c0,0,0-0.1-0.1-0.1c-0.2-0.4-0.3-0.8-0.4-1.3C6,11.8,6,11.2,6,10.6c0.1-1.2,0.5-2.3,1.3-3.3c0.9-1.2,2.2-1.9,3.6-2.2
		c0.2,0,0.4-0.1,0.6-0.1c0,0,0,0,0,0c0.3,0,0.5,0,0.8,0c0.1,0,0.2,0,0.3,0c0.9,0.1,1.8,0.4,2.6,0.9c0.4,0.3,0.8,0.6,1.1,0.9
		c0.8,0.9,1.3,1.9,1.5,3c0.1,0.4,0.1,0.9,0.1,1.3C18,11.5,18,11.7,17.9,11.9z"/>
	<path d="M14.9,9.1c-0.7,0-1.4,0-2.1,0c-0.1,0-0.1,0-0.1,0c-0.1,0.1-0.2,0.2-0.1,0.3c0,0,0,0,0,0c0,0.7,0,1.4,0,2.1
		c0,0.2,0.1,0.3,0.3,0.3c0,0,0.1,0,0.1,0c0.4,0,0.9,0,1.3,0c0,0.2-0.1,0.4-0.3,0.5c-0.1,0.1-0.3,0.2-0.4,0.2c-0.1,0-0.2,0.1-0.2,0.2
		c0,0,0,0.1,0,0.1c0,0.1,0,0.3,0,0.4c0,0.1,0,0.2,0,0.2c0,0.1,0.1,0.2,0.2,0.2c0.1,0,0.3-0.1,0.4-0.1c0,0,0,0,0,0c0,0,0,0,0,0
		c0,0,0,0,0,0c0,0,0,0,0,0c0,0,0,0,0,0c0.6-0.3,1.1-0.9,1.1-1.6c0-0.8,0-1.6,0-2.4c0,0,0-0.1,0-0.1C15.2,9.3,15.1,9.1,14.9,9.1z"/>
	<path d="M11.2,9.1c-0.7,0-1.4,0-2.1,0c-0.1,0-0.1,0-0.2,0.1C8.8,9.2,8.8,9.3,8.8,9.5c0,0.7,0,1.4,0,2.2c0,0.1,0.1,0.2,0.2,0.3
		c0,0,0.1,0,0.1,0c0.5,0,1,0,1.4,0c0,0,0,0.1,0,0.1c-0.1,0.2-0.2,0.4-0.4,0.5c-0.1,0.1-0.2,0.1-0.3,0.1c0,0-0.1,0-0.1,0.1
		c-0.1,0.1,0,0.1,0,0.2c0,0.2,0,0.5,0,0.7c0,0.1,0.1,0.1,0.2,0.1c0.1,0,0.2,0,0.3-0.1c0.2-0.1,0.5-0.2,0.7-0.3c0,0,0,0,0.1-0.1
		c0.4-0.4,0.6-0.8,0.6-1.3c0-0.8,0-1.6,0-2.4c0,0,0-0.1,0-0.1C11.5,9.3,11.4,9.1,11.2,9.1z"/>
</g>
</svg>
