<?xml version="1.0" encoding="utf-8"?>
<!-- Generator: Adobe Illustrator 20.1.0, SVG Export Plug-In . SVG Version: 6.00 Build 0)  -->
<!DOCTYPE svg PUBLIC "-//W3C//DTD SVG 1.1//EN" "http://www.w3.org/Graphics/SVG/1.1/DTD/svg11.dtd">
<svg version="1.1" id="Layer_1" xmlns="http://www.w3.org/2000/svg" xmlns:xlink="http://www.w3.org/1999/xlink" x="0px" y="0px"
	 viewBox="0 0 24 24" style="enable-background:new 0 0 24 24;" xml:space="preserve">
<g>
	<path d="M18,5h-1V4c0-0.6-0.4-1-1-1s-1,0.4-1,1v1H9V4c0-0.6-0.4-1-1-1S7,3.4,7,4v1H6C4.3,5,3,6.3,3,8v10c0,1.7,1.3,3,3,3h12
		c1.7,0,3-1.3,3-3V8C21,6.3,19.7,5,18,5z M6,7h12c0.6,0,1,0.4,1,1v1H5V8C5,7.4,5.4,7,6,7z M18,19H6c-0.6,0-1-0.4-1-1v-7h14v7
		C19,18.6,18.6,19,18,19z"/>
	<circle cx="8" cy="13" r="1"/>
	<circle cx="12" cy="13" r="1"/>
	<circle cx="16" cy="13" r="1"/>
	<circle cx="16" cy="17" r="1"/>
	<circle cx="12" cy="17" r="1"/>
	<circle cx="8" cy="17" r="1"/>
</g>
</svg>
