<?xml version="1.0" encoding="utf-8"?>
<!-- Generator: Adobe Illustrator 21.1.0, SVG Export Plug-In . SVG Version: 6.00 Build 0)  -->
<!DOCTYPE svg PUBLIC "-//W3C//DTD SVG 1.1//EN" "http://www.w3.org/Graphics/SVG/1.1/DTD/svg11.dtd">
<svg version="1.1" id="Layer_1" xmlns="http://www.w3.org/2000/svg" xmlns:xlink="http://www.w3.org/1999/xlink" x="0px" y="0px"
	 viewBox="0 0 24 24" style="enable-background:new 0 0 24 24;" xml:space="preserve">
<path d="M19,3H5C3.9,3,3,3.9,3,5v14c0,1.1,0.9,2,2,2h14c1.1,0,2-0.9,2-2V5C21,3.9,20.1,3,19,3z M18,14.9l0,0.1
	c-0.1,0-0.1,0.1-0.3,0.1c-0.1,0-0.2,0-0.4,0c-0.1,0-0.2-0.1-0.3-0.1c-0.1-0.1-0.2-0.2-0.3-0.2l-0.2-0.1c-0.1,0.2-0.1,0.4-0.2,0.5
	l-0.4,0.6c0.3,0.1,0.5,0.2,0.7,0.4c0.1,0.1,0.2,0.2,0.2,0.3s0.1,0.2,0.1,0.2v0.1c0,0.3-0.2,0.6-0.6,0.8c-0.3,0.1-0.6,0.2-0.9,0.3
	c-0.3,0.1-0.6,0.1-0.7,0.1h-0.3c-0.1,0-0.4,0-1.1-0.1c-0.1,0-0.2,0-0.3-0.1c-0.1,0-0.2-0.1-0.3-0.1c-0.1,0-0.2-0.1-0.2-0.1l-0.3,0
	c-0.1,0-0.2,0-0.3,0c0,0-0.1,0-0.3,0.1c-0.2,0.1-0.4,0.1-0.5,0.2l-1.1,0.1c-0.7,0-1.3-0.1-1.9-0.4c-0.1,0-0.2-0.1-0.3-0.2
	c-0.1-0.1-0.1-0.1-0.2-0.2c0-0.1-0.1-0.1-0.1-0.2c0-0.1,0-0.1,0-0.1l0,0c0-0.2,0.1-0.4,0.3-0.6c0,0,0.1-0.1,0.2-0.1
	C7.7,16,7.7,16,7.8,16c0.1,0,0.1-0.1,0.2-0.1c0.1,0,0.1,0,0.1,0l0,0c-0.1-0.2-0.3-0.4-0.4-0.6l-0.2-0.5c-0.4,0.3-0.6,0.5-0.8,0.5
	c-0.2,0-0.3,0-0.4,0s-0.2,0-0.2-0.1l0,0c-0.2-0.1,0-0.8,0.4-2c0.1-0.2,0.1-0.3,0.2-0.4c0.1-0.1,0.1-0.3,0.2-0.4
	C6.8,12.1,6.9,12,7,11.9c0.1-0.1,0.1-0.2,0.1-0.2c0-0.1,0.1-0.1,0.1-0.1c0,0,0.1-0.1,0.1-0.1l0,0c0-0.1,0-0.1,0-0.3
	c0-0.1,0-0.3,0-0.6s0.1-0.6,0.1-0.9S7.6,9,7.8,8.5s0.4-0.8,0.7-1.1C8.9,7,9.4,6.6,10,6.4c0.6-0.2,1.1-0.3,1.5-0.4H12
	c0,0,0.1,0,0.2,0s0.3,0,0.6,0c0.3,0,0.6,0.1,0.8,0.2c0.3,0.1,0.6,0.2,0.9,0.4c0.3,0.2,0.6,0.4,0.8,0.7c0.3,0.3,0.5,0.7,0.7,1.1
	c0.2,0.4,0.3,0.8,0.4,1.1c0.1,0.3,0.1,0.6,0.1,0.9c0,0.3,0,0.5,0,0.7l0,0.3c0.3,0.2,0.6,0.8,0.8,1.5c0.2,0.5,0.3,1,0.4,1.3
	C18,14.7,18,14.9,18,14.9z"/>
</svg>
