<?xml version="1.0" encoding="utf-8"?>
<!-- Generator: Adobe Illustrator 20.1.0, SVG Export Plug-In . SVG Version: 6.00 Build 0)  -->
<!DOCTYPE svg PUBLIC "-//W3C//DTD SVG 1.1//EN" "http://www.w3.org/Graphics/SVG/1.1/DTD/svg11.dtd">
<svg version="1.1" id="Layer_1" xmlns="http://www.w3.org/2000/svg" xmlns:xlink="http://www.w3.org/1999/xlink" x="0px" y="0px"
	 viewBox="0 0 24 24" style="enable-background:new 0 0 24 24;" xml:space="preserve">
<path d="M18.9,10.6C18.8,10.2,18.4,10,18,10h-2.5l2.4-5.6c0.1-0.3,0.1-0.7-0.1-0.9C17.6,3.2,17.3,3,17,3H9C8.5,3,8.1,3.3,8,3.8l-2,9
	c-0.1,0.3,0,0.6,0.2,0.8C6.4,13.9,6.7,14,7,14h1.8L8,19.9c-0.1,0.4,0.2,0.8,0.5,1C8.7,21,8.8,21,9,21c0.3,0,0.5-0.1,0.7-0.3l9-9
	C19,11.4,19.1,11,18.9,10.6z M10.4,17.2l0.6-4c0-0.3,0-0.6-0.2-0.8C10.6,12.1,10.3,12,10,12H8.2l1.6-7h5.7l-2.4,5.6
	c-0.1,0.3-0.1,0.7,0.1,0.9c0.2,0.3,0.5,0.4,0.8,0.4h1.6L10.4,17.2z"/>
</svg>
