<?xml version="1.0" encoding="utf-8"?>
<!-- Generator: Adobe Illustrator 20.1.0, SVG Export Plug-In . SVG Version: 6.00 Build 0)  -->
<!DOCTYPE svg PUBLIC "-//W3C//DTD SVG 1.1//EN" "http://www.w3.org/Graphics/SVG/1.1/DTD/svg11.dtd">
<svg version="1.1" id="Layer_1" xmlns="http://www.w3.org/2000/svg" xmlns:xlink="http://www.w3.org/1999/xlink" x="0px" y="0px"
	 viewBox="0 0 24 24" style="enable-background:new 0 0 24 24;" xml:space="preserve">
<path d="M12,6c0.8,0,1.6,0.3,2.1,0.9c0.3,0.3,0.5,0.6,0.6,0.9c0.1,0.1,0.1,0.3,0.2,0.5C15,8.8,15.6,9.1,16.1,9
	c0.5-0.1,0.9-0.7,0.7-1.2c-0.1-0.3-0.2-0.5-0.3-0.8c-0.3-0.6-0.6-1.1-1-1.5C14.6,4.5,13.3,4,12,4C9.2,4,7,6.2,7,9v2.2
	c-1.2,0.4-2,1.5-2,2.8v3c0,1.7,1.3,3,3,3h8c1.7,0,3-1.3,3-3v-3c0-1.7-1.3-3-3-3H9V9C9,7.3,10.3,6,12,6z M17,14v3c0,0.6-0.4,1-1,1H8
	c-0.6,0-1-0.4-1-1v-3c0-0.6,0.4-1,1-1h8C16.6,13,17,13.4,17,14z"/>
</svg>
