<svg id="Layer_1" xmlns="http://www.w3.org/2000/svg" viewBox="0 0 24 24">
    <style>
        .st0{fill-rule:evenodd;clip-rule:evenodd}
    </style>
    <g transform="translate(-21 -225)">
        <g id="UI">
            <g id="sidebar" transform="translate(0 54)">
                <g id="icon--waving-hand" transform="translate(20 171)">
                    <path id="Fill-1" class="st0" d="M5.7 17.3s-1.2-.8-1.4-2.7c0-.3-.3-.6-.7-.6-.4 0-.6.3-.6.7.3 2.7 1.9 3.7 2 3.7.1.1.2.1.4.1s.4-.1.5-.3c.2-.3.1-.7-.2-.9"/>
                    <path id="Fill-4" class="st0" d="M15.2 3.2s1.6.5 1.9 2.7c0 .3.3.5.6.5h.1c.3 0 .6-.4.5-.7-.4-2.9-2.6-3.7-2.7-3.7-.3-.1-.7.1-.8.4-.1.4 0 .7.4.8"/>
                    <path id="Fill-7" class="st0" d="M20.4 11l-1 4.5c-.2.7-.3 1.3-.5 1.7-.7 1.2-1.7 1.8-2.1 2l-1.8.7c-1.1.5-2.3.5-3.4.1s-1.9-1.2-2.4-2.2l-2.9-6c-.2-.4 0-.9.4-1.1.4-.2.9 0 1.1.4l1.8 3.8c.1.3.5.4.8.3.3-.1.4-.5.2-.8L8 9c-.2-.4 0-.8.3-1 .4-.2.8 0 1 .3l2.1 4.3c.1.3.5.4.8.3.3-.1.4-.5.2-.8l-.3-.6L10 7.2c-.2-.4 0-.9.4-1.1.4-.2.9 0 1.1.4l2.5 5.1.3.5c.1.3.5.4.8.3.3-.1.4-.5.2-.8l-.4-.6-2-4.1c-.2-.4 0-.9.4-1.1.4-.2.9 0 1.1.4l2.8 5.8s.9 1.6 1.4-.1l.3-1.3c.1-.4.6-.7 1-.6.4.1.6.5.5 1m-.3-2.7c-.6-.1-1.2 0-1.8.4-.3.2-.6.6-.8.9l-1.9-4.2c-.3-.6-.7-1-1.3-1.2-.6-.2-1.2-.2-1.8 0-.3.1-.5.3-.7.5-.6-.4-1.4-.4-2.1-.1-.7.3-1.2 1-1.3 1.7-.3 0-.5.1-.8.2-.6.3-1 .7-1.2 1.3-.2.4-.2.8-.1 1.3-.1 0-.3 0-.4.1-.6.3-1 .7-1.2 1.3-.2.6-.2 1.2 0 1.8l.1.3 3 6.1c.4 1 1.1 1.7 1.4 1.9.8.6 2 1.2 3.5 1.3 0 0 1.8.3 5.3-1.5 2.6-1.3 2.9-4.2 2.9-4.2L22 11v-.1-.1c-.1-1.3-.8-2.3-1.9-2.5"/>
                </g>
            </g>
        </g>
    </g>
</svg>
