<svg data-name="Layer 1" xmlns="http://www.w3.org/2000/svg" viewBox="0 0 24 24">
    <title>
        dashboard
    </title>
    <path d="M12 6a9 9 0 0 0-9 9 1 1 0 0 0 1 1h2a1 1 0 0 0 0-2h-.9a6.92 6.92 0 0 1 1.3-3.13l.94.86A1 1 0 0 0 8 12a1 1 0 0 0 .72-.32 1 1 0 0 0 0-1.42l-.9-.82A7.29 7.29 0 0 1 11 8.09V9a1 1 0 1 0 2 0v-.93a6.8 6.8 0 0 1 3.15 1.31l-.86.9a1 1 0 0 0 0 1.41A1 1 0 0 0 16 12a1 1 0 0 0 .7-.28l.89-.92a6.81 6.81 0 0 1 1.33 3.2H18a1 1 0 0 0 0 2h2a1 1 0 0 0 1-1 9 9 0 0 0-9-9z"/>
    <path d="M13.9 15.44l-1.41-4.08a.5.5 0 0 0-1 0l-1.39 4.07a1.87 1.87 0 0 0-.1.57 2 2 0 0 0 4 0 2.13 2.13 0 0 0-.09-.58z"/>
</svg>
