<svg width="24" height="24" viewBox="0 0 24 24" fill="none" xmlns="http://www.w3.org/2000/svg">
<path fill-rule="evenodd" clip-rule="evenodd" d="M10.9181 4.33619C11.2367 4.11722 11.6142 4 12.0008 4C12.3873 4 12.7648 4.11722 13.0834 4.33619C13.4018 4.55503 13.6464 4.86523 13.785 5.22587L15.1708 8.82966L18.7481 10.206C19.117 10.3444 19.4348 10.5924 19.6587 10.9168C19.8839 11.2431 20.003 11.631 19.9999 12.0275L19.9999 12.0351C19.994 12.4164 19.8738 12.7871 19.6549 13.0993C19.4365 13.4109 19.1297 13.6499 18.7743 13.7855L18.7719 13.7864L15.1719 15.1708L13.7861 18.7726L13.7853 18.7748C13.6471 19.1363 13.4021 19.4473 13.0828 19.6662C12.7642 19.8845 12.3869 20.0009 12.0008 20C11.6146 20.0009 11.2373 19.8845 10.9187 19.6662C10.5994 19.4472 10.3543 19.1362 10.2161 18.7745L10.2154 18.7726L8.83069 15.1719L5.22648 13.7852C4.86558 13.6467 4.55515 13.402 4.33619 13.0834C4.11722 12.7648 4 12.3873 4 12.0008C4 11.6142 4.11722 11.2367 4.33619 10.9181C4.55515 10.5995 4.86558 10.3548 5.22648 10.2163L8.82965 8.8307L10.2163 5.22649M12.0007 6.15827L10.6292 9.72308C10.5496 9.92918 10.4277 10.1163 10.2715 10.2726C10.1152 10.4288 9.92808 10.5507 9.72199 10.6303L6.15827 12.0008L9.72308 13.3723C9.92917 13.4519 10.1163 13.5738 10.2726 13.73C10.4288 13.8863 10.5507 14.0734 10.6303 14.2795L10.6309 14.2811L12.0008 17.8432L13.3723 14.2784C13.4519 14.0723 13.5738 13.8852 13.73 13.7289C13.8863 13.5727 14.0734 13.4508 14.2795 13.3712L17.8431 12.0008L14.2784 10.6292C14.0723 10.5496 13.8852 10.4277 13.7289 10.2715C13.5727 10.1153 13.4508 9.92809 13.3712 9.72199L12.0007 6.15827Z" fill="#304DDB"/>
<path d="M20.0004 7.99999C19.8951 8.00053 19.7921 7.9689 19.7052 7.90935C19.6184 7.84979 19.5517 7.76514 19.5142 7.6667L18.6843 5.5086C18.6675 5.46511 18.6418 5.42562 18.6088 5.39265C18.5759 5.35969 18.5364 5.33397 18.4929 5.31716L16.3342 4.48663C16.2358 4.44889 16.1513 4.38222 16.0916 4.29542C16.0319 4.20861 16 4.10576 16 4.00043C16 3.89511 16.0319 3.79225 16.0916 3.70545C16.1513 3.61865 16.2358 3.55198 16.3342 3.51424L18.4923 2.68433C18.5358 2.66752 18.5752 2.64181 18.6082 2.60884C18.6412 2.57587 18.6669 2.53638 18.6837 2.49289L19.5142 0.334173C19.552 0.235839 19.6186 0.15126 19.7054 0.0915989C19.7922 0.0319381 19.8951 0 20.0004 0C20.1058 0 20.2086 0.0319381 20.2954 0.0915989C20.3822 0.15126 20.4489 0.235839 20.4866 0.334173L21.3165 2.49227C21.3333 2.53576 21.3591 2.57525 21.392 2.60822C21.425 2.64118 21.4645 2.6669 21.508 2.68371L23.6536 3.50924C23.7559 3.54717 23.8441 3.61572 23.9061 3.70555C23.968 3.79538 24.0008 3.90213 24 4.01127C23.9984 4.11476 23.9658 4.2154 23.9064 4.30015C23.8469 4.3849 23.7634 4.44986 23.6667 4.48663L21.5086 5.31654C21.4651 5.33335 21.4256 5.35906 21.3926 5.39203C21.3597 5.42499 21.334 5.46449 21.3172 5.50798L20.4866 7.6667C20.4491 7.76514 20.3825 7.84979 20.2956 7.90935C20.2087 7.9689 20.1058 8.00053 20.0004 7.99999Z" fill="#304DDB"/>
</svg>
