<?xml version="1.0" encoding="utf-8"?>
<svg viewBox="0 0 24 24" width="24" height="24" style="enable-background:new 0 0 24 24;" xmlns="http://www.w3.org/2000/svg">
  <defs>
    <style type="text/css">
	.st0{fill:#A5B2BD;}
	.st1{fill:#3197D6;}
</style>
  </defs>
  <g transform="matrix(1.111111, 0, 0, 1.111111, -1.333333, -1.333333)">
    <path d="M 12.006 20.897 C 17.006 20.897 21 17 21 12 C 21 7 17 3 12 3 C 7 3 3.106 7.013 3.106 12.013 C 3.106 17.013 7.006 20.897 12.006 20.897 Z M 12.026 4.787 C 15.926 4.787 19.187 8.106 19.187 12.006 C 19.187 15.906 15.9 19 12 19 C 8.1 19 4.937 15.9 4.937 12 C 4.937 8.1 8.126 4.787 12.026 4.787 Z"/>
    <path d="M 11.212 13.775 L 12.798 13.767 L 12.837 12.97 C 13.017 12.481 13.583 12.714 14.417 11.916 C 15.025 11.334 15.374 10.833 15.374 9.867 C 15.374 8.383 14.328 7.071 12.27 7.071 C 10.282 7.071 9.39 7.998 9.306 9.944 L 10.947 9.953 C 10.808 9.024 11.369 8.628 12.139 8.628 C 12.881 8.628 13.838 8.832 13.765 9.933 C 13.7 10.915 12.89 11.019 12.353 11.321 C 11.55 11.772 11.25 12.131 11.25 13.223 L 11.212 13.775 Z M 12.057 16.766 C 12.757 16.766 13.011 16.13 13.016 15.895 C 13.025 15.486 12.775 14.877 12.075 14.87 C 11.444 14.864 11.03 15.239 11.089 15.922 C 11.118 16.255 11.343 16.766 12.057 16.766 Z"/>
  </g>
</svg>