<svg id="Layer_1" data-name="Layer 1" xmlns="http://www.w3.org/2000/svg" viewBox="0 0 24 24"><title>dashboard</title><path d="M12.07,5.05a9,9,0,0,0-9,9,1,1,0,0,0,1,1H6a1,1,0,1,0,0-2H5.15A6.9,6.9,0,0,1,6.46,9.89l.89.84A1,1,0,0,0,8.72,9.27l-.86-.8A7,7,0,0,1,11,7.14V8a1,1,0,0,0,2,0V7.12a7,7,0,0,1,3.22,1.3l-.88.86a1,1,0,0,0,1.39,1.44l.92-.89A7,7,0,0,1,19,13H18a1,1,0,0,0,0,2h2a1,1,0,0,0,.71-.3,1,1,0,0,0,.29-.71A9,9,0,0,0,12.07,5.05Z"/><path d="M13.9,14.44l-1.43-4.07h0A.52.52,0,0,0,12,10a.51.51,0,0,0-.48.34h0l-1.4,4.07h0A1.87,1.87,0,0,0,10,15a2,2,0,0,0,4,0,2.13,2.13,0,0,0-.09-.58Z"/></svg>