<?xml version="1.0" encoding="utf-8"?>
<svg version="1.1" id="Layer_1" x="0px" y="0px" viewBox="0 0 24 24" style="enable-background:new 0 0 24 24;" xmlns="http://www.w3.org/2000/svg">
  <style type="text/css">
	.st0{fill:#A5B2BD;}
	.st1{fill:#3197D6;}
</style>
  <path d="M 10.334 18.575 C 12.222 18.575 14 17.912 15.334 16.917 L 20.111 21.668 C 20.333 21.889 20.666 22 20.888 22 C 21.111 22 21.444 21.889 21.666 21.668 C 22.111 21.226 22.111 20.563 21.666 20.121 L 17 15.26 C 18.111 13.823 18.666 12.165 18.666 10.287 C 18.666 5.757 14.888 2 10.334 2 C 5.778 2 2 5.757 2 10.287 C 2 14.818 5.778 18.575 10.334 18.575 Z M 10.334 4.209 C 13.666 4.209 16.444 6.973 16.444 10.287 C 16.444 13.602 13.666 16.364 10.334 16.364 C 7 16.364 4.222 13.602 4.222 10.287 C 4.222 6.973 7 4.209 10.334 4.209 Z"/>
</svg>