<?xml version="1.0" encoding="utf-8"?>
<!-- Generator: Adobe Illustrator 20.0.0, SVG Export Plug-In . SVG Version: 6.00 Build 0)  -->
<!DOCTYPE svg PUBLIC "-//W3C//DTD SVG 1.1//EN" "http://www.w3.org/Graphics/SVG/1.1/DTD/svg11.dtd">
<svg version="1.1" id="Layer_1" xmlns="http://www.w3.org/2000/svg" xmlns:xlink="http://www.w3.org/1999/xlink" x="0px" y="0px"
	 viewBox="0 0 24 24" style="enable-background:new 0 0 24 24;" xml:space="preserve">
<style type="text/css">
	.st0{fill:#A5B2BD;}
	.st1{fill:#3197D6;}
	.st2{fill:none;stroke:#727F8E;stroke-width:2;stroke-linecap:round;stroke-linejoin:round;stroke-miterlimit:10;}
	.st3{fill:#000102;}
	.st4{fill:#727F8E;}
	.st5{fill:none;stroke:#727F8E;stroke-width:2;stroke-linejoin:round;stroke-miterlimit:10;}
</style>
<g>
	<path class="st3" d="M17,9c0-3.3-2.7-6-6-6S5,5.7,5,9c0,1.7,0.7,3.2,1.8,4.3l0,0C4.6,13.8,3,15.8,3,18.1V20c0,0.6,0.4,1,1,1
		s1-0.4,1-1v-1.9c0-1.4,0.9-2.6,2.3-2.9L8.1,15H11C14.3,15,17,12.3,17,9z M11,13c-2.2,0-4-1.8-4-4s1.8-4,4-4s4,1.8,4,4
		S13.2,13,11,13z"/>
	<path class="st3" d="M17.4,18l1.3-1.3c0.4-0.4,0.4-1,0-1.4s-1-0.4-1.4,0L16,16.6l-1.3-1.3c-0.4-0.4-1-0.4-1.4,0s-0.4,1,0,1.4
		l1.3,1.3l-1.3,1.3c-0.4,0.4-0.4,1,0,1.4c0.2,0.2,0.5,0.3,0.7,0.3s0.5-0.1,0.7-0.3l1.3-1.3l1.3,1.3c0.2,0.2,0.5,0.3,0.7,0.3
		s0.5-0.1,0.7-0.3c0.4-0.4,0.4-1,0-1.4L17.4,18z"/>
</g>
</svg>
