<?xml version="1.0" encoding="utf-8"?>
<!-- Generator: Adobe Illustrator 20.0.0, SVG Export Plug-In . SVG Version: 6.00 Build 0)  -->
<!DOCTYPE svg PUBLIC "-//W3C//DTD SVG 1.1//EN" "http://www.w3.org/Graphics/SVG/1.1/DTD/svg11.dtd">
<svg version="1.1" id="Layer_1" xmlns="http://www.w3.org/2000/svg" xmlns:xlink="http://www.w3.org/1999/xlink" x="0px" y="0px"
	 viewBox="0 0 24 24" style="enable-background:new 0 0 24 24;" xml:space="preserve">
<style type="text/css">
	.st0{fill:#A5B2BD;}
	.st1{fill:#3197D6;}
	.st2{fill:none;stroke:#727F8E;stroke-width:2;stroke-linecap:round;stroke-linejoin:round;stroke-miterlimit:10;}
	.st3{fill:#000102;}
	.st4{fill:#727F8E;}
	.st5{fill:none;stroke:#727F8E;stroke-width:2;stroke-linejoin:round;stroke-miterlimit:10;}
</style>
<path class="st3" d="M14,21c-5,0-9-4-9-9s4-9,9-9c1.6,0,3.1,0.4,4.5,1.2C18.8,4.4,19,4.7,19,5.1s-0.2,0.7-0.5,0.9
	C16.3,7.2,15,9.5,15,12s1.3,4.8,3.5,6.1c0.3,0.2,0.5,0.5,0.5,0.9s-0.2,0.7-0.5,0.9C17.1,20.6,15.6,21,14,21z M14,5c-3.9,0-7,3.1-7,7
	s3.1,7,7,7c0.7,0,1.4-0.1,2-0.3c-1.9-1.7-3-4.1-3-6.7s1.1-5,3-6.7C15.4,5.1,14.7,5,14,5z"/>
</svg>
