<?xml version="1.0" encoding="utf-8"?>
<!-- Generator: Adobe Illustrator 20.0.0, SVG Export Plug-In . SVG Version: 6.00 Build 0)  -->
<!DOCTYPE svg PUBLIC "-//W3C//DTD SVG 1.1//EN" "http://www.w3.org/Graphics/SVG/1.1/DTD/svg11.dtd">
<svg version="1.1" id="Layer_1" xmlns="http://www.w3.org/2000/svg" xmlns:xlink="http://www.w3.org/1999/xlink" x="0px" y="0px"
	 viewBox="0 0 24 24" style="enable-background:new 0 0 24 24;" xml:space="preserve">
<style type="text/css">
	.st0{fill:#A5B2BD;}
	.st1{fill:#3197D6;}
</style>
<path d="M14,18c0,1.7,1.3,3,3,3s3-1.3,3-3c0-1.3-0.8-2.4-2-2.8V14c0-1.7-1.3-3-3-3h-2V8.8c1.2-0.4,2-1.5,2-2.8c0-1.7-1.3-3-3-3
	S9,4.3,9,6c0,1.3,0.8,2.4,2,2.8V11H9c-1.7,0-3,1.3-3,3v1.2c-1.2,0.4-2,1.5-2,2.8c0,1.7,1.3,3,3,3s3-1.3,3-3c0-1.3-0.8-2.4-2-2.8V14
	c0-0.6,0.4-1,1-1h6c0.6,0,1,0.4,1,1v1.2C14.8,15.6,14,16.7,14,18z M12,5c0.6,0,1,0.4,1,1s-0.4,1-1,1s-1-0.4-1-1S11.4,5,12,5z M7,19
	c-0.6,0-1-0.4-1-1s0.4-1,1-1s1,0.4,1,1S7.6,19,7,19z M17,19c-0.6,0-1-0.4-1-1s0.4-1,1-1s1,0.4,1,1S17.6,19,17,19z"/>
</svg>
