<?xml version="1.0" encoding="utf-8"?>
<!-- Generator: Adobe Illustrator 14.0.0, SVG Export Plug-In . SVG Version: 6.00 Build 43363)  -->
<!DOCTYPE svg PUBLIC "-//W3C//DTD SVG 1.1//EN" "http://www.w3.org/Graphics/SVG/1.1/DTD/svg11.dtd">
<svg version="1.1" id="Layer_1" xmlns="http://www.w3.org/2000/svg" xmlns:xlink="http://www.w3.org/1999/xlink" x="0px" y="0px"
	 width="2048px" height="2048px" viewBox="718 1420 2048 2048" enable-background="new 718 1420 2048 2048" xml:space="preserve">
<g id="_x33_2-move" display="none">
	<path display="inline" d="M2984,4708h-384c-35.346,0-64,28.654-64,64v1024c0,35.348,28.654,64,64,64h704c35.346,0,64-28.652,64-64
		v-192h-128v96c0,17.673-14.326,32-32,32h-512c-17.673,0-32-14.327-32-32v-832c0-17.673,14.327-32,32-32h224v288
		c0,17.673,14.327,32,32,32h288l0,0h128v-64L2984,4708z"/>
	<path display="inline" d="M3806.627,5358.019l-256.471-257.129c-0.039-0.026-0.079-0.056-0.119-0.082
		c-5.738-5.455-13.493-8.812-22.037-8.812c-16.477,0-30.038,12.454-31.801,28.46c-0.125,0.714-0.189,1.404-0.199,2.071v161.538h-288
		c-17.673,0-32,14.324-32,32V5444c0,17.673,14.327,32,32,32h288v161.797c0.021,0.302,0.059,0.605,0.128,0.916
		c1.407,16.374,15.134,29.229,31.872,29.229c7.941,0,15.201-2.896,20.794-7.688c1.104-0.555,2.096-1.241,2.94-2.087l254.893-254.892
		C3819.124,5390.777,3819.124,5370.513,3806.627,5358.019z"/>
</g>
<g id="_x31_6-assigned" display="none">
	<path display="inline" d="M3211.64,5648.702c-140.191-58.981-173.362-79.524-173.362-79.524l-1.362-135.812
		c0,0,52.506-40.813,68.964-168.567c32.684,9.565,67.248-49.396,69.1-80.638c1.754-29.854-4.604-113.146-44.649-104.819
		c8.104-62.743,13.962-118.937,11.219-148.922c-10.335-109.109-116.735-224.141-280.37-224.141
		c-163.382,0-269.889,115.027-280.37,224.139c-2.736,29.991,3.12,86.181,11.354,148.922c-40.157-8.322-46.52,74.968-44.647,104.82
		c1.87,31.24,36.292,90.203,69.217,80.639c16.213,127.754,68.845,168.566,68.845,168.566l-1.371,135.812
		c0,0-33.306,20.543-173.238,79.523c-140.434,59.07-281.979,100.393-324.017,166.677C2154,5890.007,2154,6244,2154,6244h707.176
		h700.939c0,0-0.168-351.43-26.577-428.621C3512.396,5754.172,3375.716,5713.172,3211.64,5648.702z"/>
	<path display="inline" d="M4177.503,5862.943c-24.058-64.394-38.575-95.756-168.875-148.237
		c-130.297-52.499-161.26-70.698-161.26-70.698l-1.039-120.705c0,0,48.769-36.285,63.991-149.887
		c30.449,8.49,62.436-44.129,64.236-71.689c1.549-26.562-4.242-100.621-41.533-93.265c7.473-55.735,13.162-105.854,10.569-132.292
		c-9.659-97.135-108.633-199.378-260.594-199.378c-151.978,0-250.802,102.243-260.604,199.378
		c-2.578,26.438,2.827,76.562,10.572,132.292c-37.404-7.354-43.34,66.703-41.538,93.265c1.812,27.562,33.793,80.184,64.237,71.689
		c15.225,113.602,64.13,149.887,64.13,149.887l-1.384,118.928c145.591,94.436,159.511,176.054,159.511,176.054
		c11.674,106.985,13.088,257.039,13.088,425.72h511.108C4202.14,6244,4201.632,5921.505,4177.503,5862.943z"/>
</g>
<g id="_x31_6-check" display="none">
	<polygon display="inline" points="3947,4452 2922,5478 2410.011,4963.991 2154,5219.728 2921,6116 4202,4708 	"/>
</g>
<g id="_x31_6-attach" display="none">
	<path id="clip_2_" display="inline" fill="#333333" d="M3926.391,4539.337c-196.754-201.788-515.92-201.788-712.684,0
		l-817.072,827.443c-152.846,156.6-152.846,411.498,0,568.142c152.854,156.647,401.521,156.647,554.244,0l817.078-827.467
		c109.32-112.097,109.32-293.734,0-405.83c-109.367-112.013-286.663-112.013-395.931,0l-614.182,629.511
		c-21.878,22.467-21.878,58.686,0,81.163c21.862,22.458,57.313,22.458,79.187,0l614.229-629.521
		c65.522-67.091,172.053-67.091,237.562,0c65.521,67.146,65.521,176.379,0,243.521l-817.019,827.41
		c-109.372,112.095-286.556,112.095-395.934,0c-109.374-112.03-109.374-293.729,0-405.767l809.032-819.383
		c153.115-156.896,401.402-156.896,554.297,0c153.174,156.963,153.174,411.219,0.107,568.123l-606.244,621.379
		c-22.027,22.528-22.027,58.744,0,81.16c21.879,22.522,57.261,22.522,79.184,0l614.146-629.463
		C4123.258,5068.082,4123.258,4741,3926.391,4539.337z"/>
</g>
<g id="_x31_6-insert-link" display="none">
	<path display="inline" fill="#010101" d="M3560.956,4387.646h-64.015c-1.827,0-3.622,0.118-5.418,0.272h-697.537
		c-70.708,0-128.026,57.319-128.026,128.029v511.837h128.026v-447.826c0-35.354,28.665-64.012,64.015-64.012h574.933v447.822
		c0,35.352,28.655,64.016,64.012,64.016h448.101v960.21c0,35.354-28.659,64.01-64.016,64.01H2858
		c-35.35,0-64.015-28.655-64.015-64.01v-320.069h-128.026v384.08c0,70.707,57.319,128.027,128.026,128.027h1151.056
		c70.708,0,128.025-57.32,128.025-128.027V4963.771v-64.02L3560.956,4387.646z"/>
	<path display="inline" d="M3417.688,5314.384l-411.736-400.771c-0.057-0.044-0.122-0.082-0.174-0.126
		c-8.963-8.51-21.037-13.732-34.355-13.732c-25.684,0-46.825,19.413-49.564,44.36c-0.189,1.116-0.293,2.188-0.315,3.229v207.771
		h-588.925c-27.537,0-49.874,22.333-49.874,49.879v283.413c0,27.554,22.337,49.874,49.874,49.874h588.922v212.188
		c0.034,0.455,0.1,0.938,0.2,1.424c2.198,25.521,23.597,45.551,49.683,45.551c12.376,0,23.688-4.521,32.412-11.985
		c1.723-0.849,3.266-1.925,4.579-3.255l409.275-397.28C3437.18,5365.443,3437.18,5333.863,3417.688,5314.384z"/>
</g>
<g id="_x31_6-restore" display="none">
	<path display="inline" d="M3306.554,4263.5c-445.959,0-828.581,337.809-896.554,764.632h-256L2538,5668l384.016-639.868H2665
		c64.513-284.761,337.278-508.952,641.554-508.952c353.021,0,639.196,286.18,639.196,639.195
		c0,353.019-286.179,639.196-639.196,639.196c-145.481,0-277.124-46.714-384.554-128.571l-127.773,223.105
		c145.142,101.527,321.763,161.145,512.328,161.145c494.228,0,894.875-400.647,894.875-894.875
		C4201.43,4664.148,3800.777,4263.5,3306.554,4263.5z"/>
</g>
<g id="_x31_6-preview" display="none">
	<g display="inline">
		<rect x="2540.932" y="4902.605" fill="#010101" width="383.289" height="127.763"/>
		<path fill="#010101" d="M4183.141,6160.986l-218.388-218.388c68.759-94.746,109.337-211.276,109.337-337.299
			c0-249.915-159.475-462.55-382.197-541.788v-224.334v-63.938l-511.459-511.453h-63.933c-1.824,0-3.618,0.121-5.412,0.275h-825.582
			c-70.619,0-127.864,57.246-127.864,127.866v1150.503v127.258v256.333c0,70.612,57.245,127.862,127.864,127.862h854.069
			c98.47,79.03,223.489,126.35,359.578,126.35c126.021,0,242.552-40.577,337.301-109.337l218.384,218.388
			c24.95,24.951,65.396,24.951,90.345,0l37.957-37.955C4208.09,6226.378,4208.09,6185.937,4183.141,6160.986z M2349.439,5926.023
			c-35.307,0-63.934-28.623-63.934-63.933v-192.399v-127.258V4455.857c0-35.311,28.627-63.929,63.934-63.929h703.134v447.249
			c0,35.31,28.618,63.936,63.928,63.936h447.524v130.921c-21.298-2.396-42.938-3.665-64.871-3.665
			c-136.897,0-262.602,47.878-361.336,127.763H2540.93v127.765h480.139c-26.387,39.416-48.01,82.274-64.084,127.764h-416.053
			v127.764h386.844c-2.32,20.979-3.556,42.286-3.556,63.882c0,118.761,36.019,229.104,97.709,320.726L2349.439,5926.023
			L2349.439,5926.023z M3498.87,6051.902c-246.808,0-446.886-200.078-446.886-446.888s200.078-446.887,446.886-446.887
			s446.888,200.077,446.888,446.887C3945.758,5851.825,3745.678,6051.902,3498.87,6051.902z"/>
	</g>
</g>
<g id="_x31_6-copylink" display="none">
	<path display="inline" fill="#010101" d="M3828.275,5213.284l-288.129,288.407c-159.028,159.34-417.029,159.34-576.062,0
		c-25.062-24.99-44.658-53.187-61.866-82.263l133.877-134.051c6.368-6.425,14.228-10.104,21.729-14.446
		c9.249,31.682,25.41,61.653,50.277,86.545c79.412,79.577,208.662,79.479,288.03,0l288.031-288.406
		c79.466-79.568,79.466-208.938,0-288.455c-79.368-79.521-208.562-79.521-288.031,0l-102.438,102.677
		c-83.104-32.417-172.662-41.132-259.841-28.333l218.266-218.547c159.132-159.295,417.023-159.295,576.164,0
		C3987.312,4795.708,3987.312,5053.996,3828.275,5213.284z M3066.578,5687.527l-102.493,102.674
		c-79.42,79.472-208.667,79.472-288.085,0c-79.416-79.572-79.416-208.938,0-288.502l288.085-288.416
		c79.468-79.574,208.614-79.574,288.028,0c24.822,24.852,40.979,54.823,50.33,86.443c7.562-4.39,15.318-7.966,21.688-14.341
		L3458,5151.394c-17.104-29.182-36.798-57.27-61.855-82.312c-159.041-159.291-417.03-159.291-576.112,0L2532,5357.494
		c-159.084,159.339-159.084,417.574,0,576.918c159.082,159.23,417.03,159.23,576.113,0l218.312-218.604
		C3239.186,5728.657,3149.624,5719.894,3066.578,5687.527z"/>
</g>
<g id="_x31_6-download" display="none">
	<g display="inline">
		<polygon points="3689.936,5539.894 3689.936,5667.875 2666.089,5667.875 2666.089,5539.894 2409.881,5539.894 2410.128,5923.834 
			3945.896,5923.834 3945.896,5539.894 		"/>
		<polygon points="3689.936,5027.965 3433.971,5027.967 3433.971,4644.028 2922.051,4644.028 2922.053,5027.969 2666.089,5027.969 
			3178.012,5539.894 		"/>
	</g>
</g>
<g id="_x31_6-info" display="none">
	<path display="inline" d="M3179.75,4515.693c-423.909,0-767.556,343.646-767.556,767.556s343.646,767.558,767.556,767.558
		s767.557-343.646,767.557-767.558C3947.307,4859.339,3603.659,4515.693,3179.75,4515.693z M3283.407,5744.65
		c-71.044,70.965-138.285,110.338-201.735,118.094c-43.689,5.341-76.793-1.967-99.284-21.91
		c-22.503-19.943-35.462-43.973-38.896-72.057c-2.158-17.679-1.566-34.375,1.793-50.104c3.352-15.721,7.204-31.764,11.539-48.13
		l110.656-325.508c6.154-18.692,10.39-33.738,12.697-45.104c2.299-11.363,2.948-21.211,1.934-29.535
		c-1.019-8.311-3.311-14.104-6.873-17.368c-3.564-3.25-7.955-4.569-13.149-3.938c-13.526,1.651-37.272,25.414-71.267,71.271
		c-33.982,45.856-54.625,69.227-61.898,70.118c-8.328,1.014-17.35-3.685-27.062-14.11c-9.729-10.418-14.771-17.197-15.151-20.316
		c-1.271-10.398,6.535-28.521,23.447-54.34c16.896-25.82,38.842-53.57,65.834-83.272c24.116-27.222,53.889-53.563,89.321-79.019
		c35.419-25.438,67.69-39.949,96.823-43.511c46.812-5.721,83.541,3.252,110.189,26.917c26.646,23.664,42.265,54.218,46.837,91.67
		c1.911,15.604,2.387,32.442,1.424,50.502c-0.963,18.067-5.496,37.097-13.608,57.089l-86.732,275.076
		c-6.688,22.988-11.299,41.508-13.802,55.538c-2.514,14.035-3.44,23.655-2.808,28.849c0.763,6.237,2.798,9.949,6.107,11.129
		c3.311,1.182,6.525,1.576,9.646,1.194c22.886-2.796,47.664-22.451,74.353-58.972c26.68-36.521,44.182-55.287,52.51-56.307
		c7.276-0.891,15.745,3.617,25.409,13.521c9.646,9.908,14.735,16.94,15.243,21.102
		C3388.938,5629.875,3354.436,5673.687,3283.407,5744.65z M3379.491,4898.312c-24.145,31.452-55.977,49.6-95.489,54.431
		c-38.5,4.705-73.497-5.271-105.018-29.919c-31.52-24.655-49.629-56.219-54.336-94.717c-4.702-38.484,5.27-73.492,29.923-105.014
		c24.648-31.521,56.214-49.629,94.716-54.338c39.518-4.831,74.783,5.112,105.786,29.828c30.995,24.72,48.854,56.324,53.562,94.807
		C3413.34,4831.887,3403.618,4866.855,3379.491,4898.312z"/>
</g>
<g id="_x31_6-view" display="none">
	<path display="inline" d="M3945.896,5283.84c0-31.489-11.468-60.296-30.434-82.553h0.102
		c-773.48-935.815-1430.985-60.723-1473.69-1.729c-19.86,22.48-31.931,51.972-31.931,84.28c0,31.166,11.22,59.71,29.835,81.87h-0.13
		c0,0,675.94,960.297,1475.916,1.374h-0.696C3934.189,5344.738,3945.896,5315.664,3945.896,5283.84z M3177.918,5666.665
		c-212.069,0-383.988-171.394-383.988-382.822c0-211.426,171.92-382.821,383.988-382.821c212.073,0,383.99,171.396,383.99,382.821
		C3561.908,5495.271,3389.991,5666.665,3177.918,5666.665z"/>
	<ellipse display="inline" cx="3177.92" cy="5283.843" rx="127.997" ry="127.608"/>
</g>
<g id="_x31_6-workflow" display="none">
	<g display="inline">
		<polygon points="3754.096,4516.044 3050.083,4515.967 2666,5348 3050,5348 2794,6052 3754,5092 3306,5092 		"/>
	</g>
</g>
<g id="_x31_6-closed" display="none">
	<polygon display="inline" fill="none" points="3113.043,5795.884 3377.076,5471.754 3112.513,5795.312 	"/>
	<path display="inline" d="M3990.271,4726.275c34.271-58.812,21.287-135.343-33.517-179.306
		c-60.476-48.514-148.97-38.996-197.66,21.263L2924.699,5540l-322.673-297.878c-54.835-59.104-147.375-62.721-206.689-8.083
		c-59.317,54.637-62.95,146.84-8.113,205.943L2922,6052L3990.271,4726.275z"/>
</g>
<path d="M2535.688,2299.199h-192.894c-13.312-59.825-36.867-116.013-68.098-167.658l147.729-139.897
	c39.876-37.995,40.359-99.64,0.373-137.516l-72.675-68.593c-39.868-37.764-105.086-37.529-145.082,0l-144.962,137.408
	c-50.824-29.117-106.059-51.41-164.921-65.515v-213.275c0-53.453-45.877-97.124-102.333-97.124h-47.696h-4.925h-47.689
	c-56.454,0-102.331,43.681-102.331,97.124v213.271c-58.85,14.107-114.101,36.398-164.903,65.513l-144.97-137.41
	c-39.997-37.532-105.21-37.759-145.084,0l-72.666,68.593c-39.996,37.873-39.521,99.52,0.364,137.514l147.726,139.904
	c-31.233,51.633-54.769,107.823-68.105,167.658h-192.87c-56.807,0-102.688,43.339-102.688,97.143v45.721v0.716v45.717
	c0,53.813,45.873,97.144,102.688,97.144h192.887c13.333,59.819,36.873,116.02,68.108,167.654l-147.727,139.903
	c-39.883,37.993-40.359,99.654-0.369,137.521l72.665,68.593c39.868,37.773,105.083,37.528,145.089,0l144.969-137.403
	c50.802,29.114,106.052,51.402,164.897,65.521v213.277c0,53.451,45.882,97.11,102.335,97.11h47.69h4.92h47.701
	c56.464,0,102.333-43.668,102.333-97.11v-213.277c58.854-14.118,114.096-36.408,164.921-65.521l144.967,137.403
	c39.981,37.528,105.206,37.773,145.077,0l72.674-68.593c39.982-37.876,39.502-99.528-0.373-137.521l-147.722-139.899
	c31.219-51.637,54.774-107.817,68.094-167.656h192.902c56.808,0,102.685-43.334,102.685-97.144v-45.717v-0.716v-45.719
	C2638.377,2342.539,2592.504,2299.199,2535.688,2299.199z M1742,2700c-141.385,0-256-114.615-256-256s114.615-256,256-256
	s256,114.615,256,256S1883.385,2700,1742,2700z"/>
</svg>
