<?xml version="1.0" encoding="utf-8"?>
<!-- Generated by IcoMoon.io -->
<!DOCTYPE svg PUBLIC "-//W3C//DTD SVG 1.1//EN" "http://www.w3.org/Graphics/SVG/1.1/DTD/svg11.dtd">
<svg version="1.1" xmlns="http://www.w3.org/2000/svg" xmlns:xlink="http://www.w3.org/1999/xlink" width="32" height="32" viewBox="0 0 32 32">
<path fill="#444" d="M22 12h4v2h-4v-2z"></path>
<path fill="#444" d="M28.008 0h-23.949c-2.195 0-3.992 1.796-3.992 3.992v23.949c0 2.196 1.796 3.992 3.992 3.992h23.949c2.196 0 3.992-1.796 3.992-3.992v-23.949c0-2.195-1.796-3.992-3.991-3.992zM6 12v8h-2v-10h6v2h-4zM12 20h-2v-7.994h2v7.994zM12 10h4v2h-4v-2zM18 20h-2v-7.994h2v7.994zM28 16h-6v2h5v2h-5v-2h-2v-6h2v-2h4v2h2v4z"></path>
</svg>
