<?xml version="1.0" encoding="utf-8"?>
<!-- Generated by IcoMoon.io -->
<!DOCTYPE svg PUBLIC "-//W3C//DTD SVG 1.1//EN" "http://www.w3.org/Graphics/SVG/1.1/DTD/svg11.dtd">
<svg version="1.1" xmlns="http://www.w3.org/2000/svg" xmlns:xlink="http://www.w3.org/1999/xlink" width="32" height="32" viewBox="0 0 32 32">
<path fill="#444" d="M7 23.5c0 0.276-0.224 0.5-0.5 0.5s-0.5-0.224-0.5-0.5c0-0.276 0.224-0.5 0.5-0.5s0.5 0.224 0.5 0.5z"></path>
<path fill="#444" d="M22.873 11.833l0.015-0.015 0.002-0.005c0.066-0.082 0.106-0.184 0.11-0.296l0-0.001c0 0 0.57-4.242-4.403-4.507l-0.001 0c-0.031-0.006-0.063-0.009-0.096-0.009-0.15 0-0.284 0.066-0.376 0.171l-8.953 8.953c-0.054 0.047-0.098 0.106-0.127 0.173l-0.005 0.008 0.001 0.002c-0.025 0.060-0.039 0.125-0.039 0.194 0 0.276 0.224 0.5 0.5 0.5h1.5v1.498h0c0 0.001-0 0.001-0 0.002 0 0.276 0.224 0.5 0.5 0.5h1.5v1.508l0 0c0.004 0.273 0.226 0.492 0.5 0.492 0.087 0 0.169-0.022 0.24-0.061l0.002 0.001 0.014-0.011c0.037-0.022 0.070-0.048 0.1-0.078l0.013-0.010 8.965-8.969c0.014-0.012 0.027-0.025 0.039-0.039z"></path>
<path fill="#444" d="M10.502 20v-0c-0.001 0-0.001 0-0.002 0-0.276 0-0.5-0.224-0.5-0.5 0-0 0-0.001 0-0.001l-0-0v-1.499l-1.523 0.001c-0.185 0.008-0.343 0.117-0.423 0.273l-0.001 0.001-0.001 0.004c-0.022 0.045-0.038 0.093-0.046 0.144l-1.002 4.075c0.276 0 0.5 0.224 0.5 0.5l4.123-1.013c0.044-0.012 0.085-0.029 0.124-0.051l0.001-0v-0c0.148-0.087 0.248-0.247 0.248-0.432 0-0.004-0-0.007-0-0.011l0-0v-1.489h-1.498z"></path>
<path fill="#444" d="M25.5 20h-2.5v-2.5c0-0.276-0.224-0.5-0.5-0.5h-1c-0.276 0-0.5 0.224-0.5 0.5v2.5h-2.5c-0.276 0-0.5 0.224-0.5 0.5v1c0 0.276 0.224 0.5 0.5 0.5h2.5v2.5c0 0.276 0.224 0.5 0.5 0.5h1c0.276 0 0.5-0.224 0.5-0.5v-2.5h2.5c0.276 0 0.5-0.224 0.5-0.5v-1c0-0.276-0.224-0.5-0.5-0.5z"></path>
</svg>
