<svg xmlns="http://www.w3.org/2000/svg" viewBox="0 0 2048 2048"><circle cx="416" cy="1504" r="32"/><path d="M1463.8 757.3l1-1 .1-.3c4.2-5.2 6.8-11.8 7-19v-.1s36.5-271.5-281.8-288.4h-.1c-2-.4-4-.6-6.1-.6-9.6 0-18.2 4.2-24.1 10.9l-573 573c-3.5 3-6.3 6.8-8.2 11.1l-.3.5.1.1c-1.6 3.8-2.5 8-2.5 12.4 0 17.7 14.3 32 32 32h96v96c0 17.7 14.3 32 32 32h96v96.5c.3 17.4 14.5 31.5 32 31.5 5.6 0 10.8-1.4 15.3-3.9l.2.1.9-.7c2.3-1.4 4.5-3.1 6.4-5l.8-.6 573.7-574c1-.8 1.9-1.6 2.6-2.5zM672.1 1280h-.1c-17.7 0-32-14.3-32-32v-96h-97.4c-11.8.5-22 7.5-27.1 17.4h-.1l-.1.3c-1.4 2.9-2.4 6-2.9 9.2l-64.1 260.8c17.7 0 32 14.3 32 32l262.9-64.4 1-.4c2.8-.7 5.5-1.9 7.9-3.3h.1c9.5-5.6 15.8-15.8 15.8-27.6v-96h-95.9zM1632 1280h-160v-160c0-17.7-14.3-32-32-32h-64c-17.7 0-32 14.3-32 32v160h-160c-17.7 0-32 14.3-32 32v64c0 17.7 14.3 32 32 32h160v160c0 17.7 14.3 32 32 32h64c17.7 0 32-14.3 32-32v-160h160c17.7 0 32-14.3 32-32v-64c0-17.7-14.3-32-32-32z"/></svg>