<svg xmlns="http://www.w3.org/2000/svg" viewBox="0 0 2048 2048"><path d="M1788.2 2.2H255.5C115 2.2 0 117.1 0 257.6v1532.8c0 140.5 115 255.5 255.5 255.5h1532.8c140.5 0 255.5-114.9 255.5-255.5V257.6c-.1-140.5-115-255.4-255.6-255.4zm-572.6 255c127.4 0 230.7 102 230.7 227.8 0 125.8-103.3 227.8-230.7 227.8-127.4 0-230.7-102-230.7-227.8 0-125.8 103.3-227.8 230.7-227.8zm241.8 1506.9s-177.9-291-433.6-340.4c0 0-191.8 332.2-547.6 370.6l-97.3-238.8s333.6-79.6 411.4-345.9c0 0-33.4-367.8 247.4-488.6 0 0 36.2 49.4 139 57.6 0 0-36.1 120.8 150.1 109.8 0 0 122.3 0 230.7-54.9l88.9 164.7s-244.6 181.2-489.2 96.1c0 0-41.7 46.7 0 63.1 0 0 341.9 145.5 503.1 488.6l-202.9 118.1z"/></svg>