<?xml version="1.0" encoding="utf-8"?>
<!-- Generated by IcoMoon.io -->
<!DOCTYPE svg PUBLIC "-//W3C//DTD SVG 1.1//EN" "http://www.w3.org/Graphics/SVG/1.1/DTD/svg11.dtd">
<svg version="1.1" xmlns="http://www.w3.org/2000/svg" xmlns:xlink="http://www.w3.org/1999/xlink" width="32" height="32" viewBox="0 0 32 32">
<path fill="#444" d="M28.008 0h-23.949c-2.195 0-3.992 1.796-3.992 3.992v23.949c0 2.196 1.796 3.992 3.992 3.992h23.949c2.196 0 3.992-1.796 3.992-3.992v-23.949c0-2.195-1.796-3.992-3.991-3.992zM19.061 3.985c1.991 0 3.605 1.594 3.605 3.56s-1.614 3.56-3.605 3.56c-1.991 0-3.605-1.594-3.605-3.56s1.614-3.56 3.605-3.56zM22.84 27.531c0 0-2.78-4.546-6.775-5.318 0 0-2.997 5.19-8.556 5.79l-1.52-3.732c0 0 5.212-1.244 6.428-5.404 0 0-0.521-5.747 3.865-7.634 0 0 0.565 0.772 2.172 0.901 0 0-0.565 1.887 2.345 1.716 0 0 1.911-0 3.605-0.858l1.39 2.573c0 0-3.822 2.831-7.644 1.501 0 0-0.651 0.729 0 0.987 0 0 5.342 2.273 7.861 7.634l-3.17 1.844z"></path>
</svg>
