<?xml version="1.0" encoding="utf-8"?>
<!-- Generated by IcoMoon.io -->
<!DOCTYPE svg PUBLIC "-//W3C//DTD SVG 1.1//EN" "http://www.w3.org/Graphics/SVG/1.1/DTD/svg11.dtd">
<svg version="1.1" xmlns="http://www.w3.org/2000/svg" xmlns:xlink="http://www.w3.org/1999/xlink" width="32" height="32" viewBox="0 0 32 32">
<path fill="#444" d="M27.694 4.365c-3.074-3.153-8.061-3.153-11.136 0l-12.767 12.929c-2.388 2.447-2.388 6.43 0 8.877s6.274 2.448 8.66 0l12.767-12.929c1.708-1.752 1.708-4.59 0-6.341-1.709-1.75-4.479-1.75-6.186 0l-9.597 9.836c-0.342 0.351-0.342 0.917 0 1.268s0.896 0.351 1.237 0l9.597-9.836c1.024-1.048 2.688-1.048 3.712 0s1.024 2.756 0 3.805l-12.766 12.928c-1.709 1.752-4.477 1.752-6.186 0-1.709-1.75-1.709-4.59 0-6.34l12.641-12.803c2.392-2.451 6.272-2.451 8.661 0 2.393 2.453 2.393 6.425 0.002 8.877l-9.473 9.709c-0.344 0.352-0.344 0.918 0 1.268 0.342 0.352 0.895 0.352 1.237 0l9.596-9.835c3.076-3.151 3.076-8.262-0-11.413z"></path>
</svg>
