<?xml version="1.0" encoding="utf-8"?>
<!-- Generator: Adobe Illustrator 14.0.0, SVG Export Plug-In . SVG Version: 6.00 Build 43363)  -->
<!DOCTYPE svg PUBLIC "-//W3C//DTD SVG 1.1//EN" "http://www.w3.org/Graphics/SVG/1.1/DTD/svg11.dtd">
<svg version="1.1" id="Layer_1" xmlns="http://www.w3.org/2000/svg" xmlns:xlink="http://www.w3.org/1999/xlink" x="0px" y="0px"
	 width="2048px" height="2048px" viewBox="0 0 2048 2048" enable-background="new 0 0 2048 2048" xml:space="preserve">
<g id="_x32_0-move" display="none">
	<path display="inline" d="M830,448H446c-35.346,0-64,28.654-64,64v1024c0,35.347,28.654,64,64,64h704c35.346,0,64-28.653,64-64
		v-192h-128v96c0,17.673-14.326,32-32,32H542c-17.673,0-32-14.327-32-32V608c0-17.673,14.327-32,32-32h224v288
		c0,17.673,14.327,32,32,32h288l0,0h128v-64L830,448z"/>
	<path display="inline" d="M1652.627,1098.02l-256.471-257.129c-0.039-0.027-0.079-0.054-0.119-0.082
		c-5.738-5.455-13.493-8.81-22.037-8.81c-16.477,0-30.038,12.454-31.801,28.46c-0.125,0.714-0.189,1.404-0.199,2.071v161.538h-288
		c-17.673,0-32,14.326-32,32V1184c0,17.673,14.327,32,32,32h288v161.797c0.021,0.302,0.059,0.606,0.128,0.916
		c1.407,16.374,15.134,29.228,31.872,29.228c7.941,0,15.201-2.898,20.794-7.688c1.104-0.554,2.096-1.241,2.941-2.087
		l254.892-254.892C1665.124,1130.777,1665.124,1110.516,1652.627,1098.02z"/>
</g>
<g id="_x31_6-assigned" display="none">
	<path display="inline" d="M1057.64,1388.702c-140.194-58.981-173.364-79.524-173.364-79.524l-1.363-135.812
		c0,0,52.506-40.813,68.964-168.567c32.682,9.565,67.248-49.396,69.099-80.638c1.751-29.854-4.605-113.144-44.651-104.82
		c8.105-62.743,13.962-118.936,11.219-148.922c-10.335-109.109-116.735-224.14-280.37-224.14
		c-163.382,0-269.889,115.029-280.371,224.139c-2.738,29.991,3.121,86.18,11.355,148.922c-40.157-8.323-46.518,74.967-44.648,104.82
		c1.871,31.241,36.292,90.203,69.216,80.638c16.212,127.754,68.844,168.567,68.844,168.567l-1.371,135.812
		c0,0-33.304,20.543-173.238,79.524c-140.434,59.071-281.98,100.392-324.017,166.677C0,1630.01,0,1984,0,1984h707.176h700.939
		c0,0-0.168-351.429-26.577-428.621C1358.396,1494.175,1221.716,1453.175,1057.64,1388.702z"/>
	<path display="inline" d="M2023.503,1602.944c-24.058-64.392-38.575-95.757-168.875-148.238
		c-130.297-52.499-161.26-70.698-161.26-70.698l-1.039-120.705c0,0,48.769-36.286,63.992-149.887
		c30.451,8.49,62.435-44.129,64.237-71.689c1.548-26.562-4.244-100.622-41.534-93.265c7.472-55.735,13.161-105.855,10.571-132.292
		c-9.662-97.135-108.633-199.378-260.594-199.378c-151.976,0-250.802,102.243-260.607,199.378
		c-2.578,26.438,2.83,76.561,10.575,132.292c-37.406-7.357-43.34,66.703-41.538,93.265c1.812,27.562,33.793,80.181,64.237,71.689
		c15.225,113.601,64.129,149.887,64.129,149.887l-1.383,118.928c145.591,94.433,159.51,176.051,159.51,176.051
		c11.675,106.988,13.089,257.039,13.089,425.72h511.109C2048.14,1984,2047.632,1661.508,2023.503,1602.944z"/>
</g>
<g id="_x31_6-check" display="none">
	<polygon display="inline" points="1793,192 768,1218 256.011,703.991 0,959.729 767,1856 2048,448 	"/>
</g>
<g id="attach">
	<path id="clip_2_" fill="#231F20" d="M1772.39,279.34c-196.754-201.788-515.919-201.788-712.683,0l-817.072,827.444
		c-152.846,156.599-152.846,411.498,0,568.141c152.854,156.649,401.519,156.649,554.244,0l817.078-827.467
		c109.32-112.095,109.32-293.734,0-405.83c-109.367-112.012-286.663-112.012-395.931,0l-614.179,629.511
		c-21.878,22.467-21.878,58.684,0,81.163c21.862,22.458,57.313,22.458,79.184,0l614.229-629.521
		c65.522-67.089,172.052-67.089,237.562,0c65.521,67.145,65.521,176.378,0,243.522l-817.016,827.41
		c-109.373,112.095-286.556,112.095-395.934,0c-109.374-112.031-109.374-293.729,0-405.765l809.032-819.383
		c153.117-156.897,401.404-156.897,554.298,0c153.173,156.963,153.173,411.218,0.108,568.123l-606.244,621.379
		c-22.028,22.528-22.028,58.744,0,81.159c21.878,22.523,57.26,22.523,79.182,0l614.146-629.462
		C1969.258,808.082,1969.258,481,1772.39,279.34z"/>
</g>
</svg>
