<svg id="Layer_1" xmlns="http://www.w3.org/2000/svg" viewBox="0 0 2048 2048"><style>.st0{fill:#231f20}</style><g id="attach"><path id="clip_2_" class="st0" d="M1772.4 343.1c-196.8-201.8-515.9-201.8-712.7 0l-817.1 827.4c-152.8 156.6-152.8 411.5 0 568.1 152.9 156.6 401.5 156.6 554.2 0l817.1-827.5c109.3-112.1 109.3-293.7 0-405.8-109.4-112-286.7-112-395.9 0l-614.2 629.5c-21.9 22.5-21.9 58.7 0 81.2s57.3 22.5 79.2 0l614.2-629.5c65.5-67.1 172.1-67.1 237.6 0s65.5 176.4 0 243.5l-817 827.4c-109.4 112.1-286.6 112.1-395.9 0-109.4-112-109.4-293.7 0-405.8l809-819.4c153.1-156.9 401.4-156.9 554.3 0 153.2 157 153.2 411.2.1 568.1L1079 1621.9c-22 22.5-22 58.7 0 81.2 21.9 22.5 57.3 22.5 79.2 0l614.1-629.5c196.9-201.7 196.9-528.8.1-730.5z"/></g></svg>