<svg id="Layer_1" xmlns="http://www.w3.org/2000/svg" viewBox="0 0 2048 2048"><style>.st0{fill:#333}</style><g id="attach"><path id="clip_2_" class="st0" d="M1665.5 447.8c-168.6-170.8-442.2-170.8-610.9 0l-700.4 700.3c-131 132.5-131 348.3 0 480.8 131 132.6 344.2 132.6 475.1 0l700.4-700.3c93.7-94.9 93.7-248.6 0-343.5-93.7-94.8-245.7-94.8-339.4 0l-526.4 532.8c-18.8 19-18.8 49.7 0 68.7 18.7 19 49.1 19 67.9 0l526.5-532.8c56.2-56.8 147.5-56.8 203.6 0 56.2 56.8 56.2 149.3 0 206.1l-700.3 700.3c-93.7 94.9-245.6 94.9-339.4 0-93.8-94.8-93.8-248.6 0-343.4l693.5-693.5c131.2-132.8 344.1-132.8 475.1 0 131.3 132.8 131.3 348 .1 480.8L1071.2 1530c-18.9 19.1-18.9 49.7 0 68.7 18.8 19.1 49.1 19.1 67.9 0l526.4-532.7c168.7-170.7 168.7-447.6 0-618.2z"/></g></svg>