<?xml version="1.0" encoding="utf-8"?>
<!-- Generator: Adobe Illustrator 14.0.0, SVG Export Plug-In . SVG Version: 6.00 Build 43363)  -->
<!DOCTYPE svg PUBLIC "-//W3C//DTD SVG 1.1//EN" "http://www.w3.org/Graphics/SVG/1.1/DTD/svg11.dtd">
<svg version="1.1" id="Layer_1" xmlns="http://www.w3.org/2000/svg" xmlns:xlink="http://www.w3.org/1999/xlink" x="0px" y="0px"
	 width="2048px" height="2048px" viewBox="718 1420 2048 2048" enable-background="new 718 1420 2048 2048" xml:space="preserve">
<g id="_x32_0-move" display="none">
	<path display="inline" d="M2266,3288h-384c-35.346,0-64,28.654-64,64v1024c0,35.347,28.654,64,64,64h704c35.346,0,64-28.653,64-64
		v-192h-128v96c0,17.673-14.326,32-32,32h-512c-17.673,0-32-14.327-32-32v-832c0-17.673,14.327-32,32-32h224v288
		c0,17.673,14.327,32,32,32h288l0,0h128v-64L2266,3288z"/>
	<path display="inline" d="M3088.627,3938.02l-256.471-257.129c-0.039-0.027-0.079-0.055-0.119-0.082
		c-5.738-5.455-13.493-8.811-22.037-8.811c-16.477,0-30.038,12.454-31.801,28.46c-0.125,0.714-0.189,1.404-0.199,2.071v161.538h-288
		c-17.673,0-32,14.325-32,32V4024c0,17.673,14.327,32,32,32h288v161.797c0.021,0.302,0.059,0.605,0.128,0.916
		c1.407,16.374,15.134,29.229,31.872,29.229c7.941,0,15.201-2.898,20.794-7.688c1.104-0.554,2.096-1.241,2.94-2.087l254.893-254.893
		C3101.124,3970.777,3101.124,3950.515,3088.627,3938.02z"/>
</g>
<g id="_x31_6-assigned" display="none">
	<path display="inline" d="M2493.64,4228.702c-140.193-58.981-173.363-79.524-173.363-79.524l-1.363-135.812
		c0,0,52.506-40.813,68.964-168.567c32.682,9.565,67.248-49.396,69.099-80.638c1.751-29.854-4.604-113.144-44.65-104.82
		c8.104-62.743,13.962-118.936,11.219-148.922c-10.335-109.109-116.735-224.14-280.37-224.14
		c-163.382,0-269.889,115.028-280.371,224.139c-2.738,29.991,3.121,86.18,11.355,148.922c-40.157-8.323-46.519,74.967-44.648,104.82
		c1.871,31.24,36.292,90.203,69.217,80.638c16.212,127.754,68.844,168.567,68.844,168.567l-1.371,135.812
		c0,0-33.304,20.543-173.238,79.524c-140.434,59.07-281.979,100.392-324.017,166.677C1436,4470.009,1436,4824,1436,4824h707.176
		h700.939c0,0-0.168-351.429-26.577-428.621C2794.396,4334.174,2657.716,4293.174,2493.64,4228.702z"/>
	<path display="inline" d="M3459.503,4442.944c-24.058-64.393-38.575-95.757-168.875-148.238
		c-130.297-52.499-161.26-70.698-161.26-70.698l-1.039-120.705c0,0,48.769-36.285,63.991-149.887
		c30.451,8.49,62.436-44.129,64.237-71.689c1.548-26.562-4.243-100.621-41.534-93.265c7.473-55.735,13.161-105.854,10.571-132.292
		c-9.662-97.135-108.633-199.378-260.594-199.378c-151.976,0-250.802,102.243-260.606,199.378
		c-2.578,26.438,2.829,76.562,10.574,132.292c-37.406-7.356-43.34,66.703-41.538,93.265c1.812,27.562,33.793,80.182,64.237,71.689
		c15.225,113.602,64.129,149.887,64.129,149.887l-1.383,118.928c145.591,94.434,159.51,176.052,159.51,176.052
		c11.675,106.987,13.089,257.039,13.089,425.72h511.109C3484.14,4824,3483.632,4501.507,3459.503,4442.944z"/>
</g>
<g id="_x31_6-check" display="none">
	<polygon display="inline" points="3229,3032 2204,4058 1692.011,3543.991 1436,3799.729 2203,4696 3484,3288 	"/>
</g>
<g id="attach">
	<path id="clip_2_" fill="#333333" d="M2383.439,1804.084c-168.646-170.779-442.218-170.779-610.873,0l-700.351,700.291
		c-131.011,132.533-131.011,348.264,0,480.834c131.019,132.578,344.16,132.578,475.068,0l700.354-700.31
		c93.703-94.869,93.703-248.597,0-343.466c-93.744-94.799-245.712-94.799-339.37,0l-526.44,532.774
		c-18.752,19.016-18.752,49.666,0,68.691c18.738,19.006,49.125,19.006,67.871,0l526.484-532.785
		c56.162-56.779,147.475-56.779,203.626,0c56.16,56.827,56.16,149.274,0,206.102l-700.302,700.261
		c-93.749,94.869-245.62,94.869-339.373,0c-93.75-94.814-93.75-248.59,0-343.41l693.459-693.469
		c131.243-132.787,344.062-132.787,475.113,0c131.291,132.843,131.291,348.027,0.094,480.819l-519.642,525.892
		c-18.881,19.066-18.881,49.717,0,68.688c18.753,19.062,49.08,19.062,67.871,0l526.413-532.732
		C2552.186,2251.575,2552.186,1974.755,2383.439,1804.084z"/>
</g>
</svg>
