<?xml version="1.0" encoding="utf-8"?>
<!-- Generated by IcoMoon.io -->
<!DOCTYPE svg PUBLIC "-//W3C//DTD SVG 1.1//EN" "http://www.w3.org/Graphics/SVG/1.1/DTD/svg11.dtd">
<svg version="1.1" xmlns="http://www.w3.org/2000/svg" xmlns:xlink="http://www.w3.org/1999/xlink" width="32" height="32" viewBox="0 0 32 32">
<path fill="#444" d="M31.494 27.789l-4.623-9.105c-1.146-2.216-3.022-5.84-4.168-8.057l-4.623-8.937c-1.146-2.216-3.022-2.216-4.168 0l-4.623 8.977c-1.146 2.216-3.022 5.883-4.168 8.099l-4.623 9.022c-1.146 2.216-0.107 4.191 2.314 4.191h8.791c2.417 0 6.37 0 8.791 0h8.791c2.417 0 3.455-1.975 2.309-4.191zM17.946 27.982h-3.958v-3.997h3.958v3.997zM17.946 21.97h-3.958v-10.001h3.958v10.001z"></path>
</svg>
