<?xml version="1.0" encoding="utf-8"?>
<!-- Generated by IcoMoon.io -->
<!DOCTYPE svg PUBLIC "-//W3C//DTD SVG 1.1//EN" "http://www.w3.org/Graphics/SVG/1.1/DTD/svg11.dtd">
<svg version="1.1" xmlns="http://www.w3.org/2000/svg" xmlns:xlink="http://www.w3.org/1999/xlink" width="32" height="32" viewBox="0 0 32 32">
<path fill="#444" d="M17.28 14.714c0.931 0.221 1.585 0.488 1.961 0.802 0.54 0.446 0.811 1.025 0.811 1.736 0 0.751-0.297 1.371-0.891 1.861-0.73 0.594-1.79 0.89-3.181 0.89h-4.992v-0.258c0.453 0 0.76-0.043 0.921-0.13s0.275-0.199 0.34-0.337c0.065-0.138 0.098-0.479 0.098-1.023v-6.492c0-0.544-0.033-0.886-0.098-1.027s-0.179-0.253-0.343-0.337c-0.164-0.084-0.47-0.126-0.918-0.126v-0.258h4.713c1.126 0 1.924 0.102 2.393 0.306s0.839 0.509 1.11 0.915c0.271 0.406 0.406 0.837 0.406 1.294 0 0.482-0.172 0.911-0.515 1.287s-0.948 0.675-1.814 0.896zM14.626 15.089l-0.006 3.199-0.001 0.364c0 0.262 0.066 0.46 0.199 0.594s0.33 0.2 0.591 0.2c0.387 0 0.743-0.087 1.070-0.261s0.576-0.426 0.751-0.757c0.174-0.33 0.261-0.699 0.261-1.105 0-0.465-0.103-0.883-0.31-1.252s-0.498-0.627-0.873-0.772c-0.375-0.145-0.936-0.215-1.682-0.21zM14.627 14.515c0.692 0 1.203-0.079 1.532-0.236s0.581-0.379 0.756-0.664c0.175-0.285 0.262-0.65 0.262-1.092s-0.086-0.805-0.259-1.088c-0.172-0.283-0.419-0.498-0.74-0.646s-0.835-0.219-1.545-0.214l-0.007 3.941z"></path>
</svg>
