<?xml version="1.0" encoding="utf-8"?>
<!-- Generator: Adobe Illustrator 14.0.0, SVG Export Plug-In . SVG Version: 6.00 Build 43363)  -->
<!DOCTYPE svg PUBLIC "-//W3C//DTD SVG 1.1//EN" "http://www.w3.org/Graphics/SVG/1.1/DTD/svg11.dtd">
<svg version="1.1" id="Layer_1" xmlns="http://www.w3.org/2000/svg" xmlns:xlink="http://www.w3.org/1999/xlink" x="0px" y="0px"
	 width="2048px" height="2048px" viewBox="718 1420 2048 2048" enable-background="new 718 1420 2048 2048" xml:space="preserve">
<g>
	<path d="M1823.896,2361.685c59.594,14.131,101.436,31.24,125.521,51.333c34.581,28.574,51.884,65.619,51.884,111.133
		c0,48.037-19.018,87.748-57.033,119.131c-46.691,37.989-114.549,56.977-203.572,56.977h-319.517v-16.508
		c28.974,0,48.638-2.766,58.964-8.297c10.325-5.53,17.576-12.738,21.737-21.597c4.163-8.856,6.25-30.682,6.25-65.49v-415.476
		c0-34.794-2.087-56.704-6.25-65.721c-4.162-9.013-11.484-16.208-21.967-21.596c-10.484-5.374-30.06-8.066-58.735-8.066v-16.51
		h301.624c72.077,0,123.134,6.533,153.135,19.588c30.005,13.07,53.673,32.576,71.008,58.54
		c17.316,25.968,25.985,53.569,25.985,82.831c0,30.842-11,58.298-32.966,82.374
		C1917.982,2328.408,1879.299,2347.525,1823.896,2361.685z M1654.059,2385.674l-0.359,204.715l-0.043,23.301
		c0,16.78,4.248,29.448,12.757,37.988c8.51,8.545,21.122,12.812,37.841,12.812c24.741,0,47.566-5.559,68.459-16.682
		c20.88-11.118,36.896-27.271,48.039-48.423c11.139-21.151,16.717-44.74,16.717-70.75c0-29.779-6.622-56.492-19.864-80.152
		s-31.875-40.125-55.903-49.383C1737.677,2389.842,1701.795,2385.357,1654.059,2385.674z M1654.129,2348.988
		c44.307,0,76.982-5.031,98.034-15.105c21.053-10.074,37.183-24.248,48.38-42.504c11.185-18.256,16.788-41.572,16.788-69.918
		c0-28.333-5.519-51.547-16.56-69.662c-11.04-18.1-26.814-31.872-47.336-41.33c-20.521-9.442-53.471-14.015-98.863-13.699
		L1654.129,2348.988z"/>
</g>
</svg>
