<?xml version="1.0" encoding="utf-8"?>
<!-- Generated by IcoMoon.io -->
<!DOCTYPE svg PUBLIC "-//W3C//DTD SVG 1.1//EN" "http://www.w3.org/Graphics/SVG/1.1/DTD/svg11.dtd">
<svg version="1.1" xmlns="http://www.w3.org/2000/svg" xmlns:xlink="http://www.w3.org/1999/xlink" width="32" height="32" viewBox="0 0 32 32">
<path fill="#444" d="M32.023 10.287c0-1.257-1.030-2.287-2.287-2.287h-5.736c0-3-2-4.016-3.553-4.016h-8.575c-1.872 0-3.872 1.016-3.872 4.016h-5.713c-1.258 0-2.287 1.030-2.287 2.287l0.008 15.417c0 1.258 1.030 2.287 2.287 2.287h27.448c1.257 0 2.287-1.030 2.287-2.287l-0.008-15.417zM7 12c-0.552 0-1-0.448-1-1s0.448-1 1-1c0.552 0 1 0.448 1 1s-0.448 1-1 1zM16 26c-4.418 0-8-3.582-8-8s3.582-8 8-8 8 3.582 8 8c0 4.418-3.582 8-8 8z"></path>
<path fill="#444" d="M22 18c0 3.314-2.686 6-6 6s-6-2.686-6-6c0-3.314 2.686-6 6-6s6 2.686 6 6z"></path>
</svg>
