<svg xmlns="http://www.w3.org/2000/svg" viewBox="0 0 2048 2048"><path d="M2048.5 659.2c0-80.5-65.9-146.4-146.4-146.4H1535c0-192-128-257-227.4-257H758.8c-119.8 0-247.8 65-247.8 257H145.4C64.9 512.8-1 578.7-1 659.2l.5 986.7c0 80.5 65.9 146.4 146.4 146.4h1756.7c80.5 0 146.4-65.9 146.4-146.4l-.5-986.7zM447 768.8c-35.3 0-64-28.7-64-64s28.7-64 64-64 64 28.7 64 64-28.6 64-64 64zm576 896c-282.8 0-512-229.2-512-512s229.2-512 512-512 512 229.2 512 512-229.2 512-512 512z"/><circle cx="1023" cy="1152.8" r="384"/></svg>