<svg xmlns="http://www.w3.org/2000/svg" viewBox="0 0 2048 2048"><path d="M1790.4 430.3c0 78.4-34.1 154.8-102.1 229.2l-10.6 11.1-595.4 654.5c-126.5 138.8-234.3 246-323.2 321.7-88.9 75.7-151.7 113.6-188.3 113.6-38.5 0-86.4-18.9-143.5-56.8-57.2-37.8-94.1-76.9-110.8-117.1-14.1-33.5-27.5-104.5-40-213s-18.8-226.1-18.8-352.7c0-69 27.6-132.8 82.8-191.4 55.2-58.6 116.2-87.9 183.1-87.9 63.6 0 101.5 60.6 113.7 181.9 1.3 14.1 2.3 24.5 2.9 31.1 10.3 93.1 22.1 158.1 35.6 194.9 13.5 36.8 31.8 55.2 54.9 55.2 9.6 0 27.6-10.9 53.9-32.6 26.3-21.7 57.8-51.4 94.4-88.9l611.8-632.5c51.4-53.7 97.3-94.3 137.7-121.8 40.5-27.5 74.8-41.3 103.1-41.3 21.2 0 36.3 8.4 45.3 25.1 9 16.8 13.5 44.9 13.5 84.4v33.3z"/></svg>