<?xml version="1.0" encoding="utf-8"?>
<!-- Generator: Adobe Illustrator 14.0.0, SVG Export Plug-In . SVG Version: 6.00 Build 43363)  -->
<!DOCTYPE svg PUBLIC "-//W3C//DTD SVG 1.1//EN" "http://www.w3.org/Graphics/SVG/1.1/DTD/svg11.dtd">
<svg version="1.1" id="Layer_1" xmlns="http://www.w3.org/2000/svg" xmlns:xlink="http://www.w3.org/1999/xlink" x="0px" y="0px"
	 width="2048px" height="2048px" viewBox="718 1420 2048 2048" enable-background="new 718 1420 2048 2048" xml:space="preserve">
<g id="_x33_2-move" display="none">
	<path display="inline" d="M1548,1868h-384c-35.346,0-64,28.654-64,64v1024c0,35.347,28.654,64,64,64h704c35.346,0,64-28.653,64-64
		v-192h-128v96c0,17.673-14.326,32-32,32h-512c-17.673,0-32-14.327-32-32v-832c0-17.673,14.327-32,32-32h224v288
		c0,17.673,14.327,32,32,32h288l0,0h128v-64L1548,1868z"/>
	<path display="inline" d="M2370.627,2518.02l-256.471-257.129c-0.039-0.026-0.079-0.054-0.119-0.082
		c-5.738-5.455-13.493-8.81-22.037-8.81c-16.477,0-30.038,12.454-31.801,28.46c-0.125,0.714-0.189,1.404-0.199,2.071v161.538h-288
		c-17.673,0-32,14.326-32,32V2604c0,17.673,14.327,32,32,32h288v161.797c0.021,0.302,0.059,0.606,0.128,0.916
		c1.407,16.374,15.134,29.229,31.872,29.229c7.941,0,15.201-2.898,20.794-7.688c1.104-0.554,2.096-1.241,2.94-2.087l254.893-254.892
		C2383.124,2550.777,2383.124,2530.516,2370.627,2518.02z"/>
</g>
<g id="_x31_6-assigned" display="none">
	<path display="inline" d="M1775.64,2808.702c-140.193-58.981-173.363-79.524-173.363-79.524l-1.363-135.812
		c0,0,52.506-40.813,68.964-168.567c32.683,9.565,67.248-49.396,69.099-80.638c1.753-29.854-4.604-113.145-44.65-104.82
		c8.104-62.743,13.962-118.936,11.219-148.922c-10.335-109.109-116.735-224.14-280.37-224.14
		c-163.382,0-269.889,115.028-280.371,224.139c-2.737,29.991,3.121,86.18,11.355,148.922c-40.157-8.323-46.519,74.967-44.648,104.82
		c1.871,31.241,36.292,90.203,69.216,80.638c16.213,127.754,68.845,168.567,68.845,168.567l-1.371,135.812
		c0,0-33.305,20.543-173.238,79.524c-140.434,59.071-281.98,100.392-324.017,166.677C718,3050.01,718,3404,718,3404h707.176h700.939
		c0,0-0.168-351.429-26.577-428.621C2076.396,2914.175,1939.716,2873.175,1775.64,2808.702z"/>
	<path display="inline" d="M2741.503,3022.944c-24.058-64.393-38.575-95.757-168.875-148.238
		c-130.297-52.499-161.26-70.698-161.26-70.698l-1.039-120.705c0,0,48.769-36.286,63.992-149.887
		c30.45,8.49,62.435-44.129,64.237-71.689c1.547-26.562-4.244-100.621-41.535-93.265c7.473-55.735,13.162-105.854,10.571-132.292
		c-9.661-97.135-108.633-199.378-260.594-199.378c-151.976,0-250.802,102.243-260.606,199.378
		c-2.578,26.438,2.829,76.562,10.574,132.292c-37.406-7.356-43.34,66.703-41.538,93.265c1.812,27.562,33.793,80.182,64.237,71.689
		c15.225,113.601,64.13,149.887,64.13,149.887l-1.384,118.928c145.591,94.434,159.511,176.052,159.511,176.052
		c11.674,106.987,13.088,257.039,13.088,425.72h511.109C2766.14,3404,2765.632,3081.508,2741.503,3022.944z"/>
</g>
<g id="_x31_6-check" display="none">
	<polygon display="inline" points="2511,1612 1486,2638 974.011,2123.991 718,2379.729 1485,3276 2766,1868 	"/>
</g>
<g id="_x31_6-attach" display="none">
	<path id="clip_2_" display="inline" fill="#333333" d="M2490.391,1699.34c-196.755-201.788-515.92-201.788-712.684,0
		l-817.072,827.444c-152.846,156.599-152.846,411.498,0,568.141c152.854,156.649,401.52,156.649,554.244,0l817.078-827.467
		c109.32-112.095,109.32-293.734,0-405.83c-109.367-112.012-286.663-112.012-395.931,0l-614.18,629.511
		c-21.878,22.467-21.878,58.685,0,81.163c21.862,22.458,57.313,22.458,79.185,0l614.229-629.521
		c65.522-67.09,172.053-67.09,237.562,0c65.521,67.145,65.521,176.378,0,243.521l-817.017,827.41
		c-109.372,112.095-286.556,112.095-395.934,0c-109.374-112.031-109.374-293.729,0-405.765l809.032-819.383
		c153.117-156.897,401.404-156.897,554.298,0c153.173,156.963,153.173,411.218,0.108,568.123l-606.244,621.379
		c-22.028,22.528-22.028,58.744,0,81.159c21.878,22.523,57.26,22.523,79.182,0l614.146-629.462
		C2687.258,2228.082,2687.258,1901,2490.391,1699.34z"/>
</g>
<g id="_x31_6-insert-link" display="none">
	<path display="inline" fill="#010101" d="M2124.956,1547.646h-64.015c-1.827,0-3.622,0.12-5.418,0.274h-697.537
		c-70.708,0-128.026,57.319-128.026,128.029v511.837h128.026V1739.96c0-35.354,28.665-64.012,64.015-64.012h574.931v447.823
		c0,35.351,28.657,64.015,64.012,64.015h448.101v960.21c0,35.354-28.66,64.01-64.016,64.01H1422
		c-35.35,0-64.015-28.656-64.015-64.01v-320.07h-128.026v384.08c0,70.707,57.319,128.028,128.026,128.028h1151.056
		c70.708,0,128.025-57.321,128.025-128.028V2123.771v-64.018L2124.956,1547.646z"/>
	<path display="inline" d="M1981.688,2474.387l-411.738-400.771c-0.056-0.044-0.122-0.082-0.173-0.126
		c-8.962-8.509-21.037-13.732-34.356-13.732c-25.683,0-46.825,19.413-49.566,44.36c-0.189,1.116-0.293,2.188-0.315,3.229v207.771
		H896.615c-27.537,0-49.874,22.333-49.874,49.879v283.413c0,27.554,22.337,49.874,49.874,49.874h588.922v212.189
		c0.034,0.455,0.099,0.939,0.2,1.423c2.2,25.522,23.597,45.552,49.683,45.552c12.376,0,23.688-4.522,32.412-11.986
		c1.722-0.848,3.265-1.925,4.579-3.255l409.276-397.281C2001.18,2525.443,2001.18,2493.863,1981.688,2474.387z"/>
</g>
<g id="_x31_6-restore" display="none">
	<path display="inline" d="M1870.554,1423.5c-445.959,0-828.581,337.809-896.554,764.632H718L1102,2828l384.015-639.868H1229
		c64.513-284.761,337.278-508.953,641.554-508.953c353.02,0,639.196,286.179,639.196,639.196s-286.179,639.196-639.196,639.196
		c-145.483,0-277.124-46.714-384.554-128.571l-127.773,223.105c145.14,101.529,321.761,161.145,512.327,161.145
		c494.227,0,894.875-400.648,894.875-894.875S2364.777,1423.5,1870.554,1423.5z"/>
</g>
<g id="_x31_6-preview" display="none">
	<g display="inline">
		<rect x="1104.932" y="2062.605" fill="#010101" width="383.289" height="127.763"/>
		<path fill="#010101" d="M2747.141,3320.986L2528.753,3102.6c68.759-94.746,109.337-211.276,109.337-337.298
			c0-249.915-159.475-462.55-382.197-541.788V1999.18v-63.937l-511.459-511.453h-63.933c-1.824,0-3.618,0.121-5.412,0.276H849.507
			c-70.619,0-127.864,57.246-127.864,127.866v1150.503v127.257v256.333c0,70.612,57.245,127.862,127.864,127.862h854.069
			c98.47,79.032,223.491,126.35,359.579,126.35c126.021,0,242.551-40.577,337.3-109.337l218.384,218.388
			c24.95,24.95,65.396,24.95,90.345,0l37.957-37.956C2772.09,3386.381,2772.09,3345.938,2747.141,3320.986z M913.44,3086.024
			c-35.306,0-63.933-28.624-63.933-63.932v-192.401v-127.256V1615.859c0-35.31,28.627-63.928,63.933-63.928h703.133v447.249
			c0,35.308,28.619,63.934,63.928,63.934h447.524v130.921c-21.296-2.394-42.937-3.665-64.87-3.665
			c-136.898,0-262.601,47.878-361.336,127.763h-596.888v127.765h480.137c-26.385,39.416-48.008,82.274-64.084,127.763h-416.051
			v127.763h386.842c-2.32,20.979-3.554,42.286-3.554,63.882c0,118.761,36.017,229.104,97.709,320.724L913.44,3086.024
			L913.44,3086.024z M2062.87,3211.903c-246.808,0-446.886-200.078-446.886-446.888c0-246.809,200.078-446.886,446.886-446.886
			s446.888,200.078,446.888,446.886C2509.758,3011.825,2309.678,3211.903,2062.87,3211.903z"/>
	</g>
</g>
<g id="_x31_6-copylink" display="none">
	<path display="inline" fill="#010101" d="M2392.275,2373.284l-288.129,288.407c-159.028,159.34-417.029,159.34-576.062,0
		c-25.062-24.99-44.658-53.185-61.866-82.261l133.877-134.051c6.368-6.425,14.226-10.105,21.729-14.446
		c9.249,31.68,25.41,61.653,50.278,86.545c79.412,79.577,208.663,79.479,288.031,0l288.031-288.407
		c79.466-79.569,79.466-208.937,0-288.455c-79.368-79.522-208.563-79.522-288.031,0l-102.438,102.676
		c-83.104-32.417-172.662-41.131-259.84-28.333l218.265-218.547c159.132-159.294,417.024-159.294,576.164,0
		C2551.312,1955.709,2551.312,2213.996,2392.275,2373.284z M1630.578,2847.528l-102.493,102.673
		c-79.42,79.472-208.667,79.472-288.085,0c-79.416-79.572-79.416-208.938,0-288.501l288.085-288.416
		c79.468-79.575,208.614-79.575,288.028,0c24.822,24.851,40.979,54.823,50.33,86.443c7.562-4.39,15.32-7.965,21.69-14.341
		L2022,2311.395c-17.104-29.18-36.798-57.268-61.855-82.31c-159.041-159.291-417.032-159.291-576.114,0l-288.032,288.411
		c-159.084,159.339-159.084,417.574,0,576.918c159.082,159.232,417.03,159.232,576.113,0l218.312-218.605
		C1803.186,2888.657,1713.624,2879.895,1630.578,2847.528z"/>
</g>
<g id="_x31_6-download" display="none">
	<g display="inline">
		<polygon points="2253.936,2699.895 2253.936,2827.875 1230.089,2827.875 1230.089,2699.895 973.881,2699.895 974.128,3083.837 
			2509.896,3083.837 2509.896,2699.895 		"/>
		<polygon points="2253.936,2187.968 1997.971,2187.97 1997.971,1804.029 1486.051,1804.029 1486.053,2187.972 1230.089,2187.972 
			1742.012,2699.895 		"/>
	</g>
</g>
<g id="_x31_6-info" display="none">
	<path display="inline" d="M1743.75,1675.694c-423.909,0-767.556,343.648-767.556,767.556
		c0,423.909,343.647,767.557,767.556,767.557s767.557-343.646,767.557-767.557
		C2511.307,2019.342,2167.659,1675.694,1743.75,1675.694z M1847.407,2904.651c-71.044,70.965-138.285,110.338-201.735,118.093
		c-43.69,5.341-76.793-1.967-99.284-21.91c-22.503-19.943-35.462-43.973-38.896-72.056c-2.158-17.678-1.566-34.376,1.793-50.104
		c3.352-15.72,7.204-31.764,11.539-48.13l110.658-325.508c6.154-18.692,10.388-33.738,12.697-45.104
		c2.298-11.364,2.948-21.212,1.932-29.536c-1.017-8.31-3.309-14.104-6.873-17.369c-3.564-3.25-7.955-4.569-13.149-3.937
		c-13.527,1.651-37.273,25.414-71.267,71.269c-33.982,45.858-54.625,69.226-61.898,70.118c-8.328,1.014-17.35-3.683-27.062-14.11
		c-9.729-10.418-14.772-17.197-15.152-20.317c-1.271-10.399,6.535-28.521,23.447-54.339c16.896-25.821,38.842-53.57,65.834-83.273
		c24.117-27.222,53.889-53.564,89.322-79.018c35.419-25.438,67.691-39.949,96.823-43.511c46.812-5.72,83.541,3.252,110.19,26.917
		c26.646,23.664,42.265,54.218,46.837,91.67c1.911,15.604,2.387,32.443,1.424,50.502c-0.963,18.068-5.496,37.097-13.609,57.089
		l-86.733,275.076c-6.688,22.989-11.299,41.508-13.802,55.538c-2.513,14.035-3.441,23.655-2.807,28.848
		c0.763,6.238,2.798,9.949,6.108,11.13s6.526,1.576,9.646,1.194c22.885-2.796,47.664-22.451,74.352-58.971
		c26.68-36.521,44.182-55.288,52.51-56.307c7.276-0.89,15.745,3.618,25.409,13.522c9.646,9.909,14.736,16.941,15.243,21.102
		C1952.938,2789.875,1918.436,2833.688,1847.407,2904.651z M1943.491,2058.312c-24.143,31.454-55.975,49.6-95.489,54.431
		c-38.5,4.705-73.497-5.271-105.017-29.919c-31.519-24.655-49.63-56.219-54.337-94.716c-4.702-38.485,5.27-73.493,29.923-105.013
		c24.65-31.521,56.214-49.629,94.716-54.338c39.518-4.831,74.784,5.112,105.786,29.828c30.995,24.72,48.854,56.324,53.562,94.807
		C1977.34,1991.89,1967.618,2026.855,1943.491,2058.312z"/>
</g>
<g id="_x31_6-view" display="none">
	<path display="inline" d="M2509.896,2443.843c0-31.491-11.466-60.296-30.432-82.553h0.1
		c-773.48-935.816-1430.985-60.723-1473.69-1.728c-19.861,22.48-31.931,51.97-31.931,84.28c0,31.166,11.22,59.71,29.835,81.87h-0.13
		c0,0,675.942,960.296,1475.917,1.374h-0.697C2498.189,2504.738,2509.896,2475.664,2509.896,2443.843z M1741.918,2826.665
		c-212.069,0-383.988-171.394-383.988-382.822c0-211.426,171.92-382.821,383.988-382.821c212.073,0,383.99,171.396,383.99,382.821
		C2125.908,2655.271,1953.991,2826.665,1741.918,2826.665z"/>
	<ellipse display="inline" cx="1741.92" cy="2443.843" rx="127.997" ry="127.608"/>
</g>
<g id="_x31_6-workflow" display="none">
	<g display="inline">
		<polygon points="2318.096,1676.047 1614.083,1675.97 1230,2508 1614,2508 1358,3212 2318,2252 1870,2252 		"/>
	</g>
</g>
<g id="_x31_6-closed" display="none">
	<polygon display="inline" fill="none" points="1677.043,2955.887 1941.076,2631.757 1676.513,2955.312 	"/>
	<path display="inline" d="M2554.271,1886.276c34.272-58.812,21.288-135.342-33.515-179.305
		c-60.476-48.514-148.97-38.996-197.66,21.261L1488.699,2700l-322.673-297.878c-54.835-59.104-147.375-62.721-206.689-8.083
		c-59.317,54.637-62.95,146.84-8.113,205.943L1486,3212L2554.271,1886.276z"/>
</g>
<g>
	<path d="M2506.771,1818.764c0,78.436-34.05,154.826-102.127,229.224l-10.598,11.054l-595.362,654.486
		c-126.548,138.751-234.284,245.973-323.232,321.716c-88.948,75.744-151.739,113.59-188.345,113.59
		c-38.542,0-86.392-18.923-143.548-56.769c-57.181-37.846-94.11-76.857-110.789-117.059
		c-14.146-33.497-27.474-104.504-39.982-213.02C980.254,2653.471,974,2535.895,974,2409.284c0-68.987,27.598-132.797,82.843-191.404
		c55.246-58.606,116.249-87.936,183.059-87.936c63.584,0,101.457,60.626,113.667,181.852c1.291,14.082,2.258,24.463,2.903,31.142
		c10.275,93.113,22.138,158.088,35.639,194.924c13.476,36.837,31.792,55.242,54.922,55.242c9.629,0,27.598-10.872,53.93-32.644
		c26.333-21.744,57.802-51.383,94.434-88.919l611.769-632.482c51.373-53.688,97.286-94.278,137.74-121.796
		c40.454-27.491,74.827-41.263,103.095-41.263c21.194,0,36.285,8.387,45.269,25.136c8.984,16.774,13.501,44.913,13.501,84.441
		V1818.764z"/>
</g>
</svg>
