<?xml version="1.0" encoding="utf-8"?>
<!-- Generated by IcoMoon.io -->
<!DOCTYPE svg PUBLIC "-//W3C//DTD SVG 1.1//EN" "http://www.w3.org/Graphics/SVG/1.1/DTD/svg11.dtd">
<svg version="1.1" xmlns="http://www.w3.org/2000/svg" xmlns:xlink="http://www.w3.org/1999/xlink" width="32" height="32" viewBox="0 0 32 32">
<path fill="#444" d="M26.161 14.895l-4.502 4.506c-2.485 2.49-6.516 2.49-9.001 0-0.392-0.39-0.698-0.831-0.967-1.285l2.092-2.095c0.1-0.1 0.222-0.158 0.34-0.226 0.145 0.495 0.397 0.963 0.786 1.352 1.241 1.243 3.26 1.242 4.5 0l4.5-4.506c1.242-1.243 1.242-3.265 0-4.507-1.24-1.243-3.259-1.243-4.5 0l-1.601 1.604c-1.299-0.507-2.698-0.643-4.060-0.443l3.41-3.415c2.486-2.489 6.516-2.489 9.003 0 2.485 2.489 2.485 6.525-0 9.014zM14.259 22.305l-1.601 1.604c-1.241 1.242-3.26 1.242-4.501 0-1.241-1.243-1.241-3.265 0-4.508l4.501-4.506c1.242-1.243 3.26-1.243 4.5 0 0.388 0.388 0.64 0.857 0.786 1.351 0.118-0.069 0.239-0.124 0.339-0.224l2.092-2.094c-0.267-0.456-0.575-0.895-0.966-1.286-2.485-2.489-6.516-2.489-9.002 0l-4.5 4.506c-2.486 2.49-2.486 6.525 0 9.014 2.486 2.488 6.516 2.488 9.002 0l3.411-3.416c-1.363 0.201-2.762 0.064-4.060-0.442z"></path>
</svg>
