<svg id="Layer_1" xmlns="http://www.w3.org/2000/svg" viewBox="0 0 2048 2048"><style>.st0{fill:#010101}</style><path class="st0" d="M1407.5 0h-64c-1.8 0-3.6.1-5.4.3H640.5c-70.7 0-128 57.3-128 128v256.6h-256c-70.7 0-128 57.3-128 128V1920c0 70.7 57.3 128 128 128h1151.1c70.7 0 128-57.3 128-128v-256.6h256c70.7 0 128-57.3 128-128V512.1L1407.5 0zm0 1856c0 35.4-28.7 64-64 64h-1023c-35.4 0-64-28.7-64-64V577c0-35.4 28.7-64 64-64h192v1022.4c0 70.7 57.3 128 128 128h767V1856zm384-384.7c0 35.4-28.7 64-64 64h-1023c-35.3 0-64-28.7-64-64v-1279c0-35.4 28.7-64 64-64h574.9v447.8c0 35.4 28.7 64 64 64h448.1v831.2z" id="_x31_6-copyworkflow"/></svg>