<svg id="Layer_1" xmlns="http://www.w3.org/2000/svg" viewBox="0 0 2048 2048"><style>.st0{fill:#010101}</style><path class="st0" d="M1672.2 951.9L1384 1240.3c-159 159.3-417 159.3-576.1 0-25.1-25-44.7-53.2-61.9-82.3l134-134c6.4-6.4 14.2-10.1 21.7-14.4 9.2 31.7 25.4 61.7 50.3 86.5 79.4 79.6 208.7 79.5 288 0l288-288.4c79.5-79.6 79.5-208.9 0-288.5-79.4-79.5-208.6-79.5-288 0l-102.4 102.7c-83.1-32.4-172.7-41.1-259.8-28.3L1096 375c159.1-159.3 417-159.3 576.2 0 159 159.3 159 417.6 0 576.9zm-761.7 474.2L808 1528.8c-79.4 79.5-208.7 79.5-288.1 0-79.4-79.6-79.4-208.9 0-288.5L808 951.9c79.5-79.6 208.6-79.6 288 0 24.8 24.9 41 54.8 50.3 86.4 7.6-4.4 15.3-8 21.7-14.3l133.9-134c-17.1-29.2-36.8-57.3-61.9-82.3-159-159.3-417-159.3-576.1 0l-288 288.4c-159.1 159.3-159.1 417.6 0 576.9 159.1 159.2 417 159.2 576.1 0l218.3-218.6c-87.2 12.9-176.8 4.1-259.8-28.3z" id="_x31_6-copylink"/></svg>