<svg id="Layer_1" xmlns="http://www.w3.org/2000/svg" viewBox="0 0 2048 2048"><style>.st0{opacity:.7;enable-background:new}</style><path class="st0" d="M1410.2 449.5v-146c0-132-98.3-239-234.4-239H806.2c-136.1 0-228.4 107-228.4 239v146.1H190.3v256.8h123.2v1038.3c0 132 110.3 239 246.4 239H1480.2c135.6 0 245.6-106.3 246.3-237.7l2-1.3V706.3h129.2V449.5h-447.5zM701 1733H574.8V706.3H701V1733zm381.6 0H959.4V706.3h123.2V1733zm69.2-1283.5H830.2V321.3h321.6v128.2zM1470.2 1733H1341V706.3h129.2V1733z" id="trash"/></svg>