<?xml version="1.0" encoding="utf-8"?>
<!-- Generated by IcoMoon.io -->
<!DOCTYPE svg PUBLIC "-//W3C//DTD SVG 1.1//EN" "http://www.w3.org/Graphics/SVG/1.1/DTD/svg11.dtd">
<svg version="1.1" xmlns="http://www.w3.org/2000/svg" xmlns:xlink="http://www.w3.org/1999/xlink" width="32" height="32" viewBox="0 0 32 32">
<path fill="#444" d="M18.005 1.985l-11.992 0.010c-1.103 0-1.997 0.894-1.997 1.997v23.955c0 1.103 0.894 1.997 1.997 1.997l20.093 0.005c1.103 0 1.997-0.925 1.903-2.028v-15.916l-10.004-10.020zM24.046 24.987c0 0.551-0.447 0.998-0.998 0.998h-14.055c-0.551 0-0.998-0.447-0.998-0.998v-18.011c0-0.551 0.447-0.998 0.998-0.998h7.020v7.035c0 0.551 0.447 0.998 0.998 0.998h7.035v10.975z"></path>
</svg>
