<?xml version="1.0" encoding="utf-8"?>
<!-- Generated by IcoMoon.io -->
<!DOCTYPE svg PUBLIC "-//W3C//DTD SVG 1.1//EN" "http://www.w3.org/Graphics/SVG/1.1/DTD/svg11.dtd">
<svg version="1.1" xmlns="http://www.w3.org/2000/svg" xmlns:xlink="http://www.w3.org/1999/xlink" width="32" height="32" viewBox="0 0 32 32">
<path fill="#444" d="M20.030 0.020v-0.009h-18.021v31.878h27.893v-21.916l-9.873-9.953zM4.002 29.897v-27.893h15.196l8.713 8.783v19.11h-23.909z"></path>
<path fill="#444" d="M5.995 5.988h1.992v1.992h-1.992v-1.992z"></path>
<path fill="#444" d="M9.979 5.988h1.992v1.992h-1.992v-1.992z"></path>
<path fill="#444" d="M13.964 5.988h1.992v1.992h-1.992v-1.992z"></path>
<path fill="#444" d="M5.995 9.973h1.992v1.992h-1.992v-1.992z"></path>
<path fill="#444" d="M5.995 13.958h1.992v1.992h-1.992v-1.992z"></path>
<path fill="#444" d="M5.995 17.943h1.992v1.992h-1.992v-1.992z"></path>
<path fill="#444" d="M5.995 21.927h1.992v1.992h-1.992v-1.992z"></path>
<path fill="#444" d="M5.995 25.912h1.992v1.992h-1.992v-1.992z"></path>
<path fill="#444" d="M9.979 25.912h1.992v1.992h-1.992v-1.992z"></path>
<path fill="#444" d="M13.964 25.912h1.992v1.992h-1.992v-1.992z"></path>
<path fill="#444" d="M13.964 21.927h1.992v1.992h-1.992v-1.992z"></path>
<path fill="#444" d="M13.964 17.943h1.992v1.992h-1.992v-1.992z"></path>
<path fill="#444" d="M13.964 13.958h1.992v1.992h-1.992v-1.992z"></path>
<path fill="#444" d="M13.964 9.973h1.992v1.992h-1.992v-1.992z"></path>
<path fill="#444" d="M17.949 25.912h1.992v1.992h-1.992v-1.992z"></path>
<path fill="#444" d="M21.934 25.912h1.992v1.992h-1.992v-1.992z"></path>
<path fill="#444" d="M21.934 21.927h1.992v1.992h-1.992v-1.992z"></path>
<path fill="#444" d="M21.934 17.943h1.992v1.992h-1.992v-1.992z"></path>
<path fill="#444" d="M21.934 13.958h1.992v1.992h-1.992v-1.992z"></path>
<path fill="#444" d="M21.934 9.973h1.992v1.992h-1.992v-1.992z"></path>
</svg>
