<svg xmlns="http://www.w3.org/2000/svg" width="2048" height="2048" viewBox="0 0 2048 2048"><path d="M1281.941 1.294V.716H128.625v2040.206h1785.179V638.281L1281.941 1.294zM256.138 1913.409V128.229h972.542l557.613 562.134v1223.046H256.138z"/><path d="M383.651 383.255h127.512v127.513H383.651zM638.677 383.255h127.514v127.513H638.677zM893.703 383.255h127.513v127.513H893.703zM383.651 638.281h127.512v127.513H383.651zM383.651 893.306h127.512v127.513H383.651zM383.651 1148.332h127.512v127.513H383.651zM383.651 1403.357h127.512v127.514H383.651zM383.651 1658.384h127.512v127.513H383.651zM638.677 1658.384h127.514v127.513H638.677zM893.703 1658.384h127.513v127.513H893.703zM893.703 1403.357h127.513v127.514H893.703zM893.703 1148.332h127.513v127.513H893.703zM893.703 893.306h127.513v127.513H893.703zM893.703 638.281h127.513v127.513H893.703zM1148.729 1658.384h127.513v127.513h-127.513zM1403.754 1658.384h127.514v127.513h-127.514zM1403.754 1403.357h127.514v127.514h-127.514zM1403.754 1148.332h127.514v127.513h-127.514zM1403.754 893.306h127.514v127.513h-127.514zM1403.754 638.281h127.514v127.513h-127.514z"/></svg>