<?xml version="1.0" encoding="utf-8"?>
<!-- Generated by IcoMoon.io -->
<!DOCTYPE svg PUBLIC "-//W3C//DTD SVG 1.1//EN" "http://www.w3.org/Graphics/SVG/1.1/DTD/svg11.dtd">
<svg version="1.1" xmlns="http://www.w3.org/2000/svg" xmlns:xlink="http://www.w3.org/1999/xlink" width="32" height="32" viewBox="0 0 32 32">
<path fill="#444" d="M26.5 6h-21c-1.933 0-3.5 1.567-3.5 3.5v13c0 1.933 1.567 3.5 3.5 3.5h21c1.933 0 3.5-1.567 3.5-3.5v-13c0-1.933-1.567-3.5-3.5-3.5zM16 20.027l-12.060-10.337c0.138-0.361 0.347-0.687 0.609-0.962l0.097-0.097c0.308-0.293 0.68-0.52 1.093-0.655l10.261 8.51 10.307-8.549c0.263 0.091 0.508 0.219 0.73 0.378l0.675 0.675c0.15 0.21 0.273 0.44 0.363 0.687l-12.076 10.351z"></path>
</svg>
