<svg xmlns="http://www.w3.org/2000/svg" width="2048" height="2048" viewBox="0 0 2048 2048"><path d="M1696 384H352c-123.711 0-224 100.289-224 224v832c0 123.711 100.289 224 224 224h1344c123.711 0 224-100.289 224-224V608c0-123.711-100.289-224-224-224zm-672 897.75L252.18 620.191c8.84-23.119 22.18-43.996 38.961-61.584l6.215-6.215c19.688-18.781 43.504-33.256 69.965-41.932L1024 1055.125l659.676-547.152a184.405 184.405 0 0 1 46.719 24.172l43.215 43.207c9.594 13.438 17.477 28.18 23.238 43.957L1024 1281.75z"/></svg>