<?xml version="1.0" encoding="utf-8"?>
<!-- Generator: Adobe Illustrator 14.0.0, SVG Export Plug-In . SVG Version: 6.00 Build 43363)  -->
<!DOCTYPE svg PUBLIC "-//W3C//DTD SVG 1.1//EN" "http://www.w3.org/Graphics/SVG/1.1/DTD/svg11.dtd">
<svg version="1.1" id="Layer_1" xmlns="http://www.w3.org/2000/svg" xmlns:xlink="http://www.w3.org/1999/xlink" x="0px" y="0px"
	 width="2048px" height="2048px" viewBox="0 0 2048 2048" enable-background="new 0 0 2048 2048" xml:space="preserve">
<g id="_x33_2-move" display="none">
	<path display="inline" d="M830,448H446c-35.346,0-64,28.654-64,64v1024c0,35.347,28.654,64,64,64h704c35.346,0,64-28.653,64-64
		v-192h-128v96c0,17.673-14.326,32-32,32H542c-17.673,0-32-14.327-32-32V608c0-17.673,14.327-32,32-32h224v288
		c0,17.673,14.327,32,32,32h288l0,0h128v-64L830,448z"/>
	<path display="inline" d="M1652.627,1098.02l-256.471-257.129c-0.039-0.027-0.079-0.054-0.119-0.082
		c-5.738-5.455-13.493-8.81-22.037-8.81c-16.477,0-30.038,12.454-31.801,28.46c-0.125,0.714-0.189,1.404-0.199,2.071v161.538h-288
		c-17.673,0-32,14.326-32,32V1184c0,17.673,14.327,32,32,32h288v161.797c0.021,0.302,0.059,0.606,0.128,0.916
		c1.407,16.374,15.134,29.228,31.872,29.228c7.941,0,15.201-2.898,20.794-7.688c1.104-0.554,2.096-1.241,2.941-2.087
		l254.892-254.892C1665.124,1130.777,1665.124,1110.516,1652.627,1098.02z"/>
</g>
<g id="_x31_6-assigned" display="none">
	<path display="inline" d="M1057.64,1388.702c-140.194-58.981-173.364-79.524-173.364-79.524l-1.363-135.812
		c0,0,52.506-40.813,68.964-168.567c32.682,9.565,67.248-49.396,69.099-80.638c1.751-29.854-4.605-113.144-44.651-104.82
		c8.105-62.743,13.962-118.936,11.219-148.922c-10.335-109.109-116.735-224.14-280.37-224.14
		c-163.382,0-269.889,115.029-280.371,224.139c-2.738,29.991,3.121,86.18,11.355,148.922c-40.157-8.323-46.518,74.967-44.648,104.82
		c1.871,31.241,36.292,90.203,69.216,80.638c16.212,127.754,68.844,168.567,68.844,168.567l-1.371,135.812
		c0,0-33.304,20.543-173.238,79.524c-140.434,59.071-281.98,100.392-324.017,166.677C0,1630.01,0,1984,0,1984h707.176h700.939
		c0,0-0.168-351.429-26.577-428.621C1358.396,1494.175,1221.716,1453.175,1057.64,1388.702z"/>
	<path display="inline" d="M2023.503,1602.944c-24.058-64.392-38.575-95.757-168.875-148.238
		c-130.297-52.499-161.26-70.698-161.26-70.698l-1.039-120.705c0,0,48.769-36.286,63.992-149.887
		c30.451,8.49,62.435-44.129,64.237-71.689c1.548-26.562-4.244-100.622-41.534-93.265c7.472-55.735,13.161-105.855,10.571-132.292
		c-9.662-97.135-108.633-199.378-260.594-199.378c-151.976,0-250.802,102.243-260.607,199.378
		c-2.578,26.438,2.83,76.561,10.575,132.292c-37.406-7.357-43.34,66.703-41.538,93.265c1.812,27.562,33.793,80.181,64.237,71.689
		c15.225,113.601,64.129,149.887,64.129,149.887l-1.383,118.928c145.591,94.433,159.51,176.051,159.51,176.051
		c11.675,106.988,13.089,257.039,13.089,425.72h511.109C2048.14,1984,2047.632,1661.508,2023.503,1602.944z"/>
</g>
<g id="_x31_6-check" display="none">
	<polygon display="inline" points="1793,192 768,1218 256.011,703.991 0,959.729 767,1856 2048,448 	"/>
</g>
<g id="_x31_6-attach" display="none">
	<path id="clip_2_" display="inline" fill="#333333" d="M1772.39,279.34c-196.754-201.788-515.919-201.788-712.683,0
		l-817.072,827.444c-152.846,156.599-152.846,411.498,0,568.141c152.854,156.649,401.519,156.649,554.244,0l817.078-827.467
		c109.32-112.095,109.32-293.734,0-405.83c-109.367-112.012-286.663-112.012-395.931,0l-614.179,629.511
		c-21.878,22.467-21.878,58.684,0,81.163c21.862,22.458,57.313,22.458,79.184,0l614.229-629.521
		c65.522-67.089,172.052-67.089,237.562,0c65.521,67.145,65.521,176.378,0,243.522l-817.016,827.41
		c-109.373,112.095-286.556,112.095-395.934,0c-109.374-112.031-109.374-293.729,0-405.765l809.032-819.383
		c153.117-156.897,401.404-156.897,554.298,0c153.173,156.963,153.173,411.218,0.108,568.123l-606.244,621.379
		c-22.028,22.528-22.028,58.744,0,81.159c21.878,22.523,57.26,22.523,79.182,0l614.146-629.462
		C1969.258,808.082,1969.258,481,1772.39,279.34z"/>
</g>
<g id="_x31_6-insert-link" display="none">
	<path display="inline" fill="#010101" d="M1406.956,127.646h-64.015c-1.827,0-3.622,0.12-5.418,0.274H639.986
		c-70.708,0-128.026,57.319-128.026,128.029v511.837h128.026V319.96c0-35.354,28.665-64.012,64.015-64.012h574.931v447.823
		c0,35.351,28.657,64.015,64.011,64.015h448.101v960.21c0,35.354-28.661,64.01-64.016,64.01H704
		c-35.35,0-64.015-28.656-64.015-64.01v-320.07H511.959v384.08c0,70.707,57.319,128.028,128.026,128.028h1151.056
		c70.708,0,128.026-57.321,128.026-128.028V703.771v-64.017L1406.956,127.646z"/>
	<path display="inline" d="M1263.688,1054.387L851.949,653.615c-0.056-0.044-0.122-0.082-0.173-0.126
		c-8.962-8.509-21.037-13.732-34.356-13.732c-25.683,0-46.825,19.413-49.566,44.36c-0.19,1.116-0.294,2.188-0.316,3.229v207.771
		H178.615c-27.537,0-49.874,22.333-49.874,49.879v283.413c0,27.554,22.337,49.874,49.874,49.874h588.922v212.19
		c0.034,0.455,0.099,0.939,0.2,1.422c2.2,25.523,23.597,45.552,49.683,45.552c12.376,0,23.688-4.522,32.412-11.986
		c1.722-0.848,3.265-1.925,4.579-3.255l409.276-397.281C1283.18,1105.443,1283.18,1073.863,1263.688,1054.387z"/>
</g>
<g id="_x31_6-restore" display="none">
	<path display="inline" d="M1152.554,3.5C706.595,3.5,323.973,341.309,256,768.132H0L384,1408l384.015-639.868H511
		c64.513-284.761,337.278-508.953,641.554-508.953c353.019,0,639.196,286.178,639.196,639.196s-286.179,639.196-639.196,639.196
		c-145.484,0-277.124-46.714-384.554-128.571l-127.773,223.105c145.139,101.53,321.76,161.145,512.327,161.145
		c494.226,0,894.875-400.648,894.875-894.875S1646.778,3.5,1152.554,3.5z"/>
</g>
<g id="_x31_6-preview" display="none">
	<g display="inline">
		<rect x="386.932" y="642.605" fill="#010101" width="383.289" height="127.763"/>
		<path fill="#010101" d="M2029.14,1900.986L1810.753,1682.6c68.759-94.746,109.337-211.277,109.337-337.298
			c0-249.915-159.475-462.55-382.197-541.788V579.18v-63.937L1026.434,3.79h-63.933c-1.824,0-3.618,0.121-5.412,0.276H131.507
			C60.888,4.066,3.643,61.312,3.643,131.932v1150.503v127.257v256.333c0,70.613,57.245,127.863,127.864,127.863h854.069
			c98.47,79.032,223.491,126.349,359.579,126.349c126.022,0,242.551-40.577,337.3-109.337l218.384,218.388
			c24.95,24.95,65.396,24.95,90.345,0l37.957-37.956C2054.09,1966.381,2054.09,1925.938,2029.14,1900.986z M195.44,1666.024
			c-35.306,0-63.933-28.624-63.933-63.931v-192.402v-127.256V195.859c0-35.31,28.627-63.928,63.933-63.928h703.133V579.18
			c0,35.307,28.619,63.933,63.928,63.933h447.525v130.921c-21.296-2.393-42.937-3.665-64.871-3.665
			c-136.898,0-262.6,47.878-361.336,127.763H386.932v127.764h480.136c-26.385,39.416-48.007,82.275-64.084,127.763H386.933v127.763
			h386.842c-2.32,20.979-3.553,42.286-3.553,63.882c0,118.761,36.016,229.104,97.709,320.724L195.44,1666.024L195.44,1666.024z
			 M1344.87,1791.903c-246.808,0-446.886-200.078-446.886-446.887s200.078-446.886,446.886-446.886s446.888,200.078,446.888,446.886
			C1791.758,1591.825,1591.678,1791.903,1344.87,1791.903z"/>
	</g>
</g>
<g id="_x31_6-copylink" display="none">
	<path display="inline" fill="#010101" d="M1674.275,953.284l-288.129,288.407c-159.028,159.34-417.029,159.34-576.062,0
		c-25.064-24.99-44.658-53.184-61.866-82.26l133.877-134.051c6.368-6.425,14.225-10.106,21.729-14.446
		c9.249,31.679,25.41,61.653,50.279,86.544c79.412,79.578,208.663,79.48,288.031,0l288.031-288.407
		c79.466-79.569,79.466-208.936,0-288.455c-79.368-79.522-208.564-79.522-288.031,0l-102.439,102.676
		c-83.104-32.417-172.662-41.131-259.84-28.333l218.265-218.547c159.132-159.294,417.025-159.294,576.164,0
		C1833.312,535.709,1833.312,793.996,1674.275,953.284z M912.578,1427.528l-102.493,102.673c-79.42,79.472-208.667,79.472-288.085,0
		c-79.416-79.572-79.416-208.937,0-288.501l288.085-288.416c79.468-79.575,208.614-79.575,288.028,0
		c24.822,24.851,40.979,54.823,50.33,86.444c7.563-4.39,15.321-7.965,21.691-14.341L1304,891.395
		c-17.104-29.18-36.798-57.268-61.855-82.31c-159.041-159.291-417.033-159.291-576.115,0l-288.032,288.411
		c-159.084,159.339-159.084,417.574,0,576.918c159.082,159.232,417.03,159.232,576.113,0l218.312-218.605
		C1085.186,1468.657,995.624,1459.895,912.578,1427.528z"/>
</g>
<g id="_x31_6-download" display="none">
	<g display="inline">
		<polygon points="1535.936,1279.895 1535.936,1407.875 512.089,1407.875 512.089,1279.895 255.881,1279.895 256.128,1663.837 
			1791.896,1663.837 1791.896,1279.895 		"/>
		<polygon points="1535.936,767.968 1279.971,767.97 1279.971,384.029 768.051,384.029 768.053,767.972 512.089,767.972 
			1024.012,1279.895 		"/>
	</g>
</g>
<g id="_x31_6-info" display="none">
	<path display="inline" d="M1025.75,255.694c-423.909,0-767.556,343.648-767.556,767.556c0,423.909,343.647,767.557,767.556,767.557
		s767.557-343.646,767.557-767.557C1793.307,599.342,1449.659,255.694,1025.75,255.694z M1129.407,1484.651
		c-71.044,70.965-138.285,110.338-201.735,118.093c-43.69,5.341-76.793-1.967-99.284-21.91
		c-22.503-19.943-35.462-43.973-38.897-72.056c-2.158-17.677-1.566-34.376,1.793-50.103c3.352-15.72,7.204-31.764,11.539-48.13
		l110.659-325.508c6.154-18.692,10.387-33.738,12.697-45.104c2.298-11.365,2.948-21.212,1.931-29.536
		c-1.016-8.31-3.308-14.104-6.873-17.37c-3.564-3.25-7.955-4.569-13.149-3.936c-13.528,1.651-37.274,25.414-71.267,71.268
		c-33.982,45.859-54.625,69.226-61.898,70.119c-8.328,1.013-17.35-3.683-27.062-14.111c-9.728-10.418-14.772-17.197-15.152-20.317
		c-1.271-10.4,6.535-28.521,23.447-54.339c16.897-25.821,38.842-53.57,65.834-83.273c24.117-27.222,53.889-53.565,89.322-79.018
		c35.419-25.438,67.692-39.949,96.824-43.511c46.812-5.72,83.541,3.252,110.19,26.917c26.647,23.664,42.265,54.218,46.837,91.67
		c1.911,15.604,2.387,32.444,1.424,50.502c-0.963,18.068-5.496,37.097-13.61,57.089l-86.733,275.076
		c-6.688,22.989-11.299,41.508-13.802,55.538c-2.513,14.035-3.441,23.656-2.806,28.848c0.762,6.238,2.797,9.949,6.108,11.13
		s6.526,1.576,9.647,1.194c22.884-2.796,47.664-22.451,74.351-58.971c26.68-36.521,44.182-55.288,52.51-56.306
		c7.276-0.89,15.745,3.618,25.409,13.522c9.646,9.91,14.736,16.942,15.243,21.102
		C1234.938,1369.875,1200.436,1413.688,1129.407,1484.651z M1225.491,638.312c-24.142,31.455-55.974,49.6-95.489,54.431
		c-38.5,4.705-73.497-5.271-105.017-29.919c-31.518-24.655-49.63-56.219-54.336-94.716c-4.703-38.485,5.269-73.493,29.922-105.012
		c24.651-31.521,56.214-49.629,94.716-54.338c39.518-4.831,74.784,5.112,105.786,29.828c30.995,24.72,48.854,56.324,53.562,94.807
		C1259.34,571.89,1249.618,606.855,1225.491,638.312z"/>
</g>
<g id="_x31_6-view" display="none">
	<path display="inline" d="M1791.896,1023.843c0-31.491-11.466-60.296-30.431-82.553h0.099
		c-773.48-935.816-1430.985-60.723-1473.69-1.728c-19.861,22.481-31.931,51.97-31.931,84.281c0,31.166,11.22,59.71,29.835,81.87
		h-0.13c0,0,675.942,960.296,1475.917,1.374h-0.698C1780.189,1084.738,1791.896,1055.664,1791.896,1023.843z M1023.918,1406.665
		c-212.069,0-383.988-171.394-383.988-382.822c0-211.426,171.919-382.821,383.988-382.821c212.073,0,383.99,171.396,383.99,382.821
		C1407.908,1235.271,1235.991,1406.665,1023.918,1406.665z"/>
	<ellipse display="inline" cx="1023.92" cy="1023.843" rx="127.997" ry="127.608"/>
</g>
<g id="_x31_6-workflow" display="none">
	<g display="inline">
		<polygon points="1600.096,256.047 896.083,255.97 512,1088 896,1088 640,1792 1600,832 1152,832 		"/>
	</g>
</g>
<g id="_x31_6-closed" display="none">
	<polygon display="inline" fill="none" points="959.043,1535.887 1223.076,1211.757 958.513,1535.312 	"/>
	<path display="inline" d="M1836.271,466.276c34.273-58.812,21.289-135.342-33.514-179.304
		c-60.476-48.514-148.97-38.996-197.66,21.261L770.699,1280L448.026,982.122c-54.835-59.104-147.374-62.721-206.689-8.083
		c-59.317,54.637-62.95,146.84-8.113,205.943L768,1792L1836.271,466.276z"/>
</g>
<g id="_x31_6-merged" display="none">
	<path display="inline" d="M1149.092,448v381.091c-558.546,0-613.818-573.054-613.818-573.054H256
		c0,621.696,566.556,768.092,566.556,768.092S256,1170.237,256,1791.938h279.271c0,0,4.668-511.938,616.729-511.938v320l640-575.862
		L1149.092,448z"/>
</g>
<g id="_x31_6-savedreply" display="none">
	<path display="inline" d="M1300.365,1h-551.73C335.715,1,1,344.645,1,768.625c0,386.316,278.057,704.903,639.689,758.752V2048
		l511.748-511.75h147.932c412.915,0,747.632-343.582,747.632-767.625C2048,344.645,1713.283,1,1300.365,1z M1280.598,1280.695
		h-222.03l-224.974,259.576v-258.427l-142.406-18.01c-247.916-37.749-434.875-203.494-434.875-469.08
		c0-296.898,227.701-538.443,507.589-538.443h521.195c279.887,0,507.59,241.544,507.59,538.443
		C1792.688,1091.654,1560.483,1280.695,1280.598,1280.695z"/>
	<circle display="inline" cx="637.934" cy="766.121" r="128.188"/>
	<circle display="inline" cx="1022.497" cy="766.121" r="128.188"/>
	<circle display="inline" cx="1407.061" cy="766.121" r="128.188"/>
</g>
<g id="_x31_6-copyworkflow" display="none">
	<path display="inline" fill="#010101" d="M1406.874,0h-64.015c-1.827,0-3.622,0.12-5.418,0.274H639.904
		c-70.708,0-128.026,57.319-128.026,128.029v256.596H255.866c-70.708,0-128.026,57.319-128.026,128.029v1022.965v10.925v373.155
		c0,70.707,57.319,128.027,128.026,128.027h1151.056c70.708,0,128.026-57.32,128.026-128.027v-256.597h256.012
		c70.708,0,128.026-57.321,128.026-128.027V576.126V512.11L1406.874,0z M1406.922,1855.962c0,35.354-28.661,64.01-64.016,64.01
		H319.88c-35.35,0-64.015-28.656-64.015-64.01V576.939c0-35.354,28.665-64.013,64.015-64.013h191.997v767.354v10.925v244.143
		c0,70.707,57.319,128.028,128.026,128.028h767.018L1406.922,1855.962L1406.922,1855.962z M1790.96,1471.338
		c0,35.354-28.661,64.01-64.016,64.01H703.918c-35.35,0-64.015-28.656-64.015-64.01V192.315c0-35.354,28.665-64.012,64.015-64.012
		h574.932v447.823c0,35.351,28.656,64.015,64.01,64.015h448.101V1471.338L1790.96,1471.338z"/>
</g>
<g id="_x31_6-trash" display="none">
	<path display="inline" opacity="0.7" enable-background="new    " d="M1346.883,385.017V238.962
		C1346.883,106.988,1248.578,0,1112.505,0H742.94C606.866,0,514.564,106.988,514.564,238.962v146.055H126.996v256.75h123.189
		v1038.258c0,131.973,110.304,238.961,246.377,238.961h123.188h674.021h123.19c135.637,0,245.641-106.31,246.345-237.701
		l1.958-1.261V641.768h129.188v-256.75H1346.883z M637.752,1668.451H511.562V641.768h126.188L637.752,1668.451L637.752,1668.451z
		 M1019.319,1668.451H896.13V641.768h123.189V1668.451L1019.319,1668.451z M1088.503,385.017H766.942V256.75h321.561V385.017z
		 M1406.889,1668.451h-129.189V641.768h129.189V1668.451L1406.889,1668.451z"/>
</g>
<g id="_x31_6-draft" display="none">
	<g display="inline">
		<path d="M1281.941,1.294V0.716H128.625v2040.206h1785.179V638.281L1281.941,1.294z M256.138,1913.409V128.229h972.542
			l557.613,562.134v1223.046H256.138L256.138,1913.409z"/>
		<rect x="383.651" y="383.255" width="127.512" height="127.513"/>
		<rect x="638.677" y="383.255" width="127.514" height="127.513"/>
		<rect x="893.703" y="383.255" width="127.513" height="127.513"/>
		<rect x="383.651" y="638.281" width="127.512" height="127.513"/>
		<rect x="383.651" y="893.306" width="127.512" height="127.513"/>
		<rect x="383.651" y="1148.332" width="127.512" height="127.513"/>
		<rect x="383.651" y="1403.357" width="127.512" height="127.514"/>
		<rect x="383.651" y="1658.384" width="127.512" height="127.513"/>
		<rect x="638.677" y="1658.384" width="127.514" height="127.513"/>
		<rect x="893.703" y="1658.384" width="127.513" height="127.513"/>
		<rect x="893.703" y="1403.357" width="127.513" height="127.514"/>
		<rect x="893.703" y="1148.332" width="127.513" height="127.513"/>
		<rect x="893.703" y="893.306" width="127.513" height="127.513"/>
		<rect x="893.703" y="638.281" width="127.513" height="127.513"/>
		<rect x="1148.729" y="1658.384" width="127.513" height="127.513"/>
		<rect x="1403.754" y="1658.384" width="127.514" height="127.513"/>
		<rect x="1403.754" y="1403.357" width="127.514" height="127.514"/>
		<rect x="1403.754" y="1148.332" width="127.514" height="127.513"/>
		<rect x="1403.754" y="893.306" width="127.514" height="127.513"/>
		<rect x="1403.754" y="638.281" width="127.514" height="127.513"/>
	</g>
</g>
<g id="_x31_6-error">
	<g>
		<path d="M1026.711,1601.28c-91.583,0-162.181-74.478-162.181-160.302c0-91.594,70.597-162.049,162.181-162.049
			c89.572,0,160.169,72.456,160.169,162.049C1186.876,1526.804,1114.414,1601.28,1026.711,1601.28z M1116.423,1134.833
			c-3.754,35.147-11.151,36.971-38.914,36.971h-105.46c-27.765,0-35.154-1.813-38.852-36.971L832.458,508.574
			c-1.815-31.396-1.815-25.816-1.815-36.973c0-23.996,18.485-23.996,33.277-23.996h318.555c14.784,0,37.042,0,37.042,23.996
			c0,11.156,0,5.582-1.877,36.973L1116.423,1134.833z"/>
	</g>
	<g>
		<path d="M1024.784,2.917C460.405,2.917,2.868,460.327,2.868,1024.758c0,564.439,457.537,1021.854,1021.916,1021.854
			c564.358,0,1021.896-457.415,1021.896-1021.854C2046.688,460.327,1589.143,2.917,1024.784,2.917z M1024.784,1897.288
			c-481.093,0-872.539-391.373-872.539-872.392c0-481.157,391.446-872.531,872.539-872.531
			c481.08,0,872.524,391.381,872.524,872.531C1897.314,1505.915,1505.864,1897.288,1024.784,1897.288z"/>
	</g>
</g>
</svg>
