<svg xmlns="http://www.w3.org/2000/svg" width="2048" height="2048" viewBox="0 0 2048 2048"><path d="M1026.711 1601.28c-91.583 0-162.181-74.478-162.181-160.302 0-91.594 70.597-162.049 162.181-162.049 89.572 0 160.169 72.456 160.169 162.049-.004 85.826-72.466 160.302-160.169 160.302zm89.712-466.447c-3.754 35.147-11.151 36.971-38.914 36.971h-105.46c-27.765 0-35.154-1.813-38.852-36.971L832.458 508.574c-1.815-31.396-1.815-25.816-1.815-36.973 0-23.996 18.485-23.996 33.277-23.996h318.555c14.784 0 37.042 0 37.042 23.996 0 11.156 0 5.582-1.877 36.973l-101.217 626.259z"/><path d="M1024.784 2.917C460.405 2.917 2.868 460.327 2.868 1024.758c0 564.439 457.537 1021.854 1021.916 1021.854 564.358 0 1021.896-457.415 1021.896-1021.854.008-564.431-457.537-1021.841-1021.896-1021.841zm0 1894.371c-481.093 0-872.539-391.373-872.539-872.392 0-481.157 391.446-872.531 872.539-872.531 481.08 0 872.524 391.381 872.524 872.531.006 481.019-391.444 872.392-872.524 872.392z"/></svg>