<?xml version="1.0" encoding="utf-8"?>
<!-- Generated by IcoMoon.io -->
<!DOCTYPE svg PUBLIC "-//W3C//DTD SVG 1.1//EN" "http://www.w3.org/Graphics/SVG/1.1/DTD/svg11.dtd">
<svg version="1.1" xmlns="http://www.w3.org/2000/svg" xmlns:xlink="http://www.w3.org/1999/xlink" width="32" height="32" viewBox="0 0 32 32">
<path fill="#444" d="M17.766 4.053c-5.406-0.313-10.6 0.809-11.594 2.5-0.219 0.372-0.219 0.753 0 1.128l6.359 9.053c0.3 0.359 0.463 0.806 0.463 1.266v7.503c0 0.281 0.238 0.506 0.525 0.506 0.103 0 0.206-0.028 0.294-0.084l3.747-2.113c0.294-0.188 0.469-0.506 0.469-0.844v-4.969c0-0.459 0.163-0.906 0.462-1.266l7.322-9.053c0.994-1.694-2.637-3.319-8.047-3.628zM15.966 8.997c-5.234 0-7.956-1.109-7.956-1.944s2.722-2.053 7.956-2.053c5.234 0 8.009 1.219 8.009 2.053s-2.775 1.944-8.009 1.944z"></path>
</svg>
