<svg xmlns="http://www.w3.org/2000/svg" width="2048" height="2048" viewBox="718 1420 2048 2048"><path d="M2766 1653.89l-1.613 1.29c3.756-28.301-6-57.745-29.316-79.337-40.377-37.393-106.121-37.082-146.842.695L1709.101 2380c-18.69 17.338-28.853 39.556-30.483 62.136-3.277 28.05 6.49 56.916 29.403 78.11l877.819 792.066c40.619 37.569 107.158 36.81 148.615-1.698 22.604-20.994 33.082-48.875 31.359-75.98l.186.074V1653.89z"/><path d="M1358.617 2442.136c1.631-22.58 11.793-44.798 30.483-62.136l416.9-381.018V1653.89l-1.613 1.29c3.756-28.301-6-57.745-29.316-79.337-40.376-37.393-106.121-37.082-146.841.695L749.101 2380c-18.69 17.338-28.853 39.556-30.483 62.136-3.277 28.05 6.49 56.916 29.403 78.11l877.82 792.066c40.619 37.569 107.157 36.81 148.615-1.698 22.604-20.994 33.082-48.875 31.359-75.98l.186.074v-337.314l-417.979-377.147c-22.915-21.195-32.682-50.061-29.405-78.111z"/></svg>