<?xml version="1.0" encoding="utf-8"?>
<!-- Generated by IcoMoon.io -->
<!DOCTYPE svg PUBLIC "-//W3C//DTD SVG 1.1//EN" "http://www.w3.org/Graphics/SVG/1.1/DTD/svg11.dtd">
<svg version="1.1" xmlns="http://www.w3.org/2000/svg" xmlns:xlink="http://www.w3.org/1999/xlink" width="32" height="32" viewBox="0 0 32 32">
<path fill="#444" d="M28.002 0h-24.002c-2.2 0-4 1.8-4 4v24.002c0 2.2 1.8 4 4 4h24.002c2.201 0 4-1.8 4-4v-24.002c0-2.2-1.8-4-4-4zM9.954 20.007c-2.195 0-3.973-1.791-3.973-4.005s1.779-4.006 3.973-4.006c2.194 0 3.975 1.793 3.975 4.006s-1.781 4.005-3.975 4.005zM22.018 19.94c-2.199 0-3.982-1.762-3.982-3.938s1.783-3.94 3.982-3.94c2.198 0 3.982 1.763 3.982 3.94s-1.783 3.938-3.982 3.938z"></path>
</svg>
