<?xml version="1.0" encoding="utf-8"?>
<!-- Generated by IcoMoon.io -->
<!DOCTYPE svg PUBLIC "-//W3C//DTD SVG 1.1//EN" "http://www.w3.org/Graphics/SVG/1.1/DTD/svg11.dtd">
<svg version="1.1" xmlns="http://www.w3.org/2000/svg" xmlns:xlink="http://www.w3.org/1999/xlink" width="32" height="32" viewBox="0 0 32 32">
<path fill="#444" d="M22.977 3.008c0 0-4.945 2.592-9.611 0.965-5.084-1.777-7.376-1.062-9.549 1.598-0.372-0.212-0.839-0.234-1.231 0.006-0.573 0.353-0.753 1.111-0.4 1.681l12.377 20.16c0.23 0.376 0.628 0.581 1.036 0.581 0.217 0 0.438-0.061 0.638-0.181 0.572-0.353 0.75-1.109 0.397-1.681l-5.661-9.126c2.171-2.649 4.617-3.208 9.697-1.435 4.667 1.631 9.334-0.608 9.334-0.608l-7.027-11.961z"></path>
</svg>
