<svg xmlns="http://www.w3.org/2000/svg" width="2048" height="2048" viewBox="718 1420 2048 2048"><path d="M2157.37 1999.045c-19.997-6.198-42.973-2.758-58.271 8.705-67.564 50.579-177.528 35.302-245.197-15.316C1678 1868 1651.151 1963.69 1549.856 1994.5v579.83c67.922-39.304 144.471-129.005 272.471-1.005 138.015 123.012 267.319 41.75 352.376-21.976 10.029-7.55 15.665-17.719 15.665-28.317V2036.07c.001-16.234-13.056-30.805-32.998-37.025zM1485.405 1994.762c0-35.182-28.521-63.703-63.703-63.703-34.038 0-61.836 26.696-63.609 60.291H1358v904.358h.093c1.773 33.596 29.571 60.291 63.609 60.291 35.183 0 63.703-28.521 63.703-63.703v-897.534z"/></svg>