<svg xmlns="http://www.w3.org/2000/svg" width="2048" height="2048" viewBox="718 1420 2048 2048"><path d="M2510.148 1420H974.021C833.219 1420 718 1535.219 718 1676.021v1536.127c0 140.826 115.219 256.021 256.021 256.021h1536.127c140.85 0 256.021-115.195 256.021-256.021V1676.021c.001-140.802-115.171-256.021-256.021-256.021zM1355.041 2700.447c-140.461 0-254.29-114.654-254.29-256.315 0-141.685 113.829-256.415 254.29-256.415 140.439 0 254.392 114.73 254.392 256.415 0 141.661-113.954 256.315-254.392 256.315zm772.139-4.268c-140.739 0-254.872-112.745-254.872-252.047 0-139.326 114.133-252.146 254.872-252.146 140.689 0 254.822 112.82 254.822 252.146 0 139.302-114.133 252.047-254.822 252.047z"/></svg>