<?xml version="1.0" encoding="utf-8"?>
<!-- Generated by IcoMoon.io -->
<!DOCTYPE svg PUBLIC "-//W3C//DTD SVG 1.1//EN" "http://www.w3.org/Graphics/SVG/1.1/DTD/svg11.dtd">
<svg version="1.1" xmlns="http://www.w3.org/2000/svg" xmlns:xlink="http://www.w3.org/1999/xlink" width="32" height="32" viewBox="0 0 32 32">
<path fill="#444" d="M11.105 17.216h-3.493l-0.436 0.958c-0.137 0.323-0.206 0.589-0.206 0.799 0 0.279 0.113 0.484 0.339 0.616 0.132 0.078 0.458 0.137 0.979 0.176v0.252h-3.318v-0.252c0.358-0.054 0.652-0.201 0.883-0.443s0.515-0.741 0.854-1.497l3.565-7.826h0.14l3.601 8.043c0.343 0.772 0.625 1.258 0.846 1.458 0.167 0.151 0.402 0.239 0.706 0.264v0.252h-4.827v-0.252h0.199c0.388 0 0.66-0.054 0.817-0.162 0.108-0.078 0.162-0.191 0.162-0.338 0-0.088-0.015-0.179-0.044-0.272-0.010-0.044-0.084-0.228-0.221-0.552l-0.544-1.225zM10.868 16.683l-1.488-3.346-1.525 3.346h3.013z"></path>
<path fill="#444" d="M20.043 19.009c-0.84 0.731-1.594 1.096-2.262 1.096-0.393 0-0.72-0.126-0.98-0.38s-0.39-0.57-0.39-0.951c0-0.516 0.226-0.98 0.678-1.392s1.437-0.961 2.954-1.645v-0.678c0-0.51-0.028-0.831-0.085-0.963s-0.164-0.248-0.322-0.347c-0.158-0.099-0.336-0.148-0.533-0.148-0.321 0-0.584 0.070-0.79 0.21-0.128 0.087-0.191 0.188-0.191 0.304 0 0.101 0.069 0.226 0.206 0.376 0.187 0.207 0.28 0.407 0.28 0.6 0 0.236-0.090 0.437-0.269 0.604s-0.413 0.249-0.703 0.249c-0.309 0-0.568-0.091-0.776-0.274s-0.313-0.397-0.313-0.643c0-0.347 0.14-0.678 0.42-0.993s0.67-0.558 1.171-0.726c0.501-0.169 1.021-0.253 1.561-0.253 0.653 0 1.17 0.136 1.55 0.408s0.627 0.567 0.74 0.884c0.069 0.202 0.103 0.667 0.103 1.393v2.62c0 0.308 0.012 0.502 0.037 0.581s0.062 0.138 0.111 0.177c0.049 0.038 0.105 0.058 0.168 0.058 0.13 0 0.262-0.087 0.397-0.26l0.221 0.169c-0.246 0.359-0.5 0.619-0.762 0.781s-0.561 0.244-0.895 0.244c-0.393 0-0.7-0.091-0.921-0.272s-0.356-0.456-0.405-0.824zM20.043 18.476v-2.252c-0.594 0.342-1.036 0.708-1.325 1.099-0.192 0.26-0.287 0.523-0.287 0.788 0 0.222 0.081 0.417 0.243 0.585 0.123 0.13 0.295 0.195 0.515 0.195 0.245 0 0.53-0.138 0.854-0.415z"></path>
<path fill="#444" d="M20.969 23h6.031l-3.031 3z"></path>
</svg>
