<svg xmlns="http://www.w3.org/2000/svg" width="2048" height="2048" viewBox="718 1420 2048 2048"><path d="M1428.729 2521.832H1205.18l-27.924 61.301c-8.799 20.656-13.185 37.695-13.185 51.137 0 17.844 7.218 30.973 21.668 39.416 8.469 5.01 29.34 8.771 62.626 11.264v16.123H1036v-16.123c22.903-3.438 41.741-12.873 56.51-28.33 14.752-15.455 32.955-47.391 54.625-95.781L1375.294 2060h8.966l230.467 514.768c21.971 49.401 40.022 80.507 54.157 93.308 10.669 9.689 25.737 15.321 45.205 16.877v16.123h-308.912v-16.123h12.718c24.806 0 42.226-3.451 52.274-10.357 6.901-5.008 10.353-12.223 10.353-21.635 0-5.646-.947-11.453-2.816-17.412-.633-2.812-5.35-14.578-14.135-35.295l-34.842-78.422zm-15.191-34.139l-95.221-214.176-97.587 214.176h192.808zM2000.758 2636.582c-53.75 46.793-102.002 70.176-144.738 70.176-25.149 0-46.053-8.092-62.7-24.303-16.666-16.195-24.984-36.479-24.984-60.867 0-33.016 14.451-62.725 43.369-89.117 28.917-26.375 91.938-61.477 189.056-105.309v-43.414c0-32.628-1.82-53.182-5.457-61.656-3.629-8.476-10.502-15.871-20.599-22.183-10.112-6.314-21.474-9.47-34.103-9.47-20.522 0-37.389 4.477-50.57 13.407-8.167 5.561-12.251 12.034-12.251 19.429 0 6.477 4.386 14.49 13.186 24.05 11.938 13.262 17.902 26.051 17.902 38.377 0 15.112-5.742 27.989-17.192 38.631-11.453 10.639-26.446 15.943-44.968 15.943-19.784 0-36.345-5.854-49.683-17.562-13.352-11.705-20.013-25.426-20.013-41.146 0-22.196 8.952-43.389 26.868-63.567 17.901-20.184 42.887-35.682 74.938-46.467 32.036-10.789 65.353-16.185 99.922-16.185 41.786 0 74.86 8.699 99.211 26.097 24.353 17.396 40.131 36.258 47.362 56.571 4.397 12.95 6.602 42.662 6.602 89.144v167.662c0 19.709.783 32.111 2.365 37.18 1.582 5.08 3.964 8.859 7.128 11.32 3.164 2.459 6.751 3.688 10.76 3.688 8.318 0 16.786-5.56 25.42-16.668l14.12 10.817c-15.718 22.951-31.975 39.621-48.792 50.011-16.815 10.39-35.924 15.588-57.293 15.588-25.147 0-44.802-5.81-58.935-17.427-14.148-11.616-22.798-29.189-25.931-52.75zm0-34.141V2458.31c-38.021 21.901-66.289 45.327-84.81 70.312-12.27 16.653-18.388 33.473-18.388 50.422 0 14.197 5.186 26.675 15.555 37.461 7.852 8.326 18.85 12.488 32.982 12.488 15.706.001 33.924-8.845 54.661-26.552zM2060 2891.999h386L2252 3084"/></svg>