<svg xmlns="http://www.w3.org/2000/svg" viewBox="0 0 2048 2048"><path d="M1974.2 848.6l-888.7 884.9-2.4.1c-22.6 20.1-52.4 32.4-85.1 32.4-28.2 0-54.2-9.1-75.4-24.6l-1.1.1-4-4c-7-5.6-13.3-12-19-19l-599.8-599c-26.3-23.4-42.8-57.5-42.8-95.5 0-35.7 14.6-67.9 38.1-91.1l250.3-250C567.9 656.6 602 640 640 640c31.8 0 60.9 11.6 83.3 30.8l1.4-.1 298.8 296.7 535.9-537.9-345.3-345c-6-6.6-12.3-12.9-18.9-18.8l-2.9-2.9h-.4C1147 23.7 1088.3 0 1024 0c-64.3 0-123 23.7-168 62.8h-1.9L86.7 832C33.5 878.9 0 947.5 0 1024c0 65.2 24.4 124.8 64.6 170v.2l1.3 1.3c5.9 6.6 12.2 12.9 18.8 18.8l748.5 748.4c46.9 52.4 115 85.5 190.9 85.5 75.6 0 143.5-32.7 190.3-84.8l760-759.5v-.1c45.6-46.2 73.7-109.7 73.7-179.7-.1-56.3-43.2-133.2-73.9-175.5z"/><path d="M2043.7 567.9c0-22.4-9.8-42.5-25.3-56.3L1871 364c-26.9-25.5-32.7-21.4-53.7-22.5-23.9-1.3-52 28.2-52 28.2l-40.2 40.2-.1-.1-716.5 717.7-334-332.9h-.8c-13.2-11.3-30.4-18.2-49.1-18.2-22.4 0-42.5 9.8-56.3 25.3L420.6 949.1c-13.9 13.7-22.5 32.7-22.5 53.7 0 22.4 9.7 42.5 25.2 56.3L941.7 1577c3.3 4.1 7.1 7.9 11.2 11.2l2.3 2.3h.7c12.5 9.1 27.8 14.5 44.4 14.5 19.3 0 36.8-7.2 50.2-19.1l1.4-.1L1995 645.1l30.6-27.3v-.8c11.3-13.2 18.1-30.3 18.1-49.1z"/></svg>