<svg xmlns="http://www.w3.org/2000/svg" width="2048" height="2048" viewBox="718 1420 2048 2048"><path d="M2421.305 2322.082H2255.87c-11.417-51.309-31.618-99.498-58.402-143.791l126.698-119.983c34.2-32.585 34.614-85.455.32-117.939l-62.329-58.828c-34.192-32.388-90.126-32.188-124.429 0l-124.326 117.848c-43.59-24.973-90.961-44.092-141.443-56.189v-182.915c0-45.844-39.347-83.298-87.766-83.298h-86.031c-48.417 0-87.764 37.463-87.764 83.298v182.911c-50.472 12.099-97.858 31.217-141.428 56.187l-124.333-117.849c-34.304-32.188-90.234-32.384-124.432 0l-62.321 58.828c-34.302 32.482-33.894 85.354.312 117.939l126.697 119.987c-26.788 44.283-46.973 92.474-58.411 143.791h-165.414c-48.72 0-88.07 37.17-88.07 83.314v79.036c0 46.153 39.343 83.315 88.07 83.315h165.429c11.435 51.304 31.624 99.503 58.412 143.788l-126.697 119.987c-34.205 32.586-34.613 85.469-.315 117.945l62.32 58.828c34.192 32.396 90.124 32.186 124.435 0l124.332-117.844c43.571 24.971 90.956 44.086 141.423 56.193v182.917c0 45.841 39.351 83.287 87.768 83.287h86.031c48.427 0 87.766-37.451 87.766-83.287v-182.917c50.476-12.107 97.854-31.224 141.443-56.193l124.331 117.844c34.29 32.186 90.23 32.396 124.424 0l62.329-58.828c34.29-32.484 33.88-85.359-.32-117.945l-126.693-119.985c26.775-44.285 46.978-92.469 58.401-143.788h165.442c48.721 0 88.067-37.166 88.067-83.314v-79.036c-.02-46.144-39.363-83.314-88.091-83.314zm-682.097 311.231c-104.971 0-190.062-85.096-190.062-190.062 0-104.971 85.091-190.062 190.062-190.062 104.966 0 190.062 85.091 190.062 190.062.001 104.967-85.095 190.062-190.062 190.062z"/></svg>