<?xml version="1.0" encoding="utf-8"?>
<!-- Generated by IcoMoon.io -->
<!DOCTYPE svg PUBLIC "-//W3C//DTD SVG 1.1//EN" "http://www.w3.org/Graphics/SVG/1.1/DTD/svg11.dtd">
<svg version="1.1" xmlns="http://www.w3.org/2000/svg" xmlns:xlink="http://www.w3.org/1999/xlink" width="32" height="32" viewBox="0 0 32 32">
<path fill="#444" d="M28.401 13.738h-3.014c-0.208-0.935-0.576-1.813-1.064-2.62l2.308-2.186c0.623-0.594 0.631-1.557 0.006-2.149l-1.136-1.072c-0.623-0.59-1.642-0.586-2.267 0l-2.265 2.147c-0.794-0.455-1.657-0.803-2.577-1.024v-3.332c0-0.835-0.717-1.518-1.599-1.518h-1.567c-0.882 0-1.599 0.683-1.599 1.518v3.332c-0.92 0.22-1.783 0.569-2.577 1.024l-2.265-2.147c-0.625-0.586-1.644-0.59-2.267 0l-1.135 1.072c-0.625 0.592-0.617 1.555 0.006 2.149l2.308 2.186c-0.488 0.807-0.856 1.685-1.064 2.62h-3.014c-0.888 0-1.604 0.677-1.604 1.518v1.44c0 0.841 0.717 1.518 1.604 1.518h3.014c0.208 0.935 0.576 1.813 1.064 2.62l-2.308 2.186c-0.623 0.594-0.631 1.557-0.006 2.149l1.135 1.072c0.623 0.59 1.642 0.586 2.267 0l2.265-2.147c0.794 0.455 1.657 0.803 2.576 1.024v3.332c0 0.835 0.717 1.517 1.599 1.517h1.567c0.882 0 1.599-0.682 1.599-1.517v-3.332c0.92-0.221 1.783-0.569 2.577-1.024l2.265 2.147c0.625 0.586 1.644 0.59 2.267 0l1.136-1.072c0.625-0.592 0.617-1.555-0.006-2.149l-2.308-2.186c0.488-0.807 0.856-1.685 1.064-2.62h3.014c0.888 0 1.604-0.677 1.604-1.518v-1.44c-0-0.841-0.717-1.518-1.605-1.518zM16 20c-2.209 0-4-1.791-4-4s1.791-4 4-4 4 1.791 4 4-1.791 4-4 4z"></path>
</svg>
