<?xml version="1.0" encoding="utf-8"?>
<!-- Generated by IcoMoon.io -->
<!DOCTYPE svg PUBLIC "-//W3C//DTD SVG 1.1//EN" "http://www.w3.org/Graphics/SVG/1.1/DTD/svg11.dtd">
<svg version="1.1" xmlns="http://www.w3.org/2000/svg" xmlns:xlink="http://www.w3.org/1999/xlink" width="32" height="32" viewBox="0 0 32 32">
<path fill="#444" d="M1.73 8.001c0 2.717 0.907 4.678 2.697 5.831 1.464 0.943 3.166 1.084 4.049 1.084 0.215 0 0.386-0.008 0.507-0.016 0 0-0.281 1.825 1.073 3.631l-0.061-0.001c-2.345 0-9.993 0.49-9.993 6.777 0 6.398 7.025 6.722 8.434 6.722 0.11 0 0.175-0.002 0.175-0.002 0.016 0 0.117 0.004 0.288 0.004 0.905 0 3.242-0.114 5.413-1.169 2.816-1.367 4.245-3.745 4.245-7.067 0-3.211-2.177-5.121-3.765-6.518-0.97-0.851-1.808-1.586-1.808-2.3 0-0.728 0.612-1.275 1.386-1.968 1.253-1.121 2.434-2.716 2.434-5.732 0-2.651-0.344-4.43-2.461-5.559 0.221-0.113 1.001-0.195 1.388-0.249 1.148-0.157 2.827-0.335 2.827-1.272v-0.181h-8.366c-0.084 0.002-8.459 0.313-8.459 7.983zM15.233 24.396c0.16 2.559-2.029 4.446-5.314 4.686-3.338 0.244-6.085-1.259-6.245-3.814-0.077-1.228 0.463-2.432 1.519-3.389 1.072-0.971 2.544-1.57 4.145-1.688 0.189-0.012 0.377-0.020 0.564-0.020 3.089 0 5.181 1.816 5.332 4.225zM13.049 6.251c0.821 2.886-0.418 5.904-2.393 6.461-0.227 0.064-0.462 0.096-0.699 0.096-1.809 0-3.602-1.83-4.266-4.351-0.371-1.417-0.341-2.654 0.085-3.845 0.419-1.171 1.17-1.962 2.115-2.228 0.227-0.064 0.463-0.097 0.7-0.097 2.184 0 3.588 0.906 4.458 3.964zM26 14v-3h-2l0.004 3h-3.004l0 1.993h3l-0.006 3.007h2.006v-3h3v-2l-3-0z"></path>
<path fill="#444" d="M26 11c0 0.552-0.448 1-1 1s-1-0.448-1-1c0-0.552 0.448-1 1-1s1 0.448 1 1z"></path>
<path fill="#444" d="M22 15c0 0.552-0.448 1-1 1s-1-0.448-1-1c0-0.552 0.448-1 1-1s1 0.448 1 1z"></path>
<path fill="#444" d="M30 15c0 0.552-0.448 1-1 1s-1-0.448-1-1c0-0.552 0.448-1 1-1s1 0.448 1 1z"></path>
<path fill="#444" d="M26 19c0 0.552-0.448 1-1 1s-1-0.448-1-1c0-0.552 0.448-1 1-1s1 0.448 1 1z"></path>
</svg>
