<svg xmlns="http://www.w3.org/2000/svg" width="2048" height="2048" viewBox="718 1420 2048 2048"><path d="M828.688 1932.092c0 173.88 58.074 299.418 172.586 373.203 93.724 60.371 202.595 69.398 259.125 69.398 13.734 0 24.736-.5 32.421-1.022 0 0-17.963 116.783 68.672 232.407l-3.912-.044c-150.07 0-639.579 31.355-639.579 433.753 0 409.449 449.578 430.232 539.758 430.232 7.049 0 11.189-.138 11.189-.138 1.001.023 7.458.273 18.415.273 57.895 0 207.513-7.277 346.44-74.809 180.228-87.497 271.679-239.661 271.679-452.286 0-205.486-139.295-327.773-240.98-417.157-62.076-54.435-115.693-101.481-115.693-147.207 0-46.592 39.155-81.608 88.68-125.97 80.223-71.741 155.803-173.834 155.803-366.838 0-169.673-22.012-283.545-157.531-355.808 14.143-7.231 64.08-12.506 88.816-15.917 73.444-10.028 180.906-21.419 180.906-81.404v-11.596h-535.396c-5.367.137-541.399 20.01-541.399 510.93m864.237 1049.258c10.23 163.761-129.834 284.569-340.119 299.872-213.604 15.621-389.463-80.562-399.693-244.094-4.957-78.562 29.605-155.621 97.229-216.924 68.624-62.146 162.804-100.458 265.262-108.007 12.099-.774 24.104-1.25 36.066-1.25 197.686 0 331.569 116.192 341.255 270.403m-139.796-1161.312c52.525 184.727-26.784 377.888-153.163 413.496a165.721 165.721 0 0 1-44.751 6.161c-115.784 0-230.521-117.146-272.996-278.475-23.736-90.658-21.828-169.877 5.413-246.075 26.785-74.945 74.854-125.56 135.384-142.591a164.665 164.665 0 0 1 44.796-6.207c139.792.001 229.656 57.959 285.317 253.691M2382 2316v-192h-128l.228 192.022h-192.25l.022 127.544h192l-.417 192.434H2382v-192h192v-127.978l-192-.022z"/><circle cx="2318" cy="2124" r="64"/><circle cx="2062" cy="2380" r="64"/><circle cx="2574" cy="2380" r="64"/><circle cx="2318" cy="2636" r="64"/></svg>