<?xml version="1.0" encoding="utf-8"?>
<!-- Generator: Adobe Illustrator 14.0.0, SVG Export Plug-In . SVG Version: 6.00 Build 43363)  -->
<!DOCTYPE svg PUBLIC "-//W3C//DTD SVG 1.1//EN" "http://www.w3.org/Graphics/SVG/1.1/DTD/svg11.dtd">
<svg version="1.1" id="Layer_1" xmlns="http://www.w3.org/2000/svg" xmlns:xlink="http://www.w3.org/1999/xlink" x="0px" y="0px"
	 width="2048px" height="2048px" viewBox="718 1420 2048 2048" enable-background="new 718 1420 2048 2048" xml:space="preserve">
<path d="M1211.704,1910.364c28.803-73.57,69.186-137.335,121.073-191.291c51.886-53.957,114.467-96.034,187.776-126.304
	c73.277-30.229,155.238-45.371,245.843-45.371c116.938,0,214.536,15.939,292.78,47.824c78.222,31.88,141.225,71.544,189.021,118.946
	c47.755,47.438,81.914,98.518,102.528,153.28c20.587,54.798,30.888,105.875,30.888,153.277c0,78.479-10.301,143.084-30.888,193.744
	c-20.612,50.698-46.129,94.035-76.591,129.985c-30.493,35.98-64.238,66.635-101.301,91.962
	c-37.063,25.362-72.077,50.699-105.014,76.028c-32.966,25.373-62.183,54.373-87.699,87.066
	c-25.566,32.715-41.624,81.652-48.194,130.701v99.201h-321.55v-116.354c4.945-70.288,18.534-137.229,40.773-184.668
	c22.237-47.405,48.181-87.872,77.827-121.404c29.649-33.492,48.914-62.535,81.893-87.061c32.927-24.525,63.39-49.052,91.416-73.576
	c27.987-24.525,50.646-51.506,67.944-80.93c17.294-29.431,25.095-66.222,23.472-110.363c0-75.188-18.527-130.784-55.587-166.774
	c-37.062-35.944-88.561-53.952-154.422-53.952c-44.475,0-61.775,8.582-93.883,25.753c-32.125,17.164-58.495,40.083-79.07,68.667
	c-20.612,28.629-35.826,62.157-45.709,100.551c-9.889,38.437-14.823,115.961-14.823,160.107H1166
	C1167.616,2101.127,1182.869,1983.941,1211.704,1910.364z"/>
<rect x="1614" y="2956" width="384" height="320"/>
</svg>
