<svg xmlns="http://www.w3.org/2000/svg" width="2048" height="2048" viewBox="718 1420 2048 2048"><path d="M1211.704 1910.364c28.803-73.57 69.186-137.335 121.073-191.291 51.886-53.957 114.467-96.034 187.776-126.304 73.277-30.229 155.238-45.371 245.843-45.371 116.938 0 214.536 15.939 292.78 47.824 78.222 31.88 141.225 71.544 189.021 118.946 47.755 47.438 81.914 98.518 102.528 153.28 20.587 54.798 30.888 105.875 30.888 153.277 0 78.479-10.301 143.084-30.888 193.744-20.612 50.698-46.129 94.035-76.591 129.985-30.493 35.98-64.238 66.635-101.301 91.962-37.063 25.362-72.077 50.699-105.014 76.028-32.966 25.373-62.183 54.373-87.699 87.066-25.566 32.715-41.624 81.652-48.194 130.701v99.201h-321.55v-116.354c4.945-70.288 18.534-137.229 40.773-184.668 22.237-47.405 48.181-87.872 77.827-121.404 29.649-33.492 48.914-62.535 81.893-87.061 32.927-24.525 63.39-49.052 91.416-73.576 27.987-24.525 50.646-51.506 67.944-80.93 17.294-29.431 25.095-66.222 23.472-110.363 0-75.188-18.527-130.784-55.587-166.774-37.062-35.944-88.561-53.952-154.422-53.952-44.475 0-61.775 8.582-93.883 25.753-32.125 17.164-58.495 40.083-79.07 68.667-20.612 28.629-35.826 62.157-45.709 100.551-9.889 38.437-14.823 115.961-14.823 160.107H1166c1.616-88.281 16.869-205.467 45.704-279.044zM1614 2956h384v320h-384z"/></svg>