<?xml version="1.0" encoding="utf-8"?>
<!-- Generated by IcoMoon.io -->
<!DOCTYPE svg PUBLIC "-//W3C//DTD SVG 1.1//EN" "http://www.w3.org/Graphics/SVG/1.1/DTD/svg11.dtd">
<svg version="1.1" xmlns="http://www.w3.org/2000/svg" xmlns:xlink="http://www.w3.org/1999/xlink" width="32" height="32" viewBox="0 0 32 32">
<path fill="#444" d="M27.198 19.475c0 0-0.221 0.224-0.509 0.397 1.102-1.632 0.969-1.611 1.495-3.388 0.696 0.018 2.794-0.605 2.852-3.306 0 0-0.209-2.867 0.157-3.263 0 0-2.095 0.082-2.828 3.702-0.012-0.203-0.030-0.403-0.051-0.599-0.033-0.466-0.103-0.842-0.215-1.214-0.121-0.515-0.276-1.005-0.454-1.474 0.633-0.357 2.274-1.813 0.675-4.52 0 0-0.457-0.772-0.409-1.368 0 0-2.089 1.387-1.541 3.366-0.684-1.078-1.384-1.886-1.816-2.343-0.076-0.851-0.696-4.211-5.691-3.294 0 0 0.754 4.266 5.277 3.563 0.457 0.609 0.854 1.202 1.199 1.777-0.817-0.717-1.965-1.017-3.59 0.018 0 0 0.714 0.484 1.441 2.062 0 0 0.693 1.977 3.612 1.102 0.26 0.811 0.418 1.574 0.5 2.289-0.433-0.775-1.468-1.683-3.651-0.848 0 0 0.5 0.705 0.678 1.904 0 0 0.569 2.298 2.767 2.395-0.33 1.347-0.878 2.289-1.193 2.749 0.039-0.863-0.248-2.425-2.591-3.212 0 0 0.203 0.784-0.324 1.668 0 0-1.414 2.331 0.651 4.477-0.675 0.739-1.384 1.402-2.107 1.998 0.263-0.736 0.342-1.989-0.621-4.066 0 0 0.097 0.624-0.932 0.935 0 0-3.173 0.996-1.308 5.113-0.929 0.539-1.853 0.987-2.743 1.359-0.86-0.363-1.75-0.796-2.646-1.314 1.904-4.154-1.29-5.156-1.29-5.156-1.026-0.312-0.932-0.935-0.932-0.935-1.005 2.168-0.878 3.439-0.587 4.16-0.748-0.608-1.48-1.29-2.177-2.056 2.119-2.155 0.687-4.514 0.687-4.514-0.524-0.887-0.324-1.668-0.324-1.668-2.434 0.817-2.652 2.473-2.585 3.312-0.306-0.436-0.899-1.414-1.244-2.846 2.234-0.064 2.812-2.398 2.812-2.398 0.179-1.199 0.678-1.904 0.678-1.904-2.261-0.866-3.291 0.139-3.696 0.932 0.079-0.742 0.242-1.535 0.518-2.383 2.94 0.896 3.639-1.093 3.639-1.093 0.727-1.577 1.441-2.062 1.441-2.062-1.65-1.054-2.812-0.727-3.63 0.018 0.351-0.59 0.76-1.196 1.229-1.816 4.541 0.708 5.295-3.563 5.295-3.563-4.977-0.914-5.61 2.419-5.691 3.285-0.418 0.436-1.114 1.232-1.804 2.301 0.5-1.953-1.553-3.318-1.553-3.318 0.048 0.596-0.409 1.368-0.409 1.368-1.58 2.673 0.006 4.129 0.654 4.508-0.369 0.963-0.642 2.025-0.727 3.167-0.76-3.488-2.8-3.566-2.8-3.566 0.366 0.394 0.157 3.263 0.157 3.263 0.058 2.7 2.159 3.324 2.852 3.306 0.457 1.541 0.418 1.732 1.117 2.815 0.097 0.176 0.197 0.351 0.306 0.527-0.251-0.163-0.436-0.351-0.436-0.351-1.989-2.44-4.214-2.013-4.214-2.013 0.327 0.627 0.524 1.853 0.524 1.853 0.418 2.034 1.72 3.039 1.72 3.039 1.447 1.229 3.833 0.642 4.535 0.339 0.509 0.569 1.117 1.187 1.825 1.816-0.714-0.288-1.568-0.445-2.316-0.076-0.045 0.024-1.456 0.675-3.327 0.136 0 0 2.906 4.708 9.003 2.398 0.608 0.363 1.259 0.711 1.95 1.032-3.267 1.126-5.761 1.235-5.761 1.235l1.159 0.714c2.261-0.185 4.272-0.672 6.049-1.338 1.795 0.681 3.836 1.181 6.133 1.371l1.159-0.714c0 0-2.537-0.109-5.843-1.262 0.276-0.127 0.545-0.257 0.805-0.391 0.427-0.203 0.842-0.421 1.232-0.657 6.118 2.337 9.034-2.386 9.034-2.386-1.871 0.539-3.282-0.115-3.327-0.136-0.802-0.394-1.72-0.191-2.464 0.136 0.751-0.657 1.39-1.308 1.922-1.901 0.636 0.294 3.103 0.942 4.586-0.318 0 0 1.302-1.005 1.72-3.039 0 0 0.197-1.226 0.524-1.853 0.003 0-2.225-0.427-4.211 2.013z"></path>
</svg>
