<svg xmlns="http://www.w3.org/2000/svg" width="2048" height="2048" viewBox="718 1420 2048 2048"><path d="M2466.389 2694.958s-30.812 35.365-70.184 76.109c87.63-111.635 135.377-220.43 154.747-324.061 46.171 1.107 185.08-9.966 188.845-183.126 0 0-13.963-184.005 10.35-209.336 0 0-162.561 15.389-188.812 285.395.695-98.275-22.406-190.693-58.891-274.907 35.739-16.1 168.86-90.943 57.05-273.913 0 0-30.282-49.553-26.966-87.803 0 0-138.777 82.24-93.768 213.691 0 0 18.375 35.713 37.978 94.001-46.8-90.201-107.267-169.416-166.406-234.61-2.089-37.925-29.056-280.74-378.354-218.756 0 0 51.544 282.483 364.755 226.292 51.744 63.833 103.752 140.479 143.438 226.83-52.571-83.791-161.646-204.787-316.71-109.073 0 0 47.53 30.983 95.725 132.226 0 0 42.522 114.448 249.328 46.634 30.78 86.734 47.349 181.485 38.956 281.603-9.934-56.176-58.095-238.957-257.735-165.035 0 0 33.234 45.198 44.976 122.137 0 0 40.931 129.494 200.354 124.812-20.563 93.455-64.396 190.767-139.323 289.873 29.933-78.912 58.261-230.061-128.628-290.752 0 0 13.5 50.221-21.328 107.059 0 0-82.87 137.566 69.621 277.873-59.422 62.275-132.127 125.043-219.742 187.742 42.838-58.197 83.834-161.805 12.273-311.053 0 0 6.269 39.963-61.728 59.992 0 0-215.687 65.537-82.224 337.967-38.51 23.455-97.368 53.891-182.726 85.631-85.368-31.74-144.234-62.176-182.768-85.631 133.562-272.43-82.15-337.967-82.15-337.967-68.136-20.029-61.793-59.992-61.793-59.992-71.503 149.082-30.623 252.658 12.19 310.889-87.541-62.668-160.179-125.367-219.56-187.609 152.459-140.275 69.587-277.842 69.587-277.842-34.818-56.838-21.443-107.059-21.443-107.059-186.623 60.612-158.554 211.514-128.66 290.493-74.82-99.01-118.603-196.225-139.168-289.613 159.292 4.664 200.289-124.812 200.289-124.812 11.808-76.939 45.009-122.137 45.009-122.137-199.251-73.76-247.661 108.093-257.745 164.693-8.325-99.988 8.243-194.625 38.974-281.252 206.839 67.805 249.303-46.643 249.303-46.643 48.252-101.243 95.683-132.226 95.683-132.226-154.922-95.664-263.98 25.152-316.595 108.942 39.687-86.301 91.663-162.907 143.388-226.709 313.203 56.242 364.747-226.282 364.747-226.282-348.883-61.926-376.139 180.352-378.279 218.642-59.165 65.203-119.672 144.45-166.49 234.691 19.553-58.271 37.962-93.968 37.962-93.968 45.059-131.452-93.676-213.691-93.676-213.691 3.25 38.25-27.05 87.803-27.05 87.803-111.835 182.904 21.229 257.755 57.042 273.896-36.376 83.921-59.454 175.998-58.932 273.896-26.585-269.019-188.73-284.367-188.73-284.367 24.28 25.331 10.349 209.336 10.349 209.336 3.773 173.209 142.675 184.251 188.796 183.126 19.354 103.566 67.051 212.297 154.582 323.865-39.297-40.682-70.026-75.914-70.026-75.914C884.215 2538.503 718 2538.927 718 2538.927c21.684 40.256 34.76 118.844 34.76 118.844 27.646 130.488 114.034 195.016 114.034 195.016 100.004 82.141 251.907 18.299 290.516-.1 63.103 66.225 140.883 133.197 235.455 200.465-51.858-30.699-184.791-101.357-257.571-66.682-3.084 1.502-96.628 43.389-220.737 8.811 0 0 193.563 303.189 599.48 153.16 44.471 26.066 93.395 48.738 144.068 68.41-98.311 30.924-222.976 61.393-379.665 86.219l55.408 35.916c77.863-14.287 243.582-39.992 407.51-92.711 163.935 52.719 329.662 78.424 407.441 92.711l55.524-35.916c-156.704-24.826-281.384-55.295-379.713-86.219 50.647-19.672 99.556-42.312 144.001-68.377 406.034 149.996 599.605-153.193 599.605-153.193-124.184 34.578-217.718-7.309-220.771-8.811-72.655-34.611-205.196 35.658-257.321 66.484 94.447-67.234 172.145-134.143 235.181-200.332 38.493 18.398 190.472 82.371 290.508.164 0 0 86.404-64.527 114.099-195.016 0 0 13.037-78.588 34.762-118.844 0 .001-166.24-.423-298.185 156.032z"/></svg>