<?xml version="1.0" encoding="utf-8"?>
<!-- Generator: Adobe Illustrator 17.1.0, SVG Export Plug-In . SVG Version: 6.00 Build 0)  -->
<!DOCTYPE svg PUBLIC "-//W3C//DTD SVG 1.1//EN" "http://www.w3.org/Graphics/SVG/1.1/DTD/svg11.dtd">
<svg version="1.1" id="Layer_1" xmlns="http://www.w3.org/2000/svg" xmlns:xlink="http://www.w3.org/1999/xlink" x="0px" y="0px"
	 viewBox="0 0 612 792" enable-background="new 0 0 612 792" xml:space="preserve">
<g>
	<line opacity="0.3" fill="none" stroke="#449FDB" enable-background="new    " x1="9.6" y1="90" x2="9.6" y2="702"/>
	<line fill="none" stroke="#449FDB" x1="19.1" y1="90" x2="19.1" y2="702"/>
	<line opacity="0.3" fill="none" stroke="#449FDB" enable-background="new    " x1="28.7" y1="90" x2="28.7" y2="702"/>
	<line fill="none" stroke="#449FDB" x1="38.2" y1="90" x2="38.2" y2="702"/>
	<line opacity="0.3" fill="none" stroke="#449FDB" enable-background="new    " x1="47.8" y1="90" x2="47.8" y2="702"/>
	<line fill="none" stroke="#449FDB" x1="57.4" y1="90" x2="57.4" y2="702"/>
	<line opacity="0.3" fill="none" stroke="#449FDB" enable-background="new    " x1="66.9" y1="90" x2="66.9" y2="702"/>
	<line fill="none" stroke="#449FDB" x1="76.5" y1="90" x2="76.5" y2="702"/>
	<line opacity="0.3" fill="none" stroke="#449FDB" enable-background="new    " x1="86.1" y1="90" x2="86.1" y2="702"/>
	<line fill="none" stroke="#449FDB" x1="95.6" y1="90" x2="95.6" y2="702"/>
	<line opacity="0.3" fill="none" stroke="#449FDB" enable-background="new    " x1="105.2" y1="90" x2="105.2" y2="702"/>
	<line fill="none" stroke="#449FDB" x1="114.8" y1="90" x2="114.8" y2="702"/>
	<line opacity="0.3" fill="none" stroke="#449FDB" enable-background="new    " x1="124.3" y1="90" x2="124.3" y2="702"/>
	<line fill="none" stroke="#449FDB" x1="133.9" y1="90" x2="133.9" y2="702"/>
	<line opacity="0.3" fill="none" stroke="#449FDB" enable-background="new    " x1="143.4" y1="90" x2="143.4" y2="702"/>
	<line fill="none" stroke="#449FDB" x1="153" y1="90" x2="153" y2="702"/>
	<line opacity="0.3" fill="none" stroke="#449FDB" enable-background="new    " x1="162.6" y1="90" x2="162.6" y2="702"/>
	<line fill="none" stroke="#449FDB" x1="172.1" y1="90" x2="172.1" y2="702"/>
	<line opacity="0.3" fill="none" stroke="#449FDB" enable-background="new    " x1="181.7" y1="90" x2="181.7" y2="702"/>
	<line fill="none" stroke="#449FDB" x1="191.2" y1="90" x2="191.2" y2="702"/>
	<line opacity="0.3" fill="none" stroke="#449FDB" enable-background="new    " x1="200.8" y1="90" x2="200.8" y2="702"/>
	<line fill="none" stroke="#449FDB" x1="210.4" y1="90" x2="210.4" y2="702"/>
	<line opacity="0.3" fill="none" stroke="#449FDB" enable-background="new    " x1="219.9" y1="90" x2="219.9" y2="702"/>
	<line fill="none" stroke="#449FDB" x1="229.5" y1="90" x2="229.5" y2="702"/>
	<line opacity="0.3" fill="none" stroke="#449FDB" enable-background="new    " x1="239.1" y1="90" x2="239.1" y2="702"/>
	<line fill="none" stroke="#449FDB" x1="248.6" y1="90" x2="248.6" y2="702"/>
	<line opacity="0.3" fill="none" stroke="#449FDB" enable-background="new    " x1="258.2" y1="90" x2="258.2" y2="702"/>
	<line fill="none" stroke="#449FDB" x1="267.8" y1="90" x2="267.8" y2="702"/>
	<line opacity="0.3" fill="none" stroke="#449FDB" enable-background="new    " x1="277.3" y1="90" x2="277.3" y2="702"/>
	<line fill="none" stroke="#449FDB" x1="286.9" y1="90" x2="286.9" y2="702"/>
	<line opacity="0.3" fill="none" stroke="#449FDB" enable-background="new    " x1="296.4" y1="90" x2="296.4" y2="702"/>
	<line fill="none" stroke="#449FDB" x1="306" y1="90" x2="306" y2="702"/>
	<line opacity="0.3" fill="none" stroke="#449FDB" enable-background="new    " x1="315.6" y1="90" x2="315.6" y2="702"/>
	<line fill="none" stroke="#449FDB" x1="325.1" y1="90" x2="325.1" y2="702"/>
	<line opacity="0.3" fill="none" stroke="#449FDB" enable-background="new    " x1="334.7" y1="90" x2="334.7" y2="702"/>
	<line fill="none" stroke="#449FDB" x1="344.2" y1="90" x2="344.2" y2="702"/>
	<line opacity="0.3" fill="none" stroke="#449FDB" enable-background="new    " x1="353.8" y1="90" x2="353.8" y2="702"/>
	<line fill="none" stroke="#449FDB" x1="363.4" y1="90" x2="363.4" y2="702"/>
	<line opacity="0.3" fill="none" stroke="#449FDB" enable-background="new    " x1="372.9" y1="90" x2="372.9" y2="702"/>
	<line fill="none" stroke="#449FDB" x1="382.5" y1="90" x2="382.5" y2="702"/>
	<line opacity="0.3" fill="none" stroke="#449FDB" enable-background="new    " x1="392.1" y1="90" x2="392.1" y2="702"/>
	<line fill="none" stroke="#449FDB" x1="401.6" y1="90" x2="401.6" y2="702"/>
	<line opacity="0.3" fill="none" stroke="#449FDB" enable-background="new    " x1="411.2" y1="90" x2="411.2" y2="702"/>
	<line fill="none" stroke="#449FDB" x1="420.8" y1="90" x2="420.8" y2="702"/>
	<line opacity="0.3" fill="none" stroke="#449FDB" enable-background="new    " x1="430.3" y1="90" x2="430.3" y2="702"/>
	<line fill="none" stroke="#449FDB" x1="439.9" y1="90" x2="439.9" y2="702"/>
	<line opacity="0.3" fill="none" stroke="#449FDB" enable-background="new    " x1="449.4" y1="90" x2="449.4" y2="702"/>
	<line fill="none" stroke="#449FDB" x1="459" y1="90" x2="459" y2="702"/>
	<line opacity="0.3" fill="none" stroke="#449FDB" enable-background="new    " x1="468.6" y1="90" x2="468.6" y2="702"/>
	<line fill="none" stroke="#449FDB" x1="478.1" y1="90" x2="478.1" y2="702"/>
	<line opacity="0.3" fill="none" stroke="#449FDB" enable-background="new    " x1="487.7" y1="90" x2="487.7" y2="702"/>
	<line fill="none" stroke="#449FDB" x1="497.2" y1="90" x2="497.2" y2="702"/>
	<line opacity="0.3" fill="none" stroke="#449FDB" enable-background="new    " x1="506.8" y1="90" x2="506.8" y2="702"/>
	<line fill="none" stroke="#449FDB" x1="516.4" y1="90" x2="516.4" y2="702"/>
	<line opacity="0.3" fill="none" stroke="#449FDB" enable-background="new    " x1="525.9" y1="90" x2="525.9" y2="702"/>
	<line fill="none" stroke="#449FDB" x1="535.5" y1="90" x2="535.5" y2="702"/>
	<line opacity="0.3" fill="none" stroke="#449FDB" enable-background="new    " x1="545.1" y1="90" x2="545.1" y2="702"/>
	<line fill="none" stroke="#449FDB" x1="554.6" y1="90" x2="554.6" y2="702"/>
	<line opacity="0.3" fill="none" stroke="#449FDB" enable-background="new    " x1="564.2" y1="90" x2="564.2" y2="702"/>
	<line fill="none" stroke="#449FDB" x1="573.8" y1="90" x2="573.8" y2="702"/>
	<line opacity="0.3" fill="none" stroke="#449FDB" enable-background="new    " x1="583.3" y1="90" x2="583.3" y2="702"/>
	<line fill="none" stroke="#449FDB" x1="592.9" y1="90" x2="592.9" y2="702"/>
	<line opacity="0.3" fill="none" stroke="#449FDB" enable-background="new    " x1="602.4" y1="90" x2="602.4" y2="702"/>
	<line opacity="0.3" fill="none" stroke="#449FDB" enable-background="new    " x1="0" y1="99.6" x2="612" y2="99.6"/>
	<line fill="none" stroke="#449FDB" x1="0" y1="109.1" x2="612" y2="109.1"/>
	<line opacity="0.3" fill="none" stroke="#449FDB" enable-background="new    " x1="0" y1="118.7" x2="612" y2="118.7"/>
	<line fill="none" stroke="#449FDB" x1="0" y1="128.2" x2="612" y2="128.2"/>
	<line opacity="0.3" fill="none" stroke="#449FDB" enable-background="new    " x1="0" y1="137.8" x2="612" y2="137.8"/>
	<line fill="none" stroke="#449FDB" x1="0" y1="147.4" x2="612" y2="147.4"/>
	<line opacity="0.3" fill="none" stroke="#449FDB" enable-background="new    " x1="0" y1="156.9" x2="612" y2="156.9"/>
	<line fill="none" stroke="#449FDB" x1="0" y1="166.5" x2="612" y2="166.5"/>
	<line opacity="0.3" fill="none" stroke="#449FDB" enable-background="new    " x1="0" y1="176.1" x2="612" y2="176.1"/>
	<line fill="none" stroke="#449FDB" x1="0" y1="185.6" x2="612" y2="185.6"/>
	<line opacity="0.3" fill="none" stroke="#449FDB" enable-background="new    " x1="0" y1="195.2" x2="612" y2="195.2"/>
	<line fill="none" stroke="#449FDB" x1="0" y1="204.8" x2="612" y2="204.8"/>
	<line opacity="0.3" fill="none" stroke="#449FDB" enable-background="new    " x1="0" y1="214.3" x2="612" y2="214.3"/>
	<line fill="none" stroke="#449FDB" x1="0" y1="223.9" x2="612" y2="223.9"/>
	<line opacity="0.3" fill="none" stroke="#449FDB" enable-background="new    " x1="0" y1="233.4" x2="612" y2="233.4"/>
	<line fill="none" stroke="#449FDB" x1="0" y1="243" x2="612" y2="243"/>
	<line opacity="0.3" fill="none" stroke="#449FDB" enable-background="new    " x1="0" y1="252.6" x2="612" y2="252.6"/>
	<line fill="none" stroke="#449FDB" x1="0" y1="262.1" x2="612" y2="262.1"/>
	<line opacity="0.3" fill="none" stroke="#449FDB" enable-background="new    " x1="0" y1="271.7" x2="612" y2="271.7"/>
	<line fill="none" stroke="#449FDB" x1="0" y1="281.2" x2="612" y2="281.2"/>
	<line opacity="0.3" fill="none" stroke="#449FDB" enable-background="new    " x1="0" y1="290.8" x2="612" y2="290.8"/>
	<line fill="none" stroke="#449FDB" x1="0" y1="300.4" x2="612" y2="300.4"/>
	<line opacity="0.3" fill="none" stroke="#449FDB" enable-background="new    " x1="0" y1="309.9" x2="612" y2="309.9"/>
	<line fill="none" stroke="#449FDB" x1="0" y1="319.5" x2="612" y2="319.5"/>
	<line opacity="0.3" fill="none" stroke="#449FDB" enable-background="new    " x1="0" y1="329.1" x2="612" y2="329.1"/>
	<line fill="none" stroke="#449FDB" x1="0" y1="338.6" x2="612" y2="338.6"/>
	<line opacity="0.3" fill="none" stroke="#449FDB" enable-background="new    " x1="0" y1="348.2" x2="612" y2="348.2"/>
	<line fill="none" stroke="#449FDB" x1="0" y1="357.8" x2="612" y2="357.8"/>
	<line opacity="0.3" fill="none" stroke="#449FDB" enable-background="new    " x1="0" y1="367.3" x2="612" y2="367.3"/>
	<line fill="none" stroke="#449FDB" x1="0" y1="376.9" x2="612" y2="376.9"/>
	<line opacity="0.3" fill="none" stroke="#449FDB" enable-background="new    " x1="0" y1="386.4" x2="612" y2="386.4"/>
	<line fill="none" stroke="#449FDB" x1="0" y1="396" x2="612" y2="396"/>
	<line opacity="0.3" fill="none" stroke="#449FDB" enable-background="new    " x1="0" y1="405.6" x2="612" y2="405.6"/>
	<line fill="none" stroke="#449FDB" x1="0" y1="415.1" x2="612" y2="415.1"/>
	<line opacity="0.3" fill="none" stroke="#449FDB" enable-background="new    " x1="0" y1="424.7" x2="612" y2="424.7"/>
	<line fill="none" stroke="#449FDB" x1="0" y1="434.2" x2="612" y2="434.2"/>
	<line opacity="0.3" fill="none" stroke="#449FDB" enable-background="new    " x1="0" y1="443.8" x2="612" y2="443.8"/>
	<line fill="none" stroke="#449FDB" x1="0" y1="453.4" x2="612" y2="453.4"/>
	<line opacity="0.3" fill="none" stroke="#449FDB" enable-background="new    " x1="0" y1="462.9" x2="612" y2="462.9"/>
	<line fill="none" stroke="#449FDB" x1="0" y1="472.5" x2="612" y2="472.5"/>
	<line opacity="0.3" fill="none" stroke="#449FDB" enable-background="new    " x1="0" y1="482.1" x2="612" y2="482.1"/>
	<line fill="none" stroke="#449FDB" x1="0" y1="491.6" x2="612" y2="491.6"/>
	<line opacity="0.3" fill="none" stroke="#449FDB" enable-background="new    " x1="0" y1="501.2" x2="612" y2="501.2"/>
	<line fill="none" stroke="#449FDB" x1="0" y1="510.8" x2="612" y2="510.8"/>
	<line opacity="0.3" fill="none" stroke="#449FDB" enable-background="new    " x1="0" y1="520.3" x2="612" y2="520.3"/>
	<line fill="none" stroke="#449FDB" x1="0" y1="529.9" x2="612" y2="529.9"/>
	<line opacity="0.3" fill="none" stroke="#449FDB" enable-background="new    " x1="0" y1="539.4" x2="612" y2="539.4"/>
	<line fill="none" stroke="#449FDB" x1="0" y1="549" x2="612" y2="549"/>
	<line opacity="0.3" fill="none" stroke="#449FDB" enable-background="new    " x1="0" y1="558.6" x2="612" y2="558.6"/>
	<line fill="none" stroke="#449FDB" x1="0" y1="568.1" x2="612" y2="568.1"/>
	<line opacity="0.3" fill="none" stroke="#449FDB" enable-background="new    " x1="0" y1="577.7" x2="612" y2="577.7"/>
	<line fill="none" stroke="#449FDB" x1="0" y1="587.2" x2="612" y2="587.2"/>
	<line opacity="0.3" fill="none" stroke="#449FDB" enable-background="new    " x1="0" y1="596.8" x2="612" y2="596.8"/>
	<line fill="none" stroke="#449FDB" x1="0" y1="606.4" x2="612" y2="606.4"/>
	<line opacity="0.3" fill="none" stroke="#449FDB" enable-background="new    " x1="0" y1="615.9" x2="612" y2="615.9"/>
	<line fill="none" stroke="#449FDB" x1="0" y1="625.5" x2="612" y2="625.5"/>
	<line opacity="0.3" fill="none" stroke="#449FDB" enable-background="new    " x1="0" y1="635.1" x2="612" y2="635.1"/>
	<line fill="none" stroke="#449FDB" x1="0" y1="644.6" x2="612" y2="644.6"/>
	<line opacity="0.3" fill="none" stroke="#449FDB" enable-background="new    " x1="0" y1="654.2" x2="612" y2="654.2"/>
	<line fill="none" stroke="#449FDB" x1="0" y1="663.8" x2="612" y2="663.8"/>
	<line opacity="0.3" fill="none" stroke="#449FDB" enable-background="new    " x1="0" y1="673.3" x2="612" y2="673.3"/>
	<line fill="none" stroke="#449FDB" x1="0" y1="682.9" x2="612" y2="682.9"/>
	<line opacity="0.3" fill="none" stroke="#449FDB" enable-background="new    " x1="0" y1="692.4" x2="612" y2="692.4"/>
</g>
<g>
	<path d="M191.2,395.9c0-63.2,51.4-114.4,114.8-114.4c15.1,0,29.4,2.9,42.6,8.1l32.5-32.5C218,194.5,96,357,86,370.8
		c-5.9,6.7-9.6,15.5-9.6,25.2c0,9.3,3.3,17.9,8.9,24.4h-0.1c0,0,24,34.1,65.3,67.1l48.8-48.8C194.2,425.5,191.2,411.1,191.2,395.9z"
		/>
	<path d="M535.4,395.9c0-9.4-3.4-18-9.1-24.7l0,0c-22.9-27.7-45.5-50.1-67.5-68l-47.5,47.5c6,13.9,9.3,29.2,9.3,45.2
		c0,63.2-51.4,114.4-114.8,114.4c-16,0-31.2-3.3-45-9.1l-32.1,32.1C308,563.6,413,556.7,526.4,420.8h-0.2
		C532,414.2,535.4,405.4,535.4,395.9L535.4,395.9z"/>
	<path d="M248.9,389.3l50.2-50.2C272.8,342.2,252,363.1,248.9,389.3z"/>
	<path d="M363.3,398.8L309,453.1C338.4,451.6,361.9,428.1,363.3,398.8z"/>
	<rect x="281.1" y="164" transform="matrix(-0.7071 -0.7071 0.7071 -0.7071 241.8065 890.0172)" width="48.2" height="461.9"/>
</g>
</svg>
