<?xml version="1.0" encoding="utf-8"?>
<!-- Generator: Adobe Illustrator 19.2.1, SVG Export Plug-In . SVG Version: 6.00 Build 0)  -->
<svg version="1.1" id="Layer_1" xmlns="http://www.w3.org/2000/svg" xmlns:xlink="http://www.w3.org/1999/xlink" x="0px" y="0px"
	 viewBox="0 0 612 792" style="enable-background:new 0 0 612 792;" xml:space="preserve">
<path d="M191.2,395.9c0-63.2,51.4-114.4,114.8-114.4c15.1,0,29.4,2.9,42.6,8.1l32.5-32.5C218,194.5,96,357,86,370.8
	c-5.9,6.7-9.6,15.5-9.6,25.2c0,9.3,3.3,17.9,8.9,24.4h-0.1c0,0,24,34.1,65.3,67.1l48.8-48.8C194.2,425.5,191.2,411.1,191.2,395.9
	L191.2,395.9z M535.4,395.9c0-9.4-3.4-18-9.1-24.7c-22.9-27.7-45.5-50.1-67.5-68l-47.5,47.5c6,13.9,9.3,29.2,9.3,45.2
	c0,63.2-51.4,114.4-114.8,114.4c-16,0-31.2-3.3-45-9.1l-32.1,32.1C308,563.6,413,556.7,526.4,420.8h-0.2
	C532,414.2,535.4,405.4,535.4,395.9z"/>
<path d="M248.9,389.3l50.2-50.2C272.8,342.2,252,363.1,248.9,389.3L248.9,389.3z M363.3,398.8L309,453.1
	C338.4,451.6,361.9,428.1,363.3,398.8L363.3,398.8z M159,575.3l-34.1-34.1l326.6-326.6l34.1,34.1L159,575.3z"/>
</svg>
