<?xml version="1.0" encoding="utf-8"?>
<!-- Generated by IcoMoon.io -->
<!DOCTYPE svg PUBLIC "-//W3C//DTD SVG 1.1//EN" "http://www.w3.org/Graphics/SVG/1.1/DTD/svg11.dtd">
<svg version="1.1" xmlns="http://www.w3.org/2000/svg" xmlns:xlink="http://www.w3.org/1999/xlink" width="32" height="32" viewBox="0 0 32 32">
<path fill="#444" d="M28.019 0.753c0-0.407-0.455-0.737-0.862-0.737h-4.388c-0.408 0-0.737 0.33-0.737 0.737v3.293l5.988 5.985v-9.278z"></path>
<path fill="#444" d="M28.889 13.818l-10.915-10.811c-0.714-0.678-1.359-0.928-1.915-0.96v-0.006c-0.001-0-0.002-0-0.003-0v0.002c-0.003 0-0.005 0-0.008 0v0c-0.013 0-0.026 0.001-0.039 0.002s-0.026-0.001-0.039-0.002v-0c-0.003 0-0.005-0-0.008-0v-0.002c-0.001 0-0.002 0-0.003 0v0.006c-0.555 0.032-1.2 0.283-1.915 0.96l-10.915 10.811c0 0-1.101 0.917-1.101 2.521 0 2.272 1.986 2.84 1.986 2.84v9.536c0 0-0.005 3.293 3.286 3.293h4.708v-9.011c0 0-0.135-0.996 1.018-0.996h5.966c1.153 0 1.018 0.996 1.018 0.996v9.011h4.708c3.29 0 3.285-3.293 3.285-3.293v-9.536c0 0 1.986-0.568 1.986-2.84-0-1.604-1.101-2.521-1.101-2.521z"></path>
</svg>
