<svg xmlns="http://www.w3.org/2000/svg" width="2048" height="2048" viewBox="0 0 2048 2048"><path fill="none" stroke="#FF985F" stroke-width="2" d="M384 384h1280v1280H384z"/><path d="M1793.201 48.191c0-26.06-29.108-47.191-55.186-47.191h-280.85c-26.083 0-47.195 21.132-47.195 47.191v210.746l383.23 383.047V48.191zM1848.88 884.369l-698.568-691.931c-45.715-43.363-87.006-59.401-122.54-61.465v-.401c-.07-.003-.141-.008-.215-.008v.138c-.168 0-.34.016-.504.019v.008c-.832.013-1.688.077-2.522.104-.836-.027-1.691-.091-2.523-.104v-.008c-.168 0-.34-.016-.504-.019v-.138c-.072 0-.145.005-.212.008v.401c-35.535 2.064-76.822 18.103-122.543 61.465l-698.57 691.931s-70.431 58.698-70.431 161.33c0 145.39 127.109 181.744 127.109 181.744v610.312s-.289 210.742 210.277 210.742h301.31v-576.681s-8.643-63.738 65.171-63.738h381.84c73.802 0 65.168 63.738 65.168 63.738V2048.5h301.305c210.566 0 210.272-210.742 210.272-210.742V1227.45s127.114-36.358 127.114-181.748c-.003-102.635-70.434-161.333-70.434-161.333z"/></svg>