<?xml version="1.0" encoding="utf-8"?>
<!-- Generator: Adobe Illustrator 14.0.0, SVG Export Plug-In . SVG Version: 6.00 Build 43363)  -->
<!DOCTYPE svg PUBLIC "-//W3C//DTD SVG 1.1//EN" "http://www.w3.org/Graphics/SVG/1.1/DTD/svg11.dtd">
<svg version="1.1" id="Layer_1" xmlns="http://www.w3.org/2000/svg" xmlns:xlink="http://www.w3.org/1999/xlink" x="0px" y="0px"
	 width="2048px" height="2048px" viewBox="718 1420 2048 2048" enable-background="new 718 1420 2048 2048" xml:space="preserve">
<path display="none" d="M1550.334,2635.999L1294,2444l0,0l256.335-191.602V2316L1358,2444.505L1550.335,2572L1550.334,2635.999
	L1550.334,2635.999z"/>
<path display="none" d="M1614.472,2700L1742,2188h128l-128,512H1614.472z"/>
<path display="none" d="M1933.537,2638.153V2508L2126,2444l-192.463-64v-128l320.439,128v128L1933.537,2638.153z"/>
<path d="M2242.209,2409.113l-243.73-148.06c-17.859-14.583-43.641-11.165-57.535,7.499c-13.895,18.579-10.652,45.327,7.207,59.825
	l204.211,116.149l-205.852,117.897c-17.141,15.416-19.02,42.326-4.246,60.157c8.129,9.832,19.539,14.831,31.07,14.831
	c9.488,0,19.059-3.414,26.785-10.413l243.691-151.896c9.332-8.413,14.496-20.664,14.176-33.41
	C2257.705,2428.943,2251.861,2416.945,2242.209,2409.113z"/>
<path d="M1332.675,2443.526l203.211-115.149c17.859-14.498,21.102-41.246,7.207-59.825c-13.934-18.664-39.719-22.082-57.535-7.499
	l-242.73,147.06c-9.652,7.832-15.496,19.83-15.816,32.58c-0.281,12.746,4.883,24.997,14.172,33.41l242.734,152.896
	c7.727,6.999,17.297,10.413,26.785,10.413c11.492,0,22.941-4.999,31.07-14.831c14.773-17.831,12.895-44.741-4.246-60.157
	L1332.675,2443.526z"/>
<path d="M1641.987,2762.248c-21.749-7.049-33.667-30.396-26.618-52.144l176.149-557.571c7.048-21.749,30.395-33.666,52.142-26.617
	l0,0c21.75,7.048,33.668,30.394,26.619,52.143l-176.149,557.569C1687.082,2757.378,1663.737,2769.296,1641.987,2762.248
	L1641.987,2762.248z"/>
</svg>
