<svg xmlns="http://www.w3.org/2000/svg" width="2048" height="2048" viewBox="718 1420 2048 2048"><path d="M2242.209 2409.113l-243.73-148.06c-17.859-14.583-43.641-11.165-57.535 7.499-13.895 18.579-10.652 45.327 7.207 59.825l204.211 116.149-205.852 117.897c-17.141 15.416-19.02 42.326-4.246 60.157 8.129 9.832 19.539 14.831 31.07 14.831 9.488 0 19.059-3.414 26.785-10.413l243.691-151.896c9.332-8.413 14.496-20.664 14.176-33.41-.281-12.749-6.125-24.747-15.777-32.579zM1332.675 2443.526l203.211-115.149c17.859-14.498 21.102-41.246 7.207-59.825-13.934-18.664-39.719-22.082-57.535-7.499l-242.73 147.06c-9.652 7.832-15.496 19.83-15.816 32.58-.281 12.746 4.883 24.997 14.172 33.41l242.734 152.896c7.727 6.999 17.297 10.413 26.785 10.413 11.492 0 22.941-4.999 31.07-14.831 14.773-17.831 12.895-44.741-4.246-60.157l-204.852-118.898zM1641.987 2762.248c-21.749-7.049-33.667-30.396-26.618-52.144l176.149-557.571c7.048-21.749 30.395-33.666 52.142-26.617 21.75 7.048 33.668 30.394 26.619 52.143l-176.149 557.569c-7.048 21.75-30.393 33.668-52.143 26.62z"/></svg>