<svg xmlns="http://www.w3.org/2000/svg" viewBox="0 0 2048 2048"><path d="M1207.7 932.1l4.4 6.5 4.4 15.2 271.6-32.5c26.5-4.3 50.8-8.7 72.9-19.5 55.2-23.8 88.3-54.1 103.8-93.1l4.4-21.6-8.8-28.2c-13.2-26-39.8-43.3-77.3-47.6-39.8-4.3-77.3 0-117.1 17.3l-26.5 10.8-223 181.9-8.8 10.8zM721.8 609.5l196.5 210 33.1-10.8-44.2-255.5c-4.4-26-15.5-47.6-26.5-69.3-26.5-54.1-59.6-82.3-99.4-93.1-17.7-8.7-37.6-8.7-50.8 2.2-26.5 15.1-42 41.1-44.2 80.1-4.4 39 6.6 75.8 24.3 114.8l11.2 21.6zM1086.2 819.5c22.1 10.8 44.2 21.7 64.1 36.8L1349 618.1c13.3-19.5 24.3-41.1 33.1-65l6.6-47.6c0-28.2-6.6-54.1-17.7-75.8-19.9-36.8-53-60.6-99.4-71.5-42-15.2-86.1-10.8-125.9 10.8-39.8 21.7-70.7 54.1-81.7 97.4l-2.2 21.6 2.2 86.6 22.2 244.9z"/><path d="M1790.4 2.2H257.6C117.1 2.2 2.2 117.1 2.2 257.6v1532.8c0 140.5 115 255.5 255.5 255.5h1532.8c140.5 0 255.5-114.9 255.5-255.5V257.6c-.2-140.5-115.1-255.4-255.6-255.4zm-10.8 1287.1c-19.9 67.1-59.6 119.1-119.3 151.6-61.8 32.5-123.7 34.7-194.3 13-26.5-6.5-48.6-17.3-70.7-32.5 11 54.1 11 101.7 0 149.4-13.3 45.5-39.8 82.3-77.3 103.9-39.8 26-83.9 28.1-128.1 15.1-44.2-10.8-83.9-41.1-125.9-86.6l-2.2 13c-19.9 65-59.6 116.9-121.5 149.4-64.1 32.5-130.3 34.6-196.6 17.3-39.8-10.8-72.9-26-99.4-49.8-17.7-19.5-35.3-41.1-50.8-65-33.1-62.8-39.8-123.4-17.7-192.7l11-28.2 39.8-65c-55.2 17.4-106 17.4-154.6 6.5-26.5-2.2-48.6-13-66.3-28.1-17.7-10.8-28.7-26-39.8-43.3-22.1-36.8-26.5-75.8-15.5-114.8 11-32.5 28.7-65 59.6-90.9l33.1-28.2-15.5-4.3c-39.8-6.5-72.9-21.6-99.4-47.6-17.7-13-37.5-32.5-50.8-56.3-30.9-54.1-33.1-112.6-8.8-173.2 26.5-62.8 66.3-108.3 130.3-140.7 61.9-32.5 123.7-41.1 189.9-26l53 17.3-15.5-21.6c-33.1-60.6-44.2-121.3-33.1-184 11-60.6 37.6-103.9 83.9-132.1 42-21.6 81.7-26 130.3-15.1 55.2 15.1 99.4 47.6 134.7 101.8l22.1 39 8.8 15.1 2.2-15.1v-4.3c19.9-65 64-114.8 125.9-147.2 61.8-32.5 125.9-39 194.3-21.7 66.3 17.3 114.9 49.8 148 103.9l6.6 10.8c37.6 62.8 44.2 129.9 22.1 199.2l-24.3 54.1 72.9-15.2c33.1-2.2 70.7-2.2 103.8 4.3 55.2 15.2 90.6 43.3 117 86.6v4.3c22.1 39 26.5 77.9 11 125.6-22.1 58.5-70.7 103.9-139.1 136.4 24.3 10.8 50.8 21.6 72.9 36.8 26.5 17.3 44.2 43.3 61.8 69.3l11 17.3c33.8 60.8 38.2 123.6 20.5 188.5z"/><path d="M1583.1 1064.2l-22.1-2.2-88.3 2.2-249.5 21.6-6.6 26-15.5 32.5 231.9 188.4c15.5 17.3 33.1 28.1 59.6 34.6 44.2 15.2 83.9 10.8 123.7-10.8 37.6-17.3 64.1-49.8 75.1-93.1l6.6-43.3c0-36.8-11-69.3-33.1-93.1-17.7-32.5-48.7-52-81.8-62.8zM821.2 888.8L626.9 750.2l-59.6-23.8c-44.2-10.8-83.9-4.3-123.7 17.3-42 17.3-70.7 49.8-86.1 90.9-13.2 32.5-13.2 65 4.4 97.4 17.7 32.5 44.2 49.8 83.9 56.3l22.1 4.3 318-39c6.6-21.5 17.7-43.2 35.3-64.8zM1273.9 1382.4l-57.4-69.3-92.8-93.1-28.7 15.2-37.5 13 33.1 188.4 26.5 71.4c24.3 52 57.4 84.5 99.4 95.3 17.7 2.2 35.3 2.2 50.8-8.6 26.5-10.8 39.8-39 44.2-78 4.4-41.1-6.6-75.8-26.5-112.6l-11.1-21.7zM1152.5 1036c0-39-13.3-71.5-44.2-101.8-24.3-23.8-61.8-39-101.6-39-42 0-77.3 15.1-103.8 39-28.7 30.3-44.2 62.8-44.2 101.8s15.5 75.8 44.2 101.8c26.5 28.1 61.8 43.3 103.8 43.3 39.8 0 72.9-15.2 101.6-43.3 30.9-26 44.2-62.8 44.2-101.8zM885.3 1224.4l-185.5 216.5c-17.7 17.3-28.7 39-33.1 60.6l-11 49.8c0 26 8.8 52 19.9 73.6 17.7 34.7 50.8 60.6 95 71.4 39.8 10.8 81.7 6.5 121.5-15.1 39.8-17.3 66.3-49.8 81.7-88.7l2.2-21.7v-86.6c-11.1-84.4-17.7-162.4-22.1-236-24.5-2.2-46.6-13-68.6-23.8z"/></svg>