<?xml version="1.0" encoding="utf-8"?>
<!-- Generated by IcoMoon.io -->
<!DOCTYPE svg PUBLIC "-//W3C//DTD SVG 1.1//EN" "http://www.w3.org/Graphics/SVG/1.1/DTD/svg11.dtd">
<svg version="1.1" xmlns="http://www.w3.org/2000/svg" xmlns:xlink="http://www.w3.org/1999/xlink" width="32" height="32" viewBox="0 0 32 32">
<path fill="#444" d="M18.904 14.53l0.069 0.101 0.069 0.237 4.244-0.508c0.414-0.067 0.793-0.135 1.138-0.304 0.863-0.372 1.38-0.846 1.622-1.455l0.069-0.338-0.138-0.44c-0.207-0.406-0.621-0.677-1.207-0.744-0.621-0.068-1.208 0-1.829 0.271l-0.414 0.169-3.485 2.842-0.138 0.169z"></path>
<path fill="#444" d="M11.313 9.489l3.071 3.281 0.518-0.169-0.69-3.992c-0.069-0.406-0.241-0.744-0.414-1.083-0.414-0.846-0.931-1.286-1.552-1.455-0.276-0.135-0.587-0.135-0.794 0.034-0.414 0.237-0.655 0.643-0.69 1.252-0.069 0.609 0.103 1.184 0.379 1.793l0.173 0.338z"></path>
<path fill="#444" d="M17.006 12.77c0.345 0.169 0.69 0.339 1.001 0.575l3.105-3.721c0.207-0.305 0.38-0.643 0.518-1.015l0.103-0.744c0-0.44-0.103-0.846-0.276-1.184-0.311-0.575-0.828-0.947-1.553-1.116-0.656-0.237-1.346-0.169-1.967 0.169s-1.104 0.846-1.277 1.522l-0.034 0.338 0.034 1.353 0.345 3.823z"></path>
<path fill="#444" d="M28.008 0h-23.949c-2.195 0-3.992 1.796-3.992 3.992v23.949c0 2.196 1.796 3.992 3.992 3.992h23.949c2.196 0 3.992-1.796 3.992-3.992v-23.949c0-2.195-1.796-3.992-3.991-3.992zM27.841 20.112c-0.311 1.049-0.932 1.861-1.863 2.369-0.966 0.507-1.933 0.542-3.037 0.203-0.414-0.102-0.759-0.27-1.104-0.507 0.172 0.846 0.172 1.59 0 2.334-0.207 0.71-0.621 1.285-1.208 1.624-0.621 0.406-1.311 0.44-2.001 0.237-0.69-0.169-1.311-0.643-1.967-1.354l-0.034 0.203c-0.311 1.015-0.932 1.827-1.898 2.335-1.001 0.507-2.036 0.541-3.071 0.27-0.621-0.169-1.138-0.406-1.552-0.778-0.277-0.304-0.552-0.643-0.794-1.015-0.518-0.981-0.621-1.928-0.276-3.011l0.172-0.44 0.621-1.015c-0.863 0.271-1.656 0.271-2.415 0.102-0.414-0.034-0.759-0.203-1.035-0.44-0.276-0.169-0.448-0.406-0.621-0.676-0.345-0.575-0.414-1.184-0.241-1.793 0.172-0.508 0.448-1.015 0.931-1.421l0.518-0.44-0.241-0.068c-0.621-0.101-1.139-0.338-1.553-0.744-0.276-0.203-0.587-0.508-0.794-0.88-0.483-0.846-0.517-1.759-0.138-2.706 0.414-0.981 1.035-1.692 2.036-2.199 0.966-0.508 1.932-0.643 2.968-0.406l0.828 0.271-0.242-0.338c-0.517-0.947-0.69-1.895-0.517-2.876 0.172-0.947 0.587-1.624 1.311-2.064 0.655-0.338 1.277-0.406 2.036-0.237 0.863 0.237 1.552 0.744 2.105 1.59l0.345 0.609 0.138 0.237 0.035-0.237v-0.068c0.311-1.015 1-1.793 1.967-2.301s1.966-0.609 3.036-0.338c1.035 0.271 1.795 0.778 2.312 1.624l0.104 0.169c0.587 0.981 0.69 2.030 0.345 3.113l-0.379 0.846 1.138-0.237c0.518-0.034 1.104-0.034 1.622 0.068 0.863 0.237 1.415 0.677 1.829 1.353v0.068c0.345 0.609 0.414 1.218 0.173 1.962-0.345 0.913-1.104 1.624-2.174 2.131 0.38 0.169 0.794 0.338 1.139 0.575 0.414 0.271 0.69 0.677 0.966 1.083l0.173 0.271c0.518 0.948 0.587 1.928 0.311 2.943z"></path>
<path fill="#444" d="M24.77 16.594l-0.345-0.034-1.38 0.034-3.899 0.338-0.104 0.406-0.242 0.507 3.623 2.944c0.242 0.27 0.518 0.44 0.932 0.541 0.69 0.237 1.311 0.169 1.932-0.169 0.587-0.27 1.001-0.778 1.173-1.455l0.103-0.676c0-0.575-0.172-1.082-0.517-1.455-0.276-0.508-0.759-0.812-1.277-0.981z"></path>
<path fill="#444" d="M12.866 13.854l-3.037-2.166-0.931-0.372c-0.69-0.169-1.311-0.068-1.933 0.271-0.655 0.271-1.104 0.778-1.346 1.421-0.207 0.508-0.207 1.015 0.069 1.522s0.69 0.778 1.311 0.879l0.345 0.068 4.969-0.609c0.104-0.338 0.276-0.677 0.552-1.015z"></path>
<path fill="#444" d="M19.939 21.567l-0.897-1.082-1.449-1.455-0.449 0.237-0.586 0.203 0.518 2.944 0.414 1.116c0.38 0.812 0.897 1.32 1.553 1.488 0.276 0.034 0.552 0.034 0.793-0.135 0.414-0.169 0.621-0.609 0.69-1.218 0.069-0.643-0.104-1.184-0.414-1.76l-0.172-0.339z"></path>
<path fill="#444" d="M18.041 16.154c0-0.609-0.207-1.117-0.691-1.59-0.379-0.372-0.966-0.609-1.587-0.609-0.656 0-1.208 0.237-1.622 0.609-0.448 0.473-0.69 0.981-0.69 1.59s0.241 1.184 0.69 1.59c0.414 0.44 0.966 0.676 1.622 0.676 0.621 0 1.138-0.237 1.587-0.676 0.483-0.406 0.691-0.981 0.691-1.59z"></path>
<path fill="#444" d="M13.866 19.097l-2.899 3.384c-0.276 0.27-0.448 0.609-0.518 0.948l-0.172 0.778c0 0.406 0.138 0.812 0.311 1.151 0.276 0.542 0.794 0.948 1.484 1.116 0.621 0.169 1.277 0.102 1.898-0.237 0.621-0.27 1.035-0.778 1.277-1.387l0.035-0.339v-1.354c-0.173-1.319-0.276-2.537-0.345-3.688-0.38-0.034-0.725-0.203-1.070-0.372z"></path>
</svg>
