<?xml version="1.0" encoding="utf-8"?>
<!-- Generated by IcoMoon.io -->
<!DOCTYPE svg PUBLIC "-//W3C//DTD SVG 1.1//EN" "http://www.w3.org/Graphics/SVG/1.1/DTD/svg11.dtd">
<svg version="1.1" xmlns="http://www.w3.org/2000/svg" xmlns:xlink="http://www.w3.org/1999/xlink" width="32" height="32" viewBox="0 0 32 32">
<path fill="#444" d="M30 4h-28c-1.105 0-2 0.895-2 2v22c0 1.105 0.895 2 2 2h28c1.105 0 2-0.895 2-2v-22c0-1.105-0.895-2-2-2zM30 23c0 0.552-0.448 1-1 1h-1l-6-9-6 9h-2l2.857-4.286-4.857-9.714-8 14h-1c-0.552 0-1-0.448-1-1v-16c0-0.552 0.448-1 1-1h26c0.552 0 1 0.448 1 1v16z"></path>
<path fill="#444" d="M28 10c0 1.105-0.895 2-2 2s-2-0.895-2-2c0-1.105 0.895-2 2-2s2 0.895 2 2z"></path>
</svg>
