<?xml version="1.0" encoding="utf-8"?>
<!-- Generator: Adobe Illustrator 14.0.0, SVG Export Plug-In . SVG Version: 6.00 Build 43363)  -->
<!DOCTYPE svg PUBLIC "-//W3C//DTD SVG 1.1//EN" "http://www.w3.org/Graphics/SVG/1.1/DTD/svg11.dtd">
<svg version="1.1" id="Layer_1" xmlns="http://www.w3.org/2000/svg" xmlns:xlink="http://www.w3.org/1999/xlink" x="0px" y="0px"
	 width="2048px" height="2048px" viewBox="718 1420 2048 2048" enable-background="new 718 1420 2048 2048" xml:space="preserve">
<polyline points="2126,2891.999 2510,2891.999 2318,3084 "/>
<g>
	<path d="M1934,2060h-832c-70.692,0-128,57.309-128,128v512c0,70.691,57.308,128,128,128h832c70.691,0,128-57.309,128-128v-512
		C2062,2117.309,2004.691,2060,1934,2060z M1934,2636c0,35.346-28.654,64-64,64h-704c-35.346,0-64-28.654-64-64v-384
		c0-35.346,28.654-64,64-64h704c35.346,0,64,28.654,64,64V2636z"/>
	<polygon points="1614,2508 1358,2252 1166,2444 1166,2636 1870,2636 1870,2508 1742,2380 	"/>
</g>
</svg>
