<?xml version="1.0" encoding="utf-8"?>
<!-- Generated by IcoMoon.io -->
<!DOCTYPE svg PUBLIC "-//W3C//DTD SVG 1.1//EN" "http://www.w3.org/Graphics/SVG/1.1/DTD/svg11.dtd">
<svg version="1.1" xmlns="http://www.w3.org/2000/svg" xmlns:xlink="http://www.w3.org/1999/xlink" width="32" height="32" viewBox="0 0 32 32">
<path fill="#444" d="M23 10h-13c-1.103 0-2 0.897-2 2v8c0 1.103 0.897 2 2 2h13c1.103 0 2-0.897 2-2v-8c0-1.103-0.897-2-2-2zM23 19c0 0.553-0.447 1-1 1h-11c-0.553 0-1-0.447-1-1v-6c0-0.553 0.447-1 1-1h11c0.553 0 1 0.447 1 1v6z"></path>
<path fill="#444" d="M18 17l-4-4-3 3v3h11v-2l-2-2-2 2z"></path>
</svg>
