<?xml version="1.0" encoding="utf-8"?>
<!-- Generated by IcoMoon.io -->
<!DOCTYPE svg PUBLIC "-//W3C//DTD SVG 1.1//EN" "http://www.w3.org/Graphics/SVG/1.1/DTD/svg11.dtd">
<svg version="1.1" xmlns="http://www.w3.org/2000/svg" xmlns:xlink="http://www.w3.org/1999/xlink" width="32" height="32" viewBox="0 0 32 32">
<path fill="#444" d="M16.027 3.995c-6.624 0-11.993 5.37-11.993 11.993s5.369 11.993 11.993 11.993c6.624 0 11.993-5.369 11.993-11.993s-5.37-11.993-11.993-11.993zM17.647 23.198c-1.11 1.109-2.161 1.724-3.152 1.845-0.683 0.083-1.2-0.031-1.551-0.342s-0.554-0.687-0.608-1.126c-0.034-0.276-0.024-0.537 0.028-0.783s0.113-0.496 0.18-0.752l1.729-5.086c0.096-0.292 0.162-0.527 0.198-0.705s0.046-0.331 0.030-0.462c-0.016-0.13-0.052-0.22-0.107-0.271s-0.124-0.071-0.205-0.062c-0.211 0.026-0.582 0.397-1.114 1.114s-0.854 1.082-0.967 1.096c-0.13 0.016-0.271-0.058-0.423-0.221s-0.231-0.269-0.237-0.317c-0.020-0.163 0.102-0.446 0.366-0.849s0.607-0.837 1.029-1.301c0.377-0.425 0.842-0.837 1.396-1.235s1.058-0.624 1.513-0.68c0.731-0.089 1.305 0.051 1.722 0.421s0.66 0.847 0.732 1.432c0.030 0.244 0.037 0.507 0.022 0.789s-0.086 0.58-0.213 0.892l-1.355 4.298c-0.105 0.359-0.177 0.649-0.216 0.868s-0.054 0.37-0.044 0.451c0.012 0.097 0.044 0.155 0.095 0.174s0.102 0.025 0.151 0.019c0.358-0.044 0.745-0.351 1.162-0.921s0.69-0.864 0.82-0.88c0.114-0.014 0.246 0.057 0.397 0.211s0.23 0.265 0.238 0.33c0.032 0.26-0.507 0.945-1.617 2.054zM19.148 9.974c-0.377 0.492-0.875 0.775-1.492 0.85-0.602 0.074-1.148-0.082-1.641-0.467s-0.775-0.878-0.849-1.48c-0.073-0.601 0.082-1.148 0.468-1.641s0.878-0.775 1.48-0.849c0.617-0.075 1.169 0.080 1.653 0.466s0.763 0.88 0.837 1.481c0.074 0.601-0.078 1.148-0.455 1.639z"></path>
</svg>
