<?xml version="1.0" encoding="utf-8"?>
<!-- Generator: Adobe Illustrator 17.1.0, SVG Export Plug-In . SVG Version: 6.00 Build 0)  -->
<!DOCTYPE svg PUBLIC "-//W3C//DTD SVG 1.1//EN" "http://www.w3.org/Graphics/SVG/1.1/DTD/svg11.dtd">
<svg version="1.1" id="Layer_1" xmlns="http://www.w3.org/2000/svg" xmlns:xlink="http://www.w3.org/1999/xlink" x="0px" y="0px"
	 viewBox="0 0 2048 2048" enable-background="new 0 0 2048 2048" xml:space="preserve">
<g id="_x33_2-move" display="none">
	<path display="inline" d="M830,448H446c-35.3,0-64,28.7-64,64v1024c0,35.3,28.7,64,64,64h704c35.3,0,64-28.7,64-64v-192h-128v96
		c0,17.7-14.3,32-32,32H542c-17.7,0-32-14.3-32-32V608c0-17.7,14.3-32,32-32h224v288c0,17.7,14.3,32,32,32h288l0,0h128v-64L830,448z
		"/>
	<path display="inline" d="M1652.6,1098l-256.5-257.1c0,0-0.1-0.1-0.1-0.1c-5.7-5.5-13.5-8.8-22-8.8c-16.5,0-30,12.5-31.8,28.5
		c-0.1,0.7-0.2,1.4-0.2,2.1v161.5h-288c-17.7,0-32,14.3-32,32V1184c0,17.7,14.3,32,32,32h288v161.8c0,0.3,0.1,0.6,0.1,0.9
		c1.4,16.4,15.1,29.2,31.9,29.2c7.9,0,15.2-2.9,20.8-7.7c1.1-0.6,2.1-1.2,2.9-2.1l254.9-254.9
		C1665.1,1130.8,1665.1,1110.5,1652.6,1098z"/>
</g>
<g id="_x31_6-assigned" display="none">
	<path display="inline" d="M1057.6,1388.7c-140.2-59-173.4-79.5-173.4-79.5l-1.4-135.8c0,0,52.5-40.8,69-168.6
		c32.7,9.6,67.2-49.4,69.1-80.6c1.8-29.9-4.6-113.1-44.7-104.8c8.1-62.7,14-118.9,11.2-148.9c-10.3-109.1-116.7-224.1-280.4-224.1
		c-163.4,0-269.9,115-280.4,224.1c-2.7,30,3.1,86.2,11.4,148.9c-40.2-8.3-46.5,75-44.6,104.8c1.9,31.2,36.3,90.2,69.2,80.6
		c16.2,127.8,68.8,168.6,68.8,168.6l-1.4,135.8c0,0-33.3,20.5-173.2,79.5c-140.4,59.1-282,100.4-324,166.7C0,1630,0,1984,0,1984
		h707.2h700.9c0,0-0.2-351.4-26.6-428.6C1358.4,1494.2,1221.7,1453.2,1057.6,1388.7z"/>
	<path display="inline" d="M2023.5,1602.9c-24.1-64.4-38.6-95.8-168.9-148.2c-130.3-52.5-161.3-70.7-161.3-70.7l-1-120.7
		c0,0,48.8-36.3,64-149.9c30.5,8.5,62.4-44.1,64.2-71.7c1.5-26.6-4.2-100.6-41.5-93.3c7.5-55.7,13.2-105.9,10.6-132.3
		C1779.9,719,1681,616.8,1529,616.8c-152,0-250.8,102.2-260.6,199.4c-2.6,26.4,2.8,76.6,10.6,132.3c-37.4-7.4-43.3,66.7-41.5,93.3
		c1.8,27.6,33.8,80.2,64.2,71.7c15.2,113.6,64.1,149.9,64.1,149.9l-1.4,118.9c145.6,94.4,159.5,176.1,159.5,176.1
		c11.7,107,13.1,257,13.1,425.7h511.1C2048.1,1984,2047.6,1661.5,2023.5,1602.9z"/>
</g>
<g id="_x31_6-check" display="none">
	<polygon display="inline" points="1793,192 768,1218 256,704 0,959.7 767,1856 2048,448 	"/>
</g>
<g id="_x31_6-attach" display="none">
	<path id="clip_2_" display="inline" fill="#333333" d="M1772.4,279.3c-196.8-201.8-515.9-201.8-712.7,0l-817.1,827.4
		c-152.8,156.6-152.8,411.5,0,568.1c152.9,156.6,401.5,156.6,554.2,0L1614,847.5c109.3-112.1,109.3-293.7,0-405.8
		c-109.4-112-286.7-112-395.9,0l-614.2,629.5c-21.9,22.5-21.9,58.7,0,81.2c21.9,22.5,57.3,22.5,79.2,0l614.2-629.5
		c65.5-67.1,172.1-67.1,237.6,0c65.5,67.1,65.5,176.4,0,243.5l-817,827.4c-109.4,112.1-286.6,112.1-395.9,0
		c-109.4-112-109.4-293.7,0-405.8l809-819.4c153.1-156.9,401.4-156.9,554.3,0c153.2,157,153.2,411.2,0.1,568.1l-606.2,621.4
		c-22,22.5-22,58.7,0,81.2c21.9,22.5,57.3,22.5,79.2,0l614.1-629.5C1969.3,808.1,1969.3,481,1772.4,279.3z"/>
</g>
<g id="_x31_6-insert-link" display="none">
	<path display="inline" fill="#010101" d="M1407,127.6h-64c-1.8,0-3.6,0.1-5.4,0.3H575.8c-70.7,0-128,57.3-128,128v511.8h128V320
		c0-35.4,28.7-64,64-64h639.1v447.8c0,35.4,28.7,64,64,64H1791V1728c0,35.4-28.7,64-64,64H639.8c-35.3,0-64-28.7-64-64v-320.1h-128
		V1792c0,70.7,57.3,128,128,128H1791c70.7,0,128-57.3,128-128V703.8v-64L1407,127.6z"/>
	<path display="inline" d="M1263.7,1054.4L851.9,653.6c-0.1,0-0.1-0.1-0.2-0.1c-9-8.5-21-13.7-34.4-13.7
		c-25.7,0-46.8,19.4-49.6,44.4c-0.2,1.1-0.3,2.2-0.3,3.2v207.8H178.6c-27.5,0-49.9,22.3-49.9,49.9v283.4c0,27.6,22.3,49.9,49.9,49.9
		h588.9v212.2c0,0.5,0.1,0.9,0.2,1.4c2.2,25.5,23.6,45.6,49.7,45.6c12.4,0,23.7-4.5,32.4-12c1.7-0.8,3.3-1.9,4.6-3.3l409.3-397.3
		C1283.2,1105.4,1283.2,1073.9,1263.7,1054.4z"/>
</g>
<g id="_x31_6-restore" display="none">
	<path display="inline" d="M1152.6,3.5C706.6,3.5,324,341.3,256,768.1H0L384,1408l384-639.9H511c64.5-284.8,337.3-509,641.6-509
		c353,0,639.2,286.2,639.2,639.2s-286.2,639.2-639.2,639.2c-145.5,0-277.1-46.7-384.6-128.6l-127.8,223.1
		c145.1,101.5,321.8,161.1,512.3,161.1c494.2,0,894.9-400.6,894.9-894.9S1646.8,3.5,1152.6,3.5z"/>
</g>
<g id="_x31_6-preview" display="none">
	<g display="inline">
		<rect x="386.9" y="642.6" fill="#010101" width="383.3" height="127.8"/>
		<path fill="#010101" d="M2029.1,1901l-218.4-218.4c68.8-94.7,109.3-211.3,109.3-337.3c0-249.9-159.5-462.5-382.2-541.8V579.2
			v-63.9L1026.4,3.8h-63.9c-1.8,0-3.6,0.1-5.4,0.3H131.5C60.9,4.1,3.6,61.3,3.6,131.9v1150.5v127.3V1666
			c0,70.6,57.2,127.9,127.9,127.9h854.1c98.5,79,223.5,126.3,359.6,126.3c126,0,242.6-40.6,337.3-109.3l218.4,218.4
			c24.9,24.9,65.4,24.9,90.3,0l38-38C2054.1,1966.4,2054.1,1925.9,2029.1,1901z M195.4,1666c-35.3,0-63.9-28.6-63.9-63.9v-192.4
			v-127.3V195.9c0-35.3,28.6-63.9,63.9-63.9h703.1v447.2c0,35.3,28.6,63.9,63.9,63.9H1410V774c-21.3-2.4-42.9-3.7-64.9-3.7
			c-136.9,0-262.6,47.9-361.3,127.8H386.9v127.8h480.1c-26.4,39.4-48,82.3-64.1,127.8h-416v127.8h386.8c-2.3,21-3.6,42.3-3.6,63.9
			c0,118.8,36,229.1,97.7,320.7L195.4,1666L195.4,1666z M1344.9,1791.9c-246.8,0-446.9-200.1-446.9-446.9
			c0-246.8,200.1-446.9,446.9-446.9s446.9,200.1,446.9,446.9S1591.7,1791.9,1344.9,1791.9z"/>
	</g>
</g>
<g id="_x31_6-copylink" display="none">
	<path display="inline" fill="#010101" d="M1674.3,953.3l-288.1,288.4c-159,159.3-417,159.3-576.1,0c-25.1-25-44.7-53.2-61.9-82.3
		l133.9-134.1c6.4-6.4,14.2-10.1,21.7-14.4c9.2,31.7,25.4,61.7,50.3,86.5c79.4,79.6,208.7,79.5,288,0l288-288.4
		c79.5-79.6,79.5-208.9,0-288.5c-79.4-79.5-208.6-79.5-288,0l-102.4,102.7c-83.1-32.4-172.7-41.1-259.8-28.3l218.3-218.5
		c159.1-159.3,417-159.3,576.2,0C1833.3,535.7,1833.3,794,1674.3,953.3z M912.6,1427.5l-102.5,102.7c-79.4,79.5-208.7,79.5-288.1,0
		c-79.4-79.6-79.4-208.9,0-288.5l288.1-288.4c79.5-79.6,208.6-79.6,288,0c24.8,24.9,41,54.8,50.3,86.4c7.6-4.4,15.3-8,21.7-14.3
		l133.9-134c-17.1-29.2-36.8-57.3-61.9-82.3c-159-159.3-417-159.3-576.1,0l-288,288.4c-159.1,159.3-159.1,417.6,0,576.9
		c159.1,159.2,417,159.2,576.1,0l218.3-218.6C1085.2,1468.7,995.6,1459.9,912.6,1427.5z"/>
</g>
<g id="_x31_6-download" display="none">
	<g display="inline">
		<polygon points="1535.9,1279.9 1535.9,1407.9 512.1,1407.9 512.1,1279.9 255.9,1279.9 256.1,1663.8 1791.9,1663.8 1791.9,1279.9 
					"/>
		<polygon points="1535.9,768 1280,768 1280,384 768.1,384 768.1,768 512.1,768 1024,1279.9 		"/>
	</g>
</g>
<g id="_x31_6-info">
	<path d="M1025.8,255.7c-423.9,0-767.6,343.6-767.6,767.6c0,423.9,343.6,767.6,767.6,767.6s767.6-343.6,767.6-767.6
		C1793.3,599.3,1449.7,255.7,1025.8,255.7z M1129.4,1484.7c-71,71-138.3,110.3-201.7,118.1c-43.7,5.3-76.8-2-99.3-21.9
		c-22.5-19.9-35.5-44-38.9-72.1c-2.2-17.7-1.6-34.4,1.8-50.1c3.4-15.7,7.2-31.8,11.5-48.1L913.5,1085c6.2-18.7,10.4-33.7,12.7-45.1
		c2.3-11.4,2.9-21.2,1.9-29.5c-1-8.3-3.3-14.1-6.9-17.4c-3.6-3.2-8-4.6-13.1-3.9c-13.5,1.7-37.3,25.4-71.3,71.3
		c-34,45.9-54.6,69.2-61.9,70.1c-8.3,1-17.3-3.7-27.1-14.1c-9.7-10.4-14.8-17.2-15.2-20.3c-1.3-10.4,6.5-28.5,23.4-54.3
		c16.9-25.8,38.8-53.6,65.8-83.3c24.1-27.2,53.9-53.6,89.3-79c35.4-25.4,67.7-39.9,96.8-43.5c46.8-5.7,83.5,3.3,110.2,26.9
		c26.6,23.7,42.3,54.2,46.8,91.7c1.9,15.6,2.4,32.4,1.4,50.5c-1,18.1-5.5,37.1-13.6,57.1l-86.7,275.1c-6.7,23-11.3,41.5-13.8,55.5
		c-2.5,14-3.4,23.7-2.8,28.8c0.8,6.2,2.8,9.9,6.1,11.1c3.3,1.2,6.5,1.6,9.6,1.2c22.9-2.8,47.7-22.5,74.4-59
		c26.7-36.5,44.2-55.3,52.5-56.3c7.3-0.9,15.7,3.6,25.4,13.5c9.6,9.9,14.7,16.9,15.2,21.1
		C1234.9,1369.9,1200.4,1413.7,1129.4,1484.7z M1225.5,638.3c-24.1,31.5-56,49.6-95.5,54.4c-38.5,4.7-73.5-5.3-105-29.9
		c-31.5-24.7-49.6-56.2-54.3-94.7c-4.7-38.5,5.3-73.5,29.9-105c24.7-31.5,56.2-49.6,94.7-54.3c39.5-4.8,74.8,5.1,105.8,29.8
		c31,24.7,48.9,56.3,53.6,94.8C1259.3,571.9,1249.6,606.9,1225.5,638.3z"/>
</g>
</svg>
