<svg xmlns="http://www.w3.org/2000/svg" viewBox="0 0 2048 2048"><path d="M1025.8 255.7c-423.9 0-767.6 343.6-767.6 767.6 0 423.9 343.6 767.6 767.6 767.6s767.6-343.6 767.6-767.6c-.1-424-343.7-767.6-767.6-767.6zm103.6 1229c-71 71-138.3 110.3-201.7 118.1-43.7 5.3-76.8-2-99.3-21.9s-35.5-44-38.9-72.1c-2.2-17.7-1.6-34.4 1.8-50.1 3.4-15.7 7.2-31.8 11.5-48.1L913.5 1085c6.2-18.7 10.4-33.7 12.7-45.1 2.3-11.4 2.9-21.2 1.9-29.5s-3.3-14.1-6.9-17.4c-3.6-3.2-8-4.6-13.1-3.9-13.5 1.7-37.3 25.4-71.3 71.3s-54.6 69.2-61.9 70.1c-8.3 1-17.3-3.7-27.1-14.1-9.7-10.4-14.8-17.2-15.2-20.3-1.3-10.4 6.5-28.5 23.4-54.3 16.9-25.8 38.8-53.6 65.8-83.3 24.1-27.2 53.9-53.6 89.3-79s67.7-39.9 96.8-43.5c46.8-5.7 83.5 3.3 110.2 26.9 26.6 23.7 42.3 54.2 46.8 91.7 1.9 15.6 2.4 32.4 1.4 50.5s-5.5 37.1-13.6 57.1l-86.7 275.1c-6.7 23-11.3 41.5-13.8 55.5s-3.4 23.7-2.8 28.8c.8 6.2 2.8 9.9 6.1 11.1 3.3 1.2 6.5 1.6 9.6 1.2 22.9-2.8 47.7-22.5 74.4-59 26.7-36.5 44.2-55.3 52.5-56.3 7.3-.9 15.7 3.6 25.4 13.5 9.6 9.9 14.7 16.9 15.2 21.1 2.3 16.7-32.2 60.5-103.2 131.5zm96.1-846.4c-24.1 31.5-56 49.6-95.5 54.4-38.5 4.7-73.5-5.3-105-29.9-31.5-24.7-49.6-56.2-54.3-94.7-4.7-38.5 5.3-73.5 29.9-105 24.7-31.5 56.2-49.6 94.7-54.3 39.5-4.8 74.8 5.1 105.8 29.8 31 24.7 48.9 56.3 53.6 94.8 4.6 38.5-5.1 73.5-29.2 104.9z"/></svg>