<svg xmlns="http://www.w3.org/2000/svg" width="2048" height="2048" viewBox="0 0 2048 2048"><path fill="none" stroke="#FF985F" stroke-width="2" d="M384 384h1280v1280H384z"/><path fill="#010101" d="M1406.956 127.646h-64.015c-1.827 0-3.622.12-5.418.274H639.986c-70.708 0-128.026 57.319-128.026 128.029v511.837h128.026V319.96c0-35.354 28.665-64.012 64.015-64.012h574.931v447.823c0 35.351 28.657 64.015 64.01 64.015h448.101v960.21c0 35.353-28.661 64.01-64.016 64.01H704c-35.35 0-64.015-28.657-64.015-64.01v-320.07H511.959v384.08c0 70.707 57.319 128.028 128.026 128.028h1151.056c70.708 0 128.026-57.321 128.026-128.028V639.755l-512.111-512.109z"/><path d="M1263.687 1054.387L851.949 653.615c-.055-.044-.122-.082-.173-.126-8.962-8.509-21.037-13.732-34.356-13.732-25.683 0-46.825 19.413-49.566 44.36a21.97 21.97 0 0 0-.317 3.23v207.771H178.615c-27.537 0-49.874 22.333-49.874 49.879v283.413c0 27.554 22.337 49.874 49.874 49.874h588.922v212.19c.034.456.099.94.2 1.422 2.2 25.524 23.597 45.552 49.683 45.552 12.376 0 23.687-4.522 32.412-11.986 1.722-.848 3.265-1.925 4.579-3.255l409.276-397.281c19.493-19.483 19.493-51.063 0-70.539z"/></svg>