<?xml version="1.0" encoding="utf-8"?>
<!-- Generated by IcoMoon.io -->
<!DOCTYPE svg PUBLIC "-//W3C//DTD SVG 1.1//EN" "http://www.w3.org/Graphics/SVG/1.1/DTD/svg11.dtd">
<svg version="1.1" xmlns="http://www.w3.org/2000/svg" xmlns:xlink="http://www.w3.org/1999/xlink" width="32" height="32" viewBox="0 0 32 32">
<path fill="#444" d="M21.984 1.994h-1c-0.029 0-0.057 0.002-0.085 0.004h-10.899c-1.105 0-2 0.896-2 2v7.997h2v-6.997c0-0.552 0.448-1 1-1h8.983v6.997c0 0.552 0.448 1 1 1h7.002v15.003c0 0.552-0.448 1-1 1h-15.985c-0.552 0-1-0.448-1-1v-5.001h-2v6.001c0 1.105 0.896 2 2 2h17.985c1.105 0 2-0.896 2-2v-18.004l-8.002-8.002z"></path>
<path fill="#444" d="M19.745 16.475l-6.433-6.262c-0.001-0.001-0.002-0.001-0.003-0.002-0.14-0.133-0.329-0.215-0.537-0.215-0.401 0-0.732 0.303-0.774 0.693-0.003 0.017-0.005 0.034-0.005 0.050v3.246h-9.202c-0.43 0-0.779 0.349-0.779 0.779v4.428c0 0.431 0.349 0.779 0.779 0.779h9.202v3.315c0.001 0.007 0.002 0.015 0.003 0.022 0.034 0.399 0.369 0.712 0.776 0.712 0.193 0 0.37-0.071 0.506-0.187 0.027-0.013 0.051-0.030 0.072-0.051l6.395-6.207c0.305-0.304 0.305-0.798 0-1.102z"></path>
</svg>
