<svg xmlns="http://www.w3.org/2000/svg" width="2048" height="2048" viewBox="718 1420 2048 2048"><path d="M1692.175 2078.229l5.02-16.371h302.075l-5.925 16.371c-27.38 0-48.279 6.349-62.728 19.034-14.448 12.7-34.337 39.185-45.283 79.479l-143.827 408.709c-8.215 29.19-19.297 48.707-19.297 58.533 0 11.438 4.248 20.313 12.771 26.649 10.946 8.262 31.626 12.699 62.04 13.332l-4.565 16.37h-306.161l5.021-16.37c30.707 0 53.196-6.095 67.499-18.312 14.288-12.218 34.184-38.941 45.742-80.2l143.811-408.709c6.978-25.37 17.687-44.569 17.687-57.586 0-11.737-4.261-20.931-12.77-27.596-8.512-6.667-28.885-11.106-61.11-13.333z"/></svg>