<?xml version="1.0" encoding="utf-8"?>
<!-- Generated by IcoMoon.io -->
<!DOCTYPE svg PUBLIC "-//W3C//DTD SVG 1.1//EN" "http://www.w3.org/Graphics/SVG/1.1/DTD/svg11.dtd">
<svg version="1.1" xmlns="http://www.w3.org/2000/svg" xmlns:xlink="http://www.w3.org/1999/xlink" width="32" height="32" viewBox="0 0 32 32">
<path fill="#444" d="M15.221 10.285l0.078-0.256h4.72l-0.093 0.256c-0.428 0-0.754 0.099-0.98 0.297s-0.537 0.612-0.708 1.242l-2.247 6.386c-0.128 0.456-0.302 0.761-0.302 0.915 0 0.179 0.066 0.317 0.2 0.416 0.171 0.129 0.494 0.198 0.969 0.208l-0.071 0.256h-4.784l0.078-0.256c0.48 0 0.831-0.095 1.055-0.286s0.534-0.608 0.715-1.253l2.247-6.386c0.109-0.396 0.276-0.696 0.276-0.9 0-0.183-0.067-0.327-0.2-0.431s-0.451-0.174-0.955-0.208z"></path>
</svg>
