<?xml version="1.0" encoding="utf-8"?>
<!-- Generator: Adobe Illustrator 14.0.0, SVG Export Plug-In . SVG Version: 6.00 Build 43363)  -->
<!DOCTYPE svg PUBLIC "-//W3C//DTD SVG 1.1//EN" "http://www.w3.org/Graphics/SVG/1.1/DTD/svg11.dtd">
<svg version="1.1" id="Layer_1" xmlns="http://www.w3.org/2000/svg" xmlns:xlink="http://www.w3.org/1999/xlink" x="0px" y="0px"
	 width="2048px" height="2048px" viewBox="718 1420 2048 2048" enable-background="new 718 1420 2048 2048" xml:space="preserve">
<g>
	<path d="M1692.175,2078.229l5.02-16.371h302.075l-5.925,16.371c-27.38,0-48.279,6.349-62.728,19.034
		c-14.448,12.7-34.337,39.185-45.283,79.479l-143.827,408.709c-8.215,29.19-19.297,48.707-19.297,58.533
		c0,11.438,4.248,20.313,12.771,26.649c10.946,8.262,31.626,12.699,62.04,13.332l-4.565,16.37h-306.161l5.021-16.37
		c30.707,0,53.196-6.095,67.499-18.312c14.288-12.218,34.184-38.941,45.742-80.2l143.811-408.709
		c6.978-25.37,17.687-44.569,17.687-57.586c0-11.737-4.261-20.931-12.77-27.596
		C1744.773,2084.895,1724.4,2080.456,1692.175,2078.229z"/>
</g>
</svg>
