<?xml version="1.0" encoding="utf-8"?>
<!-- Generator: Adobe Illustrator 14.0.0, SVG Export Plug-In . SVG Version: 6.00 Build 43363)  -->
<!DOCTYPE svg PUBLIC "-//W3C//DTD SVG 1.1//EN" "http://www.w3.org/Graphics/SVG/1.1/DTD/svg11.dtd">
<svg version="1.1" id="Layer_1" xmlns="http://www.w3.org/2000/svg" xmlns:xlink="http://www.w3.org/1999/xlink" x="0px" y="0px"
	 width="2048px" height="2048px" viewBox="718 1420 2048 2048" enable-background="new 718 1420 2048 2048" xml:space="preserve">
<path d="M718,1653.89l1.613,1.29c-3.756-28.301,6-57.745,29.316-79.337c40.377-37.393,106.121-37.082,146.842,0.695L1774.899,2380
	c18.69,17.338,28.853,39.556,30.483,62.136c3.277,28.05-6.49,56.916-29.403,78.11L898.16,3312.312
	c-40.619,37.569-107.158,36.81-148.615-1.698c-22.604-20.994-33.082-48.875-31.359-75.98l-0.186,0.074V1653.89z"/>
<path d="M2125.383,2442.136c-1.631-22.58-11.793-44.798-30.483-62.136L1678,1998.982V1653.89l1.613,1.29
	c-3.756-28.301,6-57.745,29.316-79.337c40.377-37.393,106.121-37.082,146.842,0.695L2734.899,2380
	c18.69,17.338,28.853,39.556,30.483,62.136c3.277,28.05-6.49,56.916-29.403,78.11l-877.819,792.066
	c-40.619,37.569-107.158,36.81-148.615-1.698c-22.604-20.994-33.082-48.875-31.359-75.98l-0.186,0.074v-337.314l417.979-377.147
	C2118.893,2499.052,2128.66,2470.186,2125.383,2442.136z"/>
</svg>
