<?xml version="1.0" encoding="utf-8"?>
<!-- Generated by IcoMoon.io -->
<!DOCTYPE svg PUBLIC "-//W3C//DTD SVG 1.1//EN" "http://www.w3.org/Graphics/SVG/1.1/DTD/svg11.dtd">
<svg version="1.1" xmlns="http://www.w3.org/2000/svg" xmlns:xlink="http://www.w3.org/1999/xlink" width="32" height="32" viewBox="0 0 32 32">
<path fill="#444" d="M28.018-0.016h-24.002c-2.2 0-4 1.8-4 4v24.002c0 2.2 1.8 4 4 4h24.002c2.201 0 4-1.8 4-4v-24.002c0-2.2-1.8-4-4-4zM10.034 26.014h-4.015v-13.985h4.015v13.985zM7.982 9.989c-1.202 0-1.978-0.9-1.978-2.012 0-1.138 0.802-2.012 2.028-2.012s1.979 0.874 2.003 2.012c0 1.112-0.776 2.012-2.054 2.012zM25.946 26.014h-3.968v-7.751c0-1.802-1.433-3.031-2.988-3.031-1.187 0-2.55 0.9-2.861 1.7-0.113 0.286-0.142 0.686-0.142 1.087l0.013 7.981h-4l-0.005-9.51c0-1.744-0.056-3.25-0.113-4.508h3.59l0.199 1.992h0.085c0.565-0.916 2.926-2.26 5.244-2.26 2.826 0 4.946 1.916 4.946 6.035v8.266z"></path>
</svg>
