<svg xmlns="http://www.w3.org/2000/svg" width="2048" height="2048" viewBox="718 1420 2048 2048"><path d="M1998 2891.999h387.709L2190 3084M1930.521 2188.015c-112.729 0-208.614 62.128-244.16 148.833h114.979c27.869-35.895 75.321-59.532 129.182-59.532 85.799 0 155.35 59.97 155.35 133.95 0 73.979-69.552 133.949-155.349 133.949-53.859 0-101.312-23.637-129.183-59.533h-114.979c35.546 86.705 131.431 148.832 244.161 148.832 142.993 0 258.913-99.951 258.913-223.248.001-123.299-115.919-223.251-258.914-223.251zM1360.913 2546.404c-85.798 0-155.349-60.172-155.349-134.396 0-74.225 69.551-134.396 155.349-134.396 53.858 0 101.312 23.717 129.181 59.732h114.979c-35.545-86.995-131.429-149.33-244.159-149.33-142.995 0-258.914 100.285-258.914 223.994 0 123.707 115.919 223.992 258.913 223.992 112.729 0 208.614-62.334 244.159-149.33h-114.979c-27.868 36.019-75.322 59.734-129.18 59.734z"/><path d="M1445.441 2379.342h-.054c-13.745 0-24.889 14.177-24.889 31.666 0 17.49 11.143 31.666 24.889 31.666H1844.384v-.025c13.387-.52 24.113-14.48 24.113-31.641 0-17.156-10.729-31.118-24.113-31.641v-.023l-398.943-.002z"/></svg>