<svg xmlns="http://www.w3.org/2000/svg" width="2048" height="2048" viewBox="718 1420 2048 2048"><path d="M2511.148 1419H975.021C834.219 1419 719 1534.219 719 1675.021v1536.127c0 140.825 115.219 256.021 256.021 256.021H2511.148c140.85 0 256.021-115.195 256.021-256.021V1675.021c.001-140.802-115.171-256.021-256.021-256.021zm-1151 1665.881h-256.98v-895.06h256.98v895.06zm-131.303-1025.599c-76.896 0-126.589-57.612-126.589-128.752 0-72.852 51.299-128.777 129.805-128.777 78.539 0 126.637 55.926 128.221 128.777 0 71.14-49.682 128.752-131.437 128.752zM2378.57 3084.896h-253.982v-496.05c0-115.324-91.745-194.005-191.249-194.005-75.96 0-163.189 57.579-183.103 108.823-7.258 18.286-9.071 43.931-9.071 69.561L1742 3084h-256l-.318-608.644c0-111.638-3.602-207.977-7.201-288.536h229.753l12.713 127.475h5.415c36.16-58.601 187.287-144.625 335.638-144.625 180.894 0 316.57 122.653 316.57 386.219v529.007z"/></svg>