<svg xmlns="http://www.w3.org/2000/svg" width="2048" height="2048" viewBox="718 1420 2048 2048"><path d="M1994.521 2252.001c-112.729 0-208.614 62.128-244.16 148.833h114.979c27.869-35.895 75.321-59.532 129.182-59.532 85.798 0 155.349 59.97 155.349 133.949s-69.552 133.95-155.349 133.95c-53.859 0-101.312-23.637-129.182-59.533h-114.979c35.546 86.705 131.431 148.832 244.161 148.832 142.993 0 258.913-99.951 258.913-223.248.001-123.299-115.919-223.251-258.914-223.251zM1424.913 2610.39c-85.798 0-155.349-60.171-155.349-134.396s69.551-134.396 155.349-134.396c53.858 0 101.312 23.717 129.181 59.732h114.979c-35.545-86.995-131.429-149.33-244.159-149.33-142.995 0-258.914 100.285-258.914 223.994 0 123.707 115.919 223.992 258.913 223.992 112.729 0 208.614-62.334 244.159-149.33h-114.979c-27.868 36.019-75.322 59.734-129.18 59.734z"/><path d="M1509.441 2443.328h-.053c-13.746 0-24.889 14.178-24.889 31.666 0 17.49 11.143 31.666 24.889 31.666h398.997v-.025c13.386-.521 24.113-14.481 24.113-31.641 0-17.156-10.728-31.118-24.113-31.641v-.024l-398.944-.001z"/></svg>