<?xml version="1.0" encoding="utf-8"?>
<!-- Generator: Adobe Illustrator 14.0.0, SVG Export Plug-In . SVG Version: 6.00 Build 43363)  -->
<!DOCTYPE svg PUBLIC "-//W3C//DTD SVG 1.1//EN" "http://www.w3.org/Graphics/SVG/1.1/DTD/svg11.dtd">
<svg version="1.1" id="Layer_1" xmlns="http://www.w3.org/2000/svg" xmlns:xlink="http://www.w3.org/1999/xlink" x="0px" y="0px"
	 width="2048px" height="2048px" viewBox="718 1420 2048 2048" enable-background="new 718 1420 2048 2048" xml:space="preserve">
<polyline points="1998,2891.999 2385.709,2891.999 2190,3084 "/>
<g>
	<path d="M1930.521,2188.015c-112.729,0-208.614,62.128-244.16,148.833h114.979c27.869-35.895,75.321-59.532,129.182-59.532
		c85.799,0,155.35,59.97,155.35,133.95c0,73.979-69.552,133.949-155.349,133.949c-53.859,0-101.312-23.637-129.183-59.533h-114.979
		c35.546,86.705,131.431,148.832,244.161,148.832c142.993,0,258.913-99.951,258.913-223.248
		C2189.436,2287.967,2073.516,2188.015,1930.521,2188.015z"/>
	<path d="M1360.913,2546.404c-85.798,0-155.349-60.172-155.349-134.396c0-74.225,69.551-134.396,155.349-134.396
		c53.858,0,101.312,23.717,129.181,59.732h114.979c-35.545-86.995-131.429-149.33-244.159-149.33
		c-142.995,0-258.914,100.285-258.914,223.994c0,123.707,115.919,223.992,258.913,223.992c112.729,0,208.614-62.334,244.159-149.33
		h-114.979C1462.225,2522.689,1414.771,2546.404,1360.913,2546.404z"/>
	<path d="M1445.441,2379.342L1445.441,2379.342c-0.02,0.001-0.034,0-0.054,0c-13.745,0-24.889,14.177-24.889,31.666
		c0,17.49,11.143,31.666,24.889,31.666c0.02,0,0.035,0,0.054,0l0,0h398.943v-0.025c13.387-0.52,24.113-14.48,24.113-31.641
		c0-17.156-10.729-31.118-24.113-31.641v-0.023L1445.441,2379.342L1445.441,2379.342z"/>
</g>
</svg>
