<?xml version="1.0" encoding="utf-8"?>
<!-- Generated by IcoMoon.io -->
<!DOCTYPE svg PUBLIC "-//W3C//DTD SVG 1.1//EN" "http://www.w3.org/Graphics/SVG/1.1/DTD/svg11.dtd">
<svg version="1.1" xmlns="http://www.w3.org/2000/svg" xmlns:xlink="http://www.w3.org/1999/xlink" width="32" height="32" viewBox="0 0 32 32">
<path fill="#444" d="M20 23h6.058l-3.058 3z"></path>
<path fill="#444" d="M18.946 12c-1.761 0-3.26 0.971-3.815 2.326h1.797c0.435-0.561 1.177-0.93 2.018-0.93 1.341 0 2.427 0.937 2.427 2.093s-1.087 2.093-2.427 2.093c-0.842 0-1.583-0.369-2.018-0.93h-1.797c0.555 1.355 2.054 2.326 3.815 2.326 2.234 0 4.046-1.562 4.046-3.488s-1.811-3.488-4.046-3.488z"></path>
<path fill="#444" d="M10.046 17.6c-1.341 0-2.427-0.94-2.427-2.1s1.087-2.1 2.427-2.1c0.842 0 1.583 0.371 2.018 0.933h1.797c-0.555-1.359-2.054-2.333-3.815-2.333-2.234 0-4.046 1.567-4.046 3.5s1.811 3.5 4.046 3.5c1.761 0 3.26-0.974 3.815-2.333h-1.797c-0.435 0.563-1.177 0.933-2.018 0.933z"></path>
<path fill="#444" d="M11.366 14.99v0c-0 0-0.001 0-0.001 0-0.215 0-0.389 0.222-0.389 0.495s0.174 0.495 0.389 0.495c0 0 0.001 0 0.001 0v0l6.233-0c0.209-0.008 0.377-0.226 0.377-0.494s-0.168-0.486-0.377-0.494v-0l-6.233-0z"></path>
</svg>
