<?xml version="1.0" encoding="utf-8"?>
<!-- Generator: Adobe Illustrator 14.0.0, SVG Export Plug-In . SVG Version: 6.00 Build 43363)  -->
<!DOCTYPE svg PUBLIC "-//W3C//DTD SVG 1.1//EN" "http://www.w3.org/Graphics/SVG/1.1/DTD/svg11.dtd">
<svg version="1.1" id="Layer_1" xmlns="http://www.w3.org/2000/svg" xmlns:xlink="http://www.w3.org/1999/xlink" x="0px" y="0px"
	 width="2048px" height="2048px" viewBox="718 1420 2048 2048" enable-background="new 718 1420 2048 2048" xml:space="preserve">
<g>
	<path d="M1994.521,2252.001c-112.729,0-208.614,62.128-244.16,148.833h114.979c27.869-35.895,75.321-59.532,129.182-59.532
		c85.798,0,155.349,59.97,155.349,133.949s-69.552,133.95-155.349,133.95c-53.859,0-101.312-23.637-129.182-59.533h-114.979
		c35.546,86.705,131.431,148.832,244.161,148.832c142.993,0,258.913-99.951,258.913-223.248
		C2253.436,2351.953,2137.516,2252.001,1994.521,2252.001z"/>
	<path d="M1424.913,2610.39c-85.798,0-155.349-60.171-155.349-134.396s69.551-134.396,155.349-134.396
		c53.858,0,101.312,23.717,129.181,59.732h114.979c-35.545-86.995-131.429-149.33-244.159-149.33
		C1281.919,2252,1166,2352.285,1166,2475.994c0,123.707,115.919,223.992,258.913,223.992c112.729,0,208.614-62.334,244.159-149.33
		h-114.979C1526.225,2586.675,1478.771,2610.39,1424.913,2610.39z"/>
	<path d="M1509.441,2443.328L1509.441,2443.328c-0.019,0.001-0.034,0-0.053,0c-13.746,0-24.889,14.178-24.889,31.666
		c0,17.49,11.143,31.666,24.889,31.666c0.019,0,0.035,0,0.053,0l0,0h398.944v-0.025c13.386-0.521,24.113-14.481,24.113-31.641
		c0-17.156-10.728-31.118-24.113-31.641v-0.024L1509.441,2443.328L1509.441,2443.328z"/>
</g>
</svg>
