<svg xmlns="http://www.w3.org/2000/svg" width="2048" height="2048" viewBox="0 0 2048 2048"><circle cx="480" cy="608" r="96"/><circle cx="480" cy="928" r="96"/><circle cx="480" cy="1248" r="96"/><path d="M800 704c.671 0 1.332-.037 2-.051V704h698v-.102c1.328.055 2.658.102 4 .102 53.02 0 96-42.98 96-96s-42.98-96-96-96c-1.342 0-2.672.047-4 .102V512H802v.051c-.668-.014-1.329-.051-2-.051-53.02 0-96 42.98-96 96s42.98 96 96 96zM1504 832c-1.342 0-2.672.047-4 .102V832H802v.051c-.668-.014-1.329-.051-2-.051-53.02 0-96 42.98-96 96s42.98 96 96 96c.671 0 1.332-.037 2-.051v.051h698v-.102c1.328.055 2.658.102 4 .102 53.02 0 96-42.98 96-96s-42.98-96-96-96zM1504 1152c-1.342 0-2.672.047-4 .102V1152H802v.051c-.668-.014-1.329-.051-2-.051-53.02 0-96 42.98-96 96s42.98 96 96 96c.671 0 1.332-.037 2-.051v.051h698v-.102c1.328.055 2.658.102 4 .102 53.02 0 96-42.98 96-96s-42.98-96-96-96z"/></svg>