<?xml version="1.0" encoding="utf-8"?>
<!-- Generated by IcoMoon.io -->
<!DOCTYPE svg PUBLIC "-//W3C//DTD SVG 1.1//EN" "http://www.w3.org/Graphics/SVG/1.1/DTD/svg11.dtd">
<svg version="1.1" xmlns="http://www.w3.org/2000/svg" xmlns:xlink="http://www.w3.org/1999/xlink" width="32" height="32" viewBox="0 0 32 32">
<path fill="#444" d="M23.984 14h0.168v-2.548c0-4.482-3.698-7.452-8.245-7.452s-8.245 2.97-8.245 7.452l-0.001 2.548c-1.105 0-1.678 0.895-1.678 2v12c0 1.105 0.895 2 2 2h16c1.105 0 2-0.895 2-2v-12c0-1.105-0.895-2-2-2zM20.488 14h-9.161v-2.548c0-2.421 2.097-3.788 4.58-3.788s4.58 1.367 4.58 3.788l0 2.548z"></path>
</svg>
