<?xml version="1.0" encoding="utf-8"?>
<!-- Generator: Adobe Illustrator 19.2.1, SVG Export Plug-In . SVG Version: 6.00 Build 0)  -->
<svg version="1.1" id="Layer_1" xmlns="http://www.w3.org/2000/svg" xmlns:xlink="http://www.w3.org/1999/xlink" x="0px" y="0px"
	 viewBox="0 0 1024 1024" style="enable-background:new 0 0 1024 1024;" xml:space="preserve">
<path d="M767.4,160.5c-16.4,0-29,4.9-45.2,11.8L186.9,385.2c-5.9-10.6-12.7-17-20.1-17c-21.2,0-38.3,50.1-38.3,111.8
	c0,61.8,17.2,111.8,38.3,111.8c7.4,0,14.2-6.4,20.1-16.9l99.2,39.6c7,51.3,45.5,101.3,95.9,120.3c14.6,5.1,28.9,7.7,42.4,7.7
	c17.2,0,33-4.2,46.5-12.5c11.9-7.4,21.1-18,27.7-30.8c0,0,242.5,96,241,93.9c8.7,4.1,18,6.5,28,6.5c87.8,0,127.8-165.6,127.8-319.5
	S855.2,160.5,767.4,160.5L767.4,160.5z M453.9,702.8c-15.6,9.6-37.3,10.2-61.1,1.9c-32.1-12.1-59.2-42.8-70.4-75.7l146.5,58.4
	C465,693.7,460.1,699,453.9,702.8L453.9,702.8z M767.4,735.6c-16.4,0-63.9-87.9-63.9-255.6s47.5-255.6,63.9-255.6
	s63.9,87.9,63.9,255.6S783.8,735.6,767.4,735.6z"/>
</svg>
