<?xml version="1.0" encoding="utf-8"?>
<!-- Generator: Adobe Illustrator 14.0.0, SVG Export Plug-In . SVG Version: 6.00 Build 43363)  -->
<!DOCTYPE svg PUBLIC "-//W3C//DTD SVG 1.1//EN" "http://www.w3.org/Graphics/SVG/1.1/DTD/svg11.dtd">
<svg version="1.1" id="Layer_1" xmlns="http://www.w3.org/2000/svg" xmlns:xlink="http://www.w3.org/1999/xlink" x="0px" y="0px"
	 width="2048px" height="2048px" viewBox="718 1420 2048 2048" enable-background="new 718 1420 2048 2048" xml:space="preserve">
<path d="M2372.626,2518.079l-256.471-257.129c-0.039-0.027-0.079-0.054-0.119-0.082c-5.738-5.455-13.493-8.81-22.037-8.81
	c-16.477,0-30.038,12.454-31.801,28.46c-0.125,0.714-0.189,1.404-0.199,2.071v161.538h-288c-17.673,0-32,14.326-32,32v127.932
	c0,17.673,14.327,32,32,32h288v161.797c0.021,0.302,0.059,0.606,0.128,0.916c1.407,16.374,15.134,29.228,31.872,29.228
	c7.941,0,15.201-2.898,20.794-7.688c1.104-0.554,2.096-1.241,2.941-2.087l254.892-254.892
	C2385.124,2550.836,2385.124,2530.575,2372.626,2518.079z"/>
<path d="M1806,2796c0,17.673-14.326,32-32,32h-448c-17.673,0-32-14.327-32-32v-704c0-17.673,14.327-32,32-32h224v224
	c0,17.673,14.327,32,32,32l352,0L1934,2252c0,0-320-320.001-320-320.001h-384c-35.346,0-64,28.654-64,64v896
	c0,35.347,28.654,64,64,64h640c35.346,0,64-28.653,64-64v-192h-128V2796z"/>
<rect x="1806" y="2252" width="128" height="128"/>
</svg>
