<svg xmlns="http://www.w3.org/2000/svg" width="2048" height="2048" viewBox="718 1420 2048 2048"><path d="M2372.626 2518.079l-256.471-257.129-.119-.082c-5.738-5.455-13.493-8.81-22.037-8.81-16.477 0-30.038 12.454-31.801 28.46a13.135 13.135 0 0 0-.199 2.071v161.538h-288c-17.673 0-32 14.326-32 32v127.932c0 17.673 14.327 32 32 32h288v161.797c.021.302.059.606.128.916 1.407 16.374 15.134 29.228 31.872 29.228a31.856 31.856 0 0 0 20.794-7.688c1.104-.554 2.096-1.241 2.941-2.087l254.892-254.892c12.498-12.497 12.498-32.758 0-45.254z"/><path d="M1806 2796c0 17.673-14.326 32-32 32h-448c-17.673 0-32-14.327-32-32v-704c0-17.673 14.327-32 32-32h224v224c0 17.673 14.327 32 32 32h352v-64l-320-320.001h-384c-35.346 0-64 28.654-64 64v896c0 35.347 28.654 64 64 64h640c35.346 0 64-28.653 64-64v-192h-128V2796z"/><path d="M1806 2252h128v128h-128z"/></svg>