<?xml version="1.0" encoding="utf-8"?>
<!-- Generated by IcoMoon.io -->
<!DOCTYPE svg PUBLIC "-//W3C//DTD SVG 1.1//EN" "http://www.w3.org/Graphics/SVG/1.1/DTD/svg11.dtd">
<svg version="1.1" xmlns="http://www.w3.org/2000/svg" xmlns:xlink="http://www.w3.org/1999/xlink" width="32" height="32" viewBox="0 0 32 32">
<path fill="#444" d="M25.854 17.157l-4.007-4.018c-0.001-0-0.001-0.001-0.002-0.001-0.090-0.085-0.211-0.138-0.344-0.138-0.257 0-0.469 0.195-0.497 0.445-0.002 0.011-0.003 0.022-0.003 0.032v2.524h-4.5c-0.276 0-0.5 0.224-0.5 0.5v1.999c0 0.276 0.224 0.5 0.5 0.5h4.5v2.528c0 0.005 0.001 0.009 0.002 0.014 0.022 0.256 0.236 0.457 0.498 0.457 0.124 0 0.238-0.045 0.325-0.12 0.017-0.009 0.033-0.019 0.046-0.033l3.983-3.983c0.195-0.195 0.195-0.512 0-0.707z"></path>
<path fill="#444" d="M17 21.5c0 0.276-0.224 0.5-0.5 0.5h-7c-0.276 0-0.5-0.224-0.5-0.5v-11c0-0.276 0.224-0.5 0.5-0.5h3.5v3.5c0 0.276 0.224 0.5 0.5 0.5h5.5v-1c0 0-5-5-5-5h-6c-0.552 0-1 0.448-1 1v14c0 0.552 0.448 1 1 1h10c0.552 0 1-0.448 1-1v-3h-2v1.5z"></path>
<path fill="#444" d="M17 13h2v2h-2v-2z"></path>
</svg>
