<?xml version="1.0" encoding="utf-8"?>
<!-- Generated by IcoMoon.io -->
<!DOCTYPE svg PUBLIC "-//W3C//DTD SVG 1.1//EN" "http://www.w3.org/Graphics/SVG/1.1/DTD/svg11.dtd">
<svg version="1.1" xmlns="http://www.w3.org/2000/svg" xmlns:xlink="http://www.w3.org/1999/xlink" width="32" height="32" viewBox="0 0 32 32">
<path fill="#444" d="M28.008 0h-23.949c-2.195 0-3.992 1.796-3.992 3.992v23.949c0 2.196 1.796 3.992 3.992 3.992h23.949c2.196 0 3.992-1.796 3.992-3.992v-23.949c0-2.195-1.796-3.992-3.991-3.992zM10.087 22.015l-0.573-0.009c-1.751-0.022-3.123-0.458-4.236-1.177 0.002-0.153 0.006-0.305 0.012-0.458-0.135 0.050-0.303 0.056-0.544-0.038-0.322-0.133-0.505-0.364-0.588-0.663-0.139-0.595-0.019-1.259 0.247-1.952 0.378-0.905 1.027-1.753 1.86-2.56 0.488-0.448 1.157-0.845 1.9-1.222-1.020-0.59-1.704-1.659-1.704-2.883 0-1.861 1.575-3.138 3.518-3.138s3.518 1.278 3.518 3.138c0 1.19-0.646 2.234-1.62 2.833 0.783 0.392 1.489 0.804 1.998 1.272 0.14 0.135 0.272 0.272 0.401 0.409-0.436 0.277-0.83 0.565-1.163 0.871-1.167 1.131-2.075 2.317-2.604 3.584-0.265 0.693-0.423 1.362-0.423 1.992zM27.865 22.756c-0.117 0.419-0.373 0.742-0.824 0.928-0.35 0.101-0.686 0.066-0.937-0.056 0.010 0.233 0.017 0.469 0.018 0.71-1.405 0.981-3.372 1.704-6.077 1.708l-1.236-0.020c-2.452-0.031-4.373-0.641-5.93-1.648 0.003-0.214 0.008-0.427 0.017-0.641-0.189 0.070-0.423 0.078-0.762-0.053-0.451-0.187-0.707-0.509-0.824-0.928-0.058-0.249-0.080-0.508-0.078-0.772-0.003 0-0.006 0-0.009 0.001 0.005-0.621 0.161-1.28 0.422-1.962 0.529-1.268 1.437-2.454 2.604-3.584 0.142-0.13 0.297-0.257 0.46-0.381 0.002 0.002 0.003 0.004 0.005 0.006 0.619-0.476 1.377-0.914 2.202-1.333-1.427-0.826-2.381-2.326-2.381-4.039 0-2.605 2.206-4.717 4.926-4.717s4.926 2.112 4.926 4.717c0 1.666-0.903 3.13-2.265 3.969 1.095 0.548 2.082 1.125 2.795 1.779 1.167 1.131 2.075 2.317 2.604 3.584 0.372 0.971 0.541 1.9 0.346 2.733z"></path>
</svg>
