<?xml version="1.0" encoding="utf-8"?>
<!-- Generated by IcoMoon.io -->
<!DOCTYPE svg PUBLIC "-//W3C//DTD SVG 1.1//EN" "http://www.w3.org/Graphics/SVG/1.1/DTD/svg11.dtd">
<svg version="1.1" xmlns="http://www.w3.org/2000/svg" xmlns:xlink="http://www.w3.org/1999/xlink" width="32" height="32" viewBox="0 0 32 32">
<path fill="#444" d="M26.398 20.395h-0.646c-0.063-0.288-0.174-0.559-0.322-0.807l0.433-0.403c0.189-0.183 0.191-0.48 0.002-0.662l-0.344-0.33c-0.189-0.182-0.497-0.181-0.686 0l-0.42 0.391c-0.24-0.14-0.502-0.248-0.78-0.315v-0.756c0-0.257-0.217-0.468-0.484-0.468h-0.474c-0.267 0-0.484 0.21-0.484 0.468v0.756c-0.278 0.068-0.54 0.175-0.78 0.315l-0.42-0.391c-0.189-0.181-0.498-0.182-0.686 0l-0.344 0.33c-0.189 0.182-0.187 0.479 0.002 0.662l0.433 0.403c-0.148 0.249-0.259 0.519-0.322 0.807h-0.646c-0.269 0-0.486 0.209-0.486 0.468v0.444c0 0.259 0.217 0.468 0.486 0.468h0.646c0.063 0.288 0.174 0.559 0.322 0.807l-0.433 0.403c-0.189 0.183-0.191 0.48-0.002 0.662l0.344 0.33c0.189 0.182 0.497 0.181 0.686 0l0.42-0.391c0.24 0.14 0.502 0.247 0.78 0.315v0.621c0 0.257 0.217 0.468 0.484 0.468h0.474c0.267 0 0.484-0.21 0.484-0.468v-0.621c0.278-0.068 0.54-0.175 0.78-0.315l0.42 0.391c0.189 0.181 0.498 0.182 0.686 0l0.344-0.33c0.189-0.182 0.187-0.479-0.002-0.662l-0.433-0.403c0.148-0.249 0.259-0.519 0.322-0.807h0.646c0.269 0 0.486-0.209 0.486-0.468v-0.444c-0-0.259-0.217-0.468-0.486-0.468zM22.977 21.96c-0.52 0-0.942-0.429-0.942-0.959s0.422-0.959 0.942-0.959 0.942 0.429 0.942 0.959c0 0.53-0.422 0.959-0.942 0.959z"></path>
<path fill="#444" d="M21.019 7.985h-12.047c-1.936 0-3.003 1.020-3.003 2.942v8.132c0 1.622 1.347 2.942 3.003 2.942h9.019l0.011-1.999h-8.306c-0.945 0-1.714-0.745-1.714-1.662v-6.125l6.939 4.835 7.065-4.808 0.038 3.795 1.999-0.004v-5.106c0-1.622-1.347-2.942-3.003-2.942zM8.64 10.329c0.291-0.202 0.657-0.317 1.055-0.317h10.569c0.392 0 0.754 0.112 1.043 0.309l-6.387 4.4-6.28-4.393z"></path>
</svg>
