<?xml version="1.0" encoding="utf-8"?>
<!-- Generator: Adobe Illustrator 14.0.0, SVG Export Plug-In . SVG Version: 6.00 Build 43363)  -->
<!DOCTYPE svg PUBLIC "-//W3C//DTD SVG 1.1//EN" "http://www.w3.org/Graphics/SVG/1.1/DTD/svg11.dtd">
<svg version="1.1" id="Layer_1" xmlns="http://www.w3.org/2000/svg" xmlns:xlink="http://www.w3.org/1999/xlink" x="0px" y="0px"
	 width="2048px" height="2048px" viewBox="718 1420 2048 2048" enable-background="new 718 1420 2048 2048" xml:space="preserve">
<path d="M2407.481,2725.291h-41.37c-4.031-18.436-11.159-35.753-20.611-51.667l27.698-25.791
	c12.071-11.709,12.216-30.706,0.115-42.378l-21.999-21.14c-12.066-11.635-31.807-11.564-43.912,0l-26.866,25.025
	c-15.384-8.975-32.102-15.844-49.919-20.19v-48.404c0-16.474-13.885-29.93-30.975-29.93h-14.438h-1.489h-14.433
	c-17.088,0-30.976,13.462-30.976,29.93v48.402c-17.813,4.348-34.537,11.218-49.915,20.188l-26.863-25.021
	c-12.109-11.566-31.847-11.636-43.918,0l-21.993,21.139c-12.106,11.671-11.962,30.67,0.11,42.377l27.699,25.793
	c-9.451,15.912-16.577,33.227-20.613,51.667h-41.364c-17.195,0-31.083,13.355-31.083,29.937v14.09v0.221v14.088
	c0,16.584,13.886,29.938,31.083,29.938h41.368c4.036,18.435,11.161,35.754,20.616,51.666l-27.7,25.791
	c-12.071,11.71-12.217,30.71-0.112,42.382l21.993,21.137c12.069,11.641,31.808,11.565,43.917,0l26.866-25.021
	c15.38,8.972,32.103,15.841,49.912,20.19v39.743c0,16.471,13.887,29.926,30.976,29.926h14.435h1.489h14.438
	c17.093,0,30.975-13.456,30.975-29.926v-39.743c17.815-4.35,34.537-11.219,49.922-20.19l26.863,25.021
	c12.104,11.565,31.845,11.641,43.913,0l21.997-21.137c12.104-11.674,11.956-30.672-0.112-42.382l-27.698-25.79
	c9.45-15.913,16.578-33.226,20.611-51.667h41.372c17.195,0,31.082-13.354,31.082-29.937v-14.09v-0.221v-14.09
	C2438.564,2738.647,2424.68,2725.291,2407.481,2725.291z M2188.529,2825.426c-33.285,0-60.266-27.474-60.266-61.361
	c0-33.889,26.98-61.36,60.266-61.36s60.27,27.472,60.27,61.36C2248.802,2797.954,2221.814,2825.426,2188.529,2825.426z"/>
<path d="M2063.222,1931.012h-771.039c-123.924,0-192.176,65.262-192.176,188.275v520.444c0,103.814,86.21,188.273,192.176,188.273
	h577.191l0.682-127.938H1338.48c-60.484,0-109.691-47.71-109.691-106.352v-391.974l444.099,309.431l452.142-307.734l2.407,242.881
	l127.961-0.264v-326.768C2255.397,2015.472,2169.188,1931.012,2063.222,1931.012z M1270.993,2081.067
	c18.624-12.904,42.058-20.278,67.487-20.278h676.441c25.099,0,48.25,7.188,66.755,19.782l-408.788,281.615L1270.993,2081.067z"/>
</svg>
