<svg xmlns="http://www.w3.org/2000/svg" width="2048" height="2048" viewBox="718 1420 2048 2048"><path d="M1775.64 2744.702c-140.193-58.981-173.363-79.524-173.363-79.524l-1.363-135.812s52.506-40.813 68.964-168.567c32.682 9.565 67.248-49.396 69.099-80.638 1.751-29.854-4.604-113.145-44.65-104.82 8.104-62.743 13.962-118.936 11.219-148.922-10.335-109.109-116.735-224.14-280.37-224.14-163.382 0-269.889 115.028-280.371 224.139-2.737 29.991 3.121 86.18 11.355 148.922-40.157-8.323-46.519 74.967-44.648 104.82 1.871 31.241 36.292 90.203 69.216 80.638 16.213 127.754 68.845 168.567 68.845 168.567l-1.371 135.812s-33.305 20.543-173.238 79.524c-140.434 59.071-281.98 100.392-324.017 166.677C718 2986.01 718 3340 718 3340h1408.115s-.168-351.429-26.577-428.621c-23.142-61.204-159.822-102.204-323.898-166.677zM2741.503 2958.944c-24.058-64.393-38.575-95.757-168.875-148.238-130.297-52.499-161.26-70.698-161.26-70.698l-1.039-120.705s48.769-36.286 63.992-149.887c30.451 8.49 62.435-44.129 64.237-71.689 1.548-26.562-4.244-100.621-41.534-93.265 7.472-55.735 13.161-105.854 10.57-132.292-9.661-97.135-108.633-199.378-260.594-199.378-151.976 0-250.802 102.243-260.606 199.378-2.578 26.438 2.829 76.562 10.574 132.292-37.406-7.356-43.34 66.703-41.538 93.265 1.812 27.562 33.793 80.182 64.237 71.689 15.225 113.601 64.129 149.887 64.129 149.887l-1.383 118.928c145.591 94.434 159.51 176.052 159.51 176.052 11.675 106.987 13.089 257.039 13.089 425.72h511.109c.019-.003-.489-322.495-24.618-381.059z"/></svg>