<?xml version="1.0" encoding="utf-8"?>
<!-- Generated by IcoMoon.io -->
<!DOCTYPE svg PUBLIC "-//W3C//DTD SVG 1.1//EN" "http://www.w3.org/Graphics/SVG/1.1/DTD/svg11.dtd">
<svg version="1.1" xmlns="http://www.w3.org/2000/svg" xmlns:xlink="http://www.w3.org/1999/xlink" width="32" height="32" viewBox="0 0 32 32">
<path fill="#444" d="M16.526 20.698c-2.191-0.922-2.709-1.243-2.709-1.243l-0.021-2.122c0 0 0.82-0.638 1.078-2.634 0.511 0.149 1.051-0.772 1.080-1.26 0.027-0.466-0.072-1.768-0.698-1.638 0.127-0.98 0.218-1.858 0.175-2.327-0.162-1.705-1.824-3.502-4.381-3.502-2.553 0-4.217 1.797-4.381 3.502-0.043 0.469 0.049 1.347 0.177 2.327-0.627-0.13-0.727 1.171-0.698 1.638 0.029 0.488 0.567 1.409 1.082 1.26 0.253 1.996 1.076 2.634 1.076 2.634l-0.021 2.122c0 0-0.52 0.321-2.707 1.243-2.194 0.923-4.406 1.569-5.063 2.604-0.515 1.166-0.515 6.697-0.515 6.697h22.002c0 0-0.003-5.491-0.415-6.697-0.362-0.956-2.497-1.597-5.061-2.604z"></path>
<path fill="#444" d="M31.617 24.046c-0.376-1.006-0.603-1.496-2.639-2.316s-2.52-1.105-2.52-1.105l-0.016-1.886c0 0 0.762-0.567 1-2.342 0.476 0.133 0.976-0.69 1.004-1.12 0.024-0.415-0.066-1.572-0.649-1.457 0.117-0.871 0.206-1.654 0.165-2.067-0.151-1.518-1.697-3.115-4.072-3.115s-3.919 1.598-4.072 3.115c-0.040 0.413 0.044 1.196 0.165 2.067-0.584-0.115-0.677 1.042-0.649 1.457 0.028 0.431 0.528 1.253 1.004 1.12 0.238 1.775 1.002 2.342 1.002 2.342l-0.022 1.858c2.275 1.476 2.492 2.751 2.492 2.751 0.182 1.672 0.204 4.016 0.204 6.652h7.986c0-0-0.008-5.039-0.385-5.954z"></path>
</svg>
