<?xml version="1.0" encoding="utf-8"?>
<!-- Generator: Adobe Illustrator 14.0.0, SVG Export Plug-In . SVG Version: 6.00 Build 43363)  -->
<!DOCTYPE svg PUBLIC "-//W3C//DTD SVG 1.1//EN" "http://www.w3.org/Graphics/SVG/1.1/DTD/svg11.dtd">
<svg version="1.1" id="Layer_1" xmlns="http://www.w3.org/2000/svg" xmlns:xlink="http://www.w3.org/1999/xlink" x="0px" y="0px"
	 width="2048px" height="2048px" viewBox="718 1420 2048 2048" enable-background="new 718 1420 2048 2048" xml:space="preserve">
<g id="_x33_2-move" display="none">
	<path display="inline" d="M2266,3288h-384c-35.346,0-64,28.654-64,64v1024c0,35.347,28.654,64,64,64h704c35.346,0,64-28.653,64-64
		v-192h-128v96c0,17.673-14.326,32-32,32h-512c-17.673,0-32-14.327-32-32v-832c0-17.673,14.327-32,32-32h224v288
		c0,17.673,14.327,32,32,32h288l0,0h128v-64L2266,3288z"/>
	<path display="inline" d="M3088.627,3938.02l-256.471-257.129c-0.039-0.025-0.079-0.055-0.119-0.082
		c-5.738-5.455-13.493-8.811-22.037-8.811c-16.477,0-30.038,12.454-31.801,28.46c-0.125,0.714-0.189,1.404-0.199,2.071v161.538h-288
		c-17.673,0-32,14.325-32,32V4024c0,17.673,14.327,32,32,32h288v161.797c0.021,0.302,0.059,0.605,0.128,0.916
		c1.407,16.374,15.134,29.229,31.872,29.229c7.941,0,15.201-2.897,20.794-7.688c1.104-0.554,2.096-1.241,2.94-2.087l254.893-254.892
		C3101.124,3970.777,3101.124,3950.515,3088.627,3938.02z"/>
</g>
<g id="_x31_6-assigned" display="none">
	<path display="inline" d="M2493.64,4228.702c-140.191-58.981-173.361-79.524-173.361-79.524l-1.363-135.812
		c0,0,52.506-40.813,68.964-168.567c32.684,9.565,67.248-49.396,69.1-80.638c1.754-29.854-4.604-113.146-44.649-104.82
		c8.104-62.743,13.962-118.936,11.219-148.922c-10.335-109.109-116.735-224.14-280.37-224.14
		c-163.382,0-269.889,115.026-280.371,224.139c-2.735,29.991,3.121,86.18,11.355,148.922c-40.157-8.323-46.521,74.967-44.648,104.82
		c1.871,31.24,36.292,90.203,69.217,80.638c16.214,127.754,68.846,168.567,68.846,168.567l-1.371,135.812
		c0,0-33.305,20.543-173.238,79.524c-140.434,59.07-281.979,100.392-324.017,166.677C1436,4470.009,1436,4824,1436,4824h707.176
		h700.939c0,0-0.168-351.429-26.577-428.621C2794.396,4334.174,2657.716,4293.174,2493.64,4228.702z"/>
	<path display="inline" d="M3459.503,4442.944c-24.058-64.395-38.575-95.757-168.875-148.238
		c-130.297-52.499-161.26-70.698-161.26-70.698l-1.039-120.705c0,0,48.769-36.285,63.991-149.887
		c30.45,8.49,62.436-44.129,64.237-71.689c1.548-26.562-4.243-100.619-41.534-93.265c7.473-55.735,13.162-105.854,10.569-132.292
		c-9.659-97.135-108.633-199.378-260.594-199.378c-151.976,0-250.802,102.243-260.604,199.378
		c-2.578,26.438,2.827,76.562,10.572,132.292c-37.404-7.354-43.34,66.703-41.538,93.265c1.812,27.562,33.793,80.184,64.237,71.689
		c15.226,113.602,64.13,149.887,64.13,149.887l-1.384,118.928c145.591,94.436,159.511,176.054,159.511,176.054
		c11.674,106.985,13.088,257.039,13.088,425.72h511.108C3484.14,4824,3483.632,4501.507,3459.503,4442.944z"/>
</g>
<g id="_x31_6-check" display="none">
	<polygon display="inline" points="3229,3032 2204,4058 1692.011,3543.991 1436,3799.729 2203,4696 3484,3288 	"/>
</g>
<g id="_x31_6-attach" display="none">
	<path id="clip_2_" display="inline" fill="#333333" d="M3208.391,3119.339c-196.754-201.788-515.92-201.788-712.684,0
		l-817.072,827.444c-152.846,156.599-152.846,411.498,0,568.141c152.854,156.648,401.521,156.648,554.244,0l817.078-827.467
		c109.32-112.096,109.32-293.734,0-405.83c-109.367-112.012-286.663-112.012-395.931,0l-614.182,629.511
		c-21.878,22.467-21.878,58.687,0,81.163c21.862,22.458,57.313,22.458,79.187,0l614.229-629.521
		c65.522-67.091,172.053-67.091,237.562,0c65.521,67.146,65.521,176.379,0,243.521l-817.019,827.41
		c-109.372,112.095-286.556,112.095-395.934,0c-109.374-112.031-109.374-293.729,0-405.766l809.032-819.383
		c153.115-156.896,401.402-156.896,554.298,0c153.173,156.963,153.173,411.219,0.106,568.123l-606.244,621.381
		c-22.026,22.526-22.026,58.742,0,81.157c21.879,22.523,57.262,22.523,79.184,0l614.146-629.462
		C3405.258,3648.082,3405.258,3321,3208.391,3119.339z"/>
</g>
<g id="_x31_6-insert-link" display="none">
	<path display="inline" fill="#010101" d="M2842.956,2967.646h-64.015c-1.827,0-3.622,0.119-5.418,0.273h-697.537
		c-70.708,0-128.026,57.319-128.026,128.029v511.837h128.026V3159.96c0-35.354,28.665-64.012,64.015-64.012h574.932v447.823
		c0,35.351,28.656,64.015,64.013,64.015h448.102v960.21c0,35.354-28.66,64.01-64.017,64.01H2140
		c-35.35,0-64.015-28.656-64.015-64.01v-320.07h-128.026v384.08c0,70.707,57.319,128.028,128.026,128.028h1151.056
		c70.708,0,128.025-57.321,128.025-128.028V3543.771v-64.02L2842.956,2967.646z"/>
	<path display="inline" d="M2699.688,3894.386l-411.737-400.771c-0.058-0.044-0.122-0.082-0.173-0.126
		c-8.963-8.509-21.037-13.732-34.356-13.732c-25.683,0-46.825,19.413-49.565,44.36c-0.188,1.116-0.293,2.188-0.314,3.229v207.771
		h-588.926c-27.537,0-49.874,22.333-49.874,49.879v283.413c0,27.554,22.337,49.874,49.874,49.874h588.922v212.188
		c0.034,0.455,0.099,0.939,0.2,1.424c2.199,25.521,23.597,45.553,49.683,45.553c12.376,0,23.688-4.521,32.412-11.986
		c1.722-0.848,3.265-1.925,4.579-3.255l409.275-397.28C2719.18,3945.443,2719.18,3913.863,2699.688,3894.386z"/>
</g>
<g id="_x31_6-restore" display="none">
	<path display="inline" d="M2588.554,2843.5c-445.959,0-828.581,337.809-896.554,764.632h-256L1820,4248l384.015-639.868H1947
		c64.513-284.761,337.278-508.953,641.554-508.953c353.021,0,639.196,286.18,639.196,639.196
		c0,353.018-286.179,639.196-639.196,639.196c-145.481,0-277.124-46.714-384.554-128.571l-127.773,223.105
		c145.142,101.527,321.763,161.145,512.327,161.145c494.229,0,894.876-400.648,894.876-894.875S3082.777,2843.5,2588.554,2843.5z"/>
</g>
<g id="_x31_6-preview" display="none">
	<g display="inline">
		<rect x="1822.932" y="3482.605" fill="#010101" width="383.289" height="127.763"/>
		<path fill="#010101" d="M3465.141,4740.986L3246.753,4522.6c68.759-94.746,109.337-211.275,109.337-337.299
			c0-249.915-159.475-462.55-382.197-541.788v-224.334v-63.937l-511.459-511.453h-63.933c-1.824,0-3.618,0.121-5.412,0.275h-825.582
			c-70.619,0-127.864,57.246-127.864,127.866v1150.503v127.258v256.333c0,70.61,57.245,127.86,127.864,127.86h854.069
			c98.47,79.032,223.49,126.352,359.579,126.352c126.021,0,242.551-40.577,337.3-109.337l218.384,218.388
			c24.95,24.95,65.396,24.95,90.345,0l37.957-37.956C3490.09,4806.38,3490.09,4765.938,3465.141,4740.986z M1631.44,4506.023
			c-35.307,0-63.934-28.623-63.934-63.933v-192.399v-127.257V3035.858c0-35.311,28.627-63.929,63.934-63.929h703.133v447.249
			c0,35.31,28.619,63.936,63.928,63.936h447.524v130.921c-21.298-2.396-42.938-3.665-64.871-3.665
			c-136.897,0-262.602,47.878-361.336,127.763h-596.888v127.766h480.138c-26.386,39.416-48.009,82.273-64.084,127.764h-416.052
			v127.763h386.843c-2.319,20.979-3.555,42.286-3.555,63.882c0,118.762,36.018,229.104,97.709,320.726L1631.44,4506.023
			L1631.44,4506.023z M2780.87,4631.903c-246.808,0-446.886-200.078-446.886-446.89c0-246.809,200.078-446.886,446.886-446.886
			s446.888,200.078,446.888,446.886C3227.758,4431.825,3027.678,4631.903,2780.87,4631.903z"/>
	</g>
</g>
<g id="_x31_6-copylink" display="none">
	<path display="inline" fill="#010101" d="M3110.275,3793.284l-288.129,288.407c-159.028,159.34-417.029,159.34-576.062,0
		c-25.062-24.99-44.658-53.187-61.866-82.263l133.877-134.051c6.368-6.425,14.228-10.104,21.729-14.446
		c9.249,31.682,25.41,61.653,50.276,86.546c79.412,79.576,208.663,79.479,288.031,0l288.031-288.407
		c79.466-79.568,79.466-208.938,0-288.454c-79.368-79.522-208.562-79.522-288.031,0l-102.438,102.676
		c-83.104-32.417-172.662-41.131-259.84-28.333l218.265-218.547c159.132-159.294,417.023-159.294,576.164,0
		C3269.312,3375.708,3269.312,3633.996,3110.275,3793.284z M2348.578,4267.528l-102.493,102.673
		c-79.42,79.472-208.667,79.472-288.085,0c-79.416-79.572-79.416-208.938,0-288.501l288.085-288.416
		c79.468-79.575,208.614-79.575,288.028,0c24.822,24.851,40.979,54.823,50.33,86.442c7.562-4.391,15.318-7.966,21.688-14.342
		L2740,3731.395c-17.104-29.181-36.798-57.269-61.855-82.311c-159.041-159.291-417.03-159.291-576.112,0L1814,3937.495
		c-159.084,159.339-159.084,417.574,0,576.918c159.082,159.231,417.03,159.231,576.113,0l218.312-218.604
		C2521.186,4308.657,2431.624,4299.895,2348.578,4267.528z"/>
</g>
<g id="_x31_6-download" display="none">
	<g display="inline">
		<polygon points="2971.936,4119.895 2971.936,4247.875 1948.089,4247.875 1948.089,4119.895 1691.881,4119.895 1692.128,4503.836 
			3227.896,4503.836 3227.896,4119.895 		"/>
		<polygon points="2971.936,3607.967 2715.971,3607.969 2715.971,3224.028 2204.051,3224.028 2204.053,3607.971 1948.089,3607.971 
			2460.012,4119.895 		"/>
	</g>
</g>
<g id="_x31_6-info" display="none">
	<path display="inline" d="M2461.75,3095.693c-423.909,0-767.556,343.647-767.556,767.556
		c0,423.909,343.646,767.558,767.556,767.558s767.557-343.646,767.557-767.558
		C3229.307,3439.341,2885.659,3095.693,2461.75,3095.693z M2565.407,4324.65c-71.044,70.966-138.285,110.338-201.735,118.094
		c-43.688,5.341-76.793-1.967-99.284-21.91c-22.503-19.943-35.462-43.973-38.896-72.056c-2.158-17.679-1.566-34.376,1.793-50.104
		c3.352-15.72,7.204-31.764,11.539-48.13l110.657-325.508c6.153-18.692,10.389-33.738,12.696-45.104
		c2.298-11.362,2.948-21.211,1.934-29.535c-1.019-8.311-3.311-14.104-6.873-17.368c-3.564-3.25-7.955-4.569-13.149-3.938
		c-13.526,1.651-37.272,25.414-71.267,71.271c-33.982,45.856-54.625,69.226-61.898,70.117c-8.328,1.015-17.35-3.684-27.062-14.109
		c-9.729-10.418-14.771-17.196-15.151-20.316c-1.271-10.399,6.535-28.521,23.447-54.339c16.896-25.821,38.842-53.57,65.834-83.273
		c24.116-27.222,53.889-53.562,89.321-79.018c35.419-25.438,67.69-39.949,96.822-43.512c46.812-5.72,83.541,3.252,110.19,26.917
		c26.646,23.664,42.265,54.218,46.837,91.67c1.911,15.604,2.387,32.442,1.424,50.502c-0.963,18.068-5.496,37.097-13.608,57.089
		l-86.732,275.076c-6.688,22.989-11.299,41.508-13.802,55.538c-2.515,14.035-3.441,23.654-2.809,28.849
		c0.764,6.237,2.798,9.948,6.108,11.129c3.31,1.182,6.525,1.576,9.646,1.194c22.885-2.796,47.664-22.45,74.353-58.971
		c26.68-36.521,44.182-55.288,52.51-56.308c7.276-0.891,15.745,3.617,25.409,13.521c9.646,9.908,14.736,16.939,15.243,21.102
		C2670.938,4209.875,2636.436,4253.688,2565.407,4324.65z M2661.491,3478.312c-24.145,31.452-55.977,49.6-95.489,54.431
		c-38.5,4.705-73.497-5.271-105.017-29.919c-31.521-24.655-49.63-56.219-54.337-94.717c-4.702-38.484,5.27-73.492,29.923-105.014
		c24.648-31.521,56.214-49.629,94.716-54.338c39.518-4.831,74.783,5.112,105.786,29.828c30.995,24.72,48.854,56.324,53.562,94.807
		C2695.34,3411.889,2685.618,3446.855,2661.491,3478.312z"/>
</g>
<g id="_x31_6-view" display="none">
	<path display="inline" d="M3227.896,3863.842c0-31.49-11.468-60.296-30.434-82.553h0.102
		c-773.48-935.816-1430.985-60.723-1473.69-1.729c-19.861,22.479-31.931,51.971-31.931,84.279c0,31.166,11.22,59.71,29.835,81.87
		h-0.13c0,0,675.941,960.296,1475.916,1.374h-0.695C3216.189,3924.738,3227.896,3895.664,3227.896,3863.842z M2459.918,4246.665
		c-212.069,0-383.988-171.394-383.988-382.822c0-211.426,171.92-382.821,383.988-382.821c212.073,0,383.99,171.396,383.99,382.821
		C2843.908,4075.271,2671.991,4246.665,2459.918,4246.665z"/>
	<ellipse display="inline" cx="2459.92" cy="3863.843" rx="127.997" ry="127.608"/>
</g>
<g id="_x31_6-workflow" display="none">
	<g display="inline">
		<polygon points="3036.096,3096.046 2332.083,3095.969 1948,3928 2332,3928 2076,4632 3036,3672 2588,3672 		"/>
	</g>
</g>
<g id="_x31_6-closed" display="none">
	<polygon display="inline" fill="none" points="2395.043,4375.886 2659.076,4051.756 2394.513,4375.312 	"/>
	<path display="inline" d="M3272.271,3306.276c34.271-58.812,21.287-135.343-33.517-179.306
		c-60.476-48.514-148.97-38.996-197.66,21.262L2206.699,4120l-322.673-297.878c-54.835-59.104-147.375-62.721-206.689-8.083
		c-59.317,54.637-62.95,146.84-8.113,205.943L2204,4632L3272.271,3306.276z"/>
</g>
<path fill="#231F20" d="M2128.907,2688.443c-77.637-34.16-165.44-72.023-203.512-110.787
	c-33.818-34.461-40.938-69.615-41.622-103.451c41.794-44.356,73.765-107.034,92.817-176.838
	c11.984-6.019,26.001-32.331,33.864-65.667c9.416-39.837,15.638-77.904-6.483-77.35c-2.373,0.061-4.871-0.297-7.479-0.7
	c0.016-1.761,0.07-3.518,0.07-5.274c0-194.624-103.094-280.375-253.866-280.375c-150.696,0-254.01,85.751-254.01,280.375
	c0,1.761,0.054,3.528,0.073,5.286c-2.552,0.398-5.038,0.749-7.38,0.688c-22.126-0.554-15.897,37.513-6.493,77.35
	c7.873,33.261,21.815,59.535,33.799,65.638c19.042,69.727,51.009,132.362,92.778,176.715c-0.667,33.883-7.772,69.096-41.638,103.604
	c-38.039,38.764-125.86,76.627-203.5,110.787c-203.929,89.721-188.206,254.316-190.328,268.268h1152.697
	C2316.586,2942.76,2332.829,2778.164,2128.907,2688.443z"/>
</svg>
