<?xml version="1.0" encoding="utf-8"?>
<!-- Generated by IcoMoon.io -->
<!DOCTYPE svg PUBLIC "-//W3C//DTD SVG 1.1//EN" "http://www.w3.org/Graphics/SVG/1.1/DTD/svg11.dtd">
<svg version="1.1" xmlns="http://www.w3.org/2000/svg" xmlns:xlink="http://www.w3.org/1999/xlink" width="32" height="32" viewBox="0 0 32 32">
<path fill="#444" d="M23.007 20.075c-2.788-1.132-3.447-1.526-3.447-1.526l-0.027-2.606c0 0 1.044-0.783 1.371-3.235 0.65 0.184 1.337-0.948 1.374-1.547 0.035-0.573-0.092-2.171-0.888-2.011 0.161-1.204 0.278-2.282 0.223-2.858-0.206-2.094-2.321-4.301-5.575-4.301-3.249 0-5.367 2.207-5.575 4.301-0.054 0.576 0.062 1.654 0.226 2.858-0.799-0.16-0.925 1.439-0.888 2.011 0.037 0.6 0.722 1.731 1.376 1.547 0.322 2.451 1.369 3.235 1.369 3.235l-0.027 2.606c0 0-0.662 0.394-3.445 1.526-2.793 1.133-5.607 1.926-6.443 3.198-0.655 1.432-0.655 6.72-0.655 6.72h28c0 0-0.003-5.239-0.528-6.72-0.46-1.174-3.178-1.961-6.441-3.198z"></path>
</svg>
