<svg xmlns="http://www.w3.org/2000/svg" width="2048" height="2048" viewBox="718 1420 2048 2048"><path fill="#231F20" d="M2429.753 2878.34c-137.891-60.672-293.84-127.92-361.456-196.771-60.066-61.206-72.712-123.643-73.926-183.74 74.229-78.779 131.014-190.101 164.852-314.079 21.285-10.69 46.182-57.423 60.146-116.633 16.725-70.755 27.775-138.364-11.515-137.381-4.215.107-8.651-.528-13.282-1.243.027-3.127.124-6.248.124-9.368 0-345.67-183.104-497.973-450.892-497.973-267.65 0-451.146 152.303-451.146 497.973 0 3.127.097 6.267.13 9.389-4.532.708-8.947 1.33-13.107 1.222-39.298-.983-28.235 66.626-11.532 137.381 13.984 59.075 38.747 105.741 60.031 116.58 33.822 123.842 90.596 235.086 164.782 313.865-1.186 60.177-13.805 122.72-73.954 184.007-67.56 68.851-223.538 136.099-361.434 196.771-362.197 159.352-335.108 564.883-338.877 589.66H2766c-3.749-24.777 25.938-430.308-336.247-589.66z"/></svg>