<svg xmlns="http://www.w3.org/2000/svg" width="2048" height="2048" viewBox="718 1420 2048 2048"><path d="M2125.972 2380.102h511.687l-255.646 256.022M1808.403 2686.439c-77.638-34.16-165.44-72.023-203.513-110.787-33.817-34.461-40.938-69.615-41.621-103.451 41.794-44.355 73.765-107.033 92.816-176.837 11.984-6.02 26.001-32.331 33.864-65.667 9.416-39.837 15.638-77.904-6.483-77.351-2.373.062-4.871-.297-7.479-.699.016-1.762.07-3.519.07-5.274 0-194.624-103.095-280.375-253.866-280.375-150.696 0-254.011 85.751-254.011 280.375 0 1.761.055 3.528.073 5.286-2.552.398-5.038.749-7.38.688-22.126-.554-15.896 37.514-6.493 77.351 7.873 33.261 21.815 59.535 33.799 65.638 19.042 69.728 51.01 132.363 92.778 176.714-.667 33.885-7.771 69.098-41.638 103.605-38.039 38.764-125.86 76.627-203.5 110.787-203.929 89.721-188.206 254.314-190.328 268.268h1152.696c-2.105-13.955 14.138-178.55-189.784-268.271z"/></svg>