<?xml version="1.0" encoding="utf-8"?>
<!-- Generated by IcoMoon.io -->
<!DOCTYPE svg PUBLIC "-//W3C//DTD SVG 1.1//EN" "http://www.w3.org/Graphics/SVG/1.1/DTD/svg11.dtd">
<svg version="1.1" xmlns="http://www.w3.org/2000/svg" xmlns:xlink="http://www.w3.org/1999/xlink" width="32" height="32" viewBox="0 0 32 32">
<path fill="#444" d="M26.746 22.787c-2.155-0.948-4.591-1.999-5.648-3.075-0.939-0.956-1.136-1.932-1.155-2.871 1.16-1.231 2.047-2.97 2.576-4.907 0.333-0.167 0.722-0.897 0.94-1.822 0.261-1.106 0.434-2.162-0.18-2.147-0.066 0.002-0.135-0.008-0.208-0.019 0-0.049 0.002-0.098 0.002-0.146 0-5.401-2.861-7.781-7.045-7.781-4.182 0-7.049 2.38-7.049 7.781 0 0.049 0.002 0.098 0.002 0.147-0.071 0.011-0.14 0.021-0.205 0.019-0.614-0.015-0.441 1.041-0.18 2.147 0.219 0.923 0.605 1.652 0.938 1.822 0.528 1.935 1.416 3.673 2.575 4.904-0.019 0.94-0.216 1.918-1.156 2.875-1.056 1.076-3.493 2.127-5.647 3.075-5.659 2.49-5.236 8.826-5.295 9.213h31.989c-0.059-0.387 0.405-6.724-5.254-9.213z"></path>
</svg>
