<svg xmlns="http://www.w3.org/2000/svg" width="2048" height="2048" viewBox="718 1420 2048 2048"><path fill="#231F20" d="M2128.907 2688.443c-77.637-34.16-165.44-72.023-203.512-110.787-33.818-34.461-40.938-69.615-41.622-103.451 41.794-44.356 73.765-107.034 92.817-176.838 11.984-6.019 26.001-32.331 33.864-65.667 9.416-39.837 15.638-77.904-6.483-77.35-2.373.061-4.871-.297-7.479-.7.016-1.761.07-3.518.07-5.274 0-194.624-103.094-280.375-253.866-280.375-150.696 0-254.01 85.751-254.01 280.375 0 1.761.054 3.528.073 5.286-2.552.398-5.038.749-7.38.688-22.126-.554-15.897 37.513-6.493 77.35 7.873 33.261 21.815 59.535 33.799 65.638 19.042 69.727 51.009 132.362 92.778 176.715-.667 33.883-7.772 69.096-41.638 103.604-38.039 38.764-125.86 76.627-203.5 110.787-203.929 89.721-188.206 254.316-190.328 268.268h1152.697c-2.108-13.952 14.135-178.548-189.787-268.269z"/></svg>