<svg xmlns="http://www.w3.org/2000/svg" width="2048" height="2048" viewBox="718 1420 2048 2048"><path d="M2190.479 2704.785c-178.417-72.437-220.629-97.666-220.629-97.666l-1.736-166.786s66.825-50.121 87.771-207.017c41.59 11.746 85.579-60.662 87.936-99.029 2.229-36.664-5.866-138.953-56.827-128.731 10.314-77.055 17.769-146.062 14.281-182.887-13.156-133.995-148.564-275.262-356.809-275.262-207.922 0-343.466 141.264-356.807 275.26-3.484 36.833 3.973 105.834 14.452 182.888-51.104-10.223-59.199 92.066-56.82 128.728 2.381 38.367 46.186 110.778 88.085 99.032 20.63 156.891 87.612 207.013 87.612 207.013l-1.746 166.789s-42.381 25.229-220.468 97.664c-178.72 72.541-358.857 123.288-412.352 204.69-41.921 91.657-41.921 430.101-41.921 430.101h1792s-.217-335.299-33.822-430.096c-29.451-75.162-203.396-125.517-412.2-204.691z"/></svg>