<?xml version="1.0" encoding="utf-8"?>
<!-- Generator: Adobe Illustrator 14.0.0, SVG Export Plug-In . SVG Version: 6.00 Build 43363)  -->
<!DOCTYPE svg PUBLIC "-//W3C//DTD SVG 1.1//EN" "http://www.w3.org/Graphics/SVG/1.1/DTD/svg11.dtd">
<svg version="1.1" id="Layer_1" xmlns="http://www.w3.org/2000/svg" xmlns:xlink="http://www.w3.org/1999/xlink" x="0px" y="0px"
	 width="2048px" height="2048px" viewBox="718 1420 2048 2048" enable-background="new 718 1420 2048 2048" xml:space="preserve">
<polyline points="2125.972,2380.102 2637.659,2380.102 2382.013,2636.124 "/>
<path d="M1808.403,2686.439c-77.638-34.16-165.44-72.023-203.513-110.787c-33.817-34.461-40.938-69.615-41.621-103.451
	c41.794-44.355,73.765-107.033,92.816-176.837c11.984-6.02,26.001-32.331,33.864-65.667c9.416-39.837,15.638-77.904-6.483-77.351
	c-2.373,0.062-4.871-0.297-7.479-0.699c0.016-1.762,0.07-3.519,0.07-5.274c0-194.624-103.095-280.375-253.866-280.375
	c-150.696,0-254.011,85.751-254.011,280.375c0,1.761,0.055,3.528,0.073,5.286c-2.552,0.398-5.038,0.749-7.38,0.688
	c-22.126-0.554-15.896,37.514-6.493,77.351c7.873,33.261,21.815,59.535,33.799,65.638c19.042,69.728,51.01,132.363,92.778,176.714
	c-0.667,33.885-7.771,69.098-41.638,103.605c-38.039,38.764-125.86,76.627-203.5,110.787
	c-203.929,89.721-188.206,254.314-190.328,268.268h1152.696C1996.082,2940.755,2012.325,2776.16,1808.403,2686.439z"/>
</svg>
