<?xml version="1.0" encoding="utf-8"?>
<!-- Generated by IcoMoon.io -->
<!DOCTYPE svg PUBLIC "-//W3C//DTD SVG 1.1//EN" "http://www.w3.org/Graphics/SVG/1.1/DTD/svg11.dtd">
<svg version="1.1" xmlns="http://www.w3.org/2000/svg" xmlns:xlink="http://www.w3.org/1999/xlink" width="32" height="32" viewBox="0 0 32 32">
<path fill="#444" d="M29.428 23.333c-0.84-1.277-3.664-2.072-6.459-3.207-2.794-1.135-3.458-1.529-3.458-1.529l-0.025-2.613c0 0 1.047-0.784 1.371-3.243 0.655 0.185 1.343-0.952 1.381-1.551 0.035-0.577-0.091-2.178-0.889-2.017 0.162-1.205 0.281-2.289 0.223-2.863-0.209-2.099-2.328-4.313-5.59-4.313s-5.384 2.214-5.591 4.313c-0.058 0.574 0.060 1.657 0.223 2.863-0.799-0.161-0.926 1.44-0.889 2.017 0.037 0.599 0.724 1.736 1.38 1.551 0.325 2.459 1.374 3.243 1.374 3.243l-0.028 2.613c0 0-0.662 0.394-3.458 1.529-2.794 1.135-5.619 1.93-6.459 3.207-0.754 1.144-0.527 6.643-0.527 6.643h27.95c0 0 0.229-5.499-0.527-6.643z"></path>
</svg>
