<svg xmlns="http://www.w3.org/2000/svg" width="2048" height="2048" viewBox="0 0 2048 2048"><path d="M1984.416 1573.26c-34.235-74.934-455.706-189.767-490.531-191.699a122.71 122.71 0 0 0-28.146 2.007c-57.456 10.905-120.742 61.408-253.683 170.573-149.92-64.177-354.916-235.512-451.688-336.588-104.51-109.154-234.933-293.046-281.973-430.426 151.55-124.545 214.681-178.651 218.848-238.741 2.092-32.36-70.269-433.874-146.494-474.575-6.564-3.531-14.299-8.214-22.783-13.329C479.597 31.504 406.2-12.309 324.755 3.145c-19.793 3.793-38.856 10.976-56.87 21.318C213.101 56.349 79.407 142.46 18.513 254.934c-37.657 70.034-54.778 709.401 461.963 1249.607 510.809 534.261 1140.69 557.527 1235.372 539.576l2.535-.484 8.331-2.195c127.582-42.507 235.97-155.328 276.774-201.969 75.032-86.046 21.428-188.384-7.452-243.301-4.469-8.558-8.495-16.201-11.62-22.908z"/></svg>