<?xml version="1.0" encoding="utf-8"?>
<!-- Generated by IcoMoon.io -->
<!DOCTYPE svg PUBLIC "-//W3C//DTD SVG 1.1//EN" "http://www.w3.org/Graphics/SVG/1.1/DTD/svg11.dtd">
<svg version="1.1" xmlns="http://www.w3.org/2000/svg" xmlns:xlink="http://www.w3.org/1999/xlink" width="32" height="32" viewBox="0 0 32 32">
<path fill="#444" d="M25.278 23.975c-0.402-0.948-5.357-2.4-5.766-2.425-0.107-0.005-0.219 0.003-0.331 0.025-0.675 0.138-1.419 0.777-2.982 2.157-1.762-0.812-4.172-2.979-5.309-4.257-1.228-1.381-2.761-3.707-3.314-5.444 1.781-1.575 2.523-2.26 2.572-3.020 0.025-0.409-0.826-5.488-1.722-6.003-0.077-0.045-0.168-0.104-0.268-0.169-0.569-0.367-1.431-0.921-2.389-0.725-0.233 0.048-0.457 0.139-0.669 0.27-0.644 0.403-2.215 1.493-2.931 2.915-0.443 0.886-0.644 8.973 5.43 15.806 6.004 6.758 13.408 7.052 14.521 6.825l0.030-0.006 0.098-0.028c1.5-0.538 2.774-1.965 3.253-2.555 0.882-1.088 0.252-2.383-0.088-3.077-0.052-0.108-0.1-0.205-0.137-0.29z"></path>
<path fill="#444" d="M27.974 15.998h2.002c0-7.721-6.275-13.98-14.016-13.98v1.997c6.635 0 12.014 5.365 12.014 11.983z"></path>
<path fill="#444" d="M15.961 6.012v1.997c4.423 0 8.009 3.577 8.009 7.989h2.002c0-5.515-4.482-9.986-10.011-9.986z"></path>
<path fill="#444" d="M15.961 10.006v1.997c2.212 0 4.005 1.788 4.005 3.994h2.002c0-3.309-2.689-5.992-6.007-5.992z"></path>
</svg>
