<svg xmlns="http://www.w3.org/2000/svg" width="2048" height="2048" viewBox="0 0 2048 2048"><path d="M1617.808 1534.422c-25.755-60.664-342.819-153.624-369.015-155.188a86.27 86.27 0 0 0-21.18 1.623c-43.22 8.827-90.824 49.715-190.834 138.079-112.777-51.946-266.991-190.642-339.792-272.468-78.619-88.364-176.73-237.229-212.118-348.438 114.007-100.82 161.497-144.621 164.633-193.269 1.575-26.196-52.863-351.229-110.206-384.178-4.931-2.854-10.756-6.649-17.133-10.79-36.395-23.457-91.609-58.924-152.873-46.413-14.896 3.064-29.235 8.883-42.786 17.256-41.213 25.811-141.788 95.521-187.594 186.572-28.325 56.692-41.21 574.269 347.52 1011.575 384.268 432.496 858.116 451.331 929.338 436.803l1.908-.393 6.266-1.779c95.982-34.4 177.511-125.737 208.209-163.497 56.448-69.655 16.118-152.497-5.603-196.957-3.359-6.923-6.392-13.112-8.74-18.538zM1790.355 1023.876H1918.5c0-494.152-401.608-894.749-897.014-894.749v127.825c424.638 0 768.869 343.36 768.869 766.924z"/><path d="M1021.486 384.772v127.82c283.094 0 512.578 228.913 512.578 511.283h128.146c.001-352.966-286.861-639.103-640.724-639.103z"/><path d="M1021.486 640.413v127.822c141.551 0 256.289 114.456 256.289 255.641h128.145c0-211.782-172.115-383.463-384.434-383.463z"/></svg>