<?xml version="1.0" encoding="utf-8"?>
<!-- Generator: Adobe Illustrator 14.0.0, SVG Export Plug-In . SVG Version: 6.00 Build 43363)  -->
<!DOCTYPE svg PUBLIC "-//W3C//DTD SVG 1.1//EN" "http://www.w3.org/Graphics/SVG/1.1/DTD/svg11.dtd">
<svg version="1.1" id="Layer_1" xmlns="http://www.w3.org/2000/svg" xmlns:xlink="http://www.w3.org/1999/xlink" x="0px" y="0px"
	 width="2048px" height="2048px" viewBox="718 1420 2048 2048" enable-background="new 718 1420 2048 2048" xml:space="preserve">
<path display="none" d="M2713.959,1681.707c-264.969,96.714-2201.381,924.484-1969.218,839.82
	c-29.307,10.691-35.853,36.853-1.027,51.275c41.453,17.188,487.667,248.389,487.667,248.389l234.835,495.983
	c4.545,26.443,16.486,30.309,34.183,15.024c22.12-19.088,180.916-236.815,241.915-317.854
	c176.024,87.039,409.769,179.496,434.739,193.406c30.015,16.694,69.009,2.829,77.66-35.78
	c10.207-45.537,503.521-1416.094,509.854-1444.228C2772.785,1691.092,2749.439,1668.778,2713.959,1681.707z M2505.368,1927.462
	c-11.094,12.512-953.067,961.897-953.067,961.897l-0.206-0.128l-66.815,323.34l-190.8-426.342
	c263.841-200.478,1176.54-871.746,1189.144-881.328C2498.854,1893.314,2516.459,1915.051,2505.368,1927.462z"/>
<path d="M718,2696.921L1358,2828L1610.595,3468L1870,2956l640,382.985L2766,1420L718,2696.921z M1742,2828l-128,320l-128-384
	l1088-1088L1742,2828z"/>
</svg>
