<svg xmlns="http://www.w3.org/2000/svg" width="2048" height="2048" viewBox="0 0 2048 2048"><g fill="#010101"><path d="M386.932 642.605h383.289v127.763H386.932z"/><path d="M2029.14 1900.986L1810.753 1682.6c68.759-94.746 109.337-211.277 109.337-337.298 0-249.915-159.475-462.55-382.197-541.788V515.243L1026.434 3.79h-63.933c-1.824 0-3.618.121-5.412.276H131.507C60.888 4.066 3.643 61.312 3.643 131.932v1534.093c0 70.613 57.245 127.863 127.864 127.863h854.069c98.47 79.032 223.491 126.349 359.579 126.349 126.022 0 242.551-40.577 337.3-109.337l218.384 218.388c24.95 24.95 65.396 24.95 90.345 0l37.957-37.956c24.949-24.951 24.949-65.394-.001-90.346zm-1833.7-234.962c-35.306 0-63.933-28.624-63.933-63.931V195.859c0-35.31 28.627-63.928 63.933-63.928h703.133V579.18c0 35.307 28.619 63.933 63.928 63.933h447.525v130.921c-21.296-2.393-42.937-3.665-64.871-3.665-136.898 0-262.6 47.878-361.336 127.763H386.932v127.764h480.136a572.762 572.762 0 0 0-64.084 127.763H386.933v127.763h386.842c-2.32 20.979-3.553 42.286-3.553 63.882 0 118.761 36.016 229.104 97.709 320.724l-672.491-.004zm1149.43 125.879c-246.808 0-446.886-200.078-446.886-446.887S1098.062 898.13 1344.87 898.13s446.888 200.078 446.888 446.886c0 246.809-200.08 446.887-446.888 446.887z"/></g></svg>