<svg xmlns="http://www.w3.org/2000/svg" width="2048" height="2048" viewBox="0 0 2048 2048"><path d="M640.201 511.799L1408 512v192H640.201zM832.401 1344H1216v64H832zM832 1216.201h384.2l-.28 63.719-383.519.08z"/><path d="M1466.796 769.121H578.644c-70.074 0-130.163 53.523-130.163 123.596L448 1280h192v320h768v-320h192V896c0-70.072-63.129-126.879-133.204-126.879zM671.72 960c-17.517 0-31.72-14.202-31.72-31.72 0-17.517 14.203-31.72 31.72-31.72 17.518 0 31.72 14.203 31.72 31.72 0 17.518-14.203 31.72-31.72 31.72zm668.197 322.802v253.759H705.523v-380.638h634.394v126.879z"/></svg>