<?xml version="1.0" encoding="utf-8"?>
<!-- Generated by IcoMoon.io -->
<!DOCTYPE svg PUBLIC "-//W3C//DTD SVG 1.1//EN" "http://www.w3.org/Graphics/SVG/1.1/DTD/svg11.dtd">
<svg version="1.1" xmlns="http://www.w3.org/2000/svg" xmlns:xlink="http://www.w3.org/1999/xlink" width="32" height="32" viewBox="0 0 32 32">
<path fill="#444" d="M28.018-0.016h-24.002c-2.2 0-4 1.8-4 4v24.002c0 2.2 1.8 4 4 4h24.002c2.201 0 4-1.8 4-4v-24.002c0-2.2-1.8-4-4-4zM24.699 26.010v1.831c-3.222 0.623-4.739-0.679-5.734-2.52-0.794 0.198-1.622 0.306-2.474 0.306-5.797 0-10.494-4.837-10.494-10.805 0-5.966 4.697-10.803 10.494-10.803 5.794 0 10.494 4.837 10.494 10.803 0 3.885-1.991 7.287-4.981 9.192 0.63 1.47 2.695 1.997 2.695 1.997z"></path>
<path fill="#444" d="M16.57 6.729c-2.959 0-5.359 3.017-5.359 6.739 0 0.477 0 2.305 0 2.782 0 3.722 2.4 6.739 5.359 6.739 0.429 0 0.845-0.064 1.244-0.184-1.066-1.859-2.622-1.922-2.622-1.922v-2.124c2.294-0.13 4.102 0.896 5.256 2.143 0.918-1.21 1.278-2.847 1.278-4.651 0-0.477 0-2.305 0-2.782-0-3.722-2.194-6.739-5.156-6.739z"></path>
</svg>
