<svg xmlns="http://www.w3.org/2000/svg" width="2048" height="2048" viewBox="718 1420 2048 2048"><path d="M2511.148 1419H975.021C834.219 1419 719 1534.219 719 1675.021v1536.127c0 140.825 115.219 256.021 256.021 256.021H2511.148c140.85 0 256.021-115.195 256.021-256.021V1675.021c.001-140.802-115.171-256.021-256.021-256.021zm-212.397 1665.638v117.178c-206.221 39.901-303.286-43.466-367.004-161.303-50.784 12.644-103.817 19.574-158.348 19.574-370.989 0-671.613-309.587-671.613-691.495 0-381.815 300.624-691.402 671.613-691.402 370.848 0 671.612 309.586 671.612 691.402 0 248.611-127.423 466.399-318.753 588.265 40.292 94.05 172.496 127.779 172.493 127.781z"/><path d="M1778.458 1850.676c-189.405 0-342.976 193.061-342.976 431.271v178.069c0 238.212 153.571 431.272 342.976 431.272 27.462 0 54.063-4.118 79.643-11.8-68.208-118.968-167.809-122.987-167.809-122.987v-135.926c146.824-8.343 262.534 57.323 336.363 137.13 58.759-77.466 81.794-182.192 81.794-297.691v-178.067c-.001-238.208-140.443-431.271-329.991-431.271z"/></svg>