<?xml version="1.0" encoding="utf-8"?>
<!-- Generated by IcoMoon.io -->
<!DOCTYPE svg PUBLIC "-//W3C//DTD SVG 1.1//EN" "http://www.w3.org/Graphics/SVG/1.1/DTD/svg11.dtd">
<svg version="1.1" xmlns="http://www.w3.org/2000/svg" xmlns:xlink="http://www.w3.org/1999/xlink" width="32" height="32" viewBox="0 0 32 32">
<path fill="#444" d="M13.511 13.594c0 0.45-0.365 0.815-0.815 0.815s-0.815-0.365-0.815-0.815c0-0.45 0.365-0.815 0.815-0.815s0.815 0.365 0.815 0.815z"></path>
<path fill="#444" d="M16.777 13.594c0 0.45-0.365 0.815-0.815 0.815s-0.815-0.365-0.815-0.815c0-0.45 0.365-0.815 0.815-0.815s0.815 0.365 0.815 0.815z"></path>
<path fill="#444" d="M20.044 13.594c0 0.45-0.365 0.815-0.815 0.815s-0.815-0.365-0.815-0.815c0-0.45 0.365-0.815 0.815-0.815s0.815 0.365 0.815 0.815z"></path>
<path fill="#444" d="M23.502 11.084c-0.319-0.78-0.776-1.48-1.359-2.082-0.586-0.606-1.271-1.082-2.035-1.416-0.795-0.348-1.64-0.524-2.51-0.524h-3.214c-0.87 0-1.714 0.176-2.51 0.524-0.764 0.334-1.448 0.81-2.035 1.416-0.583 0.602-1.040 1.303-1.359 2.082-0.329 0.805-0.496 1.658-0.496 2.535 0 1.576 0.554 3.099 1.561 4.289 0.603 0.712 1.519 1.277 2.341 1.665v4.484l5.696-4.002h0.015c0.87 0 1.714-0.054 2.509-0.402 0.764-0.334 1.448-0.81 2.035-1.416 0.583-0.602 1.040-1.303 1.359-2.082 0.329-0.805 0.496-1.658 0.496-2.535s-0.167-1.731-0.496-2.535zM17.637 18.064h-0.871l-2.786 2.358v-2.323c-2.13-0.323-3.994-2.198-3.994-4.513 0-2.54 1.971-4.599 4.403-4.599h3.249c2.432 0 4.403 2.059 4.403 4.599s-1.971 4.478-4.403 4.478z"></path>
</svg>
