<?xml version="1.0" encoding="utf-8"?>
<!-- Generator: Adobe Illustrator 14.0.0, SVG Export Plug-In . SVG Version: 6.00 Build 43363)  -->
<!DOCTYPE svg PUBLIC "-//W3C//DTD SVG 1.1//EN" "http://www.w3.org/Graphics/SVG/1.1/DTD/svg11.dtd">
<svg version="1.1" id="Layer_1" xmlns="http://www.w3.org/2000/svg" xmlns:xlink="http://www.w3.org/1999/xlink" x="0px" y="0px"
	 width="2048px" height="2048px" viewBox="718 1420 2048 2048" enable-background="new 718 1420 2048 2048" xml:space="preserve">
<polyline points="2128.22,2764.163 2515.929,2764.163 2320.22,2956.164 "/>
<g>
	<circle cx="1399.564" cy="2287.99" r="52.135"/>
	<circle cx="1608.603" cy="2287.989" r="52.135"/>
	<circle cx="1817.64" cy="2287.989" r="52.134"/>
	<path d="M2091.136,2127.378c-20.425-49.889-49.69-94.722-86.983-133.253c-37.528-38.771-81.339-69.261-130.211-90.619
		c-50.908-22.246-104.947-33.524-160.614-33.524H1507.64c-55.667,0-109.705,11.279-160.612,33.524
		c-48.875,21.357-92.685,51.847-130.213,90.619c-37.294,38.531-66.56,83.364-86.982,133.253
		c-21.08,51.492-31.768,106.08-31.768,162.249c0,100.882,35.485,198.366,99.918,274.493
		c38.564,45.562,105.203,81.736,157.838,106.543v286.947l356.562-256.113h0.946c55.667,0,109.703-3.48,160.608-25.721
		c48.877-21.357,92.688-51.846,130.217-90.619c37.296-38.531,66.562-83.369,86.985-133.264
		c21.079-51.495,31.767-106.088,31.767-162.267C2122.904,2233.458,2112.216,2178.87,2091.136,2127.378z M1715.743,2574.073h-55.748
		l-178.323,150.936v-148.68c-136.292-20.695-255.625-140.688-255.625-288.829c0-162.565,126.146-294.35,281.767-294.35h207.931
		c155.621,0,281.767,131.784,281.767,294.35C1997.509,2450.112,1871.364,2574.073,1715.743,2574.073z"/>
</g>
</svg>
