<svg xmlns="http://www.w3.org/2000/svg" width="2048" height="2048" viewBox="718 1420 2048 2048"><circle cx="1530.577" cy="2289.993" r="52.135"/><circle cx="1739.615" cy="2289.992" r="52.135"/><circle cx="1948.652" cy="2289.992" r="52.134"/><path d="M2222.148 2129.381c-20.424-49.889-49.69-94.722-86.983-133.253-37.528-38.772-81.339-69.261-130.211-90.619-50.908-22.246-104.947-33.525-160.614-33.525h-205.688c-55.667 0-109.705 11.28-160.612 33.525-48.875 21.357-92.685 51.846-130.213 90.619-37.294 38.531-66.559 83.364-86.982 133.253-21.08 51.492-31.768 106.08-31.768 162.249 0 100.881 35.485 198.365 99.918 274.492 38.565 45.563 97.203 81.737 149.838 106.543v286.947l364.561-256.113h.947c55.667 0 109.703-3.479 160.608-25.721 48.877-21.356 92.688-51.845 130.217-90.618 37.296-38.532 66.563-83.369 86.985-133.265 21.079-51.494 31.767-106.088 31.767-162.266-.001-56.168-10.689-110.756-31.77-162.248zm-375.392 446.695h-55.748l-178.323 150.935v-148.679c-136.292-20.696-255.625-140.688-255.625-288.829 0-162.566 126.146-294.35 281.766-294.35h207.931c155.621 0 281.767 131.784 281.767 294.35-.002 162.612-126.147 286.573-281.768 286.573z"/></svg>