<?xml version="1.0" encoding="utf-8"?>
<!-- Generator: Adobe Illustrator 14.0.0, SVG Export Plug-In . SVG Version: 6.00 Build 43363)  -->
<!DOCTYPE svg PUBLIC "-//W3C//DTD SVG 1.1//EN" "http://www.w3.org/Graphics/SVG/1.1/DTD/svg11.dtd">
<svg version="1.1" id="Layer_1" xmlns="http://www.w3.org/2000/svg" xmlns:xlink="http://www.w3.org/1999/xlink" x="0px" y="0px"
	 width="2048px" height="2048px" viewBox="718 1420 2048 2048" enable-background="new 718 1420 2048 2048" xml:space="preserve">
<g id="_x33_2-move" display="none">
	<path display="inline" d="M2266,3288h-384c-35.346,0-64,28.654-64,64v1024c0,35.347,28.654,64,64,64h704c35.346,0,64-28.653,64-64
		v-192h-128v96c0,17.673-14.326,32-32,32h-512c-17.673,0-32-14.327-32-32v-832c0-17.673,14.327-32,32-32h224v288
		c0,17.673,14.327,32,32,32h288l0,0h128v-64L2266,3288z"/>
	<path display="inline" d="M3088.626,3938.02l-256.471-257.129c-0.039-0.025-0.079-0.054-0.119-0.082
		c-5.738-5.455-13.493-8.81-22.037-8.81c-16.477,0-30.038,12.454-31.801,28.46c-0.125,0.714-0.189,1.404-0.199,2.071v161.538h-288
		c-17.673,0-32,14.326-32,32V4024c0,17.673,14.327,32,32,32h288v161.797c0.021,0.302,0.059,0.605,0.128,0.916
		c1.407,16.374,15.134,29.229,31.872,29.229c7.941,0,15.201-2.897,20.794-7.688c1.104-0.554,2.096-1.241,2.94-2.087l254.893-254.892
		C3101.124,3970.777,3101.124,3950.516,3088.626,3938.02z"/>
</g>
<g id="_x31_6-assigned" display="none">
	<path display="inline" d="M2493.639,4228.702c-140.192-58.981-173.362-79.524-173.362-79.524l-1.363-135.812
		c0,0,52.506-40.813,68.964-168.567c32.683,9.565,67.248-49.396,69.099-80.638c1.754-29.854-4.604-113.146-44.649-104.82
		c8.104-62.743,13.962-118.936,11.219-148.922c-10.335-109.109-116.735-224.14-280.37-224.14
		c-163.382,0-269.889,115.027-280.371,224.139c-2.736,29.991,3.121,86.18,11.355,148.922c-40.157-8.323-46.52,74.967-44.648,104.82
		c1.871,31.24,36.292,90.203,69.217,80.638c16.213,127.754,68.845,168.567,68.845,168.567l-1.371,135.812
		c0,0-33.306,20.543-173.238,79.524c-140.434,59.07-281.979,100.392-324.017,166.677C1436,4470.01,1436,4824,1436,4824h707.176
		h700.939c0,0-0.168-351.429-26.577-428.621C2794.396,4334.175,2657.715,4293.175,2493.639,4228.702z"/>
	<path display="inline" d="M3459.502,4442.944c-24.058-64.394-38.575-95.757-168.875-148.238
		c-130.297-52.499-161.26-70.698-161.26-70.698l-1.039-120.705c0,0,48.769-36.285,63.991-149.887
		c30.45,8.49,62.436-44.129,64.237-71.689c1.548-26.562-4.243-100.621-41.534-93.265c7.473-55.735,13.162-105.854,10.57-132.292
		c-9.66-97.135-108.633-199.378-260.594-199.378c-151.977,0-250.802,102.243-260.605,199.378
		c-2.578,26.438,2.828,76.562,10.573,132.292c-37.405-7.355-43.34,66.703-41.538,93.265c1.812,27.562,33.793,80.183,64.237,71.689
		c15.225,113.602,64.13,149.887,64.13,149.887l-1.384,118.928c145.591,94.435,159.511,176.053,159.511,176.053
		c11.674,106.986,13.088,257.039,13.088,425.72h511.109C3484.139,4824,3483.631,4501.508,3459.502,4442.944z"/>
</g>
<g id="_x31_6-check" display="none">
	<polygon display="inline" points="3229,3032 2204,4058 1692.01,3543.991 1436,3799.729 2203,4696 3484,3288 	"/>
</g>
<g id="_x31_6-attach" display="none">
	<path id="clip_2_" display="inline" fill="#333333" d="M3208.39,3119.34c-196.754-201.788-515.92-201.788-712.684,0
		l-817.072,827.444c-152.846,156.599-152.846,411.498,0,568.141c152.854,156.649,401.521,156.649,554.244,0l817.078-827.467
		c109.32-112.095,109.32-293.734,0-405.83c-109.367-112.012-286.663-112.012-395.931,0l-614.181,629.511
		c-21.878,22.467-21.878,58.686,0,81.163c21.862,22.458,57.313,22.458,79.186,0l614.229-629.521
		c65.522-67.091,172.053-67.091,237.562,0c65.521,67.145,65.521,176.377,0,243.521l-817.018,827.41
		c-109.372,112.095-286.556,112.095-395.934,0c-109.374-112.031-109.374-293.729,0-405.765l809.032-819.384
		c153.116-156.896,401.403-156.896,554.298,0c153.173,156.963,153.173,411.218,0.107,568.123l-606.244,621.38
		c-22.027,22.527-22.027,58.743,0,81.158c21.879,22.523,57.261,22.523,79.183,0l614.146-629.462
		C3405.257,3648.082,3405.257,3321,3208.39,3119.34z"/>
</g>
<g id="_x31_6-insert-link" display="none">
	<path display="inline" fill="#010101" d="M2842.956,2967.646h-64.015c-1.827,0-3.622,0.119-5.418,0.273h-697.537
		c-70.708,0-128.026,57.319-128.026,128.029v511.837h128.026V3159.96c0-35.354,28.665-64.012,64.015-64.012h574.932v447.823
		c0,35.351,28.656,64.015,64.012,64.015h448.101v960.21c0,35.354-28.659,64.01-64.016,64.01H2140
		c-35.35,0-64.015-28.656-64.015-64.01v-320.07h-128.026v384.08c0,70.707,57.319,128.028,128.026,128.028h1151.056
		c70.708,0,128.025-57.321,128.025-128.028V3543.771v-64.019L2842.956,2967.646z"/>
	<path display="inline" d="M2699.687,3894.387l-411.737-400.771c-0.057-0.044-0.122-0.082-0.173-0.126
		c-8.963-8.51-21.037-13.732-34.356-13.732c-25.683,0-46.825,19.413-49.565,44.36c-0.189,1.116-0.293,2.188-0.315,3.229v207.771
		h-588.925c-27.537,0-49.874,22.333-49.874,49.879v283.413c0,27.554,22.337,49.874,49.874,49.874h588.922v212.188
		c0.034,0.455,0.099,0.939,0.2,1.424c2.199,25.521,23.597,45.552,49.683,45.552c12.376,0,23.688-4.522,32.412-11.986
		c1.722-0.848,3.265-1.925,4.579-3.255l409.275-397.281C2719.179,3945.443,2719.179,3913.863,2699.687,3894.387z"/>
</g>
<g id="_x31_6-restore" display="none">
	<path display="inline" d="M2588.553,2843.5c-445.959,0-828.581,337.809-896.554,764.632h-256L1820,4248l384.015-639.868H1947
		c64.513-284.761,337.278-508.953,641.554-508.953c353.021,0,639.196,286.18,639.196,639.196
		c0,353.018-286.179,639.196-639.196,639.196c-145.482,0-277.124-46.714-384.554-128.571l-127.773,223.105
		c145.141,101.528,321.762,161.145,512.327,161.145c494.228,0,894.876-400.648,894.876-894.875S3082.777,2843.5,2588.553,2843.5z"/>
</g>
<g id="_x31_6-preview" display="none">
	<g display="inline">
		<rect x="1822.931" y="3482.605" fill="#010101" width="383.289" height="127.763"/>
		<path fill="#010101" d="M3465.14,4740.986L3246.752,4522.6c68.759-94.746,109.337-211.275,109.337-337.298
			c0-249.915-159.475-462.55-382.197-541.788V3419.18v-63.937l-511.459-511.453H2398.5c-1.824,0-3.618,0.121-5.412,0.276h-825.582
			c-70.619,0-127.864,57.246-127.864,127.865v1150.504v127.257v256.333c0,70.611,57.245,127.861,127.864,127.861h854.069
			c98.47,79.032,223.49,126.351,359.579,126.351c126.021,0,242.551-40.577,337.3-109.337l218.384,218.388
			c24.95,24.95,65.396,24.95,90.345,0l37.957-37.956C3490.089,4806.381,3490.089,4765.938,3465.14,4740.986z M1631.44,4506.023
			c-35.307,0-63.934-28.623-63.934-63.932v-192.4v-127.257V3035.859c0-35.311,28.627-63.929,63.934-63.929h703.133v447.249
			c0,35.309,28.619,63.935,63.928,63.935h447.524v130.921c-21.297-2.395-42.938-3.665-64.871-3.665
			c-136.897,0-262.601,47.878-361.336,127.763H1822.93v127.765h480.138c-26.386,39.416-48.009,82.274-64.084,127.763h-416.052
			v127.764h386.843c-2.32,20.979-3.555,42.285-3.555,63.882c0,118.761,36.018,229.104,97.709,320.724L1631.44,4506.023
			L1631.44,4506.023z M2780.87,4631.903c-246.808,0-446.886-200.078-446.886-446.888s200.078-446.887,446.886-446.887
			s446.888,200.078,446.888,446.887C3227.757,4431.825,3027.677,4631.903,2780.87,4631.903z"/>
	</g>
</g>
<g id="_x31_6-copylink" display="none">
	<path display="inline" fill="#010101" d="M3110.275,3793.284l-288.129,288.407c-159.028,159.34-417.029,159.34-576.062,0
		c-25.062-24.99-44.658-53.186-61.866-82.262l133.877-134.051c6.368-6.425,14.227-10.105,21.729-14.446
		c9.249,31.681,25.41,61.653,50.277,86.545c79.412,79.577,208.663,79.479,288.031,0l288.031-288.407
		c79.466-79.568,79.466-208.937,0-288.454c-79.368-79.522-208.562-79.522-288.031,0l-102.438,102.676
		c-83.104-32.417-172.662-41.131-259.84-28.333l218.265-218.547c159.132-159.294,417.024-159.294,576.164,0
		C3269.312,3375.709,3269.312,3633.996,3110.275,3793.284z M2348.578,4267.528l-102.493,102.673
		c-79.42,79.472-208.667,79.472-288.085,0c-79.416-79.572-79.416-208.938,0-288.501l288.085-288.416
		c79.468-79.575,208.614-79.575,288.028,0c24.822,24.851,40.979,54.823,50.33,86.443c7.562-4.39,15.319-7.966,21.689-14.341
		L2740,3731.395c-17.104-29.18-36.798-57.268-61.855-82.31c-159.041-159.291-417.031-159.291-576.113,0l-288.032,288.411
		c-159.084,159.339-159.084,417.574,0,576.918c159.082,159.232,417.03,159.232,576.113,0l218.312-218.605
		C2521.185,4308.657,2431.624,4299.895,2348.578,4267.528z"/>
</g>
<g id="_x31_6-download" display="none">
	<g display="inline">
		<polygon points="2971.935,4119.895 2971.935,4247.875 1948.088,4247.875 1948.088,4119.895 1691.88,4119.895 1692.127,4503.837 
			3227.896,4503.837 3227.896,4119.895 		"/>
		<polygon points="2971.935,3607.968 2715.97,3607.97 2715.97,3224.029 2204.05,3224.029 2204.052,3607.972 1948.088,3607.972 
			2460.011,4119.895 		"/>
	</g>
</g>
<g id="_x31_6-info" display="none">
	<path display="inline" d="M2461.75,3095.694c-423.909,0-767.556,343.647-767.556,767.556
		c0,423.909,343.646,767.557,767.556,767.557s767.557-343.646,767.557-767.557
		C3229.306,3439.342,2885.659,3095.694,2461.75,3095.694z M2565.407,4324.65c-71.044,70.966-138.285,110.338-201.735,118.094
		c-43.689,5.341-76.793-1.967-99.284-21.91c-22.503-19.943-35.462-43.973-38.896-72.056c-2.158-17.679-1.566-34.376,1.793-50.104
		c3.352-15.72,7.204-31.764,11.539-48.13l110.657-325.508c6.154-18.692,10.389-33.738,12.697-45.104
		c2.298-11.363,2.948-21.211,1.933-29.535c-1.018-8.311-3.31-14.104-6.873-17.369c-3.564-3.25-7.955-4.569-13.149-3.938
		c-13.527,1.651-37.273,25.414-71.267,71.27c-33.982,45.857-54.625,69.227-61.898,70.118c-8.328,1.014-17.35-3.684-27.062-14.11
		c-9.729-10.418-14.771-17.197-15.151-20.316c-1.271-10.399,6.535-28.521,23.447-54.34c16.896-25.82,38.842-53.57,65.834-83.272
		c24.116-27.222,53.889-53.564,89.321-79.019c35.419-25.438,67.691-39.949,96.823-43.511c46.812-5.72,83.541,3.252,110.19,26.917
		c26.646,23.664,42.265,54.218,46.837,91.67c1.911,15.604,2.387,32.443,1.424,50.502c-0.963,18.068-5.496,37.097-13.609,57.089
		l-86.732,275.076c-6.688,22.989-11.299,41.508-13.802,55.538c-2.514,14.035-3.441,23.655-2.808,28.848
		c0.763,6.238,2.798,9.949,6.108,11.13c3.31,1.181,6.525,1.576,9.646,1.194c22.886-2.796,47.664-22.451,74.353-58.971
		c26.68-36.521,44.182-55.288,52.51-56.307c7.276-0.891,15.745,3.617,25.409,13.521c9.646,9.909,14.735,16.941,15.243,21.102
		C2670.937,4209.875,2636.435,4253.688,2565.407,4324.65z M2661.491,3478.312c-24.144,31.453-55.976,49.6-95.489,54.431
		c-38.5,4.705-73.497-5.271-105.017-29.919c-31.52-24.655-49.63-56.219-54.337-94.717c-4.702-38.484,5.27-73.492,29.923-105.013
		c24.649-31.521,56.214-49.629,94.716-54.338c39.518-4.831,74.783,5.112,105.786,29.828c30.995,24.72,48.854,56.324,53.562,94.807
		C2695.339,3411.89,2685.618,3446.855,2661.491,3478.312z"/>
</g>
<g id="_x31_6-view" display="none">
	<path display="inline" d="M3227.896,3863.843c0-31.491-11.467-60.296-30.433-82.553h0.101
		c-773.48-935.815-1430.985-60.723-1473.69-1.728c-19.86,22.479-31.931,51.97-31.931,84.279c0,31.166,11.22,59.71,29.835,81.87
		h-0.13c0,0,675.941,960.296,1475.917,1.374h-0.697C3216.189,3924.738,3227.896,3895.664,3227.896,3863.843z M2459.917,4246.665
		c-212.069,0-383.988-171.394-383.988-382.822c0-211.426,171.92-382.821,383.988-382.821c212.073,0,383.99,171.396,383.99,382.821
		C2843.908,4075.271,2671.991,4246.665,2459.917,4246.665z"/>
	<ellipse display="inline" cx="2459.919" cy="3863.843" rx="127.997" ry="127.608"/>
</g>
<g id="_x31_6-workflow" display="none">
	<g display="inline">
		<polygon points="3036.095,3096.047 2332.083,3095.97 1948,3928 2332,3928 2076,4632 3036,3672 2588,3672 		"/>
	</g>
</g>
<g id="_x31_6-closed" display="none">
	<polygon display="inline" fill="none" points="2395.042,4375.887 2659.076,4051.757 2394.512,4375.312 	"/>
	<path display="inline" d="M3272.271,3306.276c34.271-58.812,21.287-135.343-33.516-179.306
		c-60.476-48.514-148.97-38.996-197.66,21.262L2206.699,4120l-322.673-297.878c-54.835-59.104-147.375-62.721-206.689-8.083
		c-59.317,54.637-62.95,146.84-8.113,205.943L2204,4632L3272.271,3306.276z"/>
</g>
<path d="M846,1548v1919.971h1536l256-256.326V1548H846z M2126,3340h-768v-384h768V3340z M2382,2572H1102v-896h1280V2572z"/>
<rect x="1486" y="3084" width="256" height="128"/>
<polygon points="2125,1992 2124.5,1738.5 1614,2190.5 1357.5,1996.5 1358,2250.5 1614,2444 "/>
</svg>
