<?xml version="1.0" encoding="utf-8"?>
<!-- Generator: Adobe Illustrator 14.0.0, SVG Export Plug-In . SVG Version: 6.00 Build 43363)  -->
<!DOCTYPE svg PUBLIC "-//W3C//DTD SVG 1.1//EN" "http://www.w3.org/Graphics/SVG/1.1/DTD/svg11.dtd">
<svg version="1.1" id="Layer_1" xmlns="http://www.w3.org/2000/svg" xmlns:xlink="http://www.w3.org/1999/xlink" x="0px" y="0px"
	 width="2048px" height="2048px" viewBox="718 1420 2048 2048" enable-background="new 718 1420 2048 2048" xml:space="preserve">
<circle cx="1530.577" cy="2289.993" r="52.135"/>
<circle cx="1739.615" cy="2289.992" r="52.135"/>
<circle cx="1948.652" cy="2289.992" r="52.134"/>
<path d="M2222.148,2129.381c-20.424-49.889-49.69-94.722-86.983-133.253c-37.528-38.772-81.339-69.261-130.211-90.619
	c-50.908-22.246-104.947-33.525-160.614-33.525h-205.688c-55.667,0-109.705,11.28-160.612,33.525
	c-48.875,21.357-92.685,51.846-130.213,90.619c-37.294,38.531-66.559,83.364-86.982,133.253
	c-21.08,51.492-31.768,106.08-31.768,162.249c0,100.881,35.485,198.365,99.918,274.492c38.565,45.563,97.203,81.737,149.838,106.543
	v286.947l364.561-256.113h0.947c55.667,0,109.703-3.479,160.608-25.721c48.877-21.356,92.688-51.845,130.217-90.618
	c37.296-38.532,66.563-83.369,86.985-133.265c21.079-51.494,31.767-106.088,31.767-162.266
	C2253.917,2235.461,2243.229,2180.873,2222.148,2129.381z M1846.756,2576.076h-55.748l-178.323,150.935v-148.679
	c-136.292-20.696-255.625-140.688-255.625-288.829c0-162.566,126.146-294.35,281.766-294.35h207.931
	c155.621,0,281.767,131.784,281.767,294.35C2128.522,2452.115,2002.377,2576.076,1846.756,2576.076z"/>
</svg>
