<svg xmlns="http://www.w3.org/2000/svg" width="2048" height="2048" viewBox="0 0 2048 2048"><path d="M1759.812 1579.172l.188-.191-473.516-473.516C1363.164 992.742 1408 856.611 1408 710c0-.867-.031-1.729-.031-2.596.004-1.137.031-2.268.031-3.404 0-388.809-315.191-704-704-704S0 315.191 0 704c0 1.004.031 2 .039 3-.008 1-.039 1.996-.039 3 0 388.809 315.191 704 704 704 149.703 0 288.465-46.766 402.555-126.43L1578.98 1760l.188-.188C1601.75 1779.828 1631.449 1792 1664 1792c70.691 0 128-57.309 128-128 0-32.551-12.176-62.242-32.188-84.828zM704 1152c-247.424 0-448-200.578-448-448 0-247.424 200.576-448 448-448 247.422 0 448 200.576 448 448 0 247.422-200.578 448-448 448z"/></svg>