<?xml version="1.0" encoding="utf-8"?>
<!-- Generated by IcoMoon.io -->
<!DOCTYPE svg PUBLIC "-//W3C//DTD SVG 1.1//EN" "http://www.w3.org/Graphics/SVG/1.1/DTD/svg11.dtd">
<svg version="1.1" xmlns="http://www.w3.org/2000/svg" xmlns:xlink="http://www.w3.org/1999/xlink" width="32" height="32" viewBox="0 0 32 32">
<path fill="#444" d="M27.497 24.675l0.003-0.003-7.399-7.399c1.198-1.761 1.899-3.888 1.899-6.179 0-0.014-0-0.027-0-0.041 0-0.018 0-0.035 0-0.053 0-6.075-4.925-11-11-11s-11 4.925-11 11c0 0.016 0 0.031 0.001 0.047s-0.001 0.031-0.001 0.047c0 6.075 4.925 11 11 11 2.339 0 4.507-0.731 6.29-1.975l7.385 7.379c0.353 0.313 0.817 0.503 1.325 0.503 1.105 0 2-0.895 2-2 0-0.509-0.19-0.973-0.503-1.325zM11 18c-3.866 0-7-3.134-7-7s3.134-7 7-7c3.866 0 7 3.134 7 7s-3.134 7-7 7z"></path>
</svg>
