<?xml version="1.0" encoding="utf-8"?>
<!-- Generated by IcoMoon.io -->
<!DOCTYPE svg PUBLIC "-//W3C//DTD SVG 1.1//EN" "http://www.w3.org/Graphics/SVG/1.1/DTD/svg11.dtd">
<svg version="1.1" xmlns="http://www.w3.org/2000/svg" xmlns:xlink="http://www.w3.org/1999/xlink" width="32" height="32" viewBox="0 0 32 32">
<path fill="#444" d="M31.018 19.406c0.229-1.038 0.351-2.116 0.351-3.223 0-8.295-6.801-15.021-15.192-15.021-0.885 0-1.753 0.076-2.597 0.22-1.359-0.845-2.964-1.336-4.688-1.336-4.865 0-8.81 3.9-8.81 8.711 0 1.608 0.443 3.113 1.211 4.406-0.202 0.975-0.308 1.986-0.308 3.020 0 8.296 6.803 15.021 15.192 15.021 0.951 0 1.881-0.087 2.782-0.252 1.24 0.659 2.658 1.034 4.165 1.034 4.866 0 8.81-3.9 8.81-8.711 0-1.39-0.33-2.703-0.916-3.869zM23.969 23.363c-0.703 0.983-1.741 1.762-3.087 2.315-1.332 0.547-2.929 0.825-4.747 0.825-2.182 0-4.012-0.38-5.439-1.129-1.021-0.545-1.863-1.283-2.502-2.194-0.645-0.92-0.972-1.834-0.972-2.714 0-0.55 0.213-1.027 0.634-1.419 0.417-0.387 0.949-0.583 1.586-0.583 0.521 0 0.972 0.155 1.338 0.461 0.35 0.293 0.649 0.727 0.891 1.287 0.269 0.61 0.563 1.124 0.873 1.53 0.297 0.39 0.727 0.717 1.274 0.973 0.551 0.257 1.293 0.389 2.207 0.389 1.256 0 2.285-0.265 3.060-0.788 0.756-0.511 1.125-1.124 1.125-1.874 0-0.593-0.192-1.059-0.587-1.425-0.414-0.382-0.96-0.68-1.621-0.884-0.691-0.213-1.629-0.443-2.788-0.682-1.578-0.334-2.916-0.73-3.982-1.178-1.090-0.458-1.968-1.094-2.61-1.889-0.652-0.806-0.983-1.82-0.983-3.010 0-1.135 0.347-2.157 1.032-3.040 0.679-0.876 1.671-1.557 2.948-2.024 1.261-0.461 2.761-0.695 4.458-0.695 1.357 0 2.55 0.155 3.545 0.461 1.001 0.308 1.846 0.725 2.508 1.237 0.668 0.516 1.165 1.068 1.478 1.641 0.315 0.579 0.475 1.156 0.475 1.714 0 0.537-0.21 1.024-0.624 1.45-0.417 0.428-0.941 0.645-1.56 0.645-0.562 0-1.003-0.136-1.309-0.404-0.284-0.249-0.58-0.636-0.906-1.193-0.379-0.712-0.838-1.273-1.364-1.668-0.511-0.384-1.364-0.579-2.537-0.579-1.089 0-1.975 0.216-2.632 0.642-0.634 0.411-0.942 0.882-0.942 1.44 0 0.342 0.099 0.628 0.303 0.875 0.216 0.261 0.52 0.489 0.906 0.68 0.399 0.199 0.81 0.356 1.223 0.469 0.422 0.116 1.13 0.287 2.102 0.509 1.229 0.261 2.359 0.553 3.358 0.869 1.012 0.32 1.886 0.715 2.599 1.174 0.727 0.469 1.303 1.070 1.712 1.788 0.411 0.721 0.618 1.611 0.618 2.645 0 1.237-0.358 2.365-1.063 3.352z"></path>
</svg>
