<svg xmlns="http://www.w3.org/2000/svg" width="2048" height="2048" viewBox="718 1420 2048 2048"><path d="M2703.137 2662.009c14.672-66.458 22.482-135.454 22.482-206.281 0-530.881-435.272-961.326-972.314-961.326-56.652 0-112.179 4.866-166.233 14.057-86.947-54.107-189.689-85.507-300.028-85.507-311.389 0-563.864 249.617-563.864 557.499 0 102.891 28.336 199.21 77.531 281.972-12.916 62.425-19.702 127.096-19.702 193.305 0 530.925 435.36 961.369 972.295 961.369 60.87 0 120.378-5.573 178.067-16.116 79.353 42.15 170.129 66.147 266.575 66.147 311.409 0 563.81-249.616 563.81-557.498.001-88.959-21.119-173.011-58.619-247.621m-451.115 253.193c-44.986 62.925-111.442 112.789-197.566 148.181-85.278 35.019-187.481 52.818-303.814 52.818-139.659 0-256.739-24.288-348.12-72.24-65.35-34.851-119.222-82.138-160.12-140.445-41.288-58.89-62.225-117.364-62.225-173.716 0-35.227 13.624-65.753 40.552-90.789 26.66-24.745 60.753-37.306 101.488-37.306 33.368 0 62.224 9.939 85.638 29.486 22.409 18.757 41.569 46.538 57.02 82.347 17.213 39.052 36.03 71.948 55.861 97.941 19.032 24.954 46.515 45.914 81.548 62.3 35.25 16.47 82.761 24.871 141.216 24.871 80.369 0 146.238-16.97 195.835-50.448 48.409-32.688 71.995-71.907 71.995-119.942 0-37.97-12.313-67.789-37.565-91.204-26.466-24.454-61.434-43.502-103.718-56.561-44.207-13.642-104.258-28.322-178.425-43.669-100.959-21.376-186.641-46.745-254.823-75.4-69.734-29.32-125.93-69.994-167.055-120.899-41.721-51.611-62.908-116.449-62.908-192.639 0-72.614 22.202-138.075 66.033-194.553 43.452-56.062 106.963-99.647 188.694-129.55 80.736-29.486 176.728-44.458 285.313-44.458 86.816 0 163.182 9.939 226.909 29.528 64.094 19.713 118.13 46.372 160.542 79.185 42.78 33.022 74.588 68.372 94.584 105.054 20.146 37.055 30.424 73.987 30.424 109.669 0 34.353-13.436 65.544-39.922 92.785-26.66 27.366-60.223 41.256-99.844 41.256-35.986 0-64.205-8.734-83.787-25.827-18.199-15.929-37.09-40.715-57.973-76.357-24.279-45.582-53.621-81.473-87.271-106.759-32.697-24.579-87.271-37.056-162.338-37.056-69.688 0-126.395 13.808-168.45 41.09-40.563 26.326-60.267 56.478-60.267 92.161 0 21.918 6.309 40.217 19.389 55.979 13.806 16.677 33.305 31.316 57.961 43.502 25.556 12.726 51.826 22.791 78.248 30.027 27.006 7.403 72.34 18.382 134.553 32.606 78.681 16.677 150.978 35.392 214.92 55.604 64.745 20.503 120.704 45.748 166.362 75.109 46.549 29.986 83.422 68.497 109.561 114.453 26.292 46.122 39.578 103.099 39.578 169.309.002 79.185-22.894 151.342-68.033 214.557"/></svg>