<svg xmlns="http://www.w3.org/2000/svg" width="2048" height="2048" viewBox="0 0 2048 2048"><path d="M1024.125 128C529.312 128 128 529.312 128 1024.125c0 494.809 401.312 896.125 896.125 896.125 494.934 0 896.125-401.316 896.125-896.125 0-494.813-401.191-896.125-896.125-896.125zm0 243.016c135.389 0 261.297 41.469 365.589 112.256l-906.442 906.442c-70.723-104.413-112.252-230.263-112.252-365.589 0-360.139 292.966-653.109 653.105-653.109zm0 1306.218c-137.175 0-264.138-42.963-369.389-115.342l907.156-907.105c72.384 105.2 115.342 232.228 115.342 369.338 0 360.139-292.97 653.109-653.109 653.109z"/></svg>