<?xml version="1.0" encoding="utf-8"?>
<!-- Generator: Adobe Illustrator 14.0.0, SVG Export Plug-In . SVG Version: 6.00 Build 43363)  -->
<!DOCTYPE svg PUBLIC "-//W3C//DTD SVG 1.1//EN" "http://www.w3.org/Graphics/SVG/1.1/DTD/svg11.dtd">
<svg version="1.1" id="Layer_1" xmlns="http://www.w3.org/2000/svg" xmlns:xlink="http://www.w3.org/1999/xlink" x="0px" y="0px"
	 width="2048px" height="2048px" viewBox="718 1420 2048 2048" enable-background="new 718 1420 2048 2048" xml:space="preserve">
<polyline points="2126,2891.999 2510,2891.999 2318,3084 "/>
<path d="M1934,2060h-832c-70.692,0-128,57.309-128,128v512c0,70.691,57.308,128,128,128h832c70.691,0,128-57.309,128-128v-512
	C2062,2117.309,2004.691,2060,1934,2060z M1870,2188c35.346,0,64,28.654,64,64v91.797h-237.979V2188H1870z M1376.128,2380.031
	h283.659v127.937h-283.659V2380.031L1376.128,2380.031z M1339.893,2507.968H1102v-127.937h237.893V2507.968L1339.893,2507.968z
	 M1696.021,2380.031H1934v127.937h-237.979V2380.031z M1659.787,2188v155.797h-283.659V2188H1659.787z M1166,2188h173.893v155.797
	H1102V2252C1102,2216.654,1130.654,2188,1166,2188z M1166,2700c-35.346,0-64-28.654-64-64v-91.797h237.893V2700H1166z
	 M1376.128,2700v-155.797h283.659V2700H1376.128z M1870,2700h-173.979v-155.797H1934V2636C1934,2671.345,1905.346,2700,1870,2700z"
	/>
</svg>
