<svg xmlns="http://www.w3.org/2000/svg" width="2048" height="2048" viewBox="718 1420 2048 2048"><path d="M2126 2891.999h384L2318 3084M1934 2060h-832c-70.692 0-128 57.309-128 128v512c0 70.691 57.308 128 128 128h832c70.691 0 128-57.309 128-128v-512c0-70.691-57.309-128-128-128zm-64 128c35.346 0 64 28.654 64 64v91.797h-237.979V2188H1870zm-493.872 192.031h283.659v127.937h-283.659v-127.937zm-36.235 127.937H1102v-127.937h237.893v127.937zm356.128-127.937H1934v127.937h-237.979v-127.937zM1659.787 2188v155.797h-283.659V2188h283.659zM1166 2188h173.893v155.797H1102V2252c0-35.346 28.654-64 64-64zm0 512c-35.346 0-64-28.654-64-64v-91.797h237.893V2700H1166zm210.128 0v-155.797h283.659V2700h-283.659zm493.872 0h-173.979v-155.797H1934V2636c0 35.345-28.654 64-64 64z"/></svg>