<?xml version="1.0" encoding="utf-8"?>
<!-- Generated by IcoMoon.io -->
<!DOCTYPE svg PUBLIC "-//W3C//DTD SVG 1.1//EN" "http://www.w3.org/Graphics/SVG/1.1/DTD/svg11.dtd">
<svg version="1.1" xmlns="http://www.w3.org/2000/svg" xmlns:xlink="http://www.w3.org/1999/xlink" width="32" height="32" viewBox="0 0 32 32">
<path fill="#444" d="M22.861 9.155l-0.001-0.003-0.974-0.97c-0.092-0.111-0.231-0.182-0.386-0.182h-6c-0.152 0-0.288 0.068-0.38 0.175l-7.946 7.946c-0.107 0.092-0.175 0.228-0.175 0.379 0 0.124 0.046 0.237 0.12 0.325v0.002l0.018 0.018c0.006 0.006 0.012 0.012 0.018 0.018l6.983 6.983c0.006 0.006 0.011 0.012 0.017 0.017l0.012 0.012 0.001-0c0.088 0.078 0.204 0.126 0.331 0.126 0.146 0 0.277-0.063 0.369-0.163l0.001-0 8.009-8.003 0.005-0.015c0.072-0.087 0.115-0.198 0.115-0.319v-6c-0-0.134-0.053-0.255-0.139-0.345zM19.889 12.444c-0.736 0-1.333-0.597-1.333-1.333s0.597-1.333 1.333-1.333c0.736 0 1.333 0.597 1.333 1.333s-0.597 1.333-1.333 1.333z"></path>
</svg>
