<?xml version="1.0" encoding="utf-8"?>
<!-- Generated by IcoMoon.io -->
<!DOCTYPE svg PUBLIC "-//W3C//DTD SVG 1.1//EN" "http://www.w3.org/Graphics/SVG/1.1/DTD/svg11.dtd">
<svg version="1.1" xmlns="http://www.w3.org/2000/svg" xmlns:xlink="http://www.w3.org/1999/xlink" width="32" height="32" viewBox="0 0 32 32">
<path fill="#444" d="M17 17.1c0 0.516-0.419 0.931-0.938 0.931h-0.125c-0.519 0-0.938-0.419-0.938-0.931v-4.169c0-0.516 0.419-0.931 0.938-0.931h0.125c0.519 0 0.938 0.419 0.938 0.931v4.169z"></path>
<path fill="#444" d="M11.713 11.334c0.366 0.366 0.366 0.959 0 1.325l-0.088 0.091c-0.366 0.366-0.959 0.366-1.325 0l-1.025-1.025c-0.366-0.366-0.366-0.959 0-1.325l0.088-0.088c0.366-0.366 0.959-0.366 1.325 0l1.025 1.022z"></path>
<path fill="#444" d="M15.931 18.031c-0.512 0-0.931-0.419-0.931-0.938v-0.125c0-0.519 0.416-0.938 0.931-0.938h2.141c0.512 0 0.931 0.419 0.931 0.938v0.125c0 0.519-0.416 0.938-0.931 0.938h-2.141z"></path>
<path fill="#444" d="M16.984 8h1.016c0-0.553-0.447-1-1-1h-2c-0.553 0-1 0.447-1 1h1v1.656h2.625c0.125 0 0.238-0.063 0.303-0.156h-0.944v-1.5z"></path>
<path fill="#444" d="M15.984 9c-4.419 0-8 3.581-8 8s3.581 8 8 8 8-3.581 8-8-3.581-8-8-8zM15.984 22.994c-3.309 0-5.994-2.684-5.994-5.994s2.684-5.994 5.994-5.994 5.994 2.684 5.994 5.994-2.684 5.994-5.994 5.994z"></path>
</svg>
