<?xml version="1.0" encoding="utf-8"?>
<!-- Generator: Adobe Illustrator 19.2.1, SVG Export Plug-In . SVG Version: 6.00 Build 0)  -->
<svg version="1.1" id="Layer_1" xmlns="http://www.w3.org/2000/svg" xmlns:xlink="http://www.w3.org/1999/xlink" x="0px" y="0px"
	 viewBox="0 0 1024 1024" style="enable-background:new 0 0 1024 1024;" xml:space="preserve">
<path d="M544,547.2c0,16.5-13.4,29.8-30,29.8h-4c-16.6,0-30-13.4-30-29.8V413.8c0-16.5,13.4-29.8,30-29.8h4c16.6,0,30,13.4,30,29.8
	V547.2L544,547.2z M374.8,362.7c11.7,11.7,11.7,30.7,0,42.4L372,408c-11.7,11.7-30.7,11.7-42.4,0l-32.8-32.8
	c-11.7-11.7-11.7-30.7,0-42.4l2.8-2.8c11.7-11.7,30.7-11.7,42.4,0L374.8,362.7L374.8,362.7z"/>
<path d="M509.8,577c-16.4,0-29.8-13.4-29.8-30v-4c0-16.6,13.3-30,29.8-30h68.5c16.4,0,29.8,13.4,29.8,30v4c0,16.6-13.3,30-29.8,30
	H509.8z M543.5,256H576c0-17.7-14.3-32-32-32h-64c-17.7,0-32,14.3-32,32h32v53h84c4,0,7.6-2,9.7-5h-30.2V256z"/>
<path d="M511.5,288c-141.4,0-256,114.6-256,256s114.6,256,256,256s256-114.6,256-256S652.9,288,511.5,288z M511.5,735.8
	c-105.9,0-191.8-85.9-191.8-191.8s85.9-191.8,191.8-191.8S703.3,438.1,703.3,544S617.4,735.8,511.5,735.8z"/>
</svg>
