<svg xmlns="http://www.w3.org/2000/svg" width="2048" height="2048" viewBox="718 1420 2048 2048"><path d="M2766.195 1746.032c-75.398 33.438-156.362 56.005-241.371 66.181 86.791-52.005 153.406-134.361 184.801-232.479-81.226 48.135-171.146 83.117-266.852 101.966-76.66-81.682-185.888-132.687-306.725-132.687-232.066 0-420.214 188.148-420.214 420.192 0 32.938 3.696 65.006 10.871 95.748-349.208-17.501-658.933-184.8-866.126-439.042-36.177 62.071-56.918 134.252-56.918 211.259 0 145.797 74.181 274.374 186.931 349.751-68.833-2.174-133.665-21.045-190.323-52.527-.043 1.739-.043 3.5-.043 5.262 0 203.606 144.883 373.449 337.076 412.039-35.221 9.609-72.354 14.785-110.706 14.785-27.046 0-53.353-2.653-79.051-7.566 53.483 166.93 208.716 288.439 392.559 291.811-143.839 112.729-324.987 179.908-521.875 179.908-33.917 0-67.354-2-100.227-5.914 185.931 119.25 406.778 188.844 644.148 188.844 772.899 0 1195.592-640.343 1195.592-1195.657 0-18.154-.391-36.308-1.217-54.353 82.093-59.223 153.317-133.23 209.67-217.521"/></svg>