<?xml version="1.0" encoding="utf-8"?>
<!-- Generated by IcoMoon.io -->
<!DOCTYPE svg PUBLIC "-//W3C//DTD SVG 1.1//EN" "http://www.w3.org/Graphics/SVG/1.1/DTD/svg11.dtd">
<svg version="1.1" xmlns="http://www.w3.org/2000/svg" xmlns:xlink="http://www.w3.org/1999/xlink" width="32" height="32" viewBox="0 0 32 32">
<path fill="#444" d="M26.022 6.001c-2.635-2.668-6.91-2.668-9.545 0l-10.943 10.942c-2.047 2.071-2.047 5.442 0 7.513s5.377 2.072 7.423 0l10.943-10.942c1.464-1.482 1.464-3.884 0-5.367-1.465-1.481-3.839-1.481-5.303 0l-8.226 8.325c-0.293 0.297-0.293 0.776 0 1.073s0.768 0.297 1.060 0l8.226-8.325c0.878-0.887 2.304-0.887 3.182 0s0.878 2.332 0 3.22l-10.942 10.942c-1.465 1.482-3.838 1.482-5.303 0s-1.465-3.884 0-5.366l10.835-10.835c2.051-2.075 5.376-2.075 7.424 0 2.051 2.076 2.051 5.438 0.001 7.513l-8.119 8.217c-0.295 0.298-0.295 0.777 0 1.073 0.293 0.298 0.767 0.298 1.061 0l8.225-8.324c2.637-2.667 2.637-6.992-0-9.659z"></path>
</svg>
