<?xml version="1.0" encoding="utf-8"?>
<!-- Generated by IcoMoon.io -->
<!DOCTYPE svg PUBLIC "-//W3C//DTD SVG 1.1//EN" "http://www.w3.org/Graphics/SVG/1.1/DTD/svg11.dtd">
<svg version="1.1" xmlns="http://www.w3.org/2000/svg" xmlns:xlink="http://www.w3.org/1999/xlink" width="32" height="32" viewBox="0 0 32 32">
<path fill="#444" d="M2.010 11.987v8.011h5.994l7.993 8.011v-24.032l-7.993 8.011z"></path>
<path fill="#444" d="M23.985 4.484l-1.251 1.568c3.17 2.162 5.253 5.808 5.253 9.941 0 3.832-1.79 7.245-4.577 9.445l1.424 1.422c3.144-2.571 5.152-6.484 5.152-10.868 0-4.766-2.374-8.976-6-11.509z"></path>
<path fill="#444" d="M20.871 8.423l-1.208 1.602c1.989 1.235 3.314 3.438 3.314 5.952 0 2.494-1.304 4.683-3.267 5.923l1.313 1.531c2.387-1.619 3.955-4.353 3.955-7.454 0-3.166-1.635-5.95-4.106-7.554z"></path>
</svg>
