<svg xmlns="http://www.w3.org/2000/svg" width="2048" height="2048" viewBox="718 1420 2048 2048"><path fill="#333" d="M2166.801 1956.401c-112.243-116.07-294.317-116.07-406.566 0l-466.12 475.953c-87.194 90.076-87.194 236.696 0 326.799 87.2 90.107 229.056 90.107 316.182 0l466.122-475.966c62.363-64.478 62.363-168.958 0-233.437-62.393-64.43-163.535-64.43-225.869 0l-350.372 362.1c-12.48 12.923-12.48 33.757 0 46.687 12.471 12.917 32.695 12.917 45.171 0l350.401-362.107c37.379-38.59 98.153-38.59 135.523 0 37.378 38.623 37.378 101.454 0 140.077l-466.085 475.932c-62.395 64.478-163.473 64.478-225.871 0-62.396-64.439-62.396-168.954 0-233.399l461.533-471.315c87.347-90.249 228.989-90.249 316.21 0 87.383 90.287 87.383 236.537.063 326.788l-345.848 357.424c-12.567 12.957-12.567 33.789 0 46.683 12.48 12.955 32.664 12.955 45.172 0l350.354-362.071c112.309-116.01 112.309-304.151 0-420.148z"/></svg>