<?xml version="1.0" encoding="utf-8"?>
<!-- Generated by IcoMoon.io -->
<!DOCTYPE svg PUBLIC "-//W3C//DTD SVG 1.1//EN" "http://www.w3.org/Graphics/SVG/1.1/DTD/svg11.dtd">
<svg version="1.1" xmlns="http://www.w3.org/2000/svg" xmlns:xlink="http://www.w3.org/1999/xlink" width="32" height="32" viewBox="0 0 32 32">
<path fill="#444" d="M25 24c-1.306 0-2.417 0.835-2.829 2h-9.342c-0.234-0.663-0.695-1.218-1.288-1.575l1.495-3.468h13.962l3.001-12.959-22.96-1.995-1.205-1.205c0.107-0.245 0.166-0.515 0.166-0.799 0-1.105-0.895-2-2-2s-2 0.895-2 2 0.895 2 2 2c0.284 0 0.554-0.059 0.799-0.166l1.219 1.219 3.969 13.905h1.034l-1.221 3.049c-1.563 0.103-2.799 1.404-2.799 2.993 0 1.657 1.343 3 3 3 1.306 0 2.417-0.835 2.829-2h9.342c0.412 1.165 1.523 2 2.829 2 1.657 0 3-1.343 3-3s-1.343-3-3-3z"></path>
</svg>
