<?xml version="1.0" encoding="utf-8"?>
<!-- Generated by IcoMoon.io -->
<!DOCTYPE svg PUBLIC "-//W3C//DTD SVG 1.1//EN" "http://www.w3.org/Graphics/SVG/1.1/DTD/svg11.dtd">
<svg version="1.1" xmlns="http://www.w3.org/2000/svg" xmlns:xlink="http://www.w3.org/1999/xlink" width="32" height="32" viewBox="0 0 32 32">
<path fill="#444" d="M15.396 25.982c-2.863 0-5.264-0.566-7.419-1.473l0.77-4.135c2.186 1.076 4.617 1.812 6.741 1.812 1.508 0 2.555-0.595 2.555-1.756 0-1.104-0.616-1.614-3.602-2.662-4.248-1.501-6.095-2.775-6.095-6.004 0-3.766 3.201-5.777 7.265-5.777 2.77 0 4.556 0.481 6.403 1.303l-0.8 4.078c-1.909-1.019-3.909-1.586-5.541-1.586-1.601 0-2.37 0.623-2.37 1.529 0 0.991 0.585 1.473 3.232 2.407 4.648 1.558 6.464 3.030 6.464 6.145-0 4.248-3.386 6.117-7.603 6.117z"></path>
<path fill="#444" d="M13 2h4v5h-4v-5z"></path>
<path fill="#444" d="M13 24h4v6h-4v-6z"></path>
</svg>
