<?xml version="1.0" encoding="utf-8"?>
<!-- Generated by IcoMoon.io -->
<!DOCTYPE svg PUBLIC "-//W3C//DTD SVG 1.1//EN" "http://www.w3.org/Graphics/SVG/1.1/DTD/svg11.dtd">
<svg version="1.1" xmlns="http://www.w3.org/2000/svg" xmlns:xlink="http://www.w3.org/1999/xlink" width="32" height="32" viewBox="0 0 32 32">
<path fill="#444" d="M2.018 13.543v11.022c0 1.923 0.059 3.497 1.982 3.497v-18.017c-1.923 0-1.982 1.575-1.982 3.498z"></path>
<path fill="#444" d="M27.985 10.030v18.033c1.923 0 2.013-1.575 2.013-3.497v-11.038c-0-1.923-0.090-3.498-2.013-3.498z"></path>
<path fill="#444" d="M22.004 5.751c0-0.961-0.787-1.749-1.749-1.749h-8.479c-0.962 0-1.77 0.787-1.77 1.749v4.279h-4.039v18.033h20.019v-18.033h-3.982l0-4.279zM20.005 9.999h-8.011v-3.982h8.011v3.982z"></path>
</svg>
