<?xml version="1.0" encoding="utf-8"?>
<!-- Generated by IcoMoon.io -->
<!DOCTYPE svg PUBLIC "-//W3C//DTD SVG 1.1//EN" "http://www.w3.org/Graphics/SVG/1.1/DTD/svg11.dtd">
<svg version="1.1" xmlns="http://www.w3.org/2000/svg" xmlns:xlink="http://www.w3.org/1999/xlink" width="32" height="32" viewBox="0 0 32 32">
<path fill="#444" d="M21.982 0h-1c-0.029 0-0.057 0.002-0.085 0.004h-10.899c-1.105 0-2 0.896-2 2v4.009h-4c-1.105 0-2 0.896-2 2v21.985c0 1.105 0.896 2 2 2h17.985c1.105 0 2-0.896 2-2v-4.009h4c1.105 0 2-0.896 2-2v-15.988l-8.002-8.002zM21.983 28.999c0 0.552-0.448 1-1 1h-15.985c-0.552 0-1-0.448-1-1v-19.985c0-0.552 0.448-1 1-1h3v15.975c0 1.105 0.896 2 2 2h11.985v3.009zM27.984 22.99c0 0.552-0.448 1-1 1h-15.985c-0.552 0-1-0.448-1-1v-19.985c0-0.552 0.448-1 1-1h8.983v6.997c0 0.552 0.448 1 1 1h7.002v12.987z"></path>
</svg>
