<?xml version="1.0" encoding="utf-8"?>
<!-- Generated by IcoMoon.io -->
<!DOCTYPE svg PUBLIC "-//W3C//DTD SVG 1.1//EN" "http://www.w3.org/Graphics/SVG/1.1/DTD/svg11.dtd">
<svg version="1.1" xmlns="http://www.w3.org/2000/svg" xmlns:xlink="http://www.w3.org/1999/xlink" width="32" height="32" viewBox="0 0 32 32">
<path fill="#444" d="M32 3.655l-0.025 0.020c0.059-0.442-0.094-0.902-0.458-1.24-0.631-0.584-1.658-0.579-2.294 0.011l-13.736 12.554c-0.292 0.271-0.451 0.618-0.476 0.971-0.051 0.438 0.101 0.889 0.459 1.22l13.716 12.376c0.635 0.587 1.674 0.575 2.322-0.027 0.353-0.328 0.517-0.764 0.49-1.187l0.003 0.001v-24.7z"></path>
<path fill="#444" d="M10.010 15.971c0.025-0.353 0.184-0.7 0.476-0.971l6.514-5.953v-5.392l-0.025 0.020c0.059-0.442-0.094-0.902-0.458-1.24-0.631-0.584-1.658-0.579-2.294 0.011l-13.736 12.554c-0.292 0.271-0.451 0.618-0.476 0.971-0.051 0.438 0.101 0.889 0.459 1.22l13.716 12.376c0.635 0.587 1.674 0.575 2.322-0.027 0.353-0.328 0.517-0.764 0.49-1.187l0.003 0.001v-5.271l-6.531-5.893c-0.358-0.331-0.511-0.782-0.459-1.22z"></path>
</svg>
