<?xml version="1.0" encoding="utf-8"?>
<!-- Generated by IcoMoon.io -->
<!DOCTYPE svg PUBLIC "-//W3C//DTD SVG 1.1//EN" "http://www.w3.org/Graphics/SVG/1.1/DTD/svg11.dtd">
<svg version="1.1" xmlns="http://www.w3.org/2000/svg" xmlns:xlink="http://www.w3.org/1999/xlink" width="32" height="32" viewBox="0 0 32 32">
<path fill="#444" d="M16.015 0.031c-8.836 0-15.999 7.163-15.999 15.999s7.163 15.999 15.999 15.999c8.836 0 15.999-7.163 15.999-15.999s-7.163-15.999-15.999-15.999zM16.015 28.026c-6.625 0-11.995-5.37-11.995-11.995s5.37-11.995 11.995-11.995c6.625 0 11.995 5.37 11.995 11.995s-5.37 11.995-11.995 11.995z"></path>
<path fill="#444" d="M8.048 24.005l10.627-5.314 5.314-10.627-10.627 5.314-5.314 10.627zM16.019 14.065c1.087 0 1.969 0.882 1.969 1.969s-0.882 1.969-1.969 1.969c-1.088 0-1.969-0.882-1.969-1.969s0.882-1.969 1.969-1.969z"></path>
</svg>
