<?xml version="1.0" encoding="utf-8"?>
<!-- Generated by IcoMoon.io -->
<!DOCTYPE svg PUBLIC "-//W3C//DTD SVG 1.1//EN" "http://www.w3.org/Graphics/SVG/1.1/DTD/svg11.dtd">
<svg version="1.1" xmlns="http://www.w3.org/2000/svg" xmlns:xlink="http://www.w3.org/1999/xlink" width="32" height="32" viewBox="0 0 32 32">
<path fill="#444" d="M21.045 6.016v-2.282c0-2.062-1.536-3.734-3.662-3.734h-5.774c-2.126 0-3.568 1.672-3.568 3.734v2.282h-6.056v4.012h1.925v16.223c0 2.062 1.724 3.734 3.85 3.734h14.381c2.119 0 3.838-1.661 3.849-3.714l0.031-0.020v-16.223h2.019v-4.012h-6.993zM9.965 26.070h-1.972v-16.042h1.972v16.042zM15.927 26.070h-1.925v-16.042h1.925v16.042zM17.008 6.016h-5.024v-2.004h5.024v2.004zM21.983 26.070h-2.019v-16.042h2.019v16.042z"></path>
</svg>
