<?xml version="1.0" encoding="utf-8"?>
<!-- Generated by IcoMoon.io -->
<!DOCTYPE svg PUBLIC "-//W3C//DTD SVG 1.1//EN" "http://www.w3.org/Graphics/SVG/1.1/DTD/svg11.dtd">
<svg version="1.1" xmlns="http://www.w3.org/2000/svg" xmlns:xlink="http://www.w3.org/1999/xlink" width="32" height="32" viewBox="0 0 32 32">
<path fill="#444" d="M27.973 3.992h-23.977c-2.207 0-3.996 1.789-3.996 3.996v16.016c0 2.207 1.789 3.996 3.996 3.996h23.977c2.207 0 3.996-1.789 3.996-3.996v-16.016c0-2.207-1.789-3.996-3.996-3.996zM15.984 20.008l-13.769-11.802c0.158-0.412 0.396-0.785 0.695-1.099l0.111-0.111c0.351-0.335 0.776-0.593 1.248-0.748l11.715 9.717 11.768-9.761c0.3 0.104 0.58 0.25 0.834 0.431l0.771 0.771c0.171 0.24 0.312 0.503 0.415 0.784l-13.787 11.818z"></path>
</svg>
