<?xml version="1.0" encoding="utf-8"?>
<!-- Generated by IcoMoon.io -->
<!DOCTYPE svg PUBLIC "-//W3C//DTD SVG 1.1//EN" "http://www.w3.org/Graphics/SVG/1.1/DTD/svg11.dtd">
<svg version="1.1" xmlns="http://www.w3.org/2000/svg" xmlns:xlink="http://www.w3.org/1999/xlink" width="32" height="32" viewBox="0 0 32 32">
<path fill="#444" d="M30.847 13.26l-13.886 13.826-0.038 0.002c-0.353 0.315-0.819 0.506-1.329 0.506-0.44 0-0.848-0.142-1.178-0.384l-0.017 0.001-0.062-0.062c-0.109-0.088-0.208-0.188-0.297-0.296l-9.371-9.36c-0.41-0.366-0.669-0.899-0.669-1.492 0-0.557 0.228-1.061 0.596-1.424l3.911-3.907c0.366-0.411 0.899-0.669 1.493-0.669 0.497 0 0.952 0.181 1.302 0.481l0.022-0.001 4.669 4.636 8.374-8.405-5.395-5.391c-0.093-0.103-0.192-0.202-0.295-0.294l-0.046-0.046h-0.006c-0.702-0.611-1.62-0.981-2.624-0.981s-1.922 0.37-2.624 0.981h-0.030l-11.991 12.019c-0.831 0.733-1.355 1.805-1.355 3 0 1.019 0.381 1.949 1.009 2.656v0.003l0.020 0.020c0.093 0.103 0.191 0.201 0.294 0.294l11.695 11.693c0.732 0.819 1.797 1.335 2.983 1.335 1.181 0 2.241-0.512 2.974-1.325l11.875-11.867c0.712-0.722 1.151-1.714 1.151-2.808 0-0.878-0.674-2.080-1.153-2.74z"></path>
<path fill="#444" d="M31.933 8.874c0-0.35-0.153-0.664-0.395-0.88l-2.303-2.306c-0.421-0.399-0.512-0.334-0.839-0.351-0.373-0.020-0.812 0.441-0.812 0.441l-0.627 0.627-0.002-0.001-11.195 11.214-5.221-5.202-0.013 0c-0.206-0.177-0.474-0.284-0.767-0.284-0.35 0-0.664 0.152-0.88 0.395l-2.306 2.303c-0.217 0.214-0.351 0.511-0.351 0.839 0 0.35 0.152 0.664 0.394 0.88v0l8.099 8.092c0.052 0.064 0.111 0.123 0.175 0.175l0.036 0.036 0.010-0c0.195 0.142 0.435 0.226 0.694 0.226 0.301 0 0.575-0.113 0.784-0.298l0.022-0.001 14.736-14.699 0.478-0.426-0-0.013c0.177-0.206 0.284-0.474 0.284-0.767z"></path>
</svg>
