<?xml version="1.0" encoding="utf-8"?>
<!-- Generated by IcoMoon.io -->
<!DOCTYPE svg PUBLIC "-//W3C//DTD SVG 1.1//EN" "http://www.w3.org/Graphics/SVG/1.1/DTD/svg11.dtd">
<svg version="1.1" xmlns="http://www.w3.org/2000/svg" xmlns:xlink="http://www.w3.org/1999/xlink" width="32" height="32" viewBox="0 0 32 32">
<path fill="#444" d="M26.614 14.095h-2.585c-0.178-0.802-0.494-1.555-0.913-2.247l1.98-1.875c0.534-0.509 0.541-1.335 0.005-1.843l-0.974-0.919c-0.534-0.506-1.408-0.503-1.944 0l-1.943 1.841c-0.681-0.39-1.421-0.689-2.21-0.878v-2.858c0-0.716-0.615-1.302-1.371-1.302h-1.344c-0.756 0-1.371 0.585-1.371 1.302v2.858c-0.789 0.189-1.529 0.488-2.21 0.878l-1.943-1.841c-0.536-0.503-1.41-0.506-1.944 0l-0.974 0.919c-0.536 0.508-0.53 1.334 0.005 1.843l1.98 1.875c-0.419 0.692-0.734 1.445-0.913 2.247h-2.585c-0.761 0-1.376 0.581-1.376 1.302v1.235c0 0.721 0.615 1.302 1.376 1.302h2.585c0.179 0.802 0.494 1.555 0.913 2.247l-1.98 1.875c-0.534 0.509-0.541 1.335-0.005 1.843l0.974 0.919c0.534 0.506 1.408 0.503 1.944 0l1.943-1.841c0.681 0.39 1.421 0.689 2.21 0.878v2.858c0 0.716 0.615 1.301 1.371 1.301h1.344c0.757 0 1.371-0.585 1.371-1.301v-2.858c0.789-0.189 1.529-0.488 2.21-0.878l1.943 1.841c0.536 0.503 1.41 0.506 1.944 0l0.974-0.919c0.536-0.508 0.529-1.334-0.005-1.843l-1.98-1.875c0.418-0.692 0.734-1.445 0.913-2.247h2.585c0.761 0 1.376-0.581 1.376-1.302v-1.235c-0-0.721-0.615-1.302-1.376-1.302zM15.956 18.958c-1.64 0-2.97-1.33-2.97-2.97s1.33-2.97 2.97-2.97c1.64 0 2.97 1.33 2.97 2.97s-1.33 2.97-2.97 2.97z"></path>
</svg>
