<?xml version="1.0" encoding="utf-8"?>
<!-- Generated by IcoMoon.io -->
<!DOCTYPE svg PUBLIC "-//W3C//DTD SVG 1.1//EN" "http://www.w3.org/Graphics/SVG/1.1/DTD/svg11.dtd">
<svg version="1.1" xmlns="http://www.w3.org/2000/svg" xmlns:xlink="http://www.w3.org/1999/xlink" width="32" height="32" viewBox="0 0 32 32">
<path fill="#444" d="M7.714 7.662c0.45-1.15 1.081-2.146 1.892-2.989s1.789-1.501 2.934-1.974c1.145-0.472 2.426-0.709 3.841-0.709 1.827 0 3.352 0.249 4.575 0.747s2.207 1.118 2.953 1.859c0.746 0.741 1.28 1.539 1.602 2.395s0.483 1.654 0.483 2.395c0 1.226-0.161 2.236-0.483 3.027s-0.721 1.469-1.197 2.031c-0.476 0.562-1.004 1.041-1.583 1.437s-1.126 0.792-1.641 1.188c-0.515 0.396-0.972 0.85-1.37 1.36s-0.65 1.276-0.753 2.042v1.55h-5.024v-1.818c0.077-1.098 0.29-2.144 0.637-2.885s0.753-1.373 1.216-1.897c0.463-0.523 0.764-0.977 1.28-1.36s0.99-0.766 1.428-1.15c0.437-0.383 0.791-0.805 1.062-1.265s0.392-1.035 0.367-1.724c0-1.175-0.29-2.043-0.869-2.606s-1.384-0.843-2.413-0.843c-0.695 0-0.965 0.134-1.467 0.402s-0.914 0.626-1.235 1.073c-0.322 0.447-0.56 0.971-0.714 1.571s-0.232 1.812-0.232 2.502h-6.003c0.025-1.379 0.264-3.21 0.714-4.36z"></path>
<path fill="#444" d="M14 24h6v5h-6v-5z"></path>
</svg>
