<?xml version="1.0" encoding="utf-8"?>
<!-- Generated by IcoMoon.io -->
<!DOCTYPE svg PUBLIC "-//W3C//DTD SVG 1.1//EN" "http://www.w3.org/Graphics/SVG/1.1/DTD/svg11.dtd">
<svg version="1.1" xmlns="http://www.w3.org/2000/svg" xmlns:xlink="http://www.w3.org/1999/xlink" width="32" height="32" viewBox="0 0 32 32">
<path fill="#444" d="M15.977 1.977c-7.713 0-13.971 6.271-13.971 14.001s6.258 14.001 13.971 14.001 13.971-6.271 13.971-14.001-6.258-14.001-13.971-14.001zM19.793 23.27c0.001 0 0.002 0.002 0.003 0.002 0.084-0.011 0.102 0.002 0.166-0.106 0 0.17 0.036 0.33 0.106 0.485-0.195-0.769 0.586-0.793 0.939-1.249 0.135-0.177 0.353-0.664 0.524-0.737 0.091 0.135 0.111 0.284 0.062 0.439 0.040-0.111 0.006-0.007-0.007 0.031-0.004 0.155-0.030 0.303-0.098 0.441-0.027-0.025-0.042-0.056-0.047-0.093-0.619 0.503-0.611 1.931-1.452 2.286-0.451 0.19-0.395-0.421-0.226-0.636 0.251-0.321-0.093-0.53 0.064-0.846-0.010 0-0.020-0.014-0.030-0.016-0.001 0.002-0.002 0.002-0.003 0.002 0-0.002 0-0.004 0-0.004-0.153-0.036-0.3-0.418-0.3-0.634 0.18-0.033 0.273-0.142 0.288-0.076 0.045-0.057 0.255-0.427 0.256-0.483 0.056 0.321-0.405 0.943-0.244 1.194zM26.076 14.322c-0.232-0.449-0.438-0.97-0.607-1.236-0.298-0.474-0.488-1.232-0.921-1.593 0.102 0.126 0.114 0.259 0.033 0.397-0.226-0.067-0.409-0.197-0.542-0.397-0.022-0.091 0.231 0.124 0.091-0.149-0.358 0.047-0.615-0.323-0.908-0.529-0.515-0.067-1.075 0.368-1.601 0.060-0.122-0.073-0.238-0.498-0.429-0.252-0.1 0.13-0.207 0.13-0.357 0.086-0.588-0.179-0.842-0.684-1.373-0.698 0.005 0.226 0.384 0.56 0.564 0.664 0.237 0.137 0.402 0.731 0.431 0.201 0.338 0.195 0.098 0.629 0.578 0.468 0.366 0.142 0.267-0.445 0.344-0.62 0.115 0.069 0.178 0.354 0.271 0.445 0.191 0.179 0.464 0.109 0.64 0.294 0.224 0.233 0.351 0.569 0.297 0.85-0.209-0.016-0.044 0.252-0.175 0.457-0.142 0.215-0.129 0.262-0.218 0.496-0.247 0.062-0.54 0.175-0.495 0.5-0.173 0.208-1.715 1.327-1.919 1.021-0.251-0.379-0.313-0.906-0.517-1.307-0.302-0.1-0.931-0.87-1.055-1.167 0.093-0.523-1.286-1.552-1.51-1.559 0.164 0.711 0.775 1.087 1.057 1.635 0.238 0.47 0.677 1.575 1.042 1.726 0.609-0.058 0.984 1.050 1.31 1.28 0.424 0.295 1.293-0.664 1.664-0.569 0.042 0.503 0.033 0.654-0.12 1.21-0.309 1.138-0.831 1.63-1.503 2.552-0.388 0.53-0.639 0.904-0.93 1.488-0.227 0.461 0.438 1.426 0.256 1.683 0.098 0.753-0.085 1.194-0.735 1.57-0.475 0.277-0.884 0.54-0.724 1.061 0.162 0.521-0.486 0.604-0.562 0.897-0.198 0.485-0.474 0.744-0.808 0.926-0.223 0.015-0.445 0.033-0.671 0.033-0.408 0-0.809-0.031-1.205-0.076-0.526-0.66-1.072-1.36-1.636-2.020-0.344-0.394-0.808-1.112-0.306-1.619 0.056-0.328-0.336-1.086-0.511-1.376-0.293-0.491-1.645-1.552-1.117-2.12 0.073-0.376-0.257-0.749-0.257-1.045-0.287-0.231-0.58 0.31-0.86-0.18-0.298-0.525-0.84-0.381-1.29-0.058-0.1 0.069-1.348 0.255-1.459 0.157-0.95-0.85-1.252-2.182-0.922-3.325 0.135-0.474 0.151-1.316 0.528-1.633 0.124-0.492 0.691-0.977 0.993-1.382 0.16-0.217 0.422-0.237 0.609-0.459 0.282-0.332 0.418-0.726 0.782-1.019 0.368-0.292 1.155-0.789 0.486-0.895 0.266-0.39 0.689-0.817 0.846-1.285 0.23-0.184 0.659-0.107 0.917-0.235 0.222-0.456 0.313-0.441 0.229-0.733 0.046-0.186 0.635-0.328 0.76-0.376 0.232-0.091 0.44-0.306 0.651-0.463 0.88-0.248 1.804-0.39 2.762-0.39 5.086-0 9.306 3.737 10.1 8.612z"></path>
<path fill="#444" d="M16.304 7.482c-0.002 0.184 0.657 0.157 0.755 0.182-0.177-0.044 0.060-0.036 0 0 0.598-0.372-1.232-0.727-1.253-0.74 0.049-0.022 0.082-0.057 0.093-0.106-0.327 0.12-0.115-0.237-0.422 0.12 0.080 0.272-0.276 0.452-0.122 0.74 0.319 0.27 0.637-0.146 0.95-0.197z"></path>
<path fill="#444" d="M13.89 8.195c-0.324-0.184-0.091 0.073-0.288 0.292-0.286 0.326-0.26 0.436-0.697 0.268-0.018-0.363 0.82-0.040 0.437-0.704-0.191-0.328-0.375-0.718-0.737-0.478-0.342 0.226-0.959 0.357-1.224 0.85-0.156 0.164-1.257 1.015-1.253 1.090 0.426 0.346 2.101-1.025 2.521-0.622-0.027 0.284-0.355 0.499-0.362 0.786 0.126 0.053 0.156 0.175 0.302 0.197 0.555-0.12 0.406 0.263 0.815 0.363 0.684 0.17 0.162 0.042 0.593-0.386 0.142-0.137 0.897-0.122 0.931 0.115-0.022-0.148 0.317-0.058 0 0 0.337-0.062 0.66 0.277 0.91 0.026 0.178-0.175 0.324-0.14 0.457-0.042 0.609 0.441 0.404-1.278 0.42-1.36-0.211 0.137-1.432 0.264-1.423 0.137 0.022-0.15-0.157-0.161-0.226-0.35 0.238-0.284-0.207-0.142 0.031-0.452-0.12-0.062-0.242-0.062-0.362 0-0.051 0.204 0.1 0.131-0.169 0.075-0.089 0.221 0.209 0.37 0.169 0.574-0.036-0.029-0.078-0.046-0.122-0.044-0.038 0.148-0.011 0.113-0.015 0.347-0.415-0.077-0.189-0.392-0.544-0.846 0.322-0.257-0.668-0.762-0.528-0.923-0.699 0.188 0.555 0.921 0.362 1.089zM12.606 8.469c-0.069 0.029-0.14 0.044-0.213 0.044 0.056-0.177 0.313-0.808 0.469-0.833-0.011 0.228-0.218 0.554-0.257 0.789z"></path>
<path fill="#444" d="M12.606 8.469c0.029-0.177-0.109-0.020 0 0v0z"></path>
<path fill="#444" d="M18.556 7.695c-0.166 0.064 0.042 0.565 0.302 0.545 0.184 0.157 0.391 0.186 0.619 0.091-0.060-0.425-1.12-1.258-1.466-1.44 0.051-0.047 0.071-0.199 0.184-0.182-0.104-0.456-0.575-0.087-0.575 0.201 0.177 0.213 0.892 0.587 0.937 0.786z"></path>
<path fill="#444" d="M18.858 8.241c-0.2 0.015 0.126 0.139 0 0v0z"></path>
<path fill="#444" d="M19.386 6.953c-0.169-0.038-0.349-0.416-0.528-0.47-0.020 0.097-0.013 0.086-0.029 0.153 0.013-0.051 0.078 0.126 0 0 0.065 0.109 0.36 0.527 0.557 0.317z"></path>
<path fill="#444" d="M11.727 7.559c-0.035 0.058-0.095 0.084-0.153 0.113-0.005 0.009-0.007 0.015-0.013 0.024 0.056 0.024 0.118-0.155 0.165-0.137z"></path>
</svg>
