<?xml version="1.0" encoding="utf-8"?>
<!-- Generated by IcoMoon.io -->
<!DOCTYPE svg PUBLIC "-//W3C//DTD SVG 1.1//EN" "http://www.w3.org/Graphics/SVG/1.1/DTD/svg11.dtd">
<svg version="1.1" xmlns="http://www.w3.org/2000/svg" xmlns:xlink="http://www.w3.org/1999/xlink" width="32" height="32" viewBox="0 0 32 32">
<path fill="#444" d="M27.319 19.921c0 0-0.481 0.553-1.097 1.189 1.369-1.744 2.115-3.444 2.418-5.063 0.721 0.017 2.892-0.156 2.951-2.861 0 0-0.218-2.875 0.162-3.271 0 0-2.54 0.24-2.95 4.459 0.011-1.536-0.35-2.98-0.92-4.295 0.558-0.252 2.638-1.421 0.891-4.28 0 0-0.473-0.774-0.421-1.372 0 0-2.168 1.285-1.465 3.339 0 0 0.287 0.558 0.593 1.469-0.731-1.409-1.676-2.647-2.6-3.666-0.033-0.593-0.454-4.387-5.912-3.418 0 0 0.805 4.414 5.699 3.536 0.808 0.997 1.621 2.195 2.241 3.544-0.821-1.309-2.526-3.2-4.949-1.704 0 0 0.743 0.484 1.496 2.066 0 0 0.664 1.788 3.896 0.729 0.481 1.355 0.74 2.836 0.609 4.4-0.155-0.878-0.908-3.734-4.027-2.579 0 0 0.519 0.706 0.703 1.908 0 0 0.64 2.023 3.131 1.95-0.321 1.46-1.006 2.981-2.177 4.529 0.468-1.233 0.91-3.595-2.010-4.543 0 0 0.211 0.785-0.333 1.673 0 0-1.295 2.149 1.088 4.342-0.928 0.973-2.064 1.954-3.433 2.933 0.669-0.909 1.31-2.528 0.192-4.86 0 0 0.098 0.624-0.965 0.937 0 0-3.37 1.024-1.285 5.281-0.602 0.366-1.521 0.842-2.855 1.338-1.334-0.496-2.254-0.971-2.856-1.338 2.087-4.257-1.284-5.281-1.284-5.281-1.065-0.313-0.966-0.937-0.966-0.937-1.117 2.329-0.479 3.948 0.19 4.858-1.368-0.979-2.503-1.959-3.431-2.931 2.382-2.192 1.087-4.341 1.087-4.341-0.544-0.888-0.335-1.673-0.335-1.673-2.916 0.947-2.477 3.305-2.010 4.539-1.169-1.547-1.853-3.066-2.175-4.525 2.489 0.073 3.13-1.95 3.13-1.95 0.184-1.202 0.703-1.908 0.703-1.908-3.113-1.152-3.87 1.689-4.027 2.573-0.13-1.562 0.129-3.041 0.609-4.395 3.232 1.059 3.895-0.729 3.895-0.729 0.754-1.582 1.495-2.066 1.495-2.066-2.421-1.495-4.125 0.393-4.947 1.702 0.62-1.348 1.432-2.545 2.24-3.542 4.894 0.879 5.699-3.536 5.699-3.536-5.451-0.968-5.877 2.818-5.911 3.416-0.924 1.019-1.87 2.257-2.601 3.667 0.306-0.91 0.593-1.468 0.593-1.468 0.704-2.054-1.464-3.339-1.464-3.339 0.051 0.598-0.423 1.372-0.423 1.372-1.747 2.858 0.332 4.027 0.891 4.28-0.568 1.311-0.929 2.75-0.921 4.28-0.415-4.203-2.949-4.443-2.949-4.443 0.379 0.396 0.162 3.271 0.162 3.271 0.059 2.706 2.229 2.879 2.95 2.861 0.302 1.618 1.048 3.317 2.415 5.060-0.614-0.636-1.094-1.186-1.094-1.186-2.061-2.445-4.658-2.438-4.658-2.438 0.339 0.629 0.543 1.857 0.543 1.857 0.432 2.039 1.782 3.047 1.782 3.047 1.563 1.283 3.936 0.286 4.539-0.002 0.986 1.035 2.201 2.081 3.679 3.132-0.81-0.48-2.887-1.584-4.025-1.042-0.048 0.023-1.51 0.678-3.449 0.138 0 0 3.024 4.737 9.367 2.393 0.695 0.407 1.459 0.762 2.251 1.069-1.536 0.483-3.484 0.959-5.932 1.347l0.866 0.561c1.217-0.223 3.806-0.625 6.367-1.449 2.561 0.824 5.151 1.225 6.366 1.449l0.868-0.561c-2.448-0.388-4.397-0.864-5.933-1.347 0.791-0.307 1.556-0.661 2.25-1.068 6.344 2.344 9.369-2.394 9.369-2.394-1.94 0.54-3.402-0.114-3.45-0.138-1.135-0.541-3.206 0.557-4.021 1.039 1.476-1.051 2.69-2.096 3.675-3.13 0.601 0.287 2.976 1.287 4.539 0.003 0 0 1.35-1.008 1.783-3.047 0 0 0.204-1.228 0.543-1.857 0 0-2.598-0.007-4.659 2.438z"></path>
</svg>
