<?xml version="1.0" encoding="utf-8"?>
<!-- Generated by IcoMoon.io -->
<!DOCTYPE svg PUBLIC "-//W3C//DTD SVG 1.1//EN" "http://www.w3.org/Graphics/SVG/1.1/DTD/svg11.dtd">
<svg version="1.1" xmlns="http://www.w3.org/2000/svg" xmlns:xlink="http://www.w3.org/1999/xlink" width="32" height="32" viewBox="0 0 32 32">
<path fill="#444" d="M22.49 9.048c-0.312-0.097-0.671-0.043-0.91 0.136-1.056 0.79-2.774 0.552-3.831-0.239-2.748-1.944-3.168-0.449-4.751 0.032v9.060c1.061-0.614 2.257-2.016 4.257-0.016 2.157 1.922 4.177 0.652 5.506-0.343 0.157-0.118 0.245-0.277 0.245-0.442v-7.609c0-0.254-0.204-0.481-0.516-0.579z"></path>
<path fill="#444" d="M11.991 8.981c0-0.55-0.446-0.995-0.995-0.995-0.532 0-0.966 0.417-0.994 0.942h-0.001v14.131h0.001c0.028 0.525 0.462 0.942 0.994 0.942 0.55 0 0.995-0.446 0.995-0.995 0-0.054 0-13.97 0-14.024z"></path>
</svg>
