<?xml version="1.0" encoding="utf-8"?>
<!-- Generated by IcoMoon.io -->
<!DOCTYPE svg PUBLIC "-//W3C//DTD SVG 1.1//EN" "http://www.w3.org/Graphics/SVG/1.1/DTD/svg11.dtd">
<svg version="1.1" xmlns="http://www.w3.org/2000/svg" xmlns:xlink="http://www.w3.org/1999/xlink" width="32" height="32" viewBox="0 0 32 32">
<path fill="#444" d="M10 15.997c0-3.303 2.688-5.981 6-5.981 0.788 0 1.538 0.15 2.225 0.425l1.7-1.7c-8.528-3.278-14.906 5.219-15.428 5.941-0.309 0.35-0.5 0.813-0.5 1.316 0 0.488 0.175 0.934 0.466 1.278h-0.003c0 0 1.256 1.784 3.416 3.509l2.553-2.553c-0.275-0.688-0.428-1.444-0.428-2.234z"></path>
<path fill="#444" d="M27.997 15.997c0-0.491-0.178-0.941-0.475-1.291v0c-1.197-1.45-2.378-2.619-3.531-3.553l-2.481 2.481c0.313 0.725 0.488 1.525 0.488 2.363 0 3.303-2.688 5.981-6 5.981-0.834 0-1.631-0.172-2.353-0.478l-1.678 1.678c4.137 1.584 9.628 1.225 15.559-5.881h-0.009c0.3-0.347 0.481-0.803 0.481-1.3v0z"></path>
<path fill="#444" d="M13.016 15.65l2.625-2.625c-1.375 0.162-2.466 1.253-2.625 2.625z"></path>
<path fill="#444" d="M18.997 16.147l-2.841 2.841c1.538-0.081 2.766-1.309 2.841-2.841z"></path>
<path fill="#444" d="M23.609 6.514l1.781 1.781-17.079 17.079-1.781-1.781 17.079-17.079z"></path>
</svg>
