<?xml version="1.0" encoding="utf-8"?>
<!-- Generated by IcoMoon.io -->
<!DOCTYPE svg PUBLIC "-//W3C//DTD SVG 1.1//EN" "http://www.w3.org/Graphics/SVG/1.1/DTD/svg11.dtd">
<svg version="1.1" xmlns="http://www.w3.org/2000/svg" xmlns:xlink="http://www.w3.org/1999/xlink" width="32" height="32" viewBox="0 0 32 32">
<path fill="#444" d="M23.816 15.455l-3.808-2.313c-0.279-0.228-0.682-0.174-0.899 0.117-0.217 0.29-0.166 0.708 0.113 0.935l3.191 1.815-3.216 1.842c-0.268 0.241-0.297 0.661-0.066 0.94 0.127 0.154 0.305 0.232 0.485 0.232 0.148 0 0.298-0.053 0.419-0.163l3.808-2.373c0.146-0.131 0.227-0.323 0.221-0.522s-0.096-0.387-0.247-0.509z"></path>
<path fill="#444" d="M9.604 15.993l3.175-1.799c0.279-0.227 0.33-0.644 0.113-0.935-0.218-0.292-0.621-0.345-0.899-0.117l-3.793 2.298c-0.151 0.122-0.242 0.31-0.247 0.509s0.076 0.391 0.221 0.522l3.793 2.389c0.121 0.109 0.27 0.163 0.419 0.163 0.18 0 0.358-0.078 0.485-0.232 0.231-0.279 0.201-0.699-0.066-0.94l-3.201-1.858z"></path>
<path fill="#444" d="M14.437 20.973c-0.34-0.11-0.526-0.475-0.416-0.815l2.752-8.712c0.11-0.34 0.475-0.526 0.815-0.416v0c0.34 0.11 0.526 0.475 0.416 0.815l-2.752 8.712c-0.11 0.34-0.475 0.526-0.815 0.416v0z"></path>
</svg>
