<?xml version="1.0" encoding="utf-8"?>
<!-- Generated by IcoMoon.io -->
<!DOCTYPE svg PUBLIC "-//W3C//DTD SVG 1.1//EN" "http://www.w3.org/Graphics/SVG/1.1/DTD/svg11.dtd">
<svg version="1.1" xmlns="http://www.w3.org/2000/svg" xmlns:xlink="http://www.w3.org/1999/xlink" width="32" height="32" viewBox="0 0 32 32">
<path fill="#444" d="M23.981 5.016c-0.512 0-0.906 0.153-1.413 0.369l-16.728 6.653c-0.184-0.331-0.397-0.531-0.628-0.531-0.662 0-1.197 1.566-1.197 3.494 0 1.931 0.537 3.494 1.197 3.494 0.231 0 0.444-0.2 0.628-0.528l3.1 1.238c0.219 1.603 1.422 3.166 2.997 3.759 0.456 0.159 0.903 0.241 1.325 0.241 0.537 0 1.031-0.131 1.453-0.391 0.372-0.231 0.659-0.563 0.866-0.962 0 0 7.578 3 7.531 2.934 0.272 0.128 0.563 0.203 0.875 0.203 2.744 0 3.994-5.175 3.994-9.984s-1.256-9.988-4-9.988zM14.184 21.962c-0.488 0.3-1.166 0.319-1.909 0.059-1.003-0.378-1.85-1.337-2.2-2.366l4.578 1.825c-0.122 0.197-0.275 0.363-0.469 0.481zM23.981 22.988c-0.512 0-1.997-2.747-1.997-7.988s1.484-7.987 1.997-7.987 1.997 2.747 1.997 7.987c0 5.241-1.484 7.988-1.997 7.988z"></path>
</svg>
