<?xml version="1.0" encoding="utf-8"?>
<!-- Generated by IcoMoon.io -->
<!DOCTYPE svg PUBLIC "-//W3C//DTD SVG 1.1//EN" "http://www.w3.org/Graphics/SVG/1.1/DTD/svg11.dtd">
<svg version="1.1" xmlns="http://www.w3.org/2000/svg" xmlns:xlink="http://www.w3.org/1999/xlink" width="32" height="32" viewBox="0 0 32 32">
<path fill="#444" d="M10.003 7.997l11.997 0.003v3h-11.997z"></path>
<path fill="#444" d="M13.006 21h5.994v1h-6z"></path>
<path fill="#444" d="M13 19.003h6.003l-0.004 0.996-5.992 0.001z"></path>
<path fill="#444" d="M22.919 12.018h-13.877c-1.095 0-2.034 0.836-2.034 1.931l-0.008 6.051h3v5h12v-5h3v-6c0-1.095-0.986-1.982-2.081-1.982zM10.496 15c-0.274 0-0.496-0.222-0.496-0.496s0.222-0.496 0.496-0.496c0.274 0 0.496 0.222 0.496 0.496s-0.222 0.496-0.496 0.496zM20.936 20.044v3.965h-9.912v-5.947h9.912v1.982z"></path>
</svg>
