<?xml version="1.0" encoding="utf-8"?>
<!-- Generated by IcoMoon.io -->
<!DOCTYPE svg PUBLIC "-//W3C//DTD SVG 1.1//EN" "http://www.w3.org/Graphics/SVG/1.1/DTD/svg11.dtd">
<svg version="1.1" xmlns="http://www.w3.org/2000/svg" xmlns:xlink="http://www.w3.org/1999/xlink" width="32" height="32" viewBox="0 0 32 32">
<path fill="#444" d="M22.045 19.819c-1.213-0.534-2.585-1.125-3.18-1.731-0.528-0.538-0.64-1.088-0.65-1.616 0.653-0.693 1.153-1.672 1.45-2.763 0.187-0.094 0.406-0.505 0.529-1.026 0.147-0.622 0.244-1.217-0.101-1.209-0.037 0.001-0.076-0.005-0.117-0.011 0-0.027 0.001-0.055 0.001-0.082 0-3.041-1.611-4.381-3.967-4.381-2.355 0-3.969 1.34-3.969 4.381 0 0.027 0.001 0.055 0.001 0.083-0.040 0.006-0.079 0.012-0.115 0.011-0.346-0.009-0.248 0.586-0.101 1.209 0.123 0.52 0.341 0.93 0.528 1.026 0.298 1.089 0.797 2.068 1.45 2.761-0.010 0.529-0.121 1.080-0.651 1.619-0.594 0.606-1.967 1.197-3.18 1.731-3.186 1.402-2.941 3.974-2.974 4.192h18.011c-0.033-0.218 0.221-2.79-2.965-4.192z"></path>
</svg>
