<?xml version="1.0" encoding="utf-8"?>
<!-- Generated by IcoMoon.io -->
<!DOCTYPE svg PUBLIC "-//W3C//DTD SVG 1.1//EN" "http://www.w3.org/Graphics/SVG/1.1/DTD/svg11.dtd">
<svg version="1.1" xmlns="http://www.w3.org/2000/svg" xmlns:xlink="http://www.w3.org/1999/xlink" width="32" height="32" viewBox="0 0 32 32">
<path fill="#444" d="M31.006 24.582c-0.535-1.171-7.12-2.965-7.665-2.995-0.142-0.006-0.291 0.003-0.44 0.031-0.898 0.17-1.887 0.959-3.964 2.665-2.343-1.003-5.546-3.68-7.058-5.259-1.633-1.706-3.671-4.579-4.406-6.725 2.368-1.946 3.354-2.791 3.42-3.73 0.033-0.506-1.098-6.779-2.289-7.415-0.103-0.055-0.223-0.128-0.356-0.208-0.756-0.453-1.903-1.137-3.175-0.896-0.309 0.059-0.607 0.172-0.889 0.333-0.856 0.498-2.945 1.844-3.896 3.601-0.588 1.094-0.856 11.084 7.218 19.525 7.981 8.348 17.823 8.711 19.303 8.431l0.040-0.008 0.13-0.034c1.993-0.664 3.687-2.427 4.325-3.156 1.172-1.344 0.335-2.944-0.116-3.802-0.070-0.134-0.133-0.253-0.182-0.358z"></path>
</svg>
