<svg xmlns="http://www.w3.org/2000/svg" width="2048" height="2048" viewBox="0 0 2048 2048"><path d="M1300.365 1h-551.73C335.715 1 1 344.645 1 768.625c0 386.316 278.057 704.903 639.689 758.752V2048l511.748-511.75h147.932c412.915 0 747.632-343.582 747.632-767.625C2048 344.645 1713.283 1 1300.365 1zm-19.767 1279.695h-222.03l-224.974 259.576v-258.427l-142.406-18.01c-247.916-37.749-434.875-203.494-434.875-469.08 0-296.898 227.701-538.443 507.589-538.443h521.195c279.887 0 507.59 241.544 507.59 538.443.001 296.9-232.204 485.941-512.089 485.941z"/><circle cx="637.934" cy="766.121" r="128.188"/><circle cx="1022.497" cy="766.121" r="128.188"/><circle cx="1407.061" cy="766.121" r="128.188"/></svg>