<?xml version="1.0" encoding="utf-8"?>
<!-- Generated by IcoMoon.io -->
<!DOCTYPE svg PUBLIC "-//W3C//DTD SVG 1.1//EN" "http://www.w3.org/Graphics/SVG/1.1/DTD/svg11.dtd">
<svg version="1.1" xmlns="http://www.w3.org/2000/svg" xmlns:xlink="http://www.w3.org/1999/xlink" width="32" height="32" viewBox="0 0 32 32">
<path fill="#444" d="M16.002 2c-7.731 0-14.002 6.271-14.002 14.002s6.271 14.002 14.002 14.002c7.733 0 14.002-6.271 14.002-14.002s-6.269-14.002-14.002-14.002zM16.002 5.797c2.115 0 4.083 0.648 5.712 1.754l-14.163 14.163c-1.105-1.631-1.754-3.598-1.754-5.712 0-5.627 4.578-10.205 10.205-10.205zM16.002 26.207c-2.143 0-4.127-0.671-5.772-1.802l14.174-14.174c1.131 1.644 1.802 3.629 1.802 5.771 0 5.627-4.578 10.205-10.205 10.205z"></path>
</svg>
