<?xml version="1.0" encoding="utf-8"?>
<!-- Generated by IcoMoon.io -->
<!DOCTYPE svg PUBLIC "-//W3C//DTD SVG 1.1//EN" "http://www.w3.org/Graphics/SVG/1.1/DTD/svg11.dtd">
<svg version="1.1" xmlns="http://www.w3.org/2000/svg" xmlns:xlink="http://www.w3.org/1999/xlink" width="32" height="32" viewBox="0 0 32 32">
<path fill="#444" d="M22 23h6l-3 3z"></path>
<path fill="#444" d="M19 10h-13c-1.105 0-2 0.895-2 2v8c0 1.105 0.895 2 2 2h13c1.105 0 2-0.895 2-2v-8c0-1.105-0.895-2-2-2zM18 12c0.552 0 1 0.448 1 1v1.434h-3.718v-2.434h2.718zM10.283 15h4.432v1.999h-4.432v-1.999zM9.717 17h-3.717v-1.999h3.717v1.999zM15.282 15h3.718v1.999h-3.718v-1.999zM14.715 12v2.434h-4.432v-2.434h4.432zM7 12h2.717v2.434h-3.717v-1.434c0-0.552 0.448-1 1-1zM7 20c-0.552 0-1-0.448-1-1v-1.434h3.717v2.434h-2.717zM10.283 20v-2.434h4.432v2.434h-4.432zM18 20h-2.718v-2.434h3.718v1.434c0 0.552-0.448 1-1 1z"></path>
</svg>
