<?xml version="1.0" encoding="utf-8"?>
<!-- Generated by IcoMoon.io -->
<!DOCTYPE svg PUBLIC "-//W3C//DTD SVG 1.1//EN" "http://www.w3.org/Graphics/SVG/1.1/DTD/svg11.dtd">
<svg version="1.1" xmlns="http://www.w3.org/2000/svg" xmlns:xlink="http://www.w3.org/1999/xlink" width="32" height="32" viewBox="0 0 32 32">
<path fill="#444" d="M27.997 15.997c0-0.491-0.178-0.941-0.475-1.291v0c-12.084-14.622-22.356-0.947-23.025-0.025-0.309 0.35-0.5 0.813-0.5 1.316 0 0.488 0.175 0.934 0.466 1.278h-0.003c0 0 10.563 15.003 23.063 0.022h-0.009c0.303-0.347 0.484-0.803 0.484-1.3v0zM16 21.978c-3.313 0-6-2.678-6-5.981s2.688-5.981 6-5.981c3.313 0 6 2.678 6 5.981s-2.688 5.981-6 5.981v0z"></path>
<path fill="#444" d="M19.003 15.997c0 1.653-1.344 2.994-3.003 2.994s-3.003-1.341-3.003-2.994c0-1.653 1.344-2.994 3.003-2.994 1.656 0 3.003 1.341 3.003 2.994v0z"></path>
</svg>
