<?xml version="1.0" encoding="utf-8"?>
<!-- Generated by IcoMoon.io -->
<!DOCTYPE svg PUBLIC "-//W3C//DTD SVG 1.1//EN" "http://www.w3.org/Graphics/SVG/1.1/DTD/svg11.dtd">
<svg version="1.1" xmlns="http://www.w3.org/2000/svg" xmlns:xlink="http://www.w3.org/1999/xlink" width="32" height="32" viewBox="0 0 32 32">
<path fill="#444" d="M32.003 5.094c-1.178 0.522-2.443 0.875-3.771 1.034 1.356-0.813 2.397-2.099 2.887-3.632-1.269 0.752-2.674 1.299-4.17 1.593-1.198-1.276-2.904-2.073-4.793-2.073-3.626 0-6.566 2.94-6.566 6.566 0 0.515 0.058 1.016 0.17 1.496-5.456-0.273-10.296-2.888-13.533-6.86-0.565 0.97-0.889 2.098-0.889 3.301 0 2.278 1.159 4.287 2.921 5.465-1.075-0.034-2.088-0.329-2.974-0.821-0.001 0.027-0.001 0.055-0.001 0.082 0 3.181 2.264 5.835 5.267 6.438-0.55 0.15-1.131 0.231-1.73 0.231-0.423 0-0.834-0.041-1.235-0.118 0.836 2.608 3.261 4.507 6.134 4.56-2.247 1.761-5.078 2.811-8.154 2.811-0.53 0-1.052-0.031-1.566-0.092 2.905 1.863 6.356 2.951 10.065 2.951 12.077 0 18.681-10.005 18.681-18.682 0-0.284-0.006-0.567-0.019-0.849 1.283-0.925 2.396-2.082 3.276-3.399z"></path>
</svg>
