<?xml version="1.0" encoding="utf-8"?>
<!-- Generated by IcoMoon.io -->
<!DOCTYPE svg PUBLIC "-//W3C//DTD SVG 1.1//EN" "http://www.w3.org/Graphics/SVG/1.1/DTD/svg11.dtd">
<svg version="1.1" xmlns="http://www.w3.org/2000/svg" xmlns:xlink="http://www.w3.org/1999/xlink" width="32" height="32" viewBox="0 0 32 32">
<path fill="#444" d="M27.94 0h-24.002c-2.2 0-4 1.8-4 4v24.002c0 2.2 1.8 4 4 4h24.002c2.201 0 4-1.8 4-4v-24.002c0-2.2-1.8-4-4-4zM27.298 9.734l-2.739 0.692c-0.408 0.137-1.515 1.104-3.438 2.97-2.040 1.934-3.089 3.177-3.264 3.799l-0.116 1.726-0.058 1.037 0.234 2.624 3.612 0.069-0.058 1.312h-5.886l-5.245 0.069 0.174-1.244 1.69-0.068c0.875-0.069 1.399-0.207 1.574-0.416 0.116-0.137 0.174-0.966 0.174-2.417v-0.896l-0.058-1.796c-0.116-0.415-1.049-1.934-2.855-4.559-1.865-2.693-3.088-4.283-3.672-4.837l-3.38-0.552v-1.175c0.175-0.137 2.041-0.137 5.478-0.068 2.389-0.069 4.371-0.069 5.945 0.068l-0.117 0.968-3.555 0.415c1.107 1.934 2.798 4.628 5.070 8.012 2.972-2.694 4.545-4.421 4.603-5.18l-3.029-0.553-0.234-1.243h5.071l4.778 0.069-0.699 1.174z"></path>
</svg>
