<?xml version="1.0" encoding="utf-8"?>
<!-- Generated by IcoMoon.io -->
<!DOCTYPE svg PUBLIC "-//W3C//DTD SVG 1.1//EN" "http://www.w3.org/Graphics/SVG/1.1/DTD/svg11.dtd">
<svg version="1.1" xmlns="http://www.w3.org/2000/svg" xmlns:xlink="http://www.w3.org/1999/xlink" width="32" height="32" viewBox="0 0 32 32">
<path fill="#444" d="M28.018-0.016h-24.002c-2.2 0-4 1.8-4 4v24.002c0 2.2 1.8 4 4 4h24.002c2.201 0 4-1.8 4-4v-24.002c0-2.2-1.8-4-4-4zM23.336 17.142l0 0.002-11.584 6.681c-0.028 0.018-0.056 0.034-0.086 0.049l-0.040 0.023-0.003-0.002c-0.139 0.064-0.292 0.1-0.453 0.1-0.629 0-1.139-0.544-1.139-1.214v-13.613c0-0.671 0.51-1.214 1.139-1.214 0.131 0 0.256 0.024 0.373 0.067l0.001-0.001 0.003 0.002c0.122 0.046 0.234 0.112 0.333 0.197l11.376 6.719c0.413 0.182 0.703 0.616 0.703 1.122 0 0.473-0.253 0.882-0.623 1.083z"></path>
</svg>
