<?xml version="1.0" encoding="utf-8"?>
<!-- Generator: Adobe Illustrator 14.0.0, SVG Export Plug-In . SVG Version: 6.00 Build 43363)  -->
<!DOCTYPE svg PUBLIC "-//W3C//DTD SVG 1.1//EN" "http://www.w3.org/Graphics/SVG/1.1/DTD/svg11.dtd">
<svg version="1.1" id="Layer_1" xmlns="http://www.w3.org/2000/svg" xmlns:xlink="http://www.w3.org/1999/xlink" x="0px" y="0px"
	 width="2048px" height="2048px" viewBox="718 1420 2048 2048" enable-background="new 718 1420 2048 2048" xml:space="preserve">
<path d="M1293.59,2059h416.529v17.767h-20.188c-30.397,0-45.138,2.843-56.473,8.507c-11.353,5.666-19.432,13.472-24.233,23.433
	c-4.821,9.96-7.214,34.846-7.214,74.655v272.312c0,61.936,5.263,98.348,15.789,118.432s27.859,33.758,52.002,47.033
	c24.145,13.275,59.106,15.191,95.873,15.191c42.139,0,53.643-6.866,86.55-20.549c30.178-18.933,49.061-36.527,66.651-66.691
	c14.738-29.604,18.115-81.17,18.115-154.681v-211.045c0-31.237-3.661-53.559-10.968-66.95
	c-7.306-13.388-16.523-22.646-27.675-27.808c-17.298-7.887-40.589-11.837-72.109-11.837v-17.768h300.629v17.768h-27.164
	c-21.787,0-35.229,3.951-49.748,11.854c-14.538,7.903-30.151,19.743-36.648,35.518c-4.968,10.987-7.452,30.73-7.452,59.225v196.317
	c0,81.382-4.725,140.554-18.106,176.189c-12.614,33.594-48.963,77.998-83.07,99.572c-47.079,29.773-110.499,45.443-191.319,45.443
	c-67.422,0-123.651-7-160.418-23.002c-50.181-21.783-76.604-50.689-97.286-84.736c-20.684-34.045-31.024-79.832-31.024-137.375
	v-272.411c0-40.169-2.503-65.136-7.49-74.917c-4.986-9.781-13.618-17.587-25.891-23.432c-12.292-5.83-64.687-8.573-97.661-8.246
	V2059L1293.59,2059z"/>
<rect x="1294" y="2893.5" width="833.632" height="64"/>
</svg>
