<?xml version="1.0" encoding="utf-8"?>
<!-- Generated by IcoMoon.io -->
<!DOCTYPE svg PUBLIC "-//W3C//DTD SVG 1.1//EN" "http://www.w3.org/Graphics/SVG/1.1/DTD/svg11.dtd">
<svg version="1.1" xmlns="http://www.w3.org/2000/svg" xmlns:xlink="http://www.w3.org/1999/xlink" width="32" height="32" viewBox="0 0 32 32">
<path fill="#444" d="M8.994 9.984h6.508v0.278h-0.315c-0.475 0-0.705 0.044-0.882 0.133s-0.304 0.21-0.379 0.366c-0.075 0.156-0.113 0.544-0.113 1.167v4.255c0 0.968 0.082 1.537 0.247 1.851s0.435 0.527 0.813 0.735c0.377 0.207 0.924 0.237 1.498 0.237 0.658 0 0.838-0.107 1.352-0.321 0.472-0.296 0.767-0.571 1.041-1.042 0.23-0.463 0.283-1.268 0.283-2.417v-3.298c0-0.488-0.057-0.837-0.171-1.046s-0.258-0.354-0.432-0.434c-0.27-0.123-0.634-0.185-1.127-0.185v-0.278h4.697v0.278h-0.424c-0.34 0-0.55 0.062-0.777 0.185s-0.471 0.308-0.573 0.555c-0.078 0.172-0.116 0.48-0.116 0.925v3.067c0 1.272-0.074 2.196-0.283 2.753-0.197 0.525-0.765 1.219-1.298 1.556-0.736 0.465-1.727 0.71-2.989 0.71-1.053 0-1.932-0.109-2.507-0.359-0.784-0.34-1.197-0.792-1.52-1.324s-0.485-1.247-0.485-2.146v-4.256c0-0.628-0.039-1.018-0.117-1.171s-0.213-0.275-0.405-0.366c-0.192-0.091-1.011-0.134-1.526-0.129v-0.278z"></path>
<path fill="#444" d="M9 23.023h13.026v1h-13.025v-1z"></path>
</svg>
