<?xml version="1.0" encoding="utf-8"?>
<!-- Generated by IcoMoon.io -->
<!DOCTYPE svg PUBLIC "-//W3C//DTD SVG 1.1//EN" "http://www.w3.org/Graphics/SVG/1.1/DTD/svg11.dtd">
<svg version="1.1" xmlns="http://www.w3.org/2000/svg" xmlns:xlink="http://www.w3.org/1999/xlink" width="32" height="32" viewBox="0 0 32 32">
<path fill="#444" d="M30.003 10.5c0-0.276-0.224-0.5-0.5-0.5-0.108 0-0.207 0.034-0.289 0.092l-7.214 4.152v-4.255c0-1.105-0.895-2-2-2h-16.023c-1.105 0-2 0.895-2 2v12.011c0 1.105 0.895 2 2 2h16.023c1.105 0 2-0.895 2-2v-4.242l7.232 4.162c0.078 0.051 0.171 0.080 0.271 0.080 0.276 0 0.5-0.224 0.5-0.5v-10.992l-0-0c0-0.003 0-0.005 0-0.008z"></path>
</svg>
