<svg xmlns="http://www.w3.org/2000/svg" viewBox="0 0 1024 1024"><g fill="none" stroke="#449FDB"><path opacity=".3" d="M16 0v1024"/><path d="M32 0v1024"/><path opacity=".3" d="M48 0v1024"/><path d="M64 0v1024"/><path opacity=".3" d="M80 0v1024"/><path d="M96 0v1024"/><path opacity=".3" d="M112 0v1024"/><path d="M128 0v1024"/><path opacity=".3" d="M144 0v1024"/><path d="M160 0v1024"/><path opacity=".3" d="M176 0v1024"/><path d="M192 0v1024"/><path opacity=".3" d="M208 0v1024"/><path d="M224 0v1024"/><path opacity=".3" d="M240 0v1024"/><path d="M256 0v1024"/><path opacity=".3" d="M272 0v1024"/><path d="M288 0v1024"/><path opacity=".3" d="M304 0v1024"/><path d="M320 0v1024"/><path opacity=".3" d="M336 0v1024"/><path d="M352 0v1024"/><path opacity=".3" d="M368 0v1024"/><path d="M384 0v1024"/><path opacity=".3" d="M400 0v1024"/><path d="M416 0v1024"/><path opacity=".3" d="M432 0v1024"/><path d="M448 0v1024"/><path opacity=".3" d="M464 0v1024"/><path d="M480 0v1024"/><path opacity=".3" d="M496 0v1024"/><path d="M512 0v1024"/><path opacity=".3" d="M528 0v1024"/><path d="M544 0v1024"/><path opacity=".3" d="M560 0v1024"/><path d="M576 0v1024"/><path opacity=".3" d="M592 0v1024"/><path d="M608 0v1024"/><path opacity=".3" d="M624 0v1024"/><path d="M640 0v1024"/><path opacity=".3" d="M656 0v1024"/><path d="M672 0v1024"/><path opacity=".3" d="M688 0v1024"/><path d="M704 0v1024"/><path opacity=".3" d="M720 0v1024"/><path d="M736 0v1024"/><path opacity=".3" d="M752 0v1024"/><path d="M768 0v1024"/><path opacity=".3" d="M784 0v1024"/><path d="M800 0v1024"/><path opacity=".3" d="M816 0v1024"/><path d="M832 0v1024"/><path opacity=".3" d="M848 0v1024"/><path d="M864 0v1024"/><path opacity=".3" d="M880 0v1024"/><path d="M896 0v1024"/><path opacity=".3" d="M912 0v1024"/><path d="M928 0v1024"/><path opacity=".3" d="M944 0v1024"/><path d="M960 0v1024"/><path opacity=".3" d="M976 0v1024"/><path d="M992 0v1024"/><path opacity=".3" d="M1008 0v1024M0 16h1024"/><path d="M0 32h1024"/><path opacity=".3" d="M0 48h1024"/><path d="M0 64h1024"/><path opacity=".3" d="M0 80h1024"/><path d="M0 96h1024"/><path opacity=".3" d="M0 112h1024"/><path d="M0 128h1024"/><path opacity=".3" d="M0 144h1024"/><path d="M0 160h1024"/><path opacity=".3" d="M0 176h1024"/><path d="M0 192h1024"/><path opacity=".3" d="M0 208h1024"/><path d="M0 224h1024"/><path opacity=".3" d="M0 240h1024"/><path d="M0 256h1024"/><path opacity=".3" d="M0 272h1024"/><path d="M0 288h1024"/><path opacity=".3" d="M0 304h1024"/><path d="M0 320h1024"/><path opacity=".3" d="M0 336h1024"/><path d="M0 352h1024"/><path opacity=".3" d="M0 368h1024"/><path d="M0 384h1024"/><path opacity=".3" d="M0 400h1024"/><path d="M0 416h1024"/><path opacity=".3" d="M0 432h1024"/><path d="M0 448h1024"/><path opacity=".3" d="M0 464h1024"/><path d="M0 480h1024"/><path opacity=".3" d="M0 496h1024"/><path d="M0 512h1024"/><path opacity=".3" d="M0 528h1024"/><path d="M0 544h1024"/><path opacity=".3" d="M0 560h1024"/><path d="M0 576h1024"/><path opacity=".3" d="M0 592h1024"/><path d="M0 608h1024"/><path opacity=".3" d="M0 624h1024"/><path d="M0 640h1024"/><path opacity=".3" d="M0 656h1024"/><path d="M0 672h1024"/><path opacity=".3" d="M0 688h1024"/><path d="M0 704h1024"/><path opacity=".3" d="M0 720h1024"/><path d="M0 736h1024"/><path opacity=".3" d="M0 752h1024"/><path d="M0 768h1024"/><path opacity=".3" d="M0 784h1024"/><path d="M0 800h1024"/><path opacity=".3" d="M0 816h1024"/><path d="M0 832h1024"/><path opacity=".3" d="M0 848h1024"/><path d="M0 864h1024"/><path opacity=".3" d="M0 880h1024"/><path d="M0 896h1024"/><path opacity=".3" d="M0 912h1024"/><path d="M0 928h1024"/><path opacity=".3" d="M0 944h1024"/><path d="M0 960h1024"/><path opacity=".3" d="M0 976h1024"/><path d="M0 992h1024"/><path opacity=".3" d="M0 1008h1024"/></g><path d="M895.9 511.9c0-15.7-5.7-30.1-15.2-41.3-386.7-467.9-715.4-30.3-736.8-.8-9.9 11.2-16 26-16 42.1 0 15.6 5.6 29.9 14.9 40.9h-.1s338 480.1 738 .7h-.3c9.7-11.1 15.5-25.7 15.5-41.6zM512 703.3c-106 0-192-85.7-192-191.4s86-191.4 192-191.4 192 85.7 192 191.4-86 191.4-192 191.4z"/><path d="M608.1 511.9c0 52.9-43 95.8-96.1 95.8s-96.1-42.9-96.1-95.8 43-95.8 96.1-95.8c53 0 96.1 42.9 96.1 95.8z"/></svg>