<?xml version="1.0" encoding="utf-8"?>
<!-- Generator: Adobe Illustrator 14.0.0, SVG Export Plug-In . SVG Version: 6.00 Build 43363)  -->
<!DOCTYPE svg PUBLIC "-//W3C//DTD SVG 1.1//EN" "http://www.w3.org/Graphics/SVG/1.1/DTD/svg11.dtd">
<svg version="1.1" id="Layer_1" xmlns="http://www.w3.org/2000/svg" xmlns:xlink="http://www.w3.org/1999/xlink" x="0px" y="0px"
	 width="2048px" height="2048px" viewBox="718 1420 2048 2048" enable-background="new 718 1420 2048 2048" xml:space="preserve">
<g id="_x33_2-move" display="none">
	<path display="inline" d="M2266,3288h-384c-35.346,0-64,28.654-64,64v1024c0,35.347,28.654,64,64,64h704c35.346,0,64-28.653,64-64
		v-192h-128v96c0,17.673-14.326,32-32,32h-512c-17.673,0-32-14.327-32-32v-832c0-17.673,14.327-32,32-32h224v288
		c0,17.673,14.327,32,32,32h288l0,0h128v-64L2266,3288z"/>
	<path display="inline" d="M3088.627,3938.02l-256.471-257.129c-0.039-0.025-0.079-0.054-0.119-0.082
		c-5.738-5.455-13.493-8.81-22.037-8.81c-16.477,0-30.038,12.454-31.801,28.46c-0.125,0.714-0.189,1.404-0.199,2.071v161.538h-288
		c-17.673,0-32,14.326-32,32V4024c0,17.673,14.327,32,32,32h288v161.797c0.021,0.302,0.059,0.605,0.128,0.916
		c1.407,16.374,15.134,29.229,31.872,29.229c7.941,0,15.201-2.897,20.794-7.688c1.104-0.554,2.096-1.241,2.94-2.087l254.893-254.892
		C3101.124,3970.777,3101.124,3950.516,3088.627,3938.02z"/>
</g>
<g id="_x31_6-assigned" display="none">
	<path display="inline" d="M2493.64,4228.702c-140.192-58.981-173.362-79.524-173.362-79.524l-1.363-135.812
		c0,0,52.506-40.813,68.964-168.567c32.683,9.565,67.248-49.396,69.099-80.638c1.754-29.854-4.604-113.146-44.649-104.82
		c8.104-62.743,13.962-118.936,11.219-148.922c-10.335-109.109-116.735-224.14-280.37-224.14
		c-163.382,0-269.889,115.027-280.371,224.139c-2.736,29.991,3.121,86.18,11.355,148.922c-40.157-8.323-46.52,74.967-44.648,104.82
		c1.871,31.24,36.292,90.203,69.217,80.638c16.213,127.754,68.845,168.567,68.845,168.567l-1.371,135.812
		c0,0-33.306,20.543-173.238,79.524c-140.434,59.07-281.979,100.392-324.017,166.677C1436,4470.01,1436,4824,1436,4824h707.176
		h700.939c0,0-0.168-351.429-26.577-428.621C2794.396,4334.175,2657.716,4293.175,2493.64,4228.702z"/>
	<path display="inline" d="M3459.503,4442.944c-24.058-64.394-38.575-95.757-168.875-148.238
		c-130.297-52.499-161.26-70.698-161.26-70.698l-1.039-120.705c0,0,48.769-36.285,63.991-149.887
		c30.45,8.49,62.436-44.129,64.237-71.689c1.548-26.562-4.243-100.621-41.534-93.265c7.473-55.735,13.162-105.854,10.57-132.292
		c-9.66-97.135-108.633-199.378-260.594-199.378c-151.977,0-250.802,102.243-260.605,199.378
		c-2.578,26.438,2.828,76.562,10.573,132.292c-37.405-7.355-43.34,66.703-41.538,93.265c1.812,27.562,33.793,80.183,64.237,71.689
		c15.225,113.602,64.13,149.887,64.13,149.887l-1.384,118.928c145.591,94.435,159.511,176.053,159.511,176.053
		c11.674,106.986,13.088,257.039,13.088,425.72h511.109C3484.14,4824,3483.632,4501.508,3459.503,4442.944z"/>
</g>
<g id="_x31_6-check" display="none">
	<polygon display="inline" points="3229,3032 2204,4058 1692.011,3543.991 1436,3799.729 2203,4696 3484,3288 	"/>
</g>
<g id="_x31_6-attach" display="none">
	<path id="clip_2_" display="inline" fill="#333333" d="M3208.391,3119.34c-196.754-201.788-515.92-201.788-712.684,0
		l-817.072,827.444c-152.846,156.599-152.846,411.498,0,568.141c152.854,156.649,401.521,156.649,554.244,0l817.078-827.467
		c109.32-112.095,109.32-293.734,0-405.83c-109.367-112.012-286.663-112.012-395.931,0l-614.181,629.511
		c-21.878,22.467-21.878,58.686,0,81.163c21.862,22.458,57.313,22.458,79.186,0l614.229-629.521
		c65.522-67.091,172.053-67.091,237.562,0c65.521,67.145,65.521,176.377,0,243.521l-817.018,827.41
		c-109.372,112.095-286.556,112.095-395.934,0c-109.374-112.031-109.374-293.729,0-405.765l809.032-819.384
		c153.116-156.896,401.403-156.896,554.298,0c153.173,156.963,153.173,411.218,0.107,568.123l-606.244,621.38
		c-22.027,22.527-22.027,58.743,0,81.158c21.879,22.523,57.261,22.523,79.183,0l614.146-629.462
		C3405.258,3648.082,3405.258,3321,3208.391,3119.34z"/>
</g>
<g id="_x31_6-insert-link" display="none">
	<path display="inline" fill="#010101" d="M2842.956,2967.646h-64.015c-1.827,0-3.622,0.119-5.418,0.273h-697.537
		c-70.708,0-128.026,57.319-128.026,128.029v511.837h128.026V3159.96c0-35.354,28.665-64.012,64.015-64.012h574.932v447.823
		c0,35.351,28.656,64.015,64.012,64.015h448.101v960.21c0,35.354-28.659,64.01-64.016,64.01H2140
		c-35.35,0-64.015-28.656-64.015-64.01v-320.07h-128.026v384.08c0,70.707,57.319,128.028,128.026,128.028h1151.056
		c70.708,0,128.025-57.321,128.025-128.028V3543.771v-64.019L2842.956,2967.646z"/>
	<path display="inline" d="M2699.688,3894.387l-411.737-400.771c-0.057-0.044-0.122-0.082-0.173-0.126
		c-8.963-8.51-21.037-13.732-34.356-13.732c-25.683,0-46.825,19.413-49.565,44.36c-0.189,1.116-0.293,2.188-0.315,3.229v207.771
		h-588.925c-27.537,0-49.874,22.333-49.874,49.879v283.413c0,27.554,22.337,49.874,49.874,49.874h588.922v212.188
		c0.034,0.455,0.099,0.939,0.2,1.424c2.199,25.521,23.597,45.552,49.683,45.552c12.376,0,23.688-4.522,32.412-11.986
		c1.722-0.848,3.265-1.925,4.579-3.255l409.275-397.281C2719.18,3945.443,2719.18,3913.863,2699.688,3894.387z"/>
</g>
<g id="_x31_6-restore" display="none">
	<path display="inline" d="M2588.554,2843.5c-445.959,0-828.581,337.809-896.554,764.632h-256L1820,4248l384.015-639.868H1947
		c64.513-284.761,337.278-508.953,641.554-508.953c353.021,0,639.196,286.18,639.196,639.196
		c0,353.018-286.179,639.196-639.196,639.196c-145.482,0-277.124-46.714-384.554-128.571l-127.773,223.105
		c145.141,101.528,321.762,161.145,512.327,161.145c494.228,0,894.876-400.648,894.876-894.875S3082.777,2843.5,2588.554,2843.5z"/>
</g>
<g id="_x31_6-preview" display="none">
	<g display="inline">
		<rect x="1822.932" y="3482.605" fill="#010101" width="383.289" height="127.763"/>
		<path fill="#010101" d="M3465.141,4740.986L3246.753,4522.6c68.759-94.746,109.337-211.275,109.337-337.298
			c0-249.915-159.475-462.55-382.197-541.788V3419.18v-63.937l-511.459-511.453h-63.933c-1.824,0-3.618,0.121-5.412,0.276h-825.582
			c-70.619,0-127.864,57.246-127.864,127.865v1150.504v127.257v256.333c0,70.611,57.245,127.861,127.864,127.861h854.069
			c98.47,79.032,223.49,126.351,359.579,126.351c126.021,0,242.551-40.577,337.3-109.337l218.384,218.388
			c24.95,24.95,65.396,24.95,90.345,0l37.957-37.956C3490.09,4806.381,3490.09,4765.938,3465.141,4740.986z M1631.44,4506.023
			c-35.307,0-63.934-28.623-63.934-63.932v-192.4v-127.257V3035.859c0-35.311,28.627-63.929,63.934-63.929h703.133v447.249
			c0,35.309,28.619,63.935,63.928,63.935h447.524v130.921c-21.297-2.395-42.938-3.665-64.871-3.665
			c-136.897,0-262.601,47.878-361.336,127.763h-596.888v127.765h480.138c-26.386,39.416-48.009,82.274-64.084,127.763h-416.052
			v127.764h386.843c-2.32,20.979-3.555,42.285-3.555,63.882c0,118.761,36.018,229.104,97.709,320.724L1631.44,4506.023
			L1631.44,4506.023z M2780.87,4631.903c-246.808,0-446.886-200.078-446.886-446.888s200.078-446.887,446.886-446.887
			s446.888,200.078,446.888,446.887C3227.758,4431.825,3027.678,4631.903,2780.87,4631.903z"/>
	</g>
</g>
<g id="_x31_6-copylink" display="none">
	<path display="inline" fill="#010101" d="M3110.275,3793.284l-288.129,288.407c-159.028,159.34-417.029,159.34-576.062,0
		c-25.062-24.99-44.658-53.186-61.866-82.262l133.877-134.051c6.368-6.425,14.227-10.105,21.729-14.446
		c9.249,31.681,25.41,61.653,50.277,86.545c79.412,79.577,208.663,79.479,288.031,0l288.031-288.407
		c79.466-79.568,79.466-208.937,0-288.454c-79.368-79.522-208.562-79.522-288.031,0l-102.438,102.676
		c-83.104-32.417-172.662-41.131-259.84-28.333l218.265-218.547c159.132-159.294,417.024-159.294,576.164,0
		C3269.312,3375.709,3269.312,3633.996,3110.275,3793.284z M2348.578,4267.528l-102.493,102.673
		c-79.42,79.472-208.667,79.472-288.085,0c-79.416-79.572-79.416-208.938,0-288.501l288.085-288.416
		c79.468-79.575,208.614-79.575,288.028,0c24.822,24.851,40.979,54.823,50.33,86.443c7.562-4.39,15.319-7.966,21.689-14.341
		L2740,3731.395c-17.104-29.18-36.798-57.268-61.855-82.31c-159.041-159.291-417.031-159.291-576.113,0l-288.032,288.411
		c-159.084,159.339-159.084,417.574,0,576.918c159.082,159.232,417.03,159.232,576.113,0l218.312-218.605
		C2521.186,4308.657,2431.624,4299.895,2348.578,4267.528z"/>
</g>
<g id="_x31_6-download" display="none">
	<g display="inline">
		<polygon points="2971.936,4119.895 2971.936,4247.875 1948.089,4247.875 1948.089,4119.895 1691.881,4119.895 1692.128,4503.837 
			3227.896,4503.837 3227.896,4119.895 		"/>
		<polygon points="2971.936,3607.968 2715.971,3607.97 2715.971,3224.029 2204.051,3224.029 2204.053,3607.972 1948.089,3607.972 
			2460.012,4119.895 		"/>
	</g>
</g>
<g id="_x31_6-info" display="none">
	<path display="inline" d="M2461.75,3095.694c-423.909,0-767.556,343.647-767.556,767.556
		c0,423.909,343.646,767.557,767.556,767.557s767.557-343.646,767.557-767.557
		C3229.307,3439.342,2885.659,3095.694,2461.75,3095.694z M2565.407,4324.65c-71.044,70.966-138.285,110.338-201.735,118.094
		c-43.689,5.341-76.793-1.967-99.284-21.91c-22.503-19.943-35.462-43.973-38.896-72.056c-2.158-17.679-1.566-34.376,1.793-50.104
		c3.352-15.72,7.204-31.764,11.539-48.13l110.657-325.508c6.154-18.692,10.389-33.738,12.697-45.104
		c2.298-11.363,2.948-21.211,1.933-29.535c-1.018-8.311-3.31-14.104-6.873-17.369c-3.564-3.25-7.955-4.569-13.149-3.938
		c-13.527,1.651-37.273,25.414-71.267,71.27c-33.982,45.857-54.625,69.227-61.898,70.118c-8.328,1.014-17.35-3.684-27.062-14.11
		c-9.729-10.418-14.771-17.197-15.151-20.316c-1.271-10.399,6.535-28.521,23.447-54.34c16.896-25.82,38.842-53.57,65.834-83.272
		c24.116-27.222,53.889-53.564,89.321-79.019c35.419-25.438,67.691-39.949,96.823-43.511c46.812-5.72,83.541,3.252,110.19,26.917
		c26.646,23.664,42.265,54.218,46.837,91.67c1.911,15.604,2.387,32.443,1.424,50.502c-0.963,18.068-5.496,37.097-13.609,57.089
		l-86.732,275.076c-6.688,22.989-11.299,41.508-13.802,55.538c-2.514,14.035-3.441,23.655-2.808,28.848
		c0.763,6.238,2.798,9.949,6.108,11.13c3.31,1.181,6.525,1.576,9.646,1.194c22.886-2.796,47.664-22.451,74.353-58.971
		c26.68-36.521,44.182-55.288,52.51-56.307c7.276-0.891,15.745,3.617,25.409,13.521c9.646,9.909,14.735,16.941,15.243,21.102
		C2670.938,4209.875,2636.436,4253.688,2565.407,4324.65z M2661.491,3478.312c-24.144,31.453-55.976,49.6-95.489,54.431
		c-38.5,4.705-73.497-5.271-105.017-29.919c-31.52-24.655-49.63-56.219-54.337-94.717c-4.702-38.484,5.27-73.492,29.923-105.013
		c24.649-31.521,56.214-49.629,94.716-54.338c39.518-4.831,74.783,5.112,105.786,29.828c30.995,24.72,48.854,56.324,53.562,94.807
		C2695.34,3411.89,2685.618,3446.855,2661.491,3478.312z"/>
</g>
<g id="_x31_6-view" display="none">
	<path display="inline" d="M3227.896,3863.843c0-31.491-11.467-60.296-30.433-82.553h0.101
		c-773.48-935.815-1430.985-60.723-1473.69-1.728c-19.86,22.479-31.931,51.97-31.931,84.279c0,31.166,11.22,59.71,29.835,81.87
		h-0.13c0,0,675.941,960.296,1475.917,1.374h-0.697C3216.189,3924.738,3227.896,3895.664,3227.896,3863.843z M2459.918,4246.665
		c-212.069,0-383.988-171.394-383.988-382.822c0-211.426,171.92-382.821,383.988-382.821c212.073,0,383.99,171.396,383.99,382.821
		C2843.908,4075.271,2671.991,4246.665,2459.918,4246.665z"/>
	<ellipse display="inline" cx="2459.92" cy="3863.843" rx="127.997" ry="127.608"/>
</g>
<g id="_x31_6-workflow" display="none">
	<g display="inline">
		<polygon points="3036.096,3096.047 2332.083,3095.97 1948,3928 2332,3928 2076,4632 3036,3672 2588,3672 		"/>
	</g>
</g>
<g id="_x31_6-closed" display="none">
	<polygon display="inline" fill="none" points="2395.043,4375.887 2659.076,4051.757 2394.513,4375.312 	"/>
	<path display="inline" d="M3272.271,3306.276c34.271-58.812,21.287-135.343-33.516-179.306
		c-60.476-48.514-148.97-38.996-197.66,21.262L2206.699,4120l-322.673-297.878c-54.835-59.104-147.375-62.721-206.689-8.083
		c-59.317,54.637-62.95,146.84-8.113,205.943L2204,4632L3272.271,3306.276z"/>
</g>
<path id="path26" d="M1620.41,2425.139c0-29.806-5.962-62.343-24.719-87.336c-37.604-50.097-118.329-66.034-174.52-34.463
	c-28.402,15.969-44.198,43.849-53.104,72.471c-17.68,56.838-9.572,121.697,2.792,178.776c3.951,18.255,8.032,36.537,13.579,54.455
	c2.004,6.466,2.932,15.86,7.486,21.235c7.948,9.402,27.353,12.128,39.251,10.274c35.702-5.537,26.864-59.808,25.648-82.884
	c-2.847-54.055-20.101-106.52-3.386-160.282c7.078-22.751,20.75-48.332,45.638-58.214c22.466-8.931,45.133,1.995,54.03,22.253
	c14.404,32.804,10.807,70.673,19.84,104.803c3.068,11.604,6.446,23.094,12.113,33.91c1.643,3.123,3.906,9.623,8.663,9.229
	c11.567-0.978,28.013-18.794,36.687-25.405c28.013-21.371,56.793-44.258,89.046-60.073c15.176-7.44,40.146-19.486,55.644-6.833
	c3.95,3.229,7.133,7.079,9.963,11.165c18.217,26.347,0.126,46.87-11.714,71.924c-15.337,32.424-31.043,64.525-53.262,93.503
	c-19.099,24.915-45.201,46.761-60.458,73.979c-9.824,17.525-15.38,36.732-11.316,56.51c3.293,15.996,16.723,25.652,34.393,21.903
	c13.227-2.807,22.188-13.272,29.729-22.932c13.44-17.226,25.923-35.103,39.28-52.4c25.845-33.453,56.332-64.733,78.063-100.694
	c26.196-43.352,38.831-92.404,38.803-141.784c-0.021-40.355-15.871-102.03-66.785-110.49c-9.581-1.584-20.538-0.72-30.056,0.814
	c-11.823,1.901-23.698,5.455-34.503,10.284c-28.949,12.928-53.983,32.234-75.491,54.192c-13.422,13.684-25.443,30.892-41.37,42.126"
	/>
<path id="path28" d="M1546.474,1426.902c-38.26,4.871-77.155,4.367-115.606,10.12c-73.67,11.02-144.221,33.188-213.214,59.929
	c-25.124,9.734-49.909,20.582-74.254,31.997c-9.06,4.249-22.877,7.646-30.162,14.463c-3.792,3.552-3.402,11.876-3.863,16.625
	c-1.28,13.366-3.003,26.718-4.339,40.074c-5.153,51.545-8.787,104.649-1.167,156.162c2.466,16.646,7.806,46.837,28.924,50.029
	c32.476,4.924,57.706-33.788,73.642-55.167c37.223-49.925,79.575-96.412,140.625-118.733
	c71.861-26.278,154.163-32.47,230.173-37.521c213.314-14.163,446.433,23.582,603.568,175.786
	c22.347,21.646,43.498,44.619,61.488,69.871c70.355,98.689,107.56,210.907,125.481,328.768
	c8.422,55.34,14.177,111.338,1.147,166.445c-22.613,95.606-81.902,178.824-150.027,249.668
	c-46.629,48.491-99.104,92.322-153.715,132.163c-30.488,22.237-64.681,41.097-93.347,65.409
	c-33.018,27.995-60.481,63.033-81.354,100.392c-56.169,100.594-71.231,221.63-54.71,333.911c3.39,23.016,6.446,46.141,11.83,68.839
	c1.607,6.792,1.893,18.462,6.424,24.012c8.489,10.378,31.646,16.088,44.617,16.696c13.523,0.635,22.522-9.436,25.837-21.185
	c5.677-20.13,2.281-42.424-1.005-62.674c-6.739-41.477-12.911-83.245-10.998-125.346c3.52-77.739,34.545-150.173,90.167-206.519
	c56.564-57.298,132.967-90.339,197.251-138.34c129.557-96.736,245.624-227.254,290.19-382.579
	c15.929-55.542,21.208-114.401,13.936-171.581c-9.197-72.326-36.501-144.57-62.225-212.681
	c-78.393-207.573-212.904-405.02-426.479-499.987c-84.748-37.695-173.404-54.853-265.175-67.233
	c-43.06-5.807-86.085-9.368-129.396-11.208c-24.087-1.019-50.27-3.606-74.263-0.549"/>
<path id="path30" d="M1272.973,2770.809c-35.267,5.769-45.519,38.095-39.004,74.56c8.343,46.665,40.442,82.26,72.248,110.292
	c81.49,71.821,186.745,110.644,289.356,105.503c40.044-2.002,83.671-9.571,120.417-29.001c19.708-10.41,40.318-47.923,13.482-63.976
	c-3.676-2.2-8.483-3.562-12.582-4.335c-11.721-2.191-24.839,3.512-35.948,7.161c-19.584,6.431-39.152,13.015-59.315,16.712
	c-60.235,11.062-125.369-4.675-175.239-45.48c-40.336-33.003-72.945-76.529-103.727-120.52
	c-18.843-26.905-35.874-56.457-69.739-50.916"/>
<path id="path32" d="M1137.516,2998.885c-10.396,1.351-22.319,0.967-31.222,7.415c-18.57,13.449,1.883,40.506,11.654,52.768
	c28.331,35.524,65.638,65.017,102.866,91.007c103.786,72.447,221.35,114.242,347.784,122.795
	c36.351,2.456,73.378-0.093,109.331-6.004c13.144-2.164,29.5-3.141,41.651-8.742c34.379-15.865,24.435-79.952-6.246-94.201
	c-13.399-6.218-34.893,1.992-48.945,3.92c-33.229,4.572-66.549,5.035-99.968,4.229c-87.583-2.113-180.885-28.732-257.199-70.741
	c-29.999-16.524-57.55-36.631-83.307-59.003c-15.662-13.606-31.753-35.869-52.066-42.745c-9.458-3.201-24.523-1.985-34.363-0.71"/>
<path id="path34" d="M1161.151,3191.035c-15.52,1.634-27.219,9.256-37.425,20.096c-7.032,7.464-13.708,14.214-17.748,23.633
	c-22.27,51.853,37.097,100.803,78.097,125.292c45.628,27.245,95.48,47.44,146.269,64.456
	c114.549,38.377,248.903,62.943,367.856,28.633c35.357-10.189,70.31-28.819,96.014-54.002c14.487-14.189,24.429-35.672-2.136-44.757
	c-15.737-5.378-34.85,8.312-49.123,13.723c-33.693,12.795-68.625,22.505-104.796,26.624c-47.639,5.435-90.534-4.438-136.447-15.251
	c-39.217-9.229-78.877-18.461-116.795-31.767c-32.348-11.351-64.479-24.837-92.786-43.692c-8.459-5.633-18.595-10.653-25.526-17.989
	c-22.661-24.002-39.689-52.089-63.986-74.914c-10.498-9.863-25.417-21.783-41.481-20.094"/>
</svg>
