<svg xmlns="http://www.w3.org/2000/svg" viewBox="0 0 2048 2048"><path d="M841.4 1001.6c0-29.8-6-62.3-24.7-87.3-37.6-50.1-118.3-66-174.5-34.5-28.4 16-44.2 43.8-53.1 72.5-17.7 56.8-9.6 121.7 2.8 178.8 4 18.3 8 36.5 13.6 54.5 2 6.5 2.9 15.9 7.5 21.2 7.9 9.4 27.4 12.1 39.3 10.3 35.7-5.5 26.9-59.8 25.6-82.9-2.8-54.1-20.1-106.5-3.4-160.3 7.1-22.8 20.8-48.3 45.6-58.2 22.5-8.9 45.1 2 54 22.3 14.4 32.8 10.8 70.7 19.8 104.8 3.1 11.6 6.4 23.1 12.1 33.9 1.6 3.1 3.9 9.6 8.7 9.2 11.6-1 28-18.8 36.7-25.4 28-21.4 56.8-44.3 89-60.1 15.2-7.4 40.1-19.5 55.6-6.8 3.9 3.2 7.1 7.1 10 11.2 18.2 26.3.1 46.9-11.7 71.9-15.3 32.4-31 64.5-53.3 93.5-19.1 24.9-45.2 46.8-60.5 74-9.8 17.5-15.4 36.7-11.3 56.5 3.3 16 16.7 25.7 34.4 21.9 13.2-2.8 22.2-13.3 29.7-22.9 13.4-17.2 25.9-35.1 39.3-52.4 25.8-33.5 56.3-64.7 78.1-100.7 26.2-43.4 38.8-92.4 38.8-141.8 0-40.4-15.9-102-66.8-110.5-9.6-1.6-20.5-.7-30.1.8-11.8 1.9-23.7 5.5-34.5 10.3-28.9 12.9-54 32.2-75.5 54.2-13.3 13.6-25.3 30.8-41.2 42"/><path d="M767.5 3.4c-38.3 4.9-77.2 4.4-115.6 10.1-73.7 11-144.2 33.2-213.2 59.9-25.1 9.7-49.9 20.6-74.3 32-9.1 4.2-22.9 7.6-30.2 14.5-3.8 3.6-3.4 11.9-3.9 16.6-1.3 13.4-3 26.7-4.3 40.1-5.2 51.5-8.8 104.6-1.2 156.2 2.5 16.6 7.8 46.8 28.9 50 32.5 4.9 57.7-33.8 73.6-55.2 37.2-49.9 79.6-96.4 140.6-118.7 71.9-26.3 154.2-32.5 230.2-37.5 213.3-14.2 446.4 23.6 603.6 175.8 22.3 21.6 43.5 44.6 61.5 69.9 70.4 98.7 107.6 210.9 125.5 328.8 8.4 55.3 14.2 111.3 1.1 166.4-22.6 95.6-81.9 178.8-150 249.7-46.6 48.5-99.1 92.3-153.7 132.2-30.5 22.2-64.7 41.1-93.3 65.4-33 28-60.5 63-81.4 100.4-56.2 100.6-71.2 221.6-54.7 333.9 3.4 23 6.4 46.1 11.8 68.8 1.6 6.8 1.9 18.5 6.4 24 8.5 10.4 31.6 16.1 44.6 16.7 13.5.6 22.5-9.4 25.8-21.2 5.7-20.1 2.3-42.4-1-62.7-6.7-41.5-12.9-83.2-11-125.3 3.5-77.7 34.5-150.2 90.2-206.5 56.6-57.3 133-90.3 197.3-138.3 129.6-96.7 245.6-227.3 290.2-382.6 15.9-55.5 21.2-114.4 13.9-171.6-9.2-72.3-36.5-144.6-62.2-212.7-78.4-207.6-212.9-405-426.5-500-84.7-37.7-173.4-54.9-265.2-67.2C928.1 9.4 885.1 5.8 841.7 4c-24-1-50.2-3.6-74.2-.6"/><path d="M494 1347.3c-35.3 5.8-45.5 38.1-39 74.6 8.3 46.7 40.4 82.3 72.2 110.3 81.5 71.8 186.7 110.6 289.4 105.5 40-2 83.7-9.6 120.4-29 19.7-10.4 40.3-47.9 13.5-64-3.7-2.2-8.5-3.6-12.6-4.3-11.7-2.2-24.8 3.5-35.9 7.2-19.6 6.4-39.2 13-59.3 16.7-60.2 11.1-125.4-4.7-175.2-45.5-40.3-33-72.9-76.5-103.7-120.5-19-27-36-56.5-69.8-51M358.5 1575.4c-10.4 1.4-22.3 1-31.2 7.4-18.6 13.4 1.9 40.5 11.7 52.8 28.3 35.5 65.6 65 102.9 91 103.8 72.4 221.3 114.2 347.8 122.8 36.4 2.5 73.4-.1 109.3-6 13.1-2.2 29.5-3.1 41.7-8.7 34.4-15.9 24.4-80-6.2-94.2-13.4-6.2-34.9 2-48.9 3.9-33.2 4.6-66.5 5-100 4.2-87.6-2.1-180.9-28.7-257.2-70.7-30-16.5-57.6-36.6-83.3-59-15.7-13.6-31.8-35.9-52.1-42.7-9.6-3.3-24.7-2.1-34.5-.8M382.2 1767.5c-15.5 1.6-27.2 9.3-37.4 20.1-7 7.5-13.7 14.2-17.7 23.6-22.3 51.9 37.1 100.8 78.1 125.3 45.6 27.2 95.5 47.4 146.3 64.5 114.5 38.4 248.9 62.9 367.9 28.6 35.4-10.2 70.3-28.8 96-54 14.5-14.2 24.4-35.7-2.1-44.8-15.7-5.4-34.8 8.3-49.1 13.7-33.7 12.8-68.6 22.5-104.8 26.6-47.6 5.4-90.5-4.4-136.4-15.3-39.2-9.2-78.9-18.5-116.8-31.8-32.3-11.4-64.5-24.8-92.8-43.7-8.5-5.6-18.6-10.7-25.5-18-22.7-24-39.7-52.1-64-74.9-10.8-9.6-25.7-21.6-41.7-19.9"/></svg>