<?xml version="1.0" encoding="utf-8"?>
<!-- Generated by IcoMoon.io -->
<!DOCTYPE svg PUBLIC "-//W3C//DTD SVG 1.1//EN" "http://www.w3.org/Graphics/SVG/1.1/DTD/svg11.dtd">
<svg version="1.1" xmlns="http://www.w3.org/2000/svg" xmlns:xlink="http://www.w3.org/1999/xlink" width="32" height="32" viewBox="0 0 32 32">
<path fill="#444" d="M14.1 15.705c0-0.466-0.093-0.974-0.386-1.365-0.588-0.783-1.849-1.032-2.727-0.539-0.444 0.25-0.691 0.685-0.83 1.132-0.276 0.888-0.15 1.902 0.044 2.793 0.062 0.285 0.126 0.571 0.212 0.851 0.031 0.101 0.046 0.248 0.117 0.332 0.124 0.147 0.427 0.189 0.613 0.161 0.558-0.087 0.42-0.934 0.401-1.295-0.044-0.845-0.314-1.664-0.053-2.504 0.111-0.355 0.324-0.755 0.713-0.91 0.351-0.14 0.705 0.031 0.844 0.348 0.225 0.513 0.169 1.104 0.31 1.638 0.048 0.181 0.101 0.361 0.189 0.53 0.026 0.049 0.061 0.15 0.135 0.144 0.181-0.015 0.438-0.294 0.573-0.397 0.438-0.334 0.887-0.692 1.391-0.939 0.237-0.116 0.627-0.304 0.869-0.107 0.062 0.050 0.111 0.111 0.156 0.174 0.285 0.412 0.002 0.732-0.183 1.124-0.24 0.507-0.485 1.008-0.832 1.461-0.298 0.389-0.706 0.731-0.945 1.156-0.153 0.274-0.24 0.574-0.177 0.883 0.051 0.25 0.261 0.401 0.537 0.342 0.207-0.044 0.347-0.207 0.465-0.358 0.21-0.269 0.405-0.549 0.614-0.819 0.404-0.523 0.88-1.011 1.22-1.573 0.409-0.677 0.607-1.444 0.606-2.215-0-0.631-0.248-1.594-1.044-1.726-0.15-0.025-0.321-0.011-0.47 0.013-0.185 0.030-0.37 0.085-0.539 0.161-0.452 0.202-0.843 0.504-1.18 0.847-0.21 0.214-0.398 0.483-0.646 0.658z"></path>
<path fill="#444" d="M12.945 0.108c-0.598 0.076-1.206 0.068-1.806 0.158-1.151 0.172-2.253 0.519-3.331 0.936-0.393 0.152-0.78 0.322-1.16 0.5-0.142 0.066-0.357 0.119-0.471 0.226-0.059 0.056-0.053 0.186-0.060 0.26-0.020 0.209-0.047 0.417-0.068 0.626-0.081 0.805-0.137 1.635-0.018 2.44 0.039 0.26 0.122 0.732 0.452 0.782 0.507 0.077 0.902-0.528 1.151-0.862 0.582-0.78 1.243-1.506 2.197-1.855 1.123-0.411 2.409-0.507 3.596-0.586 3.333-0.221 6.976 0.368 9.431 2.747 0.349 0.338 0.68 0.697 0.961 1.092 1.099 1.542 1.681 3.295 1.961 5.137 0.132 0.865 0.222 1.74 0.018 2.601-0.353 1.494-1.28 2.794-2.344 3.901-0.729 0.758-1.549 1.443-2.402 2.065-0.476 0.347-1.011 0.642-1.459 1.022-0.516 0.437-0.945 0.985-1.271 1.569-0.878 1.572-1.113 3.463-0.855 5.217 0.053 0.36 0.101 0.721 0.185 1.076 0.025 0.106 0.030 0.288 0.1 0.375 0.133 0.162 0.494 0.251 0.697 0.261 0.211 0.010 0.352-0.147 0.404-0.331 0.089-0.315 0.036-0.663-0.016-0.979-0.105-0.648-0.202-1.301-0.172-1.959 0.055-1.215 0.54-2.346 1.409-3.227 0.884-0.895 2.078-1.412 3.082-2.162 2.024-1.512 3.838-3.551 4.534-5.978 0.249-0.868 0.331-1.787 0.218-2.681-0.144-1.13-0.57-2.259-0.972-3.323-1.225-3.243-3.327-6.328-6.664-7.812-1.324-0.589-2.709-0.857-4.143-1.050-0.673-0.091-1.345-0.146-2.022-0.175-0.376-0.016-0.785-0.056-1.16-0.009z"></path>
<path fill="#444" d="M8.671 21.106c-0.551 0.090-0.711 0.595-0.609 1.165 0.13 0.729 0.632 1.285 1.129 1.723 1.273 1.122 2.918 1.729 4.521 1.648 0.626-0.031 1.307-0.15 1.882-0.453 0.308-0.163 0.63-0.749 0.211-1-0.057-0.034-0.133-0.056-0.197-0.068-0.183-0.034-0.388 0.055-0.562 0.112-0.306 0.101-0.612 0.203-0.927 0.261-0.941 0.173-1.959-0.073-2.738-0.711-0.63-0.516-1.14-1.196-1.621-1.883-0.294-0.42-0.561-0.882-1.090-0.796z"></path>
<path fill="#444" d="M6.555 24.67c-0.162 0.021-0.349 0.015-0.488 0.116-0.29 0.21 0.029 0.633 0.182 0.825 0.443 0.555 1.026 1.016 1.607 1.422 1.622 1.132 3.459 1.785 5.434 1.919 0.568 0.038 1.147-0.001 1.708-0.094 0.205-0.034 0.461-0.049 0.651-0.137 0.537-0.248 0.382-1.249-0.098-1.472-0.209-0.097-0.545 0.031-0.765 0.061-0.519 0.071-1.040 0.079-1.562 0.066-1.368-0.033-2.826-0.449-4.019-1.105-0.469-0.258-0.899-0.572-1.302-0.922-0.245-0.213-0.496-0.56-0.814-0.668-0.148-0.050-0.383-0.031-0.537-0.011z"></path>
<path fill="#444" d="M6.924 27.672c-0.242 0.026-0.425 0.145-0.585 0.314-0.11 0.117-0.214 0.222-0.277 0.369-0.348 0.81 0.58 1.575 1.22 1.958 0.713 0.426 1.492 0.741 2.285 1.007 1.79 0.6 3.889 0.984 5.748 0.447 0.552-0.159 1.099-0.45 1.5-0.844 0.226-0.222 0.382-0.557-0.033-0.699-0.246-0.084-0.545 0.13-0.768 0.214-0.526 0.2-1.072 0.352-1.637 0.416-0.744 0.085-1.415-0.069-2.132-0.238-0.613-0.144-1.232-0.288-1.825-0.496-0.505-0.177-1.008-0.388-1.45-0.683-0.132-0.088-0.291-0.166-0.399-0.281-0.354-0.375-0.62-0.814-1-1.171-0.164-0.154-0.397-0.34-0.648-0.314z"></path>
</svg>
