<svg xmlns="http://www.w3.org/2000/svg" width="2048" height="2048" viewBox="718 1420 2048 2048"><path d="M2506.148 1420H970.021C829.219 1420 714 1535.219 714 1676.021v1536.127c0 140.825 115.219 256.021 256.021 256.021H2506.148c140.85 0 256.021-115.195 256.021-256.021V1676.021c.001-140.802-115.171-256.021-256.021-256.021zm-41.06 622.956l-175.273 44.275c-26.132 8.738-96.988 70.649-220.052 190.08-130.543 123.762-197.718 203.315-208.884 243.155l-7.429 110.46-3.74 66.382 14.963 167.907 231.164 4.432-3.684 83.987h-376.676l-335.687 4.435 11.166-79.615 108.158-4.372c55.999-4.435 89.56-13.233 100.73-26.601 7.423-8.739 11.164-61.82 11.164-154.675v-57.377l-3.741-114.963c-7.423-26.539-67.116-123.765-182.698-291.802-119.375-172.377-197.661-274.13-235.015-309.537l-216.312-35.34v-75.188c11.222-8.768 130.602-8.768 350.597-4.365 152.884-4.403 279.745-4.403 380.469 4.365l-7.481 61.979-227.533 26.541c70.856 123.762 179.067 296.168 324.47 512.759 190.231-172.446 290.909-282.936 294.593-331.515l-193.863-35.408-14.963-79.553h324.518l305.767 4.433-44.728 75.121z"/></svg>