<svg xmlns="http://www.w3.org/2000/svg" width="2048" height="2048" viewBox="718 1420 2048 2048"><path d="M2511.148 1419H975.021C834.219 1419 719 1534.219 719 1675.021v1536.127c0 140.825 115.219 256.021 256.021 256.021H2511.148c140.85 0 256.021-115.195 256.021-256.021V1675.021c.001-140.802-115.171-256.021-256.021-256.021zM2211.48 2517.085l.004.1-741.354 427.559a71.337 71.337 0 0 1-5.496 3.169l-2.54 1.465-.195-.137c-8.895 4.123-18.704 6.422-29.021 6.422-40.253 0-72.884-34.796-72.884-77.716v-871.23c0-42.921 32.631-77.716 72.884-77.716a68.679 68.679 0 0 1 23.847 4.278l.045-.035.222.131c7.79 2.913 14.971 7.194 21.297 12.577l728.083 429.947.003.087c26.412 11.676 44.995 39.425 44.995 71.81.001 30.253-16.223 56.449-39.89 69.289z"/></svg>