<?xml version="1.0" standalone="no"?> 
<!DOCTYPE svg PUBLIC "-//W3C//DTD SVG 1.1//EN" "http://www.w3.org/Graphics/SVG/1.1/DTD/svg11.dtd" >
<svg xmlns="http://www.w3.org/2000/svg">
<defs>
  <font id="hs-app" horiz-adv-x="2048">
    <font-face font-family="hs-app"
      units-per-em="2048" ascent="2048"
      descent="0" />
    <missing-glyph horiz-adv-x="0" />
    <glyph glyph-name="ab"
      unicode="&#xEA01;"
      horiz-adv-x="2048" d=" M1408 1280H1664V1152H1408V1280z M1792.542 2048H259.79C119.2959999999999 2048 4.3309999999999 1933.035 4.3309999999999 1792.541V259.7889999999998C4.3309999999999 119.2729999999997 119.2959999999999 4.3309999999997 259.79 4.3309999999997H399.7149999999999H1034.984H1404.85H1792.5409999999997C1933.0809999999997 4.3309999999997 2047.9989999999996 119.2729999999997 2047.9989999999996 259.7889999999998V1792.541C2048.001 1933.035 1933.082 2048 1792.542 2048zM384 1280V768H256V1280V1408H384H640V1280H384zM768 768H640V1279.636H768V768zM768 1408H1024V1280H768V1408zM1152 768H1024V1279.636H1152V768zM1792 1024H1728H1664H1408V896H1728V768H1408V896H1280V1280H1408V1408H1664V1280H1792V1024z" />
    <glyph glyph-name="add-note"
      unicode="&#xEA02;"
      horiz-adv-x="2048" d=" M384 544.002C384 526.3288880054147 398.3268880054145 512.002 416 512.002C433.6731119945855 512.002 448 526.3288880054147 448 544.002C448 561.6751119945852 433.6731119945855 576.002 416 576.002C398.3268880054145 576.002 384 561.6751119945852 384 544.002z M1463.8470000000002 1290.6709999999998L1464.8280000000004 1291.652L1464.9450000000006 1291.967C1469.1450000000004 1297.1910000000003 1471.7360000000008 1303.7600000000002 1471.9710000000005 1310.9270000000001L1471.9990000000003 1311.0030000000002C1471.9990000000003 1311.0030000000002 1508.498 1582.5000000000002 1190.1900000000003 1599.4260000000002L1190.1230000000003 1599.4060000000002C1188.1410000000003 1599.7910000000002 1186.0940000000003 1599.9990000000003 1183.9980000000003 1599.9990000000003C1174.4010000000003 1599.9990000000003 1165.7970000000003 1595.7690000000002 1159.9320000000002 1589.0770000000002L586.9260000000004 1016.0700000000002C583.4670000000003 1013.0390000000002 580.6680000000003 1009.275 578.7690000000005 1005.0190000000002L578.4290000000005 1004.509L578.4960000000005 1004.4070000000002C576.8890000000006 1000.5930000000004 575.9990000000005 996.3990000000005 575.9990000000005 991.9990000000003C575.9990000000005 974.3250000000002 590.3260000000005 959.9990000000003 607.9990000000005 959.9990000000003H639.9990000000005H703.9990000000005V895.9990000000003V864.1320000000001H704.0020000000004C704.0020000000004 864.087 703.9990000000005 864.0439999999999 703.9990000000005 863.9990000000003C703.9990000000005 846.3250000000003 718.3260000000005 831.9990000000003 735.9990000000005 831.9990000000003H767.9990000000005H831.9990000000005V735.5130000000004L832.0120000000004 735.5050000000006C832.2780000000005 718.0620000000004 846.4920000000004 703.9970000000008 863.9990000000005 703.9970000000008C869.5580000000004 703.9970000000008 874.7850000000005 705.4170000000008 879.3400000000004 707.911000000001L879.4970000000003 707.8190000000009L880.3680000000004 708.5030000000011C882.7110000000005 709.8990000000013 884.8610000000003 711.5890000000009 886.7660000000003 713.5190000000011L887.5920000000003 714.1650000000013L1461.3380000000002 1288.1580000000013C1462.221 1288.9520000000002 1463.0590000000002 1289.7890000000002 1463.8470000000002 1290.6709999999998z M672.115 768.002L672.114 768.0039999999999C672.075 768.0039999999999 672.038 768.002 672 768.002C654.327 768.002 640 782.328 640 800.002C640 800.031 640.002 800.0630000000001 640.002 800.0920000000001L640 800.094V832.002V896.002H542.576L542.537 895.9650000000001C530.7150000000001 895.4320000000002 520.5699999999999 888.4850000000001 515.4860000000001 878.52L515.4170000000001 878.4850000000001L515.3280000000002 878.21C513.9090000000001 875.3530000000001 512.9010000000003 872.2550000000001 512.3900000000001 868.991L448.2740000000001 608.2139999999999C465.9470000000001 608.2139999999999 480.2740000000001 593.8879999999999 480.2740000000001 576.2139999999999L743.1870000000001 640.6529999999998L744.1570000000002 641.0549999999998C746.969 641.7929999999997 749.6250000000002 642.9089999999997 752.0780000000002 644.3379999999997L752.1580000000001 644.3709999999996L752.1590000000001 644.3849999999998C761.634 649.9399999999996 768.0010000000002 660.2249999999999 768.0010000000002 672.002C768.0010000000002 672.2289999999998 767.9880000000003 672.453 767.9840000000002 672.6799999999998L768.0010000000002 672.6959999999999V768.0029999999997H704.0010000000002H672.115z M1632 768H1472V928C1472 945.6729999999998 1457.6729999999998 960 1440 960H1376C1358.3270000000002 960 1344 945.6729999999998 1344 928V768H1184C1166.327 768 1152 753.6729999999998 1152 736V672C1152 654.3270000000002 1166.327 640 1184 640H1344V480C1344 462.3270000000002 1358.3270000000002 448 1376 448H1440C1457.6729999999998 448 1472 462.3270000000002 1472 480V640H1632C1649.6729999999998 640 1664 654.3270000000002 1664 672V736C1664 753.6729999999998 1649.6729999999998 768 1632 768z" />
    <glyph glyph-name="add"
      unicode="&#xEA03;"
      horiz-adv-x="2048" d=" M1025 2048C458.909 2048 0 1589.091 0 1023S458.909 -2 1025 -2S2050 456.9079999999999 2050 1023S1591.092 2048 1025 2048zM1665.625 894.875H1153.125V382.375H896.875V894.875H384.375V1151.125H896.875V1663.625H1153.125V1151.125H1665.625V894.875z" />
    <glyph glyph-name="add2"
      unicode="&#xEA04;"
      horiz-adv-x="2048" d=" M1025 1665.361C670.2339999999999 1665.361 382.6390000000001 1377.7650000000003 382.6390000000001 1023S670.2350000000001 380.6390000000001 1025 380.6390000000001S1667.3609999999999 668.2330000000002 1667.3609999999999 1023C1667.3609999999999 1377.766 1379.768 1665.361 1025 1665.361zM1386.476 896H1152V661.5239999999999H896V896H663.5239999999999V1152H896V1384.476H1152V1152H1386.476V896z" />
    <glyph glyph-name="aim"
      unicode="&#xEA05;"
      horiz-adv-x="2048" d=" M1792.542 2048H259.79C119.2959999999999 2048 4.3309999999999 1933.035 4.3309999999999 1792.541V259.7889999999998C4.3309999999999 119.2729999999997 119.2959999999999 4.3309999999997 259.79 4.3309999999997H399.7149999999999H1034.984H1404.85H1792.5409999999997C1933.0809999999997 4.3309999999997 2047.9989999999996 119.2729999999997 2047.9989999999996 259.7889999999998V1792.541C2048.001 1933.035 1933.082 2048 1792.542 2048zM1219.932 1792.983C1347.3609999999999 1792.983 1450.654 1690.979 1450.654 1565.156C1450.654 1439.326 1347.3609999999999 1337.3229999999999 1219.932 1337.3229999999999C1092.518 1337.3229999999999 989.218 1439.3259999999998 989.218 1565.156C989.218 1690.979 1092.518 1792.983 1219.932 1792.983zM1461.7559999999999 286.0210000000002C1461.7559999999999 286.0210000000002 1283.858 576.9760000000001 1028.127 626.3830000000003C1028.127 626.3830000000003 836.3429999999998 294.2310000000002 480.5459999999998 255.8150000000005L383.2549999999999 494.6330000000007C383.2549999999999 494.6330000000007 716.8179999999998 574.2350000000006 794.6429999999998 840.4900000000007C794.6429999999998 840.4900000000007 761.2789999999998 1208.3190000000009 1042.0189999999998 1329.0920000000006C1042.0189999999998 1329.0920000000006 1078.1719999999998 1279.6840000000007 1181.0149999999999 1271.4460000000004C1181.0149999999999 1271.4460000000004 1144.8739999999998 1150.6600000000003 1331.1149999999998 1161.6450000000004C1331.1149999999998 1161.6450000000004 1453.415 1161.6520000000005 1561.8219999999997 1216.5490000000004L1650.7709999999997 1051.8560000000002C1650.7709999999997 1051.8560000000002 1406.1709999999998 870.6960000000004 1161.5559999999998 955.7800000000002C1161.5559999999998 955.7800000000002 1119.8649999999998 909.1000000000004 1161.5559999999998 892.6390000000001C1161.5559999999998 892.6390000000001 1503.433 747.1680000000001 1664.663 404.051L1461.7559999999999 286.0210000000002z" />
    <glyph glyph-name="align"
      unicode="&#xEA06;"
      horiz-adv-x="2048" d=" M1148.291 576.0010000000002L1536 576.0010000000002L1340.2910000000002 384 M448 1280H1344V1152H448V1280z M448 1088H1152V960H448V1088z M448 896H960V768H448V896z" />
    <glyph glyph-name="arrow-lt"
      unicode="&#xEA07;"
      horiz-adv-x="2048" d=" M1664 1943.199L1662.3870000000002 1941.909C1666.143 1970.21 1656.386 1999.654 1633.0710000000004 2021.246C1592.6940000000004 2058.639 1526.9500000000003 2058.3280000000004 1486.2290000000003 2020.551L409.9369999999999 1088C391.2469999999999 1070.6619999999998 381.0839999999999 1048.444 379.454 1025.864C376.1769999999999 997.8139999999999 385.944 968.9479999999998 408.857 947.754L1483.8400000000001 27.6880000000001C1524.4590000000003 -9.8809999999999 1590.9970000000003 -9.1219999999998 1632.455 29.386C1655.0589999999997 50.3800000000001 1665.5369999999998 78.261 1663.8139999999999 105.366L1664 105.2919999999999V1943.199z" />
    <glyph glyph-name="arrow-rt"
      unicode="&#xEA08;"
      horiz-adv-x="2048" d=" M378.836 1943.199L380.4490000000001 1941.909C376.693 1970.21 386.4500000000001 1999.654 409.7660000000001 2021.246C450.1430000000001 2058.639 515.886 2058.3280000000004 556.607 2020.551L1632.899 1088C1651.589 1070.6619999999998 1661.752 1048.444 1663.382 1025.864C1666.659 997.8139999999999 1656.8920000000003 968.9479999999998 1633.9790000000003 947.754L558.9960000000003 27.6880000000001C518.3770000000004 -9.8809999999999 451.8390000000004 -9.1219999999998 410.3800000000004 29.386C387.7770000000003 50.3800000000001 377.2980000000003 78.261 379.0210000000004 105.366L378.8350000000005 105.2919999999999V1943.199z" />
    <glyph glyph-name="attach-1"
      unicode="&#xEA09;"
      horiz-adv-x="2048" d=" M1665.4389999999999 1663.916C1496.7929999999997 1834.695 1223.2209999999998 1834.695 1054.5659999999998 1663.916L354.2149999999997 963.625C223.2039999999997 831.0920000000001 223.2039999999997 615.3609999999999 354.2149999999997 482.7910000000002C485.2339999999997 350.2130000000002 698.3749999999998 350.2130000000002 829.2829999999997 482.7910000000002L1529.6369999999997 1183.101C1623.3399999999997 1277.9700000000003 1623.3399999999997 1431.698 1529.6369999999997 1526.567C1435.8929999999996 1621.366 1283.9249999999997 1621.366 1190.2669999999998 1526.567L663.8269999999998 993.7930000000002C645.0749999999998 974.777 645.0749999999998 944.127 663.8269999999998 925.1020000000004C682.5649999999998 906.0960000000003 712.9519999999998 906.0960000000003 731.6979999999999 925.1020000000004L1258.1819999999998 1457.8870000000002C1314.3439999999998 1514.6660000000002 1405.6569999999997 1514.6660000000002 1461.808 1457.8870000000002C1517.9679999999998 1401.0600000000004 1517.9679999999998 1308.6130000000003 1461.808 1251.7850000000003L761.5059999999999 551.5240000000003C667.7569999999998 456.6550000000002 515.886 456.6550000000002 422.1329999999998 551.5240000000003C328.3829999999998 646.3380000000002 328.3829999999998 800.1140000000005 422.1329999999998 894.9340000000002L1115.5919999999996 1588.4030000000002C1246.8349999999996 1721.1900000000003 1459.6539999999995 1721.1900000000003 1590.7049999999995 1588.4030000000002C1721.9959999999996 1455.5600000000002 1721.9959999999996 1240.3760000000002 1590.7989999999995 1107.5840000000003L1071.1569999999995 581.692C1052.2759999999994 562.6260000000002 1052.2759999999994 531.9749999999999 1071.1569999999995 513.0039999999999C1089.9099999999994 493.942 1120.2369999999994 493.942 1139.0279999999996 513.0039999999999L1665.4409999999998 1045.7359999999999C1834.186 1216.4250000000002 1834.186 1493.245 1665.4389999999999 1663.916z" />
    <glyph glyph-name="attach-2"
      unicode="&#xEA0A;"
      horiz-adv-x="2048" d=" M1772.39 1768.66C1575.6360000000002 1970.448 1256.471 1970.448 1059.707 1768.66L242.6350000000001 941.2160000000002C89.7890000000001 784.6170000000002 89.7890000000001 529.7180000000001 242.6350000000001 373.0750000000003C395.4890000000002 216.4260000000004 644.1540000000001 216.4260000000004 796.8790000000001 373.0750000000003L1613.957 1200.5420000000004C1723.277 1312.6370000000002 1723.277 1494.2760000000003 1613.957 1606.3720000000003C1504.5900000000001 1718.3840000000002 1327.294 1718.3840000000002 1218.026 1606.3720000000003L603.8470000000001 976.8610000000004C581.969 954.3940000000002 581.969 918.1770000000004 603.8470000000001 895.6980000000003C625.7090000000001 873.2400000000002 661.1600000000001 873.2400000000002 683.0310000000001 895.6980000000003L1297.2600000000002 1525.2190000000003C1362.7820000000002 1592.3080000000002 1469.3120000000001 1592.3080000000002 1534.8220000000001 1525.2190000000003C1600.343 1458.0740000000003 1600.343 1348.8410000000003 1534.8220000000001 1281.6970000000003L717.8060000000002 454.2870000000003C608.4330000000001 342.1920000000003 431.2500000000002 342.1920000000003 321.8720000000002 454.2870000000003C212.4980000000001 566.3180000000002 212.4980000000001 748.0160000000003 321.8720000000002 860.0520000000001L1130.9040000000002 1679.4350000000002C1284.0210000000002 1836.332 1532.3080000000002 1836.332 1685.2020000000002 1679.4350000000002C1838.3750000000005 1522.4720000000002 1838.3750000000005 1268.217 1685.3100000000002 1111.3120000000001L1079.0660000000003 489.933C1057.0380000000002 467.405 1057.0380000000002 431.1890000000001 1079.0660000000003 408.7739999999999C1100.9440000000002 386.251 1136.3260000000002 386.251 1158.2480000000003 408.7739999999999L1772.3940000000002 1038.2359999999999C1969.258 1239.9180000000001 1969.258 1567 1772.39 1768.66z" />
    <glyph glyph-name="attach-3"
      unicode="&#xEA0B;"
      horiz-adv-x="2048" d=" M1448.801 1511.599C1336.558 1627.6689999999999 1154.484 1627.6689999999999 1042.235 1511.599L576.1149999999998 1035.6459999999997C488.9209999999998 945.5699999999998 488.9209999999998 798.9499999999998 576.1149999999998 708.8469999999998C663.3149999999998 618.7399999999998 805.1709999999998 618.7399999999998 892.2969999999998 708.8469999999998L1358.4189999999999 1184.8129999999996C1420.7819999999997 1249.2909999999997 1420.7819999999997 1353.7709999999997 1358.4189999999999 1418.2499999999995C1296.0259999999998 1482.6799999999996 1194.8839999999998 1482.6799999999996 1132.55 1418.2499999999995L782.1779999999999 1056.1499999999996C769.6979999999999 1043.2269999999999 769.6979999999999 1022.3929999999996 782.1779999999999 1009.4629999999999C794.6489999999999 996.5459999999998 814.8729999999998 996.5459999999998 827.3489999999999 1009.4629999999999L1177.75 1371.5699999999997C1215.129 1410.1599999999999 1275.903 1410.1599999999999 1313.273 1371.5699999999997C1350.6509999999998 1332.9469999999997 1350.6509999999998 1270.1159999999995 1313.273 1231.4929999999995L847.1879999999999 755.5609999999997C784.7929999999999 691.0829999999996 683.7149999999999 691.0829999999996 621.3169999999998 755.5609999999997C558.9209999999998 819.9999999999995 558.9209999999998 924.5149999999998 621.3169999999998 988.9599999999996L1082.85 1460.2749999999996C1170.197 1550.5239999999997 1311.839 1550.5239999999997 1399.06 1460.2749999999996C1486.4429999999998 1369.9879999999998 1486.4429999999998 1223.7379999999998 1399.123 1133.4869999999996L1053.275 776.0629999999996C1040.708 763.1059999999998 1040.708 742.2739999999994 1053.275 729.3799999999997C1065.755 716.4249999999997 1085.939 716.4249999999997 1098.4470000000001 729.3799999999997L1448.801 1091.4509999999996C1561.1100000000001 1207.4609999999998 1561.1100000000001 1395.6019999999999 1448.801 1511.599z" />
    <glyph glyph-name="attn"
      unicode="&#xEA0C;"
      horiz-adv-x="2048" d=" M2015.636 269.48L1719.755 852.1680000000001C1646.404 994.0190000000002 1526.3490000000002 1225.948 1452.998 1367.795L1157.121 1939.759C1083.767 2081.608 963.7150000000001 2081.608 890.3610000000001 1939.759L594.479 1365.222C521.129 1223.374 401.072 988.7179999999998 327.7220000000001 846.875L31.842 269.48C-41.512 127.6320000000001 24.975 1.2280000000001 179.921 1.2280000000001H742.5529999999999C897.2279999999998 1.2280000000001 1150.253 1.2280000000001 1305.194 1.2280000000001H1867.837C2022.503 1.229 2088.984 127.6330000000001 2015.636 269.48zM1148.538 257.1679999999999H895.216V512.9949999999999H1148.538V257.1679999999999zM1148.538 641.9380000000001H895.216V1281.98H1148.538V641.9380000000001z" />
    <glyph glyph-name="audio"
      unicode="&#xEA0D;"
      horiz-adv-x="2048" d=" M128.667 1280.809L128.667 768.1199999999999L512.31 768.1199999999999L1023.833 255.4290000000001L1023.833 1793.5L512.31 1280.809z M1535.011 1761.024L1454.936 1660.7C1657.8449999999998 1522.3139999999999 1791.12 1288.995 1791.12 1024.464C1791.12 779.212 1676.567 560.769 1498.1699999999998 419.954L1589.274 328.925C1790.486 493.452 1919 743.902 1919 1024.4650000000001C1919 1329.492 1767.094 1598.914 1535.011 1761.024z M1335.73 1508.955L1258.422 1406.413C1385.726 1327.3980000000001 1470.5 1186.351 1470.5 1025.5C1470.5 865.906 1387.044 725.81 1261.397 646.453L1345.396 548.454C1498.134 652.039 1598.5 827.047 1598.5 1025.5C1598.5 1228.109 1493.885 1406.2759999999998 1335.73 1508.955z" />
    <glyph glyph-name="bold"
      unicode="&#xEA0E;"
      horiz-adv-x="2048" d=" M1105.896 1106.315C1165.49 1092.1840000000002 1207.3319999999999 1075.0750000000003 1231.417 1054.982C1265.9979999999998 1026.408 1283.301 989.3629999999998 1283.301 943.8490000000002C1283.301 895.8120000000004 1264.283 856.1010000000001 1226.268 824.7180000000003C1179.577 786.7290000000003 1111.719 767.7410000000004 1022.696 767.7410000000004H703.1789999999999V784.2490000000003C732.1529999999998 784.2490000000003 751.8169999999998 787.0150000000003 762.1429999999998 792.5460000000003C772.4679999999998 798.0760000000005 779.7189999999998 805.2840000000001 783.8799999999999 814.1430000000005C788.0429999999999 822.9990000000007 790.1299999999999 844.8250000000003 790.1299999999999 879.6330000000003V1295.1090000000004C790.1299999999999 1329.9030000000002 788.0429999999999 1351.8130000000006 783.8799999999999 1360.8300000000004C779.7179999999998 1369.8430000000003 772.396 1377.0380000000005 761.9129999999998 1382.4260000000004C751.4289999999999 1387.8000000000002 731.8529999999998 1390.4920000000002 703.1779999999999 1390.4920000000002V1407.0020000000004H1004.802C1076.879 1407.0020000000004 1127.936 1400.4690000000005 1157.937 1387.4140000000002C1187.942 1374.344 1211.61 1354.8380000000002 1228.945 1328.8740000000003C1246.261 1302.9060000000004 1254.9299999999998 1275.3050000000003 1254.9299999999998 1246.0430000000001C1254.9299999999998 1215.201 1243.9299999999998 1187.745 1221.964 1163.6690000000003C1199.982 1139.592 1161.299 1120.475 1105.896 1106.315zM936.059 1082.326L935.7 877.6109999999999L935.6570000000002 854.31C935.6570000000002 837.5299999999997 939.9050000000002 824.8620000000001 948.4140000000002 816.3220000000001C956.9240000000002 807.777 969.5360000000002 803.5100000000002 986.2550000000002 803.5100000000002C1010.996 803.5100000000002 1033.8210000000001 809.0690000000004 1054.7140000000002 820.192C1075.5940000000003 831.31 1091.6100000000001 847.4630000000002 1102.7530000000002 868.6149999999998C1113.892 889.7659999999996 1119.4700000000003 913.3549999999996 1119.4700000000003 939.3649999999998C1119.4700000000003 969.1439999999998 1112.8480000000002 995.857 1099.6060000000002 1019.5169999999998S1067.7310000000002 1059.6419999999998 1043.7030000000002 1068.8999999999996C1019.677 1078.158 983.795 1082.643 936.059 1082.326zM936.129 1119.0120000000002C980.436 1119.0120000000002 1013.1109999999998 1124.0430000000001 1034.163 1134.1170000000002C1055.2160000000001 1144.1910000000003 1071.346 1158.3650000000002 1082.5430000000001 1176.621C1093.728 1194.877 1099.3310000000001 1218.1930000000002 1099.3310000000001 1246.5390000000002C1099.3310000000001 1274.8720000000003 1093.8120000000001 1298.0860000000002 1082.7710000000002 1316.201C1071.7310000000002 1334.301 1055.957 1348.0729999999999 1035.4350000000002 1357.531C1014.9140000000002 1366.973 981.9640000000002 1371.5459999999998 936.5720000000002 1371.23L936.129 1119.0120000000002z" />
    <glyph glyph-name="bolt-sm"
      unicode="&#xEA0F;"
      horiz-adv-x="2048" d=" M1791.562 2045.122L981.153 2045.122L259.006 961.1860000000001L835.7950000000001 959.9029999999998L379.3640000000001 -0.96L1601.942 1214.618L1101.51 1214.618z" />
    <glyph glyph-name="bolt"
      unicode="&#xEA10;"
      horiz-adv-x="2048" d=" M1454.9340000000002 1600L1024 1600L640 1023.6190000000003L960 1024L704 512L1344 1152L1088 1152z" />
    <glyph glyph-name="camera"
      unicode="&#xEA11;"
      horiz-adv-x="2048" d=" M703.998 960C703.998 677.2296558018838 933.2286558018837 447.9989999999998 1215.999 447.9989999999998C1498.769344198116 447.9989999999998 1728 677.2296558018838 1728 960C1728 1242.7703441981162 1498.769344198116 1472.001 1215.999 1472.001C933.2286558018837 1472.001 703.998 1242.7703441981162 703.998 960z M2049.473 1389.6100000000001C2049.473 1470.0880000000002 1983.561 1536 1903.082 1536H1536C1536 1728 1408 1793 1308.609 1793H759.8269999999998C640.0009999999997 1793 511.9999999999998 1728 511.9999999999998 1536H146.391C65.898 1536 0 1470.088 0 1389.6100000000001L0.505 402.9450000000002C0.505 322.451 66.403 256.5540000000001 146.896 256.5540000000001H1903.5860000000005C1984.065 256.5540000000001 2049.9770000000003 322.4500000000003 2049.9770000000003 402.9450000000002L2049.473 1389.6100000000001zM448 1280C412.654 1280 384 1308.654 384 1344C384 1379.3470000000002 412.654 1408 448 1408C483.347 1408 512 1379.346 512 1344C512 1308.6529999999998 483.347 1280 448 1280zM1024.001 384C741.23 384 512.001 613.23 512.001 896.0010000000002C512.001 1178.7710000000002 741.231 1408.0010000000002 1024.001 1408.0010000000002S1536.002 1178.7710000000002 1536.002 896.0010000000002C1536.002 613.2310000000002 1306.771 384 1024.001 384z M640 896C640 683.9226560649754 811.9226560649754 512 1024 512C1236.0773439350246 512 1408 683.9226560649754 1408 896C1408 1108.0773439350246 1236.0773439350246 1280 1024 1280C811.9226560649754 1280 640 1108.0773439350246 640 896z" />
    <glyph glyph-name="caret"
      unicode="&#xEA12;"
      horiz-adv-x="2048" d=" M512 1280L1536 1280L1024 767.2829999999999" />
    <glyph glyph-name="chat-lg"
      unicode="&#xEA13;"
      horiz-adv-x="2048" d=" M1620.722 642.97C1770.037 642.97 1919.362 792.289 1919.362 941.613C1919.362 1090.93 1919.362 1473.3690000000001 1919.362 1622.689C1919.362 1772.011 1770.038 1921.335 1620.7220000000002 1921.335C1471.3980000000001 1921.335 575.4650000000001 1921.335 426.1450000000002 1921.335C276.8190000000002 1921.335 127.4990000000002 1772.011 127.4990000000002 1622.689C127.4990000000002 1473.3690000000001 127.4990000000002 1090.9340000000002 127.4990000000002 941.613C127.4990000000002 792.29 233.6680000000002 643.395 382.9940000000002 643.395H382.9670000000002L383.1340000000002 130.5L901.5570000000002 642.97C1162.868 642.97 1546.054 642.97 1620.722 642.97z" />
    <glyph glyph-name="chat-sm"
      unicode="&#xEA14;"
      horiz-adv-x="2048" d=" M1536.8 637.9570000000001C1664.86 637.9570000000001 1792.924 766.0140000000001 1792.924 894.085C1792.924 1022.141 1792.924 1406.1460000000002 1792.924 1534.205C1792.924 1662.27 1664.86 1790.334 1536.8 1790.334C1408.7359999999999 1790.334 640.358 1790.334 512.2939999999999 1790.334C384.2289999999999 1790.334 256.1659999999999 1662.2710000000002 256.1659999999999 1534.205C256.1659999999999 1406.145 256.1659999999999 1022.144 256.1659999999999 894.085C256.1659999999999 766.0140000000001 384.3739999999999 638.3209999999999 512.4369999999999 638.3209999999999H512.4169999999999L512.5619999999999 254.463L908.3369999999998 637.9569999999999C1132.448 637.9570000000001 1472.764 637.9570000000001 1536.8 637.9570000000001z" />
    <glyph glyph-name="check"
      unicode="&#xEA15;"
      horiz-adv-x="2048" d=" M1793 1856L768 830L256.011 1344.009L0 1088.271L767 192L2048 1600z" />
    <glyph glyph-name="check1"
      unicode="&#xEA16;"
      horiz-adv-x="2048" d=" M1773.091 1581.724C1807.363 1640.5359999999998 1794.379 1717.066 1739.576 1761.028C1679.1 1809.542 1590.6060000000002 1800.0240000000001 1541.9160000000002 1739.767L707.5190000000002 807.3140000000003L384.8460000000003 1105.1920000000005C330.0110000000002 1164.2960000000003 237.4710000000003 1167.9130000000005 178.1570000000003 1113.2750000000005C118.8400000000003 1058.6380000000004 115.2070000000002 966.4350000000004 170.0440000000003 907.3320000000004L704.819 256L1773.091 1581.724z" />
    <glyph glyph-name="check2"
      unicode="&#xEA17;"
      horiz-adv-x="2048" d=" M1788.7710000000002 1649.236C1788.7710000000002 1570.8000000000002 1754.721 1494.41 1686.6440000000002 1420.0120000000002L1676.0460000000003 1408.958L1080.6840000000002 754.4720000000002C954.1360000000002 615.721 846.4000000000001 508.4990000000003 757.4520000000002 432.7560000000003C668.5040000000001 357.0120000000002 605.7130000000002 319.1660000000002 569.1070000000002 319.1660000000002C530.5650000000003 319.1660000000002 482.7150000000001 338.089 425.5590000000002 375.935C368.3780000000002 413.781 331.4490000000003 452.7919999999999 314.7700000000002 492.9940000000001C300.6240000000003 526.491 287.2960000000002 597.498 274.7880000000003 706.0140000000001C262.254 814.529 256 932.105 256 1058.716C256 1127.703 283.598 1191.513 338.8430000000001 1250.12C394.0890000000002 1308.726 455.0920000000001 1338.056 521.902 1338.056C585.4860000000001 1338.056 623.3589999999999 1277.4299999999998 635.569 1156.2040000000002C636.8599999999999 1142.1220000000003 637.827 1131.741 638.472 1125.0620000000004C648.7470000000001 1031.9490000000005 660.6099999999999 966.9740000000002 674.1109999999999 930.1380000000004C687.587 893.3010000000004 705.9029999999998 874.8960000000002 729.0329999999999 874.8960000000002C738.6619999999998 874.8960000000002 756.6309999999999 885.768 782.963 907.54C809.296 929.2840000000002 840.7649999999999 958.9229999999998 877.3969999999999 996.4589999999998L1489.1660000000002 1628.9409999999998C1540.5390000000002 1682.629 1586.4520000000002 1723.2189999999998 1626.906 1750.7369999999999C1667.3600000000001 1778.2279999999998 1701.7330000000002 1791.9999999999998 1730.0009999999997 1791.9999999999998C1751.1949999999997 1791.9999999999998 1766.2859999999996 1783.6129999999998 1775.2699999999995 1766.8639999999998C1784.2539999999995 1750.0899999999997 1788.7709999999997 1721.9509999999998 1788.7709999999997 1682.4229999999998V1649.236z" />
    <glyph glyph-name="check3"
      unicode="&#xEA18;"
      horiz-adv-x="2048" d=" M1635.44 1669.928L831.941 880.924L409.4749999999999 1295.7069999999999L127.982 1019.248L831.941 328L1916.975 1393.4609999999998z" />
    <glyph glyph-name="close1"
      unicode="&#xEA19;"
      horiz-adv-x="2048" d=" M1600.346 691.008L1235.375 1055.04L1600.012 1418.908L1356.797 1661.78L992.003 1297.734L627.21 1661.78L384 1419.075L748.808 1055.04L384 691.008L627.21 448.3019999999999L992.171 812.355L1357.146 448.3019999999999z" />
    <glyph glyph-name="close2"
      unicode="&#xEA1A;"
      horiz-adv-x="2048" d=" M1025.5 1923C529.8240000000001 1923 128 1521.176 128 1025.5S529.8240000000001 128 1025.5 128S1923 529.8240000000001 1923 1025.5S1521.176 1923 1025.5 1923zM1473.5 705.5L1345.5 577.5L1025.5 897.5L705.5 577.5L577.5 705.5L897.5 1025.5L577.5 1345.5L705.5 1473.5L1025.5 1153.5L1345.5 1473.5L1473.5 1345.5L1153.5 1025.5L1473.5 705.5z" />
    <glyph glyph-name="compass"
      unicode="&#xEA1B;"
      horiz-adv-x="2048" d=" M1024.93 2046C459.427 2046 1 1587.5729999999999 1 1022.07C1 456.5659999999998 459.427 -1.8649999999998 1024.9299999999998 -1.8649999999998C1590.4339999999997 -1.8649999999998 2048.8639999999996 456.5660000000003 2048.8639999999996 1022.0700000000002C2048.863 1587.5729999999999 1590.434 2046 1024.93 2046zM1024.969 254.3620000000001C600.994 254.3620000000001 257.303 598.0630000000001 257.303 1022.031C257.303 1446.0049999999999 600.9939999999999 1789.6970000000001 1024.969 1789.6970000000001C1448.9360000000001 1789.6970000000001 1792.6370000000002 1446.006 1792.6370000000002 1022.031C1792.637 598.0630000000001 1448.936 254.3620000000001 1024.969 254.3620000000001z M515.102 511.6949999999999L1195.237 851.762L1535.304 1531.897L855.17 1191.83L515.102 511.6949999999999zM1025.203 1147.821C1094.8029999999999 1147.821 1151.228 1091.3980000000001 1151.228 1021.796C1151.228 952.1960000000003 1094.8020000000001 895.7719999999999 1025.203 895.7719999999999C955.601 895.7719999999999 899.179 952.1969999999998 899.179 1021.7959999999998C899.179 1091.3980000000001 955.602 1147.821 1025.203 1147.821z" />
    <glyph glyph-name="computer"
      unicode="&#xEA1C;"
      horiz-adv-x="2048" d=" M126.5 1793.5V512.346H767.077V256.116H510.846V128H1535.77V256.115H1279.539V512.345H1920.116V1793.5H126.5zM1792 768.577H254.615V1665.385H1792V768.577z" />
    <glyph glyph-name="copy-link"
      unicode="&#xEA1D;"
      horiz-adv-x="2048" d=" M1674.275 1094.716L1386.1460000000002 806.309C1227.1180000000002 646.969 969.1170000000002 646.969 810.0840000000002 806.309C785.0200000000002 831.299 765.4260000000002 859.4929999999999 748.2180000000002 888.569L882.0950000000003 1022.6199999999998C888.4630000000003 1029.0449999999998 896.3200000000003 1032.7259999999999 903.8240000000002 1037.0659999999998C913.0730000000004 1005.387 929.2340000000002 975.413 954.1030000000002 950.522C1033.5150000000003 870.944 1162.7660000000003 871.0419999999999 1242.1340000000002 950.522L1530.1650000000002 1238.9289999999999C1609.631 1318.4979999999998 1609.631 1447.8649999999998 1530.1650000000002 1527.3839999999998C1450.7970000000003 1606.9059999999997 1321.601 1606.9059999999997 1242.1340000000002 1527.3839999999998L1139.6950000000002 1424.7079999999996C1056.5910000000001 1457.1249999999998 967.0330000000002 1465.8389999999997 879.8550000000002 1453.0409999999997L1098.1200000000003 1671.5879999999997C1257.2520000000004 1830.882 1515.1450000000004 1830.882 1674.2840000000003 1671.5879999999997C1833.312 1512.2910000000002 1833.312 1254.004 1674.275 1094.716zM912.578 620.472L810.085 517.799C730.6650000000001 438.327 601.418 438.327 522 517.799C442.584 597.3710000000001 442.584 726.7359999999999 522 806.3L810.085 1094.716C889.553 1174.291 1018.699 1174.291 1098.113 1094.716C1122.935 1069.8649999999998 1139.092 1039.893 1148.443 1008.272C1156.006 1012.662 1163.764 1016.2369999999999 1170.134 1022.6129999999998L1304 1156.605C1286.896 1185.7849999999999 1267.202 1213.873 1242.145 1238.915C1083.104 1398.206 825.112 1398.206 666.03 1238.915L377.998 950.504C218.914 791.165 218.914 532.9299999999998 377.998 373.5859999999998C537.0799999999999 214.3539999999998 795.028 214.3539999999998 954.1110000000002 373.5859999999998L1172.4230000000002 592.1909999999998C1085.186 579.3430000000001 995.624 588.105 912.578 620.472z" />
    <glyph glyph-name="copy"
      unicode="&#xEA1E;"
      horiz-adv-x="2048" d=" M1406.874 2048H1342.859C1341.032 2048 1339.2369999999999 2047.88 1337.441 2047.726H639.904C569.196 2047.726 511.878 1990.407 511.878 1919.697V1663.101H255.866C185.158 1663.101 127.84 1605.782 127.84 1535.0720000000001V512.107V501.182V128.0270000000001C127.84 57.3200000000002 185.159 0 255.866 0H1406.922C1477.63 0 1534.948 57.3199999999999 1534.948 128.0270000000001V384.624H1790.96C1861.668 384.624 1918.986 441.945 1918.986 512.6510000000001V1471.874V1535.8899999999999L1406.874 2048zM1406.922 192.038C1406.922 156.684 1378.261 128.028 1342.906 128.028H319.88C284.53 128.028 255.865 156.684 255.865 192.038V1471.0610000000001C255.865 1506.415 284.5300000000001 1535.074 319.88 1535.074H511.877V767.72V756.7950000000001V512.652C511.877 441.9450000000002 569.196 384.624 639.903 384.624H1406.921L1406.922 192.038L1406.922 192.038zM1790.96 576.662C1790.96 541.308 1762.299 512.652 1726.944 512.652H703.918C668.568 512.652 639.903 541.308 639.903 576.662V1855.685C639.903 1891.039 668.568 1919.697 703.918 1919.697H1278.85V1471.874C1278.85 1436.5230000000001 1307.5059999999999 1407.859 1342.86 1407.859H1790.9609999999998V576.662L1790.96 576.662z" />
    <glyph glyph-name="delete"
      unicode="&#xEA1F;"
      horiz-adv-x="2048" d=" M1346.883 1662.983V1809.038C1346.883 1941.012 1248.578 2048 1112.505 2048H742.94C606.866 2048 514.564 1941.012 514.564 1809.038V1662.983H126.996V1406.232H250.185V367.9749999999999C250.185 236.002 360.4890000000001 129.0139999999999 496.562 129.0139999999999H619.751H1293.772H1416.962C1552.599 129.0139999999999 1662.603 235.3229999999999 1663.307 366.7149999999999L1665.265 367.9749999999999V1406.232H1794.453V1662.983H1346.883zM637.752 379.549H511.563V1406.232H637.751V379.549zM1019.319 379.549H896.13V1406.232H1019.319V379.549zM1088.503 1662.983H766.942V1791.25H1088.503V1662.983zM1406.889 379.549H1277.6989999999998V1406.232H1406.889V379.549z" />
    <glyph glyph-name="download"
      unicode="&#xEA20;"
      horiz-adv-x="2048" d=" M1535.936 768.105L1535.936 640.125L512.089 640.125L512.089 768.105L255.881 768.105L256.128 384.163L1791.896 384.163L1791.896 768.105z M1535.936 1280.0320000000002L1279.971 1280.03L1279.971 1663.971L768.051 1663.971L768.053 1280.028L512.089 1280.028L1024.012 768.105z" />
    <glyph glyph-name="draft"
      unicode="&#xEA21;"
      horiz-adv-x="2048" d=" M1281.941 2046.706V2047.284H128.625V7.0780000000002H1913.804V1409.719L1281.941 2046.706zM256.138 134.5909999999999V1919.771H1228.68L1786.2930000000001 1357.637V134.5909999999999H256.138L256.138 134.5909999999999z M383.651 1664.745H511.163V1537.232H383.651V1664.745z M638.677 1664.745H766.191V1537.232H638.677V1664.745z M893.703 1664.745H1021.216V1537.232H893.703V1664.745z M383.651 1409.719H511.163V1282.2060000000001H383.651V1409.719z M383.651 1154.694H511.163V1027.181H383.651V1154.694z M383.651 899.6679999999999H511.163V772.155H383.651V899.6679999999999z M383.651 644.643H511.163V517.1290000000001H383.651V644.643z M383.651 389.616H511.163V262.1030000000001H383.651V389.616z M638.677 389.616H766.191V262.1030000000001H638.677V389.616z M893.703 389.616H1021.216V262.1030000000001H893.703V389.616z M893.703 644.643H1021.216V517.1290000000001H893.703V644.643z M893.703 899.6679999999999H1021.216V772.155H893.703V899.6679999999999z M893.703 1154.694H1021.216V1027.181H893.703V1154.694z M893.703 1409.719H1021.216V1282.2060000000001H893.703V1409.719z M1148.729 389.616H1276.242V262.1030000000001H1148.729V389.616z M1403.754 389.616H1531.2679999999998V262.1030000000001H1403.754V389.616z M1403.754 644.643H1531.2679999999998V517.1290000000001H1403.754V644.643z M1403.754 899.6679999999999H1531.2679999999998V772.155H1403.754V899.6679999999999z M1403.754 1154.694H1531.2679999999998V1027.181H1403.754V1154.694z M1403.754 1409.719H1531.2679999999998V1282.2060000000001H1403.754V1409.719z" />
    <glyph glyph-name="edit-lg"
      unicode="&#xEA22;"
      horiz-adv-x="2048" d=" M1344 1792L1792 1344L576 128L128 576L1344 1792zM2047.3 1600.7V1792.1L1791.4 2048H1600L1600 2048L1435 1883L1883 1435L2048 1600L2047.3 1600.7zM64 512L0 0L512 64L192 192L64 512z" />
    <glyph glyph-name="email-lg"
      unicode="&#xEA23;"
      horiz-adv-x="2048" d=" M1790.252 1792.5H255.75C114.503 1792.5 0 1677.995 0 1536.75V511.75C0 370.5060000000001 114.503 256 255.75 256H1790.251C1931.496 256 2046.002 370.5060000000001 2046.002 511.75V1536.75C2046.003 1677.995 1931.497 1792.5 1790.252 1792.5zM1023.001 767.501L141.781 1522.8319999999999C151.874 1549.226 167.108 1573.062 186.265 1593.1480000000001L193.363 1600.245C215.845 1621.687 243.033 1638.216 273.244 1648.118L1023 1026.248L1776.1779999999999 1650.955C1795.3739999999998 1644.294 1813.294 1634.9470000000001 1829.525 1623.353L1878.86 1574.022C1889.818 1558.682 1898.817 1541.845 1905.396 1523.8310000000001L1023.001 767.501z" />
    <glyph glyph-name="email-sm"
      unicode="&#xEA24;"
      horiz-adv-x="2048" d=" M1696 1664H352C228.289 1664 128 1563.711 128 1440V608C128 484.289 228.289 384 352 384H1696C1819.711 384 1920 484.289 1920 608V1440C1920 1563.711 1819.711 1664 1696 1664zM1024 766.25L252.18 1427.809C261.02 1450.9279999999999 274.36 1471.8049999999998 291.141 1489.393L297.356 1495.6080000000002C317.044 1514.3890000000001 340.86 1528.864 367.3210000000001 1537.54L1024 992.875L1683.676 1540.027C1700.485 1534.191 1716.184 1526.007 1730.395 1515.855L1773.61 1472.6480000000001C1783.204 1459.21 1791.087 1444.468 1796.848 1428.691L1024 766.25z" />
    <glyph glyph-name="error"
      unicode="&#xEA25;"
      horiz-adv-x="2048" d=" M1026.711 446.7200000000001C935.128 446.7200000000001 864.53 521.1980000000001 864.53 607.0219999999999C864.53 698.616 935.127 769.0709999999999 1026.711 769.0709999999999C1116.283 769.0709999999999 1186.88 696.615 1186.88 607.0219999999999C1186.876 521.1959999999999 1114.414 446.7200000000001 1026.711 446.7200000000001zM1116.423 913.167C1112.669 878.02 1105.272 876.1959999999999 1077.509 876.1959999999999H972.049C944.284 876.1959999999999 936.895 878.009 933.197 913.167L832.458 1539.426C830.6429999999999 1570.8220000000001 830.6429999999999 1565.242 830.6429999999999 1576.399C830.6429999999999 1600.395 849.1279999999999 1600.395 863.92 1600.395H1182.475C1197.259 1600.395 1219.5169999999998 1600.395 1219.5169999999998 1576.399C1219.5169999999998 1565.243 1219.5169999999998 1570.817 1217.6399999999999 1539.426L1116.423 913.167z M1024.784 2045.083C460.405 2045.083 2.868 1587.673 2.868 1023.242C2.868 458.8029999999999 460.405 1.3879999999999 1024.784 1.3879999999999C1589.142 1.3879999999999 2046.68 458.8029999999999 2046.68 1023.242C2046.688 1587.673 1589.143 2045.083 1024.784 2045.083zM1024.784 150.712C543.691 150.712 152.2450000000001 542.085 152.2450000000001 1023.104C152.2450000000001 1504.261 543.6910000000001 1895.635 1024.784 1895.635C1505.864 1895.635 1897.308 1504.254 1897.308 1023.104C1897.314 542.085 1505.864 150.712 1024.784 150.712z" />
    <glyph glyph-name="fb"
      unicode="&#xEA26;"
      horiz-adv-x="1024" d=" M896 1024H128C57.6 1024 0 966.4 0 896V128C0 57.6 57.6 0 128 0H512V352H384V512H512V607.3C512 730.8 607.6 832 724.1 832H832V642.1H736C709.5 642.1 704 626.9000000000001 704 605.9000000000001V512H832V352H704V0H896C966.4 0 1024 57.6 1024 128V896C1024 966.4 966.4 1024 896 1024L896 1024z" />
    <glyph glyph-name="filter"
      unicode="&#xEA27;"
      horiz-adv-x="1024" d=" M568.5 894.3C395.5 904.3 229.3 868.4 197.5 814.3C190.5 802.4 190.5 790.2 197.5 778.2L401 488.5C410.6 477 415.8 462.7 415.8 448V207.9C415.8 198.9 423.4000000000001 191.6999999999999 432.6 191.6999999999999C435.9000000000001 191.6999999999999 439.2000000000001 192.5999999999999 442 194.4L561.9 262C571.3 268 576.9 278.2000000000001 576.9 289V448C576.9 462.7 582.1 477 591.6999999999999 488.5L826 778.2C857.8 832.4 741.6 884.4 568.5 894.3zM510.9 736.1C343.4 736.1 256.3 771.6 256.3 798.3C256.3 825 343.4 864 510.9 864C678.4 864 767.2 825 767.2 798.3C767.2 771.6 678.4 736.1 510.9 736.1z" />
    <glyph glyph-name="first"
      unicode="&#xEA28;"
      horiz-adv-x="2048" d=" M2048 1814.11L2046.387 1812.82C2050.143 1841.121 2040.387 1870.565 2017.0710000000004 1892.157C1976.6940000000004 1929.55 1910.9500000000005 1929.239 1870.2290000000005 1891.462L991.1010000000002 1088C972.411 1070.6619999999998 962.248 1048.444 960.6180000000002 1025.864C957.3410000000002 997.8139999999999 967.1080000000002 968.9479999999998 990.0210000000002 947.754L1867.84 155.6880000000001C1908.4590000000003 118.1190000000002 1974.998 118.8780000000002 2016.455 157.386C2039.0589999999995 178.3800000000001 2049.537 206.261 2047.814 233.366L2048 233.2919999999999V1814.11z M640.617 1025.864C642.248 1048.444 652.4099999999999 1070.6620000000003 671.0999999999999 1088L1088 1469.018V1814.11L1086.387 1812.82C1090.143 1841.121 1080.387 1870.565 1057.071 1892.157C1016.695 1929.55 950.9499999999998 1929.239 910.23 1891.462L31.101 1088C12.4109999999999 1070.6619999999998 2.248 1048.444 0.6180000000001 1025.864C-2.659 997.8139999999999 7.1080000000001 968.9479999999998 30.0210000000001 947.754L907.8410000000002 155.6880000000001C948.46 118.1190000000002 1014.998 118.8780000000002 1056.4560000000001 157.386C1079.0600000000002 178.3800000000001 1089.5380000000002 206.261 1087.815 233.366L1088.001 233.2919999999999V570.6059999999998L670.0219999999999 947.7529999999998C647.107 968.9479999999998 637.3399999999999 997.8139999999999 640.617 1025.864z" />
    <glyph glyph-name="flag"
      unicode="&#xEA29;"
      horiz-adv-x="2048" d=" M1439.37 1468.955C1419.373 1475.153 1396.397 1471.713 1381.0989999999997 1460.25C1313.5349999999996 1409.6709999999998 1203.5709999999997 1424.948 1135.9019999999996 1475.566C960 1600 933.151 1504.31 831.856 1473.5V893.6700000000001C899.778 932.9740000000002 976.327 1022.6750000000002 1104.327 894.6750000000002C1242.342 771.663 1371.6460000000002 852.9250000000002 1456.703 916.6510000000002C1466.732 924.2010000000004 1472.368 934.3700000000003 1472.368 944.9680000000004V1431.93C1472.3690000000001 1448.164 1459.312 1462.735 1439.37 1468.955z M767.405 1473.238C767.405 1508.42 738.884 1536.941 703.702 1536.941C669.664 1536.941 641.866 1510.2450000000001 640.0930000000001 1476.65H640V572.2920000000004H640.0930000000001C641.866 538.6960000000004 669.664 512.0010000000002 703.702 512.0010000000002C738.885 512.0010000000002 767.405 540.5220000000004 767.405 575.7040000000002C767.405 579.1770000000001 767.405 1469.763 767.405 1473.238z" />
    <glyph glyph-name="flickr"
      unicode="&#xEA2A;"
      horiz-adv-x="2048" d=" M1792.1480000000001 2048H256.021C115.2190000000001 2048 0 1932.781 0 1791.979V255.8519999999999C0 115.0259999999999 115.2190000000001 -0.1690000000003 256.021 -0.1690000000003H396.2549999999999H1032.922H1403.6040000000003H1792.1480000000001C1932.998 -0.1690000000003 2048.1690000000003 115.0259999999999 2048.1690000000003 255.8519999999999V1791.979C2048.17 1932.781 1932.998 2048 1792.1480000000001 2048zM637.0409999999999 767.5529999999999C496.5799999999999 767.5529999999999 382.751 882.2069999999999 382.751 1023.868C382.751 1165.5529999999999 496.5799999999999 1280.283 637.0409999999999 1280.283C777.48 1280.283 891.433 1165.5529999999999 891.433 1023.868C891.433 882.2069999999999 777.479 767.5529999999999 637.0409999999999 767.5529999999999zM1409.1799999999998 771.8209999999999C1268.4409999999998 771.8209999999999 1154.3079999999998 884.5659999999998 1154.3079999999998 1023.868C1154.3079999999998 1163.194 1268.4409999999998 1276.0140000000001 1409.1799999999998 1276.0140000000001C1549.8689999999997 1276.0140000000001 1664.002 1163.194 1664.002 1023.868C1664.002 884.5659999999998 1549.8690000000001 771.8209999999999 1409.1799999999998 771.8209999999999z" />
    <glyph glyph-name="folder"
      unicode="&#xEA2B;"
      horiz-adv-x="2048" d=" M126.729 255.904L1920 255.904L1920 1536.812L1023.365 1536.812L767.183 1792.994L126.729 1792.994z" />
    <glyph glyph-name="format"
      unicode="&#xEA2C;"
      horiz-adv-x="2048" d=" M710.729 946.1680000000002H487.1800000000001L459.2560000000001 884.8670000000002C450.4570000000001 864.2110000000002 446.0710000000002 847.172 446.0710000000002 833.73C446.0710000000002 815.886 453.2890000000002 802.7570000000001 467.739 794.3139999999999C476.2080000000001 789.3039999999996 497.079 785.5429999999997 530.365 783.0499999999997V766.9269999999997H318V783.0499999999997C340.903 786.4879999999998 359.741 795.9229999999998 374.51 811.3799999999997C389.262 826.8349999999996 407.4649999999999 858.7709999999997 429.135 907.1609999999996L657.2940000000001 1408H666.26L896.7270000000001 893.232C918.698 843.8310000000001 936.749 812.7249999999999 950.884 799.924C961.5530000000002 790.2350000000001 976.621 784.6030000000001 996.089 783.047V766.924H687.1769999999999V783.047H699.895C724.701 783.047 742.1210000000001 786.498 752.1689999999999 793.404C759.0699999999999 798.4119999999998 762.5219999999999 805.627 762.5219999999999 815.0390000000002C762.5219999999999 820.6850000000004 761.575 826.4920000000002 759.7059999999999 832.451C759.0729999999999 835.2629999999999 754.356 847.029 745.5709999999999 867.7460000000001L710.729 946.1680000000002zM695.538 980.3069999999998L600.317 1194.4829999999997L502.73 980.3069999999998H695.538z M1282.758 831.4180000000001C1229.008 784.625 1180.756 761.2420000000002 1138.02 761.2420000000002C1112.871 761.2420000000002 1091.967 769.3340000000003 1075.32 785.5450000000001C1058.654 801.7400000000002 1050.336 822.0239999999999 1050.336 846.4120000000003C1050.336 879.4280000000003 1064.787 909.1370000000002 1093.705 935.5290000000005C1122.6219999999998 961.9040000000005 1185.643 997.0060000000004 1282.761 1040.8380000000006V1084.2520000000009C1282.761 1116.880000000001 1280.941 1137.4340000000007 1277.3039999999999 1145.9080000000008C1273.675 1154.384000000001 1266.802 1161.779000000001 1256.705 1168.0910000000008C1246.5929999999998 1174.4050000000007 1235.231 1177.5610000000006 1222.6019999999999 1177.5610000000006C1202.08 1177.5610000000006 1185.213 1173.0840000000007 1172.032 1164.1540000000005C1163.865 1158.5930000000003 1159.781 1152.1200000000003 1159.781 1144.7250000000004C1159.781 1138.2480000000005 1164.167 1130.2350000000006 1172.9669999999999 1120.6750000000002C1184.905 1107.413 1190.869 1094.6240000000003 1190.869 1082.2980000000002C1190.869 1067.1860000000001 1185.127 1054.3090000000002 1173.677 1043.6670000000004C1162.224 1033.0280000000002 1147.231 1027.7240000000002 1128.7089999999998 1027.7240000000002C1108.9249999999997 1027.7240000000002 1092.3639999999998 1033.578 1079.0259999999998 1045.286C1065.6739999999998 1056.991 1059.013 1070.712 1059.013 1086.4320000000002C1059.013 1108.6280000000002 1067.965 1129.8210000000004 1085.8809999999999 1149.9990000000003C1103.782 1170.1830000000004 1128.7679999999998 1185.681 1160.819 1196.4660000000003C1192.855 1207.2550000000006 1226.172 1212.6510000000003 1260.741 1212.6510000000003C1302.527 1212.6510000000003 1335.601 1203.9520000000002 1359.9519999999998 1186.554C1384.3049999999998 1169.158 1400.0829999999996 1150.2960000000003 1407.3139999999999 1129.9830000000002C1411.7109999999998 1117.0330000000004 1413.9159999999997 1087.3210000000004 1413.9159999999997 1040.839V873.1770000000001C1413.9159999999997 853.4680000000003 1414.6989999999996 841.0660000000003 1416.2809999999995 835.9970000000003C1417.8629999999994 830.9170000000004 1420.2449999999994 827.1380000000004 1423.4089999999997 824.6770000000001C1426.5729999999999 822.2180000000003 1430.1599999999999 820.989 1434.1689999999999 820.989C1442.487 820.989 1450.955 826.549 1459.589 837.6570000000002L1473.7089999999998 826.8400000000001C1457.991 803.8890000000001 1441.734 787.219 1424.917 776.8290000000002C1408.1019999999999 766.4390000000003 1388.993 761.241 1367.6239999999998 761.241C1342.4769999999999 761.241 1322.822 767.0509999999999 1308.6889999999999 778.6680000000001C1294.541 790.2840000000001 1285.891 807.857 1282.758 831.4180000000001zM1282.758 865.5590000000002V1009.69C1244.737 987.7890000000002 1216.469 964.3630000000002 1197.948 939.3780000000002C1185.678 922.7250000000004 1179.5600000000002 905.9050000000002 1179.5600000000002 888.9560000000001C1179.5600000000002 874.759 1184.746 862.281 1195.1150000000002 851.4950000000003C1202.9670000000003 843.1690000000003 1213.9650000000001 839.0070000000005 1228.0970000000002 839.0070000000005C1243.803 839.0059999999999 1262.021 847.8519999999999 1282.758 865.5590000000002z M1342 576.0010000000002L1728 576.0010000000002L1534 384" />
    <glyph glyph-name="foursquare"
      unicode="&#xEA2D;"
      horiz-adv-x="2048" d=" M1974.188 1199.3560000000002L1085.5 314.5L1083.084 314.3820000000001C1060.468 294.243 1030.666 282 998 282C969.8130000000002 282 943.761 291.1170000000002 922.614 306.5549999999999L921.5 306.5L917.539 310.4560000000002C910.565 316.1010000000001 904.1969999999998 322.4610000000003 898.546 329.4280000000004L298.7900000000001 928.4730000000004L298.7900000000001 928.4940000000006C272.535 951.9360000000001 256 986.033 256 1024C256 1059.659 270.587 1091.9070000000002 294.1130000000001 1115.118L544.4460000000001 1365.156C567.8880000000001 1391.442 602.008 1408 640.0000000000002 1408C671.8110000000001 1408 700.9070000000002 1396.3919999999998 723.2950000000003 1377.1860000000001L724.6780000000003 1377.2360000000003L1023.5 1080.5L1559.438 1618.409L1214.132 1963.412C1208.173 1970.017 1201.875 1976.308 1195.266 1982.261L1192.326 1985.199H1191.9560000000001C1147 2024.313 1088.268 2048 1024 2048C959.731 2048 900.999 2024.313 856.0440000000001 1985.199H854.143L86.698 1216.005C33.54 1169.096 0 1100.4699999999998 0 1024C0 958.77 24.4110000000001 899.2489999999998 64.578 854.0419999999999V853.8809999999999L65.845 852.614C71.7810000000001 846.0320000000002 78.053 839.761 84.635 833.826L833.0929999999998 85.4610000000002C879.972 33.0210000000002 948.125 0 1024 0C1099.555 0 1167.456 32.739 1214.315 84.7950000000001L1974.309 844.25V844.3020000000001C2019.871 890.5219999999999 2047.9990000000005 953.9720000000002 2047.9990000000005 1024C2048 1080.19 2004.88 1157.138 1974.188 1199.3560000000002z M2043.6930000000004 1480.091C2043.6930000000004 1502.4879999999998 2033.931 1522.6029999999998 2018.4350000000004 1536.4219999999998L1871.031 1684C1844.082 1709.527 1838.292 1705.365 1817.314 1706.469C1793.453 1707.7250000000001 1765.362 1678.221 1765.362 1678.221L1725.2090000000003 1638.067L1725.1130000000003 1638.15L1008.6170000000002 920.4740000000002L674.4530000000002 1253.4080000000004L673.6380000000001 1253.3780000000002C660.44 1264.701 643.2870000000003 1271.5440000000003 624.5340000000001 1271.5440000000003C602.1360000000002 1271.5440000000003 582.0220000000002 1261.7830000000004 568.202 1246.2860000000005L420.624 1098.8820000000005C406.7550000000001 1085.1980000000003 398.155 1066.1880000000006 398.155 1045.1650000000004C398.155 1022.7840000000006 407.903 1002.6820000000002 423.3809999999999 988.8630000000002V988.8490000000002L941.692 470.9570000000003C945.0240000000002 466.8520000000003 948.777 463.1010000000001 952.8900000000002 459.7730000000001L955.2240000000002 457.4410000000003L955.882 457.4730000000004C968.348 448.3720000000003 983.7070000000002 442.9970000000003 1000.323 442.9970000000003C1019.5810000000002 442.9970000000003 1037.1490000000001 450.2140000000004 1050.4820000000002 462.0870000000004L1051.9070000000002 462.1570000000006L1994.987 1402.8790000000008L2025.5570000000005 1430.1680000000008L2025.5280000000005 1430.9820000000009C2036.85 1444.185 2043.6930000000004 1461.337 2043.6930000000004 1480.091z" />
    <glyph glyph-name="gear"
      unicode="&#xEA2E;"
      horiz-adv-x="2048" d=" M1703.3049999999998 1145.9180000000001H1537.87C1526.453 1197.2270000000003 1506.252 1245.4160000000002 1479.4679999999998 1289.7090000000003L1606.1659999999997 1409.6920000000005C1640.3659999999995 1442.2770000000005 1640.7799999999997 1495.1470000000004 1606.4859999999999 1527.6310000000005L1544.1569999999997 1586.4590000000005C1509.9649999999997 1618.8470000000004 1454.0309999999995 1618.6470000000006 1419.7279999999996 1586.4590000000005L1295.4019999999996 1468.6110000000006C1251.8119999999997 1493.5840000000005 1204.4409999999996 1512.7030000000007 1153.9589999999996 1524.8000000000006V1707.7150000000006C1153.9589999999996 1753.5590000000007 1114.6119999999996 1791.0130000000006 1066.1929999999995 1791.0130000000006H1025.2869999999996H1021.0619999999996H980.1619999999996C931.7449999999995 1791.0130000000006 892.3979999999997 1753.5500000000006 892.3979999999997 1707.7150000000006V1524.8040000000005C841.9259999999997 1512.7050000000006 794.5399999999997 1493.5870000000004 750.9699999999998 1468.6170000000006L626.6369999999997 1586.4660000000006C592.3329999999996 1618.6540000000007 536.4029999999998 1618.8500000000006 502.2049999999997 1586.4660000000006L439.8839999999998 1527.6380000000006C405.5819999999999 1495.1560000000006 405.9899999999998 1442.2840000000006 440.1959999999997 1409.6990000000005L566.8929999999996 1289.7120000000004C540.1049999999996 1245.4290000000005 519.9199999999996 1197.2380000000003 508.4819999999995 1145.9210000000003H343.0679999999996C294.3479999999995 1145.9210000000003 254.9979999999996 1108.7510000000002 254.9979999999996 1062.6070000000004V1023.3960000000006V1022.7800000000007V983.5710000000008C254.9979999999996 937.418000000001 294.3409999999996 900.2560000000008 343.0679999999996 900.2560000000008H508.4969999999996C519.9319999999996 848.9520000000007 540.1209999999996 800.7530000000006 566.9089999999997 756.4680000000008L440.2119999999996 636.4810000000007C406.0069999999996 603.8950000000009 405.5989999999995 551.0120000000006 439.8969999999995 518.5360000000005L502.2169999999994 459.7080000000005C536.4089999999994 427.3120000000004 592.3409999999994 427.5220000000004 626.6519999999994 459.7080000000005L750.9839999999995 577.5520000000006C794.5549999999994 552.5810000000006 841.9399999999994 533.4660000000008 892.4069999999995 521.3590000000004V338.4420000000005C892.4069999999995 292.6010000000006 931.7579999999994 255.1550000000007 980.1749999999994 255.1550000000007H1021.0759999999996H1025.2959999999996H1066.2059999999997C1114.6329999999996 255.1550000000007 1153.9719999999998 292.6060000000007 1153.9719999999998 338.4420000000005V521.3590000000004C1204.4479999999999 533.4660000000003 1251.8259999999998 552.5830000000005 1295.4149999999997 577.5520000000006L1419.7459999999996 459.7080000000005C1454.0359999999996 427.5220000000004 1509.9759999999997 427.3120000000004 1544.1699999999996 459.7080000000005L1606.4989999999998 518.5360000000005C1640.7889999999998 551.0200000000004 1640.379 603.8950000000004 1606.1789999999996 636.4810000000007L1479.4859999999994 756.4660000000008C1506.2609999999995 800.7510000000007 1526.4639999999995 848.9350000000009 1537.8869999999993 900.2540000000008H1703.3289999999993C1752.0499999999993 900.2540000000008 1791.3959999999993 937.420000000001 1791.3959999999993 983.5680000000006V1022.7770000000004V1023.3940000000006V1062.6040000000007C1791.3760000000002 1108.748 1752.033 1145.9180000000001 1703.3049999999998 1145.9180000000001zM1021.208 834.6869999999999C916.237 834.6869999999999 831.1460000000002 919.783 831.1460000000002 1024.7489999999998C831.1460000000002 1129.7199999999998 916.237 1214.8109999999997 1021.208 1214.8109999999997C1126.174 1214.8109999999997 1211.27 1129.7199999999998 1211.27 1024.7489999999998C1211.271 919.7820000000002 1126.175 834.6869999999999 1021.208 834.6869999999999z" />
    <glyph glyph-name="go"
      unicode="&#xEA2F;"
      horiz-adv-x="2048" d=" M110.688 1535.908C110.688 1362.0279999999998 168.762 1236.4899999999998 283.274 1162.705C376.9980000000001 1102.3339999999998 485.8689999999999 1093.3069999999998 542.3989999999999 1093.3069999999998C556.1329999999998 1093.3069999999998 567.135 1093.8069999999998 574.8199999999999 1094.3289999999997C574.8199999999999 1094.3289999999997 556.857 977.5459999999998 643.492 861.9219999999996L639.5799999999999 861.9659999999994C489.51 861.9659999999994 0.001 830.6109999999994 0.001 428.2129999999993C0.001 18.7639999999992 449.579 -2.0190000000007 539.759 -2.0190000000007C546.808 -2.0190000000007 550.9480000000001 -1.8810000000008 550.9480000000001 -1.8810000000008C551.9490000000001 -1.9040000000009 558.4060000000002 -2.1540000000009 569.363 -2.1540000000009C627.258 -2.1540000000009 776.876 5.1229999999991 915.8030000000002 72.6549999999993C1096.0310000000002 160.1519999999991 1187.482 312.3159999999994 1187.482 524.9409999999993C1187.482 730.4269999999992 1048.187 852.7139999999995 946.502 942.0979999999996C884.4259999999999 996.5329999999994 830.809 1043.5789999999997 830.809 1089.3049999999994C830.809 1135.8969999999995 869.9639999999999 1170.9129999999996 919.489 1215.2749999999992C999.712 1287.0159999999992 1075.292 1389.108999999999 1075.292 1582.1129999999991C1075.292 1751.7859999999991 1053.28 1865.6579999999992 917.761 1937.9209999999991C931.904 1945.1519999999991 981.8409999999998 1950.4269999999992 1006.577 1953.8379999999993C1080.021 1963.8659999999993 1187.483 1975.2569999999992 1187.483 2035.2419999999993V2046.8379999999993H652.087C646.72 2046.701 110.688 2026.828 110.688 1535.908M974.925 486.6500000000001C985.155 322.8890000000001 845.0909999999999 202.0810000000001 634.806 186.7780000000003C421.202 171.1570000000002 245.3430000000001 267.3400000000002 235.1130000000001 430.8720000000003C230.1560000000001 509.4340000000002 264.7180000000001 586.4930000000004 332.3420000000001 647.7960000000003C400.9660000000001 709.9420000000005 495.1460000000002 748.2540000000004 597.604 755.8030000000003C609.703 756.5770000000002 621.7080000000001 757.0530000000003 633.6700000000001 757.0530000000003C831.356 757.0529999999999 965.239 640.8609999999999 974.925 486.6500000000001M835.1289999999999 1647.962C887.654 1463.235 808.3449999999998 1270.074 681.9659999999999 1234.466C667.4559999999999 1230.397 652.405 1228.3049999999998 637.2149999999999 1228.3049999999998C521.4309999999998 1228.3049999999998 406.694 1345.451 364.2190000000001 1506.7799999999997C340.483 1597.4379999999996 342.3910000000001 1676.6569999999997 369.6320000000001 1752.8549999999998C396.4170000000002 1827.7999999999995 444.4860000000001 1878.4149999999995 505.0160000000001 1895.446C519.567 1899.563 534.665 1901.653 549.8120000000001 1901.653C689.604 1901.652 779.4680000000001 1843.694 835.1289999999999 1647.962M1664 1152V1344L1536 1344L1536.228 1151.978H1343.978L1344 1024.4340000000002H1536L1535.583 832H1664V1024H1856V1151.978L1664 1152z M1536 1344C1536 1308.653776010829 1564.653776010829 1280 1600 1280C1635.346223989171 1280 1664 1308.653776010829 1664 1344C1664 1379.346223989171 1635.346223989171 1408 1600 1408C1564.653776010829 1408 1536 1379.346223989171 1536 1344z M1280 1088C1280 1052.653776010829 1308.6537760108292 1024 1344 1024C1379.346223989171 1024 1408 1052.653776010829 1408 1088C1408 1123.346223989171 1379.346223989171 1152 1344 1152C1308.6537760108292 1152 1280 1123.346223989171 1280 1088z M1792 1088C1792 1052.653776010829 1820.6537760108292 1024 1856 1024C1891.3462239891708 1024 1920 1052.653776010829 1920 1088C1920 1123.346223989171 1891.3462239891708 1152 1856 1152C1820.6537760108292 1152 1792 1123.346223989171 1792 1088z M1536 832C1536 796.653776010829 1564.653776010829 768 1600 768C1635.346223989171 768 1664 796.653776010829 1664 832C1664 867.346223989171 1635.346223989171 896 1600 896C1564.653776010829 896 1536 867.346223989171 1536 832z" />
    <glyph glyph-name="grab"
      unicode="&#xEA30;"
      horiz-adv-x="2048" d=" M640 1536H1408V1408H640V1536z M640 1152H1408V1024H640V1152z M640 768H1408V640H640V768z" />
    <glyph glyph-name="help"
      unicode="&#xEA31;"
      horiz-adv-x="2048" d=" M493.704 1557.636C522.5070000000001 1631.206 562.8899999999999 1694.971 614.777 1748.927C666.663 1802.884 729.2440000000001 1844.961 802.5530000000001 1875.231C875.8300000000002 1905.46 957.7910000000002 1920.602 1048.3960000000002 1920.602C1165.3340000000003 1920.602 1262.9320000000002 1904.663 1341.1760000000004 1872.778C1419.3980000000006 1840.898 1482.4010000000003 1801.234 1530.1970000000006 1753.832C1577.9520000000007 1706.394 1612.1110000000008 1655.314 1632.7250000000004 1600.5520000000001C1653.3120000000004 1545.7540000000001 1663.6130000000003 1494.6770000000001 1663.6130000000003 1447.275C1663.6130000000003 1368.7960000000003 1653.3120000000004 1304.1910000000003 1632.7250000000004 1253.531C1612.1130000000003 1202.833 1586.5960000000005 1159.496 1556.1340000000005 1123.5459999999998C1525.6410000000005 1087.5659999999998 1491.8960000000006 1056.9109999999996 1454.8330000000005 1031.5839999999998C1417.7700000000004 1006.2219999999998 1382.7560000000003 980.8849999999998 1349.8190000000004 955.556C1316.8530000000005 930.183 1287.6360000000004 901.183 1262.1200000000003 868.4900000000002C1236.5540000000003 835.7750000000001 1220.4960000000003 786.8380000000002 1213.9260000000004 737.7890000000002V638.5880000000002H892.3760000000004V754.942C897.3210000000004 825.23 910.9100000000007 892.1709999999998 933.1490000000005 939.6100000000002C955.3860000000004 987.0150000000004 981.3300000000004 1027.482 1010.9760000000005 1061.0140000000001C1040.6250000000005 1094.5060000000003 1059.8900000000003 1123.549 1092.8690000000004 1148.0750000000003C1125.7960000000003 1172.6000000000004 1156.2590000000005 1197.1270000000004 1184.2850000000003 1221.6510000000003C1212.2720000000004 1246.1760000000004 1234.9310000000003 1273.1570000000002 1252.2290000000003 1302.5810000000001C1269.5230000000004 1332.0120000000002 1277.3240000000003 1368.8030000000003 1275.7010000000002 1412.944C1275.7010000000002 1488.132 1257.1740000000002 1543.728 1220.1140000000003 1579.7179999999998C1183.0520000000004 1615.6619999999998 1131.5530000000003 1633.6699999999998 1065.6920000000002 1633.6699999999998C1021.2170000000004 1633.6699999999998 1003.9170000000001 1625.0879999999997 971.8090000000002 1607.917C939.6840000000002 1590.753 913.3140000000004 1567.8339999999998 892.7390000000003 1539.25C872.1270000000002 1510.621 856.9130000000002 1477.093 847.0300000000002 1438.699C837.1410000000003 1400.2620000000002 832.2070000000001 1322.7380000000003 832.2070000000001 1278.592H448C449.616 1366.873 464.8689999999999 1484.059 493.704 1557.636z M896 512H1280V192H896V512z" />
    <glyph glyph-name="helpscout"
      unicode="&#xEA32;"
      horiz-adv-x="2048" d=" M1748.3890000000001 773.0419999999999C1748.3890000000001 773.0419999999999 1717.5770000000002 737.6770000000001 1678.205 696.933C1765.835 808.5680000000002 1813.582 917.3629999999998 1832.9519999999995 1020.9940000000003C1879.1229999999996 1019.8870000000002 2018.0319999999997 1030.96 2021.7969999999996 1204.1200000000003C2021.7969999999996 1204.1200000000003 2007.8339999999992 1388.1250000000005 2032.1469999999997 1413.4560000000001C2032.1469999999997 1413.4560000000001 1869.585999999999 1398.067 1843.3349999999996 1128.0610000000001C1844.0299999999995 1226.3360000000002 1820.9289999999996 1318.7540000000004 1784.4439999999995 1402.9680000000003C1820.1829999999995 1419.0680000000002 1953.3039999999996 1493.9110000000003 1841.4939999999997 1676.8810000000003C1841.4939999999997 1676.8810000000003 1811.2119999999995 1726.4340000000002 1814.5279999999996 1764.6840000000002C1814.5279999999996 1764.6840000000002 1675.7509999999997 1682.4440000000002 1720.7599999999998 1550.9930000000002C1720.7599999999998 1550.9930000000002 1739.1349999999998 1515.2800000000002 1758.7379999999998 1456.9920000000002C1711.9379999999996 1547.1930000000002 1651.471 1626.4080000000001 1592.3319999999999 1691.6020000000003C1590.243 1729.5270000000003 1563.2759999999998 1972.3420000000003 1213.9779999999998 1910.3580000000004C1213.9779999999998 1910.3580000000004 1265.522 1627.8750000000005 1578.7329999999997 1684.0660000000005C1630.4769999999999 1620.2330000000004 1682.4849999999997 1543.5870000000004 1722.1709999999998 1457.2360000000006C1669.6 1541.0270000000005 1560.5249999999996 1662.0230000000006 1405.4609999999998 1566.3090000000007C1405.4609999999998 1566.3090000000007 1452.991 1535.3260000000007 1501.1859999999997 1434.0830000000005C1501.1859999999997 1434.0830000000005 1543.7079999999996 1319.6350000000007 1750.5139999999997 1387.4490000000005C1781.2939999999999 1300.7150000000006 1797.8629999999998 1205.9640000000004 1789.4699999999998 1105.8460000000005C1779.5359999999996 1162.0220000000004 1731.375 1344.8030000000003 1531.7349999999997 1270.8810000000003C1531.7349999999997 1270.8810000000003 1564.9689999999996 1225.6830000000004 1576.7109999999998 1148.7440000000001C1576.7109999999998 1148.7440000000001 1617.6419999999998 1019.25 1777.0649999999996 1023.9320000000002C1756.5019999999995 930.4770000000004 1712.6689999999994 833.1650000000004 1637.7419999999997 734.0590000000002C1667.6749999999997 812.971 1696.0029999999997 964.1200000000003 1509.1139999999996 1024.8110000000001C1509.1139999999996 1024.8110000000001 1522.6139999999996 974.5900000000001 1487.7859999999996 917.752C1487.7859999999996 917.752 1404.9159999999997 780.1860000000001 1557.4069999999997 639.8789999999999C1497.9849999999997 577.6039999999998 1425.2799999999997 514.8359999999998 1337.6649999999995 452.1369999999997C1380.5029999999997 510.3339999999998 1421.4989999999993 613.9419999999996 1349.9379999999996 763.1899999999996C1349.9379999999996 763.1899999999996 1356.2069999999994 723.2269999999994 1288.2099999999996 703.1979999999994C1288.2099999999996 703.1979999999994 1072.5229999999997 637.6609999999996 1205.9859999999996 365.2309999999993C1167.4759999999997 341.7759999999994 1108.6179999999997 311.3399999999993 1023.2599999999998 279.5999999999995C937.8919999999998 311.3399999999993 879.0259999999998 341.7759999999994 840.4919999999997 365.2309999999993C974.0539999999996 637.6609999999991 758.3419999999996 703.1979999999994 758.3419999999996 703.1979999999994C690.2059999999997 723.2269999999994 696.5489999999998 763.1899999999996 696.5489999999998 763.1899999999996C625.0459999999998 614.1079999999997 665.9259999999997 510.5319999999997 708.7389999999998 452.3009999999995C621.1979999999999 514.9689999999996 548.5599999999997 577.6679999999997 489.1789999999999 639.9099999999994C641.6379999999999 780.1849999999995 558.7659999999998 917.7519999999994 558.7659999999998 917.7519999999994C523.9479999999999 974.5899999999996 537.3229999999999 1024.8109999999997 537.3229999999999 1024.8109999999997C350.6999999999998 964.1989999999996 378.7689999999998 813.2969999999996 408.6629999999998 734.3179999999998C333.8429999999999 833.328 290.0599999999999 930.5429999999996 269.4949999999998 1023.9309999999996C428.7869999999998 1019.2669999999994 469.7839999999997 1148.7429999999995 469.7839999999997 1148.7429999999995C481.5919999999996 1225.6819999999993 514.7929999999997 1270.8799999999997 514.7929999999997 1270.8799999999997C315.5419999999997 1344.6399999999999 267.1319999999996 1162.7869999999998 257.0479999999997 1106.1869999999994C248.7229999999996 1206.1749999999993 265.2909999999997 1300.8119999999994 296.0219999999997 1387.4389999999994C502.8609999999996 1319.6339999999996 545.3249999999998 1434.0819999999994 545.3249999999998 1434.0819999999994C593.5769999999998 1535.3249999999994 641.0079999999998 1566.3079999999995 641.0079999999998 1566.3079999999995C486.0859999999998 1661.9719999999995 377.0279999999998 1541.1559999999995 324.4129999999998 1457.3659999999995C364.0999999999997 1543.6669999999995 416.0759999999998 1620.2729999999995 467.8009999999997 1684.0749999999996C781.0039999999997 1627.8329999999996 832.5479999999998 1910.3569999999995 832.5479999999998 1910.3569999999995C483.6649999999997 1972.2829999999997 456.4089999999997 1730.0049999999994 454.2689999999998 1691.7149999999995C395.1039999999998 1626.5119999999995 334.5969999999998 1547.2649999999994 287.7789999999998 1457.0239999999994C307.3319999999999 1515.2949999999994 325.7409999999998 1550.9919999999995 325.7409999999998 1550.9919999999995C370.7999999999998 1682.4439999999995 232.0649999999997 1764.6829999999995 232.0649999999997 1764.6829999999995C235.3149999999997 1726.4329999999995 205.0149999999998 1676.8799999999997 205.0149999999998 1676.8799999999997C93.1799999999997 1493.9759999999997 226.2439999999998 1419.1249999999995 262.0569999999998 1402.9839999999995C225.6809999999998 1319.0629999999996 202.6029999999999 1226.9859999999994 203.1249999999998 1129.0879999999993C176.5399999999997 1398.106999999999 14.3949999999998 1413.4549999999995 14.3949999999998 1413.4549999999995C38.6749999999997 1388.1239999999993 24.7439999999998 1204.1189999999997 24.7439999999998 1204.1189999999997C28.5169999999998 1030.9099999999999 167.4189999999999 1019.8679999999994 213.5399999999997 1020.9929999999994C232.8939999999998 917.4269999999996 280.5909999999998 808.6959999999995 368.1219999999999 697.1279999999997C328.8249999999998 737.8099999999995 298.0959999999999 773.0419999999999 298.0959999999999 773.0419999999999C166.215 929.4969999999998 0 929.0729999999998 0 929.0729999999998C21.684 888.817 34.76 810.2289999999998 34.76 810.2289999999998C62.406 679.741 148.794 615.2129999999997 148.794 615.2129999999997C248.798 533.0719999999997 400.701 596.9139999999998 439.31 615.3129999999996C502.413 549.0879999999997 580.193 482.1159999999995 674.7649999999999 414.8479999999995C622.9069999999999 445.5469999999996 489.9739999999999 516.2049999999995 417.194 481.5299999999993C414.1099999999999 480.0279999999993 320.5660000000001 438.1409999999992 196.457 472.7189999999991C196.457 472.7189999999991 390.02 169.5299999999993 795.9369999999999 319.5589999999993C840.4079999999999 293.4929999999995 889.3319999999999 270.8209999999995 940.0049999999998 251.1489999999995C841.694 220.2249999999995 717.029 189.7559999999994 560.3399999999999 164.9299999999994L615.7479999999998 129.0139999999992C693.6109999999999 143.300999999999 859.3299999999999 169.0059999999994 1023.2579999999998 221.724999999999C1187.1929999999998 169.005999999999 1352.9199999999996 143.300999999999 1430.6989999999996 129.0139999999992L1486.2229999999995 164.9299999999994C1329.5189999999996 189.7559999999994 1204.8389999999995 220.2249999999995 1106.5099999999995 251.1489999999995C1157.1569999999995 270.8209999999995 1206.0659999999996 293.4609999999994 1250.5109999999995 319.5259999999994C1656.5449999999996 169.5299999999993 1850.1159999999995 472.7189999999996 1850.1159999999995 472.7189999999996C1725.9319999999993 438.1409999999996 1632.3979999999997 480.0279999999998 1629.3449999999993 481.5299999999997C1556.6899999999991 516.1409999999996 1424.1489999999994 445.8719999999999 1372.0239999999994 415.0459999999998C1466.4709999999995 482.2799999999997 1544.1689999999994 549.1889999999999 1607.2049999999995 615.3779999999997C1645.6979999999994 596.9799999999996 1797.6769999999997 533.0069999999996 1897.7129999999993 615.2139999999995C1897.7129999999993 615.2139999999995 1984.1169999999993 679.7409999999995 2011.8119999999997 810.2299999999996C2011.8119999999997 810.2299999999996 2024.8489999999993 888.8179999999998 2046.5739999999996 929.0739999999996C2046.574 929.0729999999998 1880.334 929.4969999999998 1748.3890000000001 773.0419999999999z" />
    <glyph glyph-name="hide"
      unicode="&#xEA33;"
      horiz-adv-x="612" d=" M191.2 396.1C191.2 459.3 242.6 510.5 306 510.5C321.1 510.5 335.4 507.6 348.6 502.4L381.1 534.9C218 597.5 96 435 86 421.2C80.1 414.5 76.4 405.7 76.4 396C76.4 386.7 79.7 378.1 85.3 371.6H85.2C85.2 371.6 109.2 337.5 150.5 304.5L199.3 353.3C194.2 366.5 191.2 380.9 191.2 396.1z M535.4 396.1C535.4 405.5 532 414.1 526.3 420.8L526.3 420.8C503.4 448.5 480.8 470.9 458.8 488.8L411.3 441.3C417.3 427.4000000000001 420.6 412.1 420.6 396.1C420.6 332.9000000000001 369.2 281.7000000000001 305.8 281.7000000000001C289.8 281.7000000000001 274.6 285.0000000000001 260.8 290.8000000000001L228.7 258.7000000000001C308 228.4 413 235.3 526.4 371.2H526.1999999999999C532 377.8 535.4 386.6 535.4 396.1L535.4 396.1z M248.9 402.7L299.1 452.9C272.8 449.8 252 428.9 248.9 402.7z M363.3 393.2L309 338.9C338.4 340.4 361.9 363.9 363.3 393.2z M159.00509 216.71301H124.92287V543.3224999999999H159.00509V216.71301z" />
    <glyph glyph-name="home"
      unicode="&#xEA34;"
      horiz-adv-x="2048" d=" M1793.201 1999.809C1793.201 2025.869 1764.093 2047 1738.015 2047H1457.165C1431.0819999999999 2047 1409.97 2025.868 1409.97 1999.809V1789.063L1793.2 1406.016V1999.809z M1848.88 1163.6309999999999L1150.3120000000001 1855.562C1104.5970000000002 1898.925 1063.306 1914.963 1027.7720000000002 1917.027V1917.428C1027.7020000000002 1917.431 1027.631 1917.436 1027.5570000000002 1917.436V1917.298C1027.3890000000004 1917.298 1027.2170000000003 1917.282 1027.0530000000003 1917.279V1917.271C1026.2210000000002 1917.258 1025.3650000000002 1917.194 1024.5310000000004 1917.167C1023.6950000000004 1917.194 1022.8400000000004 1917.258 1022.0080000000004 1917.271V1917.279C1021.8400000000004 1917.279 1021.6680000000003 1917.295 1021.5040000000004 1917.298V1917.436C1021.4320000000004 1917.436 1021.3590000000004 1917.431 1021.2920000000004 1917.428V1917.027C985.7570000000004 1914.963 944.4700000000004 1898.924 898.7490000000004 1855.562L200.179 1163.6309999999999C200.179 1163.6309999999999 129.748 1104.933 129.748 1002.301C129.748 856.9110000000001 256.857 820.557 256.857 820.557V210.2449999999999C256.857 210.2449999999999 256.568 -0.4970000000003 467.134 -0.4970000000003H768.444V576.1839999999997C768.444 576.1839999999997 759.8009999999999 639.9219999999998 833.615 639.9219999999998H1021.29H1021.502H1022.006H1027.055H1027.559H1027.778H1215.455C1289.2569999999998 639.9219999999998 1280.623 576.1839999999997 1280.623 576.1839999999997V-0.5H1581.928C1792.4940000000001 -0.5 1792.2 210.242 1792.2 210.242V820.55C1792.2 820.55 1919.314 856.9079999999999 1919.314 1002.298C1919.311 1104.933 1848.88 1163.6309999999999 1848.88 1163.6309999999999z" />
    <glyph glyph-name="hr"
      unicode="&#xEA35;"
      horiz-adv-x="2048" d=" M512 1088H1537.0389999999998V1024.002H511.9999999999998V1088z" />
    <glyph glyph-name="html"
      unicode="&#xEA36;"
      horiz-adv-x="2048" d=" M1524.2089999999998 1058.8870000000002L1280.4789999999998 1206.9470000000001C1262.62 1221.5300000000002 1236.8379999999997 1218.112 1222.9439999999997 1199.4480000000003C1209.0489999999998 1180.8690000000001 1212.2919999999997 1154.121 1230.1509999999998 1139.6230000000005L1434.362 1023.4740000000006L1228.51 905.5770000000006C1211.369 890.1610000000005 1209.49 863.2510000000007 1224.264 845.4200000000005C1232.3929999999998 835.5880000000006 1243.8029999999999 830.5890000000004 1255.3339999999998 830.5890000000004C1264.822 830.5890000000004 1274.3929999999998 834.0030000000006 1282.119 841.0020000000004L1525.81 992.8980000000006C1535.1419999999998 1001.3110000000006 1540.306 1013.5620000000008 1539.9859999999999 1026.3080000000004C1539.705 1039.0569999999998 1533.8609999999999 1051.0549999999998 1524.2089999999998 1058.8870000000002z M614.675 1024.4740000000002L817.886 1139.623C835.7449999999999 1154.121 838.988 1180.8690000000001 825.0930000000001 1199.4479999999999C811.1590000000001 1218.112 785.374 1221.5299999999997 767.558 1206.9469999999997L524.828 1059.8869999999997C515.1759999999999 1052.0549999999998 509.3319999999999 1040.0569999999998 509.0119999999999 1027.3069999999998C508.731 1014.5609999999996 513.895 1002.31 523.184 993.897L765.9179999999999 841.0009999999997C773.645 834.002 783.2149999999999 830.5879999999997 792.703 830.5879999999997C804.1949999999999 830.5879999999997 815.644 835.5869999999995 823.7729999999999 845.4189999999999C838.5459999999998 863.25 836.6679999999999 890.1599999999999 819.5269999999998 905.576L614.675 1024.4740000000002z M923.987 705.752C902.238 712.8009999999999 890.3200000000002 736.1480000000001 897.3690000000001 757.8959999999997L1073.518 1315.4669999999996C1080.566 1337.2159999999994 1103.913 1349.1329999999998 1125.66 1342.0839999999998L1125.66 1342.0839999999998C1147.41 1335.036 1159.328 1311.69 1152.279 1289.9409999999998L976.1300000000002 732.3719999999998C969.0820000000002 710.6219999999998 945.737 698.7040000000002 923.987 705.752L923.987 705.752z" />
    <glyph glyph-name="icq"
      unicode="&#xEA37;"
      horiz-adv-x="2048" d=" M1209.858 1118.0839999999998L1214.259 1111.6109999999999L1218.684 1096.4389999999999L1490.3200000000002 1128.9189999999999C1516.819 1133.2359999999999 1541.096 1137.5729999999999 1563.1760000000004 1148.3849999999998C1618.3760000000002 1172.2099999999996 1651.5240000000003 1202.5319999999997 1666.9790000000003 1241.5089999999996L1671.3810000000003 1263.1549999999997L1662.554 1291.3079999999995C1649.3250000000003 1317.2909999999997 1622.8000000000002 1334.6119999999996 1585.275 1338.9379999999996C1545.522 1343.2739999999994 1507.9700000000003 1338.9379999999996 1468.219 1321.6189999999997L1441.7179999999998 1310.7969999999996L1218.6839999999997 1128.9209999999994L1209.858 1118.0839999999998z M724.0139999999999 1440.714L920.5479999999998 1230.6970000000001L953.6739999999998 1241.5080000000003L909.4989999999998 1497.0080000000003C905.0979999999998 1522.9920000000002 894.0479999999998 1544.6370000000002 882.9979999999998 1566.2960000000003C856.4969999999998 1620.4210000000003 823.3929999999998 1648.5740000000003 783.6429999999998 1659.3960000000002C765.9669999999999 1668.0620000000001 746.0919999999999 1668.0620000000001 732.8409999999999 1657.2280000000003C706.3399999999999 1642.0790000000004 690.8889999999999 1616.0950000000003 688.6879999999999 1577.1190000000004C684.2629999999999 1538.1440000000005 695.2919999999999 1501.3370000000004 712.9649999999999 1462.3610000000003L724.0139999999999 1440.714z M1088.381 1230.6970000000001C1110.4560000000001 1219.8630000000003 1132.556 1209.0280000000002 1152.432 1193.879L1351.167 1432.048C1364.4189999999999 1451.537 1375.467 1473.182 1384.3139999999999 1497.008L1390.9179999999997 1544.637C1390.9179999999997 1572.79 1384.3139999999999 1598.7759999999998 1373.2649999999999 1620.421C1353.3889999999997 1657.227 1320.263 1681.054 1273.888 1691.876C1231.9119999999998 1707.038 1187.7579999999998 1702.699 1148.0069999999998 1681.054C1108.254 1659.395 1077.3529999999998 1626.9160000000002 1066.3029999999999 1583.614L1064.1019999999999 1561.968L1066.3029999999999 1475.352L1088.381 1230.6970000000001z M1792.542 2048H259.79C119.2959999999999 2048 4.3309999999999 1933.035 4.3309999999999 1792.541V259.7889999999998C4.3309999999999 119.2729999999997 119.2959999999999 4.3309999999997 259.79 4.3309999999997H399.7149999999999H1034.984H1404.85H1792.5409999999997C1933.0809999999997 4.3309999999997 2047.9989999999996 119.2729999999997 2047.9989999999996 259.7889999999998V1792.541C2048.001 1933.035 1933.082 2048 1792.542 2048zM1781.81 760.8299999999999C1761.9319999999998 693.712 1722.1799999999998 641.701 1662.5549999999998 609.2419999999997C1600.7259999999997 576.7839999999997 1538.8759999999997 574.5819999999999 1468.2199999999998 596.2509999999997C1441.7189999999996 602.7699999999995 1419.6219999999998 613.56 1397.5679999999998 628.7079999999996C1408.5939999999996 574.5819999999994 1408.5939999999996 526.9749999999995 1397.5679999999998 479.3239999999996C1384.3149999999996 433.8729999999996 1357.8149999999996 397.0559999999996 1320.2639999999997 375.3879999999995C1280.5139999999997 349.4039999999996 1236.3599999999997 347.2449999999995 1192.1849999999997 360.2379999999994C1148.0079999999998 371.0729999999994 1108.2549999999997 401.3739999999994 1066.3039999999996 446.8649999999994L1064.1029999999996 433.8729999999992C1044.2049999999997 368.9139999999993 1004.4759999999995 316.9469999999992 942.6469999999998 284.445999999999C878.5949999999998 251.9879999999989 812.3439999999996 249.8289999999988 746.0909999999997 267.1359999999991C706.3389999999997 277.9709999999991 673.2359999999996 293.1189999999993 646.7349999999997 316.9469999999992C629.0369999999996 336.4129999999991 611.3849999999998 358.0809999999992 595.9329999999998 381.9059999999991C562.7849999999999 444.6649999999991 556.1829999999998 505.3079999999991 578.2589999999998 574.581999999999L589.2849999999999 602.7699999999991L629.0369999999998 667.726999999999C573.8339999999998 650.376999999999 523.0559999999998 650.376999999999 474.4759999999999 661.2089999999989C447.9759999999999 663.367999999999 425.877 674.2029999999991 408.2249999999999 689.351999999999C390.549 700.186999999999 379.5229999999999 715.3349999999991 368.473 732.6449999999991C346.375 769.4629999999993 341.972 808.4379999999992 353.022 847.414999999999C364.048 879.9159999999993 381.724 912.374999999999 412.626 938.3579999999992L445.753 966.5209999999992L430.3019999999999 970.8599999999992C390.55 977.3329999999992 357.424 992.5059999999994 330.923 1018.4879999999994C313.271 1031.4799999999996 293.374 1050.9689999999996 280.1230000000001 1074.7939999999994C249.2200000000001 1128.9199999999996 247.019 1187.3619999999996 271.2960000000001 1248.0049999999992C297.7960000000001 1310.7959999999994 337.549 1356.2669999999994 401.579 1388.7479999999991C463.4299999999998 1421.2269999999992 525.258 1429.8909999999992 591.509 1414.7309999999993L644.512 1397.4119999999994L629.037 1419.0579999999995C595.933 1479.6809999999996 584.884 1540.3129999999996 595.933 1603.1019999999996C606.961 1663.7239999999997 633.4839999999999 1707.0389999999995 679.838 1735.1909999999996C721.7909999999999 1756.8369999999995 761.5419999999999 1761.1639999999995 810.142 1750.3399999999995C865.345 1735.1909999999996 909.498 1702.6989999999994 944.848 1648.5739999999994L966.924 1609.5979999999995L975.751 1594.4489999999996L977.975 1609.5979999999995V1613.9249999999995C997.85 1678.8849999999995 1042.004 1728.6939999999995 1103.856 1761.1629999999996C1165.684 1793.6429999999996 1229.712 1800.1379999999995 1298.166 1782.8189999999995C1364.42 1765.5009999999995 1413.0189999999998 1733.0209999999995 1446.1239999999998 1678.8849999999995L1452.77 1668.0609999999995C1490.321 1605.2699999999995 1496.9229999999998 1538.1429999999996 1474.846 1468.8559999999995L1450.569 1414.7309999999998L1523.4250000000002 1429.8899999999999C1556.5510000000004 1432.049 1594.0770000000002 1432.049 1627.226 1425.5539999999999C1682.4300000000003 1410.4029999999998 1717.779 1382.25 1744.2580000000003 1338.937V1334.6099999999997C1766.333 1295.6329999999998 1770.7580000000003 1256.6799999999998 1755.3070000000002 1209.0269999999996C1733.2320000000004 1150.5639999999994 1684.6290000000004 1105.0929999999994 1616.1780000000003 1072.6119999999996C1640.4770000000003 1061.7999999999997 1666.9800000000005 1050.9669999999996 1689.0540000000005 1035.8159999999998C1715.5580000000004 1018.4859999999998 1733.2320000000004 992.504 1750.8830000000007 966.5189999999998L1761.9320000000007 949.1879999999996C1795.058 888.547 1799.482 825.7890000000002 1781.81 760.8299999999999z M1585.275 986.0079999999998L1563.176 988.1659999999998L1474.8449999999998 986.0079999999998L1225.3099999999997 964.3619999999996L1218.6839999999997 938.3569999999996L1203.2089999999998 905.8979999999996L1435.0929999999998 717.4939999999997C1450.5679999999998 700.1859999999997 1468.219 689.3509999999997 1494.723 682.8789999999999C1538.875 667.7269999999999 1578.625 672.0439999999999 1618.3759999999997 693.712C1655.9269999999997 711.0210000000002 1682.4289999999996 743.4780000000001 1693.4779999999996 786.8139999999999L1700.0829999999996 830.107C1700.0829999999996 866.9229999999998 1689.0529999999994 899.3809999999999 1666.9789999999998 923.208C1649.3249999999998 955.708 1618.377 975.174 1585.275 986.0079999999998z M823.392 1161.377L629.038 1299.9719999999998L569.433 1323.7859999999996C525.258 1334.6099999999997 485.528 1328.1139999999996 445.7539999999999 1306.4679999999994C403.8019999999999 1289.1369999999993 375.078 1256.6799999999994 359.626 1215.5249999999992C346.377 1183.0449999999992 346.377 1150.5649999999991 364.05 1118.0849999999991C381.7259999999999 1085.6279999999992 408.2269999999999 1068.275999999999 447.9769999999999 1061.800999999999L470.0549999999998 1057.4649999999992L788.0449999999998 1096.4399999999991C794.6890000000001 1118.0839999999998 805.7180000000001 1139.754 823.392 1161.377z M1276.11 667.7269999999999L1218.684 737.0039999999999L1125.93 830.107L1097.2060000000001 814.9560000000001L1059.678 801.9650000000001L1092.804 613.5610000000001L1119.304 542.1280000000002C1143.604 490.1580000000004 1176.71 457.6570000000002 1218.6840000000002 446.866C1236.3590000000002 444.6660000000002 1254.0090000000002 444.6660000000002 1269.4620000000002 455.4989999999998C1295.9630000000002 466.3329999999996 1309.2160000000001 494.4749999999999 1313.6370000000002 533.451C1318.0620000000001 574.5830000000001 1307.0130000000001 609.2429999999999 1287.1360000000002 646.0610000000001L1276.11 667.7269999999999z M1154.655 1014.1489999999998C1154.655 1053.125 1141.383 1085.6279999999997 1110.456 1115.9279999999999C1086.1789999999999 1139.754 1048.6519999999998 1154.902 1008.8989999999998 1154.902C966.9229999999998 1154.902 931.598 1139.754 905.097 1115.9279999999999C876.395 1085.6279999999997 860.942 1053.125 860.942 1014.1489999999998C860.942 975.1729999999998 876.395 938.357 905.097 912.3739999999998C931.598 884.232 966.923 869.0809999999997 1008.8989999999998 869.0809999999997C1048.6519999999998 869.0809999999997 1081.753 884.2319999999995 1110.456 912.3739999999998C1141.383 938.357 1154.655 975.174 1154.655 1014.1489999999998z M887.444 825.7890000000002L701.9379999999999 609.2420000000002C684.262 591.9340000000002 673.2359999999999 570.2670000000003 668.79 548.5980000000004L657.761 498.8320000000003C657.761 472.8480000000004 666.588 446.8640000000005 677.636 425.1980000000003C695.29 390.5380000000005 728.4379999999999 364.5540000000006 772.5909999999999 353.7620000000002C812.3429999999998 342.9290000000001 854.2959999999998 347.2440000000002 894.0469999999998 368.9120000000003C933.7979999999998 386.2200000000003 960.2999999999998 418.7230000000004 975.7509999999997 457.6540000000005L977.9749999999996 479.3220000000006V565.9490000000005C966.9239999999998 650.3750000000005 960.3009999999998 728.3260000000005 955.8979999999996 801.9620000000004C931.599 804.1210000000001 909.499 814.9549999999999 887.444 825.7890000000002z" />
    <glyph glyph-name="image"
      unicode="&#xEA38;"
      horiz-adv-x="2048" d=" M1920 1792H128C57.308 1792 0 1734.692 0 1664V256C0 185.3090000000002 57.308 128 128 128H1920C1990.692 128 2048 185.3090000000002 2048 256V1664C2048 1734.693 1990.692 1792 1920 1792zM1920 576C1920 540.654 1891.3470000000004 512 1856 512H1792L1408 1088L1024 512H896L1078.857 786.2849999999999L768 1408L256 512H192C156.654 512 128 540.654 128 576V1600C128 1635.346 156.654 1664 192 1664H1856C1891.3470000000004 1664 1920 1635.346 1920 1600V576z M1536 1408C1536 1337.3075520216585 1593.3075520216585 1280 1664 1280C1734.6924479783415 1280 1792 1337.3075520216585 1792 1408C1792 1478.6924479783415 1734.6924479783415 1536 1664 1536C1593.3075520216585 1536 1536 1478.6924479783415 1536 1408z" />
    <glyph glyph-name="img-vid"
      unicode="&#xEA39;"
      horiz-adv-x="2048" d=" M1408 576.0010000000002L1792 576.0010000000002L1600 384 M1216 1408H384C313.308 1408 256 1350.6909999999998 256 1280V768C256 697.3090000000002 313.308 640 384 640H1216C1286.691 640 1344 697.3090000000002 1344 768V1280C1344 1350.6909999999998 1286.691 1408 1216 1408zM1216 832C1216 796.654 1187.346 768 1152 768H448C412.654 768 384 796.654 384 832V1216C384 1251.346 412.654 1280 448 1280H1152C1187.346 1280 1216 1251.346 1216 1216V832z M896 960L640 1216L448 1024L448 832L1152 832L1152 960L1024 1088z" />
    <glyph glyph-name="info"
      unicode="&#xEA3A;"
      horiz-adv-x="2048" d=" M1025.8 1792.3C601.9 1792.3 258.2 1448.7 258.2 1024.7C258.2 600.8000000000002 601.8 257.0999999999999 1025.8 257.0999999999999S1793.4 600.6999999999998 1793.4 1024.6999999999998C1793.3 1448.7 1449.7 1792.3 1025.8 1792.3zM1129.4 563.3C1058.4 492.3 991.1000000000003 453 927.7 445.2000000000001C884 439.9000000000001 850.9000000000001 447.2000000000001 828.4000000000001 467.1000000000001C805.9000000000001 487.0000000000002 792.9000000000001 511.1000000000001 789.5000000000001 539.2C787.3000000000001 556.9000000000001 787.9000000000001 573.6000000000001 791.3000000000001 589.3C794.7 605 798.5000000000001 621.0999999999999 802.8000000000001 637.3999999999999L913.5 963C919.7 981.7 923.9 996.7 926.2 1008.1C928.5 1019.5 929.1 1029.3 928.1 1037.6C927.1 1045.8999999999999 924.8 1051.6999999999998 921.2 1055C917.6 1058.1999999999998 913.2 1059.6 908.1 1058.8999999999999C894.6 1057.1999999999998 870.8000000000001 1033.5 836.8000000000001 987.6C802.8000000000001 941.6999999999998 782.2 918.3999999999997 774.9000000000001 917.5C766.6000000000001 916.5 757.6000000000001 921.2 747.8000000000001 931.6C738.1 942 733.0000000000001 948.8 732.6 951.8999999999997C731.3000000000001 962.3 739.1 980.3999999999997 756 1006.1999999999998C772.9 1031.9999999999998 794.8 1059.7999999999997 821.8 1089.4999999999998C845.9 1116.6999999999998 875.6999999999999 1143.1 911.1 1168.4999999999998C946.4999999999998 1193.8999999999996 978.8 1208.3999999999996 1007.8999999999997 1211.9999999999998C1054.6999999999998 1217.6999999999998 1091.3999999999999 1208.6999999999998 1118.1 1185.1C1144.6999999999998 1161.3999999999996 1160.3999999999999 1130.8999999999996 1164.8999999999999 1093.3999999999996C1166.8 1077.7999999999997 1167.3 1060.9999999999998 1166.3 1042.8999999999996C1165.3 1024.7999999999997 1160.8 1005.7999999999998 1152.7 985.7999999999998L1066 710.6999999999998C1059.3 687.6999999999998 1054.7 669.1999999999998 1052.2 655.1999999999998C1049.7 641.1999999999998 1048.8 631.4999999999998 1049.4 626.3999999999999C1050.2 620.1999999999998 1052.2 616.4999999999998 1055.5 615.3C1058.8 614.0999999999999 1062 613.7 1065.1 614.0999999999999C1088 616.8999999999999 1112.8 636.5999999999999 1139.5 673.0999999999999C1166.2 709.5999999999999 1183.7 728.3999999999999 1192 729.3999999999999C1199.3 730.3 1207.7 725.8 1217.4 715.8999999999999C1227 705.9999999999998 1232.1000000000001 698.9999999999998 1232.6000000000001 694.8C1234.9 678.0999999999999 1200.4 634.3 1129.4 563.3zM1225.5 1409.7C1201.4 1378.2 1169.5 1360.1 1130 1355.3000000000002C1091.5 1350.6 1056.5 1360.6 1025 1385.2C993.5 1409.9 975.4 1441.4 970.7 1479.9C966 1518.4 976 1553.4 1000.6 1584.9C1025.3 1616.4 1056.8 1634.5 1095.3 1639.2C1134.8 1644 1170.1 1634.1000000000001 1201.1 1609.4C1232.1 1584.7 1250 1553.1000000000001 1254.6999999999998 1514.6000000000001C1259.3 1476.1 1249.6 1441.1 1225.5 1409.7z" />
    <glyph glyph-name="insert-link"
      unicode="&#xEA3B;"
      horiz-adv-x="2048" d=" M1406.956 1920.354H1342.9409999999998C1341.1139999999998 1920.354 1339.3189999999997 1920.234 1337.523 1920.08H639.986C569.278 1920.08 511.96 1862.761 511.96 1792.051V1280.214H639.986V1728.04C639.986 1763.394 668.651 1792.0520000000001 704.001 1792.0520000000001H1278.932V1344.229C1278.932 1308.8780000000002 1307.589 1280.214 1342.942 1280.214H1791.0430000000001V320.0039999999999C1791.0430000000001 284.6509999999999 1762.382 255.9939999999999 1727.027 255.9939999999999H704C668.65 255.9939999999999 639.985 284.6509999999999 639.985 320.0039999999999V640.0739999999998H511.959V255.9939999999999C511.959 185.2869999999998 569.278 127.9659999999999 639.985 127.9659999999999H1791.0410000000002C1861.7490000000005 127.9659999999999 1919.0670000000005 185.2869999999998 1919.0670000000005 255.9939999999999V1344.229V1408.245L1406.956 1920.354z M1263.687 993.613L851.949 1394.385C851.894 1394.429 851.827 1394.467 851.776 1394.511C842.814 1403.02 830.7389999999999 1408.243 817.42 1408.243C791.737 1408.243 770.5949999999999 1388.83 767.8539999999999 1363.8829999999998C767.6629999999999 1362.7669999999998 767.56 1361.695 767.5369999999999 1360.6529999999998V1152.882H178.615C151.078 1152.882 128.741 1130.549 128.741 1103.003V819.5899999999999C128.741 792.0359999999998 151.078 769.7159999999999 178.615 769.7159999999999H767.537V557.5259999999998C767.571 557.0699999999999 767.6360000000001 556.5859999999998 767.7370000000001 556.1039999999998C769.9370000000001 530.5799999999999 791.3340000000001 510.5519999999999 817.4200000000001 510.5519999999999C829.796 510.5519999999999 841.1070000000001 515.0739999999998 849.8320000000001 522.538C851.5540000000001 523.386 853.0970000000001 524.463 854.4110000000001 525.7930000000001L1263.6870000000001 923.074C1283.18 942.557 1283.18 974.137 1263.687 993.613z" />
    <glyph glyph-name="italic"
      unicode="&#xEA3C;"
      horiz-adv-x="2048" d=" M974.175 1389.7710000000002L979.195 1406.1420000000003H1281.27L1275.345 1389.7710000000002C1247.965 1389.7710000000002 1227.066 1383.422 1212.617 1370.737C1198.1689999999999 1358.0370000000003 1178.28 1331.5520000000001 1167.334 1291.2580000000003L1023.507 882.5490000000004C1015.2920000000001 853.3590000000004 1004.21 833.8420000000006 1004.21 824.0160000000005C1004.21 812.5780000000004 1008.458 803.7030000000004 1016.981 797.3670000000006C1027.927 789.1050000000005 1048.607 784.6680000000006 1079.021 784.0350000000008L1074.456 767.6650000000009H768.2949999999998L773.3159999999998 784.0350000000008C804.0229999999999 784.0350000000008 826.5119999999997 790.1300000000006 840.8149999999998 802.3470000000007C855.1029999999998 814.5650000000005 874.9989999999998 841.2880000000005 886.5569999999998 882.5470000000005L1030.3679999999997 1291.2560000000003C1037.3459999999998 1316.6260000000002 1048.0549999999996 1335.8250000000003 1048.0549999999996 1348.842C1048.0549999999996 1360.5790000000002 1043.7939999999996 1369.7730000000001 1035.2849999999996 1376.438C1026.773 1383.105 1006.4 1387.5439999999999 974.175 1389.7710000000002z" />
    <glyph glyph-name="last"
      unicode="&#xEA3D;"
      horiz-adv-x="2048" d=" M0 1814.11L1.6130000000001 1812.82C-2.1429999999999 1841.121 7.6130000000001 1870.565 30.9290000000001 1892.157C71.306 1929.55 137.0500000000001 1929.239 177.7710000000001 1891.462L1056.899 1088C1075.589 1070.6619999999998 1085.752 1048.444 1087.3819999999998 1025.864C1090.6589999999999 997.8139999999999 1080.8919999999998 968.9479999999998 1057.9789999999998 947.754L180.16 155.6880000000001C139.541 118.1190000000002 73.002 118.8780000000002 31.545 157.386C8.9409999999999 178.3800000000001 -1.537 206.261 0.1859999999999 233.366L-1e-13 233.2919999999999V1814.11z M1407.3829999999998 1025.864C1405.752 1048.444 1395.5899999999997 1070.6620000000003 1376.8999999999996 1088L960 1469.018V1814.11L961.613 1812.82C957.857 1841.121 967.613 1870.565 990.929 1892.157C1031.306 1929.55 1097.0500000000002 1929.239 1137.7710000000002 1891.462L2016.899 1088C2035.589 1070.6619999999998 2045.752 1048.444 2047.382 1025.864C2050.659 997.8139999999999 2040.8920000000005 968.9479999999998 2017.9790000000005 947.754L1140.1600000000003 155.6880000000001C1099.5410000000004 118.1190000000002 1033.0020000000004 118.8780000000002 991.5450000000004 157.386C968.9410000000001 178.3800000000001 958.4630000000002 206.261 960.1860000000004 233.366L960.0000000000005 233.2919999999999V570.6059999999998L1377.9790000000003 947.7529999999998C1400.893 968.9479999999998 1410.6599999999999 997.8139999999999 1407.3829999999998 1025.864z" />
    <glyph glyph-name="link-dd"
      unicode="&#xEA3E;"
      horiz-adv-x="2048" d=" M1280 576.0010000000002L1667.7089999999998 576.0010000000002L1472 384 M1212.521 1279.9850000000001C1099.792 1279.9850000000001 1003.907 1217.857 968.3609999999998 1131.152H1083.34C1111.2089999999998 1167.047 1158.6609999999998 1190.6840000000002 1212.522 1190.6840000000002C1298.321 1190.6840000000002 1367.8719999999998 1130.7140000000004 1367.8719999999998 1056.7340000000004C1367.8719999999998 982.7550000000006 1298.32 922.7850000000004 1212.523 922.7850000000004C1158.664 922.7850000000004 1111.211 946.4220000000004 1083.34 982.3180000000002H968.3609999999998C1003.907 895.6130000000003 1099.792 833.4860000000003 1212.522 833.4860000000003C1355.5149999999999 833.4860000000003 1471.435 933.4370000000004 1471.435 1056.7340000000004C1471.4360000000001 1180.033 1355.516 1279.9850000000001 1212.521 1279.9850000000001z M642.913 921.596C557.115 921.596 487.5640000000001 981.768 487.5640000000001 1055.9920000000002C487.5640000000001 1130.217 557.115 1190.3880000000004 642.913 1190.3880000000004C696.771 1190.3880000000004 744.2249999999999 1166.6710000000003 772.094 1130.6560000000004H887.0730000000001C851.528 1217.6510000000003 755.644 1279.9860000000003 642.9140000000002 1279.9860000000003C499.9190000000003 1279.9860000000003 384.0000000000003 1179.7010000000005 384.0000000000003 1055.9920000000002C384.0000000000003 932.2850000000004 499.9190000000003 832 642.9130000000002 832C755.6420000000003 832 851.5270000000003 894.3339999999998 887.0720000000001 981.33H772.0930000000001C744.2249999999999 945.3110000000001 696.771 921.596 642.913 921.596z M727.441 1088.658L727.441 1088.658C727.421 1088.6569999999997 727.4069999999999 1088.658 727.387 1088.658C713.642 1088.658 702.498 1074.4809999999998 702.498 1056.9919999999997C702.498 1039.502 713.6410000000001 1025.3259999999996 727.387 1025.3259999999996C727.4069999999999 1025.3259999999996 727.422 1025.3259999999996 727.441 1025.3259999999996L727.441 1025.3259999999996H1126.384V1025.3509999999997C1139.771 1025.8709999999996 1150.497 1039.8309999999997 1150.497 1056.9919999999997C1150.497 1074.1479999999997 1139.768 1088.1099999999997 1126.384 1088.6329999999998V1088.656L727.441 1088.658L727.441 1088.658z" />
    <glyph glyph-name="link"
      unicode="&#xEA3F;"
      horiz-adv-x="2048" d=" M1276.521 1215.9989999999998C1163.792 1215.9989999999998 1067.907 1153.8709999999996 1032.3609999999999 1067.1659999999997H1147.34C1175.2089999999998 1103.0609999999997 1222.6609999999998 1126.6979999999999 1276.522 1126.6979999999999C1362.3199999999997 1126.6979999999999 1431.871 1066.728 1431.871 992.7489999999998S1362.319 858.799 1276.5220000000002 858.799C1222.6630000000002 858.799 1175.2100000000003 882.4360000000001 1147.3400000000001 918.3319999999998H1032.361C1067.9070000000002 831.627 1163.7920000000001 769.5 1276.5220000000002 769.5C1419.5150000000003 769.5 1535.4350000000004 869.451 1535.4350000000004 992.748C1535.4360000000001 1116.047 1419.516 1215.9989999999998 1276.521 1215.9989999999998z M706.913 857.6100000000001C621.115 857.6100000000001 551.5640000000001 917.781 551.5640000000001 992.0060000000004S621.115 1126.4020000000005 706.913 1126.4020000000005C760.771 1126.4020000000005 808.2249999999999 1102.6850000000004 836.094 1066.6700000000005H951.073C915.528 1153.6650000000004 819.644 1216.0000000000005 706.9140000000002 1216.0000000000005C563.9190000000001 1216 448 1115.7150000000001 448 992.0059999999997C448 868.299 563.9190000000001 768.0139999999997 706.913 768.0139999999997C819.642 768.0139999999997 915.527 830.3479999999995 951.0720000000002 917.3439999999996H836.0930000000001C808.2249999999999 881.3249999999998 760.771 857.6100000000001 706.913 857.6100000000001z M791.441 1024.672L791.441 1024.672C791.422 1024.6709999999998 791.4069999999999 1024.672 791.3879999999999 1024.672C777.6419999999998 1024.672 766.499 1010.4940000000003 766.499 993.0059999999997C766.499 975.516 777.642 961.3399999999996 791.3879999999999 961.3399999999996C791.4069999999999 961.3399999999996 791.423 961.3399999999996 791.441 961.3399999999996L791.441 961.3399999999996H1190.385V961.3649999999998C1203.771 961.886 1214.498 975.846 1214.498 993.0059999999997C1214.498 1010.1619999999998 1203.77 1024.1239999999998 1190.385 1024.647V1024.6709999999998L791.441 1024.672L791.441 1024.672z" />
    <glyph glyph-name="linkedin"
      unicode="&#xEA40;"
      horiz-adv-x="2048" d=" M1793.1480000000001 2049H257.021C116.2190000000001 2049 1 1933.781 1 1792.979V256.8519999999999C1 116.0270000000001 116.2190000000001 0.8309999999997 257.021 0.8309999999997H397.2539999999999H1033.9209999999998H1404.603H1793.1480000000001C1933.998 0.8309999999997 2049.1690000000003 116.0259999999999 2049.1690000000003 256.8519999999999V1792.979C2049.17 1933.781 1933.998 2049 1793.1480000000001 2049zM642.1479999999999 383.1190000000002H385.1679999999999V1278.179H642.1479999999999V383.1190000000002zM510.845 1408.7179999999998C433.9490000000001 1408.7179999999998 384.2560000000001 1466.33 384.2560000000001 1537.4699999999998C384.2560000000001 1610.322 435.5550000000001 1666.2469999999998 514.0610000000001 1666.2469999999998C592.6000000000001 1666.2469999999998 640.6980000000001 1610.321 642.2820000000002 1537.4699999999998C642.2819999999999 1466.33 592.5999999999999 1408.7179999999998 510.845 1408.7179999999998zM1660.5700000000002 383.1039999999998H1406.5880000000002V879.154C1406.5880000000002 994.478 1314.8430000000003 1073.159 1215.3390000000002 1073.159C1139.3790000000001 1073.159 1052.15 1015.58 1032.236 964.3360000000002C1024.978 946.0500000000002 1023.1650000000002 920.4050000000002 1023.1650000000002 894.7750000000001L1024 384H768L767.682 992.6440000000002C767.682 1104.2820000000002 764.0799999999999 1200.621 760.481 1281.1800000000003H990.234L1002.9469999999998 1153.7050000000004H1008.3619999999999C1044.522 1212.3060000000005 1195.649 1298.3300000000004 1344 1298.3300000000004C1524.8940000000002 1298.3300000000004 1660.5700000000002 1175.6770000000006 1660.5700000000002 912.1110000000004V383.1039999999998z" />
    </font>
</defs>
</svg>
